G04 #@! TF.GenerationSoftware,KiCad,Pcbnew,(6.0.6)*
G04 #@! TF.CreationDate,2022-08-01T11:52:36+07:00*
G04 #@! TF.ProjectId,SofleKeyboard,536f666c-654b-4657-9962-6f6172642e6b,rev?*
G04 #@! TF.SameCoordinates,Original*
G04 #@! TF.FileFunction,Soldermask,Bot*
G04 #@! TF.FilePolarity,Negative*
%FSLAX46Y46*%
G04 Gerber Fmt 4.6, Leading zero omitted, Abs format (unit mm)*
G04 Created by KiCad (PCBNEW (6.0.6)) date 2022-08-01 11:52:36*
%MOMM*%
%LPD*%
G01*
G04 APERTURE LIST*
G04 Aperture macros list*
%AMRoundRect*
0 Rectangle with rounded corners*
0 $1 Rounding radius*
0 $2 $3 $4 $5 $6 $7 $8 $9 X,Y pos of 4 corners*
0 Add a 4 corners polygon primitive as box body*
4,1,4,$2,$3,$4,$5,$6,$7,$8,$9,$2,$3,0*
0 Add four circle primitives for the rounded corners*
1,1,$1+$1,$2,$3*
1,1,$1+$1,$4,$5*
1,1,$1+$1,$6,$7*
1,1,$1+$1,$8,$9*
0 Add four rect primitives between the rounded corners*
20,1,$1+$1,$2,$3,$4,$5,0*
20,1,$1+$1,$4,$5,$6,$7,0*
20,1,$1+$1,$6,$7,$8,$9,0*
20,1,$1+$1,$8,$9,$2,$3,0*%
%AMRotRect*
0 Rectangle, with rotation*
0 The origin of the aperture is its center*
0 $1 length*
0 $2 width*
0 $3 Rotation angle, in degrees counterclockwise*
0 Add horizontal line*
21,1,$1,$2,0,0,$3*%
%AMFreePoly0*
4,1,22,0.500000,-0.750000,0.000000,-0.750000,0.000000,-0.745033,-0.079941,-0.743568,-0.215256,-0.701293,-0.333266,-0.622738,-0.424486,-0.514219,-0.481581,-0.384460,-0.499164,-0.250000,-0.500000,-0.250000,-0.500000,0.250000,-0.499164,0.250000,-0.499963,0.256109,-0.478152,0.396186,-0.417904,0.524511,-0.324060,0.630769,-0.204165,0.706417,-0.067858,0.745374,0.000000,0.744959,0.000000,0.750000,
0.500000,0.750000,0.500000,-0.750000,0.500000,-0.750000,$1*%
%AMFreePoly1*
4,1,20,0.000000,0.744959,0.073905,0.744508,0.209726,0.703889,0.328688,0.626782,0.421226,0.519385,0.479903,0.390333,0.500000,0.250000,0.500000,-0.250000,0.499851,-0.262216,0.476331,-0.402017,0.414519,-0.529596,0.319384,-0.634700,0.198574,-0.708877,0.061801,-0.746166,0.000000,-0.745033,0.000000,-0.750000,-0.500000,-0.750000,-0.500000,0.750000,0.000000,0.750000,0.000000,0.744959,
0.000000,0.744959,$1*%
G04 Aperture macros list end*
%ADD10C,4.700000*%
%ADD11C,1.701800*%
%ADD12C,3.987800*%
%ADD13C,1.700000*%
%ADD14R,2.550000X2.500000*%
%ADD15RotRect,2.550000X2.500000X240.000000*%
%ADD16RotRect,2.550000X2.500000X337.000000*%
%ADD17C,4.000000*%
%ADD18C,3.000000*%
%ADD19R,2.550000X2.350000*%
%ADD20RoundRect,0.300000X0.300000X0.300000X-0.300000X0.300000X-0.300000X-0.300000X0.300000X-0.300000X0*%
%ADD21O,0.762000X14.750000*%
%ADD22C,1.752600*%
%ADD23R,1.600000X0.850000*%
%ADD24O,0.762000X8.800000*%
%ADD25C,0.650000*%
%ADD26O,2.100000X1.000000*%
%ADD27O,1.600000X1.000000*%
%ADD28O,0.762000X7.000000*%
%ADD29C,0.900000*%
%ADD30C,1.400000*%
%ADD31R,1.700000X1.700000*%
%ADD32O,1.700000X1.700000*%
%ADD33RoundRect,0.250000X0.350000X0.450000X-0.350000X0.450000X-0.350000X-0.450000X0.350000X-0.450000X0*%
%ADD34O,0.762000X10.800000*%
%ADD35R,2.000000X2.000000*%
%ADD36C,2.000000*%
%ADD37R,3.200000X2.000000*%
%ADD38RoundRect,0.300000X0.300000X-0.395000X0.300000X0.395000X-0.300000X0.395000X-0.300000X-0.395000X0*%
%ADD39RoundRect,0.300000X-0.300000X0.395000X-0.300000X-0.395000X0.300000X-0.395000X0.300000X0.395000X0*%
%ADD40FreePoly0,0.000000*%
%ADD41FreePoly1,0.000000*%
%ADD42RoundRect,0.300000X0.121813X-0.480819X0.430490X0.246380X-0.121813X0.480819X-0.430490X-0.246380X0*%
%ADD43RoundRect,0.300000X-0.121813X0.480819X-0.430490X-0.246380X0.121813X-0.480819X0.430490X0.246380X0*%
%ADD44RoundRect,0.400000X0.400000X0.400000X-0.400000X0.400000X-0.400000X-0.400000X0.400000X-0.400000X0*%
%ADD45RoundRect,0.225000X-0.225000X-0.250000X0.225000X-0.250000X0.225000X0.250000X-0.225000X0.250000X0*%
%ADD46RoundRect,0.225000X0.225000X0.250000X-0.225000X0.250000X-0.225000X-0.250000X0.225000X-0.250000X0*%
%ADD47R,1.500000X1.000000*%
%ADD48R,0.800000X1.422000*%
%ADD49R,2.368000X0.700000*%
%ADD50R,2.362600X0.600000*%
%ADD51R,2.366000X0.300000*%
%ADD52R,2.366000X0.305000*%
%ADD53RoundRect,0.300000X-0.492080X-0.062308X0.192080X-0.457308X0.492080X0.062308X-0.192080X0.457308X0*%
%ADD54RoundRect,0.300000X0.492080X0.062308X-0.192080X0.457308X-0.492080X-0.062308X0.192080X-0.457308X0*%
G04 APERTURE END LIST*
D10*
X208838800Y-58521600D03*
X132125141Y-65166580D03*
X208625140Y-96466581D03*
X132125141Y-103466580D03*
X234125140Y-119766581D03*
D11*
X212345141Y-48956580D03*
D12*
X217425141Y-48956580D03*
D13*
X222505141Y-48956580D03*
D14*
X209865141Y-46416580D03*
X223715141Y-43876580D03*
D13*
X203505140Y-46456582D03*
D11*
X193345140Y-46456582D03*
D12*
X198425140Y-46456582D03*
D14*
X190865140Y-43916582D03*
X204715140Y-41376582D03*
D13*
X184505140Y-43966580D03*
D11*
X174345140Y-43966580D03*
D12*
X179425140Y-43966580D03*
D14*
X171865140Y-41426580D03*
X185715140Y-38886580D03*
D13*
X165505141Y-46456581D03*
D12*
X160425141Y-46456581D03*
D11*
X155345141Y-46456581D03*
D14*
X152865141Y-43916581D03*
X166715141Y-41376581D03*
D12*
X141425140Y-55456582D03*
D11*
X136345140Y-55456582D03*
D13*
X146505140Y-55456582D03*
D14*
X133865140Y-52916582D03*
X147715140Y-50376582D03*
D11*
X117345140Y-55456581D03*
D13*
X127505140Y-55456581D03*
D12*
X122425140Y-55456581D03*
D14*
X114865140Y-52916581D03*
X128715140Y-50376581D03*
D12*
X217425141Y-68056582D03*
D11*
X212345141Y-68056582D03*
D13*
X222505141Y-68056582D03*
D14*
X209865141Y-65516582D03*
X223715141Y-62976582D03*
D11*
X193345141Y-65556580D03*
D13*
X203505141Y-65556580D03*
D12*
X198425141Y-65556580D03*
D14*
X190865141Y-63016580D03*
X204715141Y-60476580D03*
D12*
X179425140Y-63056582D03*
D13*
X184505140Y-63056582D03*
D11*
X174345140Y-63056582D03*
D14*
X171865140Y-60516582D03*
X185715140Y-57976582D03*
D12*
X160425140Y-65456582D03*
D11*
X155345140Y-65456582D03*
D13*
X165505140Y-65456582D03*
D14*
X152865140Y-62916582D03*
X166715140Y-60376582D03*
D13*
X146505140Y-74356582D03*
D12*
X141425140Y-74356582D03*
D11*
X136345140Y-74356582D03*
D14*
X133865140Y-71816582D03*
X147715140Y-69276582D03*
D13*
X127505140Y-74356582D03*
D12*
X122425140Y-74356582D03*
D11*
X117345140Y-74356582D03*
D14*
X114865140Y-71816582D03*
X128715140Y-69276582D03*
D12*
X217425141Y-87056580D03*
D13*
X222505141Y-87056580D03*
D11*
X212345141Y-87056580D03*
D14*
X209865141Y-84516580D03*
X223715141Y-81976580D03*
D11*
X193345140Y-84556582D03*
D12*
X198425140Y-84556582D03*
D13*
X203505140Y-84556582D03*
D14*
X190865140Y-82016582D03*
X204715140Y-79476582D03*
D11*
X174345140Y-82156582D03*
D12*
X179425140Y-82156582D03*
D13*
X184505140Y-82156582D03*
D14*
X171865140Y-79616582D03*
X185715140Y-77076582D03*
D13*
X165505141Y-84556581D03*
D11*
X155345141Y-84556581D03*
D12*
X160425141Y-84556581D03*
D14*
X152865141Y-82016581D03*
X166715141Y-79476581D03*
D12*
X141425140Y-93556582D03*
D11*
X136345140Y-93556582D03*
D13*
X146505140Y-93556582D03*
D14*
X133865140Y-91016582D03*
X147715140Y-88476582D03*
D11*
X117345140Y-93556580D03*
D12*
X122425140Y-93556580D03*
D13*
X127505140Y-93556580D03*
D14*
X114865140Y-91016580D03*
X128715140Y-88476580D03*
D11*
X212345141Y-106056581D03*
D12*
X217425141Y-106056581D03*
D13*
X222505141Y-106056581D03*
D14*
X209865141Y-103516581D03*
X223715141Y-100976581D03*
D11*
X193345141Y-103656580D03*
D12*
X198425141Y-103656580D03*
D13*
X203505141Y-103656580D03*
D14*
X190865141Y-101116580D03*
X204715141Y-98576580D03*
D11*
X174345140Y-101156582D03*
D12*
X179425140Y-101156582D03*
D13*
X184505140Y-101156582D03*
D14*
X171865140Y-98616582D03*
X185715140Y-96076582D03*
D13*
X165505140Y-103656581D03*
D12*
X160425140Y-103656581D03*
D11*
X155345140Y-103656581D03*
D14*
X152865140Y-101116581D03*
X166715140Y-98576581D03*
D12*
X141425140Y-112556582D03*
D13*
X146505140Y-112556582D03*
D11*
X136345140Y-112556582D03*
D14*
X133865140Y-110016582D03*
X147715140Y-107476582D03*
D12*
X122375141Y-112556582D03*
D11*
X117295141Y-112556582D03*
D13*
X127455141Y-112556582D03*
D14*
X114815141Y-110016582D03*
X128665141Y-107476582D03*
D12*
X241225141Y-132366580D03*
D13*
X238685141Y-136765989D03*
D11*
X243765141Y-127967171D03*
D15*
X247204846Y-127089428D03*
X242479550Y-140353880D03*
D12*
X220325140Y-127356582D03*
D11*
X215648975Y-125371668D03*
D13*
X225001305Y-129341496D03*
D16*
X214358580Y-122064572D03*
X228100030Y-125138116D03*
D12*
X198425140Y-122756581D03*
D11*
X193345140Y-122756581D03*
D13*
X203505140Y-122756581D03*
D14*
X190865140Y-120216581D03*
X204715140Y-117676581D03*
D13*
X184505140Y-120156582D03*
D11*
X174345140Y-120156582D03*
D12*
X179425140Y-120156582D03*
D14*
X171865140Y-117616582D03*
X185715140Y-115076582D03*
D17*
X232795140Y-92848580D03*
D12*
X160425141Y-122656581D03*
D13*
X165505141Y-122656581D03*
D11*
X155345141Y-122656581D03*
D14*
X152865141Y-120116581D03*
X166715141Y-117576581D03*
D17*
X251243141Y-92848582D03*
D18*
X82102640Y-69426582D03*
D11*
X74482640Y-74506582D03*
D18*
X77022640Y-69426582D03*
D11*
X84642640Y-74506582D03*
D12*
X79562640Y-74506582D03*
D18*
X75752640Y-71966582D03*
X83372640Y-71966582D03*
D14*
X72002640Y-71966582D03*
D19*
X85852640Y-69426582D03*
D13*
X103692641Y-55456582D03*
D11*
X93532641Y-55456582D03*
D12*
X98612641Y-55456582D03*
D14*
X91052641Y-52916582D03*
X104902641Y-50376582D03*
D20*
X108712000Y-62611000D03*
D21*
X109093000Y-71212500D03*
D22*
X229907140Y-38416581D03*
X229907140Y-40956581D03*
X229907140Y-43496581D03*
X229907140Y-46036581D03*
X229907140Y-48576581D03*
X229907140Y-51116581D03*
X229907140Y-53656581D03*
X229907140Y-56196581D03*
X229907140Y-58736581D03*
X229907140Y-61276581D03*
X229907140Y-63816581D03*
X229907140Y-66356581D03*
X229907140Y-68896581D03*
X229907140Y-71436581D03*
X229907140Y-73976581D03*
X229907140Y-76516581D03*
X229907140Y-79056581D03*
X229907140Y-81596581D03*
X229907140Y-84136581D03*
X229907140Y-86676581D03*
X245147140Y-38416581D03*
X245147140Y-40956581D03*
X245147140Y-43496581D03*
X245147140Y-46036581D03*
X245147140Y-48576581D03*
X245147140Y-51116581D03*
X245147140Y-53656581D03*
X245147140Y-56196581D03*
X245147140Y-58736581D03*
X245147140Y-61276581D03*
X245147140Y-63816581D03*
X245147140Y-66356581D03*
X245147140Y-68896581D03*
X245147140Y-71436581D03*
X245147140Y-73976581D03*
X245147140Y-76516581D03*
X245147140Y-79056581D03*
X245147140Y-81596581D03*
X245147140Y-84136581D03*
X245147140Y-86676581D03*
D20*
X108712000Y-79814000D03*
D23*
X55146000Y-102249000D03*
X58646000Y-103999000D03*
X55146000Y-103999000D03*
X58646000Y-102249000D03*
D11*
X55432641Y-74506581D03*
D12*
X60512641Y-74506581D03*
D13*
X65592641Y-74506581D03*
D14*
X52952641Y-71966581D03*
X66802641Y-69426581D03*
D20*
X112522000Y-99730480D03*
D23*
X140236000Y-101995000D03*
X143736000Y-103745000D03*
X140236000Y-103745000D03*
X143736000Y-101995000D03*
D20*
X112522000Y-97790000D03*
X108712000Y-99730480D03*
D21*
X112141000Y-71212500D03*
D20*
X108712000Y-84914000D03*
X112522000Y-79814000D03*
D24*
X109093000Y-92202000D03*
D18*
X101152641Y-69426581D03*
X96072641Y-69426581D03*
D11*
X93532641Y-74506581D03*
D18*
X94802641Y-71966581D03*
X102422641Y-71966581D03*
D12*
X98612641Y-74506581D03*
D11*
X103692641Y-74506581D03*
D14*
X91052641Y-71966581D03*
X104902641Y-69426581D03*
D17*
X253714000Y-66856580D03*
D23*
X177828000Y-109107000D03*
X181328000Y-110857000D03*
X177828000Y-110857000D03*
X181328000Y-109107000D03*
D20*
X108712000Y-86614000D03*
X108712000Y-103505000D03*
D13*
X242607140Y-58724800D03*
X242607140Y-56184800D03*
X242607140Y-53644800D03*
X242607140Y-51104800D03*
X242607140Y-48564800D03*
X242607140Y-46024800D03*
X242607140Y-43484800D03*
X242607140Y-40944800D03*
D11*
X93532641Y-112606581D03*
D12*
X98612641Y-112606581D03*
D13*
X103692641Y-112606581D03*
D14*
X91052641Y-110066581D03*
X104902641Y-107526581D03*
D20*
X108712000Y-81514000D03*
D25*
X251063290Y-71280000D03*
X251063290Y-77060000D03*
D26*
X250563290Y-69850000D03*
D27*
X254743290Y-78490000D03*
X254743290Y-69850000D03*
D26*
X250563290Y-78490000D03*
D20*
X108712000Y-59182000D03*
D12*
X79562641Y-55456580D03*
D13*
X84642641Y-55456580D03*
D11*
X74482641Y-55456580D03*
D14*
X72002641Y-52916580D03*
X85852641Y-50376580D03*
D20*
X108712000Y-83214000D03*
D28*
X109093000Y-54229000D03*
D20*
X112522000Y-60858293D03*
X112522000Y-116563182D03*
X108712000Y-60858293D03*
D13*
X65592641Y-112606581D03*
D12*
X60512641Y-112606581D03*
D11*
X55432641Y-112606581D03*
D14*
X52952641Y-110066581D03*
X66802641Y-107526581D03*
D10*
X69850000Y-103466580D03*
D23*
X58646000Y-64121000D03*
X55146000Y-62371000D03*
X58646000Y-62371000D03*
X55146000Y-64121000D03*
D20*
X112522000Y-62611000D03*
D23*
X90904000Y-63867000D03*
X87404000Y-62117000D03*
X90904000Y-62117000D03*
X87404000Y-63867000D03*
D29*
X254621141Y-85636580D03*
X254621141Y-82636580D03*
D20*
X108712000Y-97790000D03*
D13*
X65592641Y-55456582D03*
D11*
X55432641Y-55456582D03*
D12*
X60512641Y-55456582D03*
D14*
X52952641Y-52916582D03*
X66802641Y-50376582D03*
D20*
X108712000Y-101600000D03*
X112522000Y-83214000D03*
D23*
X215420000Y-114441000D03*
X218920000Y-116191000D03*
X215420000Y-116191000D03*
X218920000Y-114441000D03*
D13*
X65592641Y-93556582D03*
D11*
X55432641Y-93556582D03*
D12*
X60512641Y-93556582D03*
D14*
X52952641Y-91016582D03*
X66802641Y-88476582D03*
D20*
X112522000Y-103505000D03*
D11*
X74482640Y-112606582D03*
D12*
X79562640Y-112606582D03*
D13*
X84642640Y-112606582D03*
D14*
X72002640Y-110066582D03*
X85852640Y-107526582D03*
D20*
X112522000Y-81514000D03*
X112522000Y-101600000D03*
D28*
X112141000Y-54229000D03*
D10*
X69850000Y-63296800D03*
D30*
X254774000Y-49846580D03*
X254774000Y-52386580D03*
X254774000Y-54926580D03*
X254774000Y-57466580D03*
D20*
X112522000Y-86614000D03*
D23*
X143482000Y-65899000D03*
X139982000Y-64149000D03*
X143482000Y-64149000D03*
X139982000Y-65899000D03*
D20*
X112522000Y-59182000D03*
D23*
X219174000Y-57517000D03*
X215674000Y-55767000D03*
X219174000Y-55767000D03*
X215674000Y-57517000D03*
D20*
X112522000Y-84914000D03*
D23*
X87404000Y-102249000D03*
X90904000Y-103999000D03*
X87404000Y-103999000D03*
X90904000Y-102249000D03*
X181328000Y-54215000D03*
X177828000Y-52465000D03*
X181328000Y-52465000D03*
X177828000Y-54215000D03*
D24*
X112141000Y-92202000D03*
D13*
X103692641Y-93556582D03*
D12*
X98612641Y-93556582D03*
D11*
X93532641Y-93556582D03*
D14*
X91052641Y-91016582D03*
X104902641Y-88476582D03*
D11*
X74482641Y-93556582D03*
D12*
X79562641Y-93556582D03*
D13*
X84642641Y-93556582D03*
D14*
X72002641Y-91016582D03*
X85852641Y-88476582D03*
D20*
X108712000Y-116563182D03*
D31*
X249428000Y-83125582D03*
D32*
X249428000Y-80585582D03*
D33*
X250809000Y-61341000D03*
X248809000Y-61341000D03*
D34*
X112141000Y-110034091D03*
D17*
X253714000Y-40456580D03*
D33*
X250809000Y-63500000D03*
X248809000Y-63500000D03*
D34*
X109093000Y-110034091D03*
D35*
X249091140Y-106778582D03*
D36*
X249091140Y-101778582D03*
X249091140Y-104278582D03*
D37*
X241591140Y-98678582D03*
X241591140Y-109878582D03*
D36*
X234591140Y-101778582D03*
X234591140Y-106778582D03*
D38*
X225843141Y-91163180D03*
D39*
X225843141Y-87473180D03*
D38*
X130847141Y-59413181D03*
D39*
X130847141Y-55723181D03*
D38*
X106971141Y-116563180D03*
D39*
X106971141Y-112873180D03*
D38*
X187743141Y-48237182D03*
D39*
X187743141Y-44547182D03*
D40*
X250339140Y-54926582D03*
D41*
X251639140Y-54926582D03*
D38*
X130847141Y-97513181D03*
D39*
X130847141Y-93823181D03*
D38*
X106971141Y-79238800D03*
D39*
X106971141Y-75548800D03*
D38*
X230733600Y-110236000D03*
D39*
X230733600Y-106546000D03*
D42*
X225992588Y-135108474D03*
D43*
X227434386Y-131711811D03*
D22*
X83566000Y-66886581D03*
X78486000Y-66886581D03*
X81026000Y-66886581D03*
X78486000Y-82126581D03*
X75946000Y-82126581D03*
X75946000Y-66886581D03*
X86106000Y-82126581D03*
X91186000Y-82126581D03*
X93726000Y-82126581D03*
X101346000Y-82126581D03*
X103886000Y-82126581D03*
X88646000Y-82126581D03*
X83566000Y-82126581D03*
X81026000Y-82126581D03*
X93726000Y-66886581D03*
X91186000Y-66886581D03*
X88646000Y-66886581D03*
X86106000Y-66886581D03*
X101346000Y-66886581D03*
X98806000Y-82126581D03*
X96266000Y-82126581D03*
D44*
X103886000Y-66886581D03*
D22*
X98806000Y-66886581D03*
X96266000Y-66886581D03*
D38*
X133858000Y-79238800D03*
D39*
X133858000Y-75548800D03*
D38*
X133858000Y-97513181D03*
D39*
X133858000Y-93823181D03*
D38*
X87921140Y-97513182D03*
D39*
X87921140Y-93823182D03*
D38*
X168947140Y-69573182D03*
D39*
X168947140Y-65883182D03*
D45*
X145630600Y-66192400D03*
X147180600Y-66192400D03*
D38*
X130847141Y-79238800D03*
D39*
X130847141Y-75548800D03*
D46*
X56401000Y-100330000D03*
X54851000Y-100330000D03*
D38*
X206793140Y-69827182D03*
D39*
X206793140Y-66137182D03*
D46*
X178067000Y-107086400D03*
X176517000Y-107086400D03*
D45*
X60693000Y-64516000D03*
X62243000Y-64516000D03*
D38*
X225044000Y-72113182D03*
D39*
X225044000Y-68423182D03*
D38*
X206793141Y-126977180D03*
D39*
X206793141Y-123287180D03*
D38*
X168947141Y-50523181D03*
D39*
X168947141Y-46833181D03*
D38*
X87921140Y-78463182D03*
D39*
X87921140Y-74773182D03*
D38*
X106971140Y-97513182D03*
D39*
X106971140Y-93823182D03*
D45*
X93052600Y-64008000D03*
X94602600Y-64008000D03*
D38*
X168947141Y-126723180D03*
D39*
X168947141Y-123033180D03*
D38*
X187743141Y-69256600D03*
D39*
X187743141Y-65566600D03*
D38*
X225843141Y-110213182D03*
D39*
X225843141Y-106523182D03*
D45*
X219290600Y-59486800D03*
X220840600Y-59486800D03*
X183476600Y-54559200D03*
X185026600Y-54559200D03*
D47*
X115062000Y-76058000D03*
X115062000Y-77358000D03*
D38*
X53213000Y-59413182D03*
D39*
X53213000Y-55723182D03*
D38*
X68871140Y-97513182D03*
D39*
X68871140Y-93823182D03*
D38*
X130847141Y-116563182D03*
D39*
X130847141Y-112873182D03*
D46*
X215506600Y-112471200D03*
X213956600Y-112471200D03*
D38*
X87921140Y-59413181D03*
D39*
X87921140Y-55723181D03*
D29*
X254621141Y-85636580D03*
D48*
X253511141Y-80275580D03*
X255721141Y-87997580D03*
X253511141Y-87997580D03*
D29*
X254621141Y-82636580D03*
D48*
X255721141Y-80275580D03*
D49*
X252427141Y-81886580D03*
X252427141Y-84886580D03*
X252427141Y-86386580D03*
D40*
X250339141Y-52386581D03*
D41*
X251639141Y-52386581D03*
D40*
X250339140Y-49846582D03*
D41*
X251639140Y-49846582D03*
D46*
X88659000Y-100203000D03*
X87109000Y-100203000D03*
D38*
X68871141Y-78463181D03*
D39*
X68871141Y-74773181D03*
D38*
X206793140Y-107927182D03*
D39*
X206793140Y-104237182D03*
D38*
X187743141Y-86337182D03*
D39*
X187743141Y-82647182D03*
D38*
X206793141Y-50777180D03*
D39*
X206793141Y-47087180D03*
D38*
X225843140Y-53063182D03*
D39*
X225843140Y-49373182D03*
D38*
X106971141Y-59413182D03*
D39*
X106971141Y-55723182D03*
D38*
X206793141Y-88877180D03*
D39*
X206793141Y-85187180D03*
D38*
X87921141Y-116563180D03*
D39*
X87921141Y-112873180D03*
D38*
X168947140Y-107673182D03*
D39*
X168947140Y-103983182D03*
D46*
X141287800Y-99974400D03*
X139737800Y-99974400D03*
D38*
X68871141Y-116563180D03*
D39*
X68871141Y-112873180D03*
D25*
X251063290Y-71280000D03*
X251063290Y-77060000D03*
D50*
X249350290Y-70970000D03*
X249350290Y-71770000D03*
D51*
X249358690Y-72920000D03*
X249358690Y-73920000D03*
X249358690Y-74420000D03*
X249358690Y-75420000D03*
D50*
X249350290Y-76570000D03*
X249350290Y-77370000D03*
X249350290Y-77370000D03*
X249350290Y-76570000D03*
D51*
X249358690Y-75920000D03*
X249358690Y-74920000D03*
X249358690Y-73420000D03*
D52*
X249358690Y-72420000D03*
D50*
X249350290Y-71770000D03*
X249350290Y-70970000D03*
D26*
X250563290Y-69850000D03*
D27*
X254743290Y-69850000D03*
X254743290Y-78490000D03*
D26*
X250563290Y-78490000D03*
D53*
X230708200Y-136855200D03*
D54*
X233903834Y-138700200D03*
D40*
X250339141Y-57466582D03*
D41*
X251639141Y-57466582D03*
D38*
X133858000Y-116563182D03*
D39*
X133858000Y-112873182D03*
D38*
X187743141Y-124437182D03*
D39*
X187743141Y-120747182D03*
D38*
X187743141Y-105387181D03*
D39*
X187743141Y-101697181D03*
D38*
X133858000Y-59413180D03*
D39*
X133858000Y-55723180D03*
D38*
X168947141Y-88623180D03*
D39*
X168947141Y-84933180D03*
M02*
