M48
; DRILL file {KiCad (6.0.6)} date Mon Aug  1 11:52:36 2022
; FORMAT={-:-/ absolute / inch / decimal}
; #@! TF.CreationDate,2022-08-01T11:52:36+07:00
; #@! TF.GenerationSoftware,Kicad,Pcbnew,(6.0.6)
; #@! TF.FileFunction,NonPlated,1,2,NPTH
FMAT,2
INCH
; #@! TA.AperFunction,NonPlated,NPTH,ComponentDrill
T1C0.0256
; #@! TA.AperFunction,NonPlated,NPTH,ComponentDrill
T2C0.0300
; #@! TA.AperFunction,NonPlated,NPTH,ComponentDrill
T3C0.0354
; #@! TA.AperFunction,NonPlated,NPTH,ComponentDrill
T4C0.0669
; #@! TA.AperFunction,NonPlated,NPTH,ComponentDrill
T5C0.0670
; #@! TA.AperFunction,NonPlated,NPTH,ComponentDrill
T6C0.1181
; #@! TA.AperFunction,NonPlated,NPTH,ComponentDrill
T7C0.1570
%
G90
G05
T1
X9.8844Y-2.8063
X9.8844Y-2.8063
X9.8844Y-3.0339
X9.8844Y-3.0339
T3
X10.0245Y-3.2534
X10.0245Y-3.2534
X10.0245Y-3.3715
X10.0245Y-3.3715
T4
X2.5824Y-2.1833
X2.5824Y-2.9333
X2.5824Y-3.6833
X2.5824Y-4.4333
X3.3324Y-4.4333
X3.3324Y-2.1833
X3.3324Y-3.6833
X4.0824Y-2.1833
X4.0824Y-3.6833
X4.0824Y-4.4333
X5.0179Y-4.4314
X5.0199Y-2.1833
X5.0199Y-2.9274
X5.0199Y-3.6833
X5.7679Y-2.1833
X5.7679Y-2.9274
X5.7679Y-3.6833
X5.7679Y-4.4314
X6.516Y-2.577
X6.516Y-4.081
X6.516Y-1.829
X6.516Y-3.329
X6.516Y-4.829
X7.264Y-1.731
X7.264Y-2.4825
X7.264Y-3.2345
X7.264Y-3.9825
X7.264Y-4.7306
X8.012Y-1.829
X8.012Y-3.329
X8.012Y-4.8329
X8.012Y-2.581
X8.012Y-4.081
X8.76Y-1.9274
X8.76Y-2.6794
X8.76Y-3.4274
X8.76Y-4.1755
X8.8583Y-5.0922
X9.3971Y-5.3845
T5
X2.1824Y-2.1833
X2.1824Y-2.9333
X2.1824Y-3.6833
X2.1824Y-4.4333
X2.9324Y-2.9333
X2.9324Y-4.4333
X2.9324Y-2.1833
X2.9324Y-3.6833
X3.3324Y-2.9333
X3.6824Y-2.1833
X3.6824Y-2.9333
X3.6824Y-3.6833
X3.6824Y-4.4333
X4.0824Y-2.9333
X4.6179Y-4.4314
X4.6199Y-2.1833
X4.6199Y-2.9274
X4.6199Y-3.6833
X5.3679Y-2.1833
X5.3679Y-2.9274
X5.3679Y-3.6833
X5.3679Y-4.4314
X6.116Y-2.577
X6.116Y-4.081
X6.116Y-1.829
X6.116Y-3.329
X6.116Y-4.829
X6.864Y-1.731
X6.864Y-2.4825
X6.864Y-3.2345
X6.864Y-3.9825
X6.864Y-4.7306
X7.612Y-1.829
X7.612Y-3.329
X7.612Y-4.8329
X7.612Y-2.581
X7.612Y-4.081
X8.36Y-1.9274
X8.36Y-2.6794
X8.36Y-3.4274
X8.36Y-4.1755
X8.4901Y-4.9359
X9.5971Y-5.0381
T6
X2.9824Y-2.8333
X3.0324Y-2.7333
X3.2324Y-2.7333
X3.2824Y-2.8333
X3.7324Y-2.8333
X3.7824Y-2.7333
X3.9824Y-2.7333
X4.0324Y-2.8333
T7
X2.3824Y-2.1833
X2.3824Y-2.9333
X2.3824Y-3.6833
X2.3824Y-4.4333
X3.1324Y-2.9333
X3.1324Y-4.4333
X3.1324Y-2.1833
X3.1324Y-3.6833
X3.8824Y-2.1833
X3.8824Y-2.9333
X3.8824Y-3.6833
X3.8824Y-4.4333
X4.8179Y-4.4314
X4.8199Y-2.1833
X4.8199Y-2.9274
X4.8199Y-3.6833
X5.5679Y-2.1833
X5.5679Y-2.9274
X5.5679Y-3.6833
X5.5679Y-4.4314
X6.316Y-2.577
X6.316Y-4.081
X6.316Y-1.829
X6.316Y-3.329
X6.316Y-4.829
X7.064Y-1.731
X7.064Y-2.4825
X7.064Y-3.2345
X7.064Y-3.9825
X7.064Y-4.7306
X7.812Y-1.829
X7.812Y-3.329
X7.812Y-4.8329
X7.812Y-2.581
X7.812Y-4.081
X8.56Y-1.9274
X8.56Y-2.6794
X8.56Y-3.4274
X8.56Y-4.1755
X8.6742Y-5.014
X9.4971Y-5.2113
T2
G00X4.295Y-2.0122
M15
G01X4.295Y-2.2578
M16
G05
G00X4.295Y-2.5283
M15
G01X4.295Y-3.079
M16
G05
G00X4.295Y-3.4718
M15
G01X4.295Y-3.7882
M16
G05
G00X4.295Y-4.1345
M15
G01X4.295Y-4.5296
M16
G05
G00X4.415Y-2.0122
M15
G01X4.415Y-2.2578
M16
G05
G00X4.415Y-2.5283
M15
G01X4.415Y-3.079
M16
G05
G00X4.415Y-3.4718
M15
G01X4.415Y-3.7882
M16
G05
G00X4.415Y-4.1345
M15
G01X4.415Y-4.5296
M16
G05
T0
M30
