G04 #@! TF.GenerationSoftware,KiCad,Pcbnew,(6.0.6)*
G04 #@! TF.CreationDate,2022-08-01T11:52:36+07:00*
G04 #@! TF.ProjectId,SofleKeyboard,536f666c-654b-4657-9962-6f6172642e6b,rev?*
G04 #@! TF.SameCoordinates,Original*
G04 #@! TF.FileFunction,Profile,NP*
%FSLAX46Y46*%
G04 Gerber Fmt 4.6, Leading zero omitted, Abs format (unit mm)*
G04 Created by KiCad (PCBNEW (6.0.6)) date 2022-08-01 11:52:36*
%MOMM*%
%LPD*%
G01*
G04 APERTURE LIST*
G04 #@! TA.AperFunction,Profile*
%ADD10C,0.150000*%
G04 #@! TD*
G04 #@! TA.AperFunction,Profile*
%ADD11C,0.100000*%
G04 #@! TD*
G04 APERTURE END LIST*
D10*
X252984000Y-44069000D02*
X252984000Y-47879000D01*
X112522000Y-120373817D02*
X112522000Y-119151400D01*
X243684140Y-147297818D02*
X255368140Y-127231818D01*
X50800000Y-48481581D02*
X50800001Y-119509582D01*
X254508000Y-47879000D02*
X254508000Y-44069000D01*
X210664136Y-133073828D02*
G75*
G03*
X204822140Y-132008582I-5948436J-16070372D01*
G01*
X113979000Y-122405818D02*
X146148141Y-130681580D01*
X254222141Y-37008582D02*
X226695141Y-37008582D01*
X171445141Y-34508640D02*
G75*
G03*
X170195140Y-35758582I-41J-1249960D01*
G01*
X112522031Y-120373818D02*
G75*
G03*
X113979000Y-122405818I2012169J-95582D01*
G01*
D11*
X114631150Y70080646D02*
X114631150Y70080646D01*
D10*
X207195141Y-37008582D02*
X189445141Y-37008580D01*
X108712018Y-48481580D02*
G75*
G03*
X106239000Y-46008582I-2473018J-20D01*
G01*
X108712000Y-48481580D02*
G75*
G03*
X112522000Y-48481582I1905000J-20D01*
G01*
X255368134Y-127231815D02*
G75*
G03*
X256695140Y-122913818I-8204834J4884415D01*
G01*
X226695141Y-37008582D02*
X207195141Y-37008582D01*
X108712000Y-119151400D02*
X108712000Y-120373817D01*
X252984000Y-47879000D02*
G75*
G03*
X254508000Y-47879000I762000J0D01*
G01*
X156562141Y-132008580D02*
X204822140Y-132008582D01*
X256695118Y-39481582D02*
G75*
G03*
X254222141Y-37008582I-2473018J-18D01*
G01*
X151195140Y-39481582D02*
X151195140Y-43535581D01*
X168945140Y-37008582D02*
X153668140Y-37008582D01*
X254508000Y-63373000D02*
X254508000Y-59563000D01*
X188195120Y-35758580D02*
G75*
G03*
X189445141Y-37008580I1249980J-20D01*
G01*
X50800018Y-119509582D02*
G75*
G03*
X53273000Y-121982582I2472982J-18D01*
G01*
X256695140Y-39481582D02*
X256695140Y-122913818D01*
X148722140Y-46008640D02*
G75*
G03*
X151195140Y-43535581I-40J2473040D01*
G01*
X239874121Y-148313852D02*
G75*
G03*
X243684140Y-147297818I1389679J2440452D01*
G01*
X153668140Y-37008640D02*
G75*
G03*
X151195140Y-39481582I-40J-2472960D01*
G01*
X252984000Y-59563000D02*
X252984000Y-63373000D01*
X107103236Y-121982581D02*
X53273000Y-121982582D01*
X188195118Y-35758580D02*
G75*
G03*
X186945140Y-34508582I-1250018J-20D01*
G01*
X107103236Y-121982600D02*
G75*
G03*
X108712000Y-120373817I-36J1608800D01*
G01*
X254508000Y-59563000D02*
G75*
G03*
X252984000Y-59563000I-762000J0D01*
G01*
X148722140Y-46008582D02*
X114994999Y-46008582D01*
X168945140Y-37008640D02*
G75*
G03*
X170195140Y-35758582I-40J1250040D01*
G01*
X239874141Y-148313817D02*
G75*
G03*
X225396141Y-139423816I-65105241J-89794283D01*
G01*
X106239000Y-46008582D02*
X53273000Y-46008582D01*
X114994999Y-46008600D02*
G75*
G03*
X112522000Y-48481582I1J-2473000D01*
G01*
X112522000Y-119151400D02*
G75*
G03*
X108712000Y-119151400I-1905000J0D01*
G01*
X225396141Y-139423816D02*
G75*
G03*
X210664140Y-133073818I-55079341J-107519984D01*
G01*
X254508000Y-44069000D02*
G75*
G03*
X252984000Y-44069000I-762000J0D01*
G01*
X252984000Y-63373000D02*
G75*
G03*
X254508000Y-63373000I762000J0D01*
G01*
X146148141Y-130681579D02*
G75*
G03*
X156562141Y-132008580I10763859J42945479D01*
G01*
X53273000Y-46008600D02*
G75*
G03*
X50800000Y-48481581I0J-2473000D01*
G01*
X186945140Y-34508582D02*
X171445141Y-34508581D01*
M02*
