G04 #@! TF.GenerationSoftware,KiCad,Pcbnew,(6.0.6)*
G04 #@! TF.CreationDate,2022-08-01T11:52:36+07:00*
G04 #@! TF.ProjectId,SofleKeyboard,536f666c-654b-4657-9962-6f6172642e6b,rev?*
G04 #@! TF.SameCoordinates,Original*
G04 #@! TF.FileFunction,Legend,Bot*
G04 #@! TF.FilePolarity,Positive*
%FSLAX46Y46*%
G04 Gerber Fmt 4.6, Leading zero omitted, Abs format (unit mm)*
G04 Created by KiCad (PCBNEW (6.0.6)) date 2022-08-01 11:52:36*
%MOMM*%
%LPD*%
G01*
G04 APERTURE LIST*
G04 Aperture macros list*
%AMRoundRect*
0 Rectangle with rounded corners*
0 $1 Rounding radius*
0 $2 $3 $4 $5 $6 $7 $8 $9 X,Y pos of 4 corners*
0 Add a 4 corners polygon primitive as box body*
4,1,4,$2,$3,$4,$5,$6,$7,$8,$9,$2,$3,0*
0 Add four circle primitives for the rounded corners*
1,1,$1+$1,$2,$3*
1,1,$1+$1,$4,$5*
1,1,$1+$1,$6,$7*
1,1,$1+$1,$8,$9*
0 Add four rect primitives between the rounded corners*
20,1,$1+$1,$2,$3,$4,$5,0*
20,1,$1+$1,$4,$5,$6,$7,0*
20,1,$1+$1,$6,$7,$8,$9,0*
20,1,$1+$1,$8,$9,$2,$3,0*%
%AMRotRect*
0 Rectangle, with rotation*
0 The origin of the aperture is its center*
0 $1 length*
0 $2 width*
0 $3 Rotation angle, in degrees counterclockwise*
0 Add horizontal line*
21,1,$1,$2,0,0,$3*%
%AMFreePoly0*
4,1,22,0.500000,-0.750000,0.000000,-0.750000,0.000000,-0.745033,-0.079941,-0.743568,-0.215256,-0.701293,-0.333266,-0.622738,-0.424486,-0.514219,-0.481581,-0.384460,-0.499164,-0.250000,-0.500000,-0.250000,-0.500000,0.250000,-0.499164,0.250000,-0.499963,0.256109,-0.478152,0.396186,-0.417904,0.524511,-0.324060,0.630769,-0.204165,0.706417,-0.067858,0.745374,0.000000,0.744959,0.000000,0.750000,
0.500000,0.750000,0.500000,-0.750000,0.500000,-0.750000,$1*%
%AMFreePoly1*
4,1,20,0.000000,0.744959,0.073905,0.744508,0.209726,0.703889,0.328688,0.626782,0.421226,0.519385,0.479903,0.390333,0.500000,0.250000,0.500000,-0.250000,0.499851,-0.262216,0.476331,-0.402017,0.414519,-0.529596,0.319384,-0.634700,0.198574,-0.708877,0.061801,-0.746166,0.000000,-0.745033,0.000000,-0.750000,-0.500000,-0.750000,-0.500000,0.750000,0.000000,0.750000,0.000000,0.744959,
0.000000,0.744959,$1*%
G04 Aperture macros list end*
%ADD10C,0.300000*%
%ADD11C,0.175000*%
%ADD12C,0.150000*%
%ADD13C,0.250000*%
%ADD14C,0.120000*%
%ADD15C,0.200000*%
%ADD16C,0.100000*%
%ADD17C,0.381000*%
%ADD18C,4.700000*%
%ADD19C,1.701800*%
%ADD20C,3.987800*%
%ADD21C,1.700000*%
%ADD22R,2.550000X2.500000*%
%ADD23RotRect,2.550000X2.500000X240.000000*%
%ADD24RotRect,2.550000X2.500000X337.000000*%
%ADD25C,4.000000*%
%ADD26C,3.000000*%
%ADD27R,2.550000X2.350000*%
%ADD28RoundRect,0.300000X0.300000X0.300000X-0.300000X0.300000X-0.300000X-0.300000X0.300000X-0.300000X0*%
%ADD29O,0.762000X14.750000*%
%ADD30C,1.752600*%
%ADD31R,1.600000X0.850000*%
%ADD32O,0.762000X8.800000*%
%ADD33C,0.650000*%
%ADD34O,2.100000X1.000000*%
%ADD35O,1.600000X1.000000*%
%ADD36O,0.762000X7.000000*%
%ADD37C,0.900000*%
%ADD38C,1.400000*%
%ADD39R,1.700000X1.700000*%
%ADD40O,1.700000X1.700000*%
%ADD41RoundRect,0.250000X0.350000X0.450000X-0.350000X0.450000X-0.350000X-0.450000X0.350000X-0.450000X0*%
%ADD42O,0.762000X10.800000*%
%ADD43R,2.000000X2.000000*%
%ADD44C,2.000000*%
%ADD45R,3.200000X2.000000*%
%ADD46RoundRect,0.300000X0.300000X-0.395000X0.300000X0.395000X-0.300000X0.395000X-0.300000X-0.395000X0*%
%ADD47RoundRect,0.300000X-0.300000X0.395000X-0.300000X-0.395000X0.300000X-0.395000X0.300000X0.395000X0*%
%ADD48FreePoly0,0.000000*%
%ADD49FreePoly1,0.000000*%
%ADD50RoundRect,0.300000X0.121813X-0.480819X0.430490X0.246380X-0.121813X0.480819X-0.430490X-0.246380X0*%
%ADD51RoundRect,0.300000X-0.121813X0.480819X-0.430490X-0.246380X0.121813X-0.480819X0.430490X0.246380X0*%
%ADD52RoundRect,0.400000X0.400000X0.400000X-0.400000X0.400000X-0.400000X-0.400000X0.400000X-0.400000X0*%
%ADD53RoundRect,0.225000X-0.225000X-0.250000X0.225000X-0.250000X0.225000X0.250000X-0.225000X0.250000X0*%
%ADD54RoundRect,0.225000X0.225000X0.250000X-0.225000X0.250000X-0.225000X-0.250000X0.225000X-0.250000X0*%
%ADD55R,1.500000X1.000000*%
%ADD56R,0.800000X1.422000*%
%ADD57R,2.368000X0.700000*%
%ADD58R,2.362600X0.600000*%
%ADD59R,2.366000X0.300000*%
%ADD60R,2.366000X0.305000*%
%ADD61RoundRect,0.300000X-0.492080X-0.062308X0.192080X-0.457308X0.492080X0.062308X-0.192080X0.457308X0*%
%ADD62RoundRect,0.300000X0.492080X0.062308X-0.192080X0.457308X-0.492080X-0.062308X0.192080X-0.457308X0*%
G04 APERTURE END LIST*
D10*
X247794283Y-81152010D02*
X247794283Y-80009153D01*
X247115712Y-82973722D02*
X248258569Y-82973722D01*
X247687141Y-83545151D02*
X247687141Y-82402294D01*
D11*
X228245806Y-55363247D02*
X228245806Y-55696581D01*
X228445806Y-55296581D02*
X227745806Y-55529914D01*
X228445806Y-55763247D01*
X228445806Y-56363247D02*
X228445806Y-55963247D01*
X228445806Y-56163247D02*
X227745806Y-56163247D01*
X227845806Y-56096581D01*
X227912473Y-56029914D01*
X227945806Y-55963247D01*
X228445806Y-57029914D02*
X228445806Y-56629914D01*
X228445806Y-56829914D02*
X227745806Y-56829914D01*
X227845806Y-56763247D01*
X227912473Y-56696581D01*
X227945806Y-56629914D01*
X247041806Y-60776581D02*
X247041806Y-61109914D01*
X247241806Y-60709914D02*
X246541806Y-60943247D01*
X247241806Y-61176581D01*
X246541806Y-61743247D02*
X246541806Y-61409914D01*
X246875140Y-61376581D01*
X246841806Y-61409914D01*
X246808473Y-61476581D01*
X246808473Y-61643247D01*
X246841806Y-61709914D01*
X246875140Y-61743247D01*
X246941806Y-61776581D01*
X247108473Y-61776581D01*
X247175140Y-61743247D01*
X247208473Y-61709914D01*
X247241806Y-61643247D01*
X247241806Y-61476581D01*
X247208473Y-61409914D01*
X247175140Y-61376581D01*
X246575140Y-40423247D02*
X246541806Y-40356581D01*
X246541806Y-40256581D01*
X246575140Y-40156581D01*
X246641806Y-40089914D01*
X246708473Y-40056581D01*
X246841806Y-40023247D01*
X246941806Y-40023247D01*
X247075140Y-40056581D01*
X247141806Y-40089914D01*
X247208473Y-40156581D01*
X247241806Y-40256581D01*
X247241806Y-40323247D01*
X247208473Y-40423247D01*
X247175140Y-40456581D01*
X246941806Y-40456581D01*
X246941806Y-40323247D01*
X247241806Y-40756581D02*
X246541806Y-40756581D01*
X247241806Y-41156581D01*
X246541806Y-41156581D01*
X247241806Y-41489914D02*
X246541806Y-41489914D01*
X246541806Y-41656581D01*
X246575140Y-41756581D01*
X246641806Y-41823247D01*
X246708473Y-41856581D01*
X246841806Y-41889914D01*
X246941806Y-41889914D01*
X247075140Y-41856581D01*
X247141806Y-41823247D01*
X247208473Y-41756581D01*
X247241806Y-41656581D01*
X247241806Y-41489914D01*
X247041806Y-55696581D02*
X247041806Y-56029914D01*
X247241806Y-55629914D02*
X246541806Y-55863247D01*
X247241806Y-56096581D01*
X246541806Y-56263247D02*
X246541806Y-56729914D01*
X247241806Y-56429914D01*
X228079140Y-45419914D02*
X228112473Y-45519914D01*
X228145806Y-45553247D01*
X228212473Y-45586581D01*
X228312473Y-45586581D01*
X228379140Y-45553247D01*
X228412473Y-45519914D01*
X228445806Y-45453247D01*
X228445806Y-45186581D01*
X227745806Y-45186581D01*
X227745806Y-45419914D01*
X227779140Y-45486581D01*
X227812473Y-45519914D01*
X227879140Y-45553247D01*
X227945806Y-45553247D01*
X228012473Y-45519914D01*
X228045806Y-45486581D01*
X228079140Y-45419914D01*
X228079140Y-45186581D01*
X228445806Y-46253247D02*
X228445806Y-45853247D01*
X228445806Y-46053247D02*
X227745806Y-46053247D01*
X227845806Y-45986581D01*
X227912473Y-45919914D01*
X227945806Y-45853247D01*
X227745806Y-46886581D02*
X227745806Y-46553247D01*
X228079140Y-46519914D01*
X228045806Y-46553247D01*
X228012473Y-46619914D01*
X228012473Y-46786581D01*
X228045806Y-46853247D01*
X228079140Y-46886581D01*
X228145806Y-46919914D01*
X228312473Y-46919914D01*
X228379140Y-46886581D01*
X228412473Y-46853247D01*
X228445806Y-46786581D01*
X228445806Y-46619914D01*
X228412473Y-46553247D01*
X228379140Y-46519914D01*
X228245806Y-57903247D02*
X228245806Y-58236581D01*
X228445806Y-57836581D02*
X227745806Y-58069914D01*
X228445806Y-58303247D01*
X228445806Y-58903247D02*
X228445806Y-58503247D01*
X228445806Y-58703247D02*
X227745806Y-58703247D01*
X227845806Y-58636581D01*
X227912473Y-58569914D01*
X227945806Y-58503247D01*
X227812473Y-59169914D02*
X227779140Y-59203247D01*
X227745806Y-59269914D01*
X227745806Y-59436581D01*
X227779140Y-59503247D01*
X227812473Y-59536581D01*
X227879140Y-59569914D01*
X227945806Y-59569914D01*
X228045806Y-59536581D01*
X228445806Y-59136581D01*
X228445806Y-59569914D01*
X228079140Y-78773247D02*
X228112473Y-78873247D01*
X228145806Y-78906581D01*
X228212473Y-78939914D01*
X228312473Y-78939914D01*
X228379140Y-78906581D01*
X228412473Y-78873247D01*
X228445806Y-78806581D01*
X228445806Y-78539914D01*
X227745806Y-78539914D01*
X227745806Y-78773247D01*
X227779140Y-78839914D01*
X227812473Y-78873247D01*
X227879140Y-78906581D01*
X227945806Y-78906581D01*
X228012473Y-78873247D01*
X228045806Y-78839914D01*
X228079140Y-78773247D01*
X228079140Y-78539914D01*
X228445806Y-79273247D02*
X228445806Y-79406581D01*
X228412473Y-79473247D01*
X228379140Y-79506581D01*
X228279140Y-79573247D01*
X228145806Y-79606581D01*
X227879140Y-79606581D01*
X227812473Y-79573247D01*
X227779140Y-79539914D01*
X227745806Y-79473247D01*
X227745806Y-79339914D01*
X227779140Y-79273247D01*
X227812473Y-79239914D01*
X227879140Y-79206581D01*
X228045806Y-79206581D01*
X228112473Y-79239914D01*
X228145806Y-79273247D01*
X228179140Y-79339914D01*
X228179140Y-79473247D01*
X228145806Y-79539914D01*
X228112473Y-79573247D01*
X228045806Y-79606581D01*
X228079140Y-68613247D02*
X228112473Y-68713247D01*
X228145806Y-68746581D01*
X228212473Y-68779914D01*
X228312473Y-68779914D01*
X228379140Y-68746581D01*
X228412473Y-68713247D01*
X228445806Y-68646581D01*
X228445806Y-68379914D01*
X227745806Y-68379914D01*
X227745806Y-68613247D01*
X227779140Y-68679914D01*
X227812473Y-68713247D01*
X227879140Y-68746581D01*
X227945806Y-68746581D01*
X228012473Y-68713247D01*
X228045806Y-68679914D01*
X228079140Y-68613247D01*
X228079140Y-68379914D01*
X227745806Y-69413247D02*
X227745806Y-69079914D01*
X228079140Y-69046581D01*
X228045806Y-69079914D01*
X228012473Y-69146581D01*
X228012473Y-69313247D01*
X228045806Y-69379914D01*
X228079140Y-69413247D01*
X228145806Y-69446581D01*
X228312473Y-69446581D01*
X228379140Y-69413247D01*
X228412473Y-69379914D01*
X228445806Y-69313247D01*
X228445806Y-69146581D01*
X228412473Y-69079914D01*
X228379140Y-69046581D01*
X247175140Y-78606581D02*
X247208473Y-78573247D01*
X247241806Y-78473247D01*
X247241806Y-78406581D01*
X247208473Y-78306581D01*
X247141806Y-78239914D01*
X247075140Y-78206581D01*
X246941806Y-78173247D01*
X246841806Y-78173247D01*
X246708473Y-78206581D01*
X246641806Y-78239914D01*
X246575140Y-78306581D01*
X246541806Y-78406581D01*
X246541806Y-78473247D01*
X246575140Y-78573247D01*
X246608473Y-78606581D01*
X247241806Y-79273247D02*
X247241806Y-78873247D01*
X247241806Y-79073247D02*
X246541806Y-79073247D01*
X246641806Y-79006581D01*
X246708473Y-78939914D01*
X246741806Y-78873247D01*
X246541806Y-79906581D02*
X246541806Y-79573247D01*
X246875140Y-79539914D01*
X246841806Y-79573247D01*
X246808473Y-79639914D01*
X246808473Y-79806581D01*
X246841806Y-79873247D01*
X246875140Y-79906581D01*
X246941806Y-79939914D01*
X247108473Y-79939914D01*
X247175140Y-79906581D01*
X247208473Y-79873247D01*
X247241806Y-79806581D01*
X247241806Y-79639914D01*
X247208473Y-79573247D01*
X247175140Y-79539914D01*
X228079140Y-71153247D02*
X228112473Y-71253247D01*
X228145806Y-71286581D01*
X228212473Y-71319914D01*
X228312473Y-71319914D01*
X228379140Y-71286581D01*
X228412473Y-71253247D01*
X228445806Y-71186581D01*
X228445806Y-70919914D01*
X227745806Y-70919914D01*
X227745806Y-71153247D01*
X227779140Y-71219914D01*
X227812473Y-71253247D01*
X227879140Y-71286581D01*
X227945806Y-71286581D01*
X228012473Y-71253247D01*
X228045806Y-71219914D01*
X228079140Y-71153247D01*
X228079140Y-70919914D01*
X227745806Y-71919914D02*
X227745806Y-71786581D01*
X227779140Y-71719914D01*
X227812473Y-71686581D01*
X227912473Y-71619914D01*
X228045806Y-71586581D01*
X228312473Y-71586581D01*
X228379140Y-71619914D01*
X228412473Y-71653247D01*
X228445806Y-71719914D01*
X228445806Y-71853247D01*
X228412473Y-71919914D01*
X228379140Y-71953247D01*
X228312473Y-71986581D01*
X228145806Y-71986581D01*
X228079140Y-71953247D01*
X228045806Y-71919914D01*
X228012473Y-71853247D01*
X228012473Y-71719914D01*
X228045806Y-71653247D01*
X228079140Y-71619914D01*
X228145806Y-71586581D01*
X247041806Y-70936581D02*
X247041806Y-71269914D01*
X247241806Y-70869914D02*
X246541806Y-71103247D01*
X247241806Y-71336581D01*
X247241806Y-71936581D02*
X247241806Y-71536581D01*
X247241806Y-71736581D02*
X246541806Y-71736581D01*
X246641806Y-71669914D01*
X246708473Y-71603247D01*
X246741806Y-71536581D01*
X228079140Y-63533247D02*
X228112473Y-63633247D01*
X228145806Y-63666581D01*
X228212473Y-63699914D01*
X228312473Y-63699914D01*
X228379140Y-63666581D01*
X228412473Y-63633247D01*
X228445806Y-63566581D01*
X228445806Y-63299914D01*
X227745806Y-63299914D01*
X227745806Y-63533247D01*
X227779140Y-63599914D01*
X227812473Y-63633247D01*
X227879140Y-63666581D01*
X227945806Y-63666581D01*
X228012473Y-63633247D01*
X228045806Y-63599914D01*
X228079140Y-63533247D01*
X228079140Y-63299914D01*
X227745806Y-63933247D02*
X227745806Y-64366581D01*
X228012473Y-64133247D01*
X228012473Y-64233247D01*
X228045806Y-64299914D01*
X228079140Y-64333247D01*
X228145806Y-64366581D01*
X228312473Y-64366581D01*
X228379140Y-64333247D01*
X228412473Y-64299914D01*
X228445806Y-64233247D01*
X228445806Y-64033247D01*
X228412473Y-63966581D01*
X228379140Y-63933247D01*
X228079140Y-76233247D02*
X228112473Y-76333247D01*
X228145806Y-76366581D01*
X228212473Y-76399914D01*
X228312473Y-76399914D01*
X228379140Y-76366581D01*
X228412473Y-76333247D01*
X228445806Y-76266581D01*
X228445806Y-75999914D01*
X227745806Y-75999914D01*
X227745806Y-76233247D01*
X227779140Y-76299914D01*
X227812473Y-76333247D01*
X227879140Y-76366581D01*
X227945806Y-76366581D01*
X228012473Y-76333247D01*
X228045806Y-76299914D01*
X228079140Y-76233247D01*
X228079140Y-75999914D01*
X228045806Y-76799914D02*
X228012473Y-76733247D01*
X227979140Y-76699914D01*
X227912473Y-76666581D01*
X227879140Y-76666581D01*
X227812473Y-76699914D01*
X227779140Y-76733247D01*
X227745806Y-76799914D01*
X227745806Y-76933247D01*
X227779140Y-76999914D01*
X227812473Y-77033247D01*
X227879140Y-77066581D01*
X227912473Y-77066581D01*
X227979140Y-77033247D01*
X228012473Y-76999914D01*
X228045806Y-76933247D01*
X228045806Y-76799914D01*
X228079140Y-76733247D01*
X228112473Y-76699914D01*
X228179140Y-76666581D01*
X228312473Y-76666581D01*
X228379140Y-76699914D01*
X228412473Y-76733247D01*
X228445806Y-76799914D01*
X228445806Y-76933247D01*
X228412473Y-76999914D01*
X228379140Y-77033247D01*
X228312473Y-77066581D01*
X228179140Y-77066581D01*
X228112473Y-77033247D01*
X228079140Y-76999914D01*
X228045806Y-76933247D01*
X227779140Y-83603247D02*
X227745806Y-83536581D01*
X227745806Y-83436581D01*
X227779140Y-83336581D01*
X227845806Y-83269914D01*
X227912473Y-83236581D01*
X228045806Y-83203247D01*
X228145806Y-83203247D01*
X228279140Y-83236581D01*
X228345806Y-83269914D01*
X228412473Y-83336581D01*
X228445806Y-83436581D01*
X228445806Y-83503247D01*
X228412473Y-83603247D01*
X228379140Y-83636581D01*
X228145806Y-83636581D01*
X228145806Y-83503247D01*
X228445806Y-83936581D02*
X227745806Y-83936581D01*
X228445806Y-84336581D01*
X227745806Y-84336581D01*
X228445806Y-84669914D02*
X227745806Y-84669914D01*
X227745806Y-84836581D01*
X227779140Y-84936581D01*
X227845806Y-85003247D01*
X227912473Y-85036581D01*
X228045806Y-85069914D01*
X228145806Y-85069914D01*
X228279140Y-85036581D01*
X228345806Y-85003247D01*
X228412473Y-84936581D01*
X228445806Y-84836581D01*
X228445806Y-84669914D01*
X227745806Y-81463247D02*
X227745806Y-81129914D01*
X228079140Y-81096581D01*
X228045806Y-81129914D01*
X228012473Y-81196581D01*
X228012473Y-81363247D01*
X228045806Y-81429914D01*
X228079140Y-81463247D01*
X228145806Y-81496581D01*
X228312473Y-81496581D01*
X228379140Y-81463247D01*
X228412473Y-81429914D01*
X228445806Y-81363247D01*
X228445806Y-81196581D01*
X228412473Y-81129914D01*
X228379140Y-81096581D01*
X227745806Y-81696581D02*
X228445806Y-81929914D01*
X227745806Y-82163247D01*
X228245806Y-52823247D02*
X228245806Y-53156581D01*
X228445806Y-52756581D02*
X227745806Y-52989914D01*
X228445806Y-53223247D01*
X228445806Y-53823247D02*
X228445806Y-53423247D01*
X228445806Y-53623247D02*
X227745806Y-53623247D01*
X227845806Y-53556581D01*
X227912473Y-53489914D01*
X227945806Y-53423247D01*
X227745806Y-54256581D02*
X227745806Y-54323247D01*
X227779140Y-54389914D01*
X227812473Y-54423247D01*
X227879140Y-54456581D01*
X228012473Y-54489914D01*
X228179140Y-54489914D01*
X228312473Y-54456581D01*
X228379140Y-54423247D01*
X228412473Y-54389914D01*
X228445806Y-54323247D01*
X228445806Y-54256581D01*
X228412473Y-54189914D01*
X228379140Y-54156581D01*
X228312473Y-54123247D01*
X228179140Y-54089914D01*
X228012473Y-54089914D01*
X227879140Y-54123247D01*
X227812473Y-54156581D01*
X227779140Y-54189914D01*
X227745806Y-54256581D01*
X247175140Y-81146581D02*
X247208473Y-81113247D01*
X247241806Y-81013247D01*
X247241806Y-80946581D01*
X247208473Y-80846581D01*
X247141806Y-80779914D01*
X247075140Y-80746581D01*
X246941806Y-80713247D01*
X246841806Y-80713247D01*
X246708473Y-80746581D01*
X246641806Y-80779914D01*
X246575140Y-80846581D01*
X246541806Y-80946581D01*
X246541806Y-81013247D01*
X246575140Y-81113247D01*
X246608473Y-81146581D01*
X247241806Y-81813247D02*
X247241806Y-81413247D01*
X247241806Y-81613247D02*
X246541806Y-81613247D01*
X246641806Y-81546581D01*
X246708473Y-81479914D01*
X246741806Y-81413247D01*
X246775140Y-82413247D02*
X247241806Y-82413247D01*
X246508473Y-82246581D02*
X247008473Y-82079914D01*
X247008473Y-82513247D01*
X246875140Y-53373247D02*
X246908473Y-53473247D01*
X246941806Y-53506581D01*
X247008473Y-53539914D01*
X247108473Y-53539914D01*
X247175140Y-53506581D01*
X247208473Y-53473247D01*
X247241806Y-53406581D01*
X247241806Y-53139914D01*
X246541806Y-53139914D01*
X246541806Y-53373247D01*
X246575140Y-53439914D01*
X246608473Y-53473247D01*
X246675140Y-53506581D01*
X246741806Y-53506581D01*
X246808473Y-53473247D01*
X246841806Y-53439914D01*
X246875140Y-53373247D01*
X246875140Y-53139914D01*
X246541806Y-53973247D02*
X246541806Y-54039914D01*
X246575140Y-54106581D01*
X246608473Y-54139914D01*
X246675140Y-54173247D01*
X246808473Y-54206581D01*
X246975140Y-54206581D01*
X247108473Y-54173247D01*
X247175140Y-54139914D01*
X247208473Y-54106581D01*
X247241806Y-54039914D01*
X247241806Y-53973247D01*
X247208473Y-53906581D01*
X247175140Y-53873247D01*
X247108473Y-53839914D01*
X246975140Y-53806581D01*
X246808473Y-53806581D01*
X246675140Y-53839914D01*
X246608473Y-53873247D01*
X246575140Y-53906581D01*
X246541806Y-53973247D01*
X247241806Y-75366581D02*
X246541806Y-75366581D01*
X247241806Y-75766581D01*
X246541806Y-75766581D01*
X247241806Y-76499914D02*
X246908473Y-76266581D01*
X247241806Y-76099914D02*
X246541806Y-76099914D01*
X246541806Y-76366581D01*
X246575140Y-76433247D01*
X246608473Y-76466581D01*
X246675140Y-76499914D01*
X246775140Y-76499914D01*
X246841806Y-76466581D01*
X246875140Y-76433247D01*
X246908473Y-76366581D01*
X246908473Y-76099914D01*
X247208473Y-76766581D02*
X247241806Y-76866581D01*
X247241806Y-77033247D01*
X247208473Y-77099914D01*
X247175140Y-77133247D01*
X247108473Y-77166581D01*
X247041806Y-77166581D01*
X246975140Y-77133247D01*
X246941806Y-77099914D01*
X246908473Y-77033247D01*
X246875140Y-76899914D01*
X246841806Y-76833247D01*
X246808473Y-76799914D01*
X246741806Y-76766581D01*
X246675140Y-76766581D01*
X246608473Y-76799914D01*
X246575140Y-76833247D01*
X246541806Y-76899914D01*
X246541806Y-77066581D01*
X246575140Y-77166581D01*
X246541806Y-77366581D02*
X246541806Y-77766581D01*
X247241806Y-77566581D02*
X246541806Y-77566581D01*
X228245806Y-60443247D02*
X228245806Y-60776581D01*
X228445806Y-60376581D02*
X227745806Y-60609914D01*
X228445806Y-60843247D01*
X228445806Y-61443247D02*
X228445806Y-61043247D01*
X228445806Y-61243247D02*
X227745806Y-61243247D01*
X227845806Y-61176581D01*
X227912473Y-61109914D01*
X227945806Y-61043247D01*
X227745806Y-62076581D02*
X227745806Y-61743247D01*
X228079140Y-61709914D01*
X228045806Y-61743247D01*
X228012473Y-61809914D01*
X228012473Y-61976581D01*
X228045806Y-62043247D01*
X228079140Y-62076581D01*
X228145806Y-62109914D01*
X228312473Y-62109914D01*
X228379140Y-62076581D01*
X228412473Y-62043247D01*
X228445806Y-61976581D01*
X228445806Y-61809914D01*
X228412473Y-61743247D01*
X228379140Y-61709914D01*
X228079140Y-42879914D02*
X228112473Y-42979914D01*
X228145806Y-43013247D01*
X228212473Y-43046581D01*
X228312473Y-43046581D01*
X228379140Y-43013247D01*
X228412473Y-42979914D01*
X228445806Y-42913247D01*
X228445806Y-42646581D01*
X227745806Y-42646581D01*
X227745806Y-42879914D01*
X227779140Y-42946581D01*
X227812473Y-42979914D01*
X227879140Y-43013247D01*
X227945806Y-43013247D01*
X228012473Y-42979914D01*
X228045806Y-42946581D01*
X228079140Y-42879914D01*
X228079140Y-42646581D01*
X228445806Y-43713247D02*
X228445806Y-43313247D01*
X228445806Y-43513247D02*
X227745806Y-43513247D01*
X227845806Y-43446581D01*
X227912473Y-43379914D01*
X227945806Y-43313247D01*
X227979140Y-44313247D02*
X228445806Y-44313247D01*
X227712473Y-44146581D02*
X228212473Y-43979914D01*
X228212473Y-44413247D01*
X247041806Y-68396581D02*
X247041806Y-68729914D01*
X247241806Y-68329914D02*
X246541806Y-68563247D01*
X247241806Y-68796581D01*
X246608473Y-68996581D02*
X246575140Y-69029914D01*
X246541806Y-69096581D01*
X246541806Y-69263247D01*
X246575140Y-69329914D01*
X246608473Y-69363247D01*
X246675140Y-69396581D01*
X246741806Y-69396581D01*
X246841806Y-69363247D01*
X247241806Y-68963247D01*
X247241806Y-69396581D01*
X228079140Y-73693247D02*
X228112473Y-73793247D01*
X228145806Y-73826581D01*
X228212473Y-73859914D01*
X228312473Y-73859914D01*
X228379140Y-73826581D01*
X228412473Y-73793247D01*
X228445806Y-73726581D01*
X228445806Y-73459914D01*
X227745806Y-73459914D01*
X227745806Y-73693247D01*
X227779140Y-73759914D01*
X227812473Y-73793247D01*
X227879140Y-73826581D01*
X227945806Y-73826581D01*
X228012473Y-73793247D01*
X228045806Y-73759914D01*
X228079140Y-73693247D01*
X228079140Y-73459914D01*
X227745806Y-74093247D02*
X227745806Y-74559914D01*
X228445806Y-74259914D01*
X247041806Y-63316581D02*
X247041806Y-63649914D01*
X247241806Y-63249914D02*
X246541806Y-63483247D01*
X247241806Y-63716581D01*
X246775140Y-64249914D02*
X247241806Y-64249914D01*
X246508473Y-64083247D02*
X247008473Y-63916581D01*
X247008473Y-64349914D01*
X246875140Y-48293247D02*
X246908473Y-48393247D01*
X246941806Y-48426581D01*
X247008473Y-48459914D01*
X247108473Y-48459914D01*
X247175140Y-48426581D01*
X247208473Y-48393247D01*
X247241806Y-48326581D01*
X247241806Y-48059914D01*
X246541806Y-48059914D01*
X246541806Y-48293247D01*
X246575140Y-48359914D01*
X246608473Y-48393247D01*
X246675140Y-48426581D01*
X246741806Y-48426581D01*
X246808473Y-48393247D01*
X246841806Y-48359914D01*
X246875140Y-48293247D01*
X246875140Y-48059914D01*
X246608473Y-48726581D02*
X246575140Y-48759914D01*
X246541806Y-48826581D01*
X246541806Y-48993247D01*
X246575140Y-49059914D01*
X246608473Y-49093247D01*
X246675140Y-49126581D01*
X246741806Y-49126581D01*
X246841806Y-49093247D01*
X247241806Y-48693247D01*
X247241806Y-49126581D01*
X246541806Y-42463247D02*
X246541806Y-42896581D01*
X246808473Y-42663247D01*
X246808473Y-42763247D01*
X246841806Y-42829914D01*
X246875140Y-42863247D01*
X246941806Y-42896581D01*
X247108473Y-42896581D01*
X247175140Y-42863247D01*
X247208473Y-42829914D01*
X247241806Y-42763247D01*
X247241806Y-42563247D01*
X247208473Y-42496581D01*
X247175140Y-42463247D01*
X247175140Y-43196581D02*
X247208473Y-43229914D01*
X247241806Y-43196581D01*
X247208473Y-43163247D01*
X247175140Y-43196581D01*
X247241806Y-43196581D01*
X246541806Y-43463247D02*
X246541806Y-43896581D01*
X246808473Y-43663247D01*
X246808473Y-43763247D01*
X246841806Y-43829914D01*
X246875140Y-43863247D01*
X246941806Y-43896581D01*
X247108473Y-43896581D01*
X247175140Y-43863247D01*
X247208473Y-43829914D01*
X247241806Y-43763247D01*
X247241806Y-43563247D01*
X247208473Y-43496581D01*
X247175140Y-43463247D01*
X246541806Y-44096581D02*
X247241806Y-44329914D01*
X246541806Y-44563247D01*
X247041806Y-58236581D02*
X247041806Y-58569914D01*
X247241806Y-58169914D02*
X246541806Y-58403247D01*
X247241806Y-58636581D01*
X246541806Y-59169914D02*
X246541806Y-59036581D01*
X246575140Y-58969914D01*
X246608473Y-58936581D01*
X246708473Y-58869914D01*
X246841806Y-58836581D01*
X247108473Y-58836581D01*
X247175140Y-58869914D01*
X247208473Y-58903247D01*
X247241806Y-58969914D01*
X247241806Y-59103247D01*
X247208473Y-59169914D01*
X247175140Y-59203247D01*
X247108473Y-59236581D01*
X246941806Y-59236581D01*
X246875140Y-59203247D01*
X246841806Y-59169914D01*
X246808473Y-59103247D01*
X246808473Y-58969914D01*
X246841806Y-58903247D01*
X246875140Y-58869914D01*
X246941806Y-58836581D01*
X227745806Y-85643247D02*
X227745806Y-86076581D01*
X228012473Y-85843247D01*
X228012473Y-85943247D01*
X228045806Y-86009914D01*
X228079140Y-86043247D01*
X228145806Y-86076581D01*
X228312473Y-86076581D01*
X228379140Y-86043247D01*
X228412473Y-86009914D01*
X228445806Y-85943247D01*
X228445806Y-85743247D01*
X228412473Y-85676581D01*
X228379140Y-85643247D01*
X228379140Y-86376581D02*
X228412473Y-86409914D01*
X228445806Y-86376581D01*
X228412473Y-86343247D01*
X228379140Y-86376581D01*
X228445806Y-86376581D01*
X227745806Y-86643247D02*
X227745806Y-87076581D01*
X228012473Y-86843247D01*
X228012473Y-86943247D01*
X228045806Y-87009914D01*
X228079140Y-87043247D01*
X228145806Y-87076581D01*
X228312473Y-87076581D01*
X228379140Y-87043247D01*
X228412473Y-87009914D01*
X228445806Y-86943247D01*
X228445806Y-86743247D01*
X228412473Y-86676581D01*
X228379140Y-86643247D01*
X227745806Y-87276581D02*
X228445806Y-87509914D01*
X227745806Y-87743247D01*
X246541806Y-38283247D02*
X246541806Y-37949914D01*
X246875140Y-37916581D01*
X246841806Y-37949914D01*
X246808473Y-38016581D01*
X246808473Y-38183247D01*
X246841806Y-38249914D01*
X246875140Y-38283247D01*
X246941806Y-38316581D01*
X247108473Y-38316581D01*
X247175140Y-38283247D01*
X247208473Y-38249914D01*
X247241806Y-38183247D01*
X247241806Y-38016581D01*
X247208473Y-37949914D01*
X247175140Y-37916581D01*
X246541806Y-38516581D02*
X247241806Y-38749914D01*
X246541806Y-38983247D01*
X247175140Y-83686581D02*
X247208473Y-83653247D01*
X247241806Y-83553247D01*
X247241806Y-83486581D01*
X247208473Y-83386581D01*
X247141806Y-83319914D01*
X247075140Y-83286581D01*
X246941806Y-83253247D01*
X246841806Y-83253247D01*
X246708473Y-83286581D01*
X246641806Y-83319914D01*
X246575140Y-83386581D01*
X246541806Y-83486581D01*
X246541806Y-83553247D01*
X246575140Y-83653247D01*
X246608473Y-83686581D01*
X247241806Y-84353247D02*
X247241806Y-83953247D01*
X247241806Y-84153247D02*
X246541806Y-84153247D01*
X246641806Y-84086581D01*
X246708473Y-84019914D01*
X246741806Y-83953247D01*
X246541806Y-84586581D02*
X246541806Y-85019914D01*
X246808473Y-84786581D01*
X246808473Y-84886581D01*
X246841806Y-84953247D01*
X246875140Y-84986581D01*
X246941806Y-85019914D01*
X247108473Y-85019914D01*
X247175140Y-84986581D01*
X247208473Y-84953247D01*
X247241806Y-84886581D01*
X247241806Y-84686581D01*
X247208473Y-84619914D01*
X247175140Y-84586581D01*
X228079140Y-66073247D02*
X228112473Y-66173247D01*
X228145806Y-66206581D01*
X228212473Y-66239914D01*
X228312473Y-66239914D01*
X228379140Y-66206581D01*
X228412473Y-66173247D01*
X228445806Y-66106581D01*
X228445806Y-65839914D01*
X227745806Y-65839914D01*
X227745806Y-66073247D01*
X227779140Y-66139914D01*
X227812473Y-66173247D01*
X227879140Y-66206581D01*
X227945806Y-66206581D01*
X228012473Y-66173247D01*
X228045806Y-66139914D01*
X228079140Y-66073247D01*
X228079140Y-65839914D01*
X227979140Y-66839914D02*
X228445806Y-66839914D01*
X227712473Y-66673247D02*
X228212473Y-66506581D01*
X228212473Y-66939914D01*
X228245806Y-48076581D02*
X228245806Y-48409914D01*
X228445806Y-48009914D02*
X227745806Y-48243247D01*
X228445806Y-48476581D01*
X228045806Y-48809914D02*
X228012473Y-48743247D01*
X227979140Y-48709914D01*
X227912473Y-48676581D01*
X227879140Y-48676581D01*
X227812473Y-48709914D01*
X227779140Y-48743247D01*
X227745806Y-48809914D01*
X227745806Y-48943247D01*
X227779140Y-49009914D01*
X227812473Y-49043247D01*
X227879140Y-49076581D01*
X227912473Y-49076581D01*
X227979140Y-49043247D01*
X228012473Y-49009914D01*
X228045806Y-48943247D01*
X228045806Y-48809914D01*
X228079140Y-48743247D01*
X228112473Y-48709914D01*
X228179140Y-48676581D01*
X228312473Y-48676581D01*
X228379140Y-48709914D01*
X228412473Y-48743247D01*
X228445806Y-48809914D01*
X228445806Y-48943247D01*
X228412473Y-49009914D01*
X228379140Y-49043247D01*
X228312473Y-49076581D01*
X228179140Y-49076581D01*
X228112473Y-49043247D01*
X228079140Y-49009914D01*
X228045806Y-48943247D01*
X246875140Y-45419914D02*
X246908473Y-45519914D01*
X246941806Y-45553247D01*
X247008473Y-45586581D01*
X247108473Y-45586581D01*
X247175140Y-45553247D01*
X247208473Y-45519914D01*
X247241806Y-45453247D01*
X247241806Y-45186581D01*
X246541806Y-45186581D01*
X246541806Y-45419914D01*
X246575140Y-45486581D01*
X246608473Y-45519914D01*
X246675140Y-45553247D01*
X246741806Y-45553247D01*
X246808473Y-45519914D01*
X246841806Y-45486581D01*
X246875140Y-45419914D01*
X246875140Y-45186581D01*
X247241806Y-46253247D02*
X247241806Y-45853247D01*
X247241806Y-46053247D02*
X246541806Y-46053247D01*
X246641806Y-45986581D01*
X246708473Y-45919914D01*
X246741806Y-45853247D01*
X246541806Y-46686581D02*
X246541806Y-46753247D01*
X246575140Y-46819914D01*
X246608473Y-46853247D01*
X246675140Y-46886581D01*
X246808473Y-46919914D01*
X246975140Y-46919914D01*
X247108473Y-46886581D01*
X247175140Y-46853247D01*
X247208473Y-46819914D01*
X247241806Y-46753247D01*
X247241806Y-46686581D01*
X247208473Y-46619914D01*
X247175140Y-46586581D01*
X247108473Y-46553247D01*
X246975140Y-46519914D01*
X246808473Y-46519914D01*
X246675140Y-46553247D01*
X246608473Y-46586581D01*
X246575140Y-46619914D01*
X246541806Y-46686581D01*
X228079140Y-37799914D02*
X228112473Y-37899914D01*
X228145806Y-37933247D01*
X228212473Y-37966581D01*
X228312473Y-37966581D01*
X228379140Y-37933247D01*
X228412473Y-37899914D01*
X228445806Y-37833247D01*
X228445806Y-37566581D01*
X227745806Y-37566581D01*
X227745806Y-37799914D01*
X227779140Y-37866581D01*
X227812473Y-37899914D01*
X227879140Y-37933247D01*
X227945806Y-37933247D01*
X228012473Y-37899914D01*
X228045806Y-37866581D01*
X228079140Y-37799914D01*
X228079140Y-37566581D01*
X228445806Y-38633247D02*
X228445806Y-38233247D01*
X228445806Y-38433247D02*
X227745806Y-38433247D01*
X227845806Y-38366581D01*
X227912473Y-38299914D01*
X227945806Y-38233247D01*
X227812473Y-38899914D02*
X227779140Y-38933247D01*
X227745806Y-38999914D01*
X227745806Y-39166581D01*
X227779140Y-39233247D01*
X227812473Y-39266581D01*
X227879140Y-39299914D01*
X227945806Y-39299914D01*
X228045806Y-39266581D01*
X228445806Y-38866581D01*
X228445806Y-39299914D01*
X246541806Y-86093247D02*
X247241806Y-86326581D01*
X246541806Y-86559914D01*
X246875140Y-87026581D02*
X246908473Y-87126581D01*
X246941806Y-87159914D01*
X247008473Y-87193247D01*
X247108473Y-87193247D01*
X247175140Y-87159914D01*
X247208473Y-87126581D01*
X247241806Y-87059914D01*
X247241806Y-86793247D01*
X246541806Y-86793247D01*
X246541806Y-87026581D01*
X246575140Y-87093247D01*
X246608473Y-87126581D01*
X246675140Y-87159914D01*
X246741806Y-87159914D01*
X246808473Y-87126581D01*
X246841806Y-87093247D01*
X246875140Y-87026581D01*
X246875140Y-86793247D01*
X246875140Y-50833247D02*
X246908473Y-50933247D01*
X246941806Y-50966581D01*
X247008473Y-50999914D01*
X247108473Y-50999914D01*
X247175140Y-50966581D01*
X247208473Y-50933247D01*
X247241806Y-50866581D01*
X247241806Y-50599914D01*
X246541806Y-50599914D01*
X246541806Y-50833247D01*
X246575140Y-50899914D01*
X246608473Y-50933247D01*
X246675140Y-50966581D01*
X246741806Y-50966581D01*
X246808473Y-50933247D01*
X246841806Y-50899914D01*
X246875140Y-50833247D01*
X246875140Y-50599914D01*
X247241806Y-51666581D02*
X247241806Y-51266581D01*
X247241806Y-51466581D02*
X246541806Y-51466581D01*
X246641806Y-51399914D01*
X246708473Y-51333247D01*
X246741806Y-51266581D01*
X228079140Y-40339914D02*
X228112473Y-40439914D01*
X228145806Y-40473247D01*
X228212473Y-40506581D01*
X228312473Y-40506581D01*
X228379140Y-40473247D01*
X228412473Y-40439914D01*
X228445806Y-40373247D01*
X228445806Y-40106581D01*
X227745806Y-40106581D01*
X227745806Y-40339914D01*
X227779140Y-40406581D01*
X227812473Y-40439914D01*
X227879140Y-40473247D01*
X227945806Y-40473247D01*
X228012473Y-40439914D01*
X228045806Y-40406581D01*
X228079140Y-40339914D01*
X228079140Y-40106581D01*
X228445806Y-41173247D02*
X228445806Y-40773247D01*
X228445806Y-40973247D02*
X227745806Y-40973247D01*
X227845806Y-40906581D01*
X227912473Y-40839914D01*
X227945806Y-40773247D01*
X227745806Y-41406581D02*
X227745806Y-41839914D01*
X228012473Y-41606581D01*
X228012473Y-41706581D01*
X228045806Y-41773247D01*
X228079140Y-41806581D01*
X228145806Y-41839914D01*
X228312473Y-41839914D01*
X228379140Y-41806581D01*
X228412473Y-41773247D01*
X228445806Y-41706581D01*
X228445806Y-41506581D01*
X228412473Y-41439914D01*
X228379140Y-41406581D01*
X247041806Y-73476581D02*
X247041806Y-73809914D01*
X247241806Y-73409914D02*
X246541806Y-73643247D01*
X247241806Y-73876581D01*
X246541806Y-74243247D02*
X246541806Y-74309914D01*
X246575140Y-74376581D01*
X246608473Y-74409914D01*
X246675140Y-74443247D01*
X246808473Y-74476581D01*
X246975140Y-74476581D01*
X247108473Y-74443247D01*
X247175140Y-74409914D01*
X247208473Y-74376581D01*
X247241806Y-74309914D01*
X247241806Y-74243247D01*
X247208473Y-74176581D01*
X247175140Y-74143247D01*
X247108473Y-74109914D01*
X246975140Y-74076581D01*
X246808473Y-74076581D01*
X246675140Y-74109914D01*
X246608473Y-74143247D01*
X246575140Y-74176581D01*
X246541806Y-74243247D01*
X228245806Y-50616581D02*
X228245806Y-50949914D01*
X228445806Y-50549914D02*
X227745806Y-50783247D01*
X228445806Y-51016581D01*
X228445806Y-51283247D02*
X228445806Y-51416581D01*
X228412473Y-51483247D01*
X228379140Y-51516581D01*
X228279140Y-51583247D01*
X228145806Y-51616581D01*
X227879140Y-51616581D01*
X227812473Y-51583247D01*
X227779140Y-51549914D01*
X227745806Y-51483247D01*
X227745806Y-51349914D01*
X227779140Y-51283247D01*
X227812473Y-51249914D01*
X227879140Y-51216581D01*
X228045806Y-51216581D01*
X228112473Y-51249914D01*
X228145806Y-51283247D01*
X228179140Y-51349914D01*
X228179140Y-51483247D01*
X228145806Y-51549914D01*
X228112473Y-51583247D01*
X228045806Y-51616581D01*
X247041806Y-65856581D02*
X247041806Y-66189914D01*
X247241806Y-65789914D02*
X246541806Y-66023247D01*
X247241806Y-66256581D01*
X246541806Y-66423247D02*
X246541806Y-66856581D01*
X246808473Y-66623247D01*
X246808473Y-66723247D01*
X246841806Y-66789914D01*
X246875140Y-66823247D01*
X246941806Y-66856581D01*
X247108473Y-66856581D01*
X247175140Y-66823247D01*
X247208473Y-66789914D01*
X247241806Y-66723247D01*
X247241806Y-66523247D01*
X247208473Y-66456581D01*
X247175140Y-66423247D01*
D12*
X60110285Y-102701380D02*
X60681714Y-102701380D01*
X60396000Y-102701380D02*
X60396000Y-101701380D01*
X60491238Y-101844238D01*
X60586476Y-101939476D01*
X60681714Y-101987095D01*
X145200285Y-102447380D02*
X145771714Y-102447380D01*
X145486000Y-102447380D02*
X145486000Y-101447380D01*
X145581238Y-101590238D01*
X145676476Y-101685476D01*
X145771714Y-101733095D01*
X182792285Y-109559380D02*
X183363714Y-109559380D01*
X183078000Y-109559380D02*
X183078000Y-108559380D01*
X183173238Y-108702238D01*
X183268476Y-108797476D01*
X183363714Y-108845095D01*
D13*
X240349211Y-58653371D02*
X240206354Y-58700990D01*
X240158735Y-58748609D01*
X240111116Y-58843847D01*
X240111116Y-58986704D01*
X240158735Y-59081942D01*
X240206354Y-59129561D01*
X240301592Y-59177180D01*
X240682544Y-59177180D01*
X240682544Y-58177180D01*
X240349211Y-58177180D01*
X240253973Y-58224800D01*
X240206354Y-58272419D01*
X240158735Y-58367657D01*
X240158735Y-58462895D01*
X240206354Y-58558133D01*
X240253973Y-58605752D01*
X240349211Y-58653371D01*
X240682544Y-58653371D01*
X239206354Y-59177180D02*
X239682544Y-59177180D01*
X239682544Y-58177180D01*
X238873020Y-59177180D02*
X238873020Y-58177180D01*
X238301592Y-59177180D02*
X238730163Y-58605752D01*
X238301592Y-58177180D02*
X238873020Y-58748609D01*
X240730163Y-48969561D02*
X240587306Y-49017180D01*
X240349211Y-49017180D01*
X240253973Y-48969561D01*
X240206354Y-48921942D01*
X240158735Y-48826704D01*
X240158735Y-48731466D01*
X240206354Y-48636228D01*
X240253973Y-48588609D01*
X240349211Y-48540990D01*
X240539687Y-48493371D01*
X240634925Y-48445752D01*
X240682544Y-48398133D01*
X240730163Y-48302895D01*
X240730163Y-48207657D01*
X240682544Y-48112419D01*
X240634925Y-48064800D01*
X240539687Y-48017180D01*
X240301592Y-48017180D01*
X240158735Y-48064800D01*
X239730163Y-49017180D02*
X239730163Y-48017180D01*
X239492068Y-48017180D01*
X239349211Y-48064800D01*
X239253973Y-48160038D01*
X239206354Y-48255276D01*
X239158735Y-48445752D01*
X239158735Y-48588609D01*
X239206354Y-48779085D01*
X239253973Y-48874323D01*
X239349211Y-48969561D01*
X239492068Y-49017180D01*
X239730163Y-49017180D01*
X238777782Y-48731466D02*
X238301592Y-48731466D01*
X238873020Y-49017180D02*
X238539687Y-48017180D01*
X238206354Y-49017180D01*
X240730163Y-46429561D02*
X240587306Y-46477180D01*
X240349211Y-46477180D01*
X240253973Y-46429561D01*
X240206354Y-46381942D01*
X240158735Y-46286704D01*
X240158735Y-46191466D01*
X240206354Y-46096228D01*
X240253973Y-46048609D01*
X240349211Y-46000990D01*
X240539687Y-45953371D01*
X240634925Y-45905752D01*
X240682544Y-45858133D01*
X240730163Y-45762895D01*
X240730163Y-45667657D01*
X240682544Y-45572419D01*
X240634925Y-45524800D01*
X240539687Y-45477180D01*
X240301592Y-45477180D01*
X240158735Y-45524800D01*
X239158735Y-46381942D02*
X239206354Y-46429561D01*
X239349211Y-46477180D01*
X239444449Y-46477180D01*
X239587306Y-46429561D01*
X239682544Y-46334323D01*
X239730163Y-46239085D01*
X239777782Y-46048609D01*
X239777782Y-45905752D01*
X239730163Y-45715276D01*
X239682544Y-45620038D01*
X239587306Y-45524800D01*
X239444449Y-45477180D01*
X239349211Y-45477180D01*
X239206354Y-45524800D01*
X239158735Y-45572419D01*
X238253973Y-46477180D02*
X238730163Y-46477180D01*
X238730163Y-45477180D01*
X240682544Y-54097180D02*
X240682544Y-53097180D01*
X240444449Y-53097180D01*
X240301592Y-53144800D01*
X240206354Y-53240038D01*
X240158735Y-53335276D01*
X240111116Y-53525752D01*
X240111116Y-53668609D01*
X240158735Y-53859085D01*
X240206354Y-53954323D01*
X240301592Y-54049561D01*
X240444449Y-54097180D01*
X240682544Y-54097180D01*
X239111116Y-54001942D02*
X239158735Y-54049561D01*
X239301592Y-54097180D01*
X239396830Y-54097180D01*
X239539687Y-54049561D01*
X239634925Y-53954323D01*
X239682544Y-53859085D01*
X239730163Y-53668609D01*
X239730163Y-53525752D01*
X239682544Y-53335276D01*
X239634925Y-53240038D01*
X239539687Y-53144800D01*
X239396830Y-53097180D01*
X239301592Y-53097180D01*
X239158735Y-53144800D01*
X239111116Y-53192419D01*
X240158735Y-40444800D02*
X240253973Y-40397180D01*
X240396830Y-40397180D01*
X240539687Y-40444800D01*
X240634925Y-40540038D01*
X240682544Y-40635276D01*
X240730163Y-40825752D01*
X240730163Y-40968609D01*
X240682544Y-41159085D01*
X240634925Y-41254323D01*
X240539687Y-41349561D01*
X240396830Y-41397180D01*
X240301592Y-41397180D01*
X240158735Y-41349561D01*
X240111116Y-41301942D01*
X240111116Y-40968609D01*
X240301592Y-40968609D01*
X239682544Y-41397180D02*
X239682544Y-40397180D01*
X239111116Y-41397180D01*
X239111116Y-40397180D01*
X238634925Y-41397180D02*
X238634925Y-40397180D01*
X238396830Y-40397180D01*
X238253973Y-40444800D01*
X238158735Y-40540038D01*
X238111116Y-40635276D01*
X238063497Y-40825752D01*
X238063497Y-40968609D01*
X238111116Y-41159085D01*
X238158735Y-41254323D01*
X238253973Y-41349561D01*
X238396830Y-41397180D01*
X238634925Y-41397180D01*
X240111116Y-51557180D02*
X240444449Y-51080990D01*
X240682544Y-51557180D02*
X240682544Y-50557180D01*
X240301592Y-50557180D01*
X240206354Y-50604800D01*
X240158735Y-50652419D01*
X240111116Y-50747657D01*
X240111116Y-50890514D01*
X240158735Y-50985752D01*
X240206354Y-51033371D01*
X240301592Y-51080990D01*
X240682544Y-51080990D01*
X239682544Y-51033371D02*
X239349211Y-51033371D01*
X239206354Y-51557180D02*
X239682544Y-51557180D01*
X239682544Y-50557180D01*
X239206354Y-50557180D01*
X238825401Y-51509561D02*
X238682544Y-51557180D01*
X238444449Y-51557180D01*
X238349211Y-51509561D01*
X238301592Y-51461942D01*
X238253973Y-51366704D01*
X238253973Y-51271466D01*
X238301592Y-51176228D01*
X238349211Y-51128609D01*
X238444449Y-51080990D01*
X238634925Y-51033371D01*
X238730163Y-50985752D01*
X238777782Y-50938133D01*
X238825401Y-50842895D01*
X238825401Y-50747657D01*
X238777782Y-50652419D01*
X238730163Y-50604800D01*
X238634925Y-50557180D01*
X238396830Y-50557180D01*
X238253973Y-50604800D01*
X240777782Y-42937180D02*
X240158735Y-42937180D01*
X240492068Y-43318133D01*
X240349211Y-43318133D01*
X240253973Y-43365752D01*
X240206354Y-43413371D01*
X240158735Y-43508609D01*
X240158735Y-43746704D01*
X240206354Y-43841942D01*
X240253973Y-43889561D01*
X240349211Y-43937180D01*
X240634925Y-43937180D01*
X240730163Y-43889561D01*
X240777782Y-43841942D01*
X239730163Y-43841942D02*
X239682544Y-43889561D01*
X239730163Y-43937180D01*
X239777782Y-43889561D01*
X239730163Y-43841942D01*
X239730163Y-43937180D01*
X239349211Y-42937180D02*
X238730163Y-42937180D01*
X239063497Y-43318133D01*
X238920640Y-43318133D01*
X238825401Y-43365752D01*
X238777782Y-43413371D01*
X238730163Y-43508609D01*
X238730163Y-43746704D01*
X238777782Y-43841942D01*
X238825401Y-43889561D01*
X238920640Y-43937180D01*
X239206354Y-43937180D01*
X239301592Y-43889561D01*
X239349211Y-43841942D01*
X238444449Y-42937180D02*
X238111116Y-43937180D01*
X237777782Y-42937180D01*
X240111116Y-56541942D02*
X240158735Y-56589561D01*
X240301592Y-56637180D01*
X240396830Y-56637180D01*
X240539687Y-56589561D01*
X240634925Y-56494323D01*
X240682544Y-56399085D01*
X240730163Y-56208609D01*
X240730163Y-56065752D01*
X240682544Y-55875276D01*
X240634925Y-55780038D01*
X240539687Y-55684800D01*
X240396830Y-55637180D01*
X240301592Y-55637180D01*
X240158735Y-55684800D01*
X240111116Y-55732419D01*
X239730163Y-56589561D02*
X239587306Y-56637180D01*
X239349211Y-56637180D01*
X239253973Y-56589561D01*
X239206354Y-56541942D01*
X239158735Y-56446704D01*
X239158735Y-56351466D01*
X239206354Y-56256228D01*
X239253973Y-56208609D01*
X239349211Y-56160990D01*
X239539687Y-56113371D01*
X239634925Y-56065752D01*
X239682544Y-56018133D01*
X239730163Y-55922895D01*
X239730163Y-55827657D01*
X239682544Y-55732419D01*
X239634925Y-55684800D01*
X239539687Y-55637180D01*
X239301592Y-55637180D01*
X239158735Y-55684800D01*
D12*
X53110285Y-64573380D02*
X53681714Y-64573380D01*
X53396000Y-64573380D02*
X53396000Y-63573380D01*
X53491238Y-63716238D01*
X53586476Y-63811476D01*
X53681714Y-63859095D01*
X85368285Y-64319380D02*
X85939714Y-64319380D01*
X85654000Y-64319380D02*
X85654000Y-63319380D01*
X85749238Y-63462238D01*
X85844476Y-63557476D01*
X85939714Y-63605095D01*
X220384285Y-114893380D02*
X220955714Y-114893380D01*
X220670000Y-114893380D02*
X220670000Y-113893380D01*
X220765238Y-114036238D01*
X220860476Y-114131476D01*
X220955714Y-114179095D01*
X137946285Y-66351380D02*
X138517714Y-66351380D01*
X138232000Y-66351380D02*
X138232000Y-65351380D01*
X138327238Y-65494238D01*
X138422476Y-65589476D01*
X138517714Y-65637095D01*
X213638285Y-57969380D02*
X214209714Y-57969380D01*
X213924000Y-57969380D02*
X213924000Y-56969380D01*
X214019238Y-57112238D01*
X214114476Y-57207476D01*
X214209714Y-57255095D01*
X92368285Y-102701380D02*
X92939714Y-102701380D01*
X92654000Y-102701380D02*
X92654000Y-101701380D01*
X92749238Y-101844238D01*
X92844476Y-101939476D01*
X92939714Y-101987095D01*
X175792285Y-54667380D02*
X176363714Y-54667380D01*
X176078000Y-54667380D02*
X176078000Y-53667380D01*
X176173238Y-53810238D01*
X176268476Y-53905476D01*
X176363714Y-53953095D01*
X249975666Y-60015380D02*
X250309000Y-59539190D01*
X250547095Y-60015380D02*
X250547095Y-59015380D01*
X250166142Y-59015380D01*
X250070904Y-59063000D01*
X250023285Y-59110619D01*
X249975666Y-59205857D01*
X249975666Y-59348714D01*
X250023285Y-59443952D01*
X250070904Y-59491571D01*
X250166142Y-59539190D01*
X250547095Y-59539190D01*
X249023285Y-60015380D02*
X249594714Y-60015380D01*
X249309000Y-60015380D02*
X249309000Y-59015380D01*
X249404238Y-59158238D01*
X249499476Y-59253476D01*
X249594714Y-59301095D01*
X249975666Y-65679580D02*
X250309000Y-65203390D01*
X250547095Y-65679580D02*
X250547095Y-64679580D01*
X250166142Y-64679580D01*
X250070904Y-64727200D01*
X250023285Y-64774819D01*
X249975666Y-64870057D01*
X249975666Y-65012914D01*
X250023285Y-65108152D01*
X250070904Y-65155771D01*
X250166142Y-65203390D01*
X250547095Y-65203390D01*
X249594714Y-64774819D02*
X249547095Y-64727200D01*
X249451857Y-64679580D01*
X249213761Y-64679580D01*
X249118523Y-64727200D01*
X249070904Y-64774819D01*
X249023285Y-64870057D01*
X249023285Y-64965295D01*
X249070904Y-65108152D01*
X249642333Y-65679580D01*
X249023285Y-65679580D01*
X224473137Y-88256294D02*
X223473137Y-88256294D01*
X223473137Y-88494389D01*
X223520757Y-88637246D01*
X223615995Y-88732484D01*
X223711233Y-88780103D01*
X223901709Y-88827722D01*
X224044566Y-88827722D01*
X224235042Y-88780103D01*
X224330280Y-88732484D01*
X224425518Y-88637246D01*
X224473137Y-88494389D01*
X224473137Y-88256294D01*
X223473137Y-89161056D02*
X223473137Y-89780103D01*
X223854090Y-89446770D01*
X223854090Y-89589627D01*
X223901709Y-89684865D01*
X223949328Y-89732484D01*
X224044566Y-89780103D01*
X224282661Y-89780103D01*
X224377899Y-89732484D01*
X224425518Y-89684865D01*
X224473137Y-89589627D01*
X224473137Y-89303913D01*
X224425518Y-89208675D01*
X224377899Y-89161056D01*
X223473137Y-90399151D02*
X223473137Y-90494389D01*
X223520757Y-90589627D01*
X223568376Y-90637246D01*
X223663614Y-90684865D01*
X223854090Y-90732484D01*
X224092185Y-90732484D01*
X224282661Y-90684865D01*
X224377899Y-90637246D01*
X224425518Y-90589627D01*
X224473137Y-90494389D01*
X224473137Y-90399151D01*
X224425518Y-90303913D01*
X224377899Y-90256294D01*
X224282661Y-90208675D01*
X224092185Y-90161056D01*
X223854090Y-90161056D01*
X223663614Y-90208675D01*
X223568376Y-90256294D01*
X223520757Y-90303913D01*
X223473137Y-90399151D01*
X129477137Y-56982485D02*
X128477137Y-56982485D01*
X128477137Y-57220581D01*
X128524757Y-57363438D01*
X128619995Y-57458676D01*
X128715233Y-57506295D01*
X128905709Y-57553914D01*
X129048566Y-57553914D01*
X129239042Y-57506295D01*
X129334280Y-57458676D01*
X129429518Y-57363438D01*
X129477137Y-57220581D01*
X129477137Y-56982485D01*
X128477137Y-58458676D02*
X128477137Y-57982485D01*
X128953328Y-57934866D01*
X128905709Y-57982485D01*
X128858090Y-58077723D01*
X128858090Y-58315819D01*
X128905709Y-58411057D01*
X128953328Y-58458676D01*
X129048566Y-58506295D01*
X129286661Y-58506295D01*
X129381899Y-58458676D01*
X129429518Y-58411057D01*
X129477137Y-58315819D01*
X129477137Y-58077723D01*
X129429518Y-57982485D01*
X129381899Y-57934866D01*
X105601137Y-113656294D02*
X104601137Y-113656294D01*
X104601137Y-113894389D01*
X104648757Y-114037246D01*
X104743995Y-114132484D01*
X104839233Y-114180103D01*
X105029709Y-114227722D01*
X105172566Y-114227722D01*
X105363042Y-114180103D01*
X105458280Y-114132484D01*
X105553518Y-114037246D01*
X105601137Y-113894389D01*
X105601137Y-113656294D01*
X104601137Y-114561056D02*
X104601137Y-115180103D01*
X104982090Y-114846770D01*
X104982090Y-114989627D01*
X105029709Y-115084865D01*
X105077328Y-115132484D01*
X105172566Y-115180103D01*
X105410661Y-115180103D01*
X105505899Y-115132484D01*
X105553518Y-115084865D01*
X105601137Y-114989627D01*
X105601137Y-114703913D01*
X105553518Y-114608675D01*
X105505899Y-114561056D01*
X104934471Y-116037246D02*
X105601137Y-116037246D01*
X104553518Y-115799151D02*
X105267804Y-115561056D01*
X105267804Y-116180103D01*
X186373137Y-45806486D02*
X185373137Y-45806486D01*
X185373137Y-46044582D01*
X185420757Y-46187439D01*
X185515995Y-46282677D01*
X185611233Y-46330296D01*
X185801709Y-46377915D01*
X185944566Y-46377915D01*
X186135042Y-46330296D01*
X186230280Y-46282677D01*
X186325518Y-46187439D01*
X186373137Y-46044582D01*
X186373137Y-45806486D01*
X185801709Y-46949343D02*
X185754090Y-46854105D01*
X185706471Y-46806486D01*
X185611233Y-46758867D01*
X185563614Y-46758867D01*
X185468376Y-46806486D01*
X185420757Y-46854105D01*
X185373137Y-46949343D01*
X185373137Y-47139820D01*
X185420757Y-47235058D01*
X185468376Y-47282677D01*
X185563614Y-47330296D01*
X185611233Y-47330296D01*
X185706471Y-47282677D01*
X185754090Y-47235058D01*
X185801709Y-47139820D01*
X185801709Y-46949343D01*
X185849328Y-46854105D01*
X185896947Y-46806486D01*
X185992185Y-46758867D01*
X186182661Y-46758867D01*
X186277899Y-46806486D01*
X186325518Y-46854105D01*
X186373137Y-46949343D01*
X186373137Y-47139820D01*
X186325518Y-47235058D01*
X186277899Y-47282677D01*
X186182661Y-47330296D01*
X185992185Y-47330296D01*
X185896947Y-47282677D01*
X185849328Y-47235058D01*
X185801709Y-47139820D01*
X251822473Y-54378962D02*
X251822473Y-55093248D01*
X251870092Y-55236105D01*
X251965330Y-55331343D01*
X252108187Y-55378962D01*
X252203425Y-55378962D01*
X251346282Y-55378962D02*
X251346282Y-54378962D01*
X250965330Y-54378962D01*
X250870092Y-54426582D01*
X250822473Y-54474201D01*
X250774854Y-54569439D01*
X250774854Y-54712296D01*
X250822473Y-54807534D01*
X250870092Y-54855153D01*
X250965330Y-54902772D01*
X251346282Y-54902772D01*
X250441520Y-54378962D02*
X249822473Y-54378962D01*
X250155806Y-54759915D01*
X250012949Y-54759915D01*
X249917711Y-54807534D01*
X249870092Y-54855153D01*
X249822473Y-54950391D01*
X249822473Y-55188486D01*
X249870092Y-55283724D01*
X249917711Y-55331343D01*
X250012949Y-55378962D01*
X250298663Y-55378962D01*
X250393901Y-55331343D01*
X250441520Y-55283724D01*
X129477137Y-94606295D02*
X128477137Y-94606295D01*
X128477137Y-94844390D01*
X128524757Y-94987247D01*
X128619995Y-95082485D01*
X128715233Y-95130104D01*
X128905709Y-95177723D01*
X129048566Y-95177723D01*
X129239042Y-95130104D01*
X129334280Y-95082485D01*
X129429518Y-94987247D01*
X129477137Y-94844390D01*
X129477137Y-94606295D01*
X128572376Y-95558676D02*
X128524757Y-95606295D01*
X128477137Y-95701533D01*
X128477137Y-95939628D01*
X128524757Y-96034866D01*
X128572376Y-96082485D01*
X128667614Y-96130104D01*
X128762852Y-96130104D01*
X128905709Y-96082485D01*
X129477137Y-95511057D01*
X129477137Y-96130104D01*
X128477137Y-97034866D02*
X128477137Y-96558676D01*
X128953328Y-96511057D01*
X128905709Y-96558676D01*
X128858090Y-96653914D01*
X128858090Y-96892009D01*
X128905709Y-96987247D01*
X128953328Y-97034866D01*
X129048566Y-97082485D01*
X129286661Y-97082485D01*
X129381899Y-97034866D01*
X129429518Y-96987247D01*
X129477137Y-96892009D01*
X129477137Y-96653914D01*
X129429518Y-96558676D01*
X129381899Y-96511057D01*
X105601137Y-76331914D02*
X104601137Y-76331914D01*
X104601137Y-76570009D01*
X104648757Y-76712866D01*
X104743995Y-76808104D01*
X104839233Y-76855723D01*
X105029709Y-76903342D01*
X105172566Y-76903342D01*
X105363042Y-76855723D01*
X105458280Y-76808104D01*
X105553518Y-76712866D01*
X105601137Y-76570009D01*
X105601137Y-76331914D01*
X105601137Y-77855723D02*
X105601137Y-77284295D01*
X105601137Y-77570009D02*
X104601137Y-77570009D01*
X104743995Y-77474771D01*
X104839233Y-77379533D01*
X104886852Y-77284295D01*
X104934471Y-78712866D02*
X105601137Y-78712866D01*
X104553518Y-78474771D02*
X105267804Y-78236676D01*
X105267804Y-78855723D01*
X229363596Y-107329114D02*
X228363596Y-107329114D01*
X228363596Y-107567209D01*
X228411216Y-107710066D01*
X228506454Y-107805304D01*
X228601692Y-107852923D01*
X228792168Y-107900542D01*
X228935025Y-107900542D01*
X229125501Y-107852923D01*
X229220739Y-107805304D01*
X229315977Y-107710066D01*
X229363596Y-107567209D01*
X229363596Y-107329114D01*
X228696930Y-108757685D02*
X229363596Y-108757685D01*
X228315977Y-108519590D02*
X229030263Y-108281495D01*
X229030263Y-108900542D01*
X228363596Y-109710066D02*
X228363596Y-109519590D01*
X228411216Y-109424352D01*
X228458835Y-109376733D01*
X228601692Y-109281495D01*
X228792168Y-109233876D01*
X229173120Y-109233876D01*
X229268358Y-109281495D01*
X229315977Y-109329114D01*
X229363596Y-109424352D01*
X229363596Y-109614828D01*
X229315977Y-109710066D01*
X229268358Y-109757685D01*
X229173120Y-109805304D01*
X228935025Y-109805304D01*
X228839787Y-109757685D01*
X228792168Y-109710066D01*
X228744549Y-109614828D01*
X228744549Y-109424352D01*
X228792168Y-109329114D01*
X228839787Y-109281495D01*
X228935025Y-109233876D01*
X225867305Y-131897368D02*
X224946800Y-131506637D01*
X224853769Y-131725805D01*
X224841783Y-131875912D01*
X224892238Y-132000791D01*
X224961299Y-132081837D01*
X225118027Y-132200096D01*
X225249528Y-132255915D01*
X225443468Y-132286506D01*
X225549741Y-132279885D01*
X225674621Y-132229430D01*
X225774273Y-132116536D01*
X225867305Y-131897368D01*
X224695447Y-132951887D02*
X225309117Y-133212375D01*
X224437810Y-132583870D02*
X225188345Y-132643796D01*
X224946464Y-133213632D01*
X224323322Y-133828559D02*
X224936992Y-134089046D01*
X224065685Y-133460541D02*
X224816220Y-133520467D01*
X224574339Y-134090303D01*
X106724380Y-67248485D02*
X106991047Y-66867533D01*
X107181523Y-67248485D02*
X107181523Y-66448485D01*
X106876761Y-66448485D01*
X106800571Y-66486581D01*
X106762476Y-66524676D01*
X106724380Y-66600866D01*
X106724380Y-66715152D01*
X106762476Y-66791342D01*
X106800571Y-66829438D01*
X106876761Y-66867533D01*
X107181523Y-66867533D01*
X106419619Y-67019914D02*
X106038666Y-67019914D01*
X106495809Y-67248485D02*
X106229142Y-66448485D01*
X105962476Y-67248485D01*
X105772000Y-66448485D02*
X105581523Y-67248485D01*
X105429142Y-66677057D01*
X105276761Y-67248485D01*
X105086285Y-66448485D01*
X132487996Y-76331914D02*
X131487996Y-76331914D01*
X131487996Y-76570009D01*
X131535616Y-76712866D01*
X131630854Y-76808104D01*
X131726092Y-76855723D01*
X131916568Y-76903342D01*
X132059425Y-76903342D01*
X132249901Y-76855723D01*
X132345139Y-76808104D01*
X132440377Y-76712866D01*
X132487996Y-76570009D01*
X132487996Y-76331914D01*
X132487996Y-77855723D02*
X132487996Y-77284295D01*
X132487996Y-77570009D02*
X131487996Y-77570009D01*
X131630854Y-77474771D01*
X131726092Y-77379533D01*
X131773711Y-77284295D01*
X131487996Y-78712866D02*
X131487996Y-78522390D01*
X131535616Y-78427152D01*
X131583235Y-78379533D01*
X131726092Y-78284295D01*
X131916568Y-78236676D01*
X132297520Y-78236676D01*
X132392758Y-78284295D01*
X132440377Y-78331914D01*
X132487996Y-78427152D01*
X132487996Y-78617628D01*
X132440377Y-78712866D01*
X132392758Y-78760485D01*
X132297520Y-78808104D01*
X132059425Y-78808104D01*
X131964187Y-78760485D01*
X131916568Y-78712866D01*
X131868949Y-78617628D01*
X131868949Y-78427152D01*
X131916568Y-78331914D01*
X131964187Y-78284295D01*
X132059425Y-78236676D01*
X132487996Y-94606295D02*
X131487996Y-94606295D01*
X131487996Y-94844390D01*
X131535616Y-94987247D01*
X131630854Y-95082485D01*
X131726092Y-95130104D01*
X131916568Y-95177723D01*
X132059425Y-95177723D01*
X132249901Y-95130104D01*
X132345139Y-95082485D01*
X132440377Y-94987247D01*
X132487996Y-94844390D01*
X132487996Y-94606295D01*
X131583235Y-95558676D02*
X131535616Y-95606295D01*
X131487996Y-95701533D01*
X131487996Y-95939628D01*
X131535616Y-96034866D01*
X131583235Y-96082485D01*
X131678473Y-96130104D01*
X131773711Y-96130104D01*
X131916568Y-96082485D01*
X132487996Y-95511057D01*
X132487996Y-96130104D01*
X131487996Y-96987247D02*
X131487996Y-96796771D01*
X131535616Y-96701533D01*
X131583235Y-96653914D01*
X131726092Y-96558676D01*
X131916568Y-96511057D01*
X132297520Y-96511057D01*
X132392758Y-96558676D01*
X132440377Y-96606295D01*
X132487996Y-96701533D01*
X132487996Y-96892009D01*
X132440377Y-96987247D01*
X132392758Y-97034866D01*
X132297520Y-97082485D01*
X132059425Y-97082485D01*
X131964187Y-97034866D01*
X131916568Y-96987247D01*
X131868949Y-96892009D01*
X131868949Y-96701533D01*
X131916568Y-96606295D01*
X131964187Y-96558676D01*
X132059425Y-96511057D01*
X86551136Y-94606296D02*
X85551136Y-94606296D01*
X85551136Y-94844391D01*
X85598756Y-94987248D01*
X85693994Y-95082486D01*
X85789232Y-95130105D01*
X85979708Y-95177724D01*
X86122565Y-95177724D01*
X86313041Y-95130105D01*
X86408279Y-95082486D01*
X86503517Y-94987248D01*
X86551136Y-94844391D01*
X86551136Y-94606296D01*
X85646375Y-95558677D02*
X85598756Y-95606296D01*
X85551136Y-95701534D01*
X85551136Y-95939629D01*
X85598756Y-96034867D01*
X85646375Y-96082486D01*
X85741613Y-96130105D01*
X85836851Y-96130105D01*
X85979708Y-96082486D01*
X86551136Y-95511058D01*
X86551136Y-96130105D01*
X85551136Y-96463439D02*
X85551136Y-97082486D01*
X85932089Y-96749153D01*
X85932089Y-96892010D01*
X85979708Y-96987248D01*
X86027327Y-97034867D01*
X86122565Y-97082486D01*
X86360660Y-97082486D01*
X86455898Y-97034867D01*
X86503517Y-96987248D01*
X86551136Y-96892010D01*
X86551136Y-96606296D01*
X86503517Y-96511058D01*
X86455898Y-96463439D01*
X167577136Y-66666296D02*
X166577136Y-66666296D01*
X166577136Y-66904391D01*
X166624756Y-67047248D01*
X166719994Y-67142486D01*
X166815232Y-67190105D01*
X167005708Y-67237724D01*
X167148565Y-67237724D01*
X167339041Y-67190105D01*
X167434279Y-67142486D01*
X167529517Y-67047248D01*
X167577136Y-66904391D01*
X167577136Y-66666296D01*
X167577136Y-68190105D02*
X167577136Y-67618677D01*
X167577136Y-67904391D02*
X166577136Y-67904391D01*
X166719994Y-67809153D01*
X166815232Y-67713915D01*
X166862851Y-67618677D01*
X166577136Y-68523439D02*
X166577136Y-69190105D01*
X167577136Y-68761534D01*
X147048457Y-65127142D02*
X147096076Y-65174761D01*
X147238933Y-65222380D01*
X147334171Y-65222380D01*
X147477028Y-65174761D01*
X147572266Y-65079523D01*
X147619885Y-64984285D01*
X147667504Y-64793809D01*
X147667504Y-64650952D01*
X147619885Y-64460476D01*
X147572266Y-64365238D01*
X147477028Y-64270000D01*
X147334171Y-64222380D01*
X147238933Y-64222380D01*
X147096076Y-64270000D01*
X147048457Y-64317619D01*
X146096076Y-65222380D02*
X146667504Y-65222380D01*
X146381790Y-65222380D02*
X146381790Y-64222380D01*
X146477028Y-64365238D01*
X146572266Y-64460476D01*
X146667504Y-64508095D01*
X145524647Y-64650952D02*
X145619885Y-64603333D01*
X145667504Y-64555714D01*
X145715123Y-64460476D01*
X145715123Y-64412857D01*
X145667504Y-64317619D01*
X145619885Y-64270000D01*
X145524647Y-64222380D01*
X145334171Y-64222380D01*
X145238933Y-64270000D01*
X145191314Y-64317619D01*
X145143695Y-64412857D01*
X145143695Y-64460476D01*
X145191314Y-64555714D01*
X145238933Y-64603333D01*
X145334171Y-64650952D01*
X145524647Y-64650952D01*
X145619885Y-64698571D01*
X145667504Y-64746190D01*
X145715123Y-64841428D01*
X145715123Y-65031904D01*
X145667504Y-65127142D01*
X145619885Y-65174761D01*
X145524647Y-65222380D01*
X145334171Y-65222380D01*
X145238933Y-65174761D01*
X145191314Y-65127142D01*
X145143695Y-65031904D01*
X145143695Y-64841428D01*
X145191314Y-64746190D01*
X145238933Y-64698571D01*
X145334171Y-64650952D01*
X129477137Y-76331914D02*
X128477137Y-76331914D01*
X128477137Y-76570009D01*
X128524757Y-76712866D01*
X128619995Y-76808104D01*
X128715233Y-76855723D01*
X128905709Y-76903342D01*
X129048566Y-76903342D01*
X129239042Y-76855723D01*
X129334280Y-76808104D01*
X129429518Y-76712866D01*
X129477137Y-76570009D01*
X129477137Y-76331914D01*
X129477137Y-77855723D02*
X129477137Y-77284295D01*
X129477137Y-77570009D02*
X128477137Y-77570009D01*
X128619995Y-77474771D01*
X128715233Y-77379533D01*
X128762852Y-77284295D01*
X128477137Y-78760485D02*
X128477137Y-78284295D01*
X128953328Y-78236676D01*
X128905709Y-78284295D01*
X128858090Y-78379533D01*
X128858090Y-78617628D01*
X128905709Y-78712866D01*
X128953328Y-78760485D01*
X129048566Y-78808104D01*
X129286661Y-78808104D01*
X129381899Y-78760485D01*
X129429518Y-78712866D01*
X129477137Y-78617628D01*
X129477137Y-78379533D01*
X129429518Y-78284295D01*
X129381899Y-78236676D01*
X59189857Y-100687142D02*
X59237476Y-100734761D01*
X59380333Y-100782380D01*
X59475571Y-100782380D01*
X59618428Y-100734761D01*
X59713666Y-100639523D01*
X59761285Y-100544285D01*
X59808904Y-100353809D01*
X59808904Y-100210952D01*
X59761285Y-100020476D01*
X59713666Y-99925238D01*
X59618428Y-99830000D01*
X59475571Y-99782380D01*
X59380333Y-99782380D01*
X59237476Y-99830000D01*
X59189857Y-99877619D01*
X58237476Y-100782380D02*
X58808904Y-100782380D01*
X58523190Y-100782380D02*
X58523190Y-99782380D01*
X58618428Y-99925238D01*
X58713666Y-100020476D01*
X58808904Y-100068095D01*
X57904142Y-99782380D02*
X57237476Y-99782380D01*
X57666047Y-100782380D01*
X205423136Y-66920296D02*
X204423136Y-66920296D01*
X204423136Y-67158391D01*
X204470756Y-67301248D01*
X204565994Y-67396486D01*
X204661232Y-67444105D01*
X204851708Y-67491724D01*
X204994565Y-67491724D01*
X205185041Y-67444105D01*
X205280279Y-67396486D01*
X205375517Y-67301248D01*
X205423136Y-67158391D01*
X205423136Y-66920296D01*
X205423136Y-68444105D02*
X205423136Y-67872677D01*
X205423136Y-68158391D02*
X204423136Y-68158391D01*
X204565994Y-68063153D01*
X204661232Y-67967915D01*
X204708851Y-67872677D01*
X205423136Y-68920296D02*
X205423136Y-69110772D01*
X205375517Y-69206010D01*
X205327898Y-69253629D01*
X205185041Y-69348867D01*
X204994565Y-69396486D01*
X204613613Y-69396486D01*
X204518375Y-69348867D01*
X204470756Y-69301248D01*
X204423136Y-69206010D01*
X204423136Y-69015534D01*
X204470756Y-68920296D01*
X204518375Y-68872677D01*
X204613613Y-68825058D01*
X204851708Y-68825058D01*
X204946946Y-68872677D01*
X204994565Y-68920296D01*
X205042184Y-69015534D01*
X205042184Y-69206010D01*
X204994565Y-69301248D01*
X204946946Y-69348867D01*
X204851708Y-69396486D01*
X180932057Y-107443542D02*
X180979676Y-107491161D01*
X181122533Y-107538780D01*
X181217771Y-107538780D01*
X181360628Y-107491161D01*
X181455866Y-107395923D01*
X181503485Y-107300685D01*
X181551104Y-107110209D01*
X181551104Y-106967352D01*
X181503485Y-106776876D01*
X181455866Y-106681638D01*
X181360628Y-106586400D01*
X181217771Y-106538780D01*
X181122533Y-106538780D01*
X180979676Y-106586400D01*
X180932057Y-106634019D01*
X180551104Y-106634019D02*
X180503485Y-106586400D01*
X180408247Y-106538780D01*
X180170152Y-106538780D01*
X180074914Y-106586400D01*
X180027295Y-106634019D01*
X179979676Y-106729257D01*
X179979676Y-106824495D01*
X180027295Y-106967352D01*
X180598723Y-107538780D01*
X179979676Y-107538780D01*
X179360628Y-106538780D02*
X179265390Y-106538780D01*
X179170152Y-106586400D01*
X179122533Y-106634019D01*
X179074914Y-106729257D01*
X179027295Y-106919733D01*
X179027295Y-107157828D01*
X179074914Y-107348304D01*
X179122533Y-107443542D01*
X179170152Y-107491161D01*
X179265390Y-107538780D01*
X179360628Y-107538780D01*
X179455866Y-107491161D01*
X179503485Y-107443542D01*
X179551104Y-107348304D01*
X179598723Y-107157828D01*
X179598723Y-106919733D01*
X179551104Y-106729257D01*
X179503485Y-106634019D01*
X179455866Y-106586400D01*
X179360628Y-106538780D01*
X62110857Y-63349142D02*
X62158476Y-63396761D01*
X62301333Y-63444380D01*
X62396571Y-63444380D01*
X62539428Y-63396761D01*
X62634666Y-63301523D01*
X62682285Y-63206285D01*
X62729904Y-63015809D01*
X62729904Y-62872952D01*
X62682285Y-62682476D01*
X62634666Y-62587238D01*
X62539428Y-62492000D01*
X62396571Y-62444380D01*
X62301333Y-62444380D01*
X62158476Y-62492000D01*
X62110857Y-62539619D01*
X61158476Y-63444380D02*
X61729904Y-63444380D01*
X61444190Y-63444380D02*
X61444190Y-62444380D01*
X61539428Y-62587238D01*
X61634666Y-62682476D01*
X61729904Y-62730095D01*
X60682285Y-63444380D02*
X60491809Y-63444380D01*
X60396571Y-63396761D01*
X60348952Y-63349142D01*
X60253714Y-63206285D01*
X60206095Y-63015809D01*
X60206095Y-62634857D01*
X60253714Y-62539619D01*
X60301333Y-62492000D01*
X60396571Y-62444380D01*
X60587047Y-62444380D01*
X60682285Y-62492000D01*
X60729904Y-62539619D01*
X60777523Y-62634857D01*
X60777523Y-62872952D01*
X60729904Y-62968190D01*
X60682285Y-63015809D01*
X60587047Y-63063428D01*
X60396571Y-63063428D01*
X60301333Y-63015809D01*
X60253714Y-62968190D01*
X60206095Y-62872952D01*
X223673996Y-69206296D02*
X222673996Y-69206296D01*
X222673996Y-69444391D01*
X222721616Y-69587248D01*
X222816854Y-69682486D01*
X222912092Y-69730105D01*
X223102568Y-69777724D01*
X223245425Y-69777724D01*
X223435901Y-69730105D01*
X223531139Y-69682486D01*
X223626377Y-69587248D01*
X223673996Y-69444391D01*
X223673996Y-69206296D01*
X222769235Y-70158677D02*
X222721616Y-70206296D01*
X222673996Y-70301534D01*
X222673996Y-70539629D01*
X222721616Y-70634867D01*
X222769235Y-70682486D01*
X222864473Y-70730105D01*
X222959711Y-70730105D01*
X223102568Y-70682486D01*
X223673996Y-70111058D01*
X223673996Y-70730105D01*
X222673996Y-71349153D02*
X222673996Y-71444391D01*
X222721616Y-71539629D01*
X222769235Y-71587248D01*
X222864473Y-71634867D01*
X223054949Y-71682486D01*
X223293044Y-71682486D01*
X223483520Y-71634867D01*
X223578758Y-71587248D01*
X223626377Y-71539629D01*
X223673996Y-71444391D01*
X223673996Y-71349153D01*
X223626377Y-71253915D01*
X223578758Y-71206296D01*
X223483520Y-71158677D01*
X223293044Y-71111058D01*
X223054949Y-71111058D01*
X222864473Y-71158677D01*
X222769235Y-71206296D01*
X222721616Y-71253915D01*
X222673996Y-71349153D01*
X205423137Y-124070294D02*
X204423137Y-124070294D01*
X204423137Y-124308389D01*
X204470757Y-124451246D01*
X204565995Y-124546484D01*
X204661233Y-124594103D01*
X204851709Y-124641722D01*
X204994566Y-124641722D01*
X205185042Y-124594103D01*
X205280280Y-124546484D01*
X205375518Y-124451246D01*
X205423137Y-124308389D01*
X205423137Y-124070294D01*
X204756471Y-125498865D02*
X205423137Y-125498865D01*
X204375518Y-125260770D02*
X205089804Y-125022675D01*
X205089804Y-125641722D01*
X204423137Y-125927437D02*
X204423137Y-126546484D01*
X204804090Y-126213151D01*
X204804090Y-126356008D01*
X204851709Y-126451246D01*
X204899328Y-126498865D01*
X204994566Y-126546484D01*
X205232661Y-126546484D01*
X205327899Y-126498865D01*
X205375518Y-126451246D01*
X205423137Y-126356008D01*
X205423137Y-126070294D01*
X205375518Y-125975056D01*
X205327899Y-125927437D01*
X167577137Y-48092485D02*
X166577137Y-48092485D01*
X166577137Y-48330581D01*
X166624757Y-48473438D01*
X166719995Y-48568676D01*
X166815233Y-48616295D01*
X167005709Y-48663914D01*
X167148566Y-48663914D01*
X167339042Y-48616295D01*
X167434280Y-48568676D01*
X167529518Y-48473438D01*
X167577137Y-48330581D01*
X167577137Y-48092485D01*
X166577137Y-48997247D02*
X166577137Y-49663914D01*
X167577137Y-49235342D01*
X86551136Y-75556296D02*
X85551136Y-75556296D01*
X85551136Y-75794391D01*
X85598756Y-75937248D01*
X85693994Y-76032486D01*
X85789232Y-76080105D01*
X85979708Y-76127724D01*
X86122565Y-76127724D01*
X86313041Y-76080105D01*
X86408279Y-76032486D01*
X86503517Y-75937248D01*
X86551136Y-75794391D01*
X86551136Y-75556296D01*
X86551136Y-77080105D02*
X86551136Y-76508677D01*
X86551136Y-76794391D02*
X85551136Y-76794391D01*
X85693994Y-76699153D01*
X85789232Y-76603915D01*
X85836851Y-76508677D01*
X85551136Y-77413439D02*
X85551136Y-78032486D01*
X85932089Y-77699153D01*
X85932089Y-77842010D01*
X85979708Y-77937248D01*
X86027327Y-77984867D01*
X86122565Y-78032486D01*
X86360660Y-78032486D01*
X86455898Y-77984867D01*
X86503517Y-77937248D01*
X86551136Y-77842010D01*
X86551136Y-77556296D01*
X86503517Y-77461058D01*
X86455898Y-77413439D01*
X105601136Y-94606296D02*
X104601136Y-94606296D01*
X104601136Y-94844391D01*
X104648756Y-94987248D01*
X104743994Y-95082486D01*
X104839232Y-95130105D01*
X105029708Y-95177724D01*
X105172565Y-95177724D01*
X105363041Y-95130105D01*
X105458279Y-95082486D01*
X105553517Y-94987248D01*
X105601136Y-94844391D01*
X105601136Y-94606296D01*
X104696375Y-95558677D02*
X104648756Y-95606296D01*
X104601136Y-95701534D01*
X104601136Y-95939629D01*
X104648756Y-96034867D01*
X104696375Y-96082486D01*
X104791613Y-96130105D01*
X104886851Y-96130105D01*
X105029708Y-96082486D01*
X105601136Y-95511058D01*
X105601136Y-96130105D01*
X104934470Y-96987248D02*
X105601136Y-96987248D01*
X104553517Y-96749153D02*
X105267803Y-96511058D01*
X105267803Y-97130105D01*
X94470457Y-63044342D02*
X94518076Y-63091961D01*
X94660933Y-63139580D01*
X94756171Y-63139580D01*
X94899028Y-63091961D01*
X94994266Y-62996723D01*
X95041885Y-62901485D01*
X95089504Y-62711009D01*
X95089504Y-62568152D01*
X95041885Y-62377676D01*
X94994266Y-62282438D01*
X94899028Y-62187200D01*
X94756171Y-62139580D01*
X94660933Y-62139580D01*
X94518076Y-62187200D01*
X94470457Y-62234819D01*
X93518076Y-63139580D02*
X94089504Y-63139580D01*
X93803790Y-63139580D02*
X93803790Y-62139580D01*
X93899028Y-62282438D01*
X93994266Y-62377676D01*
X94089504Y-62425295D01*
X92660933Y-62472914D02*
X92660933Y-63139580D01*
X92899028Y-62091961D02*
X93137123Y-62806247D01*
X92518076Y-62806247D01*
X167577137Y-123816294D02*
X166577137Y-123816294D01*
X166577137Y-124054389D01*
X166624757Y-124197246D01*
X166719995Y-124292484D01*
X166815233Y-124340103D01*
X167005709Y-124387722D01*
X167148566Y-124387722D01*
X167339042Y-124340103D01*
X167434280Y-124292484D01*
X167529518Y-124197246D01*
X167577137Y-124054389D01*
X167577137Y-123816294D01*
X166910471Y-125244865D02*
X167577137Y-125244865D01*
X166529518Y-125006770D02*
X167243804Y-124768675D01*
X167243804Y-125387722D01*
X167577137Y-126292484D02*
X167577137Y-125721056D01*
X167577137Y-126006770D02*
X166577137Y-126006770D01*
X166719995Y-125911532D01*
X166815233Y-125816294D01*
X166862852Y-125721056D01*
X186373137Y-66349714D02*
X185373137Y-66349714D01*
X185373137Y-66587809D01*
X185420757Y-66730666D01*
X185515995Y-66825904D01*
X185611233Y-66873523D01*
X185801709Y-66921142D01*
X185944566Y-66921142D01*
X186135042Y-66873523D01*
X186230280Y-66825904D01*
X186325518Y-66730666D01*
X186373137Y-66587809D01*
X186373137Y-66349714D01*
X186373137Y-67873523D02*
X186373137Y-67302095D01*
X186373137Y-67587809D02*
X185373137Y-67587809D01*
X185515995Y-67492571D01*
X185611233Y-67397333D01*
X185658852Y-67302095D01*
X185801709Y-68444952D02*
X185754090Y-68349714D01*
X185706471Y-68302095D01*
X185611233Y-68254476D01*
X185563614Y-68254476D01*
X185468376Y-68302095D01*
X185420757Y-68349714D01*
X185373137Y-68444952D01*
X185373137Y-68635428D01*
X185420757Y-68730666D01*
X185468376Y-68778285D01*
X185563614Y-68825904D01*
X185611233Y-68825904D01*
X185706471Y-68778285D01*
X185754090Y-68730666D01*
X185801709Y-68635428D01*
X185801709Y-68444952D01*
X185849328Y-68349714D01*
X185896947Y-68302095D01*
X185992185Y-68254476D01*
X186182661Y-68254476D01*
X186277899Y-68302095D01*
X186325518Y-68349714D01*
X186373137Y-68444952D01*
X186373137Y-68635428D01*
X186325518Y-68730666D01*
X186277899Y-68778285D01*
X186182661Y-68825904D01*
X185992185Y-68825904D01*
X185896947Y-68778285D01*
X185849328Y-68730666D01*
X185801709Y-68635428D01*
X224473137Y-107306296D02*
X223473137Y-107306296D01*
X223473137Y-107544391D01*
X223520757Y-107687248D01*
X223615995Y-107782486D01*
X223711233Y-107830105D01*
X223901709Y-107877724D01*
X224044566Y-107877724D01*
X224235042Y-107830105D01*
X224330280Y-107782486D01*
X224425518Y-107687248D01*
X224473137Y-107544391D01*
X224473137Y-107306296D01*
X223806471Y-108734867D02*
X224473137Y-108734867D01*
X223425518Y-108496772D02*
X224139804Y-108258677D01*
X224139804Y-108877724D01*
X223473137Y-109449153D02*
X223473137Y-109544391D01*
X223520757Y-109639629D01*
X223568376Y-109687248D01*
X223663614Y-109734867D01*
X223854090Y-109782486D01*
X224092185Y-109782486D01*
X224282661Y-109734867D01*
X224377899Y-109687248D01*
X224425518Y-109639629D01*
X224473137Y-109544391D01*
X224473137Y-109449153D01*
X224425518Y-109353915D01*
X224377899Y-109306296D01*
X224282661Y-109258677D01*
X224092185Y-109211058D01*
X223854090Y-109211058D01*
X223663614Y-109258677D01*
X223568376Y-109306296D01*
X223520757Y-109353915D01*
X223473137Y-109449153D01*
X217711257Y-59843942D02*
X217758876Y-59891561D01*
X217901733Y-59939180D01*
X217996971Y-59939180D01*
X218139828Y-59891561D01*
X218235066Y-59796323D01*
X218282685Y-59701085D01*
X218330304Y-59510609D01*
X218330304Y-59367752D01*
X218282685Y-59177276D01*
X218235066Y-59082038D01*
X218139828Y-58986800D01*
X217996971Y-58939180D01*
X217901733Y-58939180D01*
X217758876Y-58986800D01*
X217711257Y-59034419D01*
X216758876Y-59939180D02*
X217330304Y-59939180D01*
X217044590Y-59939180D02*
X217044590Y-58939180D01*
X217139828Y-59082038D01*
X217235066Y-59177276D01*
X217330304Y-59224895D01*
X215854114Y-58939180D02*
X216330304Y-58939180D01*
X216377923Y-59415371D01*
X216330304Y-59367752D01*
X216235066Y-59320133D01*
X215996971Y-59320133D01*
X215901733Y-59367752D01*
X215854114Y-59415371D01*
X215806495Y-59510609D01*
X215806495Y-59748704D01*
X215854114Y-59843942D01*
X215901733Y-59891561D01*
X215996971Y-59939180D01*
X216235066Y-59939180D01*
X216330304Y-59891561D01*
X216377923Y-59843942D01*
X185148457Y-53493942D02*
X185196076Y-53541561D01*
X185338933Y-53589180D01*
X185434171Y-53589180D01*
X185577028Y-53541561D01*
X185672266Y-53446323D01*
X185719885Y-53351085D01*
X185767504Y-53160609D01*
X185767504Y-53017752D01*
X185719885Y-52827276D01*
X185672266Y-52732038D01*
X185577028Y-52636800D01*
X185434171Y-52589180D01*
X185338933Y-52589180D01*
X185196076Y-52636800D01*
X185148457Y-52684419D01*
X184196076Y-53589180D02*
X184767504Y-53589180D01*
X184481790Y-53589180D02*
X184481790Y-52589180D01*
X184577028Y-52732038D01*
X184672266Y-52827276D01*
X184767504Y-52874895D01*
X183243695Y-53589180D02*
X183815123Y-53589180D01*
X183529409Y-53589180D02*
X183529409Y-52589180D01*
X183624647Y-52732038D01*
X183719885Y-52827276D01*
X183815123Y-52874895D01*
X114514380Y-75398476D02*
X115228666Y-75398476D01*
X115371523Y-75350857D01*
X115466761Y-75255619D01*
X115514380Y-75112761D01*
X115514380Y-75017523D01*
X115514380Y-75874666D02*
X114514380Y-75874666D01*
X114514380Y-76255619D01*
X114562000Y-76350857D01*
X114609619Y-76398476D01*
X114704857Y-76446095D01*
X114847714Y-76446095D01*
X114942952Y-76398476D01*
X114990571Y-76350857D01*
X115038190Y-76255619D01*
X115038190Y-75874666D01*
X115514380Y-77398476D02*
X115514380Y-76827047D01*
X115514380Y-77112761D02*
X114514380Y-77112761D01*
X114657238Y-77017523D01*
X114752476Y-76922285D01*
X114800095Y-76827047D01*
X114514380Y-78017523D02*
X114514380Y-78112761D01*
X114562000Y-78208000D01*
X114609619Y-78255619D01*
X114704857Y-78303238D01*
X114895333Y-78350857D01*
X115133428Y-78350857D01*
X115323904Y-78303238D01*
X115419142Y-78255619D01*
X115466761Y-78208000D01*
X115514380Y-78112761D01*
X115514380Y-78017523D01*
X115466761Y-77922285D01*
X115419142Y-77874666D01*
X115323904Y-77827047D01*
X115133428Y-77779428D01*
X114895333Y-77779428D01*
X114704857Y-77827047D01*
X114609619Y-77874666D01*
X114562000Y-77922285D01*
X114514380Y-78017523D01*
X51842996Y-56982486D02*
X50842996Y-56982486D01*
X50842996Y-57220582D01*
X50890616Y-57363439D01*
X50985854Y-57458677D01*
X51081092Y-57506296D01*
X51271568Y-57553915D01*
X51414425Y-57553915D01*
X51604901Y-57506296D01*
X51700139Y-57458677D01*
X51795377Y-57363439D01*
X51842996Y-57220582D01*
X51842996Y-56982486D01*
X50938235Y-57934867D02*
X50890616Y-57982486D01*
X50842996Y-58077724D01*
X50842996Y-58315820D01*
X50890616Y-58411058D01*
X50938235Y-58458677D01*
X51033473Y-58506296D01*
X51128711Y-58506296D01*
X51271568Y-58458677D01*
X51842996Y-57887248D01*
X51842996Y-58506296D01*
X67501136Y-94606296D02*
X66501136Y-94606296D01*
X66501136Y-94844391D01*
X66548756Y-94987248D01*
X66643994Y-95082486D01*
X66739232Y-95130105D01*
X66929708Y-95177724D01*
X67072565Y-95177724D01*
X67263041Y-95130105D01*
X67358279Y-95082486D01*
X67453517Y-94987248D01*
X67501136Y-94844391D01*
X67501136Y-94606296D01*
X66596375Y-95558677D02*
X66548756Y-95606296D01*
X66501136Y-95701534D01*
X66501136Y-95939629D01*
X66548756Y-96034867D01*
X66596375Y-96082486D01*
X66691613Y-96130105D01*
X66786851Y-96130105D01*
X66929708Y-96082486D01*
X67501136Y-95511058D01*
X67501136Y-96130105D01*
X66596375Y-96511058D02*
X66548756Y-96558677D01*
X66501136Y-96653915D01*
X66501136Y-96892010D01*
X66548756Y-96987248D01*
X66596375Y-97034867D01*
X66691613Y-97082486D01*
X66786851Y-97082486D01*
X66929708Y-97034867D01*
X67501136Y-96463439D01*
X67501136Y-97082486D01*
X129477137Y-113656296D02*
X128477137Y-113656296D01*
X128477137Y-113894391D01*
X128524757Y-114037248D01*
X128619995Y-114132486D01*
X128715233Y-114180105D01*
X128905709Y-114227724D01*
X129048566Y-114227724D01*
X129239042Y-114180105D01*
X129334280Y-114132486D01*
X129429518Y-114037248D01*
X129477137Y-113894391D01*
X129477137Y-113656296D01*
X128477137Y-114561058D02*
X128477137Y-115180105D01*
X128858090Y-114846772D01*
X128858090Y-114989629D01*
X128905709Y-115084867D01*
X128953328Y-115132486D01*
X129048566Y-115180105D01*
X129286661Y-115180105D01*
X129381899Y-115132486D01*
X129429518Y-115084867D01*
X129477137Y-114989629D01*
X129477137Y-114703915D01*
X129429518Y-114608677D01*
X129381899Y-114561058D01*
X128477137Y-116084867D02*
X128477137Y-115608677D01*
X128953328Y-115561058D01*
X128905709Y-115608677D01*
X128858090Y-115703915D01*
X128858090Y-115942010D01*
X128905709Y-116037248D01*
X128953328Y-116084867D01*
X129048566Y-116132486D01*
X129286661Y-116132486D01*
X129381899Y-116084867D01*
X129429518Y-116037248D01*
X129477137Y-115942010D01*
X129477137Y-115703915D01*
X129429518Y-115608677D01*
X129381899Y-115561058D01*
X218371657Y-112828342D02*
X218419276Y-112875961D01*
X218562133Y-112923580D01*
X218657371Y-112923580D01*
X218800228Y-112875961D01*
X218895466Y-112780723D01*
X218943085Y-112685485D01*
X218990704Y-112495009D01*
X218990704Y-112352152D01*
X218943085Y-112161676D01*
X218895466Y-112066438D01*
X218800228Y-111971200D01*
X218657371Y-111923580D01*
X218562133Y-111923580D01*
X218419276Y-111971200D01*
X218371657Y-112018819D01*
X217419276Y-112923580D02*
X217990704Y-112923580D01*
X217704990Y-112923580D02*
X217704990Y-111923580D01*
X217800228Y-112066438D01*
X217895466Y-112161676D01*
X217990704Y-112209295D01*
X217085942Y-111923580D02*
X216466895Y-111923580D01*
X216800228Y-112304533D01*
X216657371Y-112304533D01*
X216562133Y-112352152D01*
X216514514Y-112399771D01*
X216466895Y-112495009D01*
X216466895Y-112733104D01*
X216514514Y-112828342D01*
X216562133Y-112875961D01*
X216657371Y-112923580D01*
X216943085Y-112923580D01*
X217038323Y-112875961D01*
X217085942Y-112828342D01*
X86551136Y-56982485D02*
X85551136Y-56982485D01*
X85551136Y-57220581D01*
X85598756Y-57363438D01*
X85693994Y-57458676D01*
X85789232Y-57506295D01*
X85979708Y-57553914D01*
X86122565Y-57553914D01*
X86313041Y-57506295D01*
X86408279Y-57458676D01*
X86503517Y-57363438D01*
X86551136Y-57220581D01*
X86551136Y-56982485D01*
X85551136Y-57887247D02*
X85551136Y-58506295D01*
X85932089Y-58172961D01*
X85932089Y-58315819D01*
X85979708Y-58411057D01*
X86027327Y-58458676D01*
X86122565Y-58506295D01*
X86360660Y-58506295D01*
X86455898Y-58458676D01*
X86503517Y-58411057D01*
X86551136Y-58315819D01*
X86551136Y-58030104D01*
X86503517Y-57934866D01*
X86455898Y-57887247D01*
X254441902Y-82327056D02*
X254489521Y-82469913D01*
X254489521Y-82708008D01*
X254441902Y-82803246D01*
X254394283Y-82850865D01*
X254299045Y-82898484D01*
X254203807Y-82898484D01*
X254108569Y-82850865D01*
X254060950Y-82803246D01*
X254013331Y-82708008D01*
X253965712Y-82517532D01*
X253918093Y-82422294D01*
X253870474Y-82374675D01*
X253775236Y-82327056D01*
X253679998Y-82327056D01*
X253584760Y-82374675D01*
X253537141Y-82422294D01*
X253489521Y-82517532D01*
X253489521Y-82755627D01*
X253537141Y-82898484D01*
X253489521Y-83231818D02*
X254489521Y-83469913D01*
X253775236Y-83660389D01*
X254489521Y-83850865D01*
X253489521Y-84088960D01*
X253822855Y-84898484D02*
X254489521Y-84898484D01*
X253441902Y-84660389D02*
X254156188Y-84422294D01*
X254156188Y-85041341D01*
X253489521Y-85327056D02*
X253489521Y-85993722D01*
X254489521Y-85565151D01*
X251822474Y-51838961D02*
X251822474Y-52553247D01*
X251870093Y-52696104D01*
X251965331Y-52791342D01*
X252108188Y-52838961D01*
X252203426Y-52838961D01*
X251346283Y-52838961D02*
X251346283Y-51838961D01*
X250965331Y-51838961D01*
X250870093Y-51886581D01*
X250822474Y-51934200D01*
X250774855Y-52029438D01*
X250774855Y-52172295D01*
X250822474Y-52267533D01*
X250870093Y-52315152D01*
X250965331Y-52362771D01*
X251346283Y-52362771D01*
X250393902Y-51934200D02*
X250346283Y-51886581D01*
X250251045Y-51838961D01*
X250012950Y-51838961D01*
X249917712Y-51886581D01*
X249870093Y-51934200D01*
X249822474Y-52029438D01*
X249822474Y-52124676D01*
X249870093Y-52267533D01*
X250441521Y-52838961D01*
X249822474Y-52838961D01*
X251822473Y-49298962D02*
X251822473Y-50013248D01*
X251870092Y-50156105D01*
X251965330Y-50251343D01*
X252108187Y-50298962D01*
X252203425Y-50298962D01*
X251346282Y-50298962D02*
X251346282Y-49298962D01*
X250965330Y-49298962D01*
X250870092Y-49346582D01*
X250822473Y-49394201D01*
X250774854Y-49489439D01*
X250774854Y-49632296D01*
X250822473Y-49727534D01*
X250870092Y-49775153D01*
X250965330Y-49822772D01*
X251346282Y-49822772D01*
X249822473Y-50298962D02*
X250393901Y-50298962D01*
X250108187Y-50298962D02*
X250108187Y-49298962D01*
X250203425Y-49441820D01*
X250298663Y-49537058D01*
X250393901Y-49584677D01*
X91473257Y-100560142D02*
X91520876Y-100607761D01*
X91663733Y-100655380D01*
X91758971Y-100655380D01*
X91901828Y-100607761D01*
X91997066Y-100512523D01*
X92044685Y-100417285D01*
X92092304Y-100226809D01*
X92092304Y-100083952D01*
X92044685Y-99893476D01*
X91997066Y-99798238D01*
X91901828Y-99703000D01*
X91758971Y-99655380D01*
X91663733Y-99655380D01*
X91520876Y-99703000D01*
X91473257Y-99750619D01*
X90520876Y-100655380D02*
X91092304Y-100655380D01*
X90806590Y-100655380D02*
X90806590Y-99655380D01*
X90901828Y-99798238D01*
X90997066Y-99893476D01*
X91092304Y-99941095D01*
X89663733Y-99655380D02*
X89854209Y-99655380D01*
X89949447Y-99703000D01*
X89997066Y-99750619D01*
X90092304Y-99893476D01*
X90139923Y-100083952D01*
X90139923Y-100464904D01*
X90092304Y-100560142D01*
X90044685Y-100607761D01*
X89949447Y-100655380D01*
X89758971Y-100655380D01*
X89663733Y-100607761D01*
X89616114Y-100560142D01*
X89568495Y-100464904D01*
X89568495Y-100226809D01*
X89616114Y-100131571D01*
X89663733Y-100083952D01*
X89758971Y-100036333D01*
X89949447Y-100036333D01*
X90044685Y-100083952D01*
X90092304Y-100131571D01*
X90139923Y-100226809D01*
X67501137Y-75556295D02*
X66501137Y-75556295D01*
X66501137Y-75794390D01*
X66548757Y-75937247D01*
X66643995Y-76032485D01*
X66739233Y-76080104D01*
X66929709Y-76127723D01*
X67072566Y-76127723D01*
X67263042Y-76080104D01*
X67358280Y-76032485D01*
X67453518Y-75937247D01*
X67501137Y-75794390D01*
X67501137Y-75556295D01*
X67501137Y-77080104D02*
X67501137Y-76508676D01*
X67501137Y-76794390D02*
X66501137Y-76794390D01*
X66643995Y-76699152D01*
X66739233Y-76603914D01*
X66786852Y-76508676D01*
X66596376Y-77461057D02*
X66548757Y-77508676D01*
X66501137Y-77603914D01*
X66501137Y-77842009D01*
X66548757Y-77937247D01*
X66596376Y-77984866D01*
X66691614Y-78032485D01*
X66786852Y-78032485D01*
X66929709Y-77984866D01*
X67501137Y-77413438D01*
X67501137Y-78032485D01*
X205423136Y-105020296D02*
X204423136Y-105020296D01*
X204423136Y-105258391D01*
X204470756Y-105401248D01*
X204565994Y-105496486D01*
X204661232Y-105544105D01*
X204851708Y-105591724D01*
X204994565Y-105591724D01*
X205185041Y-105544105D01*
X205280279Y-105496486D01*
X205375517Y-105401248D01*
X205423136Y-105258391D01*
X205423136Y-105020296D01*
X204423136Y-105925058D02*
X204423136Y-106544105D01*
X204804089Y-106210772D01*
X204804089Y-106353629D01*
X204851708Y-106448867D01*
X204899327Y-106496486D01*
X204994565Y-106544105D01*
X205232660Y-106544105D01*
X205327898Y-106496486D01*
X205375517Y-106448867D01*
X205423136Y-106353629D01*
X205423136Y-106067915D01*
X205375517Y-105972677D01*
X205327898Y-105925058D01*
X205423136Y-107020296D02*
X205423136Y-107210772D01*
X205375517Y-107306010D01*
X205327898Y-107353629D01*
X205185041Y-107448867D01*
X204994565Y-107496486D01*
X204613613Y-107496486D01*
X204518375Y-107448867D01*
X204470756Y-107401248D01*
X204423136Y-107306010D01*
X204423136Y-107115534D01*
X204470756Y-107020296D01*
X204518375Y-106972677D01*
X204613613Y-106925058D01*
X204851708Y-106925058D01*
X204946946Y-106972677D01*
X204994565Y-107020296D01*
X205042184Y-107115534D01*
X205042184Y-107306010D01*
X204994565Y-107401248D01*
X204946946Y-107448867D01*
X204851708Y-107496486D01*
X186373137Y-83430296D02*
X185373137Y-83430296D01*
X185373137Y-83668391D01*
X185420757Y-83811248D01*
X185515995Y-83906486D01*
X185611233Y-83954105D01*
X185801709Y-84001724D01*
X185944566Y-84001724D01*
X186135042Y-83954105D01*
X186230280Y-83906486D01*
X186325518Y-83811248D01*
X186373137Y-83668391D01*
X186373137Y-83430296D01*
X185468376Y-84382677D02*
X185420757Y-84430296D01*
X185373137Y-84525534D01*
X185373137Y-84763629D01*
X185420757Y-84858867D01*
X185468376Y-84906486D01*
X185563614Y-84954105D01*
X185658852Y-84954105D01*
X185801709Y-84906486D01*
X186373137Y-84335058D01*
X186373137Y-84954105D01*
X185801709Y-85525534D02*
X185754090Y-85430296D01*
X185706471Y-85382677D01*
X185611233Y-85335058D01*
X185563614Y-85335058D01*
X185468376Y-85382677D01*
X185420757Y-85430296D01*
X185373137Y-85525534D01*
X185373137Y-85716010D01*
X185420757Y-85811248D01*
X185468376Y-85858867D01*
X185563614Y-85906486D01*
X185611233Y-85906486D01*
X185706471Y-85858867D01*
X185754090Y-85811248D01*
X185801709Y-85716010D01*
X185801709Y-85525534D01*
X185849328Y-85430296D01*
X185896947Y-85382677D01*
X185992185Y-85335058D01*
X186182661Y-85335058D01*
X186277899Y-85382677D01*
X186325518Y-85430296D01*
X186373137Y-85525534D01*
X186373137Y-85716010D01*
X186325518Y-85811248D01*
X186277899Y-85858867D01*
X186182661Y-85906486D01*
X185992185Y-85906486D01*
X185896947Y-85858867D01*
X185849328Y-85811248D01*
X185801709Y-85716010D01*
X205423137Y-48346484D02*
X204423137Y-48346484D01*
X204423137Y-48584580D01*
X204470757Y-48727437D01*
X204565995Y-48822675D01*
X204661233Y-48870294D01*
X204851709Y-48917913D01*
X204994566Y-48917913D01*
X205185042Y-48870294D01*
X205280280Y-48822675D01*
X205375518Y-48727437D01*
X205423137Y-48584580D01*
X205423137Y-48346484D01*
X205423137Y-49394103D02*
X205423137Y-49584580D01*
X205375518Y-49679818D01*
X205327899Y-49727437D01*
X205185042Y-49822675D01*
X204994566Y-49870294D01*
X204613614Y-49870294D01*
X204518376Y-49822675D01*
X204470757Y-49775056D01*
X204423137Y-49679818D01*
X204423137Y-49489341D01*
X204470757Y-49394103D01*
X204518376Y-49346484D01*
X204613614Y-49298865D01*
X204851709Y-49298865D01*
X204946947Y-49346484D01*
X204994566Y-49394103D01*
X205042185Y-49489341D01*
X205042185Y-49679818D01*
X204994566Y-49775056D01*
X204946947Y-49822675D01*
X204851709Y-49870294D01*
X224473136Y-50156296D02*
X223473136Y-50156296D01*
X223473136Y-50394391D01*
X223520756Y-50537248D01*
X223615994Y-50632486D01*
X223711232Y-50680105D01*
X223901708Y-50727724D01*
X224044565Y-50727724D01*
X224235041Y-50680105D01*
X224330279Y-50632486D01*
X224425517Y-50537248D01*
X224473136Y-50394391D01*
X224473136Y-50156296D01*
X224473136Y-51680105D02*
X224473136Y-51108677D01*
X224473136Y-51394391D02*
X223473136Y-51394391D01*
X223615994Y-51299153D01*
X223711232Y-51203915D01*
X223758851Y-51108677D01*
X223473136Y-52299153D02*
X223473136Y-52394391D01*
X223520756Y-52489629D01*
X223568375Y-52537248D01*
X223663613Y-52584867D01*
X223854089Y-52632486D01*
X224092184Y-52632486D01*
X224282660Y-52584867D01*
X224377898Y-52537248D01*
X224425517Y-52489629D01*
X224473136Y-52394391D01*
X224473136Y-52299153D01*
X224425517Y-52203915D01*
X224377898Y-52156296D01*
X224282660Y-52108677D01*
X224092184Y-52061058D01*
X223854089Y-52061058D01*
X223663613Y-52108677D01*
X223568375Y-52156296D01*
X223520756Y-52203915D01*
X223473136Y-52299153D01*
X105601137Y-56982486D02*
X104601137Y-56982486D01*
X104601137Y-57220582D01*
X104648757Y-57363439D01*
X104743995Y-57458677D01*
X104839233Y-57506296D01*
X105029709Y-57553915D01*
X105172566Y-57553915D01*
X105363042Y-57506296D01*
X105458280Y-57458677D01*
X105553518Y-57363439D01*
X105601137Y-57220582D01*
X105601137Y-56982486D01*
X104934471Y-58411058D02*
X105601137Y-58411058D01*
X104553518Y-58172962D02*
X105267804Y-57934867D01*
X105267804Y-58553915D01*
X205423137Y-85970294D02*
X204423137Y-85970294D01*
X204423137Y-86208389D01*
X204470757Y-86351246D01*
X204565995Y-86446484D01*
X204661233Y-86494103D01*
X204851709Y-86541722D01*
X204994566Y-86541722D01*
X205185042Y-86494103D01*
X205280280Y-86446484D01*
X205375518Y-86351246D01*
X205423137Y-86208389D01*
X205423137Y-85970294D01*
X204518376Y-86922675D02*
X204470757Y-86970294D01*
X204423137Y-87065532D01*
X204423137Y-87303627D01*
X204470757Y-87398865D01*
X204518376Y-87446484D01*
X204613614Y-87494103D01*
X204708852Y-87494103D01*
X204851709Y-87446484D01*
X205423137Y-86875056D01*
X205423137Y-87494103D01*
X205423137Y-87970294D02*
X205423137Y-88160770D01*
X205375518Y-88256008D01*
X205327899Y-88303627D01*
X205185042Y-88398865D01*
X204994566Y-88446484D01*
X204613614Y-88446484D01*
X204518376Y-88398865D01*
X204470757Y-88351246D01*
X204423137Y-88256008D01*
X204423137Y-88065532D01*
X204470757Y-87970294D01*
X204518376Y-87922675D01*
X204613614Y-87875056D01*
X204851709Y-87875056D01*
X204946947Y-87922675D01*
X204994566Y-87970294D01*
X205042185Y-88065532D01*
X205042185Y-88256008D01*
X204994566Y-88351246D01*
X204946947Y-88398865D01*
X204851709Y-88446484D01*
X86551137Y-113656294D02*
X85551137Y-113656294D01*
X85551137Y-113894389D01*
X85598757Y-114037246D01*
X85693995Y-114132484D01*
X85789233Y-114180103D01*
X85979709Y-114227722D01*
X86122566Y-114227722D01*
X86313042Y-114180103D01*
X86408280Y-114132484D01*
X86503518Y-114037246D01*
X86551137Y-113894389D01*
X86551137Y-113656294D01*
X85551137Y-114561056D02*
X85551137Y-115180103D01*
X85932090Y-114846770D01*
X85932090Y-114989627D01*
X85979709Y-115084865D01*
X86027328Y-115132484D01*
X86122566Y-115180103D01*
X86360661Y-115180103D01*
X86455899Y-115132484D01*
X86503518Y-115084865D01*
X86551137Y-114989627D01*
X86551137Y-114703913D01*
X86503518Y-114608675D01*
X86455899Y-114561056D01*
X85551137Y-115513437D02*
X85551137Y-116132484D01*
X85932090Y-115799151D01*
X85932090Y-115942008D01*
X85979709Y-116037246D01*
X86027328Y-116084865D01*
X86122566Y-116132484D01*
X86360661Y-116132484D01*
X86455899Y-116084865D01*
X86503518Y-116037246D01*
X86551137Y-115942008D01*
X86551137Y-115656294D01*
X86503518Y-115561056D01*
X86455899Y-115513437D01*
X167577136Y-104766296D02*
X166577136Y-104766296D01*
X166577136Y-105004391D01*
X166624756Y-105147248D01*
X166719994Y-105242486D01*
X166815232Y-105290105D01*
X167005708Y-105337724D01*
X167148565Y-105337724D01*
X167339041Y-105290105D01*
X167434279Y-105242486D01*
X167529517Y-105147248D01*
X167577136Y-105004391D01*
X167577136Y-104766296D01*
X166577136Y-105671058D02*
X166577136Y-106290105D01*
X166958089Y-105956772D01*
X166958089Y-106099629D01*
X167005708Y-106194867D01*
X167053327Y-106242486D01*
X167148565Y-106290105D01*
X167386660Y-106290105D01*
X167481898Y-106242486D01*
X167529517Y-106194867D01*
X167577136Y-106099629D01*
X167577136Y-105813915D01*
X167529517Y-105718677D01*
X167481898Y-105671058D01*
X166577136Y-106623439D02*
X166577136Y-107290105D01*
X167577136Y-106861534D01*
X144152857Y-100331542D02*
X144200476Y-100379161D01*
X144343333Y-100426780D01*
X144438571Y-100426780D01*
X144581428Y-100379161D01*
X144676666Y-100283923D01*
X144724285Y-100188685D01*
X144771904Y-99998209D01*
X144771904Y-99855352D01*
X144724285Y-99664876D01*
X144676666Y-99569638D01*
X144581428Y-99474400D01*
X144438571Y-99426780D01*
X144343333Y-99426780D01*
X144200476Y-99474400D01*
X144152857Y-99522019D01*
X143200476Y-100426780D02*
X143771904Y-100426780D01*
X143486190Y-100426780D02*
X143486190Y-99426780D01*
X143581428Y-99569638D01*
X143676666Y-99664876D01*
X143771904Y-99712495D01*
X142819523Y-99522019D02*
X142771904Y-99474400D01*
X142676666Y-99426780D01*
X142438571Y-99426780D01*
X142343333Y-99474400D01*
X142295714Y-99522019D01*
X142248095Y-99617257D01*
X142248095Y-99712495D01*
X142295714Y-99855352D01*
X142867142Y-100426780D01*
X142248095Y-100426780D01*
X67501137Y-113656294D02*
X66501137Y-113656294D01*
X66501137Y-113894389D01*
X66548757Y-114037246D01*
X66643995Y-114132484D01*
X66739233Y-114180103D01*
X66929709Y-114227722D01*
X67072566Y-114227722D01*
X67263042Y-114180103D01*
X67358280Y-114132484D01*
X67453518Y-114037246D01*
X67501137Y-113894389D01*
X67501137Y-113656294D01*
X66501137Y-114561056D02*
X66501137Y-115180103D01*
X66882090Y-114846770D01*
X66882090Y-114989627D01*
X66929709Y-115084865D01*
X66977328Y-115132484D01*
X67072566Y-115180103D01*
X67310661Y-115180103D01*
X67405899Y-115132484D01*
X67453518Y-115084865D01*
X67501137Y-114989627D01*
X67501137Y-114703913D01*
X67453518Y-114608675D01*
X67405899Y-114561056D01*
X66596376Y-115561056D02*
X66548757Y-115608675D01*
X66501137Y-115703913D01*
X66501137Y-115942008D01*
X66548757Y-116037246D01*
X66596376Y-116084865D01*
X66691614Y-116132484D01*
X66786852Y-116132484D01*
X66929709Y-116084865D01*
X67501137Y-115513437D01*
X67501137Y-116132484D01*
X233910638Y-137122185D02*
X234410638Y-136256159D01*
X234204442Y-136137112D01*
X234056914Y-136106922D01*
X233926817Y-136141782D01*
X233837958Y-136200451D01*
X233701481Y-136341599D01*
X233630052Y-136465317D01*
X233576054Y-136654083D01*
X233569674Y-136760372D01*
X233604533Y-136890469D01*
X233704442Y-137003137D01*
X233910638Y-137122185D01*
X233006792Y-135830549D02*
X232673459Y-136407899D01*
X233403465Y-135619682D02*
X233252519Y-136357319D01*
X232716408Y-136047795D01*
X232307434Y-135041874D02*
X232719827Y-135279969D01*
X232522971Y-135716171D01*
X232505541Y-135651123D01*
X232446872Y-135562264D01*
X232240675Y-135443217D01*
X232134387Y-135436837D01*
X232069339Y-135454267D01*
X231980480Y-135512936D01*
X231861433Y-135719132D01*
X231855053Y-135825420D01*
X231872483Y-135890469D01*
X231931152Y-135979328D01*
X232137348Y-136098375D01*
X232243636Y-136104755D01*
X232308685Y-136087325D01*
X251822474Y-56918962D02*
X251822474Y-57633248D01*
X251870093Y-57776105D01*
X251965331Y-57871343D01*
X252108188Y-57918962D01*
X252203426Y-57918962D01*
X251346283Y-57918962D02*
X251346283Y-56918962D01*
X250965331Y-56918962D01*
X250870093Y-56966582D01*
X250822474Y-57014201D01*
X250774855Y-57109439D01*
X250774855Y-57252296D01*
X250822474Y-57347534D01*
X250870093Y-57395153D01*
X250965331Y-57442772D01*
X251346283Y-57442772D01*
X249917712Y-57252296D02*
X249917712Y-57918962D01*
X250155807Y-56871343D02*
X250393902Y-57585629D01*
X249774855Y-57585629D01*
X132487996Y-113656296D02*
X131487996Y-113656296D01*
X131487996Y-113894391D01*
X131535616Y-114037248D01*
X131630854Y-114132486D01*
X131726092Y-114180105D01*
X131916568Y-114227724D01*
X132059425Y-114227724D01*
X132249901Y-114180105D01*
X132345139Y-114132486D01*
X132440377Y-114037248D01*
X132487996Y-113894391D01*
X132487996Y-113656296D01*
X131487996Y-114561058D02*
X131487996Y-115180105D01*
X131868949Y-114846772D01*
X131868949Y-114989629D01*
X131916568Y-115084867D01*
X131964187Y-115132486D01*
X132059425Y-115180105D01*
X132297520Y-115180105D01*
X132392758Y-115132486D01*
X132440377Y-115084867D01*
X132487996Y-114989629D01*
X132487996Y-114703915D01*
X132440377Y-114608677D01*
X132392758Y-114561058D01*
X131487996Y-116037248D02*
X131487996Y-115846772D01*
X131535616Y-115751534D01*
X131583235Y-115703915D01*
X131726092Y-115608677D01*
X131916568Y-115561058D01*
X132297520Y-115561058D01*
X132392758Y-115608677D01*
X132440377Y-115656296D01*
X132487996Y-115751534D01*
X132487996Y-115942010D01*
X132440377Y-116037248D01*
X132392758Y-116084867D01*
X132297520Y-116132486D01*
X132059425Y-116132486D01*
X131964187Y-116084867D01*
X131916568Y-116037248D01*
X131868949Y-115942010D01*
X131868949Y-115751534D01*
X131916568Y-115656296D01*
X131964187Y-115608677D01*
X132059425Y-115561058D01*
X186373137Y-121530296D02*
X185373137Y-121530296D01*
X185373137Y-121768391D01*
X185420757Y-121911248D01*
X185515995Y-122006486D01*
X185611233Y-122054105D01*
X185801709Y-122101724D01*
X185944566Y-122101724D01*
X186135042Y-122054105D01*
X186230280Y-122006486D01*
X186325518Y-121911248D01*
X186373137Y-121768391D01*
X186373137Y-121530296D01*
X185706471Y-122958867D02*
X186373137Y-122958867D01*
X185325518Y-122720772D02*
X186039804Y-122482677D01*
X186039804Y-123101724D01*
X185468376Y-123435058D02*
X185420757Y-123482677D01*
X185373137Y-123577915D01*
X185373137Y-123816010D01*
X185420757Y-123911248D01*
X185468376Y-123958867D01*
X185563614Y-124006486D01*
X185658852Y-124006486D01*
X185801709Y-123958867D01*
X186373137Y-123387439D01*
X186373137Y-124006486D01*
X186373137Y-102480295D02*
X185373137Y-102480295D01*
X185373137Y-102718390D01*
X185420757Y-102861247D01*
X185515995Y-102956485D01*
X185611233Y-103004104D01*
X185801709Y-103051723D01*
X185944566Y-103051723D01*
X186135042Y-103004104D01*
X186230280Y-102956485D01*
X186325518Y-102861247D01*
X186373137Y-102718390D01*
X186373137Y-102480295D01*
X185373137Y-103385057D02*
X185373137Y-104004104D01*
X185754090Y-103670771D01*
X185754090Y-103813628D01*
X185801709Y-103908866D01*
X185849328Y-103956485D01*
X185944566Y-104004104D01*
X186182661Y-104004104D01*
X186277899Y-103956485D01*
X186325518Y-103908866D01*
X186373137Y-103813628D01*
X186373137Y-103527914D01*
X186325518Y-103432676D01*
X186277899Y-103385057D01*
X185801709Y-104575533D02*
X185754090Y-104480295D01*
X185706471Y-104432676D01*
X185611233Y-104385057D01*
X185563614Y-104385057D01*
X185468376Y-104432676D01*
X185420757Y-104480295D01*
X185373137Y-104575533D01*
X185373137Y-104766009D01*
X185420757Y-104861247D01*
X185468376Y-104908866D01*
X185563614Y-104956485D01*
X185611233Y-104956485D01*
X185706471Y-104908866D01*
X185754090Y-104861247D01*
X185801709Y-104766009D01*
X185801709Y-104575533D01*
X185849328Y-104480295D01*
X185896947Y-104432676D01*
X185992185Y-104385057D01*
X186182661Y-104385057D01*
X186277899Y-104432676D01*
X186325518Y-104480295D01*
X186373137Y-104575533D01*
X186373137Y-104766009D01*
X186325518Y-104861247D01*
X186277899Y-104908866D01*
X186182661Y-104956485D01*
X185992185Y-104956485D01*
X185896947Y-104908866D01*
X185849328Y-104861247D01*
X185801709Y-104766009D01*
X132487996Y-56982484D02*
X131487996Y-56982484D01*
X131487996Y-57220580D01*
X131535616Y-57363437D01*
X131630854Y-57458675D01*
X131726092Y-57506294D01*
X131916568Y-57553913D01*
X132059425Y-57553913D01*
X132249901Y-57506294D01*
X132345139Y-57458675D01*
X132440377Y-57363437D01*
X132487996Y-57220580D01*
X132487996Y-56982484D01*
X131487996Y-58411056D02*
X131487996Y-58220580D01*
X131535616Y-58125341D01*
X131583235Y-58077722D01*
X131726092Y-57982484D01*
X131916568Y-57934865D01*
X132297520Y-57934865D01*
X132392758Y-57982484D01*
X132440377Y-58030103D01*
X132487996Y-58125341D01*
X132487996Y-58315818D01*
X132440377Y-58411056D01*
X132392758Y-58458675D01*
X132297520Y-58506294D01*
X132059425Y-58506294D01*
X131964187Y-58458675D01*
X131916568Y-58411056D01*
X131868949Y-58315818D01*
X131868949Y-58125341D01*
X131916568Y-58030103D01*
X131964187Y-57982484D01*
X132059425Y-57934865D01*
X167577137Y-85716294D02*
X166577137Y-85716294D01*
X166577137Y-85954389D01*
X166624757Y-86097246D01*
X166719995Y-86192484D01*
X166815233Y-86240103D01*
X167005709Y-86287722D01*
X167148566Y-86287722D01*
X167339042Y-86240103D01*
X167434280Y-86192484D01*
X167529518Y-86097246D01*
X167577137Y-85954389D01*
X167577137Y-85716294D01*
X166672376Y-86668675D02*
X166624757Y-86716294D01*
X166577137Y-86811532D01*
X166577137Y-87049627D01*
X166624757Y-87144865D01*
X166672376Y-87192484D01*
X166767614Y-87240103D01*
X166862852Y-87240103D01*
X167005709Y-87192484D01*
X167577137Y-86621056D01*
X167577137Y-87240103D01*
X166577137Y-87573437D02*
X166577137Y-88240103D01*
X167577137Y-87811532D01*
X210425141Y-54956581D02*
X210425141Y-55956581D01*
X224425141Y-42956581D02*
X224425141Y-41956581D01*
X211075141Y-44511580D02*
X211075141Y-44892580D01*
X210425141Y-41956581D02*
X210425141Y-42956581D01*
X222505141Y-45400580D02*
X222505141Y-46416580D01*
X222505141Y-41971580D02*
X222505141Y-42352580D01*
X224425141Y-55956581D02*
X223425141Y-55956581D01*
X222505141Y-46416580D02*
X217425141Y-46416580D01*
X213615141Y-41971580D02*
X222505141Y-41971580D01*
X211425141Y-55956581D02*
X210425141Y-55956581D01*
X214960979Y-48321580D02*
X213234141Y-48321580D01*
X223425141Y-41956581D02*
X224425141Y-41956581D01*
X210425141Y-41956581D02*
X211425141Y-41956581D01*
X211456141Y-48321580D02*
X211075141Y-48321580D01*
X224425141Y-55956581D02*
X224425141Y-54956581D01*
X211075141Y-47940580D02*
X211075141Y-48321580D01*
X217425141Y-46416579D02*
G75*
G03*
X214960979Y-48340540I0J-2540000D01*
G01*
X213615141Y-41971580D02*
G75*
G03*
X211075141Y-44511580I1J-2540001D01*
G01*
X195960978Y-45821582D02*
X194234140Y-45821582D01*
X191425140Y-39456583D02*
X191425140Y-40456583D01*
X203505140Y-43916582D02*
X198425140Y-43916582D01*
X192075140Y-42011582D02*
X192075140Y-42392582D01*
X192456140Y-45821582D02*
X192075140Y-45821582D01*
X204425140Y-39456583D02*
X205425140Y-39456583D01*
X194615140Y-39471582D02*
X203505140Y-39471582D01*
X205425140Y-40456583D02*
X205425140Y-39456583D01*
X203505140Y-39471582D02*
X203505140Y-39852582D01*
X203505140Y-42900582D02*
X203505140Y-43916582D01*
X191425140Y-39456583D02*
X192425140Y-39456583D01*
X205425140Y-53456583D02*
X204425140Y-53456583D01*
X192425140Y-53456583D02*
X191425140Y-53456583D01*
X192075140Y-45440582D02*
X192075140Y-45821582D01*
X205425140Y-53456583D02*
X205425140Y-52456583D01*
X191425140Y-52456583D02*
X191425140Y-53456583D01*
X194615140Y-39471582D02*
G75*
G03*
X192075140Y-42011582I1J-2540001D01*
G01*
X198425140Y-43916581D02*
G75*
G03*
X195960978Y-45840542I0J-2540000D01*
G01*
X184505140Y-36981580D02*
X184505140Y-37362580D01*
X175615140Y-36981580D02*
X184505140Y-36981580D01*
X172425140Y-49966581D02*
X172425140Y-50966581D01*
X173425140Y-50966581D02*
X172425140Y-50966581D01*
X185425140Y-36966581D02*
X186425140Y-36966581D01*
X176960978Y-43331580D02*
X175234140Y-43331580D01*
X173075140Y-39521580D02*
X173075140Y-39902580D01*
X172425140Y-36966581D02*
X173425140Y-36966581D01*
X173075140Y-42950580D02*
X173075140Y-43331580D01*
X186425140Y-50966581D02*
X185425140Y-50966581D01*
X186425140Y-50966581D02*
X186425140Y-49966581D01*
X173456140Y-43331580D02*
X173075140Y-43331580D01*
X172425140Y-36966581D02*
X172425140Y-37966581D01*
X184505140Y-40410580D02*
X184505140Y-41426580D01*
X186425140Y-37966581D02*
X186425140Y-36966581D01*
X184505140Y-41426580D02*
X179425140Y-41426580D01*
X175615140Y-36981580D02*
G75*
G03*
X173075140Y-39521580I1J-2540001D01*
G01*
X179425140Y-41426579D02*
G75*
G03*
X176960978Y-43350540I0J-2540000D01*
G01*
X165505141Y-42900581D02*
X165505141Y-43916581D01*
X156615141Y-39471581D02*
X165505141Y-39471581D01*
X153425141Y-39456582D02*
X153425141Y-40456582D01*
X153425141Y-52456582D02*
X153425141Y-53456582D01*
X165505141Y-43916581D02*
X160425141Y-43916581D01*
X154075141Y-42011581D02*
X154075141Y-42392581D01*
X154425141Y-53456582D02*
X153425141Y-53456582D01*
X166425141Y-39456582D02*
X167425141Y-39456582D01*
X157960979Y-45821581D02*
X156234141Y-45821581D01*
X165505141Y-39471581D02*
X165505141Y-39852581D01*
X154075141Y-45440581D02*
X154075141Y-45821581D01*
X153425141Y-39456582D02*
X154425141Y-39456582D01*
X154456141Y-45821581D02*
X154075141Y-45821581D01*
X167425141Y-53456582D02*
X166425141Y-53456582D01*
X167425141Y-53456582D02*
X167425141Y-52456582D01*
X167425141Y-40456582D02*
X167425141Y-39456582D01*
X156615141Y-39471581D02*
G75*
G03*
X154075141Y-42011581I1J-2540001D01*
G01*
X160425141Y-43916580D02*
G75*
G03*
X157960979Y-45840541I0J-2540000D01*
G01*
X135075140Y-54440582D02*
X135075140Y-54821582D01*
X138960978Y-54821582D02*
X137234140Y-54821582D01*
X147425140Y-48456583D02*
X148425140Y-48456583D01*
X146505140Y-51900582D02*
X146505140Y-52916582D01*
X148425140Y-49456583D02*
X148425140Y-48456583D01*
X135425140Y-62456583D02*
X134425140Y-62456583D01*
X148425140Y-62456583D02*
X147425140Y-62456583D01*
X148425140Y-62456583D02*
X148425140Y-61456583D01*
X137615140Y-48471582D02*
X146505140Y-48471582D01*
X135456140Y-54821582D02*
X135075140Y-54821582D01*
X146505140Y-48471582D02*
X146505140Y-48852582D01*
X135075140Y-51011582D02*
X135075140Y-51392582D01*
X134425140Y-48456583D02*
X134425140Y-49456583D01*
X134425140Y-48456583D02*
X135425140Y-48456583D01*
X146505140Y-52916582D02*
X141425140Y-52916582D01*
X134425140Y-61456583D02*
X134425140Y-62456583D01*
X141425140Y-52916581D02*
G75*
G03*
X138960978Y-54840542I0J-2540000D01*
G01*
X137615140Y-48471582D02*
G75*
G03*
X135075140Y-51011582I1J-2540001D01*
G01*
X116425140Y-62456582D02*
X115425140Y-62456582D01*
X128425140Y-48456582D02*
X129425140Y-48456582D01*
X129425140Y-62456582D02*
X128425140Y-62456582D01*
X116075140Y-51011581D02*
X116075140Y-51392581D01*
X127505140Y-52916581D02*
X122425140Y-52916581D01*
X115425140Y-61456582D02*
X115425140Y-62456582D01*
X129425140Y-49456582D02*
X129425140Y-48456582D01*
X116075140Y-54440581D02*
X116075140Y-54821581D01*
X115425140Y-48456582D02*
X115425140Y-49456582D01*
X119960978Y-54821581D02*
X118234140Y-54821581D01*
X118615140Y-48471581D02*
X127505140Y-48471581D01*
X129425140Y-62456582D02*
X129425140Y-61456582D01*
X127505140Y-51900581D02*
X127505140Y-52916581D01*
X127505140Y-48471581D02*
X127505140Y-48852581D01*
X115425140Y-48456582D02*
X116425140Y-48456582D01*
X116456140Y-54821581D02*
X116075140Y-54821581D01*
X118615140Y-48471581D02*
G75*
G03*
X116075140Y-51011581I1J-2540001D01*
G01*
X122425140Y-52916580D02*
G75*
G03*
X119960978Y-54840541I0J-2540000D01*
G01*
X222505141Y-64500582D02*
X222505141Y-65516582D01*
X223425141Y-61056583D02*
X224425141Y-61056583D01*
X211075141Y-63611582D02*
X211075141Y-63992582D01*
X222505141Y-65516582D02*
X217425141Y-65516582D01*
X211075141Y-67040582D02*
X211075141Y-67421582D01*
X210425141Y-61056583D02*
X211425141Y-61056583D01*
X211425141Y-75056583D02*
X210425141Y-75056583D01*
X224425141Y-62056583D02*
X224425141Y-61056583D01*
X210425141Y-74056583D02*
X210425141Y-75056583D01*
X224425141Y-75056583D02*
X224425141Y-74056583D01*
X224425141Y-75056583D02*
X223425141Y-75056583D01*
X210425141Y-61056583D02*
X210425141Y-62056583D01*
X211456141Y-67421582D02*
X211075141Y-67421582D01*
X213615141Y-61071582D02*
X222505141Y-61071582D01*
X222505141Y-61071582D02*
X222505141Y-61452582D01*
X214960979Y-67421582D02*
X213234141Y-67421582D01*
X217425141Y-65516581D02*
G75*
G03*
X214960979Y-67440542I0J-2540000D01*
G01*
X213615141Y-61071582D02*
G75*
G03*
X211075141Y-63611582I1J-2540001D01*
G01*
X203505141Y-58571580D02*
X203505141Y-58952580D01*
X203505141Y-62000580D02*
X203505141Y-63016580D01*
X204425141Y-58556581D02*
X205425141Y-58556581D01*
X205425141Y-72556581D02*
X204425141Y-72556581D01*
X192075141Y-64540580D02*
X192075141Y-64921580D01*
X203505141Y-63016580D02*
X198425141Y-63016580D01*
X191425141Y-58556581D02*
X191425141Y-59556581D01*
X205425141Y-72556581D02*
X205425141Y-71556581D01*
X195960979Y-64921580D02*
X194234141Y-64921580D01*
X192075141Y-61111580D02*
X192075141Y-61492580D01*
X192425141Y-72556581D02*
X191425141Y-72556581D01*
X191425141Y-58556581D02*
X192425141Y-58556581D01*
X192456141Y-64921580D02*
X192075141Y-64921580D01*
X191425141Y-71556581D02*
X191425141Y-72556581D01*
X205425141Y-59556581D02*
X205425141Y-58556581D01*
X194615141Y-58571580D02*
X203505141Y-58571580D01*
X194615141Y-58571580D02*
G75*
G03*
X192075141Y-61111580I1J-2540001D01*
G01*
X198425141Y-63016579D02*
G75*
G03*
X195960979Y-64940540I0J-2540000D01*
G01*
X186425140Y-70056583D02*
X186425140Y-69056583D01*
X185425140Y-56056583D02*
X186425140Y-56056583D01*
X173075140Y-62040582D02*
X173075140Y-62421582D01*
X173456140Y-62421582D02*
X173075140Y-62421582D01*
X176960978Y-62421582D02*
X175234140Y-62421582D01*
X186425140Y-57056583D02*
X186425140Y-56056583D01*
X184505140Y-60516582D02*
X179425140Y-60516582D01*
X184505140Y-56071582D02*
X184505140Y-56452582D01*
X175615140Y-56071582D02*
X184505140Y-56071582D01*
X172425140Y-69056583D02*
X172425140Y-70056583D01*
X184505140Y-59500582D02*
X184505140Y-60516582D01*
X173425140Y-70056583D02*
X172425140Y-70056583D01*
X173075140Y-58611582D02*
X173075140Y-58992582D01*
X172425140Y-56056583D02*
X173425140Y-56056583D01*
X186425140Y-70056583D02*
X185425140Y-70056583D01*
X172425140Y-56056583D02*
X172425140Y-57056583D01*
X179425140Y-60516581D02*
G75*
G03*
X176960978Y-62440542I0J-2540000D01*
G01*
X175615140Y-56071582D02*
G75*
G03*
X173075140Y-58611582I1J-2540001D01*
G01*
X154075140Y-64440582D02*
X154075140Y-64821582D01*
X154075140Y-61011582D02*
X154075140Y-61392582D01*
X157960978Y-64821582D02*
X156234140Y-64821582D01*
X153425140Y-71456583D02*
X153425140Y-72456583D01*
X167425140Y-72456583D02*
X166425140Y-72456583D01*
X167425140Y-59456583D02*
X167425140Y-58456583D01*
X154456140Y-64821582D02*
X154075140Y-64821582D01*
X153425140Y-58456583D02*
X153425140Y-59456583D01*
X156615140Y-58471582D02*
X165505140Y-58471582D01*
X165505140Y-61900582D02*
X165505140Y-62916582D01*
X153425140Y-58456583D02*
X154425140Y-58456583D01*
X167425140Y-72456583D02*
X167425140Y-71456583D01*
X154425140Y-72456583D02*
X153425140Y-72456583D01*
X166425140Y-58456583D02*
X167425140Y-58456583D01*
X165505140Y-62916582D02*
X160425140Y-62916582D01*
X165505140Y-58471582D02*
X165505140Y-58852582D01*
X156615140Y-58471582D02*
G75*
G03*
X154075140Y-61011582I1J-2540001D01*
G01*
X160425140Y-62916581D02*
G75*
G03*
X157960978Y-64840542I0J-2540000D01*
G01*
X134425140Y-67356583D02*
X135425140Y-67356583D01*
X137615140Y-67371582D02*
X146505140Y-67371582D01*
X146505140Y-71816582D02*
X141425140Y-71816582D01*
X147425140Y-67356583D02*
X148425140Y-67356583D01*
X135425140Y-81356583D02*
X134425140Y-81356583D01*
X134425140Y-67356583D02*
X134425140Y-68356583D01*
X148425140Y-68356583D02*
X148425140Y-67356583D01*
X146505140Y-67371582D02*
X146505140Y-67752582D01*
X135456140Y-73721582D02*
X135075140Y-73721582D01*
X138960978Y-73721582D02*
X137234140Y-73721582D01*
X146505140Y-70800582D02*
X146505140Y-71816582D01*
X135075140Y-73340582D02*
X135075140Y-73721582D01*
X148425140Y-81356583D02*
X148425140Y-80356583D01*
X134425140Y-80356583D02*
X134425140Y-81356583D01*
X135075140Y-69911582D02*
X135075140Y-70292582D01*
X148425140Y-81356583D02*
X147425140Y-81356583D01*
X141425140Y-71816581D02*
G75*
G03*
X138960978Y-73740542I0J-2540000D01*
G01*
X137615140Y-67371582D02*
G75*
G03*
X135075140Y-69911582I1J-2540001D01*
G01*
X129425140Y-68356583D02*
X129425140Y-67356583D01*
X119960978Y-73721582D02*
X118234140Y-73721582D01*
X115425140Y-67356583D02*
X116425140Y-67356583D01*
X129425140Y-81356583D02*
X129425140Y-80356583D01*
X127505140Y-67371582D02*
X127505140Y-67752582D01*
X116425140Y-81356583D02*
X115425140Y-81356583D01*
X118615140Y-67371582D02*
X127505140Y-67371582D01*
X127505140Y-70800582D02*
X127505140Y-71816582D01*
X115425140Y-80356583D02*
X115425140Y-81356583D01*
X127505140Y-71816582D02*
X122425140Y-71816582D01*
X116075140Y-69911582D02*
X116075140Y-70292582D01*
X129425140Y-81356583D02*
X128425140Y-81356583D01*
X116075140Y-73340582D02*
X116075140Y-73721582D01*
X128425140Y-67356583D02*
X129425140Y-67356583D01*
X116456140Y-73721582D02*
X116075140Y-73721582D01*
X115425140Y-67356583D02*
X115425140Y-68356583D01*
X122425140Y-71816581D02*
G75*
G03*
X119960978Y-73740542I0J-2540000D01*
G01*
X118615140Y-67371582D02*
G75*
G03*
X116075140Y-69911582I1J-2540001D01*
G01*
X210425141Y-80056581D02*
X211425141Y-80056581D01*
X224425141Y-81056581D02*
X224425141Y-80056581D01*
X222505141Y-84516580D02*
X217425141Y-84516580D01*
X222505141Y-80071580D02*
X222505141Y-80452580D01*
X211456141Y-86421580D02*
X211075141Y-86421580D01*
X223425141Y-80056581D02*
X224425141Y-80056581D01*
X211075141Y-86040580D02*
X211075141Y-86421580D01*
X214960979Y-86421580D02*
X213234141Y-86421580D01*
X222505141Y-83500580D02*
X222505141Y-84516580D01*
X224425141Y-94056581D02*
X223425141Y-94056581D01*
X210425141Y-80056581D02*
X210425141Y-81056581D01*
X210425141Y-93056581D02*
X210425141Y-94056581D01*
X211075141Y-82611580D02*
X211075141Y-82992580D01*
X211425141Y-94056581D02*
X210425141Y-94056581D01*
X213615141Y-80071580D02*
X222505141Y-80071580D01*
X224425141Y-94056581D02*
X224425141Y-93056581D01*
X217425141Y-84516579D02*
G75*
G03*
X214960979Y-86440540I0J-2540000D01*
G01*
X213615141Y-80071580D02*
G75*
G03*
X211075141Y-82611580I1J-2540001D01*
G01*
X195960978Y-83921582D02*
X194234140Y-83921582D01*
X205425140Y-91556583D02*
X205425140Y-90556583D01*
X203505140Y-82016582D02*
X198425140Y-82016582D01*
X203505140Y-77571582D02*
X203505140Y-77952582D01*
X192456140Y-83921582D02*
X192075140Y-83921582D01*
X192075140Y-83540582D02*
X192075140Y-83921582D01*
X192075140Y-80111582D02*
X192075140Y-80492582D01*
X191425140Y-77556583D02*
X192425140Y-77556583D01*
X203505140Y-81000582D02*
X203505140Y-82016582D01*
X205425140Y-91556583D02*
X204425140Y-91556583D01*
X205425140Y-78556583D02*
X205425140Y-77556583D01*
X204425140Y-77556583D02*
X205425140Y-77556583D01*
X191425140Y-77556583D02*
X191425140Y-78556583D01*
X192425140Y-91556583D02*
X191425140Y-91556583D01*
X191425140Y-90556583D02*
X191425140Y-91556583D01*
X194615140Y-77571582D02*
X203505140Y-77571582D01*
X198425140Y-82016581D02*
G75*
G03*
X195960978Y-83940542I0J-2540000D01*
G01*
X194615140Y-77571582D02*
G75*
G03*
X192075140Y-80111582I1J-2540001D01*
G01*
X173456140Y-81521582D02*
X173075140Y-81521582D01*
X184505140Y-75171582D02*
X184505140Y-75552582D01*
X173075140Y-77711582D02*
X173075140Y-78092582D01*
X172425140Y-88156583D02*
X172425140Y-89156583D01*
X185425140Y-75156583D02*
X186425140Y-75156583D01*
X172425140Y-75156583D02*
X173425140Y-75156583D01*
X173425140Y-89156583D02*
X172425140Y-89156583D01*
X173075140Y-81140582D02*
X173075140Y-81521582D01*
X176960978Y-81521582D02*
X175234140Y-81521582D01*
X186425140Y-76156583D02*
X186425140Y-75156583D01*
X186425140Y-89156583D02*
X185425140Y-89156583D01*
X184505140Y-79616582D02*
X179425140Y-79616582D01*
X175615140Y-75171582D02*
X184505140Y-75171582D01*
X186425140Y-89156583D02*
X186425140Y-88156583D01*
X184505140Y-78600582D02*
X184505140Y-79616582D01*
X172425140Y-75156583D02*
X172425140Y-76156583D01*
X179425140Y-79616581D02*
G75*
G03*
X176960978Y-81540542I0J-2540000D01*
G01*
X175615140Y-75171582D02*
G75*
G03*
X173075140Y-77711582I1J-2540001D01*
G01*
X165505141Y-82016581D02*
X160425141Y-82016581D01*
X154456141Y-83921581D02*
X154075141Y-83921581D01*
X167425141Y-91556582D02*
X166425141Y-91556582D01*
X154075141Y-80111581D02*
X154075141Y-80492581D01*
X153425141Y-90556582D02*
X153425141Y-91556582D01*
X165505141Y-77571581D02*
X165505141Y-77952581D01*
X157960979Y-83921581D02*
X156234141Y-83921581D01*
X154425141Y-91556582D02*
X153425141Y-91556582D01*
X154075141Y-83540581D02*
X154075141Y-83921581D01*
X156615141Y-77571581D02*
X165505141Y-77571581D01*
X166425141Y-77556582D02*
X167425141Y-77556582D01*
X153425141Y-77556582D02*
X153425141Y-78556582D01*
X153425141Y-77556582D02*
X154425141Y-77556582D01*
X167425141Y-78556582D02*
X167425141Y-77556582D01*
X167425141Y-91556582D02*
X167425141Y-90556582D01*
X165505141Y-81000581D02*
X165505141Y-82016581D01*
X156615141Y-77571581D02*
G75*
G03*
X154075141Y-80111581I1J-2540001D01*
G01*
X160425141Y-82016580D02*
G75*
G03*
X157960979Y-83940541I0J-2540000D01*
G01*
X137615140Y-86571582D02*
X146505140Y-86571582D01*
X148425140Y-87556583D02*
X148425140Y-86556583D01*
X135425140Y-100556583D02*
X134425140Y-100556583D01*
X135075140Y-92540582D02*
X135075140Y-92921582D01*
X135075140Y-89111582D02*
X135075140Y-89492582D01*
X134425140Y-86556583D02*
X134425140Y-87556583D01*
X147425140Y-86556583D02*
X148425140Y-86556583D01*
X146505140Y-86571582D02*
X146505140Y-86952582D01*
X135456140Y-92921582D02*
X135075140Y-92921582D01*
X134425140Y-86556583D02*
X135425140Y-86556583D01*
X148425140Y-100556583D02*
X147425140Y-100556583D01*
X134425140Y-99556583D02*
X134425140Y-100556583D01*
X148425140Y-100556583D02*
X148425140Y-99556583D01*
X146505140Y-91016582D02*
X141425140Y-91016582D01*
X146505140Y-90000582D02*
X146505140Y-91016582D01*
X138960978Y-92921582D02*
X137234140Y-92921582D01*
X141425140Y-91016581D02*
G75*
G03*
X138960978Y-92940542I0J-2540000D01*
G01*
X137615140Y-86571582D02*
G75*
G03*
X135075140Y-89111582I1J-2540001D01*
G01*
X115425140Y-86556581D02*
X116425140Y-86556581D01*
X129425140Y-87556581D02*
X129425140Y-86556581D01*
X116456140Y-92921580D02*
X116075140Y-92921580D01*
X115425140Y-86556581D02*
X115425140Y-87556581D01*
X129425140Y-100556581D02*
X128425140Y-100556581D01*
X118615140Y-86571580D02*
X127505140Y-86571580D01*
X116425140Y-100556581D02*
X115425140Y-100556581D01*
X116075140Y-89111580D02*
X116075140Y-89492580D01*
X127505140Y-90000580D02*
X127505140Y-91016580D01*
X119960978Y-92921580D02*
X118234140Y-92921580D01*
X128425140Y-86556581D02*
X129425140Y-86556581D01*
X129425140Y-100556581D02*
X129425140Y-99556581D01*
X115425140Y-99556581D02*
X115425140Y-100556581D01*
X127505140Y-86571580D02*
X127505140Y-86952580D01*
X116075140Y-92540580D02*
X116075140Y-92921580D01*
X127505140Y-91016580D02*
X122425140Y-91016580D01*
X118615140Y-86571580D02*
G75*
G03*
X116075140Y-89111580I1J-2540001D01*
G01*
X122425140Y-91016579D02*
G75*
G03*
X119960978Y-92940540I0J-2540000D01*
G01*
X211456141Y-105421581D02*
X211075141Y-105421581D01*
X211425141Y-113056582D02*
X210425141Y-113056582D01*
X222505141Y-103516581D02*
X217425141Y-103516581D01*
X211075141Y-105040581D02*
X211075141Y-105421581D01*
X224425141Y-113056582D02*
X224425141Y-112056582D01*
X210425141Y-112056582D02*
X210425141Y-113056582D01*
X224425141Y-113056582D02*
X223425141Y-113056582D01*
X211075141Y-101611581D02*
X211075141Y-101992581D01*
X214960979Y-105421581D02*
X213234141Y-105421581D01*
X210425141Y-99056582D02*
X211425141Y-99056582D01*
X222505141Y-102500581D02*
X222505141Y-103516581D01*
X210425141Y-99056582D02*
X210425141Y-100056582D01*
X222505141Y-99071581D02*
X222505141Y-99452581D01*
X224425141Y-100056582D02*
X224425141Y-99056582D01*
X223425141Y-99056582D02*
X224425141Y-99056582D01*
X213615141Y-99071581D02*
X222505141Y-99071581D01*
X217425141Y-103516580D02*
G75*
G03*
X214960979Y-105440541I0J-2540000D01*
G01*
X213615141Y-99071581D02*
G75*
G03*
X211075141Y-101611581I1J-2540001D01*
G01*
X203505141Y-100100580D02*
X203505141Y-101116580D01*
X192075141Y-102640580D02*
X192075141Y-103021580D01*
X203505141Y-101116580D02*
X198425141Y-101116580D01*
X194615141Y-96671580D02*
X203505141Y-96671580D01*
X191425141Y-109656581D02*
X191425141Y-110656581D01*
X191425141Y-96656581D02*
X191425141Y-97656581D01*
X195960979Y-103021580D02*
X194234141Y-103021580D01*
X205425141Y-110656581D02*
X204425141Y-110656581D01*
X192075141Y-99211580D02*
X192075141Y-99592580D01*
X191425141Y-96656581D02*
X192425141Y-96656581D01*
X203505141Y-96671580D02*
X203505141Y-97052580D01*
X205425141Y-97656581D02*
X205425141Y-96656581D01*
X192456141Y-103021580D02*
X192075141Y-103021580D01*
X204425141Y-96656581D02*
X205425141Y-96656581D01*
X205425141Y-110656581D02*
X205425141Y-109656581D01*
X192425141Y-110656581D02*
X191425141Y-110656581D01*
X194615141Y-96671580D02*
G75*
G03*
X192075141Y-99211580I1J-2540001D01*
G01*
X198425141Y-101116579D02*
G75*
G03*
X195960979Y-103040540I0J-2540000D01*
G01*
X176960978Y-100521582D02*
X175234140Y-100521582D01*
X186425140Y-108156583D02*
X185425140Y-108156583D01*
X173425140Y-108156583D02*
X172425140Y-108156583D01*
X172425140Y-94156583D02*
X173425140Y-94156583D01*
X184505140Y-94171582D02*
X184505140Y-94552582D01*
X172425140Y-107156583D02*
X172425140Y-108156583D01*
X172425140Y-94156583D02*
X172425140Y-95156583D01*
X184505140Y-97600582D02*
X184505140Y-98616582D01*
X184505140Y-98616582D02*
X179425140Y-98616582D01*
X185425140Y-94156583D02*
X186425140Y-94156583D01*
X186425140Y-108156583D02*
X186425140Y-107156583D01*
X173075140Y-100140582D02*
X173075140Y-100521582D01*
X173075140Y-96711582D02*
X173075140Y-97092582D01*
X173456140Y-100521582D02*
X173075140Y-100521582D01*
X175615140Y-94171582D02*
X184505140Y-94171582D01*
X186425140Y-95156583D02*
X186425140Y-94156583D01*
X175615140Y-94171582D02*
G75*
G03*
X173075140Y-96711582I1J-2540001D01*
G01*
X179425140Y-98616581D02*
G75*
G03*
X176960978Y-100540542I0J-2540000D01*
G01*
X156615140Y-96671581D02*
X165505140Y-96671581D01*
X154075140Y-102640581D02*
X154075140Y-103021581D01*
X153425140Y-96656582D02*
X153425140Y-97656582D01*
X167425140Y-110656582D02*
X167425140Y-109656582D01*
X157960978Y-103021581D02*
X156234140Y-103021581D01*
X165505140Y-100100581D02*
X165505140Y-101116581D01*
X165505140Y-101116581D02*
X160425140Y-101116581D01*
X153425140Y-96656582D02*
X154425140Y-96656582D01*
X166425140Y-96656582D02*
X167425140Y-96656582D01*
X154425140Y-110656582D02*
X153425140Y-110656582D01*
X154075140Y-99211581D02*
X154075140Y-99592581D01*
X165505140Y-96671581D02*
X165505140Y-97052581D01*
X153425140Y-109656582D02*
X153425140Y-110656582D01*
X167425140Y-110656582D02*
X166425140Y-110656582D01*
X167425140Y-97656582D02*
X167425140Y-96656582D01*
X154456140Y-103021581D02*
X154075140Y-103021581D01*
X160425140Y-101116580D02*
G75*
G03*
X157960978Y-103040541I0J-2540000D01*
G01*
X156615140Y-96671581D02*
G75*
G03*
X154075140Y-99211581I1J-2540001D01*
G01*
X134425140Y-105556583D02*
X134425140Y-106556583D01*
X135425140Y-119556583D02*
X134425140Y-119556583D01*
X147425140Y-105556583D02*
X148425140Y-105556583D01*
X135456140Y-111921582D02*
X135075140Y-111921582D01*
X146505140Y-105571582D02*
X146505140Y-105952582D01*
X135075140Y-111540582D02*
X135075140Y-111921582D01*
X134425140Y-105556583D02*
X135425140Y-105556583D01*
X138960978Y-111921582D02*
X137234140Y-111921582D01*
X134425140Y-118556583D02*
X134425140Y-119556583D01*
X135075140Y-108111582D02*
X135075140Y-108492582D01*
X146505140Y-110016582D02*
X141425140Y-110016582D01*
X137615140Y-105571582D02*
X146505140Y-105571582D01*
X148425140Y-119556583D02*
X148425140Y-118556583D01*
X148425140Y-119556583D02*
X147425140Y-119556583D01*
X148425140Y-106556583D02*
X148425140Y-105556583D01*
X146505140Y-109000582D02*
X146505140Y-110016582D01*
X137615140Y-105571582D02*
G75*
G03*
X135075140Y-108111582I1J-2540001D01*
G01*
X141425140Y-110016581D02*
G75*
G03*
X138960978Y-111940542I0J-2540000D01*
G01*
X116406141Y-111921582D02*
X116025141Y-111921582D01*
X115375141Y-105556583D02*
X115375141Y-106556583D01*
X127455141Y-105571582D02*
X127455141Y-105952582D01*
X119910979Y-111921582D02*
X118184141Y-111921582D01*
X115375141Y-105556583D02*
X116375141Y-105556583D01*
X129375141Y-119556583D02*
X128375141Y-119556583D01*
X127455141Y-110016582D02*
X122375141Y-110016582D01*
X118565141Y-105571582D02*
X127455141Y-105571582D01*
X128375141Y-105556583D02*
X129375141Y-105556583D01*
X127455141Y-109000582D02*
X127455141Y-110016582D01*
X116025141Y-111540582D02*
X116025141Y-111921582D01*
X116375141Y-119556583D02*
X115375141Y-119556583D01*
X115375141Y-118556583D02*
X115375141Y-119556583D01*
X129375141Y-106556583D02*
X129375141Y-105556583D01*
X129375141Y-119556583D02*
X129375141Y-118556583D01*
X116025141Y-108111582D02*
X116025141Y-108492582D01*
X122375141Y-110016581D02*
G75*
G03*
X119910979Y-111940542I0J-2540000D01*
G01*
X118565141Y-105571582D02*
G75*
G03*
X116025141Y-108111582I1J-2540001D01*
G01*
X244759567Y-127514774D02*
X244950067Y-127184819D01*
X240884846Y-138035989D02*
X243424846Y-133636580D01*
X245280023Y-127375319D02*
X244950067Y-127184819D01*
X239528988Y-123304402D02*
X238662962Y-122804402D01*
X231662962Y-134928757D02*
X232528988Y-135428757D01*
X243007148Y-130550053D02*
X243870567Y-129054568D01*
X248249624Y-129089819D02*
X247919668Y-128899319D01*
X250787318Y-129804402D02*
X250287318Y-130670427D01*
X241764727Y-138543989D02*
X240884846Y-138035989D01*
X231662962Y-134928757D02*
X232162962Y-134062732D01*
X242921293Y-141428757D02*
X243787318Y-141928757D01*
X250787318Y-129804402D02*
X249921293Y-129304402D01*
X244287318Y-141062732D02*
X243787318Y-141928757D01*
X249179328Y-132559523D02*
X244734328Y-140258489D01*
X244734328Y-140258489D02*
X244404373Y-140067989D01*
X238162962Y-123670427D02*
X238662962Y-122804402D01*
X249179329Y-132559524D02*
G75*
G03*
X248249624Y-129089819I-2199706J1270000D01*
G01*
X243424847Y-133636580D02*
G75*
G03*
X242990728Y-130540573I-2199705J1269999D01*
G01*
X216616724Y-118177931D02*
X217537228Y-118568662D01*
X225993762Y-127003414D02*
X221317597Y-125018500D01*
X216216734Y-120783795D02*
X216067865Y-121134508D01*
X216616724Y-118177931D02*
X216225992Y-119098436D01*
X228583287Y-123257436D02*
X229503791Y-123648167D01*
X226390745Y-126068181D02*
X225993762Y-127003414D01*
X224033556Y-136535235D02*
X224424287Y-135614730D01*
X229113060Y-124568672D02*
X229503791Y-123648167D01*
X212066993Y-131455730D02*
X211146488Y-131064999D01*
X227730562Y-122911770D02*
X227581693Y-123262482D01*
X214876917Y-123940206D02*
X214728048Y-124290919D01*
X211537219Y-130144494D02*
X211146488Y-131064999D01*
X219547273Y-119438170D02*
X227730562Y-122911770D01*
X215078761Y-124439787D02*
X214728048Y-124290919D01*
X218304981Y-125809237D02*
X216715418Y-125134507D01*
X224033556Y-136535235D02*
X223113051Y-136144504D01*
X221317597Y-125018499D02*
G75*
G03*
X218297573Y-125826689I-992457J-2338082D01*
G01*
X219547273Y-119438170D02*
G75*
G03*
X216216734Y-120783795I-992456J-2338084D01*
G01*
X192425140Y-129756582D02*
X191425140Y-129756582D01*
X195960978Y-122121581D02*
X194234140Y-122121581D01*
X203505140Y-115771581D02*
X203505140Y-116152581D01*
X192075140Y-118311581D02*
X192075140Y-118692581D01*
X205425140Y-129756582D02*
X204425140Y-129756582D01*
X191425140Y-115756582D02*
X192425140Y-115756582D01*
X204425140Y-115756582D02*
X205425140Y-115756582D01*
X192075140Y-121740581D02*
X192075140Y-122121581D01*
X205425140Y-116756582D02*
X205425140Y-115756582D01*
X205425140Y-129756582D02*
X205425140Y-128756582D01*
X194615140Y-115771581D02*
X203505140Y-115771581D01*
X191425140Y-128756582D02*
X191425140Y-129756582D01*
X192456140Y-122121581D02*
X192075140Y-122121581D01*
X203505140Y-119200581D02*
X203505140Y-120216581D01*
X203505140Y-120216581D02*
X198425140Y-120216581D01*
X191425140Y-115756582D02*
X191425140Y-116756582D01*
X194615140Y-115771581D02*
G75*
G03*
X192075140Y-118311581I1J-2540001D01*
G01*
X198425140Y-120216580D02*
G75*
G03*
X195960978Y-122140541I0J-2540000D01*
G01*
X184505140Y-113171582D02*
X184505140Y-113552582D01*
X172425140Y-113156583D02*
X173425140Y-113156583D01*
X175615140Y-113171582D02*
X184505140Y-113171582D01*
X186425140Y-127156583D02*
X185425140Y-127156583D01*
X173425140Y-127156583D02*
X172425140Y-127156583D01*
X173075140Y-119140582D02*
X173075140Y-119521582D01*
X172425140Y-113156583D02*
X172425140Y-114156583D01*
X186425140Y-127156583D02*
X186425140Y-126156583D01*
X176960978Y-119521582D02*
X175234140Y-119521582D01*
X186425140Y-114156583D02*
X186425140Y-113156583D01*
X185425140Y-113156583D02*
X186425140Y-113156583D01*
X173075140Y-115711582D02*
X173075140Y-116092582D01*
X173456140Y-119521582D02*
X173075140Y-119521582D01*
X184505140Y-117616582D02*
X179425140Y-117616582D01*
X172425140Y-126156583D02*
X172425140Y-127156583D01*
X184505140Y-116600582D02*
X184505140Y-117616582D01*
X175615140Y-113171582D02*
G75*
G03*
X173075140Y-115711582I1J-2540001D01*
G01*
X179425140Y-117616581D02*
G75*
G03*
X176960978Y-119540542I0J-2540000D01*
G01*
X165505141Y-115671581D02*
X165505141Y-116052581D01*
X167425141Y-116656582D02*
X167425141Y-115656582D01*
X153425141Y-115656582D02*
X154425141Y-115656582D01*
X153425141Y-128656582D02*
X153425141Y-129656582D01*
X154425141Y-129656582D02*
X153425141Y-129656582D01*
X165505141Y-120116581D02*
X160425141Y-120116581D01*
X165505141Y-119100581D02*
X165505141Y-120116581D01*
X167425141Y-129656582D02*
X166425141Y-129656582D01*
X154075141Y-121640581D02*
X154075141Y-122021581D01*
X154456141Y-122021581D02*
X154075141Y-122021581D01*
X154075141Y-118211581D02*
X154075141Y-118592581D01*
X156615141Y-115671581D02*
X165505141Y-115671581D01*
X167425141Y-129656582D02*
X167425141Y-128656582D01*
X153425141Y-115656582D02*
X153425141Y-116656582D01*
X157960979Y-122021581D02*
X156234141Y-122021581D01*
X166425141Y-115656582D02*
X167425141Y-115656582D01*
X160425141Y-120116580D02*
G75*
G03*
X157960979Y-122040541I0J-2540000D01*
G01*
X156615141Y-115671581D02*
G75*
G03*
X154075141Y-118211581I1J-2540001D01*
G01*
X85562640Y-67506582D02*
X86562640Y-67506582D01*
X72562640Y-80506582D02*
X72562640Y-81506582D01*
X84642640Y-71966582D02*
X79562640Y-71966582D01*
X86562640Y-81506582D02*
X86562640Y-80506582D01*
X73212640Y-70061582D02*
X73212640Y-70442582D01*
X72562640Y-67506582D02*
X73562640Y-67506582D01*
X73593640Y-73871582D02*
X73212640Y-73871582D01*
X72562640Y-67506582D02*
X72562640Y-68506582D01*
X73212640Y-73490582D02*
X73212640Y-73871582D01*
X86562640Y-68506582D02*
X86562640Y-67506582D01*
X86562640Y-81506582D02*
X85562640Y-81506582D01*
X75752640Y-67521582D02*
X84642640Y-67521582D01*
X84642640Y-70950582D02*
X84642640Y-71966582D01*
X73562640Y-81506582D02*
X72562640Y-81506582D01*
X84642640Y-67521582D02*
X84642640Y-67902582D01*
X77098478Y-73871582D02*
X75371640Y-73871582D01*
X79562640Y-71966581D02*
G75*
G03*
X77098478Y-73890542I0J-2540000D01*
G01*
X75752640Y-67521582D02*
G75*
G03*
X73212640Y-70061582I1J-2540001D01*
G01*
X96148479Y-54821582D02*
X94421641Y-54821582D01*
X91612641Y-61456583D02*
X91612641Y-62456583D01*
X91612641Y-48456583D02*
X92612641Y-48456583D01*
X105612641Y-49456583D02*
X105612641Y-48456583D01*
X104612641Y-48456583D02*
X105612641Y-48456583D01*
X103692641Y-52916582D02*
X98612641Y-52916582D01*
X105612641Y-62456583D02*
X105612641Y-61456583D01*
X92262641Y-54440582D02*
X92262641Y-54821582D01*
X94802641Y-48471582D02*
X103692641Y-48471582D01*
X92612641Y-62456583D02*
X91612641Y-62456583D01*
X92262641Y-51011582D02*
X92262641Y-51392582D01*
X103692641Y-51900582D02*
X103692641Y-52916582D01*
X91612641Y-48456583D02*
X91612641Y-49456583D01*
X103692641Y-48471582D02*
X103692641Y-48852582D01*
X105612641Y-62456583D02*
X104612641Y-62456583D01*
X92643641Y-54821582D02*
X92262641Y-54821582D01*
X94802641Y-48471582D02*
G75*
G03*
X92262641Y-51011582I1J-2540001D01*
G01*
X98612641Y-52916581D02*
G75*
G03*
X96148479Y-54840542I0J-2540000D01*
G01*
D14*
X227899140Y-37146581D02*
X247155140Y-37146581D01*
X243877140Y-87438581D02*
X243877140Y-37146581D01*
X247917140Y-37908581D02*
X247917140Y-88581581D01*
X227137140Y-88581581D02*
X228407140Y-89851581D01*
X227899140Y-37146581D02*
X227137140Y-37908581D01*
X227137140Y-88581581D02*
X227137140Y-37908581D01*
X231177140Y-87438581D02*
X231177140Y-37146581D01*
X247917140Y-37908581D02*
X247155140Y-37146581D01*
X246647140Y-89851581D02*
X247917140Y-88581581D01*
X246647140Y-89851581D02*
X228407140Y-89851581D01*
X59846000Y-105074000D02*
X53946000Y-105074000D01*
X53946000Y-105074000D02*
X53946000Y-103999000D01*
X59846000Y-101174000D02*
X53946000Y-101174000D01*
D12*
X67512641Y-81506582D02*
X66512641Y-81506582D01*
X65592641Y-67521581D02*
X65592641Y-67902581D01*
X54162641Y-70061581D02*
X54162641Y-70442581D01*
X56702641Y-67521581D02*
X65592641Y-67521581D01*
X67512641Y-68506582D02*
X67512641Y-67506582D01*
X53512641Y-80506582D02*
X53512641Y-81506582D01*
X65592641Y-70950581D02*
X65592641Y-71966581D01*
X67512641Y-81506582D02*
X67512641Y-80506582D01*
X53512641Y-67506582D02*
X53512641Y-68506582D01*
X53512641Y-67506582D02*
X54512641Y-67506582D01*
X66512641Y-67506582D02*
X67512641Y-67506582D01*
X54543641Y-73871581D02*
X54162641Y-73871581D01*
X54162641Y-73490581D02*
X54162641Y-73871581D01*
X54512641Y-81506582D02*
X53512641Y-81506582D01*
X65592641Y-71966581D02*
X60512641Y-71966581D01*
X58048479Y-73871581D02*
X56321641Y-73871581D01*
X60512641Y-71966580D02*
G75*
G03*
X58048479Y-73890541I0J-2540000D01*
G01*
X56702641Y-67521581D02*
G75*
G03*
X54162641Y-70061581I1J-2540001D01*
G01*
D14*
X139036000Y-104820000D02*
X139036000Y-103745000D01*
X144936000Y-104820000D02*
X139036000Y-104820000D01*
X144936000Y-100920000D02*
X139036000Y-100920000D01*
D12*
X91612641Y-67506581D02*
X92612641Y-67506581D01*
X103692641Y-71966581D02*
X98612641Y-71966581D01*
X91612641Y-67506581D02*
X91612641Y-68506581D01*
X105612641Y-81506581D02*
X104612641Y-81506581D01*
X94802641Y-67521581D02*
X103692641Y-67521581D01*
X104612641Y-67506581D02*
X105612641Y-67506581D01*
X96148479Y-73871581D02*
X94421641Y-73871581D01*
X105612641Y-68506581D02*
X105612641Y-67506581D01*
X105612641Y-81506581D02*
X105612641Y-80506581D01*
X103692641Y-67521581D02*
X103692641Y-67902581D01*
X92262641Y-70061581D02*
X92262641Y-70442581D01*
X92262641Y-73490581D02*
X92262641Y-73871581D01*
X91612641Y-80506581D02*
X91612641Y-81506581D01*
X92612641Y-81506581D02*
X91612641Y-81506581D01*
X92643641Y-73871581D02*
X92262641Y-73871581D01*
X103692641Y-70950581D02*
X103692641Y-71966581D01*
X98612641Y-71966580D02*
G75*
G03*
X96148479Y-73890541I0J-2540000D01*
G01*
X94802641Y-67521581D02*
G75*
G03*
X92262641Y-70061581I1J-2540001D01*
G01*
D14*
X182528000Y-111932000D02*
X176628000Y-111932000D01*
X182528000Y-108032000D02*
X176628000Y-108032000D01*
X176628000Y-111932000D02*
X176628000Y-110857000D01*
X243877140Y-40309800D02*
X243877140Y-59359800D01*
X241337140Y-39674800D02*
X241337140Y-59994800D01*
X243242140Y-59994800D02*
X237908140Y-59994800D01*
X237273140Y-59359800D02*
X237273140Y-40309800D01*
X237908140Y-39674800D02*
X243242140Y-39674800D01*
X237273140Y-59359800D02*
G75*
G03*
X237908140Y-59994800I634999J-1D01*
G01*
X243877140Y-40309800D02*
G75*
G03*
X243242140Y-39674800I-635000J0D01*
G01*
X237908140Y-39674800D02*
G75*
G03*
X237273140Y-40309800I-1J-634999D01*
G01*
X243242140Y-59994800D02*
G75*
G03*
X243877140Y-59359800I0J635000D01*
G01*
D12*
X105612641Y-119606582D02*
X104612641Y-119606582D01*
X92612641Y-119606582D02*
X91612641Y-119606582D01*
X103692641Y-110066581D02*
X98612641Y-110066581D01*
X105612641Y-119606582D02*
X105612641Y-118606582D01*
X91612641Y-105606582D02*
X91612641Y-106606582D01*
X104612641Y-105606582D02*
X105612641Y-105606582D01*
X92262641Y-108161581D02*
X92262641Y-108542581D01*
X96148479Y-111971581D02*
X94421641Y-111971581D01*
X105612641Y-106606582D02*
X105612641Y-105606582D01*
X91612641Y-105606582D02*
X92612641Y-105606582D01*
X103692641Y-109050581D02*
X103692641Y-110066581D01*
X92262641Y-111590581D02*
X92262641Y-111971581D01*
X103692641Y-105621581D02*
X103692641Y-106002581D01*
X91612641Y-118606582D02*
X91612641Y-119606582D01*
X92643641Y-111971581D02*
X92262641Y-111971581D01*
X94802641Y-105621581D02*
X103692641Y-105621581D01*
X94802641Y-105621581D02*
G75*
G03*
X92262641Y-108161581I1J-2540001D01*
G01*
X98612641Y-110066580D02*
G75*
G03*
X96148479Y-111990541I0J-2540000D01*
G01*
X72562641Y-48456581D02*
X72562641Y-49456581D01*
X84642641Y-52916580D02*
X79562641Y-52916580D01*
X72562641Y-61456581D02*
X72562641Y-62456581D01*
X73212641Y-54440580D02*
X73212641Y-54821580D01*
X72562641Y-48456581D02*
X73562641Y-48456581D01*
X84642641Y-48471580D02*
X84642641Y-48852580D01*
X86562641Y-62456581D02*
X86562641Y-61456581D01*
X73593641Y-54821580D02*
X73212641Y-54821580D01*
X85562641Y-48456581D02*
X86562641Y-48456581D01*
X86562641Y-62456581D02*
X85562641Y-62456581D01*
X75752641Y-48471580D02*
X84642641Y-48471580D01*
X77098479Y-54821580D02*
X75371641Y-54821580D01*
X84642641Y-51900580D02*
X84642641Y-52916580D01*
X86562641Y-49456581D02*
X86562641Y-48456581D01*
X73562641Y-62456581D02*
X72562641Y-62456581D01*
X73212641Y-51011580D02*
X73212641Y-51392580D01*
X79562641Y-52916579D02*
G75*
G03*
X77098479Y-54840540I0J-2540000D01*
G01*
X75752641Y-48471580D02*
G75*
G03*
X73212641Y-51011580I1J-2540001D01*
G01*
X58048479Y-111971581D02*
X56321641Y-111971581D01*
X67512641Y-119606582D02*
X66512641Y-119606582D01*
X53512641Y-105606582D02*
X53512641Y-106606582D01*
X65592641Y-110066581D02*
X60512641Y-110066581D01*
X67512641Y-106606582D02*
X67512641Y-105606582D01*
X65592641Y-105621581D02*
X65592641Y-106002581D01*
X54543641Y-111971581D02*
X54162641Y-111971581D01*
X66512641Y-105606582D02*
X67512641Y-105606582D01*
X54162641Y-108161581D02*
X54162641Y-108542581D01*
X54512641Y-119606582D02*
X53512641Y-119606582D01*
X67512641Y-119606582D02*
X67512641Y-118606582D01*
X53512641Y-118606582D02*
X53512641Y-119606582D01*
X53512641Y-105606582D02*
X54512641Y-105606582D01*
X65592641Y-109050581D02*
X65592641Y-110066581D01*
X56702641Y-105621581D02*
X65592641Y-105621581D01*
X54162641Y-111590581D02*
X54162641Y-111971581D01*
X56702641Y-105621581D02*
G75*
G03*
X54162641Y-108161581I1J-2540001D01*
G01*
X60512641Y-110066580D02*
G75*
G03*
X58048479Y-111990541I0J-2540000D01*
G01*
D14*
X53946000Y-65196000D02*
X59846000Y-65196000D01*
X53946000Y-61296000D02*
X59846000Y-61296000D01*
X59846000Y-61296000D02*
X59846000Y-62371000D01*
X86204000Y-64942000D02*
X92104000Y-64942000D01*
X86204000Y-61042000D02*
X92104000Y-61042000D01*
X92104000Y-61042000D02*
X92104000Y-62117000D01*
D12*
X67512641Y-62456583D02*
X66512641Y-62456583D01*
X53512641Y-61456583D02*
X53512641Y-62456583D01*
X56702641Y-48471582D02*
X65592641Y-48471582D01*
X53512641Y-48456583D02*
X54512641Y-48456583D01*
X67512641Y-62456583D02*
X67512641Y-61456583D01*
X54162641Y-51011582D02*
X54162641Y-51392582D01*
X65592641Y-51900582D02*
X65592641Y-52916582D01*
X65592641Y-48471582D02*
X65592641Y-48852582D01*
X53512641Y-48456583D02*
X53512641Y-49456583D01*
X54543641Y-54821582D02*
X54162641Y-54821582D01*
X54162641Y-54440582D02*
X54162641Y-54821582D01*
X66512641Y-48456583D02*
X67512641Y-48456583D01*
X54512641Y-62456583D02*
X53512641Y-62456583D01*
X58048479Y-54821582D02*
X56321641Y-54821582D01*
X67512641Y-49456583D02*
X67512641Y-48456583D01*
X65592641Y-52916582D02*
X60512641Y-52916582D01*
X60512641Y-52916581D02*
G75*
G03*
X58048479Y-54840542I0J-2540000D01*
G01*
X56702641Y-48471582D02*
G75*
G03*
X54162641Y-51011582I1J-2540001D01*
G01*
D14*
X220120000Y-117266000D02*
X214220000Y-117266000D01*
X214220000Y-117266000D02*
X214220000Y-116191000D01*
X220120000Y-113366000D02*
X214220000Y-113366000D01*
D12*
X67512641Y-87556583D02*
X67512641Y-86556583D01*
X65592641Y-91016582D02*
X60512641Y-91016582D01*
X65592641Y-86571582D02*
X65592641Y-86952582D01*
X58048479Y-92921582D02*
X56321641Y-92921582D01*
X67512641Y-100556583D02*
X67512641Y-99556583D01*
X53512641Y-86556583D02*
X53512641Y-87556583D01*
X54162641Y-89111582D02*
X54162641Y-89492582D01*
X53512641Y-86556583D02*
X54512641Y-86556583D01*
X67512641Y-100556583D02*
X66512641Y-100556583D01*
X54162641Y-92540582D02*
X54162641Y-92921582D01*
X66512641Y-86556583D02*
X67512641Y-86556583D01*
X53512641Y-99556583D02*
X53512641Y-100556583D01*
X56702641Y-86571582D02*
X65592641Y-86571582D01*
X65592641Y-90000582D02*
X65592641Y-91016582D01*
X54543641Y-92921582D02*
X54162641Y-92921582D01*
X54512641Y-100556583D02*
X53512641Y-100556583D01*
X60512641Y-91016581D02*
G75*
G03*
X58048479Y-92940542I0J-2540000D01*
G01*
X56702641Y-86571582D02*
G75*
G03*
X54162641Y-89111582I1J-2540001D01*
G01*
X77098478Y-111971582D02*
X75371640Y-111971582D01*
X85562640Y-105606583D02*
X86562640Y-105606583D01*
X73212640Y-111590582D02*
X73212640Y-111971582D01*
X72562640Y-118606583D02*
X72562640Y-119606583D01*
X84642640Y-110066582D02*
X79562640Y-110066582D01*
X72562640Y-105606583D02*
X72562640Y-106606583D01*
X75752640Y-105621582D02*
X84642640Y-105621582D01*
X73593640Y-111971582D02*
X73212640Y-111971582D01*
X86562640Y-119606583D02*
X85562640Y-119606583D01*
X72562640Y-105606583D02*
X73562640Y-105606583D01*
X86562640Y-106606583D02*
X86562640Y-105606583D01*
X73212640Y-108161582D02*
X73212640Y-108542582D01*
X84642640Y-109050582D02*
X84642640Y-110066582D01*
X73562640Y-119606583D02*
X72562640Y-119606583D01*
X84642640Y-105621582D02*
X84642640Y-106002582D01*
X86562640Y-119606583D02*
X86562640Y-118606583D01*
X79562640Y-110066581D02*
G75*
G03*
X77098478Y-111990542I0J-2540000D01*
G01*
X75752640Y-105621582D02*
G75*
G03*
X73212640Y-108161582I1J-2540001D01*
G01*
D14*
X255524000Y-48576580D02*
X254254000Y-48576580D01*
X255524000Y-58736580D02*
X254254000Y-58736580D01*
X256159000Y-58101580D02*
X256159000Y-49211580D01*
X253619000Y-49211580D02*
X253619000Y-58101580D01*
X256159000Y-49211580D02*
G75*
G03*
X255524000Y-48576580I-634999J1D01*
G01*
X254254000Y-48576580D02*
G75*
G03*
X253619000Y-49211580I-1J-634999D01*
G01*
X255524000Y-58736580D02*
G75*
G03*
X256159000Y-58101580I0J635000D01*
G01*
X253619000Y-58101580D02*
G75*
G03*
X254254000Y-58736580I635000J0D01*
G01*
X138782000Y-63074000D02*
X144682000Y-63074000D01*
X138782000Y-66974000D02*
X144682000Y-66974000D01*
X144682000Y-63074000D02*
X144682000Y-64149000D01*
X214474000Y-58592000D02*
X220374000Y-58592000D01*
X214474000Y-54692000D02*
X220374000Y-54692000D01*
X220374000Y-54692000D02*
X220374000Y-55767000D01*
X92104000Y-105074000D02*
X86204000Y-105074000D01*
X92104000Y-101174000D02*
X86204000Y-101174000D01*
X86204000Y-105074000D02*
X86204000Y-103999000D01*
X182528000Y-51390000D02*
X182528000Y-52465000D01*
X176628000Y-55290000D02*
X182528000Y-55290000D01*
X176628000Y-51390000D02*
X182528000Y-51390000D01*
D12*
X105612641Y-100556583D02*
X105612641Y-99556583D01*
X92262641Y-92540582D02*
X92262641Y-92921582D01*
X91612641Y-86556583D02*
X91612641Y-87556583D01*
X92262641Y-89111582D02*
X92262641Y-89492582D01*
X91612641Y-99556583D02*
X91612641Y-100556583D01*
X91612641Y-86556583D02*
X92612641Y-86556583D01*
X105612641Y-100556583D02*
X104612641Y-100556583D01*
X92612641Y-100556583D02*
X91612641Y-100556583D01*
X94802641Y-86571582D02*
X103692641Y-86571582D01*
X103692641Y-91016582D02*
X98612641Y-91016582D01*
X92643641Y-92921582D02*
X92262641Y-92921582D01*
X103692641Y-90000582D02*
X103692641Y-91016582D01*
X103692641Y-86571582D02*
X103692641Y-86952582D01*
X105612641Y-87556583D02*
X105612641Y-86556583D01*
X104612641Y-86556583D02*
X105612641Y-86556583D01*
X96148479Y-92921582D02*
X94421641Y-92921582D01*
X94802641Y-86571582D02*
G75*
G03*
X92262641Y-89111582I1J-2540001D01*
G01*
X98612641Y-91016581D02*
G75*
G03*
X96148479Y-92940542I0J-2540000D01*
G01*
X86562641Y-87556583D02*
X86562641Y-86556583D01*
X84642641Y-91016582D02*
X79562641Y-91016582D01*
X73212641Y-92540582D02*
X73212641Y-92921582D01*
X73212641Y-89111582D02*
X73212641Y-89492582D01*
X77098479Y-92921582D02*
X75371641Y-92921582D01*
X86562641Y-100556583D02*
X85562641Y-100556583D01*
X72562641Y-86556583D02*
X72562641Y-87556583D01*
X72562641Y-99556583D02*
X72562641Y-100556583D01*
X86562641Y-100556583D02*
X86562641Y-99556583D01*
X73593641Y-92921582D02*
X73212641Y-92921582D01*
X73562641Y-100556583D02*
X72562641Y-100556583D01*
X84642641Y-86571582D02*
X84642641Y-86952582D01*
X84642641Y-90000582D02*
X84642641Y-91016582D01*
X75752641Y-86571582D02*
X84642641Y-86571582D01*
X72562641Y-86556583D02*
X73562641Y-86556583D01*
X85562641Y-86556583D02*
X86562641Y-86556583D01*
X75752641Y-86571582D02*
G75*
G03*
X73212641Y-89111582I1J-2540001D01*
G01*
X79562641Y-91016581D02*
G75*
G03*
X77098479Y-92940542I0J-2540000D01*
G01*
D14*
X249581936Y-60606000D02*
X250036064Y-60606000D01*
X249581936Y-62076000D02*
X250036064Y-62076000D01*
X249581936Y-64235000D02*
X250036064Y-64235000D01*
X249581936Y-62765000D02*
X250036064Y-62765000D01*
D15*
X226743141Y-91612180D02*
X226743141Y-90718180D01*
X226243141Y-92112180D02*
X225443141Y-92112180D01*
X224943141Y-90718218D02*
X224943141Y-91612180D01*
X226243141Y-90218180D02*
X225443141Y-90218180D01*
X226243141Y-92112180D02*
G75*
G03*
X226743141Y-91612180I0J500000D01*
G01*
X226743141Y-90718180D02*
G75*
G03*
X226243141Y-90218180I-500000J0D01*
G01*
X225443141Y-90218180D02*
G75*
G03*
X224943141Y-90718180I0J-500000D01*
G01*
X224943141Y-91612180D02*
G75*
G03*
X225443141Y-92112180I500000J0D01*
G01*
G36*
X225843141Y-89762004D02*
G01*
X225243141Y-88962004D01*
X226443141Y-88962004D01*
X225843141Y-89762004D01*
G37*
D16*
X225843141Y-89762004D02*
X225243141Y-88962004D01*
X226443141Y-88962004D01*
X225843141Y-89762004D01*
D15*
X129947141Y-58968219D02*
X129947141Y-59862181D01*
X131747141Y-59862181D02*
X131747141Y-58968181D01*
X131247141Y-58468181D02*
X130447141Y-58468181D01*
X131247141Y-60362181D02*
X130447141Y-60362181D01*
X130447141Y-58468181D02*
G75*
G03*
X129947141Y-58968181I0J-500000D01*
G01*
X131747141Y-58968181D02*
G75*
G03*
X131247141Y-58468181I-500000J0D01*
G01*
X129947141Y-59862181D02*
G75*
G03*
X130447141Y-60362181I500000J0D01*
G01*
X131247141Y-60362181D02*
G75*
G03*
X131747141Y-59862181I0J500000D01*
G01*
G36*
X130847141Y-58012005D02*
G01*
X130247141Y-57212005D01*
X131447141Y-57212005D01*
X130847141Y-58012005D01*
G37*
D16*
X130847141Y-58012005D02*
X130247141Y-57212005D01*
X131447141Y-57212005D01*
X130847141Y-58012005D01*
D15*
X107871141Y-117012180D02*
X107871141Y-116118180D01*
X106071141Y-116118218D02*
X106071141Y-117012180D01*
X107371141Y-115618180D02*
X106571141Y-115618180D01*
X107371141Y-117512180D02*
X106571141Y-117512180D01*
X106571141Y-115618180D02*
G75*
G03*
X106071141Y-116118180I0J-500000D01*
G01*
X106071141Y-117012180D02*
G75*
G03*
X106571141Y-117512180I500000J0D01*
G01*
X107371141Y-117512180D02*
G75*
G03*
X107871141Y-117012180I0J500000D01*
G01*
X107871141Y-116118180D02*
G75*
G03*
X107371141Y-115618180I-500000J0D01*
G01*
G36*
X106971141Y-115162004D02*
G01*
X106371141Y-114362004D01*
X107571141Y-114362004D01*
X106971141Y-115162004D01*
G37*
D16*
X106971141Y-115162004D02*
X106371141Y-114362004D01*
X107571141Y-114362004D01*
X106971141Y-115162004D01*
D15*
X188143141Y-47292182D02*
X187343141Y-47292182D01*
X188643141Y-48686182D02*
X188643141Y-47792182D01*
X188143141Y-49186182D02*
X187343141Y-49186182D01*
X186843141Y-47792220D02*
X186843141Y-48686182D01*
X187343141Y-47292182D02*
G75*
G03*
X186843141Y-47792182I0J-500000D01*
G01*
X188143141Y-49186182D02*
G75*
G03*
X188643141Y-48686182I0J500000D01*
G01*
X188643141Y-47792182D02*
G75*
G03*
X188143141Y-47292182I-500000J0D01*
G01*
X186843141Y-48686182D02*
G75*
G03*
X187343141Y-49186182I500000J0D01*
G01*
G36*
X187743141Y-46836006D02*
G01*
X187143141Y-46036006D01*
X188343141Y-46036006D01*
X187743141Y-46836006D01*
G37*
D16*
X187743141Y-46836006D02*
X187143141Y-46036006D01*
X188343141Y-46036006D01*
X187743141Y-46836006D01*
D14*
X249589140Y-54626582D02*
X249589140Y-55226582D01*
X250289140Y-55926582D02*
X251689140Y-55926582D01*
X252389140Y-55226582D02*
X252389140Y-54626582D01*
X251689140Y-53926582D02*
X250289140Y-53926582D01*
X251689140Y-55926582D02*
G75*
G03*
X252389140Y-55226582I0J700000D01*
G01*
X250289140Y-53926582D02*
G75*
G03*
X249589140Y-54626582I-1J-699999D01*
G01*
X249589140Y-55226582D02*
G75*
G03*
X250289140Y-55926582I699999J-1D01*
G01*
X252389140Y-54626582D02*
G75*
G03*
X251689140Y-53926582I-700000J0D01*
G01*
D15*
X129947141Y-97068219D02*
X129947141Y-97962181D01*
X131247141Y-96568181D02*
X130447141Y-96568181D01*
X131247141Y-98462181D02*
X130447141Y-98462181D01*
X131747141Y-97962181D02*
X131747141Y-97068181D01*
X131247141Y-98462181D02*
G75*
G03*
X131747141Y-97962181I0J500000D01*
G01*
X131747141Y-97068181D02*
G75*
G03*
X131247141Y-96568181I-500000J0D01*
G01*
X129947141Y-97962181D02*
G75*
G03*
X130447141Y-98462181I500000J0D01*
G01*
X130447141Y-96568181D02*
G75*
G03*
X129947141Y-97068181I0J-500000D01*
G01*
G36*
X130847141Y-96112005D02*
G01*
X130247141Y-95312005D01*
X131447141Y-95312005D01*
X130847141Y-96112005D01*
G37*
D16*
X130847141Y-96112005D02*
X130247141Y-95312005D01*
X131447141Y-95312005D01*
X130847141Y-96112005D01*
D15*
X107371141Y-78293800D02*
X106571141Y-78293800D01*
X107871141Y-79687800D02*
X107871141Y-78793800D01*
X107371141Y-80187800D02*
X106571141Y-80187800D01*
X106071141Y-78793838D02*
X106071141Y-79687800D01*
X107371141Y-80187800D02*
G75*
G03*
X107871141Y-79687800I0J500000D01*
G01*
X106571141Y-78293800D02*
G75*
G03*
X106071141Y-78793800I0J-500000D01*
G01*
X106071141Y-79687800D02*
G75*
G03*
X106571141Y-80187800I500000J0D01*
G01*
X107871141Y-78793800D02*
G75*
G03*
X107371141Y-78293800I-500000J0D01*
G01*
G36*
X106971141Y-77837624D02*
G01*
X106371141Y-77037624D01*
X107571141Y-77037624D01*
X106971141Y-77837624D01*
G37*
D16*
X106971141Y-77837624D02*
X106371141Y-77037624D01*
X107571141Y-77037624D01*
X106971141Y-77837624D01*
D15*
X231133600Y-111185000D02*
X230333600Y-111185000D01*
X231633600Y-110685000D02*
X231633600Y-109791000D01*
X231133600Y-109291000D02*
X230333600Y-109291000D01*
X229833600Y-109791038D02*
X229833600Y-110685000D01*
X231633600Y-109791000D02*
G75*
G03*
X231133600Y-109291000I-500000J0D01*
G01*
X229833600Y-110685000D02*
G75*
G03*
X230333600Y-111185000I500000J0D01*
G01*
X230333600Y-109291000D02*
G75*
G03*
X229833600Y-109791000I0J-500000D01*
G01*
X231133600Y-111185000D02*
G75*
G03*
X231633600Y-110685000I0J500000D01*
G01*
G36*
X230733600Y-108834824D02*
G01*
X230133600Y-108034824D01*
X231333600Y-108034824D01*
X230733600Y-108834824D01*
G37*
D16*
X230733600Y-108834824D02*
X230133600Y-108034824D01*
X231333600Y-108034824D01*
X230733600Y-108834824D01*
D15*
X225337995Y-134347226D02*
X224988696Y-135170122D01*
X226730031Y-134394889D02*
X225993627Y-134082304D01*
X225989987Y-136138325D02*
X225253583Y-135825740D01*
X226645605Y-135873438D02*
X226994918Y-135050507D01*
X226994917Y-135050507D02*
G75*
G03*
X226730031Y-134394889I-460251J195366D01*
G01*
X225993627Y-134082303D02*
G75*
G03*
X225338009Y-134347191I-195365J-460253D01*
G01*
X225989987Y-136138326D02*
G75*
G03*
X226645605Y-135873438I195365J460253D01*
G01*
X224988697Y-135170122D02*
G75*
G03*
X225253583Y-135825740I460251J-195366D01*
G01*
G36*
X227404959Y-133316719D02*
G01*
X226540072Y-133818684D01*
X226300354Y-132847842D01*
X227404959Y-133316719D01*
G37*
D16*
X227404959Y-133316719D02*
X226540072Y-133818684D01*
X226300354Y-132847842D01*
X227404959Y-133316719D01*
D17*
X105156000Y-80856581D02*
X102616000Y-80856581D01*
X74676000Y-65616581D02*
X107696000Y-65616581D01*
X102616000Y-80856581D02*
X102616000Y-83396581D01*
X74676000Y-83396581D02*
X74676000Y-65616581D01*
X105156000Y-80856581D02*
X105156000Y-83396581D01*
X107696000Y-83396581D02*
X74676000Y-83396581D01*
X107696000Y-65616581D02*
X107696000Y-83396581D01*
D15*
X134258000Y-80187800D02*
X133458000Y-80187800D01*
X134758000Y-79687800D02*
X134758000Y-78793800D01*
X134258000Y-78293800D02*
X133458000Y-78293800D01*
X132958000Y-78793838D02*
X132958000Y-79687800D01*
X134258000Y-80187800D02*
G75*
G03*
X134758000Y-79687800I0J500000D01*
G01*
X133458000Y-78293800D02*
G75*
G03*
X132958000Y-78793800I0J-500000D01*
G01*
X132958000Y-79687800D02*
G75*
G03*
X133458000Y-80187800I500000J0D01*
G01*
X134758000Y-78793800D02*
G75*
G03*
X134258000Y-78293800I-500000J0D01*
G01*
G36*
X133858000Y-77837624D02*
G01*
X133258000Y-77037624D01*
X134458000Y-77037624D01*
X133858000Y-77837624D01*
G37*
D16*
X133858000Y-77837624D02*
X133258000Y-77037624D01*
X134458000Y-77037624D01*
X133858000Y-77837624D01*
D15*
X134258000Y-98462181D02*
X133458000Y-98462181D01*
X134758000Y-97962181D02*
X134758000Y-97068181D01*
X132958000Y-97068219D02*
X132958000Y-97962181D01*
X134258000Y-96568181D02*
X133458000Y-96568181D01*
X132958000Y-97962181D02*
G75*
G03*
X133458000Y-98462181I500000J0D01*
G01*
X134758000Y-97068181D02*
G75*
G03*
X134258000Y-96568181I-500000J0D01*
G01*
X133458000Y-96568181D02*
G75*
G03*
X132958000Y-97068181I0J-500000D01*
G01*
X134258000Y-98462181D02*
G75*
G03*
X134758000Y-97962181I0J500000D01*
G01*
G36*
X133858000Y-96112005D02*
G01*
X133258000Y-95312005D01*
X134458000Y-95312005D01*
X133858000Y-96112005D01*
G37*
D16*
X133858000Y-96112005D02*
X133258000Y-95312005D01*
X134458000Y-95312005D01*
X133858000Y-96112005D01*
D15*
X87021140Y-97068220D02*
X87021140Y-97962182D01*
X88321140Y-96568182D02*
X87521140Y-96568182D01*
X88321140Y-98462182D02*
X87521140Y-98462182D01*
X88821140Y-97962182D02*
X88821140Y-97068182D01*
X87521140Y-96568182D02*
G75*
G03*
X87021140Y-97068182I0J-500000D01*
G01*
X88821140Y-97068182D02*
G75*
G03*
X88321140Y-96568182I-500000J0D01*
G01*
X88321140Y-98462182D02*
G75*
G03*
X88821140Y-97962182I0J500000D01*
G01*
X87021140Y-97962182D02*
G75*
G03*
X87521140Y-98462182I500000J0D01*
G01*
G36*
X87921140Y-96112006D02*
G01*
X87321140Y-95312006D01*
X88521140Y-95312006D01*
X87921140Y-96112006D01*
G37*
D16*
X87921140Y-96112006D02*
X87321140Y-95312006D01*
X88521140Y-95312006D01*
X87921140Y-96112006D01*
D15*
X168047140Y-69128220D02*
X168047140Y-70022182D01*
X169847140Y-70022182D02*
X169847140Y-69128182D01*
X169347140Y-70522182D02*
X168547140Y-70522182D01*
X169347140Y-68628182D02*
X168547140Y-68628182D01*
X168047140Y-70022182D02*
G75*
G03*
X168547140Y-70522182I500000J0D01*
G01*
X169347140Y-70522182D02*
G75*
G03*
X169847140Y-70022182I0J500000D01*
G01*
X169847140Y-69128182D02*
G75*
G03*
X169347140Y-68628182I-500000J0D01*
G01*
X168547140Y-68628182D02*
G75*
G03*
X168047140Y-69128182I0J-500000D01*
G01*
G36*
X168947140Y-68172006D02*
G01*
X168347140Y-67372006D01*
X169547140Y-67372006D01*
X168947140Y-68172006D01*
G37*
D16*
X168947140Y-68172006D02*
X168347140Y-67372006D01*
X169547140Y-67372006D01*
X168947140Y-68172006D01*
D14*
X146265020Y-66702400D02*
X146546180Y-66702400D01*
X146265020Y-65682400D02*
X146546180Y-65682400D01*
D15*
X129947141Y-78793838D02*
X129947141Y-79687800D01*
X131247141Y-80187800D02*
X130447141Y-80187800D01*
X131247141Y-78293800D02*
X130447141Y-78293800D01*
X131747141Y-79687800D02*
X131747141Y-78793800D01*
X131747141Y-78793800D02*
G75*
G03*
X131247141Y-78293800I-500000J0D01*
G01*
X131247141Y-80187800D02*
G75*
G03*
X131747141Y-79687800I0J500000D01*
G01*
X129947141Y-79687800D02*
G75*
G03*
X130447141Y-80187800I500000J0D01*
G01*
X130447141Y-78293800D02*
G75*
G03*
X129947141Y-78793800I0J-500000D01*
G01*
G36*
X130847141Y-77837624D02*
G01*
X130247141Y-77037624D01*
X131447141Y-77037624D01*
X130847141Y-77837624D01*
G37*
D16*
X130847141Y-77837624D02*
X130247141Y-77037624D01*
X131447141Y-77037624D01*
X130847141Y-77837624D01*
D14*
X55766580Y-99820000D02*
X55485420Y-99820000D01*
X55766580Y-100840000D02*
X55485420Y-100840000D01*
D15*
X205893140Y-69382220D02*
X205893140Y-70276182D01*
X207193140Y-70776182D02*
X206393140Y-70776182D01*
X207193140Y-68882182D02*
X206393140Y-68882182D01*
X207693140Y-70276182D02*
X207693140Y-69382182D01*
X207693140Y-69382182D02*
G75*
G03*
X207193140Y-68882182I-500000J0D01*
G01*
X205893140Y-70276182D02*
G75*
G03*
X206393140Y-70776182I500000J0D01*
G01*
X206393140Y-68882182D02*
G75*
G03*
X205893140Y-69382182I0J-500000D01*
G01*
X207193140Y-70776182D02*
G75*
G03*
X207693140Y-70276182I0J500000D01*
G01*
G36*
X206793140Y-68426006D02*
G01*
X206193140Y-67626006D01*
X207393140Y-67626006D01*
X206793140Y-68426006D01*
G37*
D16*
X206793140Y-68426006D02*
X206193140Y-67626006D01*
X207393140Y-67626006D01*
X206793140Y-68426006D01*
D14*
X177432580Y-107596400D02*
X177151420Y-107596400D01*
X177432580Y-106576400D02*
X177151420Y-106576400D01*
X61327420Y-65026000D02*
X61608580Y-65026000D01*
X61327420Y-64006000D02*
X61608580Y-64006000D01*
D15*
X225944000Y-72562182D02*
X225944000Y-71668182D01*
X224144000Y-71668220D02*
X224144000Y-72562182D01*
X225444000Y-71168182D02*
X224644000Y-71168182D01*
X225444000Y-73062182D02*
X224644000Y-73062182D01*
X224144000Y-72562182D02*
G75*
G03*
X224644000Y-73062182I500000J0D01*
G01*
X225444000Y-73062182D02*
G75*
G03*
X225944000Y-72562182I0J500000D01*
G01*
X224644000Y-71168182D02*
G75*
G03*
X224144000Y-71668182I0J-500000D01*
G01*
X225944000Y-71668182D02*
G75*
G03*
X225444000Y-71168182I-500000J0D01*
G01*
G36*
X225044000Y-70712006D02*
G01*
X224444000Y-69912006D01*
X225644000Y-69912006D01*
X225044000Y-70712006D01*
G37*
D16*
X225044000Y-70712006D02*
X224444000Y-69912006D01*
X225644000Y-69912006D01*
X225044000Y-70712006D01*
D15*
X205893141Y-126532218D02*
X205893141Y-127426180D01*
X207193141Y-127926180D02*
X206393141Y-127926180D01*
X207193141Y-126032180D02*
X206393141Y-126032180D01*
X207693141Y-127426180D02*
X207693141Y-126532180D01*
X205893141Y-127426180D02*
G75*
G03*
X206393141Y-127926180I500000J0D01*
G01*
X207193141Y-127926180D02*
G75*
G03*
X207693141Y-127426180I0J500000D01*
G01*
X207693141Y-126532180D02*
G75*
G03*
X207193141Y-126032180I-500000J0D01*
G01*
X206393141Y-126032180D02*
G75*
G03*
X205893141Y-126532180I0J-500000D01*
G01*
G36*
X206793141Y-125576004D02*
G01*
X206193141Y-124776004D01*
X207393141Y-124776004D01*
X206793141Y-125576004D01*
G37*
D16*
X206793141Y-125576004D02*
X206193141Y-124776004D01*
X207393141Y-124776004D01*
X206793141Y-125576004D01*
D15*
X169347141Y-49578181D02*
X168547141Y-49578181D01*
X169347141Y-51472181D02*
X168547141Y-51472181D01*
X169847141Y-50972181D02*
X169847141Y-50078181D01*
X168047141Y-50078219D02*
X168047141Y-50972181D01*
X168047141Y-50972181D02*
G75*
G03*
X168547141Y-51472181I500000J0D01*
G01*
X168547141Y-49578181D02*
G75*
G03*
X168047141Y-50078181I0J-500000D01*
G01*
X169847141Y-50078181D02*
G75*
G03*
X169347141Y-49578181I-500000J0D01*
G01*
X169347141Y-51472181D02*
G75*
G03*
X169847141Y-50972181I0J500000D01*
G01*
G36*
X168947141Y-49122005D02*
G01*
X168347141Y-48322005D01*
X169547141Y-48322005D01*
X168947141Y-49122005D01*
G37*
D16*
X168947141Y-49122005D02*
X168347141Y-48322005D01*
X169547141Y-48322005D01*
X168947141Y-49122005D01*
D15*
X88821140Y-78912182D02*
X88821140Y-78018182D01*
X88321140Y-79412182D02*
X87521140Y-79412182D01*
X88321140Y-77518182D02*
X87521140Y-77518182D01*
X87021140Y-78018220D02*
X87021140Y-78912182D01*
X87521140Y-77518182D02*
G75*
G03*
X87021140Y-78018182I0J-500000D01*
G01*
X88821140Y-78018182D02*
G75*
G03*
X88321140Y-77518182I-500000J0D01*
G01*
X87021140Y-78912182D02*
G75*
G03*
X87521140Y-79412182I500000J0D01*
G01*
X88321140Y-79412182D02*
G75*
G03*
X88821140Y-78912182I0J500000D01*
G01*
G36*
X87921140Y-77062006D02*
G01*
X87321140Y-76262006D01*
X88521140Y-76262006D01*
X87921140Y-77062006D01*
G37*
D16*
X87921140Y-77062006D02*
X87321140Y-76262006D01*
X88521140Y-76262006D01*
X87921140Y-77062006D01*
D15*
X106071140Y-97068220D02*
X106071140Y-97962182D01*
X107371140Y-98462182D02*
X106571140Y-98462182D01*
X107871140Y-97962182D02*
X107871140Y-97068182D01*
X107371140Y-96568182D02*
X106571140Y-96568182D01*
X106571140Y-96568182D02*
G75*
G03*
X106071140Y-97068182I0J-500000D01*
G01*
X107871140Y-97068182D02*
G75*
G03*
X107371140Y-96568182I-500000J0D01*
G01*
X107371140Y-98462182D02*
G75*
G03*
X107871140Y-97962182I0J500000D01*
G01*
X106071140Y-97962182D02*
G75*
G03*
X106571140Y-98462182I500000J0D01*
G01*
G36*
X106971140Y-96112006D02*
G01*
X106371140Y-95312006D01*
X107571140Y-95312006D01*
X106971140Y-96112006D01*
G37*
D16*
X106971140Y-96112006D02*
X106371140Y-95312006D01*
X107571140Y-95312006D01*
X106971140Y-96112006D01*
D14*
X93687020Y-64518000D02*
X93968180Y-64518000D01*
X93687020Y-63498000D02*
X93968180Y-63498000D01*
D15*
X169347141Y-125778180D02*
X168547141Y-125778180D01*
X169347141Y-127672180D02*
X168547141Y-127672180D01*
X168047141Y-126278218D02*
X168047141Y-127172180D01*
X169847141Y-127172180D02*
X169847141Y-126278180D01*
X169347141Y-127672180D02*
G75*
G03*
X169847141Y-127172180I0J500000D01*
G01*
X168547141Y-125778180D02*
G75*
G03*
X168047141Y-126278180I0J-500000D01*
G01*
X168047141Y-127172180D02*
G75*
G03*
X168547141Y-127672180I500000J0D01*
G01*
X169847141Y-126278180D02*
G75*
G03*
X169347141Y-125778180I-500000J0D01*
G01*
G36*
X168947141Y-125322004D02*
G01*
X168347141Y-124522004D01*
X169547141Y-124522004D01*
X168947141Y-125322004D01*
G37*
D16*
X168947141Y-125322004D02*
X168347141Y-124522004D01*
X169547141Y-124522004D01*
X168947141Y-125322004D01*
D15*
X188643141Y-69705600D02*
X188643141Y-68811600D01*
X188143141Y-68311600D02*
X187343141Y-68311600D01*
X188143141Y-70205600D02*
X187343141Y-70205600D01*
X186843141Y-68811638D02*
X186843141Y-69705600D01*
X186843141Y-69705600D02*
G75*
G03*
X187343141Y-70205600I500000J0D01*
G01*
X188643141Y-68811600D02*
G75*
G03*
X188143141Y-68311600I-500000J0D01*
G01*
X187343141Y-68311600D02*
G75*
G03*
X186843141Y-68811600I0J-500000D01*
G01*
X188143141Y-70205600D02*
G75*
G03*
X188643141Y-69705600I0J500000D01*
G01*
G36*
X187743141Y-67855424D02*
G01*
X187143141Y-67055424D01*
X188343141Y-67055424D01*
X187743141Y-67855424D01*
G37*
D16*
X187743141Y-67855424D02*
X187143141Y-67055424D01*
X188343141Y-67055424D01*
X187743141Y-67855424D01*
D15*
X224943141Y-109768220D02*
X224943141Y-110662182D01*
X226243141Y-109268182D02*
X225443141Y-109268182D01*
X226243141Y-111162182D02*
X225443141Y-111162182D01*
X226743141Y-110662182D02*
X226743141Y-109768182D01*
X224943141Y-110662182D02*
G75*
G03*
X225443141Y-111162182I500000J0D01*
G01*
X226243141Y-111162182D02*
G75*
G03*
X226743141Y-110662182I0J500000D01*
G01*
X225443141Y-109268182D02*
G75*
G03*
X224943141Y-109768182I0J-500000D01*
G01*
X226743141Y-109768182D02*
G75*
G03*
X226243141Y-109268182I-500000J0D01*
G01*
G36*
X225843141Y-108812006D02*
G01*
X225243141Y-108012006D01*
X226443141Y-108012006D01*
X225843141Y-108812006D01*
G37*
D16*
X225843141Y-108812006D02*
X225243141Y-108012006D01*
X226443141Y-108012006D01*
X225843141Y-108812006D01*
D14*
X219925020Y-58976800D02*
X220206180Y-58976800D01*
X219925020Y-59996800D02*
X220206180Y-59996800D01*
X184111020Y-55069200D02*
X184392180Y-55069200D01*
X184111020Y-54049200D02*
X184392180Y-54049200D01*
X114062000Y-78108000D02*
X116062000Y-78108000D01*
X116062000Y-75308000D02*
X114062000Y-75308000D01*
X116062000Y-78108000D02*
X116062000Y-75308000D01*
X114062000Y-75308000D02*
X114062000Y-78108000D01*
D15*
X52313000Y-58968220D02*
X52313000Y-59862182D01*
X53613000Y-58468182D02*
X52813000Y-58468182D01*
X54113000Y-59862182D02*
X54113000Y-58968182D01*
X53613000Y-60362182D02*
X52813000Y-60362182D01*
X53613000Y-60362182D02*
G75*
G03*
X54113000Y-59862182I0J500000D01*
G01*
X54113000Y-58968182D02*
G75*
G03*
X53613000Y-58468182I-500000J0D01*
G01*
X52813000Y-58468182D02*
G75*
G03*
X52313000Y-58968182I0J-500000D01*
G01*
X52313000Y-59862182D02*
G75*
G03*
X52813000Y-60362182I500000J0D01*
G01*
G36*
X53213000Y-58012006D02*
G01*
X52613000Y-57212006D01*
X53813000Y-57212006D01*
X53213000Y-58012006D01*
G37*
D16*
X53213000Y-58012006D02*
X52613000Y-57212006D01*
X53813000Y-57212006D01*
X53213000Y-58012006D01*
D15*
X67971140Y-97068220D02*
X67971140Y-97962182D01*
X69271140Y-96568182D02*
X68471140Y-96568182D01*
X69771140Y-97962182D02*
X69771140Y-97068182D01*
X69271140Y-98462182D02*
X68471140Y-98462182D01*
X68471140Y-96568182D02*
G75*
G03*
X67971140Y-97068182I0J-500000D01*
G01*
X69771140Y-97068182D02*
G75*
G03*
X69271140Y-96568182I-500000J0D01*
G01*
X67971140Y-97962182D02*
G75*
G03*
X68471140Y-98462182I500000J0D01*
G01*
X69271140Y-98462182D02*
G75*
G03*
X69771140Y-97962182I0J500000D01*
G01*
G36*
X68871140Y-96112006D02*
G01*
X68271140Y-95312006D01*
X69471140Y-95312006D01*
X68871140Y-96112006D01*
G37*
D16*
X68871140Y-96112006D02*
X68271140Y-95312006D01*
X69471140Y-95312006D01*
X68871140Y-96112006D01*
D15*
X131247141Y-117512182D02*
X130447141Y-117512182D01*
X131247141Y-115618182D02*
X130447141Y-115618182D01*
X129947141Y-116118220D02*
X129947141Y-117012182D01*
X131747141Y-117012182D02*
X131747141Y-116118182D01*
X131247141Y-117512182D02*
G75*
G03*
X131747141Y-117012182I0J500000D01*
G01*
X129947141Y-117012182D02*
G75*
G03*
X130447141Y-117512182I500000J0D01*
G01*
X130447141Y-115618182D02*
G75*
G03*
X129947141Y-116118182I0J-500000D01*
G01*
X131747141Y-116118182D02*
G75*
G03*
X131247141Y-115618182I-500000J0D01*
G01*
G36*
X130847141Y-115162006D02*
G01*
X130247141Y-114362006D01*
X131447141Y-114362006D01*
X130847141Y-115162006D01*
G37*
D16*
X130847141Y-115162006D02*
X130247141Y-114362006D01*
X131447141Y-114362006D01*
X130847141Y-115162006D01*
D14*
X214872180Y-111961200D02*
X214591020Y-111961200D01*
X214872180Y-112981200D02*
X214591020Y-112981200D01*
D15*
X87021140Y-58968219D02*
X87021140Y-59862181D01*
X88321140Y-58468181D02*
X87521140Y-58468181D01*
X88321140Y-60362181D02*
X87521140Y-60362181D01*
X88821140Y-59862181D02*
X88821140Y-58968181D01*
X88321140Y-60362181D02*
G75*
G03*
X88821140Y-59862181I0J500000D01*
G01*
X87521140Y-58468181D02*
G75*
G03*
X87021140Y-58968181I0J-500000D01*
G01*
X88821140Y-58968181D02*
G75*
G03*
X88321140Y-58468181I-500000J0D01*
G01*
X87021140Y-59862181D02*
G75*
G03*
X87521140Y-60362181I500000J0D01*
G01*
G36*
X87921140Y-58012005D02*
G01*
X87321140Y-57212005D01*
X88521140Y-57212005D01*
X87921140Y-58012005D01*
G37*
D16*
X87921140Y-58012005D02*
X87321140Y-57212005D01*
X88521140Y-57212005D01*
X87921140Y-58012005D01*
D14*
X256021141Y-81286580D02*
X256021141Y-86986580D01*
X253171141Y-85536580D02*
X253171141Y-85736580D01*
X257311141Y-84036580D02*
X257521141Y-83836580D01*
X255011141Y-87586580D02*
X254221141Y-87586580D01*
X256021141Y-82736580D02*
X257311141Y-82736580D01*
X253171141Y-82536580D02*
X253171141Y-84236580D01*
X254221141Y-80686580D02*
X255011141Y-80686580D01*
X257311141Y-84036580D02*
X256021141Y-84036580D01*
X257521141Y-82936580D02*
X257521141Y-83836580D01*
X257311141Y-82736580D02*
X257521141Y-82936580D01*
X251689141Y-51386581D02*
X250289141Y-51386581D01*
X252389141Y-52686581D02*
X252389141Y-52086581D01*
X250289141Y-53386581D02*
X251689141Y-53386581D01*
X249589141Y-52086581D02*
X249589141Y-52686581D01*
X249589141Y-52686581D02*
G75*
G03*
X250289141Y-53386581I699999J-1D01*
G01*
X252389141Y-52086581D02*
G75*
G03*
X251689141Y-51386581I-700000J0D01*
G01*
X251689141Y-53386581D02*
G75*
G03*
X252389141Y-52686581I0J700000D01*
G01*
X250289141Y-51386581D02*
G75*
G03*
X249589141Y-52086581I-1J-699999D01*
G01*
X251689140Y-48846582D02*
X250289140Y-48846582D01*
X249589140Y-49546582D02*
X249589140Y-50146582D01*
X250289140Y-50846582D02*
X251689140Y-50846582D01*
X252389140Y-50146582D02*
X252389140Y-49546582D01*
X251689140Y-50846582D02*
G75*
G03*
X252389140Y-50146582I0J700000D01*
G01*
X252389140Y-49546582D02*
G75*
G03*
X251689140Y-48846582I-700000J0D01*
G01*
X250289140Y-48846582D02*
G75*
G03*
X249589140Y-49546582I-1J-699999D01*
G01*
X249589140Y-50146582D02*
G75*
G03*
X250289140Y-50846582I699999J-1D01*
G01*
X88024580Y-100713000D02*
X87743420Y-100713000D01*
X88024580Y-99693000D02*
X87743420Y-99693000D01*
D15*
X69271141Y-77518181D02*
X68471141Y-77518181D01*
X69271141Y-79412181D02*
X68471141Y-79412181D01*
X69771141Y-78912181D02*
X69771141Y-78018181D01*
X67971141Y-78018219D02*
X67971141Y-78912181D01*
X68471141Y-77518181D02*
G75*
G03*
X67971141Y-78018181I0J-500000D01*
G01*
X69271141Y-79412181D02*
G75*
G03*
X69771141Y-78912181I0J500000D01*
G01*
X69771141Y-78018181D02*
G75*
G03*
X69271141Y-77518181I-500000J0D01*
G01*
X67971141Y-78912181D02*
G75*
G03*
X68471141Y-79412181I500000J0D01*
G01*
G36*
X68871141Y-77062005D02*
G01*
X68271141Y-76262005D01*
X69471141Y-76262005D01*
X68871141Y-77062005D01*
G37*
D16*
X68871141Y-77062005D02*
X68271141Y-76262005D01*
X69471141Y-76262005D01*
X68871141Y-77062005D01*
D15*
X205893140Y-107482220D02*
X205893140Y-108376182D01*
X207693140Y-108376182D02*
X207693140Y-107482182D01*
X207193140Y-106982182D02*
X206393140Y-106982182D01*
X207193140Y-108876182D02*
X206393140Y-108876182D01*
X205893140Y-108376182D02*
G75*
G03*
X206393140Y-108876182I500000J0D01*
G01*
X207693140Y-107482182D02*
G75*
G03*
X207193140Y-106982182I-500000J0D01*
G01*
X207193140Y-108876182D02*
G75*
G03*
X207693140Y-108376182I0J500000D01*
G01*
X206393140Y-106982182D02*
G75*
G03*
X205893140Y-107482182I0J-500000D01*
G01*
G36*
X206793140Y-106526006D02*
G01*
X206193140Y-105726006D01*
X207393140Y-105726006D01*
X206793140Y-106526006D01*
G37*
D16*
X206793140Y-106526006D02*
X206193140Y-105726006D01*
X207393140Y-105726006D01*
X206793140Y-106526006D01*
D15*
X188643141Y-86786182D02*
X188643141Y-85892182D01*
X186843141Y-85892220D02*
X186843141Y-86786182D01*
X188143141Y-85392182D02*
X187343141Y-85392182D01*
X188143141Y-87286182D02*
X187343141Y-87286182D01*
X188143141Y-87286182D02*
G75*
G03*
X188643141Y-86786182I0J500000D01*
G01*
X188643141Y-85892182D02*
G75*
G03*
X188143141Y-85392182I-500000J0D01*
G01*
X186843141Y-86786182D02*
G75*
G03*
X187343141Y-87286182I500000J0D01*
G01*
X187343141Y-85392182D02*
G75*
G03*
X186843141Y-85892182I0J-500000D01*
G01*
G36*
X187743141Y-84936006D02*
G01*
X187143141Y-84136006D01*
X188343141Y-84136006D01*
X187743141Y-84936006D01*
G37*
D16*
X187743141Y-84936006D02*
X187143141Y-84136006D01*
X188343141Y-84136006D01*
X187743141Y-84936006D01*
D15*
X205893141Y-50332218D02*
X205893141Y-51226180D01*
X207193141Y-49832180D02*
X206393141Y-49832180D01*
X207693141Y-51226180D02*
X207693141Y-50332180D01*
X207193141Y-51726180D02*
X206393141Y-51726180D01*
X206393141Y-49832180D02*
G75*
G03*
X205893141Y-50332180I0J-500000D01*
G01*
X207193141Y-51726180D02*
G75*
G03*
X207693141Y-51226180I0J500000D01*
G01*
X205893141Y-51226180D02*
G75*
G03*
X206393141Y-51726180I500000J0D01*
G01*
X207693141Y-50332180D02*
G75*
G03*
X207193141Y-49832180I-500000J0D01*
G01*
G36*
X206793141Y-49376004D02*
G01*
X206193141Y-48576004D01*
X207393141Y-48576004D01*
X206793141Y-49376004D01*
G37*
D16*
X206793141Y-49376004D02*
X206193141Y-48576004D01*
X207393141Y-48576004D01*
X206793141Y-49376004D01*
D15*
X224943140Y-52618220D02*
X224943140Y-53512182D01*
X226243140Y-54012182D02*
X225443140Y-54012182D01*
X226743140Y-53512182D02*
X226743140Y-52618182D01*
X226243140Y-52118182D02*
X225443140Y-52118182D01*
X226243140Y-54012182D02*
G75*
G03*
X226743140Y-53512182I0J500000D01*
G01*
X225443140Y-52118182D02*
G75*
G03*
X224943140Y-52618182I0J-500000D01*
G01*
X226743140Y-52618182D02*
G75*
G03*
X226243140Y-52118182I-500000J0D01*
G01*
X224943140Y-53512182D02*
G75*
G03*
X225443140Y-54012182I500000J0D01*
G01*
G36*
X225843140Y-51662006D02*
G01*
X225243140Y-50862006D01*
X226443140Y-50862006D01*
X225843140Y-51662006D01*
G37*
D16*
X225843140Y-51662006D02*
X225243140Y-50862006D01*
X226443140Y-50862006D01*
X225843140Y-51662006D01*
D15*
X107371141Y-58468182D02*
X106571141Y-58468182D01*
X106071141Y-58968220D02*
X106071141Y-59862182D01*
X107871141Y-59862182D02*
X107871141Y-58968182D01*
X107371141Y-60362182D02*
X106571141Y-60362182D01*
X107371141Y-60362182D02*
G75*
G03*
X107871141Y-59862182I0J500000D01*
G01*
X106071141Y-59862182D02*
G75*
G03*
X106571141Y-60362182I500000J0D01*
G01*
X106571141Y-58468182D02*
G75*
G03*
X106071141Y-58968182I0J-500000D01*
G01*
X107871141Y-58968182D02*
G75*
G03*
X107371141Y-58468182I-500000J0D01*
G01*
G36*
X106971141Y-58012006D02*
G01*
X106371141Y-57212006D01*
X107571141Y-57212006D01*
X106971141Y-58012006D01*
G37*
D16*
X106971141Y-58012006D02*
X106371141Y-57212006D01*
X107571141Y-57212006D01*
X106971141Y-58012006D01*
D15*
X207193141Y-87932180D02*
X206393141Y-87932180D01*
X207193141Y-89826180D02*
X206393141Y-89826180D01*
X205893141Y-88432218D02*
X205893141Y-89326180D01*
X207693141Y-89326180D02*
X207693141Y-88432180D01*
X205893141Y-89326180D02*
G75*
G03*
X206393141Y-89826180I500000J0D01*
G01*
X207693141Y-88432180D02*
G75*
G03*
X207193141Y-87932180I-500000J0D01*
G01*
X206393141Y-87932180D02*
G75*
G03*
X205893141Y-88432180I0J-500000D01*
G01*
X207193141Y-89826180D02*
G75*
G03*
X207693141Y-89326180I0J500000D01*
G01*
G36*
X206793141Y-87476004D02*
G01*
X206193141Y-86676004D01*
X207393141Y-86676004D01*
X206793141Y-87476004D01*
G37*
D16*
X206793141Y-87476004D02*
X206193141Y-86676004D01*
X207393141Y-86676004D01*
X206793141Y-87476004D01*
D15*
X88321141Y-117512180D02*
X87521141Y-117512180D01*
X88321141Y-115618180D02*
X87521141Y-115618180D01*
X87021141Y-116118218D02*
X87021141Y-117012180D01*
X88821141Y-117012180D02*
X88821141Y-116118180D01*
X88821141Y-116118180D02*
G75*
G03*
X88321141Y-115618180I-500000J0D01*
G01*
X87521141Y-115618180D02*
G75*
G03*
X87021141Y-116118180I0J-500000D01*
G01*
X87021141Y-117012180D02*
G75*
G03*
X87521141Y-117512180I500000J0D01*
G01*
X88321141Y-117512180D02*
G75*
G03*
X88821141Y-117012180I0J500000D01*
G01*
G36*
X87921141Y-115162004D02*
G01*
X87321141Y-114362004D01*
X88521141Y-114362004D01*
X87921141Y-115162004D01*
G37*
D16*
X87921141Y-115162004D02*
X87321141Y-114362004D01*
X88521141Y-114362004D01*
X87921141Y-115162004D01*
D15*
X169347140Y-106728182D02*
X168547140Y-106728182D01*
X169847140Y-108122182D02*
X169847140Y-107228182D01*
X168047140Y-107228220D02*
X168047140Y-108122182D01*
X169347140Y-108622182D02*
X168547140Y-108622182D01*
X168047140Y-108122182D02*
G75*
G03*
X168547140Y-108622182I500000J0D01*
G01*
X168547140Y-106728182D02*
G75*
G03*
X168047140Y-107228182I0J-500000D01*
G01*
X169847140Y-107228182D02*
G75*
G03*
X169347140Y-106728182I-500000J0D01*
G01*
X169347140Y-108622182D02*
G75*
G03*
X169847140Y-108122182I0J500000D01*
G01*
G36*
X168947140Y-106272006D02*
G01*
X168347140Y-105472006D01*
X169547140Y-105472006D01*
X168947140Y-106272006D01*
G37*
D16*
X168947140Y-106272006D02*
X168347140Y-105472006D01*
X169547140Y-105472006D01*
X168947140Y-106272006D01*
D14*
X140653380Y-99464400D02*
X140372220Y-99464400D01*
X140653380Y-100484400D02*
X140372220Y-100484400D01*
D15*
X67971141Y-116118218D02*
X67971141Y-117012180D01*
X69271141Y-115618180D02*
X68471141Y-115618180D01*
X69271141Y-117512180D02*
X68471141Y-117512180D01*
X69771141Y-117012180D02*
X69771141Y-116118180D01*
X69271141Y-117512180D02*
G75*
G03*
X69771141Y-117012180I0J500000D01*
G01*
X69771141Y-116118180D02*
G75*
G03*
X69271141Y-115618180I-500000J0D01*
G01*
X68471141Y-115618180D02*
G75*
G03*
X67971141Y-116118180I0J-500000D01*
G01*
X67971141Y-117012180D02*
G75*
G03*
X68471141Y-117512180I500000J0D01*
G01*
G36*
X68871141Y-115162004D02*
G01*
X68271141Y-114362004D01*
X69471141Y-114362004D01*
X68871141Y-115162004D01*
G37*
D16*
X68871141Y-115162004D02*
X68271141Y-114362004D01*
X69471141Y-114362004D01*
X68871141Y-115162004D01*
D14*
X251818290Y-69590000D02*
X253738290Y-69590000D01*
X253738290Y-78750000D02*
X251818290Y-78750000D01*
X255748290Y-78750000D02*
X257453290Y-78750000D01*
X257453290Y-78750000D02*
X257453290Y-69590000D01*
X257453290Y-69590000D02*
X255748290Y-69590000D01*
D15*
X231326594Y-137674110D02*
X231726594Y-136981290D01*
X231543549Y-136298258D02*
X230769355Y-135851277D01*
X229869355Y-137410123D02*
X230643582Y-137857123D01*
X229686342Y-136727110D02*
X230086342Y-136034290D01*
X230769355Y-135851277D02*
G75*
G03*
X230086342Y-136034290I-250000J-433013D01*
G01*
X231726595Y-136981290D02*
G75*
G03*
X231543582Y-136298277I-433013J250000D01*
G01*
X230643583Y-137857122D02*
G75*
G03*
X231326594Y-137674110I249999J433012D01*
G01*
X229686342Y-136727110D02*
G75*
G03*
X229869355Y-137410123I433013J-250000D01*
G01*
G36*
X232314475Y-138475403D02*
G01*
X231921654Y-137555788D01*
X232914475Y-137436173D01*
X232314475Y-138475403D01*
G37*
D16*
X232314475Y-138475403D02*
X231921654Y-137555788D01*
X232914475Y-137436173D01*
X232314475Y-138475403D01*
D14*
X252389141Y-57766582D02*
X252389141Y-57166582D01*
X250289141Y-58466582D02*
X251689141Y-58466582D01*
X251689141Y-56466582D02*
X250289141Y-56466582D01*
X249589141Y-57166582D02*
X249589141Y-57766582D01*
X250289141Y-56466582D02*
G75*
G03*
X249589141Y-57166582I-1J-699999D01*
G01*
X249589141Y-57766582D02*
G75*
G03*
X250289141Y-58466582I699999J-1D01*
G01*
X251689141Y-58466582D02*
G75*
G03*
X252389141Y-57766582I0J700000D01*
G01*
X252389141Y-57166582D02*
G75*
G03*
X251689141Y-56466582I-700000J0D01*
G01*
D15*
X134258000Y-117512182D02*
X133458000Y-117512182D01*
X134758000Y-117012182D02*
X134758000Y-116118182D01*
X132958000Y-116118220D02*
X132958000Y-117012182D01*
X134258000Y-115618182D02*
X133458000Y-115618182D01*
X134258000Y-117512182D02*
G75*
G03*
X134758000Y-117012182I0J500000D01*
G01*
X132958000Y-117012182D02*
G75*
G03*
X133458000Y-117512182I500000J0D01*
G01*
X133458000Y-115618182D02*
G75*
G03*
X132958000Y-116118182I0J-500000D01*
G01*
X134758000Y-116118182D02*
G75*
G03*
X134258000Y-115618182I-500000J0D01*
G01*
G36*
X133858000Y-115162006D02*
G01*
X133258000Y-114362006D01*
X134458000Y-114362006D01*
X133858000Y-115162006D01*
G37*
D16*
X133858000Y-115162006D02*
X133258000Y-114362006D01*
X134458000Y-114362006D01*
X133858000Y-115162006D01*
D15*
X188143141Y-125386182D02*
X187343141Y-125386182D01*
X186843141Y-123992220D02*
X186843141Y-124886182D01*
X188143141Y-123492182D02*
X187343141Y-123492182D01*
X188643141Y-124886182D02*
X188643141Y-123992182D01*
X187343141Y-123492182D02*
G75*
G03*
X186843141Y-123992182I0J-500000D01*
G01*
X186843141Y-124886182D02*
G75*
G03*
X187343141Y-125386182I500000J0D01*
G01*
X188143141Y-125386182D02*
G75*
G03*
X188643141Y-124886182I0J500000D01*
G01*
X188643141Y-123992182D02*
G75*
G03*
X188143141Y-123492182I-500000J0D01*
G01*
G36*
X187743141Y-123036006D02*
G01*
X187143141Y-122236006D01*
X188343141Y-122236006D01*
X187743141Y-123036006D01*
G37*
D16*
X187743141Y-123036006D02*
X187143141Y-122236006D01*
X188343141Y-122236006D01*
X187743141Y-123036006D01*
D15*
X188143141Y-104442181D02*
X187343141Y-104442181D01*
X188143141Y-106336181D02*
X187343141Y-106336181D01*
X188643141Y-105836181D02*
X188643141Y-104942181D01*
X186843141Y-104942219D02*
X186843141Y-105836181D01*
X186843141Y-105836181D02*
G75*
G03*
X187343141Y-106336181I500000J0D01*
G01*
X188143141Y-106336181D02*
G75*
G03*
X188643141Y-105836181I0J500000D01*
G01*
X187343141Y-104442181D02*
G75*
G03*
X186843141Y-104942181I0J-500000D01*
G01*
X188643141Y-104942181D02*
G75*
G03*
X188143141Y-104442181I-500000J0D01*
G01*
G36*
X187743141Y-103986005D02*
G01*
X187143141Y-103186005D01*
X188343141Y-103186005D01*
X187743141Y-103986005D01*
G37*
D16*
X187743141Y-103986005D02*
X187143141Y-103186005D01*
X188343141Y-103186005D01*
X187743141Y-103986005D01*
D15*
X134258000Y-60362180D02*
X133458000Y-60362180D01*
X132958000Y-58968218D02*
X132958000Y-59862180D01*
X134258000Y-58468180D02*
X133458000Y-58468180D01*
X134758000Y-59862180D02*
X134758000Y-58968180D01*
X132958000Y-59862180D02*
G75*
G03*
X133458000Y-60362180I500000J0D01*
G01*
X134258000Y-60362180D02*
G75*
G03*
X134758000Y-59862180I0J500000D01*
G01*
X133458000Y-58468180D02*
G75*
G03*
X132958000Y-58968180I0J-500000D01*
G01*
X134758000Y-58968180D02*
G75*
G03*
X134258000Y-58468180I-500000J0D01*
G01*
G36*
X133858000Y-58012004D02*
G01*
X133258000Y-57212004D01*
X134458000Y-57212004D01*
X133858000Y-58012004D01*
G37*
D16*
X133858000Y-58012004D02*
X133258000Y-57212004D01*
X134458000Y-57212004D01*
X133858000Y-58012004D01*
D15*
X169347141Y-87678180D02*
X168547141Y-87678180D01*
X169347141Y-89572180D02*
X168547141Y-89572180D01*
X169847141Y-89072180D02*
X169847141Y-88178180D01*
X168047141Y-88178218D02*
X168047141Y-89072180D01*
X168547141Y-87678180D02*
G75*
G03*
X168047141Y-88178180I0J-500000D01*
G01*
X169347141Y-89572180D02*
G75*
G03*
X169847141Y-89072180I0J500000D01*
G01*
X169847141Y-88178180D02*
G75*
G03*
X169347141Y-87678180I-500000J0D01*
G01*
X168047141Y-89072180D02*
G75*
G03*
X168547141Y-89572180I500000J0D01*
G01*
G36*
X168947141Y-87222004D02*
G01*
X168347141Y-86422004D01*
X169547141Y-86422004D01*
X168947141Y-87222004D01*
G37*
D16*
X168947141Y-87222004D02*
X168347141Y-86422004D01*
X169547141Y-86422004D01*
X168947141Y-87222004D01*
%LPC*%
D18*
X208838800Y-58521600D03*
X132125141Y-65166580D03*
X208625140Y-96466581D03*
X132125141Y-103466580D03*
X234125140Y-119766581D03*
D19*
X212345141Y-48956580D03*
D20*
X217425141Y-48956580D03*
D21*
X222505141Y-48956580D03*
D22*
X209865141Y-46416580D03*
X223715141Y-43876580D03*
D21*
X203505140Y-46456582D03*
D19*
X193345140Y-46456582D03*
D20*
X198425140Y-46456582D03*
D22*
X190865140Y-43916582D03*
X204715140Y-41376582D03*
D21*
X184505140Y-43966580D03*
D19*
X174345140Y-43966580D03*
D20*
X179425140Y-43966580D03*
D22*
X171865140Y-41426580D03*
X185715140Y-38886580D03*
D21*
X165505141Y-46456581D03*
D20*
X160425141Y-46456581D03*
D19*
X155345141Y-46456581D03*
D22*
X152865141Y-43916581D03*
X166715141Y-41376581D03*
D20*
X141425140Y-55456582D03*
D19*
X136345140Y-55456582D03*
D21*
X146505140Y-55456582D03*
D22*
X133865140Y-52916582D03*
X147715140Y-50376582D03*
D19*
X117345140Y-55456581D03*
D21*
X127505140Y-55456581D03*
D20*
X122425140Y-55456581D03*
D22*
X114865140Y-52916581D03*
X128715140Y-50376581D03*
D20*
X217425141Y-68056582D03*
D19*
X212345141Y-68056582D03*
D21*
X222505141Y-68056582D03*
D22*
X209865141Y-65516582D03*
X223715141Y-62976582D03*
D19*
X193345141Y-65556580D03*
D21*
X203505141Y-65556580D03*
D20*
X198425141Y-65556580D03*
D22*
X190865141Y-63016580D03*
X204715141Y-60476580D03*
D20*
X179425140Y-63056582D03*
D21*
X184505140Y-63056582D03*
D19*
X174345140Y-63056582D03*
D22*
X171865140Y-60516582D03*
X185715140Y-57976582D03*
D20*
X160425140Y-65456582D03*
D19*
X155345140Y-65456582D03*
D21*
X165505140Y-65456582D03*
D22*
X152865140Y-62916582D03*
X166715140Y-60376582D03*
D21*
X146505140Y-74356582D03*
D20*
X141425140Y-74356582D03*
D19*
X136345140Y-74356582D03*
D22*
X133865140Y-71816582D03*
X147715140Y-69276582D03*
D21*
X127505140Y-74356582D03*
D20*
X122425140Y-74356582D03*
D19*
X117345140Y-74356582D03*
D22*
X114865140Y-71816582D03*
X128715140Y-69276582D03*
D20*
X217425141Y-87056580D03*
D21*
X222505141Y-87056580D03*
D19*
X212345141Y-87056580D03*
D22*
X209865141Y-84516580D03*
X223715141Y-81976580D03*
D19*
X193345140Y-84556582D03*
D20*
X198425140Y-84556582D03*
D21*
X203505140Y-84556582D03*
D22*
X190865140Y-82016582D03*
X204715140Y-79476582D03*
D19*
X174345140Y-82156582D03*
D20*
X179425140Y-82156582D03*
D21*
X184505140Y-82156582D03*
D22*
X171865140Y-79616582D03*
X185715140Y-77076582D03*
D21*
X165505141Y-84556581D03*
D19*
X155345141Y-84556581D03*
D20*
X160425141Y-84556581D03*
D22*
X152865141Y-82016581D03*
X166715141Y-79476581D03*
D20*
X141425140Y-93556582D03*
D19*
X136345140Y-93556582D03*
D21*
X146505140Y-93556582D03*
D22*
X133865140Y-91016582D03*
X147715140Y-88476582D03*
D19*
X117345140Y-93556580D03*
D20*
X122425140Y-93556580D03*
D21*
X127505140Y-93556580D03*
D22*
X114865140Y-91016580D03*
X128715140Y-88476580D03*
D19*
X212345141Y-106056581D03*
D20*
X217425141Y-106056581D03*
D21*
X222505141Y-106056581D03*
D22*
X209865141Y-103516581D03*
X223715141Y-100976581D03*
D19*
X193345141Y-103656580D03*
D20*
X198425141Y-103656580D03*
D21*
X203505141Y-103656580D03*
D22*
X190865141Y-101116580D03*
X204715141Y-98576580D03*
D19*
X174345140Y-101156582D03*
D20*
X179425140Y-101156582D03*
D21*
X184505140Y-101156582D03*
D22*
X171865140Y-98616582D03*
X185715140Y-96076582D03*
D21*
X165505140Y-103656581D03*
D20*
X160425140Y-103656581D03*
D19*
X155345140Y-103656581D03*
D22*
X152865140Y-101116581D03*
X166715140Y-98576581D03*
D20*
X141425140Y-112556582D03*
D21*
X146505140Y-112556582D03*
D19*
X136345140Y-112556582D03*
D22*
X133865140Y-110016582D03*
X147715140Y-107476582D03*
D20*
X122375141Y-112556582D03*
D19*
X117295141Y-112556582D03*
D21*
X127455141Y-112556582D03*
D22*
X114815141Y-110016582D03*
X128665141Y-107476582D03*
D20*
X241225141Y-132366580D03*
D21*
X238685141Y-136765989D03*
D19*
X243765141Y-127967171D03*
D23*
X247204846Y-127089428D03*
X242479550Y-140353880D03*
D20*
X220325140Y-127356582D03*
D19*
X215648975Y-125371668D03*
D21*
X225001305Y-129341496D03*
D24*
X214358580Y-122064572D03*
X228100030Y-125138116D03*
D20*
X198425140Y-122756581D03*
D19*
X193345140Y-122756581D03*
D21*
X203505140Y-122756581D03*
D22*
X190865140Y-120216581D03*
X204715140Y-117676581D03*
D21*
X184505140Y-120156582D03*
D19*
X174345140Y-120156582D03*
D20*
X179425140Y-120156582D03*
D22*
X171865140Y-117616582D03*
X185715140Y-115076582D03*
D25*
X232795140Y-92848580D03*
D20*
X160425141Y-122656581D03*
D21*
X165505141Y-122656581D03*
D19*
X155345141Y-122656581D03*
D22*
X152865141Y-120116581D03*
X166715141Y-117576581D03*
D25*
X251243141Y-92848582D03*
D26*
X82102640Y-69426582D03*
D19*
X74482640Y-74506582D03*
D26*
X77022640Y-69426582D03*
D19*
X84642640Y-74506582D03*
D20*
X79562640Y-74506582D03*
D26*
X75752640Y-71966582D03*
X83372640Y-71966582D03*
D22*
X72002640Y-71966582D03*
D27*
X85852640Y-69426582D03*
D21*
X103692641Y-55456582D03*
D19*
X93532641Y-55456582D03*
D20*
X98612641Y-55456582D03*
D22*
X91052641Y-52916582D03*
X104902641Y-50376582D03*
D28*
X108712000Y-62611000D03*
D29*
X109093000Y-71212500D03*
D30*
X229907140Y-38416581D03*
X229907140Y-40956581D03*
X229907140Y-43496581D03*
X229907140Y-46036581D03*
X229907140Y-48576581D03*
X229907140Y-51116581D03*
X229907140Y-53656581D03*
X229907140Y-56196581D03*
X229907140Y-58736581D03*
X229907140Y-61276581D03*
X229907140Y-63816581D03*
X229907140Y-66356581D03*
X229907140Y-68896581D03*
X229907140Y-71436581D03*
X229907140Y-73976581D03*
X229907140Y-76516581D03*
X229907140Y-79056581D03*
X229907140Y-81596581D03*
X229907140Y-84136581D03*
X229907140Y-86676581D03*
X245147140Y-38416581D03*
X245147140Y-40956581D03*
X245147140Y-43496581D03*
X245147140Y-46036581D03*
X245147140Y-48576581D03*
X245147140Y-51116581D03*
X245147140Y-53656581D03*
X245147140Y-56196581D03*
X245147140Y-58736581D03*
X245147140Y-61276581D03*
X245147140Y-63816581D03*
X245147140Y-66356581D03*
X245147140Y-68896581D03*
X245147140Y-71436581D03*
X245147140Y-73976581D03*
X245147140Y-76516581D03*
X245147140Y-79056581D03*
X245147140Y-81596581D03*
X245147140Y-84136581D03*
X245147140Y-86676581D03*
D28*
X108712000Y-79814000D03*
D31*
X55146000Y-102249000D03*
X58646000Y-103999000D03*
X55146000Y-103999000D03*
X58646000Y-102249000D03*
D19*
X55432641Y-74506581D03*
D20*
X60512641Y-74506581D03*
D21*
X65592641Y-74506581D03*
D22*
X52952641Y-71966581D03*
X66802641Y-69426581D03*
D28*
X112522000Y-99730480D03*
D31*
X140236000Y-101995000D03*
X143736000Y-103745000D03*
X140236000Y-103745000D03*
X143736000Y-101995000D03*
D28*
X112522000Y-97790000D03*
X108712000Y-99730480D03*
D29*
X112141000Y-71212500D03*
D28*
X108712000Y-84914000D03*
X112522000Y-79814000D03*
D32*
X109093000Y-92202000D03*
D26*
X101152641Y-69426581D03*
X96072641Y-69426581D03*
D19*
X93532641Y-74506581D03*
D26*
X94802641Y-71966581D03*
X102422641Y-71966581D03*
D20*
X98612641Y-74506581D03*
D19*
X103692641Y-74506581D03*
D22*
X91052641Y-71966581D03*
X104902641Y-69426581D03*
D25*
X253714000Y-66856580D03*
D31*
X177828000Y-109107000D03*
X181328000Y-110857000D03*
X177828000Y-110857000D03*
X181328000Y-109107000D03*
D28*
X108712000Y-86614000D03*
X108712000Y-103505000D03*
D21*
X242607140Y-58724800D03*
X242607140Y-56184800D03*
X242607140Y-53644800D03*
X242607140Y-51104800D03*
X242607140Y-48564800D03*
X242607140Y-46024800D03*
X242607140Y-43484800D03*
X242607140Y-40944800D03*
D19*
X93532641Y-112606581D03*
D20*
X98612641Y-112606581D03*
D21*
X103692641Y-112606581D03*
D22*
X91052641Y-110066581D03*
X104902641Y-107526581D03*
D28*
X108712000Y-81514000D03*
D33*
X251063290Y-71280000D03*
X251063290Y-77060000D03*
D34*
X250563290Y-69850000D03*
D35*
X254743290Y-78490000D03*
X254743290Y-69850000D03*
D34*
X250563290Y-78490000D03*
D28*
X108712000Y-59182000D03*
D20*
X79562641Y-55456580D03*
D21*
X84642641Y-55456580D03*
D19*
X74482641Y-55456580D03*
D22*
X72002641Y-52916580D03*
X85852641Y-50376580D03*
D28*
X108712000Y-83214000D03*
D36*
X109093000Y-54229000D03*
D28*
X112522000Y-60858293D03*
X112522000Y-116563182D03*
X108712000Y-60858293D03*
D21*
X65592641Y-112606581D03*
D20*
X60512641Y-112606581D03*
D19*
X55432641Y-112606581D03*
D22*
X52952641Y-110066581D03*
X66802641Y-107526581D03*
D18*
X69850000Y-103466580D03*
D31*
X58646000Y-64121000D03*
X55146000Y-62371000D03*
X58646000Y-62371000D03*
X55146000Y-64121000D03*
D28*
X112522000Y-62611000D03*
D31*
X90904000Y-63867000D03*
X87404000Y-62117000D03*
X90904000Y-62117000D03*
X87404000Y-63867000D03*
D37*
X254621141Y-85636580D03*
X254621141Y-82636580D03*
D28*
X108712000Y-97790000D03*
D21*
X65592641Y-55456582D03*
D19*
X55432641Y-55456582D03*
D20*
X60512641Y-55456582D03*
D22*
X52952641Y-52916582D03*
X66802641Y-50376582D03*
D28*
X108712000Y-101600000D03*
X112522000Y-83214000D03*
D31*
X215420000Y-114441000D03*
X218920000Y-116191000D03*
X215420000Y-116191000D03*
X218920000Y-114441000D03*
D21*
X65592641Y-93556582D03*
D19*
X55432641Y-93556582D03*
D20*
X60512641Y-93556582D03*
D22*
X52952641Y-91016582D03*
X66802641Y-88476582D03*
D28*
X112522000Y-103505000D03*
D19*
X74482640Y-112606582D03*
D20*
X79562640Y-112606582D03*
D21*
X84642640Y-112606582D03*
D22*
X72002640Y-110066582D03*
X85852640Y-107526582D03*
D28*
X112522000Y-81514000D03*
X112522000Y-101600000D03*
D36*
X112141000Y-54229000D03*
D18*
X69850000Y-63296800D03*
D38*
X254774000Y-49846580D03*
X254774000Y-52386580D03*
X254774000Y-54926580D03*
X254774000Y-57466580D03*
D28*
X112522000Y-86614000D03*
D31*
X143482000Y-65899000D03*
X139982000Y-64149000D03*
X143482000Y-64149000D03*
X139982000Y-65899000D03*
D28*
X112522000Y-59182000D03*
D31*
X219174000Y-57517000D03*
X215674000Y-55767000D03*
X219174000Y-55767000D03*
X215674000Y-57517000D03*
D28*
X112522000Y-84914000D03*
D31*
X87404000Y-102249000D03*
X90904000Y-103999000D03*
X87404000Y-103999000D03*
X90904000Y-102249000D03*
X181328000Y-54215000D03*
X177828000Y-52465000D03*
X181328000Y-52465000D03*
X177828000Y-54215000D03*
D32*
X112141000Y-92202000D03*
D21*
X103692641Y-93556582D03*
D20*
X98612641Y-93556582D03*
D19*
X93532641Y-93556582D03*
D22*
X91052641Y-91016582D03*
X104902641Y-88476582D03*
D19*
X74482641Y-93556582D03*
D20*
X79562641Y-93556582D03*
D21*
X84642641Y-93556582D03*
D22*
X72002641Y-91016582D03*
X85852641Y-88476582D03*
D28*
X108712000Y-116563182D03*
D39*
X249428000Y-83125582D03*
D40*
X249428000Y-80585582D03*
D41*
X250809000Y-61341000D03*
X248809000Y-61341000D03*
D42*
X112141000Y-110034091D03*
D25*
X253714000Y-40456580D03*
D41*
X250809000Y-63500000D03*
X248809000Y-63500000D03*
D42*
X109093000Y-110034091D03*
D43*
X249091140Y-106778582D03*
D44*
X249091140Y-101778582D03*
X249091140Y-104278582D03*
D45*
X241591140Y-98678582D03*
X241591140Y-109878582D03*
D44*
X234591140Y-101778582D03*
X234591140Y-106778582D03*
D46*
X225843141Y-91163180D03*
D47*
X225843141Y-87473180D03*
D46*
X130847141Y-59413181D03*
D47*
X130847141Y-55723181D03*
D46*
X106971141Y-116563180D03*
D47*
X106971141Y-112873180D03*
D46*
X187743141Y-48237182D03*
D47*
X187743141Y-44547182D03*
D48*
X250339140Y-54926582D03*
D49*
X251639140Y-54926582D03*
D46*
X130847141Y-97513181D03*
D47*
X130847141Y-93823181D03*
D46*
X106971141Y-79238800D03*
D47*
X106971141Y-75548800D03*
D46*
X230733600Y-110236000D03*
D47*
X230733600Y-106546000D03*
D50*
X225992588Y-135108474D03*
D51*
X227434386Y-131711811D03*
D30*
X83566000Y-66886581D03*
X78486000Y-66886581D03*
X81026000Y-66886581D03*
X78486000Y-82126581D03*
X75946000Y-82126581D03*
X75946000Y-66886581D03*
X86106000Y-82126581D03*
X91186000Y-82126581D03*
X93726000Y-82126581D03*
X101346000Y-82126581D03*
X103886000Y-82126581D03*
X88646000Y-82126581D03*
X83566000Y-82126581D03*
X81026000Y-82126581D03*
X93726000Y-66886581D03*
X91186000Y-66886581D03*
X88646000Y-66886581D03*
X86106000Y-66886581D03*
X101346000Y-66886581D03*
X98806000Y-82126581D03*
X96266000Y-82126581D03*
D52*
X103886000Y-66886581D03*
D30*
X98806000Y-66886581D03*
X96266000Y-66886581D03*
D46*
X133858000Y-79238800D03*
D47*
X133858000Y-75548800D03*
D46*
X133858000Y-97513181D03*
D47*
X133858000Y-93823181D03*
D46*
X87921140Y-97513182D03*
D47*
X87921140Y-93823182D03*
D46*
X168947140Y-69573182D03*
D47*
X168947140Y-65883182D03*
D53*
X145630600Y-66192400D03*
X147180600Y-66192400D03*
D46*
X130847141Y-79238800D03*
D47*
X130847141Y-75548800D03*
D54*
X56401000Y-100330000D03*
X54851000Y-100330000D03*
D46*
X206793140Y-69827182D03*
D47*
X206793140Y-66137182D03*
D54*
X178067000Y-107086400D03*
X176517000Y-107086400D03*
D53*
X60693000Y-64516000D03*
X62243000Y-64516000D03*
D46*
X225044000Y-72113182D03*
D47*
X225044000Y-68423182D03*
D46*
X206793141Y-126977180D03*
D47*
X206793141Y-123287180D03*
D46*
X168947141Y-50523181D03*
D47*
X168947141Y-46833181D03*
D46*
X87921140Y-78463182D03*
D47*
X87921140Y-74773182D03*
D46*
X106971140Y-97513182D03*
D47*
X106971140Y-93823182D03*
D53*
X93052600Y-64008000D03*
X94602600Y-64008000D03*
D46*
X168947141Y-126723180D03*
D47*
X168947141Y-123033180D03*
D46*
X187743141Y-69256600D03*
D47*
X187743141Y-65566600D03*
D46*
X225843141Y-110213182D03*
D47*
X225843141Y-106523182D03*
D53*
X219290600Y-59486800D03*
X220840600Y-59486800D03*
X183476600Y-54559200D03*
X185026600Y-54559200D03*
D55*
X115062000Y-76058000D03*
X115062000Y-77358000D03*
D46*
X53213000Y-59413182D03*
D47*
X53213000Y-55723182D03*
D46*
X68871140Y-97513182D03*
D47*
X68871140Y-93823182D03*
D46*
X130847141Y-116563182D03*
D47*
X130847141Y-112873182D03*
D54*
X215506600Y-112471200D03*
X213956600Y-112471200D03*
D46*
X87921140Y-59413181D03*
D47*
X87921140Y-55723181D03*
D37*
X254621141Y-85636580D03*
D56*
X253511141Y-80275580D03*
X255721141Y-87997580D03*
X253511141Y-87997580D03*
D37*
X254621141Y-82636580D03*
D56*
X255721141Y-80275580D03*
D57*
X252427141Y-81886580D03*
X252427141Y-84886580D03*
X252427141Y-86386580D03*
D48*
X250339141Y-52386581D03*
D49*
X251639141Y-52386581D03*
D48*
X250339140Y-49846582D03*
D49*
X251639140Y-49846582D03*
D54*
X88659000Y-100203000D03*
X87109000Y-100203000D03*
D46*
X68871141Y-78463181D03*
D47*
X68871141Y-74773181D03*
D46*
X206793140Y-107927182D03*
D47*
X206793140Y-104237182D03*
D46*
X187743141Y-86337182D03*
D47*
X187743141Y-82647182D03*
D46*
X206793141Y-50777180D03*
D47*
X206793141Y-47087180D03*
D46*
X225843140Y-53063182D03*
D47*
X225843140Y-49373182D03*
D46*
X106971141Y-59413182D03*
D47*
X106971141Y-55723182D03*
D46*
X206793141Y-88877180D03*
D47*
X206793141Y-85187180D03*
D46*
X87921141Y-116563180D03*
D47*
X87921141Y-112873180D03*
D46*
X168947140Y-107673182D03*
D47*
X168947140Y-103983182D03*
D54*
X141287800Y-99974400D03*
X139737800Y-99974400D03*
D46*
X68871141Y-116563180D03*
D47*
X68871141Y-112873180D03*
D33*
X251063290Y-71280000D03*
X251063290Y-77060000D03*
D58*
X249350290Y-70970000D03*
X249350290Y-71770000D03*
D59*
X249358690Y-72920000D03*
X249358690Y-73920000D03*
X249358690Y-74420000D03*
X249358690Y-75420000D03*
D58*
X249350290Y-76570000D03*
X249350290Y-77370000D03*
X249350290Y-77370000D03*
X249350290Y-76570000D03*
D59*
X249358690Y-75920000D03*
X249358690Y-74920000D03*
X249358690Y-73420000D03*
D60*
X249358690Y-72420000D03*
D58*
X249350290Y-71770000D03*
X249350290Y-70970000D03*
D34*
X250563290Y-69850000D03*
D35*
X254743290Y-69850000D03*
X254743290Y-78490000D03*
D34*
X250563290Y-78490000D03*
D61*
X230708200Y-136855200D03*
D62*
X233903834Y-138700200D03*
D48*
X250339141Y-57466582D03*
D49*
X251639141Y-57466582D03*
D46*
X133858000Y-116563182D03*
D47*
X133858000Y-112873182D03*
D46*
X187743141Y-124437182D03*
D47*
X187743141Y-120747182D03*
D46*
X187743141Y-105387181D03*
D47*
X187743141Y-101697181D03*
D46*
X133858000Y-59413180D03*
D47*
X133858000Y-55723180D03*
D46*
X168947141Y-88623180D03*
D47*
X168947141Y-84933180D03*
M02*
