M48
; DRILL file {KiCad (6.0.6)} date Mon Aug  1 11:52:36 2022
; FORMAT={-:-/ absolute / inch / decimal}
; #@! TF.CreationDate,2022-08-01T11:52:36+07:00
; #@! TF.GenerationSoftware,Kicad,Pcbnew,(6.0.6)
; #@! TF.FileFunction,Plated,1,2,PTH
FMAT,2
INCH
; #@! TA.AperFunction,Plated,PTH,ViaDrill
T1C0.0118
; #@! TA.AperFunction,Plated,PTH,ViaDrill
T2C0.0138
; #@! TA.AperFunction,Plated,PTH,ComponentDrill
T3C0.0138
; #@! TA.AperFunction,Plated,PTH,ComponentDrill
T4C0.0197
; #@! TA.AperFunction,Plated,PTH,ComponentDrill
T5C0.0236
; #@! TA.AperFunction,Plated,PTH,ComponentDrill
T6C0.0315
; #@! TA.AperFunction,Plated,PTH,ComponentDrill
T7C0.0354
; #@! TA.AperFunction,Plated,PTH,ComponentDrill
T8C0.0394
; #@! TA.AperFunction,Plated,PTH,ComponentDrill
T9C0.0591
; #@! TA.AperFunction,Plated,PTH,ComponentDrill
T10C0.0866
; #@! TA.AperFunction,Plated,PTH,ComponentDrill
T11C0.1181
; #@! TA.AperFunction,Plated,PTH,ComponentDrill
T12C0.1614
%
G90
G05
T1
X2.087Y-4.143
X2.1212Y-4.06
X2.36Y-2.49
X2.376Y-2.38
X2.388Y-4.098
X3.39Y-4.06
X3.64Y-2.48
X5.47Y-4.05
X5.51Y-2.478
X5.7Y-2.56
X5.73Y-4.05
X6.95Y-4.33
X7.002Y-2.016
X7.1936Y-2.1069
X8.4312Y-4.54
X8.49Y-2.35
X8.68Y-2.23
X9.7506Y-3.0146
X9.7542Y-2.8257
X9.8213Y-2.1128
T2
X2.12Y-2.49
X2.2182Y-4.06
X2.26Y-2.49
X2.3582Y-4.0578
X2.59Y-2.515
X2.6515Y-2.7825
X2.86Y-2.78
X3.375Y-2.38
X3.3909Y-2.4791
X3.4Y-2.78
X3.49Y-4.06
X3.53Y-4.06
X3.5318Y-2.48
X3.6Y-2.78
X3.637Y-3.294
X3.665Y-4.06
X3.885Y-2.38
X4.005Y-3.015
X4.16Y-2.78
X4.49Y-3.975
X4.492Y-2.408
X4.53Y-2.9944
X4.53Y-3.04
X5.56Y-2.56
X5.5682Y-4.05
X5.6Y-2.56
X5.61Y-4.05
X5.8656Y-4.0744
X7.05Y-2.1
X7.05Y-4.33
X7.09Y-2.1
X7.09Y-4.33
X8.4366Y-2.2315
X8.53Y-4.54
X8.57Y-4.54
X8.58Y-2.23
X8.73Y-2.14
X9.4634Y-2.215
X9.7752Y-2.265
X9.7996Y-2.0799
X9.8855Y-2.9151
X9.9118Y-2.9389
X9.9552Y-3.2239
X9.9552Y-3.3125
X9.9552Y-3.401
T3
X2.095Y-2.1938
X2.095Y-2.3391
X2.7115Y-3.6938
X2.7115Y-3.8391
X2.7115Y-2.9438
X2.7115Y-3.0891
X2.7115Y-4.4438
X2.7115Y-4.5891
X3.4615Y-2.1938
X3.4615Y-2.3391
X3.4615Y-2.9438
X3.4615Y-3.0891
X3.4615Y-3.6938
X3.4615Y-3.8391
X3.4615Y-4.4438
X3.4615Y-4.5891
X4.2115Y-3.6938
X4.2115Y-3.8391
X4.2115Y-2.1938
X4.2115Y-2.3391
X4.2115Y-2.9744
X4.2115Y-3.1196
X4.2115Y-4.4438
X4.2115Y-4.5891
X5.1515Y-2.1938
X5.1515Y-2.3391
X5.1515Y-2.9744
X5.1515Y-3.1196
X5.1515Y-3.6938
X5.1515Y-3.8391
X5.1515Y-4.4438
X5.1515Y-4.5891
X5.27Y-2.1938
X5.27Y-2.3391
X5.27Y-2.9744
X5.27Y-3.1196
X5.27Y-3.6938
X5.27Y-3.8391
X5.27Y-4.4438
X5.27Y-4.5891
X6.6515Y-2.5938
X6.6515Y-2.7391
X6.6515Y-4.0938
X6.6515Y-4.2391
X6.6515Y-1.8438
X6.6515Y-1.9891
X6.6515Y-3.3438
X6.6515Y-3.4891
X6.6515Y-4.8438
X6.6515Y-4.9891
X7.3915Y-1.7538
X7.3915Y-1.8991
X7.3915Y-2.5814
X7.3915Y-2.7266
X7.3915Y-3.2538
X7.3915Y-3.3991
X7.3915Y-4.0038
X7.3915Y-4.1491
X7.3915Y-4.7538
X7.3915Y-4.8991
X8.1415Y-2.6038
X8.1415Y-2.7491
X8.1415Y-4.1038
X8.1415Y-4.2491
X8.1415Y-1.8538
X8.1415Y-1.9991
X8.1415Y-3.3538
X8.1415Y-3.4991
X8.1415Y-4.8538
X8.1415Y-4.9991
X8.86Y-2.6938
X8.86Y-2.8391
X8.8915Y-1.9438
X8.8915Y-2.0891
X8.8915Y-3.4438
X8.8915Y-3.5891
X8.8915Y-4.1938
X8.8915Y-4.3391
X8.8973Y-5.3192
X8.9541Y-5.1855
X9.083Y-5.388
X9.084Y-4.1947
X9.084Y-4.34
X9.2088Y-5.4606
X9.7956Y-2.415
X9.7956Y-2.5
X9.8744Y-2.415
X9.8744Y-2.5
T4
X4.28Y-2.33
X4.28Y-2.396
X4.28Y-2.465
X4.28Y-3.1423
X4.28Y-3.2092
X4.28Y-3.2761
X4.28Y-3.3431
X4.28Y-3.41
X4.28Y-3.85
X4.28Y-3.9264
X4.28Y-4.0
X4.28Y-4.075
X4.28Y-4.5891
X4.43Y-2.33
X4.43Y-2.396
X4.43Y-2.465
X4.43Y-3.1423
X4.43Y-3.2092
X4.43Y-3.2761
X4.43Y-3.3431
X4.43Y-3.41
X4.43Y-3.85
X4.43Y-3.9264
X4.43Y-4.0
X4.43Y-4.075
X4.43Y-4.5891
T6
X10.0305Y-1.9625
X10.0305Y-2.0625
X10.0305Y-2.1625
X10.0305Y-2.2625
T7
X2.99Y-2.6333
X2.99Y-3.2333
X3.09Y-2.6333
X3.09Y-3.2333
X3.19Y-2.6333
X3.19Y-3.2333
X3.29Y-2.6333
X3.29Y-3.2333
X3.39Y-2.6333
X3.39Y-3.2333
X3.49Y-2.6333
X3.49Y-3.2333
X3.59Y-2.6333
X3.59Y-3.2333
X3.69Y-2.6333
X3.69Y-3.2333
X3.79Y-2.6333
X3.79Y-3.2333
X3.89Y-2.6333
X3.89Y-3.2333
X3.99Y-2.6333
X3.99Y-3.2333
X4.09Y-2.6333
X4.09Y-3.2333
X9.5515Y-1.612
X9.5515Y-1.712
X9.5515Y-1.812
X9.5515Y-1.912
X9.5515Y-2.012
X9.5515Y-2.112
X9.5515Y-2.212
X9.5515Y-2.312
X9.82Y-3.1727
X9.82Y-3.2727
T8
X9.0515Y-1.5125
X9.0515Y-1.6125
X9.0515Y-1.7125
X9.0515Y-1.8125
X9.0515Y-1.9125
X9.0515Y-2.0125
X9.0515Y-2.1125
X9.0515Y-2.2125
X9.0515Y-2.3125
X9.0515Y-2.4125
X9.0515Y-2.5125
X9.0515Y-2.6125
X9.0515Y-2.7125
X9.0515Y-2.8125
X9.0515Y-2.9125
X9.0515Y-3.0125
X9.0515Y-3.1125
X9.0515Y-3.2125
X9.0515Y-3.3125
X9.0515Y-3.4125
X9.2359Y-4.007
X9.2359Y-4.2039
X9.6515Y-1.5125
X9.6515Y-1.6125
X9.6515Y-1.7125
X9.6515Y-1.8125
X9.6515Y-1.9125
X9.6515Y-2.0125
X9.6515Y-2.1125
X9.6515Y-2.2125
X9.6515Y-2.3125
X9.6515Y-2.4125
X9.6515Y-2.5125
X9.6515Y-2.6125
X9.6515Y-2.7125
X9.6515Y-2.8125
X9.6515Y-2.9125
X9.6515Y-3.0125
X9.6515Y-3.1125
X9.6515Y-3.2125
X9.6515Y-3.3125
X9.6515Y-3.4125
X9.8067Y-4.007
X9.8067Y-4.1055
X9.8067Y-4.2039
T10
X9.1652Y-3.6555
X9.8915Y-3.6555
X9.9887Y-1.5928
X9.9887Y-2.6321
T11
X2.2324Y-2.0833
X2.2324Y-2.8333
X2.2324Y-3.5833
X2.2324Y-4.3333
X2.2824Y-1.9833
X2.2824Y-2.7333
X2.2824Y-3.4833
X2.2824Y-4.2333
X2.4824Y-1.9833
X2.4824Y-2.7333
X2.4824Y-3.4833
X2.4824Y-4.2333
X2.5324Y-2.0833
X2.5324Y-2.8333
X2.5324Y-3.5833
X2.5324Y-4.3333
X2.9824Y-4.3333
X2.9824Y-2.0833
X2.9824Y-3.5833
X3.0324Y-4.2333
X3.0324Y-1.9833
X3.0324Y-3.4833
X3.2324Y-4.2333
X3.2324Y-1.9833
X3.2324Y-3.4833
X3.2824Y-4.3333
X3.2824Y-2.0833
X3.2824Y-3.5833
X3.7324Y-2.0833
X3.7324Y-3.5833
X3.7324Y-4.3333
X3.7824Y-1.9833
X3.7824Y-3.4833
X3.7824Y-4.2333
X3.9824Y-1.9833
X3.9824Y-3.4833
X3.9824Y-4.2333
X4.0324Y-2.0833
X4.0324Y-3.5833
X4.0324Y-4.3333
X4.6679Y-4.3314
X4.6699Y-2.0833
X4.6699Y-2.8274
X4.6699Y-3.5833
X4.7179Y-4.2314
X4.7199Y-1.9833
X4.7199Y-2.7274
X4.7199Y-3.4833
X4.9179Y-4.2314
X4.9199Y-1.9833
X4.9199Y-2.7274
X4.9199Y-3.4833
X4.9679Y-4.3314
X4.9699Y-2.0833
X4.9699Y-2.8274
X4.9699Y-3.5833
X5.4179Y-2.0833
X5.4179Y-2.8274
X5.4179Y-3.5833
X5.4179Y-4.3314
X5.4679Y-1.9833
X5.4679Y-2.7274
X5.4679Y-3.4833
X5.4679Y-4.2314
X5.6679Y-1.9833
X5.6679Y-2.7274
X5.6679Y-3.4833
X5.6679Y-4.2314
X5.7179Y-2.0833
X5.7179Y-2.8274
X5.7179Y-3.5833
X5.7179Y-4.3314
X6.166Y-2.477
X6.166Y-3.981
X6.166Y-1.729
X6.166Y-3.229
X6.166Y-4.729
X6.216Y-2.377
X6.216Y-3.881
X6.216Y-1.629
X6.216Y-3.129
X6.216Y-4.629
X6.416Y-2.377
X6.416Y-3.881
X6.416Y-1.629
X6.416Y-3.129
X6.416Y-4.629
X6.466Y-2.477
X6.466Y-3.981
X6.466Y-1.729
X6.466Y-3.229
X6.466Y-4.729
X6.914Y-1.631
X6.914Y-2.3825
X6.914Y-3.1345
X6.914Y-3.8825
X6.914Y-4.6306
X6.964Y-1.531
X6.964Y-2.2825
X6.964Y-3.0345
X6.964Y-3.7825
X6.964Y-4.5306
X7.164Y-1.531
X7.164Y-2.2825
X7.164Y-3.0345
X7.164Y-3.7825
X7.164Y-4.5306
X7.214Y-1.631
X7.214Y-2.3825
X7.214Y-3.1345
X7.214Y-3.8825
X7.214Y-4.6306
X7.662Y-1.729
X7.662Y-3.229
X7.662Y-4.7329
X7.662Y-2.481
X7.662Y-3.981
X7.712Y-1.629
X7.712Y-3.129
X7.712Y-4.6329
X7.712Y-2.381
X7.712Y-3.881
X7.912Y-1.629
X7.912Y-3.129
X7.912Y-4.6329
X7.912Y-2.381
X7.912Y-3.881
X7.962Y-1.729
X7.962Y-3.229
X7.962Y-4.7329
X7.962Y-2.481
X7.962Y-3.981
X8.41Y-1.8274
X8.41Y-2.5794
X8.41Y-3.3274
X8.41Y-4.0755
X8.46Y-1.7274
X8.46Y-2.4794
X8.46Y-3.2274
X8.46Y-3.9755
X8.5752Y-4.8634
X8.66Y-1.7274
X8.66Y-2.4794
X8.66Y-3.2274
X8.66Y-3.9755
X8.6603Y-4.7909
X8.71Y-1.8274
X8.71Y-2.5794
X8.71Y-3.3274
X8.71Y-4.0755
X8.8444Y-4.869
X8.8514Y-4.9806
X9.5087Y-5.3912
X9.6203Y-5.3979
X9.6587Y-5.1314
X9.7203Y-5.2247
T12
X2.75Y-2.492
X2.75Y-4.0735
X5.2018Y-2.5656
X5.2018Y-4.0735
X8.2136Y-3.7979
X8.222Y-2.304
X9.2175Y-4.7152
T5
G00X9.8864Y-2.75
M15
G01X9.843Y-2.75
M16
G05
G00X9.843Y-2.75
M15
G01X9.8864Y-2.75
M16
G05
G00X9.843Y-3.0902
M15
G01X9.8864Y-3.0902
M16
G05
G00X9.8864Y-3.0902
M15
G01X9.843Y-3.0902
M16
G05
G00X10.0175Y-2.75
M15
G01X10.0411Y-2.75
M16
G05
G00X10.0411Y-2.75
M15
G01X10.0175Y-2.75
M16
G05
G00X10.0411Y-3.0902
M15
G01X10.0175Y-3.0902
M16
G05
G00X10.0175Y-3.0902
M15
G01X10.0411Y-3.0902
M16
G05
T9
G00X9.5371Y-3.885
M15
G01X9.4859Y-3.885
M16
G05
G00X9.5371Y-4.3259
M15
G01X9.4859Y-4.3259
M16
G05
T0
M30
