G04 #@! TF.GenerationSoftware,KiCad,Pcbnew,(6.0.6)*
G04 #@! TF.CreationDate,2022-08-01T11:52:36+07:00*
G04 #@! TF.ProjectId,SofleKeyboard,536f666c-654b-4657-9962-6f6172642e6b,rev?*
G04 #@! TF.SameCoordinates,Original*
G04 #@! TF.FileFunction,Legend,Top*
G04 #@! TF.FilePolarity,Positive*
%FSLAX46Y46*%
G04 Gerber Fmt 4.6, Leading zero omitted, Abs format (unit mm)*
G04 Created by KiCad (PCBNEW (6.0.6)) date 2022-08-01 11:52:36*
%MOMM*%
%LPD*%
G01*
G04 APERTURE LIST*
G04 Aperture macros list*
%AMRoundRect*
0 Rectangle with rounded corners*
0 $1 Rounding radius*
0 $2 $3 $4 $5 $6 $7 $8 $9 X,Y pos of 4 corners*
0 Add a 4 corners polygon primitive as box body*
4,1,4,$2,$3,$4,$5,$6,$7,$8,$9,$2,$3,0*
0 Add four circle primitives for the rounded corners*
1,1,$1+$1,$2,$3*
1,1,$1+$1,$4,$5*
1,1,$1+$1,$6,$7*
1,1,$1+$1,$8,$9*
0 Add four rect primitives between the rounded corners*
20,1,$1+$1,$2,$3,$4,$5,0*
20,1,$1+$1,$4,$5,$6,$7,0*
20,1,$1+$1,$6,$7,$8,$9,0*
20,1,$1+$1,$8,$9,$2,$3,0*%
%AMRotRect*
0 Rectangle, with rotation*
0 The origin of the aperture is its center*
0 $1 length*
0 $2 width*
0 $3 Rotation angle, in degrees counterclockwise*
0 Add horizontal line*
21,1,$1,$2,0,0,$3*%
%AMFreePoly0*
4,1,22,0.500000,-0.750000,0.000000,-0.750000,0.000000,-0.745033,-0.079941,-0.743568,-0.215256,-0.701293,-0.333266,-0.622738,-0.424486,-0.514219,-0.481581,-0.384460,-0.499164,-0.250000,-0.500000,-0.250000,-0.500000,0.250000,-0.499164,0.250000,-0.499963,0.256109,-0.478152,0.396186,-0.417904,0.524511,-0.324060,0.630769,-0.204165,0.706417,-0.067858,0.745374,0.000000,0.744959,0.000000,0.750000,
0.500000,0.750000,0.500000,-0.750000,0.500000,-0.750000,$1*%
%AMFreePoly1*
4,1,20,0.000000,0.744959,0.073905,0.744508,0.209726,0.703889,0.328688,0.626782,0.421226,0.519385,0.479903,0.390333,0.500000,0.250000,0.500000,-0.250000,0.499851,-0.262216,0.476331,-0.402017,0.414519,-0.529596,0.319384,-0.634700,0.198574,-0.708877,0.061801,-0.746166,0.000000,-0.745033,0.000000,-0.750000,-0.500000,-0.750000,-0.500000,0.750000,0.000000,0.750000,0.000000,0.744959,
0.000000,0.744959,$1*%
G04 Aperture macros list end*
%ADD10C,0.300000*%
%ADD11C,0.175000*%
%ADD12C,0.150000*%
%ADD13C,0.250000*%
%ADD14C,0.120000*%
%ADD15C,0.200000*%
%ADD16C,0.100000*%
%ADD17C,0.381000*%
%ADD18C,4.700000*%
%ADD19C,1.701800*%
%ADD20C,3.987800*%
%ADD21C,1.700000*%
%ADD22R,2.550000X2.500000*%
%ADD23RotRect,2.550000X2.500000X240.000000*%
%ADD24RotRect,2.550000X2.500000X337.000000*%
%ADD25C,4.000000*%
%ADD26C,3.000000*%
%ADD27RoundRect,0.300000X0.300000X0.300000X-0.300000X0.300000X-0.300000X-0.300000X0.300000X-0.300000X0*%
%ADD28O,0.762000X14.750000*%
%ADD29C,1.752600*%
%ADD30R,1.000000X1.500000*%
%ADD31R,1.600000X0.850000*%
%ADD32RoundRect,0.225000X-0.225000X-0.250000X0.225000X-0.250000X0.225000X0.250000X-0.225000X0.250000X0*%
%ADD33O,0.762000X8.800000*%
%ADD34RoundRect,0.225000X0.225000X0.250000X-0.225000X0.250000X-0.225000X-0.250000X0.225000X-0.250000X0*%
%ADD35C,0.650000*%
%ADD36R,2.362600X0.600000*%
%ADD37R,2.366000X0.300000*%
%ADD38R,2.366000X0.305000*%
%ADD39O,2.100000X1.000000*%
%ADD40O,1.600000X1.000000*%
%ADD41RoundRect,0.225000X0.250000X-0.225000X0.250000X0.225000X-0.250000X0.225000X-0.250000X-0.225000X0*%
%ADD42O,0.762000X7.000000*%
%ADD43R,0.800000X1.422000*%
%ADD44C,0.900000*%
%ADD45R,2.368000X0.700000*%
%ADD46FreePoly0,270.000000*%
%ADD47FreePoly1,270.000000*%
%ADD48C,1.400000*%
%ADD49RoundRect,0.225000X-0.250000X0.225000X-0.250000X-0.225000X0.250000X-0.225000X0.250000X0.225000X0*%
%ADD50R,1.700000X1.700000*%
%ADD51O,1.700000X1.700000*%
%ADD52RoundRect,0.250000X0.350000X0.450000X-0.350000X0.450000X-0.350000X-0.450000X0.350000X-0.450000X0*%
%ADD53O,0.762000X10.800000*%
%ADD54R,2.000000X2.000000*%
%ADD55C,2.000000*%
%ADD56R,3.200000X2.000000*%
%ADD57RoundRect,0.300000X0.300000X-0.395000X0.300000X0.395000X-0.300000X0.395000X-0.300000X-0.395000X0*%
%ADD58RoundRect,0.300000X-0.300000X0.395000X-0.300000X-0.395000X0.300000X-0.395000X0.300000X0.395000X0*%
%ADD59RoundRect,0.300000X0.121813X-0.480819X0.430490X0.246380X-0.121813X0.480819X-0.430490X-0.246380X0*%
%ADD60RoundRect,0.300000X-0.121813X0.480819X-0.430490X-0.246380X0.121813X-0.480819X0.430490X0.246380X0*%
%ADD61RoundRect,0.400000X0.400000X0.400000X-0.400000X0.400000X-0.400000X-0.400000X0.400000X-0.400000X0*%
%ADD62RoundRect,0.300000X-0.492080X-0.062308X0.192080X-0.457308X0.492080X0.062308X-0.192080X0.457308X0*%
%ADD63RoundRect,0.300000X0.492080X0.062308X-0.192080X0.457308X-0.492080X-0.062308X0.192080X-0.457308X0*%
G04 APERTURE END LIST*
D10*
X247794283Y-80009153D02*
X247794283Y-81152010D01*
X248258569Y-82973722D02*
X247115712Y-82973722D01*
X247687141Y-83545151D02*
X247687141Y-82402294D01*
D11*
X247175140Y-79506581D02*
X247208473Y-79539914D01*
X247241806Y-79639914D01*
X247241806Y-79706581D01*
X247208473Y-79806581D01*
X247141806Y-79873247D01*
X247075140Y-79906581D01*
X246941806Y-79939914D01*
X246841806Y-79939914D01*
X246708473Y-79906581D01*
X246641806Y-79873247D01*
X246575140Y-79806581D01*
X246541806Y-79706581D01*
X246541806Y-79639914D01*
X246575140Y-79539914D01*
X246608473Y-79506581D01*
X247241806Y-78839914D02*
X247241806Y-79239914D01*
X247241806Y-79039914D02*
X246541806Y-79039914D01*
X246641806Y-79106581D01*
X246708473Y-79173247D01*
X246741806Y-79239914D01*
X246541806Y-78206581D02*
X246541806Y-78539914D01*
X246875140Y-78573247D01*
X246841806Y-78539914D01*
X246808473Y-78473247D01*
X246808473Y-78306581D01*
X246841806Y-78239914D01*
X246875140Y-78206581D01*
X246941806Y-78173247D01*
X247108473Y-78173247D01*
X247175140Y-78206581D01*
X247208473Y-78239914D01*
X247241806Y-78306581D01*
X247241806Y-78473247D01*
X247208473Y-78539914D01*
X247175140Y-78573247D01*
X228245806Y-62109914D02*
X228245806Y-61776581D01*
X228445806Y-62176581D02*
X227745806Y-61943247D01*
X228445806Y-61709914D01*
X228445806Y-61109914D02*
X228445806Y-61509914D01*
X228445806Y-61309914D02*
X227745806Y-61309914D01*
X227845806Y-61376581D01*
X227912473Y-61443247D01*
X227945806Y-61509914D01*
X227745806Y-60476581D02*
X227745806Y-60809914D01*
X228079140Y-60843247D01*
X228045806Y-60809914D01*
X228012473Y-60743247D01*
X228012473Y-60576581D01*
X228045806Y-60509914D01*
X228079140Y-60476581D01*
X228145806Y-60443247D01*
X228312473Y-60443247D01*
X228379140Y-60476581D01*
X228412473Y-60509914D01*
X228445806Y-60576581D01*
X228445806Y-60743247D01*
X228412473Y-60809914D01*
X228379140Y-60843247D01*
X247041806Y-61776581D02*
X247041806Y-61443247D01*
X247241806Y-61843247D02*
X246541806Y-61609914D01*
X247241806Y-61376581D01*
X246541806Y-60809914D02*
X246541806Y-61143247D01*
X246875140Y-61176581D01*
X246841806Y-61143247D01*
X246808473Y-61076581D01*
X246808473Y-60909914D01*
X246841806Y-60843247D01*
X246875140Y-60809914D01*
X246941806Y-60776581D01*
X247108473Y-60776581D01*
X247175140Y-60809914D01*
X247208473Y-60843247D01*
X247241806Y-60909914D01*
X247241806Y-61076581D01*
X247208473Y-61143247D01*
X247175140Y-61176581D01*
X228079140Y-74259914D02*
X228112473Y-74159914D01*
X228145806Y-74126581D01*
X228212473Y-74093247D01*
X228312473Y-74093247D01*
X228379140Y-74126581D01*
X228412473Y-74159914D01*
X228445806Y-74226581D01*
X228445806Y-74493247D01*
X227745806Y-74493247D01*
X227745806Y-74259914D01*
X227779140Y-74193247D01*
X227812473Y-74159914D01*
X227879140Y-74126581D01*
X227945806Y-74126581D01*
X228012473Y-74159914D01*
X228045806Y-74193247D01*
X228079140Y-74259914D01*
X228079140Y-74493247D01*
X227745806Y-73859914D02*
X227745806Y-73393247D01*
X228445806Y-73693247D01*
X228079140Y-46653247D02*
X228112473Y-46553247D01*
X228145806Y-46519914D01*
X228212473Y-46486581D01*
X228312473Y-46486581D01*
X228379140Y-46519914D01*
X228412473Y-46553247D01*
X228445806Y-46619914D01*
X228445806Y-46886581D01*
X227745806Y-46886581D01*
X227745806Y-46653247D01*
X227779140Y-46586581D01*
X227812473Y-46553247D01*
X227879140Y-46519914D01*
X227945806Y-46519914D01*
X228012473Y-46553247D01*
X228045806Y-46586581D01*
X228079140Y-46653247D01*
X228079140Y-46886581D01*
X228445806Y-45819914D02*
X228445806Y-46219914D01*
X228445806Y-46019914D02*
X227745806Y-46019914D01*
X227845806Y-46086581D01*
X227912473Y-46153247D01*
X227945806Y-46219914D01*
X227745806Y-45186581D02*
X227745806Y-45519914D01*
X228079140Y-45553247D01*
X228045806Y-45519914D01*
X228012473Y-45453247D01*
X228012473Y-45286581D01*
X228045806Y-45219914D01*
X228079140Y-45186581D01*
X228145806Y-45153247D01*
X228312473Y-45153247D01*
X228379140Y-45186581D01*
X228412473Y-45219914D01*
X228445806Y-45286581D01*
X228445806Y-45453247D01*
X228412473Y-45519914D01*
X228379140Y-45553247D01*
X228079140Y-44113247D02*
X228112473Y-44013247D01*
X228145806Y-43979914D01*
X228212473Y-43946581D01*
X228312473Y-43946581D01*
X228379140Y-43979914D01*
X228412473Y-44013247D01*
X228445806Y-44079914D01*
X228445806Y-44346581D01*
X227745806Y-44346581D01*
X227745806Y-44113247D01*
X227779140Y-44046581D01*
X227812473Y-44013247D01*
X227879140Y-43979914D01*
X227945806Y-43979914D01*
X228012473Y-44013247D01*
X228045806Y-44046581D01*
X228079140Y-44113247D01*
X228079140Y-44346581D01*
X228445806Y-43279914D02*
X228445806Y-43679914D01*
X228445806Y-43479914D02*
X227745806Y-43479914D01*
X227845806Y-43546581D01*
X227912473Y-43613247D01*
X227945806Y-43679914D01*
X227979140Y-42679914D02*
X228445806Y-42679914D01*
X227712473Y-42846581D02*
X228212473Y-43013247D01*
X228212473Y-42579914D01*
X228245806Y-49076581D02*
X228245806Y-48743247D01*
X228445806Y-49143247D02*
X227745806Y-48909914D01*
X228445806Y-48676581D01*
X228045806Y-48343247D02*
X228012473Y-48409914D01*
X227979140Y-48443247D01*
X227912473Y-48476581D01*
X227879140Y-48476581D01*
X227812473Y-48443247D01*
X227779140Y-48409914D01*
X227745806Y-48343247D01*
X227745806Y-48209914D01*
X227779140Y-48143247D01*
X227812473Y-48109914D01*
X227879140Y-48076581D01*
X227912473Y-48076581D01*
X227979140Y-48109914D01*
X228012473Y-48143247D01*
X228045806Y-48209914D01*
X228045806Y-48343247D01*
X228079140Y-48409914D01*
X228112473Y-48443247D01*
X228179140Y-48476581D01*
X228312473Y-48476581D01*
X228379140Y-48443247D01*
X228412473Y-48409914D01*
X228445806Y-48343247D01*
X228445806Y-48209914D01*
X228412473Y-48143247D01*
X228379140Y-48109914D01*
X228312473Y-48076581D01*
X228179140Y-48076581D01*
X228112473Y-48109914D01*
X228079140Y-48143247D01*
X228045806Y-48209914D01*
X228079140Y-69179914D02*
X228112473Y-69079914D01*
X228145806Y-69046581D01*
X228212473Y-69013247D01*
X228312473Y-69013247D01*
X228379140Y-69046581D01*
X228412473Y-69079914D01*
X228445806Y-69146581D01*
X228445806Y-69413247D01*
X227745806Y-69413247D01*
X227745806Y-69179914D01*
X227779140Y-69113247D01*
X227812473Y-69079914D01*
X227879140Y-69046581D01*
X227945806Y-69046581D01*
X228012473Y-69079914D01*
X228045806Y-69113247D01*
X228079140Y-69179914D01*
X228079140Y-69413247D01*
X227745806Y-68379914D02*
X227745806Y-68713247D01*
X228079140Y-68746581D01*
X228045806Y-68713247D01*
X228012473Y-68646581D01*
X228012473Y-68479914D01*
X228045806Y-68413247D01*
X228079140Y-68379914D01*
X228145806Y-68346581D01*
X228312473Y-68346581D01*
X228379140Y-68379914D01*
X228412473Y-68413247D01*
X228445806Y-68479914D01*
X228445806Y-68646581D01*
X228412473Y-68713247D01*
X228379140Y-68746581D01*
X246875140Y-48859914D02*
X246908473Y-48759914D01*
X246941806Y-48726581D01*
X247008473Y-48693247D01*
X247108473Y-48693247D01*
X247175140Y-48726581D01*
X247208473Y-48759914D01*
X247241806Y-48826581D01*
X247241806Y-49093247D01*
X246541806Y-49093247D01*
X246541806Y-48859914D01*
X246575140Y-48793247D01*
X246608473Y-48759914D01*
X246675140Y-48726581D01*
X246741806Y-48726581D01*
X246808473Y-48759914D01*
X246841806Y-48793247D01*
X246875140Y-48859914D01*
X246875140Y-49093247D01*
X246608473Y-48426581D02*
X246575140Y-48393247D01*
X246541806Y-48326581D01*
X246541806Y-48159914D01*
X246575140Y-48093247D01*
X246608473Y-48059914D01*
X246675140Y-48026581D01*
X246741806Y-48026581D01*
X246841806Y-48059914D01*
X247241806Y-48459914D01*
X247241806Y-48026581D01*
X247041806Y-74476581D02*
X247041806Y-74143247D01*
X247241806Y-74543247D02*
X246541806Y-74309914D01*
X247241806Y-74076581D01*
X246541806Y-73709914D02*
X246541806Y-73643247D01*
X246575140Y-73576581D01*
X246608473Y-73543247D01*
X246675140Y-73509914D01*
X246808473Y-73476581D01*
X246975140Y-73476581D01*
X247108473Y-73509914D01*
X247175140Y-73543247D01*
X247208473Y-73576581D01*
X247241806Y-73643247D01*
X247241806Y-73709914D01*
X247208473Y-73776581D01*
X247175140Y-73809914D01*
X247108473Y-73843247D01*
X246975140Y-73876581D01*
X246808473Y-73876581D01*
X246675140Y-73843247D01*
X246608473Y-73809914D01*
X246575140Y-73776581D01*
X246541806Y-73709914D01*
X228079140Y-79339914D02*
X228112473Y-79239914D01*
X228145806Y-79206581D01*
X228212473Y-79173247D01*
X228312473Y-79173247D01*
X228379140Y-79206581D01*
X228412473Y-79239914D01*
X228445806Y-79306581D01*
X228445806Y-79573247D01*
X227745806Y-79573247D01*
X227745806Y-79339914D01*
X227779140Y-79273247D01*
X227812473Y-79239914D01*
X227879140Y-79206581D01*
X227945806Y-79206581D01*
X228012473Y-79239914D01*
X228045806Y-79273247D01*
X228079140Y-79339914D01*
X228079140Y-79573247D01*
X228445806Y-78839914D02*
X228445806Y-78706581D01*
X228412473Y-78639914D01*
X228379140Y-78606581D01*
X228279140Y-78539914D01*
X228145806Y-78506581D01*
X227879140Y-78506581D01*
X227812473Y-78539914D01*
X227779140Y-78573247D01*
X227745806Y-78639914D01*
X227745806Y-78773247D01*
X227779140Y-78839914D01*
X227812473Y-78873247D01*
X227879140Y-78906581D01*
X228045806Y-78906581D01*
X228112473Y-78873247D01*
X228145806Y-78839914D01*
X228179140Y-78773247D01*
X228179140Y-78639914D01*
X228145806Y-78573247D01*
X228112473Y-78539914D01*
X228045806Y-78506581D01*
X247175140Y-82046581D02*
X247208473Y-82079914D01*
X247241806Y-82179914D01*
X247241806Y-82246581D01*
X247208473Y-82346581D01*
X247141806Y-82413247D01*
X247075140Y-82446581D01*
X246941806Y-82479914D01*
X246841806Y-82479914D01*
X246708473Y-82446581D01*
X246641806Y-82413247D01*
X246575140Y-82346581D01*
X246541806Y-82246581D01*
X246541806Y-82179914D01*
X246575140Y-82079914D01*
X246608473Y-82046581D01*
X247241806Y-81379914D02*
X247241806Y-81779914D01*
X247241806Y-81579914D02*
X246541806Y-81579914D01*
X246641806Y-81646581D01*
X246708473Y-81713247D01*
X246741806Y-81779914D01*
X246775140Y-80779914D02*
X247241806Y-80779914D01*
X246508473Y-80946581D02*
X247008473Y-81113247D01*
X247008473Y-80679914D01*
X228079140Y-71719914D02*
X228112473Y-71619914D01*
X228145806Y-71586581D01*
X228212473Y-71553247D01*
X228312473Y-71553247D01*
X228379140Y-71586581D01*
X228412473Y-71619914D01*
X228445806Y-71686581D01*
X228445806Y-71953247D01*
X227745806Y-71953247D01*
X227745806Y-71719914D01*
X227779140Y-71653247D01*
X227812473Y-71619914D01*
X227879140Y-71586581D01*
X227945806Y-71586581D01*
X228012473Y-71619914D01*
X228045806Y-71653247D01*
X228079140Y-71719914D01*
X228079140Y-71953247D01*
X227745806Y-70953247D02*
X227745806Y-71086581D01*
X227779140Y-71153247D01*
X227812473Y-71186581D01*
X227912473Y-71253247D01*
X228045806Y-71286581D01*
X228312473Y-71286581D01*
X228379140Y-71253247D01*
X228412473Y-71219914D01*
X228445806Y-71153247D01*
X228445806Y-71019914D01*
X228412473Y-70953247D01*
X228379140Y-70919914D01*
X228312473Y-70886581D01*
X228145806Y-70886581D01*
X228079140Y-70919914D01*
X228045806Y-70953247D01*
X228012473Y-71019914D01*
X228012473Y-71153247D01*
X228045806Y-71219914D01*
X228079140Y-71253247D01*
X228145806Y-71286581D01*
X247041806Y-71936581D02*
X247041806Y-71603247D01*
X247241806Y-72003247D02*
X246541806Y-71769914D01*
X247241806Y-71536581D01*
X247241806Y-70936581D02*
X247241806Y-71336581D01*
X247241806Y-71136581D02*
X246541806Y-71136581D01*
X246641806Y-71203247D01*
X246708473Y-71269914D01*
X246741806Y-71336581D01*
X246875140Y-46653247D02*
X246908473Y-46553247D01*
X246941806Y-46519914D01*
X247008473Y-46486581D01*
X247108473Y-46486581D01*
X247175140Y-46519914D01*
X247208473Y-46553247D01*
X247241806Y-46619914D01*
X247241806Y-46886581D01*
X246541806Y-46886581D01*
X246541806Y-46653247D01*
X246575140Y-46586581D01*
X246608473Y-46553247D01*
X246675140Y-46519914D01*
X246741806Y-46519914D01*
X246808473Y-46553247D01*
X246841806Y-46586581D01*
X246875140Y-46653247D01*
X246875140Y-46886581D01*
X247241806Y-45819914D02*
X247241806Y-46219914D01*
X247241806Y-46019914D02*
X246541806Y-46019914D01*
X246641806Y-46086581D01*
X246708473Y-46153247D01*
X246741806Y-46219914D01*
X246541806Y-45386581D02*
X246541806Y-45319914D01*
X246575140Y-45253247D01*
X246608473Y-45219914D01*
X246675140Y-45186581D01*
X246808473Y-45153247D01*
X246975140Y-45153247D01*
X247108473Y-45186581D01*
X247175140Y-45219914D01*
X247208473Y-45253247D01*
X247241806Y-45319914D01*
X247241806Y-45386581D01*
X247208473Y-45453247D01*
X247175140Y-45486581D01*
X247108473Y-45519914D01*
X246975140Y-45553247D01*
X246808473Y-45553247D01*
X246675140Y-45519914D01*
X246608473Y-45486581D01*
X246575140Y-45453247D01*
X246541806Y-45386581D01*
X247041806Y-59236581D02*
X247041806Y-58903247D01*
X247241806Y-59303247D02*
X246541806Y-59069914D01*
X247241806Y-58836581D01*
X246541806Y-58303247D02*
X246541806Y-58436581D01*
X246575140Y-58503247D01*
X246608473Y-58536581D01*
X246708473Y-58603247D01*
X246841806Y-58636581D01*
X247108473Y-58636581D01*
X247175140Y-58603247D01*
X247208473Y-58569914D01*
X247241806Y-58503247D01*
X247241806Y-58369914D01*
X247208473Y-58303247D01*
X247175140Y-58269914D01*
X247108473Y-58236581D01*
X246941806Y-58236581D01*
X246875140Y-58269914D01*
X246841806Y-58303247D01*
X246808473Y-58369914D01*
X246808473Y-58503247D01*
X246841806Y-58569914D01*
X246875140Y-58603247D01*
X246941806Y-58636581D01*
X247175140Y-84586581D02*
X247208473Y-84619914D01*
X247241806Y-84719914D01*
X247241806Y-84786581D01*
X247208473Y-84886581D01*
X247141806Y-84953247D01*
X247075140Y-84986581D01*
X246941806Y-85019914D01*
X246841806Y-85019914D01*
X246708473Y-84986581D01*
X246641806Y-84953247D01*
X246575140Y-84886581D01*
X246541806Y-84786581D01*
X246541806Y-84719914D01*
X246575140Y-84619914D01*
X246608473Y-84586581D01*
X247241806Y-83919914D02*
X247241806Y-84319914D01*
X247241806Y-84119914D02*
X246541806Y-84119914D01*
X246641806Y-84186581D01*
X246708473Y-84253247D01*
X246741806Y-84319914D01*
X246541806Y-83686581D02*
X246541806Y-83253247D01*
X246808473Y-83486581D01*
X246808473Y-83386581D01*
X246841806Y-83319914D01*
X246875140Y-83286581D01*
X246941806Y-83253247D01*
X247108473Y-83253247D01*
X247175140Y-83286581D01*
X247208473Y-83319914D01*
X247241806Y-83386581D01*
X247241806Y-83586581D01*
X247208473Y-83653247D01*
X247175140Y-83686581D01*
X247041806Y-64316581D02*
X247041806Y-63983247D01*
X247241806Y-64383247D02*
X246541806Y-64149914D01*
X247241806Y-63916581D01*
X246775140Y-63383247D02*
X247241806Y-63383247D01*
X246508473Y-63549914D02*
X247008473Y-63716581D01*
X247008473Y-63283247D01*
X228079140Y-39033247D02*
X228112473Y-38933247D01*
X228145806Y-38899914D01*
X228212473Y-38866581D01*
X228312473Y-38866581D01*
X228379140Y-38899914D01*
X228412473Y-38933247D01*
X228445806Y-38999914D01*
X228445806Y-39266581D01*
X227745806Y-39266581D01*
X227745806Y-39033247D01*
X227779140Y-38966581D01*
X227812473Y-38933247D01*
X227879140Y-38899914D01*
X227945806Y-38899914D01*
X228012473Y-38933247D01*
X228045806Y-38966581D01*
X228079140Y-39033247D01*
X228079140Y-39266581D01*
X228445806Y-38199914D02*
X228445806Y-38599914D01*
X228445806Y-38399914D02*
X227745806Y-38399914D01*
X227845806Y-38466581D01*
X227912473Y-38533247D01*
X227945806Y-38599914D01*
X227812473Y-37933247D02*
X227779140Y-37899914D01*
X227745806Y-37833247D01*
X227745806Y-37666581D01*
X227779140Y-37599914D01*
X227812473Y-37566581D01*
X227879140Y-37533247D01*
X227945806Y-37533247D01*
X228045806Y-37566581D01*
X228445806Y-37966581D01*
X228445806Y-37533247D01*
X228245806Y-57029914D02*
X228245806Y-56696581D01*
X228445806Y-57096581D02*
X227745806Y-56863247D01*
X228445806Y-56629914D01*
X228445806Y-56029914D02*
X228445806Y-56429914D01*
X228445806Y-56229914D02*
X227745806Y-56229914D01*
X227845806Y-56296581D01*
X227912473Y-56363247D01*
X227945806Y-56429914D01*
X228445806Y-55363247D02*
X228445806Y-55763247D01*
X228445806Y-55563247D02*
X227745806Y-55563247D01*
X227845806Y-55629914D01*
X227912473Y-55696581D01*
X227945806Y-55763247D01*
X227745806Y-87709914D02*
X227745806Y-87276581D01*
X228012473Y-87509914D01*
X228012473Y-87409914D01*
X228045806Y-87343247D01*
X228079140Y-87309914D01*
X228145806Y-87276581D01*
X228312473Y-87276581D01*
X228379140Y-87309914D01*
X228412473Y-87343247D01*
X228445806Y-87409914D01*
X228445806Y-87609914D01*
X228412473Y-87676581D01*
X228379140Y-87709914D01*
X228379140Y-86976581D02*
X228412473Y-86943247D01*
X228445806Y-86976581D01*
X228412473Y-87009914D01*
X228379140Y-86976581D01*
X228445806Y-86976581D01*
X227745806Y-86709914D02*
X227745806Y-86276581D01*
X228012473Y-86509914D01*
X228012473Y-86409914D01*
X228045806Y-86343247D01*
X228079140Y-86309914D01*
X228145806Y-86276581D01*
X228312473Y-86276581D01*
X228379140Y-86309914D01*
X228412473Y-86343247D01*
X228445806Y-86409914D01*
X228445806Y-86609914D01*
X228412473Y-86676581D01*
X228379140Y-86709914D01*
X227745806Y-86076581D02*
X228445806Y-85843247D01*
X227745806Y-85609914D01*
X246541806Y-38549914D02*
X246541806Y-38883247D01*
X246875140Y-38916581D01*
X246841806Y-38883247D01*
X246808473Y-38816581D01*
X246808473Y-38649914D01*
X246841806Y-38583247D01*
X246875140Y-38549914D01*
X246941806Y-38516581D01*
X247108473Y-38516581D01*
X247175140Y-38549914D01*
X247208473Y-38583247D01*
X247241806Y-38649914D01*
X247241806Y-38816581D01*
X247208473Y-38883247D01*
X247175140Y-38916581D01*
X246541806Y-38316581D02*
X247241806Y-38083247D01*
X246541806Y-37849914D01*
X228079140Y-41573247D02*
X228112473Y-41473247D01*
X228145806Y-41439914D01*
X228212473Y-41406581D01*
X228312473Y-41406581D01*
X228379140Y-41439914D01*
X228412473Y-41473247D01*
X228445806Y-41539914D01*
X228445806Y-41806581D01*
X227745806Y-41806581D01*
X227745806Y-41573247D01*
X227779140Y-41506581D01*
X227812473Y-41473247D01*
X227879140Y-41439914D01*
X227945806Y-41439914D01*
X228012473Y-41473247D01*
X228045806Y-41506581D01*
X228079140Y-41573247D01*
X228079140Y-41806581D01*
X228445806Y-40739914D02*
X228445806Y-41139914D01*
X228445806Y-40939914D02*
X227745806Y-40939914D01*
X227845806Y-41006581D01*
X227912473Y-41073247D01*
X227945806Y-41139914D01*
X227745806Y-40506581D02*
X227745806Y-40073247D01*
X228012473Y-40306581D01*
X228012473Y-40206581D01*
X228045806Y-40139914D01*
X228079140Y-40106581D01*
X228145806Y-40073247D01*
X228312473Y-40073247D01*
X228379140Y-40106581D01*
X228412473Y-40139914D01*
X228445806Y-40206581D01*
X228445806Y-40406581D01*
X228412473Y-40473247D01*
X228379140Y-40506581D01*
X247041806Y-66856581D02*
X247041806Y-66523247D01*
X247241806Y-66923247D02*
X246541806Y-66689914D01*
X247241806Y-66456581D01*
X246541806Y-66289914D02*
X246541806Y-65856581D01*
X246808473Y-66089914D01*
X246808473Y-65989914D01*
X246841806Y-65923247D01*
X246875140Y-65889914D01*
X246941806Y-65856581D01*
X247108473Y-65856581D01*
X247175140Y-65889914D01*
X247208473Y-65923247D01*
X247241806Y-65989914D01*
X247241806Y-66189914D01*
X247208473Y-66256581D01*
X247175140Y-66289914D01*
X246541806Y-44529914D02*
X246541806Y-44096581D01*
X246808473Y-44329914D01*
X246808473Y-44229914D01*
X246841806Y-44163247D01*
X246875140Y-44129914D01*
X246941806Y-44096581D01*
X247108473Y-44096581D01*
X247175140Y-44129914D01*
X247208473Y-44163247D01*
X247241806Y-44229914D01*
X247241806Y-44429914D01*
X247208473Y-44496581D01*
X247175140Y-44529914D01*
X247175140Y-43796581D02*
X247208473Y-43763247D01*
X247241806Y-43796581D01*
X247208473Y-43829914D01*
X247175140Y-43796581D01*
X247241806Y-43796581D01*
X246541806Y-43529914D02*
X246541806Y-43096581D01*
X246808473Y-43329914D01*
X246808473Y-43229914D01*
X246841806Y-43163247D01*
X246875140Y-43129914D01*
X246941806Y-43096581D01*
X247108473Y-43096581D01*
X247175140Y-43129914D01*
X247208473Y-43163247D01*
X247241806Y-43229914D01*
X247241806Y-43429914D01*
X247208473Y-43496581D01*
X247175140Y-43529914D01*
X246541806Y-42896581D02*
X247241806Y-42663247D01*
X246541806Y-42429914D01*
X228079140Y-76799914D02*
X228112473Y-76699914D01*
X228145806Y-76666581D01*
X228212473Y-76633247D01*
X228312473Y-76633247D01*
X228379140Y-76666581D01*
X228412473Y-76699914D01*
X228445806Y-76766581D01*
X228445806Y-77033247D01*
X227745806Y-77033247D01*
X227745806Y-76799914D01*
X227779140Y-76733247D01*
X227812473Y-76699914D01*
X227879140Y-76666581D01*
X227945806Y-76666581D01*
X228012473Y-76699914D01*
X228045806Y-76733247D01*
X228079140Y-76799914D01*
X228079140Y-77033247D01*
X228045806Y-76233247D02*
X228012473Y-76299914D01*
X227979140Y-76333247D01*
X227912473Y-76366581D01*
X227879140Y-76366581D01*
X227812473Y-76333247D01*
X227779140Y-76299914D01*
X227745806Y-76233247D01*
X227745806Y-76099914D01*
X227779140Y-76033247D01*
X227812473Y-75999914D01*
X227879140Y-75966581D01*
X227912473Y-75966581D01*
X227979140Y-75999914D01*
X228012473Y-76033247D01*
X228045806Y-76099914D01*
X228045806Y-76233247D01*
X228079140Y-76299914D01*
X228112473Y-76333247D01*
X228179140Y-76366581D01*
X228312473Y-76366581D01*
X228379140Y-76333247D01*
X228412473Y-76299914D01*
X228445806Y-76233247D01*
X228445806Y-76099914D01*
X228412473Y-76033247D01*
X228379140Y-75999914D01*
X228312473Y-75966581D01*
X228179140Y-75966581D01*
X228112473Y-75999914D01*
X228079140Y-76033247D01*
X228045806Y-76099914D01*
X246875140Y-51399914D02*
X246908473Y-51299914D01*
X246941806Y-51266581D01*
X247008473Y-51233247D01*
X247108473Y-51233247D01*
X247175140Y-51266581D01*
X247208473Y-51299914D01*
X247241806Y-51366581D01*
X247241806Y-51633247D01*
X246541806Y-51633247D01*
X246541806Y-51399914D01*
X246575140Y-51333247D01*
X246608473Y-51299914D01*
X246675140Y-51266581D01*
X246741806Y-51266581D01*
X246808473Y-51299914D01*
X246841806Y-51333247D01*
X246875140Y-51399914D01*
X246875140Y-51633247D01*
X247241806Y-50566581D02*
X247241806Y-50966581D01*
X247241806Y-50766581D02*
X246541806Y-50766581D01*
X246641806Y-50833247D01*
X246708473Y-50899914D01*
X246741806Y-50966581D01*
X246875140Y-53939914D02*
X246908473Y-53839914D01*
X246941806Y-53806581D01*
X247008473Y-53773247D01*
X247108473Y-53773247D01*
X247175140Y-53806581D01*
X247208473Y-53839914D01*
X247241806Y-53906581D01*
X247241806Y-54173247D01*
X246541806Y-54173247D01*
X246541806Y-53939914D01*
X246575140Y-53873247D01*
X246608473Y-53839914D01*
X246675140Y-53806581D01*
X246741806Y-53806581D01*
X246808473Y-53839914D01*
X246841806Y-53873247D01*
X246875140Y-53939914D01*
X246875140Y-54173247D01*
X246541806Y-53339914D02*
X246541806Y-53273247D01*
X246575140Y-53206581D01*
X246608473Y-53173247D01*
X246675140Y-53139914D01*
X246808473Y-53106581D01*
X246975140Y-53106581D01*
X247108473Y-53139914D01*
X247175140Y-53173247D01*
X247208473Y-53206581D01*
X247241806Y-53273247D01*
X247241806Y-53339914D01*
X247208473Y-53406581D01*
X247175140Y-53439914D01*
X247108473Y-53473247D01*
X246975140Y-53506581D01*
X246808473Y-53506581D01*
X246675140Y-53473247D01*
X246608473Y-53439914D01*
X246575140Y-53406581D01*
X246541806Y-53339914D01*
X228079140Y-64099914D02*
X228112473Y-63999914D01*
X228145806Y-63966581D01*
X228212473Y-63933247D01*
X228312473Y-63933247D01*
X228379140Y-63966581D01*
X228412473Y-63999914D01*
X228445806Y-64066581D01*
X228445806Y-64333247D01*
X227745806Y-64333247D01*
X227745806Y-64099914D01*
X227779140Y-64033247D01*
X227812473Y-63999914D01*
X227879140Y-63966581D01*
X227945806Y-63966581D01*
X228012473Y-63999914D01*
X228045806Y-64033247D01*
X228079140Y-64099914D01*
X228079140Y-64333247D01*
X227745806Y-63699914D02*
X227745806Y-63266581D01*
X228012473Y-63499914D01*
X228012473Y-63399914D01*
X228045806Y-63333247D01*
X228079140Y-63299914D01*
X228145806Y-63266581D01*
X228312473Y-63266581D01*
X228379140Y-63299914D01*
X228412473Y-63333247D01*
X228445806Y-63399914D01*
X228445806Y-63599914D01*
X228412473Y-63666581D01*
X228379140Y-63699914D01*
X228245806Y-51616581D02*
X228245806Y-51283247D01*
X228445806Y-51683247D02*
X227745806Y-51449914D01*
X228445806Y-51216581D01*
X228445806Y-50949914D02*
X228445806Y-50816581D01*
X228412473Y-50749914D01*
X228379140Y-50716581D01*
X228279140Y-50649914D01*
X228145806Y-50616581D01*
X227879140Y-50616581D01*
X227812473Y-50649914D01*
X227779140Y-50683247D01*
X227745806Y-50749914D01*
X227745806Y-50883247D01*
X227779140Y-50949914D01*
X227812473Y-50983247D01*
X227879140Y-51016581D01*
X228045806Y-51016581D01*
X228112473Y-50983247D01*
X228145806Y-50949914D01*
X228179140Y-50883247D01*
X228179140Y-50749914D01*
X228145806Y-50683247D01*
X228112473Y-50649914D01*
X228045806Y-50616581D01*
X247041806Y-56696581D02*
X247041806Y-56363247D01*
X247241806Y-56763247D02*
X246541806Y-56529914D01*
X247241806Y-56296581D01*
X246541806Y-56129914D02*
X246541806Y-55663247D01*
X247241806Y-55963247D01*
X247241806Y-77666581D02*
X246541806Y-77666581D01*
X247241806Y-77266581D01*
X246541806Y-77266581D01*
X247241806Y-76533247D02*
X246908473Y-76766581D01*
X247241806Y-76933247D02*
X246541806Y-76933247D01*
X246541806Y-76666581D01*
X246575140Y-76599914D01*
X246608473Y-76566581D01*
X246675140Y-76533247D01*
X246775140Y-76533247D01*
X246841806Y-76566581D01*
X246875140Y-76599914D01*
X246908473Y-76666581D01*
X246908473Y-76933247D01*
X247208473Y-76266581D02*
X247241806Y-76166581D01*
X247241806Y-75999914D01*
X247208473Y-75933247D01*
X247175140Y-75899914D01*
X247108473Y-75866581D01*
X247041806Y-75866581D01*
X246975140Y-75899914D01*
X246941806Y-75933247D01*
X246908473Y-75999914D01*
X246875140Y-76133247D01*
X246841806Y-76199914D01*
X246808473Y-76233247D01*
X246741806Y-76266581D01*
X246675140Y-76266581D01*
X246608473Y-76233247D01*
X246575140Y-76199914D01*
X246541806Y-76133247D01*
X246541806Y-75966581D01*
X246575140Y-75866581D01*
X246541806Y-75666581D02*
X246541806Y-75266581D01*
X247241806Y-75466581D02*
X246541806Y-75466581D01*
X227779140Y-84669914D02*
X227745806Y-84736581D01*
X227745806Y-84836581D01*
X227779140Y-84936581D01*
X227845806Y-85003247D01*
X227912473Y-85036581D01*
X228045806Y-85069914D01*
X228145806Y-85069914D01*
X228279140Y-85036581D01*
X228345806Y-85003247D01*
X228412473Y-84936581D01*
X228445806Y-84836581D01*
X228445806Y-84769914D01*
X228412473Y-84669914D01*
X228379140Y-84636581D01*
X228145806Y-84636581D01*
X228145806Y-84769914D01*
X228445806Y-84336581D02*
X227745806Y-84336581D01*
X228445806Y-83936581D01*
X227745806Y-83936581D01*
X228445806Y-83603247D02*
X227745806Y-83603247D01*
X227745806Y-83436581D01*
X227779140Y-83336581D01*
X227845806Y-83269914D01*
X227912473Y-83236581D01*
X228045806Y-83203247D01*
X228145806Y-83203247D01*
X228279140Y-83236581D01*
X228345806Y-83269914D01*
X228412473Y-83336581D01*
X228445806Y-83436581D01*
X228445806Y-83603247D01*
X246541806Y-87259914D02*
X247241806Y-87026581D01*
X246541806Y-86793247D01*
X246875140Y-86326581D02*
X246908473Y-86226581D01*
X246941806Y-86193247D01*
X247008473Y-86159914D01*
X247108473Y-86159914D01*
X247175140Y-86193247D01*
X247208473Y-86226581D01*
X247241806Y-86293247D01*
X247241806Y-86559914D01*
X246541806Y-86559914D01*
X246541806Y-86326581D01*
X246575140Y-86259914D01*
X246608473Y-86226581D01*
X246675140Y-86193247D01*
X246741806Y-86193247D01*
X246808473Y-86226581D01*
X246841806Y-86259914D01*
X246875140Y-86326581D01*
X246875140Y-86559914D01*
X228245806Y-54489914D02*
X228245806Y-54156581D01*
X228445806Y-54556581D02*
X227745806Y-54323247D01*
X228445806Y-54089914D01*
X228445806Y-53489914D02*
X228445806Y-53889914D01*
X228445806Y-53689914D02*
X227745806Y-53689914D01*
X227845806Y-53756581D01*
X227912473Y-53823247D01*
X227945806Y-53889914D01*
X227745806Y-53056581D02*
X227745806Y-52989914D01*
X227779140Y-52923247D01*
X227812473Y-52889914D01*
X227879140Y-52856581D01*
X228012473Y-52823247D01*
X228179140Y-52823247D01*
X228312473Y-52856581D01*
X228379140Y-52889914D01*
X228412473Y-52923247D01*
X228445806Y-52989914D01*
X228445806Y-53056581D01*
X228412473Y-53123247D01*
X228379140Y-53156581D01*
X228312473Y-53189914D01*
X228179140Y-53223247D01*
X228012473Y-53223247D01*
X227879140Y-53189914D01*
X227812473Y-53156581D01*
X227779140Y-53123247D01*
X227745806Y-53056581D01*
X227745806Y-81729914D02*
X227745806Y-82063247D01*
X228079140Y-82096581D01*
X228045806Y-82063247D01*
X228012473Y-81996581D01*
X228012473Y-81829914D01*
X228045806Y-81763247D01*
X228079140Y-81729914D01*
X228145806Y-81696581D01*
X228312473Y-81696581D01*
X228379140Y-81729914D01*
X228412473Y-81763247D01*
X228445806Y-81829914D01*
X228445806Y-81996581D01*
X228412473Y-82063247D01*
X228379140Y-82096581D01*
X227745806Y-81496581D02*
X228445806Y-81263247D01*
X227745806Y-81029914D01*
X246575140Y-41489914D02*
X246541806Y-41556581D01*
X246541806Y-41656581D01*
X246575140Y-41756581D01*
X246641806Y-41823247D01*
X246708473Y-41856581D01*
X246841806Y-41889914D01*
X246941806Y-41889914D01*
X247075140Y-41856581D01*
X247141806Y-41823247D01*
X247208473Y-41756581D01*
X247241806Y-41656581D01*
X247241806Y-41589914D01*
X247208473Y-41489914D01*
X247175140Y-41456581D01*
X246941806Y-41456581D01*
X246941806Y-41589914D01*
X247241806Y-41156581D02*
X246541806Y-41156581D01*
X247241806Y-40756581D01*
X246541806Y-40756581D01*
X247241806Y-40423247D02*
X246541806Y-40423247D01*
X246541806Y-40256581D01*
X246575140Y-40156581D01*
X246641806Y-40089914D01*
X246708473Y-40056581D01*
X246841806Y-40023247D01*
X246941806Y-40023247D01*
X247075140Y-40056581D01*
X247141806Y-40089914D01*
X247208473Y-40156581D01*
X247241806Y-40256581D01*
X247241806Y-40423247D01*
X247041806Y-69396581D02*
X247041806Y-69063247D01*
X247241806Y-69463247D02*
X246541806Y-69229914D01*
X247241806Y-68996581D01*
X246608473Y-68796581D02*
X246575140Y-68763247D01*
X246541806Y-68696581D01*
X246541806Y-68529914D01*
X246575140Y-68463247D01*
X246608473Y-68429914D01*
X246675140Y-68396581D01*
X246741806Y-68396581D01*
X246841806Y-68429914D01*
X247241806Y-68829914D01*
X247241806Y-68396581D01*
X228079140Y-66639914D02*
X228112473Y-66539914D01*
X228145806Y-66506581D01*
X228212473Y-66473247D01*
X228312473Y-66473247D01*
X228379140Y-66506581D01*
X228412473Y-66539914D01*
X228445806Y-66606581D01*
X228445806Y-66873247D01*
X227745806Y-66873247D01*
X227745806Y-66639914D01*
X227779140Y-66573247D01*
X227812473Y-66539914D01*
X227879140Y-66506581D01*
X227945806Y-66506581D01*
X228012473Y-66539914D01*
X228045806Y-66573247D01*
X228079140Y-66639914D01*
X228079140Y-66873247D01*
X227979140Y-65873247D02*
X228445806Y-65873247D01*
X227712473Y-66039914D02*
X228212473Y-66206581D01*
X228212473Y-65773247D01*
X228245806Y-59569914D02*
X228245806Y-59236581D01*
X228445806Y-59636581D02*
X227745806Y-59403247D01*
X228445806Y-59169914D01*
X228445806Y-58569914D02*
X228445806Y-58969914D01*
X228445806Y-58769914D02*
X227745806Y-58769914D01*
X227845806Y-58836581D01*
X227912473Y-58903247D01*
X227945806Y-58969914D01*
X227812473Y-58303247D02*
X227779140Y-58269914D01*
X227745806Y-58203247D01*
X227745806Y-58036581D01*
X227779140Y-57969914D01*
X227812473Y-57936581D01*
X227879140Y-57903247D01*
X227945806Y-57903247D01*
X228045806Y-57936581D01*
X228445806Y-58336581D01*
X228445806Y-57903247D01*
D12*
X250155807Y-51838961D02*
X250155807Y-52553247D01*
X250108188Y-52696104D01*
X250012950Y-52791342D01*
X249870093Y-52838961D01*
X249774855Y-52838961D01*
X250631998Y-52838961D02*
X250631998Y-51838961D01*
X251012950Y-51838961D01*
X251108188Y-51886581D01*
X251155807Y-51934200D01*
X251203426Y-52029438D01*
X251203426Y-52172295D01*
X251155807Y-52267533D01*
X251108188Y-52315152D01*
X251012950Y-52362771D01*
X250631998Y-52362771D01*
X252060569Y-51838961D02*
X251870093Y-51838961D01*
X251774855Y-51886581D01*
X251727236Y-51934200D01*
X251631998Y-52077057D01*
X251584379Y-52267533D01*
X251584379Y-52648485D01*
X251631998Y-52743723D01*
X251679617Y-52791342D01*
X251774855Y-52838961D01*
X251965331Y-52838961D01*
X252060569Y-52791342D01*
X252108188Y-52743723D01*
X252155807Y-52648485D01*
X252155807Y-52410390D01*
X252108188Y-52315152D01*
X252060569Y-52267533D01*
X251965331Y-52219914D01*
X251774855Y-52219914D01*
X251679617Y-52267533D01*
X251631998Y-52315152D01*
X251584379Y-52410390D01*
X60681714Y-104451380D02*
X60110285Y-104451380D01*
X60396000Y-104451380D02*
X60396000Y-103451380D01*
X60300761Y-103594238D01*
X60205523Y-103689476D01*
X60110285Y-103737095D01*
X145771714Y-104197380D02*
X145200285Y-104197380D01*
X145486000Y-104197380D02*
X145486000Y-103197380D01*
X145390761Y-103340238D01*
X145295523Y-103435476D01*
X145200285Y-103483095D01*
X90289142Y-106275142D02*
X90241523Y-106322761D01*
X90098666Y-106370380D01*
X90003428Y-106370380D01*
X89860571Y-106322761D01*
X89765333Y-106227523D01*
X89717714Y-106132285D01*
X89670095Y-105941809D01*
X89670095Y-105798952D01*
X89717714Y-105608476D01*
X89765333Y-105513238D01*
X89860571Y-105418000D01*
X90003428Y-105370380D01*
X90098666Y-105370380D01*
X90241523Y-105418000D01*
X90289142Y-105465619D01*
X91241523Y-106370380D02*
X90670095Y-106370380D01*
X90955809Y-106370380D02*
X90955809Y-105370380D01*
X90860571Y-105513238D01*
X90765333Y-105608476D01*
X90670095Y-105656095D01*
X91860571Y-105370380D02*
X91955809Y-105370380D01*
X92051047Y-105418000D01*
X92098666Y-105465619D01*
X92146285Y-105560857D01*
X92193904Y-105751333D01*
X92193904Y-105989428D01*
X92146285Y-106179904D01*
X92098666Y-106275142D01*
X92051047Y-106322761D01*
X91955809Y-106370380D01*
X91860571Y-106370380D01*
X91765333Y-106322761D01*
X91717714Y-106275142D01*
X91670095Y-106179904D01*
X91622476Y-105989428D01*
X91622476Y-105751333D01*
X91670095Y-105560857D01*
X91717714Y-105465619D01*
X91765333Y-105418000D01*
X91860571Y-105370380D01*
X174839333Y-110339142D02*
X174791714Y-110386761D01*
X174648857Y-110434380D01*
X174553619Y-110434380D01*
X174410761Y-110386761D01*
X174315523Y-110291523D01*
X174267904Y-110196285D01*
X174220285Y-110005809D01*
X174220285Y-109862952D01*
X174267904Y-109672476D01*
X174315523Y-109577238D01*
X174410761Y-109482000D01*
X174553619Y-109434380D01*
X174648857Y-109434380D01*
X174791714Y-109482000D01*
X174839333Y-109529619D01*
X175172666Y-109434380D02*
X175839333Y-109434380D01*
X175410761Y-110434380D01*
X183363714Y-111309380D02*
X182792285Y-111309380D01*
X183078000Y-111309380D02*
X183078000Y-110309380D01*
X182982761Y-110452238D01*
X182887523Y-110547476D01*
X182792285Y-110595095D01*
D13*
X238301592Y-48969561D02*
X238444449Y-49017180D01*
X238682544Y-49017180D01*
X238777782Y-48969561D01*
X238825401Y-48921942D01*
X238873020Y-48826704D01*
X238873020Y-48731466D01*
X238825401Y-48636228D01*
X238777782Y-48588609D01*
X238682544Y-48540990D01*
X238492068Y-48493371D01*
X238396830Y-48445752D01*
X238349211Y-48398133D01*
X238301592Y-48302895D01*
X238301592Y-48207657D01*
X238349211Y-48112419D01*
X238396830Y-48064800D01*
X238492068Y-48017180D01*
X238730163Y-48017180D01*
X238873020Y-48064800D01*
X239301592Y-49017180D02*
X239301592Y-48017180D01*
X239539687Y-48017180D01*
X239682544Y-48064800D01*
X239777782Y-48160038D01*
X239825401Y-48255276D01*
X239873020Y-48445752D01*
X239873020Y-48588609D01*
X239825401Y-48779085D01*
X239777782Y-48874323D01*
X239682544Y-48969561D01*
X239539687Y-49017180D01*
X239301592Y-49017180D01*
X240253973Y-48731466D02*
X240730163Y-48731466D01*
X240158735Y-49017180D02*
X240492068Y-48017180D01*
X240825401Y-49017180D01*
X238349211Y-46429561D02*
X238492068Y-46477180D01*
X238730163Y-46477180D01*
X238825401Y-46429561D01*
X238873020Y-46381942D01*
X238920640Y-46286704D01*
X238920640Y-46191466D01*
X238873020Y-46096228D01*
X238825401Y-46048609D01*
X238730163Y-46000990D01*
X238539687Y-45953371D01*
X238444449Y-45905752D01*
X238396830Y-45858133D01*
X238349211Y-45762895D01*
X238349211Y-45667657D01*
X238396830Y-45572419D01*
X238444449Y-45524800D01*
X238539687Y-45477180D01*
X238777782Y-45477180D01*
X238920640Y-45524800D01*
X239920640Y-46381942D02*
X239873020Y-46429561D01*
X239730163Y-46477180D01*
X239634925Y-46477180D01*
X239492068Y-46429561D01*
X239396830Y-46334323D01*
X239349211Y-46239085D01*
X239301592Y-46048609D01*
X239301592Y-45905752D01*
X239349211Y-45715276D01*
X239396830Y-45620038D01*
X239492068Y-45524800D01*
X239634925Y-45477180D01*
X239730163Y-45477180D01*
X239873020Y-45524800D01*
X239920640Y-45572419D01*
X240825401Y-46477180D02*
X240349211Y-46477180D01*
X240349211Y-45477180D01*
X239777782Y-56541942D02*
X239730163Y-56589561D01*
X239587306Y-56637180D01*
X239492068Y-56637180D01*
X239349211Y-56589561D01*
X239253973Y-56494323D01*
X239206354Y-56399085D01*
X239158735Y-56208609D01*
X239158735Y-56065752D01*
X239206354Y-55875276D01*
X239253973Y-55780038D01*
X239349211Y-55684800D01*
X239492068Y-55637180D01*
X239587306Y-55637180D01*
X239730163Y-55684800D01*
X239777782Y-55732419D01*
X240158735Y-56589561D02*
X240301592Y-56637180D01*
X240539687Y-56637180D01*
X240634925Y-56589561D01*
X240682544Y-56541942D01*
X240730163Y-56446704D01*
X240730163Y-56351466D01*
X240682544Y-56256228D01*
X240634925Y-56208609D01*
X240539687Y-56160990D01*
X240349211Y-56113371D01*
X240253973Y-56065752D01*
X240206354Y-56018133D01*
X240158735Y-55922895D01*
X240158735Y-55827657D01*
X240206354Y-55732419D01*
X240253973Y-55684800D01*
X240349211Y-55637180D01*
X240587306Y-55637180D01*
X240730163Y-55684800D01*
X238682544Y-58653371D02*
X238825401Y-58700990D01*
X238873020Y-58748609D01*
X238920640Y-58843847D01*
X238920640Y-58986704D01*
X238873020Y-59081942D01*
X238825401Y-59129561D01*
X238730163Y-59177180D01*
X238349211Y-59177180D01*
X238349211Y-58177180D01*
X238682544Y-58177180D01*
X238777782Y-58224800D01*
X238825401Y-58272419D01*
X238873020Y-58367657D01*
X238873020Y-58462895D01*
X238825401Y-58558133D01*
X238777782Y-58605752D01*
X238682544Y-58653371D01*
X238349211Y-58653371D01*
X239825401Y-59177180D02*
X239349211Y-59177180D01*
X239349211Y-58177180D01*
X240158735Y-59177180D02*
X240158735Y-58177180D01*
X240730163Y-59177180D02*
X240301592Y-58605752D01*
X240730163Y-58177180D02*
X240158735Y-58748609D01*
X238634925Y-40444800D02*
X238539687Y-40397180D01*
X238396830Y-40397180D01*
X238253973Y-40444800D01*
X238158735Y-40540038D01*
X238111116Y-40635276D01*
X238063497Y-40825752D01*
X238063497Y-40968609D01*
X238111116Y-41159085D01*
X238158735Y-41254323D01*
X238253973Y-41349561D01*
X238396830Y-41397180D01*
X238492068Y-41397180D01*
X238634925Y-41349561D01*
X238682544Y-41301942D01*
X238682544Y-40968609D01*
X238492068Y-40968609D01*
X239111116Y-41397180D02*
X239111116Y-40397180D01*
X239682544Y-41397180D01*
X239682544Y-40397180D01*
X240158735Y-41397180D02*
X240158735Y-40397180D01*
X240396830Y-40397180D01*
X240539687Y-40444800D01*
X240634925Y-40540038D01*
X240682544Y-40635276D01*
X240730163Y-40825752D01*
X240730163Y-40968609D01*
X240682544Y-41159085D01*
X240634925Y-41254323D01*
X240539687Y-41349561D01*
X240396830Y-41397180D01*
X240158735Y-41397180D01*
X238873020Y-51557180D02*
X238539687Y-51080990D01*
X238301592Y-51557180D02*
X238301592Y-50557180D01*
X238682544Y-50557180D01*
X238777782Y-50604800D01*
X238825401Y-50652419D01*
X238873020Y-50747657D01*
X238873020Y-50890514D01*
X238825401Y-50985752D01*
X238777782Y-51033371D01*
X238682544Y-51080990D01*
X238301592Y-51080990D01*
X239301592Y-51033371D02*
X239634925Y-51033371D01*
X239777782Y-51557180D02*
X239301592Y-51557180D01*
X239301592Y-50557180D01*
X239777782Y-50557180D01*
X240158735Y-51509561D02*
X240301592Y-51557180D01*
X240539687Y-51557180D01*
X240634925Y-51509561D01*
X240682544Y-51461942D01*
X240730163Y-51366704D01*
X240730163Y-51271466D01*
X240682544Y-51176228D01*
X240634925Y-51128609D01*
X240539687Y-51080990D01*
X240349211Y-51033371D01*
X240253973Y-50985752D01*
X240206354Y-50938133D01*
X240158735Y-50842895D01*
X240158735Y-50747657D01*
X240206354Y-50652419D01*
X240253973Y-50604800D01*
X240349211Y-50557180D01*
X240587306Y-50557180D01*
X240730163Y-50604800D01*
X237825401Y-42937180D02*
X238444449Y-42937180D01*
X238111116Y-43318133D01*
X238253973Y-43318133D01*
X238349211Y-43365752D01*
X238396830Y-43413371D01*
X238444449Y-43508609D01*
X238444449Y-43746704D01*
X238396830Y-43841942D01*
X238349211Y-43889561D01*
X238253973Y-43937180D01*
X237968259Y-43937180D01*
X237873020Y-43889561D01*
X237825401Y-43841942D01*
X238873020Y-43841942D02*
X238920640Y-43889561D01*
X238873020Y-43937180D01*
X238825401Y-43889561D01*
X238873020Y-43841942D01*
X238873020Y-43937180D01*
X239253973Y-42937180D02*
X239873020Y-42937180D01*
X239539687Y-43318133D01*
X239682544Y-43318133D01*
X239777782Y-43365752D01*
X239825401Y-43413371D01*
X239873020Y-43508609D01*
X239873020Y-43746704D01*
X239825401Y-43841942D01*
X239777782Y-43889561D01*
X239682544Y-43937180D01*
X239396830Y-43937180D01*
X239301592Y-43889561D01*
X239253973Y-43841942D01*
X240158735Y-42937180D02*
X240492068Y-43937180D01*
X240825401Y-42937180D01*
X239158735Y-54097180D02*
X239158735Y-53097180D01*
X239396830Y-53097180D01*
X239539687Y-53144800D01*
X239634925Y-53240038D01*
X239682544Y-53335276D01*
X239730163Y-53525752D01*
X239730163Y-53668609D01*
X239682544Y-53859085D01*
X239634925Y-53954323D01*
X239539687Y-54049561D01*
X239396830Y-54097180D01*
X239158735Y-54097180D01*
X240730163Y-54001942D02*
X240682544Y-54049561D01*
X240539687Y-54097180D01*
X240444449Y-54097180D01*
X240301592Y-54049561D01*
X240206354Y-53954323D01*
X240158735Y-53859085D01*
X240111116Y-53668609D01*
X240111116Y-53525752D01*
X240158735Y-53335276D01*
X240206354Y-53240038D01*
X240301592Y-53144800D01*
X240444449Y-53097180D01*
X240539687Y-53097180D01*
X240682544Y-53144800D01*
X240730163Y-53192419D01*
D12*
X93305333Y-60301142D02*
X93257714Y-60348761D01*
X93114857Y-60396380D01*
X93019619Y-60396380D01*
X92876761Y-60348761D01*
X92781523Y-60253523D01*
X92733904Y-60158285D01*
X92686285Y-59967809D01*
X92686285Y-59824952D01*
X92733904Y-59634476D01*
X92781523Y-59539238D01*
X92876761Y-59444000D01*
X93019619Y-59396380D01*
X93114857Y-59396380D01*
X93257714Y-59444000D01*
X93305333Y-59491619D01*
X93686285Y-59491619D02*
X93733904Y-59444000D01*
X93829142Y-59396380D01*
X94067238Y-59396380D01*
X94162476Y-59444000D01*
X94210095Y-59491619D01*
X94257714Y-59586857D01*
X94257714Y-59682095D01*
X94210095Y-59824952D01*
X93638666Y-60396380D01*
X94257714Y-60396380D01*
X214971333Y-112625142D02*
X214923714Y-112672761D01*
X214780857Y-112720380D01*
X214685619Y-112720380D01*
X214542761Y-112672761D01*
X214447523Y-112577523D01*
X214399904Y-112482285D01*
X214352285Y-112291809D01*
X214352285Y-112148952D01*
X214399904Y-111958476D01*
X214447523Y-111863238D01*
X214542761Y-111768000D01*
X214685619Y-111720380D01*
X214780857Y-111720380D01*
X214923714Y-111768000D01*
X214971333Y-111815619D01*
X215923714Y-112720380D02*
X215352285Y-112720380D01*
X215638000Y-112720380D02*
X215638000Y-111720380D01*
X215542761Y-111863238D01*
X215447523Y-111958476D01*
X215352285Y-112006095D01*
X140549333Y-62587142D02*
X140501714Y-62634761D01*
X140358857Y-62682380D01*
X140263619Y-62682380D01*
X140120761Y-62634761D01*
X140025523Y-62539523D01*
X139977904Y-62444285D01*
X139930285Y-62253809D01*
X139930285Y-62110952D01*
X139977904Y-61920476D01*
X140025523Y-61825238D01*
X140120761Y-61730000D01*
X140263619Y-61682380D01*
X140358857Y-61682380D01*
X140501714Y-61730000D01*
X140549333Y-61777619D01*
X141406476Y-61682380D02*
X141216000Y-61682380D01*
X141120761Y-61730000D01*
X141073142Y-61777619D01*
X140977904Y-61920476D01*
X140930285Y-62110952D01*
X140930285Y-62491904D01*
X140977904Y-62587142D01*
X141025523Y-62634761D01*
X141120761Y-62682380D01*
X141311238Y-62682380D01*
X141406476Y-62634761D01*
X141454095Y-62587142D01*
X141501714Y-62491904D01*
X141501714Y-62253809D01*
X141454095Y-62158571D01*
X141406476Y-62110952D01*
X141311238Y-62063333D01*
X141120761Y-62063333D01*
X141025523Y-62110952D01*
X140977904Y-62158571D01*
X140930285Y-62253809D01*
X178141333Y-50649142D02*
X178093714Y-50696761D01*
X177950857Y-50744380D01*
X177855619Y-50744380D01*
X177712761Y-50696761D01*
X177617523Y-50601523D01*
X177569904Y-50506285D01*
X177522285Y-50315809D01*
X177522285Y-50172952D01*
X177569904Y-49982476D01*
X177617523Y-49887238D01*
X177712761Y-49792000D01*
X177855619Y-49744380D01*
X177950857Y-49744380D01*
X178093714Y-49792000D01*
X178141333Y-49839619D01*
X178617523Y-50744380D02*
X178808000Y-50744380D01*
X178903238Y-50696761D01*
X178950857Y-50649142D01*
X179046095Y-50506285D01*
X179093714Y-50315809D01*
X179093714Y-49934857D01*
X179046095Y-49839619D01*
X178998476Y-49792000D01*
X178903238Y-49744380D01*
X178712761Y-49744380D01*
X178617523Y-49792000D01*
X178569904Y-49839619D01*
X178522285Y-49934857D01*
X178522285Y-50172952D01*
X178569904Y-50268190D01*
X178617523Y-50315809D01*
X178712761Y-50363428D01*
X178903238Y-50363428D01*
X178998476Y-50315809D01*
X179046095Y-50268190D01*
X179093714Y-50172952D01*
X53681714Y-62823380D02*
X53110285Y-62823380D01*
X53396000Y-62823380D02*
X53396000Y-61823380D01*
X53300761Y-61966238D01*
X53205523Y-62061476D01*
X53110285Y-62109095D01*
X85939714Y-62569380D02*
X85368285Y-62569380D01*
X85654000Y-62569380D02*
X85654000Y-61569380D01*
X85558761Y-61712238D01*
X85463523Y-61807476D01*
X85368285Y-61855095D01*
X254695902Y-85946103D02*
X254743521Y-85803246D01*
X254743521Y-85565151D01*
X254695902Y-85469913D01*
X254648283Y-85422294D01*
X254553045Y-85374675D01*
X254457807Y-85374675D01*
X254362569Y-85422294D01*
X254314950Y-85469913D01*
X254267331Y-85565151D01*
X254219712Y-85755627D01*
X254172093Y-85850865D01*
X254124474Y-85898484D01*
X254029236Y-85946103D01*
X253933998Y-85946103D01*
X253838760Y-85898484D01*
X253791141Y-85850865D01*
X253743521Y-85755627D01*
X253743521Y-85517532D01*
X253791141Y-85374675D01*
X253743521Y-85041341D02*
X254743521Y-84803246D01*
X254029236Y-84612770D01*
X254743521Y-84422294D01*
X253743521Y-84184199D01*
X254076855Y-83374675D02*
X254743521Y-83374675D01*
X253695902Y-83612770D02*
X254410188Y-83850865D01*
X254410188Y-83231818D01*
X254172093Y-82708008D02*
X254124474Y-82803246D01*
X254076855Y-82850865D01*
X253981617Y-82898484D01*
X253933998Y-82898484D01*
X253838760Y-82850865D01*
X253791141Y-82803246D01*
X253743521Y-82708008D01*
X253743521Y-82517532D01*
X253791141Y-82422294D01*
X253838760Y-82374675D01*
X253933998Y-82327056D01*
X253981617Y-82327056D01*
X254076855Y-82374675D01*
X254124474Y-82422294D01*
X254172093Y-82517532D01*
X254172093Y-82708008D01*
X254219712Y-82803246D01*
X254267331Y-82850865D01*
X254362569Y-82898484D01*
X254553045Y-82898484D01*
X254648283Y-82850865D01*
X254695902Y-82803246D01*
X254743521Y-82708008D01*
X254743521Y-82517532D01*
X254695902Y-82422294D01*
X254648283Y-82374675D01*
X254553045Y-82327056D01*
X254362569Y-82327056D01*
X254267331Y-82374675D01*
X254219712Y-82422294D01*
X254172093Y-82517532D01*
X220955714Y-116643380D02*
X220384285Y-116643380D01*
X220670000Y-116643380D02*
X220670000Y-115643380D01*
X220574761Y-115786238D01*
X220479523Y-115881476D01*
X220384285Y-115929095D01*
X137247333Y-103227142D02*
X137199714Y-103274761D01*
X137056857Y-103322380D01*
X136961619Y-103322380D01*
X136818761Y-103274761D01*
X136723523Y-103179523D01*
X136675904Y-103084285D01*
X136628285Y-102893809D01*
X136628285Y-102750952D01*
X136675904Y-102560476D01*
X136723523Y-102465238D01*
X136818761Y-102370000D01*
X136961619Y-102322380D01*
X137056857Y-102322380D01*
X137199714Y-102370000D01*
X137247333Y-102417619D01*
X138104476Y-102655714D02*
X138104476Y-103322380D01*
X137866380Y-102274761D02*
X137628285Y-102989047D01*
X138247333Y-102989047D01*
X55459333Y-60809142D02*
X55411714Y-60856761D01*
X55268857Y-60904380D01*
X55173619Y-60904380D01*
X55030761Y-60856761D01*
X54935523Y-60761523D01*
X54887904Y-60666285D01*
X54840285Y-60475809D01*
X54840285Y-60332952D01*
X54887904Y-60142476D01*
X54935523Y-60047238D01*
X55030761Y-59952000D01*
X55173619Y-59904380D01*
X55268857Y-59904380D01*
X55411714Y-59952000D01*
X55459333Y-59999619D01*
X56030761Y-60332952D02*
X55935523Y-60285333D01*
X55887904Y-60237714D01*
X55840285Y-60142476D01*
X55840285Y-60094857D01*
X55887904Y-59999619D01*
X55935523Y-59952000D01*
X56030761Y-59904380D01*
X56221238Y-59904380D01*
X56316476Y-59952000D01*
X56364095Y-59999619D01*
X56411714Y-60094857D01*
X56411714Y-60142476D01*
X56364095Y-60237714D01*
X56316476Y-60285333D01*
X56221238Y-60332952D01*
X56030761Y-60332952D01*
X55935523Y-60380571D01*
X55887904Y-60428190D01*
X55840285Y-60523428D01*
X55840285Y-60713904D01*
X55887904Y-60809142D01*
X55935523Y-60856761D01*
X56030761Y-60904380D01*
X56221238Y-60904380D01*
X56316476Y-60856761D01*
X56364095Y-60809142D01*
X56411714Y-60713904D01*
X56411714Y-60523428D01*
X56364095Y-60428190D01*
X56316476Y-60380571D01*
X56221238Y-60332952D01*
X114514380Y-77541333D02*
X115228666Y-77541333D01*
X115371523Y-77588952D01*
X115466761Y-77684190D01*
X115514380Y-77827047D01*
X115514380Y-77922285D01*
X115514380Y-77065142D02*
X114514380Y-77065142D01*
X114514380Y-76684190D01*
X114562000Y-76588952D01*
X114609619Y-76541333D01*
X114704857Y-76493714D01*
X114847714Y-76493714D01*
X114942952Y-76541333D01*
X114990571Y-76588952D01*
X115038190Y-76684190D01*
X115038190Y-77065142D01*
X115514380Y-76017523D02*
X115514380Y-75827047D01*
X115466761Y-75731809D01*
X115419142Y-75684190D01*
X115276285Y-75588952D01*
X115085809Y-75541333D01*
X114704857Y-75541333D01*
X114609619Y-75588952D01*
X114562000Y-75636571D01*
X114514380Y-75731809D01*
X114514380Y-75922285D01*
X114562000Y-76017523D01*
X114609619Y-76065142D01*
X114704857Y-76112761D01*
X114942952Y-76112761D01*
X115038190Y-76065142D01*
X115085809Y-76017523D01*
X115133428Y-75922285D01*
X115133428Y-75731809D01*
X115085809Y-75636571D01*
X115038190Y-75588952D01*
X114942952Y-75541333D01*
X215225333Y-54205142D02*
X215177714Y-54252761D01*
X215034857Y-54300380D01*
X214939619Y-54300380D01*
X214796761Y-54252761D01*
X214701523Y-54157523D01*
X214653904Y-54062285D01*
X214606285Y-53871809D01*
X214606285Y-53728952D01*
X214653904Y-53538476D01*
X214701523Y-53443238D01*
X214796761Y-53348000D01*
X214939619Y-53300380D01*
X215034857Y-53300380D01*
X215177714Y-53348000D01*
X215225333Y-53395619D01*
X215558666Y-53300380D02*
X216177714Y-53300380D01*
X215844380Y-53681333D01*
X215987238Y-53681333D01*
X216082476Y-53728952D01*
X216130095Y-53776571D01*
X216177714Y-53871809D01*
X216177714Y-54109904D01*
X216130095Y-54205142D01*
X216082476Y-54252761D01*
X215987238Y-54300380D01*
X215701523Y-54300380D01*
X215606285Y-54252761D01*
X215558666Y-54205142D01*
X138517714Y-64601380D02*
X137946285Y-64601380D01*
X138232000Y-64601380D02*
X138232000Y-63601380D01*
X138136761Y-63744238D01*
X138041523Y-63839476D01*
X137946285Y-63887095D01*
X214209714Y-56219380D02*
X213638285Y-56219380D01*
X213924000Y-56219380D02*
X213924000Y-55219380D01*
X213828761Y-55362238D01*
X213733523Y-55457476D01*
X213638285Y-55505095D01*
X53392342Y-106211666D02*
X53439961Y-106259285D01*
X53487580Y-106402142D01*
X53487580Y-106497380D01*
X53439961Y-106640238D01*
X53344723Y-106735476D01*
X53249485Y-106783095D01*
X53059009Y-106830714D01*
X52916152Y-106830714D01*
X52725676Y-106783095D01*
X52630438Y-106735476D01*
X52535200Y-106640238D01*
X52487580Y-106497380D01*
X52487580Y-106402142D01*
X52535200Y-106259285D01*
X52582819Y-106211666D01*
X52487580Y-105306904D02*
X52487580Y-105783095D01*
X52963771Y-105830714D01*
X52916152Y-105783095D01*
X52868533Y-105687857D01*
X52868533Y-105449761D01*
X52916152Y-105354523D01*
X52963771Y-105306904D01*
X53059009Y-105259285D01*
X53297104Y-105259285D01*
X53392342Y-105306904D01*
X53439961Y-105354523D01*
X53487580Y-105449761D01*
X53487580Y-105687857D01*
X53439961Y-105783095D01*
X53392342Y-105830714D01*
X92939714Y-104451380D02*
X92368285Y-104451380D01*
X92654000Y-104451380D02*
X92654000Y-103451380D01*
X92558761Y-103594238D01*
X92463523Y-103689476D01*
X92368285Y-103737095D01*
X250155806Y-54378962D02*
X250155806Y-55093248D01*
X250108187Y-55236105D01*
X250012949Y-55331343D01*
X249870092Y-55378962D01*
X249774854Y-55378962D01*
X250631997Y-55378962D02*
X250631997Y-54378962D01*
X251012949Y-54378962D01*
X251108187Y-54426582D01*
X251155806Y-54474201D01*
X251203425Y-54569439D01*
X251203425Y-54712296D01*
X251155806Y-54807534D01*
X251108187Y-54855153D01*
X251012949Y-54902772D01*
X250631997Y-54902772D01*
X251536759Y-54378962D02*
X252203425Y-54378962D01*
X251774854Y-55378962D01*
X176363714Y-52917380D02*
X175792285Y-52917380D01*
X176078000Y-52917380D02*
X176078000Y-51917380D01*
X175982761Y-52060238D01*
X175887523Y-52155476D01*
X175792285Y-52203095D01*
X250155807Y-56918962D02*
X250155807Y-57633248D01*
X250108188Y-57776105D01*
X250012950Y-57871343D01*
X249870093Y-57918962D01*
X249774855Y-57918962D01*
X250631998Y-57918962D02*
X250631998Y-56918962D01*
X251012950Y-56918962D01*
X251108188Y-56966582D01*
X251155807Y-57014201D01*
X251203426Y-57109439D01*
X251203426Y-57252296D01*
X251155807Y-57347534D01*
X251108188Y-57395153D01*
X251012950Y-57442772D01*
X250631998Y-57442772D01*
X251774855Y-57347534D02*
X251679617Y-57299915D01*
X251631998Y-57252296D01*
X251584379Y-57157058D01*
X251584379Y-57109439D01*
X251631998Y-57014201D01*
X251679617Y-56966582D01*
X251774855Y-56918962D01*
X251965331Y-56918962D01*
X252060569Y-56966582D01*
X252108188Y-57014201D01*
X252155807Y-57109439D01*
X252155807Y-57157058D01*
X252108188Y-57252296D01*
X252060569Y-57299915D01*
X251965331Y-57347534D01*
X251774855Y-57347534D01*
X251679617Y-57395153D01*
X251631998Y-57442772D01*
X251584379Y-57538010D01*
X251584379Y-57728486D01*
X251631998Y-57823724D01*
X251679617Y-57871343D01*
X251774855Y-57918962D01*
X251965331Y-57918962D01*
X252060569Y-57871343D01*
X252108188Y-57823724D01*
X252155807Y-57728486D01*
X252155807Y-57538010D01*
X252108188Y-57442772D01*
X252060569Y-57395153D01*
X251965331Y-57347534D01*
X249642333Y-60015380D02*
X249309000Y-59539190D01*
X249070904Y-60015380D02*
X249070904Y-59015380D01*
X249451857Y-59015380D01*
X249547095Y-59063000D01*
X249594714Y-59110619D01*
X249642333Y-59205857D01*
X249642333Y-59348714D01*
X249594714Y-59443952D01*
X249547095Y-59491571D01*
X249451857Y-59539190D01*
X249070904Y-59539190D01*
X250594714Y-60015380D02*
X250023285Y-60015380D01*
X250309000Y-60015380D02*
X250309000Y-59015380D01*
X250213761Y-59158238D01*
X250118523Y-59253476D01*
X250023285Y-59301095D01*
X250155806Y-49298962D02*
X250155806Y-50013248D01*
X250108187Y-50156105D01*
X250012949Y-50251343D01*
X249870092Y-50298962D01*
X249774854Y-50298962D01*
X250631997Y-50298962D02*
X250631997Y-49298962D01*
X251012949Y-49298962D01*
X251108187Y-49346582D01*
X251155806Y-49394201D01*
X251203425Y-49489439D01*
X251203425Y-49632296D01*
X251155806Y-49727534D01*
X251108187Y-49775153D01*
X251012949Y-49822772D01*
X250631997Y-49822772D01*
X252108187Y-49298962D02*
X251631997Y-49298962D01*
X251584378Y-49775153D01*
X251631997Y-49727534D01*
X251727235Y-49679915D01*
X251965330Y-49679915D01*
X252060568Y-49727534D01*
X252108187Y-49775153D01*
X252155806Y-49870391D01*
X252155806Y-50108486D01*
X252108187Y-50203724D01*
X252060568Y-50251343D01*
X251965330Y-50298962D01*
X251727235Y-50298962D01*
X251631997Y-50251343D01*
X251584378Y-50203724D01*
X249642333Y-65679580D02*
X249309000Y-65203390D01*
X249070904Y-65679580D02*
X249070904Y-64679580D01*
X249451857Y-64679580D01*
X249547095Y-64727200D01*
X249594714Y-64774819D01*
X249642333Y-64870057D01*
X249642333Y-65012914D01*
X249594714Y-65108152D01*
X249547095Y-65155771D01*
X249451857Y-65203390D01*
X249070904Y-65203390D01*
X250023285Y-64774819D02*
X250070904Y-64727200D01*
X250166142Y-64679580D01*
X250404238Y-64679580D01*
X250499476Y-64727200D01*
X250547095Y-64774819D01*
X250594714Y-64870057D01*
X250594714Y-64965295D01*
X250547095Y-65108152D01*
X249975666Y-65679580D01*
X250594714Y-65679580D01*
X237296901Y-109644105D02*
X237344520Y-109501248D01*
X237344520Y-109263153D01*
X237296901Y-109167915D01*
X237249282Y-109120296D01*
X237154044Y-109072677D01*
X237058806Y-109072677D01*
X236963568Y-109120296D01*
X236915949Y-109167915D01*
X236868330Y-109263153D01*
X236820711Y-109453629D01*
X236773092Y-109548867D01*
X236725473Y-109596486D01*
X236630235Y-109644105D01*
X236534997Y-109644105D01*
X236439759Y-109596486D01*
X236392140Y-109548867D01*
X236344520Y-109453629D01*
X236344520Y-109215534D01*
X236392140Y-109072677D01*
X236344520Y-108739343D02*
X237344520Y-108501248D01*
X236630235Y-108310772D01*
X237344520Y-108120296D01*
X236344520Y-107882201D01*
X236344520Y-107596486D02*
X236344520Y-106977439D01*
X236725473Y-107310772D01*
X236725473Y-107167915D01*
X236773092Y-107072677D01*
X236820711Y-107025058D01*
X236915949Y-106977439D01*
X237154044Y-106977439D01*
X237249282Y-107025058D01*
X237296901Y-107072677D01*
X237344520Y-107167915D01*
X237344520Y-107453629D01*
X237296901Y-107548867D01*
X237249282Y-107596486D01*
X237344520Y-106025058D02*
X237344520Y-106596486D01*
X237344520Y-106310772D02*
X236344520Y-106310772D01*
X236487378Y-106406010D01*
X236582616Y-106501248D01*
X236630235Y-106596486D01*
X224466721Y-90684865D02*
X223466721Y-90684865D01*
X223466721Y-90446770D01*
X223514341Y-90303913D01*
X223609579Y-90208675D01*
X223704817Y-90161056D01*
X223895293Y-90113437D01*
X224038150Y-90113437D01*
X224228626Y-90161056D01*
X224323864Y-90208675D01*
X224419102Y-90303913D01*
X224466721Y-90446770D01*
X224466721Y-90684865D01*
X223466721Y-89780103D02*
X223466721Y-89161056D01*
X223847674Y-89494389D01*
X223847674Y-89351532D01*
X223895293Y-89256294D01*
X223942912Y-89208675D01*
X224038150Y-89161056D01*
X224276245Y-89161056D01*
X224371483Y-89208675D01*
X224419102Y-89256294D01*
X224466721Y-89351532D01*
X224466721Y-89637246D01*
X224419102Y-89732484D01*
X224371483Y-89780103D01*
X223466721Y-88542008D02*
X223466721Y-88446770D01*
X223514341Y-88351532D01*
X223561960Y-88303913D01*
X223657198Y-88256294D01*
X223847674Y-88208675D01*
X224085769Y-88208675D01*
X224276245Y-88256294D01*
X224371483Y-88303913D01*
X224419102Y-88351532D01*
X224466721Y-88446770D01*
X224466721Y-88542008D01*
X224419102Y-88637246D01*
X224371483Y-88684865D01*
X224276245Y-88732484D01*
X224085769Y-88780103D01*
X223847674Y-88780103D01*
X223657198Y-88732484D01*
X223561960Y-88684865D01*
X223514341Y-88637246D01*
X223466721Y-88542008D01*
X129470721Y-58458676D02*
X128470721Y-58458676D01*
X128470721Y-58220581D01*
X128518341Y-58077723D01*
X128613579Y-57982485D01*
X128708817Y-57934866D01*
X128899293Y-57887247D01*
X129042150Y-57887247D01*
X129232626Y-57934866D01*
X129327864Y-57982485D01*
X129423102Y-58077723D01*
X129470721Y-58220581D01*
X129470721Y-58458676D01*
X128470721Y-56982485D02*
X128470721Y-57458676D01*
X128946912Y-57506295D01*
X128899293Y-57458676D01*
X128851674Y-57363438D01*
X128851674Y-57125342D01*
X128899293Y-57030104D01*
X128946912Y-56982485D01*
X129042150Y-56934866D01*
X129280245Y-56934866D01*
X129375483Y-56982485D01*
X129423102Y-57030104D01*
X129470721Y-57125342D01*
X129470721Y-57363438D01*
X129423102Y-57458676D01*
X129375483Y-57506295D01*
X105594721Y-116084865D02*
X104594721Y-116084865D01*
X104594721Y-115846770D01*
X104642341Y-115703913D01*
X104737579Y-115608675D01*
X104832817Y-115561056D01*
X105023293Y-115513437D01*
X105166150Y-115513437D01*
X105356626Y-115561056D01*
X105451864Y-115608675D01*
X105547102Y-115703913D01*
X105594721Y-115846770D01*
X105594721Y-116084865D01*
X104594721Y-115180103D02*
X104594721Y-114561056D01*
X104975674Y-114894389D01*
X104975674Y-114751532D01*
X105023293Y-114656294D01*
X105070912Y-114608675D01*
X105166150Y-114561056D01*
X105404245Y-114561056D01*
X105499483Y-114608675D01*
X105547102Y-114656294D01*
X105594721Y-114751532D01*
X105594721Y-115037246D01*
X105547102Y-115132484D01*
X105499483Y-115180103D01*
X104928055Y-113703913D02*
X105594721Y-113703913D01*
X104547102Y-113942008D02*
X105261388Y-114180103D01*
X105261388Y-113561056D01*
X186366721Y-47282677D02*
X185366721Y-47282677D01*
X185366721Y-47044582D01*
X185414341Y-46901724D01*
X185509579Y-46806486D01*
X185604817Y-46758867D01*
X185795293Y-46711248D01*
X185938150Y-46711248D01*
X186128626Y-46758867D01*
X186223864Y-46806486D01*
X186319102Y-46901724D01*
X186366721Y-47044582D01*
X186366721Y-47282677D01*
X185795293Y-46139820D02*
X185747674Y-46235058D01*
X185700055Y-46282677D01*
X185604817Y-46330296D01*
X185557198Y-46330296D01*
X185461960Y-46282677D01*
X185414341Y-46235058D01*
X185366721Y-46139820D01*
X185366721Y-45949343D01*
X185414341Y-45854105D01*
X185461960Y-45806486D01*
X185557198Y-45758867D01*
X185604817Y-45758867D01*
X185700055Y-45806486D01*
X185747674Y-45854105D01*
X185795293Y-45949343D01*
X185795293Y-46139820D01*
X185842912Y-46235058D01*
X185890531Y-46282677D01*
X185985769Y-46330296D01*
X186176245Y-46330296D01*
X186271483Y-46282677D01*
X186319102Y-46235058D01*
X186366721Y-46139820D01*
X186366721Y-45949343D01*
X186319102Y-45854105D01*
X186271483Y-45806486D01*
X186176245Y-45758867D01*
X185985769Y-45758867D01*
X185890531Y-45806486D01*
X185842912Y-45854105D01*
X185795293Y-45949343D01*
X129470721Y-97034866D02*
X128470721Y-97034866D01*
X128470721Y-96796771D01*
X128518341Y-96653914D01*
X128613579Y-96558676D01*
X128708817Y-96511057D01*
X128899293Y-96463438D01*
X129042150Y-96463438D01*
X129232626Y-96511057D01*
X129327864Y-96558676D01*
X129423102Y-96653914D01*
X129470721Y-96796771D01*
X129470721Y-97034866D01*
X128565960Y-96082485D02*
X128518341Y-96034866D01*
X128470721Y-95939628D01*
X128470721Y-95701533D01*
X128518341Y-95606295D01*
X128565960Y-95558676D01*
X128661198Y-95511057D01*
X128756436Y-95511057D01*
X128899293Y-95558676D01*
X129470721Y-96130104D01*
X129470721Y-95511057D01*
X128470721Y-94606295D02*
X128470721Y-95082485D01*
X128946912Y-95130104D01*
X128899293Y-95082485D01*
X128851674Y-94987247D01*
X128851674Y-94749152D01*
X128899293Y-94653914D01*
X128946912Y-94606295D01*
X129042150Y-94558676D01*
X129280245Y-94558676D01*
X129375483Y-94606295D01*
X129423102Y-94653914D01*
X129470721Y-94749152D01*
X129470721Y-94987247D01*
X129423102Y-95082485D01*
X129375483Y-95130104D01*
X105594721Y-78760485D02*
X104594721Y-78760485D01*
X104594721Y-78522390D01*
X104642341Y-78379533D01*
X104737579Y-78284295D01*
X104832817Y-78236676D01*
X105023293Y-78189057D01*
X105166150Y-78189057D01*
X105356626Y-78236676D01*
X105451864Y-78284295D01*
X105547102Y-78379533D01*
X105594721Y-78522390D01*
X105594721Y-78760485D01*
X105594721Y-77236676D02*
X105594721Y-77808104D01*
X105594721Y-77522390D02*
X104594721Y-77522390D01*
X104737579Y-77617628D01*
X104832817Y-77712866D01*
X104880436Y-77808104D01*
X104928055Y-76379533D02*
X105594721Y-76379533D01*
X104547102Y-76617628D02*
X105261388Y-76855723D01*
X105261388Y-76236676D01*
X229357180Y-109757685D02*
X228357180Y-109757685D01*
X228357180Y-109519590D01*
X228404800Y-109376733D01*
X228500038Y-109281495D01*
X228595276Y-109233876D01*
X228785752Y-109186257D01*
X228928609Y-109186257D01*
X229119085Y-109233876D01*
X229214323Y-109281495D01*
X229309561Y-109376733D01*
X229357180Y-109519590D01*
X229357180Y-109757685D01*
X228690514Y-108329114D02*
X229357180Y-108329114D01*
X228309561Y-108567209D02*
X229023847Y-108805304D01*
X229023847Y-108186257D01*
X228357180Y-107376733D02*
X228357180Y-107567209D01*
X228404800Y-107662447D01*
X228452419Y-107710066D01*
X228595276Y-107805304D01*
X228785752Y-107852923D01*
X229166704Y-107852923D01*
X229261942Y-107805304D01*
X229309561Y-107757685D01*
X229357180Y-107662447D01*
X229357180Y-107471971D01*
X229309561Y-107376733D01*
X229261942Y-107329114D01*
X229166704Y-107281495D01*
X228928609Y-107281495D01*
X228833371Y-107329114D01*
X228785752Y-107376733D01*
X228738133Y-107471971D01*
X228738133Y-107662447D01*
X228785752Y-107757685D01*
X228833371Y-107805304D01*
X228928609Y-107852923D01*
X224912480Y-134130373D02*
X223991975Y-133739642D01*
X224085007Y-133520474D01*
X224184659Y-133407579D01*
X224309538Y-133357125D01*
X224415812Y-133350504D01*
X224609752Y-133381095D01*
X224741253Y-133436914D01*
X224897981Y-133555172D01*
X224967042Y-133636218D01*
X225017497Y-133761098D01*
X225005511Y-133911205D01*
X224912480Y-134130373D01*
X224856998Y-132554878D02*
X225470667Y-132815366D01*
X224413298Y-132625196D02*
X224977770Y-133123458D01*
X225219651Y-132553621D01*
X225229122Y-131678207D02*
X225842792Y-131938694D01*
X224785423Y-131748525D02*
X225349895Y-132246786D01*
X225591776Y-131676950D01*
X105619619Y-67248485D02*
X105352952Y-66867533D01*
X105162476Y-67248485D02*
X105162476Y-66448485D01*
X105467238Y-66448485D01*
X105543428Y-66486581D01*
X105581523Y-66524676D01*
X105619619Y-66600866D01*
X105619619Y-66715152D01*
X105581523Y-66791342D01*
X105543428Y-66829438D01*
X105467238Y-66867533D01*
X105162476Y-66867533D01*
X105924380Y-67019914D02*
X106305333Y-67019914D01*
X105848190Y-67248485D02*
X106114857Y-66448485D01*
X106381523Y-67248485D01*
X106572000Y-66448485D02*
X106762476Y-67248485D01*
X106914857Y-66677057D01*
X107067238Y-67248485D01*
X107257714Y-66448485D01*
X132481580Y-78760485D02*
X131481580Y-78760485D01*
X131481580Y-78522390D01*
X131529200Y-78379533D01*
X131624438Y-78284295D01*
X131719676Y-78236676D01*
X131910152Y-78189057D01*
X132053009Y-78189057D01*
X132243485Y-78236676D01*
X132338723Y-78284295D01*
X132433961Y-78379533D01*
X132481580Y-78522390D01*
X132481580Y-78760485D01*
X132481580Y-77236676D02*
X132481580Y-77808104D01*
X132481580Y-77522390D02*
X131481580Y-77522390D01*
X131624438Y-77617628D01*
X131719676Y-77712866D01*
X131767295Y-77808104D01*
X131481580Y-76379533D02*
X131481580Y-76570009D01*
X131529200Y-76665247D01*
X131576819Y-76712866D01*
X131719676Y-76808104D01*
X131910152Y-76855723D01*
X132291104Y-76855723D01*
X132386342Y-76808104D01*
X132433961Y-76760485D01*
X132481580Y-76665247D01*
X132481580Y-76474771D01*
X132433961Y-76379533D01*
X132386342Y-76331914D01*
X132291104Y-76284295D01*
X132053009Y-76284295D01*
X131957771Y-76331914D01*
X131910152Y-76379533D01*
X131862533Y-76474771D01*
X131862533Y-76665247D01*
X131910152Y-76760485D01*
X131957771Y-76808104D01*
X132053009Y-76855723D01*
X132481580Y-97034866D02*
X131481580Y-97034866D01*
X131481580Y-96796771D01*
X131529200Y-96653914D01*
X131624438Y-96558676D01*
X131719676Y-96511057D01*
X131910152Y-96463438D01*
X132053009Y-96463438D01*
X132243485Y-96511057D01*
X132338723Y-96558676D01*
X132433961Y-96653914D01*
X132481580Y-96796771D01*
X132481580Y-97034866D01*
X131576819Y-96082485D02*
X131529200Y-96034866D01*
X131481580Y-95939628D01*
X131481580Y-95701533D01*
X131529200Y-95606295D01*
X131576819Y-95558676D01*
X131672057Y-95511057D01*
X131767295Y-95511057D01*
X131910152Y-95558676D01*
X132481580Y-96130104D01*
X132481580Y-95511057D01*
X131481580Y-94653914D02*
X131481580Y-94844390D01*
X131529200Y-94939628D01*
X131576819Y-94987247D01*
X131719676Y-95082485D01*
X131910152Y-95130104D01*
X132291104Y-95130104D01*
X132386342Y-95082485D01*
X132433961Y-95034866D01*
X132481580Y-94939628D01*
X132481580Y-94749152D01*
X132433961Y-94653914D01*
X132386342Y-94606295D01*
X132291104Y-94558676D01*
X132053009Y-94558676D01*
X131957771Y-94606295D01*
X131910152Y-94653914D01*
X131862533Y-94749152D01*
X131862533Y-94939628D01*
X131910152Y-95034866D01*
X131957771Y-95082485D01*
X132053009Y-95130104D01*
X86544720Y-97034867D02*
X85544720Y-97034867D01*
X85544720Y-96796772D01*
X85592340Y-96653915D01*
X85687578Y-96558677D01*
X85782816Y-96511058D01*
X85973292Y-96463439D01*
X86116149Y-96463439D01*
X86306625Y-96511058D01*
X86401863Y-96558677D01*
X86497101Y-96653915D01*
X86544720Y-96796772D01*
X86544720Y-97034867D01*
X85639959Y-96082486D02*
X85592340Y-96034867D01*
X85544720Y-95939629D01*
X85544720Y-95701534D01*
X85592340Y-95606296D01*
X85639959Y-95558677D01*
X85735197Y-95511058D01*
X85830435Y-95511058D01*
X85973292Y-95558677D01*
X86544720Y-96130105D01*
X86544720Y-95511058D01*
X85544720Y-95177724D02*
X85544720Y-94558677D01*
X85925673Y-94892010D01*
X85925673Y-94749153D01*
X85973292Y-94653915D01*
X86020911Y-94606296D01*
X86116149Y-94558677D01*
X86354244Y-94558677D01*
X86449482Y-94606296D01*
X86497101Y-94653915D01*
X86544720Y-94749153D01*
X86544720Y-95034867D01*
X86497101Y-95130105D01*
X86449482Y-95177724D01*
X167570720Y-69094867D02*
X166570720Y-69094867D01*
X166570720Y-68856772D01*
X166618340Y-68713915D01*
X166713578Y-68618677D01*
X166808816Y-68571058D01*
X166999292Y-68523439D01*
X167142149Y-68523439D01*
X167332625Y-68571058D01*
X167427863Y-68618677D01*
X167523101Y-68713915D01*
X167570720Y-68856772D01*
X167570720Y-69094867D01*
X167570720Y-67571058D02*
X167570720Y-68142486D01*
X167570720Y-67856772D02*
X166570720Y-67856772D01*
X166713578Y-67952010D01*
X166808816Y-68047248D01*
X166856435Y-68142486D01*
X166570720Y-67237724D02*
X166570720Y-66571058D01*
X167570720Y-66999629D01*
X129470721Y-78760485D02*
X128470721Y-78760485D01*
X128470721Y-78522390D01*
X128518341Y-78379533D01*
X128613579Y-78284295D01*
X128708817Y-78236676D01*
X128899293Y-78189057D01*
X129042150Y-78189057D01*
X129232626Y-78236676D01*
X129327864Y-78284295D01*
X129423102Y-78379533D01*
X129470721Y-78522390D01*
X129470721Y-78760485D01*
X129470721Y-77236676D02*
X129470721Y-77808104D01*
X129470721Y-77522390D02*
X128470721Y-77522390D01*
X128613579Y-77617628D01*
X128708817Y-77712866D01*
X128756436Y-77808104D01*
X128470721Y-76331914D02*
X128470721Y-76808104D01*
X128946912Y-76855723D01*
X128899293Y-76808104D01*
X128851674Y-76712866D01*
X128851674Y-76474771D01*
X128899293Y-76379533D01*
X128946912Y-76331914D01*
X129042150Y-76284295D01*
X129280245Y-76284295D01*
X129375483Y-76331914D01*
X129423102Y-76379533D01*
X129470721Y-76474771D01*
X129470721Y-76712866D01*
X129423102Y-76808104D01*
X129375483Y-76855723D01*
X205416720Y-69348867D02*
X204416720Y-69348867D01*
X204416720Y-69110772D01*
X204464340Y-68967915D01*
X204559578Y-68872677D01*
X204654816Y-68825058D01*
X204845292Y-68777439D01*
X204988149Y-68777439D01*
X205178625Y-68825058D01*
X205273863Y-68872677D01*
X205369101Y-68967915D01*
X205416720Y-69110772D01*
X205416720Y-69348867D01*
X205416720Y-67825058D02*
X205416720Y-68396486D01*
X205416720Y-68110772D02*
X204416720Y-68110772D01*
X204559578Y-68206010D01*
X204654816Y-68301248D01*
X204702435Y-68396486D01*
X205416720Y-67348867D02*
X205416720Y-67158391D01*
X205369101Y-67063153D01*
X205321482Y-67015534D01*
X205178625Y-66920296D01*
X204988149Y-66872677D01*
X204607197Y-66872677D01*
X204511959Y-66920296D01*
X204464340Y-66967915D01*
X204416720Y-67063153D01*
X204416720Y-67253629D01*
X204464340Y-67348867D01*
X204511959Y-67396486D01*
X204607197Y-67444105D01*
X204845292Y-67444105D01*
X204940530Y-67396486D01*
X204988149Y-67348867D01*
X205035768Y-67253629D01*
X205035768Y-67063153D01*
X204988149Y-66967915D01*
X204940530Y-66920296D01*
X204845292Y-66872677D01*
X223667580Y-71634867D02*
X222667580Y-71634867D01*
X222667580Y-71396772D01*
X222715200Y-71253915D01*
X222810438Y-71158677D01*
X222905676Y-71111058D01*
X223096152Y-71063439D01*
X223239009Y-71063439D01*
X223429485Y-71111058D01*
X223524723Y-71158677D01*
X223619961Y-71253915D01*
X223667580Y-71396772D01*
X223667580Y-71634867D01*
X222762819Y-70682486D02*
X222715200Y-70634867D01*
X222667580Y-70539629D01*
X222667580Y-70301534D01*
X222715200Y-70206296D01*
X222762819Y-70158677D01*
X222858057Y-70111058D01*
X222953295Y-70111058D01*
X223096152Y-70158677D01*
X223667580Y-70730105D01*
X223667580Y-70111058D01*
X222667580Y-69492010D02*
X222667580Y-69396772D01*
X222715200Y-69301534D01*
X222762819Y-69253915D01*
X222858057Y-69206296D01*
X223048533Y-69158677D01*
X223286628Y-69158677D01*
X223477104Y-69206296D01*
X223572342Y-69253915D01*
X223619961Y-69301534D01*
X223667580Y-69396772D01*
X223667580Y-69492010D01*
X223619961Y-69587248D01*
X223572342Y-69634867D01*
X223477104Y-69682486D01*
X223286628Y-69730105D01*
X223048533Y-69730105D01*
X222858057Y-69682486D01*
X222762819Y-69634867D01*
X222715200Y-69587248D01*
X222667580Y-69492010D01*
X205416721Y-126498865D02*
X204416721Y-126498865D01*
X204416721Y-126260770D01*
X204464341Y-126117913D01*
X204559579Y-126022675D01*
X204654817Y-125975056D01*
X204845293Y-125927437D01*
X204988150Y-125927437D01*
X205178626Y-125975056D01*
X205273864Y-126022675D01*
X205369102Y-126117913D01*
X205416721Y-126260770D01*
X205416721Y-126498865D01*
X204750055Y-125070294D02*
X205416721Y-125070294D01*
X204369102Y-125308389D02*
X205083388Y-125546484D01*
X205083388Y-124927437D01*
X204416721Y-124641722D02*
X204416721Y-124022675D01*
X204797674Y-124356008D01*
X204797674Y-124213151D01*
X204845293Y-124117913D01*
X204892912Y-124070294D01*
X204988150Y-124022675D01*
X205226245Y-124022675D01*
X205321483Y-124070294D01*
X205369102Y-124117913D01*
X205416721Y-124213151D01*
X205416721Y-124498865D01*
X205369102Y-124594103D01*
X205321483Y-124641722D01*
X167570721Y-49568676D02*
X166570721Y-49568676D01*
X166570721Y-49330581D01*
X166618341Y-49187723D01*
X166713579Y-49092485D01*
X166808817Y-49044866D01*
X166999293Y-48997247D01*
X167142150Y-48997247D01*
X167332626Y-49044866D01*
X167427864Y-49092485D01*
X167523102Y-49187723D01*
X167570721Y-49330581D01*
X167570721Y-49568676D01*
X166570721Y-48663914D02*
X166570721Y-47997247D01*
X167570721Y-48425819D01*
X86544720Y-77984867D02*
X85544720Y-77984867D01*
X85544720Y-77746772D01*
X85592340Y-77603915D01*
X85687578Y-77508677D01*
X85782816Y-77461058D01*
X85973292Y-77413439D01*
X86116149Y-77413439D01*
X86306625Y-77461058D01*
X86401863Y-77508677D01*
X86497101Y-77603915D01*
X86544720Y-77746772D01*
X86544720Y-77984867D01*
X86544720Y-76461058D02*
X86544720Y-77032486D01*
X86544720Y-76746772D02*
X85544720Y-76746772D01*
X85687578Y-76842010D01*
X85782816Y-76937248D01*
X85830435Y-77032486D01*
X85544720Y-76127724D02*
X85544720Y-75508677D01*
X85925673Y-75842010D01*
X85925673Y-75699153D01*
X85973292Y-75603915D01*
X86020911Y-75556296D01*
X86116149Y-75508677D01*
X86354244Y-75508677D01*
X86449482Y-75556296D01*
X86497101Y-75603915D01*
X86544720Y-75699153D01*
X86544720Y-75984867D01*
X86497101Y-76080105D01*
X86449482Y-76127724D01*
X105594720Y-97034867D02*
X104594720Y-97034867D01*
X104594720Y-96796772D01*
X104642340Y-96653915D01*
X104737578Y-96558677D01*
X104832816Y-96511058D01*
X105023292Y-96463439D01*
X105166149Y-96463439D01*
X105356625Y-96511058D01*
X105451863Y-96558677D01*
X105547101Y-96653915D01*
X105594720Y-96796772D01*
X105594720Y-97034867D01*
X104689959Y-96082486D02*
X104642340Y-96034867D01*
X104594720Y-95939629D01*
X104594720Y-95701534D01*
X104642340Y-95606296D01*
X104689959Y-95558677D01*
X104785197Y-95511058D01*
X104880435Y-95511058D01*
X105023292Y-95558677D01*
X105594720Y-96130105D01*
X105594720Y-95511058D01*
X104928054Y-94653915D02*
X105594720Y-94653915D01*
X104547101Y-94892010D02*
X105261387Y-95130105D01*
X105261387Y-94511058D01*
X167570721Y-126244865D02*
X166570721Y-126244865D01*
X166570721Y-126006770D01*
X166618341Y-125863913D01*
X166713579Y-125768675D01*
X166808817Y-125721056D01*
X166999293Y-125673437D01*
X167142150Y-125673437D01*
X167332626Y-125721056D01*
X167427864Y-125768675D01*
X167523102Y-125863913D01*
X167570721Y-126006770D01*
X167570721Y-126244865D01*
X166904055Y-124816294D02*
X167570721Y-124816294D01*
X166523102Y-125054389D02*
X167237388Y-125292484D01*
X167237388Y-124673437D01*
X167570721Y-123768675D02*
X167570721Y-124340103D01*
X167570721Y-124054389D02*
X166570721Y-124054389D01*
X166713579Y-124149627D01*
X166808817Y-124244865D01*
X166856436Y-124340103D01*
X186366721Y-68778285D02*
X185366721Y-68778285D01*
X185366721Y-68540190D01*
X185414341Y-68397333D01*
X185509579Y-68302095D01*
X185604817Y-68254476D01*
X185795293Y-68206857D01*
X185938150Y-68206857D01*
X186128626Y-68254476D01*
X186223864Y-68302095D01*
X186319102Y-68397333D01*
X186366721Y-68540190D01*
X186366721Y-68778285D01*
X186366721Y-67254476D02*
X186366721Y-67825904D01*
X186366721Y-67540190D02*
X185366721Y-67540190D01*
X185509579Y-67635428D01*
X185604817Y-67730666D01*
X185652436Y-67825904D01*
X185795293Y-66683047D02*
X185747674Y-66778285D01*
X185700055Y-66825904D01*
X185604817Y-66873523D01*
X185557198Y-66873523D01*
X185461960Y-66825904D01*
X185414341Y-66778285D01*
X185366721Y-66683047D01*
X185366721Y-66492571D01*
X185414341Y-66397333D01*
X185461960Y-66349714D01*
X185557198Y-66302095D01*
X185604817Y-66302095D01*
X185700055Y-66349714D01*
X185747674Y-66397333D01*
X185795293Y-66492571D01*
X185795293Y-66683047D01*
X185842912Y-66778285D01*
X185890531Y-66825904D01*
X185985769Y-66873523D01*
X186176245Y-66873523D01*
X186271483Y-66825904D01*
X186319102Y-66778285D01*
X186366721Y-66683047D01*
X186366721Y-66492571D01*
X186319102Y-66397333D01*
X186271483Y-66349714D01*
X186176245Y-66302095D01*
X185985769Y-66302095D01*
X185890531Y-66349714D01*
X185842912Y-66397333D01*
X185795293Y-66492571D01*
X224466721Y-109734867D02*
X223466721Y-109734867D01*
X223466721Y-109496772D01*
X223514341Y-109353915D01*
X223609579Y-109258677D01*
X223704817Y-109211058D01*
X223895293Y-109163439D01*
X224038150Y-109163439D01*
X224228626Y-109211058D01*
X224323864Y-109258677D01*
X224419102Y-109353915D01*
X224466721Y-109496772D01*
X224466721Y-109734867D01*
X223800055Y-108306296D02*
X224466721Y-108306296D01*
X223419102Y-108544391D02*
X224133388Y-108782486D01*
X224133388Y-108163439D01*
X223466721Y-107592010D02*
X223466721Y-107496772D01*
X223514341Y-107401534D01*
X223561960Y-107353915D01*
X223657198Y-107306296D01*
X223847674Y-107258677D01*
X224085769Y-107258677D01*
X224276245Y-107306296D01*
X224371483Y-107353915D01*
X224419102Y-107401534D01*
X224466721Y-107496772D01*
X224466721Y-107592010D01*
X224419102Y-107687248D01*
X224371483Y-107734867D01*
X224276245Y-107782486D01*
X224085769Y-107830105D01*
X223847674Y-107830105D01*
X223657198Y-107782486D01*
X223561960Y-107734867D01*
X223514341Y-107687248D01*
X223466721Y-107592010D01*
X51836580Y-58458677D02*
X50836580Y-58458677D01*
X50836580Y-58220582D01*
X50884200Y-58077724D01*
X50979438Y-57982486D01*
X51074676Y-57934867D01*
X51265152Y-57887248D01*
X51408009Y-57887248D01*
X51598485Y-57934867D01*
X51693723Y-57982486D01*
X51788961Y-58077724D01*
X51836580Y-58220582D01*
X51836580Y-58458677D01*
X50931819Y-57506296D02*
X50884200Y-57458677D01*
X50836580Y-57363439D01*
X50836580Y-57125343D01*
X50884200Y-57030105D01*
X50931819Y-56982486D01*
X51027057Y-56934867D01*
X51122295Y-56934867D01*
X51265152Y-56982486D01*
X51836580Y-57553915D01*
X51836580Y-56934867D01*
X67494720Y-97034867D02*
X66494720Y-97034867D01*
X66494720Y-96796772D01*
X66542340Y-96653915D01*
X66637578Y-96558677D01*
X66732816Y-96511058D01*
X66923292Y-96463439D01*
X67066149Y-96463439D01*
X67256625Y-96511058D01*
X67351863Y-96558677D01*
X67447101Y-96653915D01*
X67494720Y-96796772D01*
X67494720Y-97034867D01*
X66589959Y-96082486D02*
X66542340Y-96034867D01*
X66494720Y-95939629D01*
X66494720Y-95701534D01*
X66542340Y-95606296D01*
X66589959Y-95558677D01*
X66685197Y-95511058D01*
X66780435Y-95511058D01*
X66923292Y-95558677D01*
X67494720Y-96130105D01*
X67494720Y-95511058D01*
X66589959Y-95130105D02*
X66542340Y-95082486D01*
X66494720Y-94987248D01*
X66494720Y-94749153D01*
X66542340Y-94653915D01*
X66589959Y-94606296D01*
X66685197Y-94558677D01*
X66780435Y-94558677D01*
X66923292Y-94606296D01*
X67494720Y-95177724D01*
X67494720Y-94558677D01*
X129470721Y-116084867D02*
X128470721Y-116084867D01*
X128470721Y-115846772D01*
X128518341Y-115703915D01*
X128613579Y-115608677D01*
X128708817Y-115561058D01*
X128899293Y-115513439D01*
X129042150Y-115513439D01*
X129232626Y-115561058D01*
X129327864Y-115608677D01*
X129423102Y-115703915D01*
X129470721Y-115846772D01*
X129470721Y-116084867D01*
X128470721Y-115180105D02*
X128470721Y-114561058D01*
X128851674Y-114894391D01*
X128851674Y-114751534D01*
X128899293Y-114656296D01*
X128946912Y-114608677D01*
X129042150Y-114561058D01*
X129280245Y-114561058D01*
X129375483Y-114608677D01*
X129423102Y-114656296D01*
X129470721Y-114751534D01*
X129470721Y-115037248D01*
X129423102Y-115132486D01*
X129375483Y-115180105D01*
X128470721Y-113656296D02*
X128470721Y-114132486D01*
X128946912Y-114180105D01*
X128899293Y-114132486D01*
X128851674Y-114037248D01*
X128851674Y-113799153D01*
X128899293Y-113703915D01*
X128946912Y-113656296D01*
X129042150Y-113608677D01*
X129280245Y-113608677D01*
X129375483Y-113656296D01*
X129423102Y-113703915D01*
X129470721Y-113799153D01*
X129470721Y-114037248D01*
X129423102Y-114132486D01*
X129375483Y-114180105D01*
X86544720Y-58458676D02*
X85544720Y-58458676D01*
X85544720Y-58220581D01*
X85592340Y-58077723D01*
X85687578Y-57982485D01*
X85782816Y-57934866D01*
X85973292Y-57887247D01*
X86116149Y-57887247D01*
X86306625Y-57934866D01*
X86401863Y-57982485D01*
X86497101Y-58077723D01*
X86544720Y-58220581D01*
X86544720Y-58458676D01*
X85544720Y-57553914D02*
X85544720Y-56934866D01*
X85925673Y-57268200D01*
X85925673Y-57125342D01*
X85973292Y-57030104D01*
X86020911Y-56982485D01*
X86116149Y-56934866D01*
X86354244Y-56934866D01*
X86449482Y-56982485D01*
X86497101Y-57030104D01*
X86544720Y-57125342D01*
X86544720Y-57411057D01*
X86497101Y-57506295D01*
X86449482Y-57553914D01*
X67494721Y-77984866D02*
X66494721Y-77984866D01*
X66494721Y-77746771D01*
X66542341Y-77603914D01*
X66637579Y-77508676D01*
X66732817Y-77461057D01*
X66923293Y-77413438D01*
X67066150Y-77413438D01*
X67256626Y-77461057D01*
X67351864Y-77508676D01*
X67447102Y-77603914D01*
X67494721Y-77746771D01*
X67494721Y-77984866D01*
X67494721Y-76461057D02*
X67494721Y-77032485D01*
X67494721Y-76746771D02*
X66494721Y-76746771D01*
X66637579Y-76842009D01*
X66732817Y-76937247D01*
X66780436Y-77032485D01*
X66589960Y-76080104D02*
X66542341Y-76032485D01*
X66494721Y-75937247D01*
X66494721Y-75699152D01*
X66542341Y-75603914D01*
X66589960Y-75556295D01*
X66685198Y-75508676D01*
X66780436Y-75508676D01*
X66923293Y-75556295D01*
X67494721Y-76127723D01*
X67494721Y-75508676D01*
X205416720Y-107448867D02*
X204416720Y-107448867D01*
X204416720Y-107210772D01*
X204464340Y-107067915D01*
X204559578Y-106972677D01*
X204654816Y-106925058D01*
X204845292Y-106877439D01*
X204988149Y-106877439D01*
X205178625Y-106925058D01*
X205273863Y-106972677D01*
X205369101Y-107067915D01*
X205416720Y-107210772D01*
X205416720Y-107448867D01*
X204416720Y-106544105D02*
X204416720Y-105925058D01*
X204797673Y-106258391D01*
X204797673Y-106115534D01*
X204845292Y-106020296D01*
X204892911Y-105972677D01*
X204988149Y-105925058D01*
X205226244Y-105925058D01*
X205321482Y-105972677D01*
X205369101Y-106020296D01*
X205416720Y-106115534D01*
X205416720Y-106401248D01*
X205369101Y-106496486D01*
X205321482Y-106544105D01*
X205416720Y-105448867D02*
X205416720Y-105258391D01*
X205369101Y-105163153D01*
X205321482Y-105115534D01*
X205178625Y-105020296D01*
X204988149Y-104972677D01*
X204607197Y-104972677D01*
X204511959Y-105020296D01*
X204464340Y-105067915D01*
X204416720Y-105163153D01*
X204416720Y-105353629D01*
X204464340Y-105448867D01*
X204511959Y-105496486D01*
X204607197Y-105544105D01*
X204845292Y-105544105D01*
X204940530Y-105496486D01*
X204988149Y-105448867D01*
X205035768Y-105353629D01*
X205035768Y-105163153D01*
X204988149Y-105067915D01*
X204940530Y-105020296D01*
X204845292Y-104972677D01*
X186366721Y-85858867D02*
X185366721Y-85858867D01*
X185366721Y-85620772D01*
X185414341Y-85477915D01*
X185509579Y-85382677D01*
X185604817Y-85335058D01*
X185795293Y-85287439D01*
X185938150Y-85287439D01*
X186128626Y-85335058D01*
X186223864Y-85382677D01*
X186319102Y-85477915D01*
X186366721Y-85620772D01*
X186366721Y-85858867D01*
X185461960Y-84906486D02*
X185414341Y-84858867D01*
X185366721Y-84763629D01*
X185366721Y-84525534D01*
X185414341Y-84430296D01*
X185461960Y-84382677D01*
X185557198Y-84335058D01*
X185652436Y-84335058D01*
X185795293Y-84382677D01*
X186366721Y-84954105D01*
X186366721Y-84335058D01*
X185795293Y-83763629D02*
X185747674Y-83858867D01*
X185700055Y-83906486D01*
X185604817Y-83954105D01*
X185557198Y-83954105D01*
X185461960Y-83906486D01*
X185414341Y-83858867D01*
X185366721Y-83763629D01*
X185366721Y-83573153D01*
X185414341Y-83477915D01*
X185461960Y-83430296D01*
X185557198Y-83382677D01*
X185604817Y-83382677D01*
X185700055Y-83430296D01*
X185747674Y-83477915D01*
X185795293Y-83573153D01*
X185795293Y-83763629D01*
X185842912Y-83858867D01*
X185890531Y-83906486D01*
X185985769Y-83954105D01*
X186176245Y-83954105D01*
X186271483Y-83906486D01*
X186319102Y-83858867D01*
X186366721Y-83763629D01*
X186366721Y-83573153D01*
X186319102Y-83477915D01*
X186271483Y-83430296D01*
X186176245Y-83382677D01*
X185985769Y-83382677D01*
X185890531Y-83430296D01*
X185842912Y-83477915D01*
X185795293Y-83573153D01*
X205416721Y-49822675D02*
X204416721Y-49822675D01*
X204416721Y-49584580D01*
X204464341Y-49441722D01*
X204559579Y-49346484D01*
X204654817Y-49298865D01*
X204845293Y-49251246D01*
X204988150Y-49251246D01*
X205178626Y-49298865D01*
X205273864Y-49346484D01*
X205369102Y-49441722D01*
X205416721Y-49584580D01*
X205416721Y-49822675D01*
X205416721Y-48775056D02*
X205416721Y-48584580D01*
X205369102Y-48489341D01*
X205321483Y-48441722D01*
X205178626Y-48346484D01*
X204988150Y-48298865D01*
X204607198Y-48298865D01*
X204511960Y-48346484D01*
X204464341Y-48394103D01*
X204416721Y-48489341D01*
X204416721Y-48679818D01*
X204464341Y-48775056D01*
X204511960Y-48822675D01*
X204607198Y-48870294D01*
X204845293Y-48870294D01*
X204940531Y-48822675D01*
X204988150Y-48775056D01*
X205035769Y-48679818D01*
X205035769Y-48489341D01*
X204988150Y-48394103D01*
X204940531Y-48346484D01*
X204845293Y-48298865D01*
X224466720Y-52584867D02*
X223466720Y-52584867D01*
X223466720Y-52346772D01*
X223514340Y-52203915D01*
X223609578Y-52108677D01*
X223704816Y-52061058D01*
X223895292Y-52013439D01*
X224038149Y-52013439D01*
X224228625Y-52061058D01*
X224323863Y-52108677D01*
X224419101Y-52203915D01*
X224466720Y-52346772D01*
X224466720Y-52584867D01*
X224466720Y-51061058D02*
X224466720Y-51632486D01*
X224466720Y-51346772D02*
X223466720Y-51346772D01*
X223609578Y-51442010D01*
X223704816Y-51537248D01*
X223752435Y-51632486D01*
X223466720Y-50442010D02*
X223466720Y-50346772D01*
X223514340Y-50251534D01*
X223561959Y-50203915D01*
X223657197Y-50156296D01*
X223847673Y-50108677D01*
X224085768Y-50108677D01*
X224276244Y-50156296D01*
X224371482Y-50203915D01*
X224419101Y-50251534D01*
X224466720Y-50346772D01*
X224466720Y-50442010D01*
X224419101Y-50537248D01*
X224371482Y-50584867D01*
X224276244Y-50632486D01*
X224085768Y-50680105D01*
X223847673Y-50680105D01*
X223657197Y-50632486D01*
X223561959Y-50584867D01*
X223514340Y-50537248D01*
X223466720Y-50442010D01*
X105594721Y-58458677D02*
X104594721Y-58458677D01*
X104594721Y-58220582D01*
X104642341Y-58077724D01*
X104737579Y-57982486D01*
X104832817Y-57934867D01*
X105023293Y-57887248D01*
X105166150Y-57887248D01*
X105356626Y-57934867D01*
X105451864Y-57982486D01*
X105547102Y-58077724D01*
X105594721Y-58220582D01*
X105594721Y-58458677D01*
X104928055Y-57030105D02*
X105594721Y-57030105D01*
X104547102Y-57268201D02*
X105261388Y-57506296D01*
X105261388Y-56887248D01*
X205416721Y-88398865D02*
X204416721Y-88398865D01*
X204416721Y-88160770D01*
X204464341Y-88017913D01*
X204559579Y-87922675D01*
X204654817Y-87875056D01*
X204845293Y-87827437D01*
X204988150Y-87827437D01*
X205178626Y-87875056D01*
X205273864Y-87922675D01*
X205369102Y-88017913D01*
X205416721Y-88160770D01*
X205416721Y-88398865D01*
X204511960Y-87446484D02*
X204464341Y-87398865D01*
X204416721Y-87303627D01*
X204416721Y-87065532D01*
X204464341Y-86970294D01*
X204511960Y-86922675D01*
X204607198Y-86875056D01*
X204702436Y-86875056D01*
X204845293Y-86922675D01*
X205416721Y-87494103D01*
X205416721Y-86875056D01*
X205416721Y-86398865D02*
X205416721Y-86208389D01*
X205369102Y-86113151D01*
X205321483Y-86065532D01*
X205178626Y-85970294D01*
X204988150Y-85922675D01*
X204607198Y-85922675D01*
X204511960Y-85970294D01*
X204464341Y-86017913D01*
X204416721Y-86113151D01*
X204416721Y-86303627D01*
X204464341Y-86398865D01*
X204511960Y-86446484D01*
X204607198Y-86494103D01*
X204845293Y-86494103D01*
X204940531Y-86446484D01*
X204988150Y-86398865D01*
X205035769Y-86303627D01*
X205035769Y-86113151D01*
X204988150Y-86017913D01*
X204940531Y-85970294D01*
X204845293Y-85922675D01*
X86544721Y-116084865D02*
X85544721Y-116084865D01*
X85544721Y-115846770D01*
X85592341Y-115703913D01*
X85687579Y-115608675D01*
X85782817Y-115561056D01*
X85973293Y-115513437D01*
X86116150Y-115513437D01*
X86306626Y-115561056D01*
X86401864Y-115608675D01*
X86497102Y-115703913D01*
X86544721Y-115846770D01*
X86544721Y-116084865D01*
X85544721Y-115180103D02*
X85544721Y-114561056D01*
X85925674Y-114894389D01*
X85925674Y-114751532D01*
X85973293Y-114656294D01*
X86020912Y-114608675D01*
X86116150Y-114561056D01*
X86354245Y-114561056D01*
X86449483Y-114608675D01*
X86497102Y-114656294D01*
X86544721Y-114751532D01*
X86544721Y-115037246D01*
X86497102Y-115132484D01*
X86449483Y-115180103D01*
X85544721Y-114227722D02*
X85544721Y-113608675D01*
X85925674Y-113942008D01*
X85925674Y-113799151D01*
X85973293Y-113703913D01*
X86020912Y-113656294D01*
X86116150Y-113608675D01*
X86354245Y-113608675D01*
X86449483Y-113656294D01*
X86497102Y-113703913D01*
X86544721Y-113799151D01*
X86544721Y-114084865D01*
X86497102Y-114180103D01*
X86449483Y-114227722D01*
X167570720Y-107194867D02*
X166570720Y-107194867D01*
X166570720Y-106956772D01*
X166618340Y-106813915D01*
X166713578Y-106718677D01*
X166808816Y-106671058D01*
X166999292Y-106623439D01*
X167142149Y-106623439D01*
X167332625Y-106671058D01*
X167427863Y-106718677D01*
X167523101Y-106813915D01*
X167570720Y-106956772D01*
X167570720Y-107194867D01*
X166570720Y-106290105D02*
X166570720Y-105671058D01*
X166951673Y-106004391D01*
X166951673Y-105861534D01*
X166999292Y-105766296D01*
X167046911Y-105718677D01*
X167142149Y-105671058D01*
X167380244Y-105671058D01*
X167475482Y-105718677D01*
X167523101Y-105766296D01*
X167570720Y-105861534D01*
X167570720Y-106147248D01*
X167523101Y-106242486D01*
X167475482Y-106290105D01*
X166570720Y-105337724D02*
X166570720Y-104671058D01*
X167570720Y-105099629D01*
X67494721Y-116084865D02*
X66494721Y-116084865D01*
X66494721Y-115846770D01*
X66542341Y-115703913D01*
X66637579Y-115608675D01*
X66732817Y-115561056D01*
X66923293Y-115513437D01*
X67066150Y-115513437D01*
X67256626Y-115561056D01*
X67351864Y-115608675D01*
X67447102Y-115703913D01*
X67494721Y-115846770D01*
X67494721Y-116084865D01*
X66494721Y-115180103D02*
X66494721Y-114561056D01*
X66875674Y-114894389D01*
X66875674Y-114751532D01*
X66923293Y-114656294D01*
X66970912Y-114608675D01*
X67066150Y-114561056D01*
X67304245Y-114561056D01*
X67399483Y-114608675D01*
X67447102Y-114656294D01*
X67494721Y-114751532D01*
X67494721Y-115037246D01*
X67447102Y-115132484D01*
X67399483Y-115180103D01*
X66589960Y-114180103D02*
X66542341Y-114132484D01*
X66494721Y-114037246D01*
X66494721Y-113799151D01*
X66542341Y-113703913D01*
X66589960Y-113656294D01*
X66685198Y-113608675D01*
X66780436Y-113608675D01*
X66923293Y-113656294D01*
X67494721Y-114227722D01*
X67494721Y-113608675D01*
X231810642Y-135902343D02*
X232310642Y-135036318D01*
X232516838Y-135155365D01*
X232616747Y-135268033D01*
X232651606Y-135398131D01*
X232645226Y-135504419D01*
X232591228Y-135693186D01*
X232519799Y-135816904D01*
X232383322Y-135958051D01*
X232294463Y-136016720D01*
X232164366Y-136051580D01*
X232016838Y-136021391D01*
X231810642Y-135902343D01*
X233381154Y-136039278D02*
X233047821Y-136616629D01*
X233365434Y-135590316D02*
X232802095Y-136089858D01*
X233338205Y-136399382D01*
X234413846Y-136250603D02*
X234001453Y-136012508D01*
X233722119Y-136401092D01*
X233787168Y-136383662D01*
X233893456Y-136390042D01*
X234099652Y-136509089D01*
X234158321Y-136597948D01*
X234175751Y-136662996D01*
X234169371Y-136769285D01*
X234050324Y-136975481D01*
X233961465Y-137034150D01*
X233896417Y-137051580D01*
X233790128Y-137045200D01*
X233583932Y-136926153D01*
X233525263Y-136837294D01*
X233507833Y-136772245D01*
X132481580Y-116084867D02*
X131481580Y-116084867D01*
X131481580Y-115846772D01*
X131529200Y-115703915D01*
X131624438Y-115608677D01*
X131719676Y-115561058D01*
X131910152Y-115513439D01*
X132053009Y-115513439D01*
X132243485Y-115561058D01*
X132338723Y-115608677D01*
X132433961Y-115703915D01*
X132481580Y-115846772D01*
X132481580Y-116084867D01*
X131481580Y-115180105D02*
X131481580Y-114561058D01*
X131862533Y-114894391D01*
X131862533Y-114751534D01*
X131910152Y-114656296D01*
X131957771Y-114608677D01*
X132053009Y-114561058D01*
X132291104Y-114561058D01*
X132386342Y-114608677D01*
X132433961Y-114656296D01*
X132481580Y-114751534D01*
X132481580Y-115037248D01*
X132433961Y-115132486D01*
X132386342Y-115180105D01*
X131481580Y-113703915D02*
X131481580Y-113894391D01*
X131529200Y-113989629D01*
X131576819Y-114037248D01*
X131719676Y-114132486D01*
X131910152Y-114180105D01*
X132291104Y-114180105D01*
X132386342Y-114132486D01*
X132433961Y-114084867D01*
X132481580Y-113989629D01*
X132481580Y-113799153D01*
X132433961Y-113703915D01*
X132386342Y-113656296D01*
X132291104Y-113608677D01*
X132053009Y-113608677D01*
X131957771Y-113656296D01*
X131910152Y-113703915D01*
X131862533Y-113799153D01*
X131862533Y-113989629D01*
X131910152Y-114084867D01*
X131957771Y-114132486D01*
X132053009Y-114180105D01*
X186366721Y-123958867D02*
X185366721Y-123958867D01*
X185366721Y-123720772D01*
X185414341Y-123577915D01*
X185509579Y-123482677D01*
X185604817Y-123435058D01*
X185795293Y-123387439D01*
X185938150Y-123387439D01*
X186128626Y-123435058D01*
X186223864Y-123482677D01*
X186319102Y-123577915D01*
X186366721Y-123720772D01*
X186366721Y-123958867D01*
X185700055Y-122530296D02*
X186366721Y-122530296D01*
X185319102Y-122768391D02*
X186033388Y-123006486D01*
X186033388Y-122387439D01*
X185461960Y-122054105D02*
X185414341Y-122006486D01*
X185366721Y-121911248D01*
X185366721Y-121673153D01*
X185414341Y-121577915D01*
X185461960Y-121530296D01*
X185557198Y-121482677D01*
X185652436Y-121482677D01*
X185795293Y-121530296D01*
X186366721Y-122101724D01*
X186366721Y-121482677D01*
X186366721Y-104908866D02*
X185366721Y-104908866D01*
X185366721Y-104670771D01*
X185414341Y-104527914D01*
X185509579Y-104432676D01*
X185604817Y-104385057D01*
X185795293Y-104337438D01*
X185938150Y-104337438D01*
X186128626Y-104385057D01*
X186223864Y-104432676D01*
X186319102Y-104527914D01*
X186366721Y-104670771D01*
X186366721Y-104908866D01*
X185366721Y-104004104D02*
X185366721Y-103385057D01*
X185747674Y-103718390D01*
X185747674Y-103575533D01*
X185795293Y-103480295D01*
X185842912Y-103432676D01*
X185938150Y-103385057D01*
X186176245Y-103385057D01*
X186271483Y-103432676D01*
X186319102Y-103480295D01*
X186366721Y-103575533D01*
X186366721Y-103861247D01*
X186319102Y-103956485D01*
X186271483Y-104004104D01*
X185795293Y-102813628D02*
X185747674Y-102908866D01*
X185700055Y-102956485D01*
X185604817Y-103004104D01*
X185557198Y-103004104D01*
X185461960Y-102956485D01*
X185414341Y-102908866D01*
X185366721Y-102813628D01*
X185366721Y-102623152D01*
X185414341Y-102527914D01*
X185461960Y-102480295D01*
X185557198Y-102432676D01*
X185604817Y-102432676D01*
X185700055Y-102480295D01*
X185747674Y-102527914D01*
X185795293Y-102623152D01*
X185795293Y-102813628D01*
X185842912Y-102908866D01*
X185890531Y-102956485D01*
X185985769Y-103004104D01*
X186176245Y-103004104D01*
X186271483Y-102956485D01*
X186319102Y-102908866D01*
X186366721Y-102813628D01*
X186366721Y-102623152D01*
X186319102Y-102527914D01*
X186271483Y-102480295D01*
X186176245Y-102432676D01*
X185985769Y-102432676D01*
X185890531Y-102480295D01*
X185842912Y-102527914D01*
X185795293Y-102623152D01*
X132481580Y-58458675D02*
X131481580Y-58458675D01*
X131481580Y-58220580D01*
X131529200Y-58077722D01*
X131624438Y-57982484D01*
X131719676Y-57934865D01*
X131910152Y-57887246D01*
X132053009Y-57887246D01*
X132243485Y-57934865D01*
X132338723Y-57982484D01*
X132433961Y-58077722D01*
X132481580Y-58220580D01*
X132481580Y-58458675D01*
X131481580Y-57030103D02*
X131481580Y-57220580D01*
X131529200Y-57315818D01*
X131576819Y-57363437D01*
X131719676Y-57458675D01*
X131910152Y-57506294D01*
X132291104Y-57506294D01*
X132386342Y-57458675D01*
X132433961Y-57411056D01*
X132481580Y-57315818D01*
X132481580Y-57125341D01*
X132433961Y-57030103D01*
X132386342Y-56982484D01*
X132291104Y-56934865D01*
X132053009Y-56934865D01*
X131957771Y-56982484D01*
X131910152Y-57030103D01*
X131862533Y-57125341D01*
X131862533Y-57315818D01*
X131910152Y-57411056D01*
X131957771Y-57458675D01*
X132053009Y-57506294D01*
X167570721Y-88144865D02*
X166570721Y-88144865D01*
X166570721Y-87906770D01*
X166618341Y-87763913D01*
X166713579Y-87668675D01*
X166808817Y-87621056D01*
X166999293Y-87573437D01*
X167142150Y-87573437D01*
X167332626Y-87621056D01*
X167427864Y-87668675D01*
X167523102Y-87763913D01*
X167570721Y-87906770D01*
X167570721Y-88144865D01*
X166665960Y-87192484D02*
X166618341Y-87144865D01*
X166570721Y-87049627D01*
X166570721Y-86811532D01*
X166618341Y-86716294D01*
X166665960Y-86668675D01*
X166761198Y-86621056D01*
X166856436Y-86621056D01*
X166999293Y-86668675D01*
X167570721Y-87240103D01*
X167570721Y-86621056D01*
X166570721Y-86287722D02*
X166570721Y-85621056D01*
X167570721Y-86049627D01*
X219889303Y-48321581D02*
X221616141Y-48321581D01*
X224425141Y-54956580D02*
X224425141Y-55956580D01*
X212345141Y-46416581D02*
X217425141Y-46416581D01*
X223394141Y-48321581D02*
X223775141Y-48321581D01*
X211425141Y-41956580D02*
X210425141Y-41956580D01*
X210425141Y-42956580D02*
X210425141Y-41956580D01*
X223775141Y-47940581D02*
X223775141Y-48321581D01*
X223425141Y-55956580D02*
X224425141Y-55956580D01*
X212345141Y-41971581D02*
X212345141Y-42352581D01*
X210425141Y-55956580D02*
X211425141Y-55956580D01*
X212345141Y-45400581D02*
X212345141Y-46416581D01*
X224425141Y-41956580D02*
X223425141Y-41956580D01*
X224425141Y-41956580D02*
X224425141Y-42956580D01*
X210425141Y-55956580D02*
X210425141Y-54956580D01*
X223775141Y-44511581D02*
X223775141Y-44892581D01*
X221235141Y-41971581D02*
X212345141Y-41971581D01*
X223775140Y-44511581D02*
G75*
G03*
X221235141Y-41971581I-2539999J1D01*
G01*
X219889302Y-48340541D02*
G75*
G03*
X217425141Y-46416581I-2464161J-616039D01*
G01*
X193345140Y-42900583D02*
X193345140Y-43916583D01*
X204775140Y-42011583D02*
X204775140Y-42392583D01*
X200889302Y-45821583D02*
X202616140Y-45821583D01*
X193345140Y-43916583D02*
X198425140Y-43916583D01*
X191425140Y-53456582D02*
X192425140Y-53456582D01*
X205425140Y-39456582D02*
X204425140Y-39456582D01*
X205425140Y-39456582D02*
X205425140Y-40456582D01*
X204394140Y-45821583D02*
X204775140Y-45821583D01*
X191425140Y-53456582D02*
X191425140Y-52456582D01*
X193345140Y-39471583D02*
X193345140Y-39852583D01*
X204775140Y-45440583D02*
X204775140Y-45821583D01*
X204425140Y-53456582D02*
X205425140Y-53456582D01*
X202235140Y-39471583D02*
X193345140Y-39471583D01*
X205425140Y-52456582D02*
X205425140Y-53456582D01*
X192425140Y-39456582D02*
X191425140Y-39456582D01*
X191425140Y-40456582D02*
X191425140Y-39456582D01*
X200889301Y-45840543D02*
G75*
G03*
X198425140Y-43916583I-2464161J-616039D01*
G01*
X204775139Y-42011583D02*
G75*
G03*
X202235140Y-39471583I-2539999J1D01*
G01*
X183235140Y-36981581D02*
X174345140Y-36981581D01*
X186425140Y-49966580D02*
X186425140Y-50966580D01*
X172425140Y-50966580D02*
X173425140Y-50966580D01*
X181889302Y-43331581D02*
X183616140Y-43331581D01*
X185775140Y-39521581D02*
X185775140Y-39902581D01*
X172425140Y-50966580D02*
X172425140Y-49966580D01*
X172425140Y-37966580D02*
X172425140Y-36966580D01*
X173425140Y-36966580D02*
X172425140Y-36966580D01*
X185394140Y-43331581D02*
X185775140Y-43331581D01*
X174345140Y-36981581D02*
X174345140Y-37362581D01*
X174345140Y-40410581D02*
X174345140Y-41426581D01*
X185775140Y-42950581D02*
X185775140Y-43331581D01*
X186425140Y-36966580D02*
X185425140Y-36966580D01*
X174345140Y-41426581D02*
X179425140Y-41426581D01*
X185425140Y-50966580D02*
X186425140Y-50966580D01*
X186425140Y-36966580D02*
X186425140Y-37966580D01*
X185775139Y-39521581D02*
G75*
G03*
X183235140Y-36981581I-2539999J1D01*
G01*
X181889301Y-43350541D02*
G75*
G03*
X179425140Y-41426581I-2464161J-616039D01*
G01*
X155345141Y-42900582D02*
X155345141Y-43916582D01*
X155345141Y-43916582D02*
X160425141Y-43916582D01*
X167425141Y-52456581D02*
X167425141Y-53456581D01*
X155345141Y-39471582D02*
X155345141Y-39852582D01*
X164235141Y-39471582D02*
X155345141Y-39471582D01*
X162889303Y-45821582D02*
X164616141Y-45821582D01*
X166394141Y-45821582D02*
X166775141Y-45821582D01*
X167425141Y-39456581D02*
X167425141Y-40456581D01*
X167425141Y-39456581D02*
X166425141Y-39456581D01*
X154425141Y-39456581D02*
X153425141Y-39456581D01*
X153425141Y-40456581D02*
X153425141Y-39456581D01*
X166425141Y-53456581D02*
X167425141Y-53456581D01*
X166775141Y-45440582D02*
X166775141Y-45821582D01*
X153425141Y-53456581D02*
X154425141Y-53456581D01*
X153425141Y-53456581D02*
X153425141Y-52456581D01*
X166775141Y-42011582D02*
X166775141Y-42392582D01*
X162889302Y-45840542D02*
G75*
G03*
X160425141Y-43916582I-2464161J-616039D01*
G01*
X166775140Y-42011582D02*
G75*
G03*
X164235141Y-39471582I-2539999J1D01*
G01*
X136345140Y-48471583D02*
X136345140Y-48852583D01*
X148425140Y-48456582D02*
X148425140Y-49456582D01*
X134425140Y-62456582D02*
X134425140Y-61456582D01*
X147775140Y-51011583D02*
X147775140Y-51392583D01*
X136345140Y-51900583D02*
X136345140Y-52916583D01*
X147394140Y-54821583D02*
X147775140Y-54821583D01*
X135425140Y-48456582D02*
X134425140Y-48456582D01*
X143889302Y-54821583D02*
X145616140Y-54821583D01*
X147775140Y-54440583D02*
X147775140Y-54821583D01*
X147425140Y-62456582D02*
X148425140Y-62456582D01*
X134425140Y-49456582D02*
X134425140Y-48456582D01*
X148425140Y-61456582D02*
X148425140Y-62456582D01*
X136345140Y-52916583D02*
X141425140Y-52916583D01*
X148425140Y-48456582D02*
X147425140Y-48456582D01*
X134425140Y-62456582D02*
X135425140Y-62456582D01*
X145235140Y-48471583D02*
X136345140Y-48471583D01*
X143889301Y-54840543D02*
G75*
G03*
X141425140Y-52916583I-2464161J-616039D01*
G01*
X147775139Y-51011583D02*
G75*
G03*
X145235140Y-48471583I-2539999J1D01*
G01*
X128775140Y-54440582D02*
X128775140Y-54821582D01*
X117345140Y-52916582D02*
X122425140Y-52916582D01*
X128775140Y-51011582D02*
X128775140Y-51392582D01*
X117345140Y-51900582D02*
X117345140Y-52916582D01*
X115425140Y-49456581D02*
X115425140Y-48456581D01*
X124889302Y-54821582D02*
X126616140Y-54821582D01*
X129425140Y-61456581D02*
X129425140Y-62456581D01*
X115425140Y-62456581D02*
X116425140Y-62456581D01*
X115425140Y-62456581D02*
X115425140Y-61456581D01*
X129425140Y-48456581D02*
X129425140Y-49456581D01*
X126235140Y-48471582D02*
X117345140Y-48471582D01*
X128394140Y-54821582D02*
X128775140Y-54821582D01*
X117345140Y-48471582D02*
X117345140Y-48852582D01*
X129425140Y-48456581D02*
X128425140Y-48456581D01*
X128425140Y-62456581D02*
X129425140Y-62456581D01*
X116425140Y-48456581D02*
X115425140Y-48456581D01*
X128775139Y-51011582D02*
G75*
G03*
X126235140Y-48471582I-2539999J1D01*
G01*
X124889301Y-54840542D02*
G75*
G03*
X122425140Y-52916582I-2464161J-616039D01*
G01*
X223425141Y-75056582D02*
X224425141Y-75056582D01*
X212345141Y-65516583D02*
X217425141Y-65516583D01*
X224425141Y-74056582D02*
X224425141Y-75056582D01*
X223394141Y-67421583D02*
X223775141Y-67421583D01*
X224425141Y-61056582D02*
X223425141Y-61056582D01*
X219889303Y-67421583D02*
X221616141Y-67421583D01*
X221235141Y-61071583D02*
X212345141Y-61071583D01*
X224425141Y-61056582D02*
X224425141Y-62056582D01*
X210425141Y-75056582D02*
X210425141Y-74056582D01*
X212345141Y-64500583D02*
X212345141Y-65516583D01*
X211425141Y-61056582D02*
X210425141Y-61056582D01*
X210425141Y-75056582D02*
X211425141Y-75056582D01*
X223775141Y-63611583D02*
X223775141Y-63992583D01*
X210425141Y-62056582D02*
X210425141Y-61056582D01*
X223775141Y-67040583D02*
X223775141Y-67421583D01*
X212345141Y-61071583D02*
X212345141Y-61452583D01*
X219889302Y-67440543D02*
G75*
G03*
X217425141Y-65516583I-2464161J-616039D01*
G01*
X223775140Y-63611583D02*
G75*
G03*
X221235141Y-61071583I-2539999J1D01*
G01*
X202235141Y-58571581D02*
X193345141Y-58571581D01*
X191425141Y-59556580D02*
X191425141Y-58556580D01*
X205425141Y-58556580D02*
X204425141Y-58556580D01*
X193345141Y-58571581D02*
X193345141Y-58952581D01*
X204394141Y-64921581D02*
X204775141Y-64921581D01*
X193345141Y-62000581D02*
X193345141Y-63016581D01*
X204775141Y-64540581D02*
X204775141Y-64921581D01*
X193345141Y-63016581D02*
X198425141Y-63016581D01*
X192425141Y-58556580D02*
X191425141Y-58556580D01*
X191425141Y-72556580D02*
X191425141Y-71556580D01*
X205425141Y-71556580D02*
X205425141Y-72556580D01*
X205425141Y-58556580D02*
X205425141Y-59556580D01*
X191425141Y-72556580D02*
X192425141Y-72556580D01*
X200889303Y-64921581D02*
X202616141Y-64921581D01*
X204775141Y-61111581D02*
X204775141Y-61492581D01*
X204425141Y-72556580D02*
X205425141Y-72556580D01*
X204775140Y-61111581D02*
G75*
G03*
X202235141Y-58571581I-2539999J1D01*
G01*
X200889302Y-64940541D02*
G75*
G03*
X198425141Y-63016581I-2464161J-616039D01*
G01*
X174345140Y-60516583D02*
X179425140Y-60516583D01*
X181889302Y-62421583D02*
X183616140Y-62421583D01*
X174345140Y-59500583D02*
X174345140Y-60516583D01*
X172425140Y-70056582D02*
X173425140Y-70056582D01*
X186425140Y-56056582D02*
X185425140Y-56056582D01*
X183235140Y-56071583D02*
X174345140Y-56071583D01*
X185775140Y-58611583D02*
X185775140Y-58992583D01*
X185425140Y-70056582D02*
X186425140Y-70056582D01*
X186425140Y-69056582D02*
X186425140Y-70056582D01*
X185775140Y-62040583D02*
X185775140Y-62421583D01*
X185394140Y-62421583D02*
X185775140Y-62421583D01*
X172425140Y-57056582D02*
X172425140Y-56056582D01*
X172425140Y-70056582D02*
X172425140Y-69056582D01*
X174345140Y-56071583D02*
X174345140Y-56452583D01*
X173425140Y-56056582D02*
X172425140Y-56056582D01*
X186425140Y-56056582D02*
X186425140Y-57056582D01*
X181889301Y-62440543D02*
G75*
G03*
X179425140Y-60516583I-2464161J-616039D01*
G01*
X185775139Y-58611583D02*
G75*
G03*
X183235140Y-56071583I-2539999J1D01*
G01*
X167425140Y-58456582D02*
X166425140Y-58456582D01*
X167425140Y-71456582D02*
X167425140Y-72456582D01*
X167425140Y-58456582D02*
X167425140Y-59456582D01*
X154425140Y-58456582D02*
X153425140Y-58456582D01*
X166394140Y-64821583D02*
X166775140Y-64821583D01*
X166425140Y-72456582D02*
X167425140Y-72456582D01*
X166775140Y-61011583D02*
X166775140Y-61392583D01*
X153425140Y-72456582D02*
X153425140Y-71456582D01*
X153425140Y-72456582D02*
X154425140Y-72456582D01*
X164235140Y-58471583D02*
X155345140Y-58471583D01*
X155345140Y-62916583D02*
X160425140Y-62916583D01*
X166775140Y-64440583D02*
X166775140Y-64821583D01*
X155345140Y-61900583D02*
X155345140Y-62916583D01*
X162889302Y-64821583D02*
X164616140Y-64821583D01*
X153425140Y-59456582D02*
X153425140Y-58456582D01*
X155345140Y-58471583D02*
X155345140Y-58852583D01*
X162889301Y-64840543D02*
G75*
G03*
X160425140Y-62916583I-2464161J-616039D01*
G01*
X166775139Y-61011583D02*
G75*
G03*
X164235140Y-58471583I-2539999J1D01*
G01*
X136345140Y-67371583D02*
X136345140Y-67752583D01*
X145235140Y-67371583D02*
X136345140Y-67371583D01*
X148425140Y-67356582D02*
X148425140Y-68356582D01*
X134425140Y-81356582D02*
X134425140Y-80356582D01*
X147425140Y-81356582D02*
X148425140Y-81356582D01*
X136345140Y-71816583D02*
X141425140Y-71816583D01*
X147394140Y-73721583D02*
X147775140Y-73721583D01*
X134425140Y-81356582D02*
X135425140Y-81356582D01*
X148425140Y-67356582D02*
X147425140Y-67356582D01*
X143889302Y-73721583D02*
X145616140Y-73721583D01*
X148425140Y-80356582D02*
X148425140Y-81356582D01*
X135425140Y-67356582D02*
X134425140Y-67356582D01*
X147775140Y-69911583D02*
X147775140Y-70292583D01*
X134425140Y-68356582D02*
X134425140Y-67356582D01*
X147775140Y-73340583D02*
X147775140Y-73721583D01*
X136345140Y-70800583D02*
X136345140Y-71816583D01*
X147775139Y-69911583D02*
G75*
G03*
X145235140Y-67371583I-2539999J1D01*
G01*
X143889301Y-73740543D02*
G75*
G03*
X141425140Y-71816583I-2464161J-616039D01*
G01*
X116425140Y-67356582D02*
X115425140Y-67356582D01*
X115425140Y-68356582D02*
X115425140Y-67356582D01*
X129425140Y-67356582D02*
X129425140Y-68356582D01*
X117345140Y-70800583D02*
X117345140Y-71816583D01*
X128394140Y-73721583D02*
X128775140Y-73721583D01*
X128775140Y-73340583D02*
X128775140Y-73721583D01*
X115425140Y-81356582D02*
X116425140Y-81356582D01*
X128425140Y-81356582D02*
X129425140Y-81356582D01*
X117345140Y-71816583D02*
X122425140Y-71816583D01*
X117345140Y-67371583D02*
X117345140Y-67752583D01*
X126235140Y-67371583D02*
X117345140Y-67371583D01*
X129425140Y-67356582D02*
X128425140Y-67356582D01*
X124889302Y-73721583D02*
X126616140Y-73721583D01*
X115425140Y-81356582D02*
X115425140Y-80356582D01*
X128775140Y-69911583D02*
X128775140Y-70292583D01*
X129425140Y-80356582D02*
X129425140Y-81356582D01*
X128775139Y-69911583D02*
G75*
G03*
X126235140Y-67371583I-2539999J1D01*
G01*
X124889301Y-73740543D02*
G75*
G03*
X122425140Y-71816583I-2464161J-616039D01*
G01*
X224425141Y-80056580D02*
X223425141Y-80056580D01*
X210425141Y-81056580D02*
X210425141Y-80056580D01*
X210425141Y-94056580D02*
X211425141Y-94056580D01*
X223775141Y-82611581D02*
X223775141Y-82992581D01*
X210425141Y-94056580D02*
X210425141Y-93056580D01*
X223425141Y-94056580D02*
X224425141Y-94056580D01*
X224425141Y-80056580D02*
X224425141Y-81056580D01*
X212345141Y-83500581D02*
X212345141Y-84516581D01*
X212345141Y-80071581D02*
X212345141Y-80452581D01*
X212345141Y-84516581D02*
X217425141Y-84516581D01*
X224425141Y-93056580D02*
X224425141Y-94056580D01*
X219889303Y-86421581D02*
X221616141Y-86421581D01*
X223775141Y-86040581D02*
X223775141Y-86421581D01*
X221235141Y-80071581D02*
X212345141Y-80071581D01*
X211425141Y-80056580D02*
X210425141Y-80056580D01*
X223394141Y-86421581D02*
X223775141Y-86421581D01*
X219889302Y-86440541D02*
G75*
G03*
X217425141Y-84516581I-2464161J-616039D01*
G01*
X223775140Y-82611581D02*
G75*
G03*
X221235141Y-80071581I-2539999J1D01*
G01*
X205425140Y-90556582D02*
X205425140Y-91556582D01*
X191425140Y-78556582D02*
X191425140Y-77556582D01*
X193345140Y-82016583D02*
X198425140Y-82016583D01*
X191425140Y-91556582D02*
X192425140Y-91556582D01*
X204775140Y-80111583D02*
X204775140Y-80492583D01*
X193345140Y-81000583D02*
X193345140Y-82016583D01*
X204394140Y-83921583D02*
X204775140Y-83921583D01*
X191425140Y-91556582D02*
X191425140Y-90556582D01*
X204425140Y-91556582D02*
X205425140Y-91556582D01*
X205425140Y-77556582D02*
X205425140Y-78556582D01*
X192425140Y-77556582D02*
X191425140Y-77556582D01*
X205425140Y-77556582D02*
X204425140Y-77556582D01*
X200889302Y-83921583D02*
X202616140Y-83921583D01*
X202235140Y-77571583D02*
X193345140Y-77571583D01*
X204775140Y-83540583D02*
X204775140Y-83921583D01*
X193345140Y-77571583D02*
X193345140Y-77952583D01*
X200889301Y-83940543D02*
G75*
G03*
X198425140Y-82016583I-2464161J-616039D01*
G01*
X204775139Y-80111583D02*
G75*
G03*
X202235140Y-77571583I-2539999J1D01*
G01*
X186425140Y-88156582D02*
X186425140Y-89156582D01*
X173425140Y-75156582D02*
X172425140Y-75156582D01*
X172425140Y-89156582D02*
X173425140Y-89156582D01*
X185775140Y-77711583D02*
X185775140Y-78092583D01*
X183235140Y-75171583D02*
X174345140Y-75171583D01*
X185394140Y-81521583D02*
X185775140Y-81521583D01*
X172425140Y-89156582D02*
X172425140Y-88156582D01*
X174345140Y-75171583D02*
X174345140Y-75552583D01*
X186425140Y-75156582D02*
X185425140Y-75156582D01*
X186425140Y-75156582D02*
X186425140Y-76156582D01*
X185425140Y-89156582D02*
X186425140Y-89156582D01*
X181889302Y-81521583D02*
X183616140Y-81521583D01*
X174345140Y-79616583D02*
X179425140Y-79616583D01*
X185775140Y-81140583D02*
X185775140Y-81521583D01*
X174345140Y-78600583D02*
X174345140Y-79616583D01*
X172425140Y-76156582D02*
X172425140Y-75156582D01*
X185775139Y-77711583D02*
G75*
G03*
X183235140Y-75171583I-2539999J1D01*
G01*
X181889301Y-81540543D02*
G75*
G03*
X179425140Y-79616583I-2464161J-616039D01*
G01*
X166425141Y-91556581D02*
X167425141Y-91556581D01*
X153425141Y-91556581D02*
X153425141Y-90556581D01*
X155345141Y-77571582D02*
X155345141Y-77952582D01*
X166394141Y-83921582D02*
X166775141Y-83921582D01*
X167425141Y-77556581D02*
X166425141Y-77556581D01*
X155345141Y-81000582D02*
X155345141Y-82016582D01*
X167425141Y-90556581D02*
X167425141Y-91556581D01*
X167425141Y-77556581D02*
X167425141Y-78556581D01*
X153425141Y-91556581D02*
X154425141Y-91556581D01*
X166775141Y-83540582D02*
X166775141Y-83921582D01*
X166775141Y-80111582D02*
X166775141Y-80492582D01*
X155345141Y-82016582D02*
X160425141Y-82016582D01*
X162889303Y-83921582D02*
X164616141Y-83921582D01*
X153425141Y-78556581D02*
X153425141Y-77556581D01*
X154425141Y-77556581D02*
X153425141Y-77556581D01*
X164235141Y-77571582D02*
X155345141Y-77571582D01*
X166775140Y-80111582D02*
G75*
G03*
X164235141Y-77571582I-2539999J1D01*
G01*
X162889302Y-83940542D02*
G75*
G03*
X160425141Y-82016582I-2464161J-616039D01*
G01*
X134425140Y-100556582D02*
X134425140Y-99556582D01*
X148425140Y-99556582D02*
X148425140Y-100556582D01*
X147775140Y-92540583D02*
X147775140Y-92921583D01*
X135425140Y-86556582D02*
X134425140Y-86556582D01*
X136345140Y-91016583D02*
X141425140Y-91016583D01*
X147775140Y-89111583D02*
X147775140Y-89492583D01*
X136345140Y-90000583D02*
X136345140Y-91016583D01*
X136345140Y-86571583D02*
X136345140Y-86952583D01*
X148425140Y-86556582D02*
X148425140Y-87556582D01*
X134425140Y-100556582D02*
X135425140Y-100556582D01*
X145235140Y-86571583D02*
X136345140Y-86571583D01*
X143889302Y-92921583D02*
X145616140Y-92921583D01*
X147394140Y-92921583D02*
X147775140Y-92921583D01*
X134425140Y-87556582D02*
X134425140Y-86556582D01*
X148425140Y-86556582D02*
X147425140Y-86556582D01*
X147425140Y-100556582D02*
X148425140Y-100556582D01*
X147775139Y-89111583D02*
G75*
G03*
X145235140Y-86571583I-2539999J1D01*
G01*
X143889301Y-92940543D02*
G75*
G03*
X141425140Y-91016583I-2464161J-616039D01*
G01*
X117345140Y-86571581D02*
X117345140Y-86952581D01*
X128394140Y-92921581D02*
X128775140Y-92921581D01*
X117345140Y-90000581D02*
X117345140Y-91016581D01*
X129425140Y-86556580D02*
X129425140Y-87556580D01*
X116425140Y-86556580D02*
X115425140Y-86556580D01*
X128775140Y-89111581D02*
X128775140Y-89492581D01*
X128425140Y-100556580D02*
X129425140Y-100556580D01*
X115425140Y-87556580D02*
X115425140Y-86556580D01*
X115425140Y-100556580D02*
X116425140Y-100556580D01*
X129425140Y-86556580D02*
X128425140Y-86556580D01*
X129425140Y-99556580D02*
X129425140Y-100556580D01*
X115425140Y-100556580D02*
X115425140Y-99556580D01*
X117345140Y-91016581D02*
X122425140Y-91016581D01*
X128775140Y-92540581D02*
X128775140Y-92921581D01*
X126235140Y-86571581D02*
X117345140Y-86571581D01*
X124889302Y-92921581D02*
X126616140Y-92921581D01*
X124889301Y-92940541D02*
G75*
G03*
X122425140Y-91016581I-2464161J-616039D01*
G01*
X128775139Y-89111581D02*
G75*
G03*
X126235140Y-86571581I-2539999J1D01*
G01*
X210425141Y-113056581D02*
X210425141Y-112056581D01*
X219889303Y-105421582D02*
X221616141Y-105421582D01*
X212345141Y-99071582D02*
X212345141Y-99452582D01*
X224425141Y-99056581D02*
X224425141Y-100056581D01*
X224425141Y-99056581D02*
X223425141Y-99056581D01*
X211425141Y-99056581D02*
X210425141Y-99056581D01*
X210425141Y-100056581D02*
X210425141Y-99056581D01*
X210425141Y-113056581D02*
X211425141Y-113056581D01*
X223775141Y-101611582D02*
X223775141Y-101992582D01*
X223394141Y-105421582D02*
X223775141Y-105421582D01*
X224425141Y-112056581D02*
X224425141Y-113056581D01*
X223425141Y-113056581D02*
X224425141Y-113056581D01*
X212345141Y-103516582D02*
X217425141Y-103516582D01*
X221235141Y-99071582D02*
X212345141Y-99071582D01*
X223775141Y-105040582D02*
X223775141Y-105421582D01*
X212345141Y-102500582D02*
X212345141Y-103516582D01*
X219889302Y-105440542D02*
G75*
G03*
X217425141Y-103516582I-2464161J-616039D01*
G01*
X223775140Y-101611582D02*
G75*
G03*
X221235141Y-99071582I-2539999J1D01*
G01*
X191425141Y-110656580D02*
X191425141Y-109656580D01*
X204425141Y-110656580D02*
X205425141Y-110656580D01*
X205425141Y-96656580D02*
X205425141Y-97656580D01*
X193345141Y-101116581D02*
X198425141Y-101116581D01*
X204775141Y-102640581D02*
X204775141Y-103021581D01*
X192425141Y-96656580D02*
X191425141Y-96656580D01*
X191425141Y-97656580D02*
X191425141Y-96656580D01*
X204394141Y-103021581D02*
X204775141Y-103021581D01*
X205425141Y-109656580D02*
X205425141Y-110656580D01*
X191425141Y-110656580D02*
X192425141Y-110656580D01*
X204775141Y-99211581D02*
X204775141Y-99592581D01*
X205425141Y-96656580D02*
X204425141Y-96656580D01*
X193345141Y-96671581D02*
X193345141Y-97052581D01*
X200889303Y-103021581D02*
X202616141Y-103021581D01*
X193345141Y-100100581D02*
X193345141Y-101116581D01*
X202235141Y-96671581D02*
X193345141Y-96671581D01*
X200889302Y-103040541D02*
G75*
G03*
X198425141Y-101116581I-2464161J-616039D01*
G01*
X204775140Y-99211581D02*
G75*
G03*
X202235141Y-96671581I-2539999J1D01*
G01*
X185425140Y-108156582D02*
X186425140Y-108156582D01*
X172425140Y-108156582D02*
X172425140Y-107156582D01*
X186425140Y-94156582D02*
X185425140Y-94156582D01*
X174345140Y-94171583D02*
X174345140Y-94552583D01*
X173425140Y-94156582D02*
X172425140Y-94156582D01*
X172425140Y-108156582D02*
X173425140Y-108156582D01*
X174345140Y-97600583D02*
X174345140Y-98616583D01*
X183235140Y-94171583D02*
X174345140Y-94171583D01*
X185775140Y-96711583D02*
X185775140Y-97092583D01*
X186425140Y-107156582D02*
X186425140Y-108156582D01*
X172425140Y-95156582D02*
X172425140Y-94156582D01*
X186425140Y-94156582D02*
X186425140Y-95156582D01*
X185775140Y-100140583D02*
X185775140Y-100521583D01*
X185394140Y-100521583D02*
X185775140Y-100521583D01*
X181889302Y-100521583D02*
X183616140Y-100521583D01*
X174345140Y-98616583D02*
X179425140Y-98616583D01*
X185775139Y-96711583D02*
G75*
G03*
X183235140Y-94171583I-2539999J1D01*
G01*
X181889301Y-100540543D02*
G75*
G03*
X179425140Y-98616583I-2464161J-616039D01*
G01*
X167425140Y-96656581D02*
X166425140Y-96656581D01*
X167425140Y-96656581D02*
X167425140Y-97656581D01*
X166775140Y-102640582D02*
X166775140Y-103021582D01*
X155345140Y-96671582D02*
X155345140Y-97052582D01*
X155345140Y-101116582D02*
X160425140Y-101116582D01*
X155345140Y-100100582D02*
X155345140Y-101116582D01*
X153425140Y-97656581D02*
X153425140Y-96656581D01*
X167425140Y-109656581D02*
X167425140Y-110656581D01*
X153425140Y-110656581D02*
X153425140Y-109656581D01*
X166394140Y-103021582D02*
X166775140Y-103021582D01*
X153425140Y-110656581D02*
X154425140Y-110656581D01*
X164235140Y-96671582D02*
X155345140Y-96671582D01*
X166775140Y-99211582D02*
X166775140Y-99592582D01*
X154425140Y-96656581D02*
X153425140Y-96656581D01*
X162889302Y-103021582D02*
X164616140Y-103021582D01*
X166425140Y-110656581D02*
X167425140Y-110656581D01*
X162889301Y-103040542D02*
G75*
G03*
X160425140Y-101116582I-2464161J-616039D01*
G01*
X166775139Y-99211582D02*
G75*
G03*
X164235140Y-96671582I-2539999J1D01*
G01*
X134425140Y-119556582D02*
X134425140Y-118556582D01*
X148425140Y-118556582D02*
X148425140Y-119556582D01*
X136345140Y-109000583D02*
X136345140Y-110016583D01*
X147775140Y-111540583D02*
X147775140Y-111921583D01*
X147394140Y-111921583D02*
X147775140Y-111921583D01*
X143889302Y-111921583D02*
X145616140Y-111921583D01*
X134425140Y-106556582D02*
X134425140Y-105556582D01*
X135425140Y-105556582D02*
X134425140Y-105556582D01*
X136345140Y-110016583D02*
X141425140Y-110016583D01*
X145235140Y-105571583D02*
X136345140Y-105571583D01*
X148425140Y-105556582D02*
X147425140Y-105556582D01*
X136345140Y-105571583D02*
X136345140Y-105952583D01*
X147425140Y-119556582D02*
X148425140Y-119556582D01*
X134425140Y-119556582D02*
X135425140Y-119556582D01*
X147775140Y-108111583D02*
X147775140Y-108492583D01*
X148425140Y-105556582D02*
X148425140Y-106556582D01*
X143889301Y-111940543D02*
G75*
G03*
X141425140Y-110016583I-2464161J-616039D01*
G01*
X147775139Y-108111583D02*
G75*
G03*
X145235140Y-105571583I-2539999J1D01*
G01*
X115375141Y-106556582D02*
X115375141Y-105556582D01*
X129375141Y-105556582D02*
X129375141Y-106556582D01*
X124839303Y-111921583D02*
X126566141Y-111921583D01*
X129375141Y-105556582D02*
X128375141Y-105556582D01*
X115375141Y-119556582D02*
X115375141Y-118556582D01*
X117295141Y-105571583D02*
X117295141Y-105952583D01*
X128375141Y-119556582D02*
X129375141Y-119556582D01*
X115375141Y-119556582D02*
X116375141Y-119556582D01*
X129375141Y-118556582D02*
X129375141Y-119556582D01*
X128725141Y-111540583D02*
X128725141Y-111921583D01*
X117295141Y-109000583D02*
X117295141Y-110016583D01*
X117295141Y-110016583D02*
X122375141Y-110016583D01*
X128725141Y-108111583D02*
X128725141Y-108492583D01*
X116375141Y-105556582D02*
X115375141Y-105556582D01*
X128344141Y-111921583D02*
X128725141Y-111921583D01*
X126185141Y-105571583D02*
X117295141Y-105571583D01*
X124839302Y-111940543D02*
G75*
G03*
X122375141Y-110016583I-2464161J-616039D01*
G01*
X128725140Y-108111583D02*
G75*
G03*
X126185141Y-105571583I-2539999J1D01*
G01*
X243787319Y-141928758D02*
X242921293Y-141428758D01*
X232162963Y-134062732D02*
X231662963Y-134928758D01*
X249921293Y-129304402D02*
X250787319Y-129804402D01*
X238662963Y-122804402D02*
X238162963Y-123670428D01*
X232528989Y-135428758D02*
X231662963Y-134928758D01*
X250287319Y-130670428D02*
X250787319Y-129804402D01*
X238790566Y-137853385D02*
X238600066Y-138183341D01*
X243787319Y-141928758D02*
X244287319Y-141062732D01*
X245964845Y-129237170D02*
X243424845Y-133636580D01*
X245369328Y-139158636D02*
X249814328Y-131459670D01*
X241899623Y-140088341D02*
X241569667Y-139897841D01*
X240542985Y-134818106D02*
X239679566Y-136313592D01*
X238662963Y-122804402D02*
X239528989Y-123304402D01*
X238930022Y-138373841D02*
X238600066Y-138183341D01*
X249814328Y-131459670D02*
X249484372Y-131269170D01*
X246844726Y-129745170D02*
X245964845Y-129237170D01*
X240526565Y-134808627D02*
G75*
G03*
X243424845Y-133636580I698574J2442050D01*
G01*
X241899624Y-140088340D02*
G75*
G03*
X245369328Y-139158636I1270000J2199703D01*
G01*
X229503792Y-123648166D02*
X228583287Y-123257435D01*
X216641432Y-123033586D02*
X221317597Y-125018501D01*
X227907145Y-125746082D02*
X227758277Y-126096794D01*
X226567328Y-128902493D02*
X226418460Y-129253205D01*
X226561520Y-122415542D02*
X218378232Y-118941942D01*
X211146488Y-131064998D02*
X212066993Y-131455729D01*
X211146488Y-131064998D02*
X211537219Y-130144493D01*
X217537229Y-118568661D02*
X216616724Y-118177930D01*
X222841527Y-127734887D02*
X224431090Y-128409616D01*
X217038415Y-122098354D02*
X216641432Y-123033586D01*
X223113051Y-136144503D02*
X224033556Y-136535234D01*
X229503792Y-123648166D02*
X229113061Y-124568671D01*
X224424287Y-135614729D02*
X224033556Y-136535234D01*
X216225993Y-119098435D02*
X216616724Y-118177930D01*
X226067747Y-129104336D02*
X226418460Y-129253205D01*
X218378232Y-118941942D02*
X218229363Y-119292655D01*
X227907145Y-125746082D02*
G75*
G03*
X226561520Y-122415542I-2338082J992458D01*
G01*
X222834118Y-127752340D02*
G75*
G03*
X221317597Y-125018501I-2508978J395758D01*
G01*
X202235140Y-115771582D02*
X193345140Y-115771582D01*
X192425140Y-115756581D02*
X191425140Y-115756581D01*
X193345140Y-120216582D02*
X198425140Y-120216582D01*
X200889302Y-122121582D02*
X202616140Y-122121582D01*
X191425140Y-129756581D02*
X192425140Y-129756581D01*
X205425140Y-128756581D02*
X205425140Y-129756581D01*
X191425140Y-129756581D02*
X191425140Y-128756581D01*
X193345140Y-115771582D02*
X193345140Y-116152582D01*
X205425140Y-115756581D02*
X204425140Y-115756581D01*
X193345140Y-119200582D02*
X193345140Y-120216582D01*
X204775140Y-121740582D02*
X204775140Y-122121582D01*
X204394140Y-122121582D02*
X204775140Y-122121582D01*
X204425140Y-129756581D02*
X205425140Y-129756581D01*
X205425140Y-115756581D02*
X205425140Y-116756581D01*
X204775140Y-118311582D02*
X204775140Y-118692582D01*
X191425140Y-116756581D02*
X191425140Y-115756581D01*
X204775139Y-118311582D02*
G75*
G03*
X202235140Y-115771582I-2539999J1D01*
G01*
X200889301Y-122140542D02*
G75*
G03*
X198425140Y-120216582I-2464161J-616039D01*
G01*
X183235140Y-113171583D02*
X174345140Y-113171583D01*
X172425140Y-127156582D02*
X173425140Y-127156582D01*
X186425140Y-113156582D02*
X185425140Y-113156582D01*
X185394140Y-119521583D02*
X185775140Y-119521583D01*
X173425140Y-113156582D02*
X172425140Y-113156582D01*
X186425140Y-126156582D02*
X186425140Y-127156582D01*
X172425140Y-114156582D02*
X172425140Y-113156582D01*
X185425140Y-127156582D02*
X186425140Y-127156582D01*
X174345140Y-117616583D02*
X179425140Y-117616583D01*
X174345140Y-116600583D02*
X174345140Y-117616583D01*
X185775140Y-115711583D02*
X185775140Y-116092583D01*
X185775140Y-119140583D02*
X185775140Y-119521583D01*
X174345140Y-113171583D02*
X174345140Y-113552583D01*
X181889302Y-119521583D02*
X183616140Y-119521583D01*
X186425140Y-113156582D02*
X186425140Y-114156582D01*
X172425140Y-127156582D02*
X172425140Y-126156582D01*
X185775139Y-115711583D02*
G75*
G03*
X183235140Y-113171583I-2539999J1D01*
G01*
X181889301Y-119540543D02*
G75*
G03*
X179425140Y-117616583I-2464161J-616039D01*
G01*
X155345141Y-115671582D02*
X155345141Y-116052582D01*
X166775141Y-118211582D02*
X166775141Y-118592582D01*
X167425141Y-115656581D02*
X167425141Y-116656581D01*
X153425141Y-129656581D02*
X153425141Y-128656581D01*
X155345141Y-120116582D02*
X160425141Y-120116582D01*
X155345141Y-119100582D02*
X155345141Y-120116582D01*
X164235141Y-115671582D02*
X155345141Y-115671582D01*
X154425141Y-115656581D02*
X153425141Y-115656581D01*
X153425141Y-116656581D02*
X153425141Y-115656581D01*
X167425141Y-115656581D02*
X166425141Y-115656581D01*
X166775141Y-121640582D02*
X166775141Y-122021582D01*
X167425141Y-128656581D02*
X167425141Y-129656581D01*
X153425141Y-129656581D02*
X154425141Y-129656581D01*
X162889303Y-122021582D02*
X164616141Y-122021582D01*
X166394141Y-122021582D02*
X166775141Y-122021582D01*
X166425141Y-129656581D02*
X167425141Y-129656581D01*
X162889302Y-122040542D02*
G75*
G03*
X160425141Y-120116582I-2464161J-616039D01*
G01*
X166775140Y-118211582D02*
G75*
G03*
X164235141Y-115671582I-2539999J1D01*
G01*
X74482640Y-70950582D02*
X74482640Y-71966582D01*
X83372640Y-67521582D02*
X74482640Y-67521582D01*
X86562640Y-67506582D02*
X85562640Y-67506582D01*
X72562640Y-81506582D02*
X73562640Y-81506582D01*
X74482640Y-71966582D02*
X79562640Y-71966582D01*
X85531640Y-73871582D02*
X85912640Y-73871582D01*
X85562640Y-81506582D02*
X86562640Y-81506582D01*
X72562640Y-81506582D02*
X72562640Y-80506582D01*
X86562640Y-80506582D02*
X86562640Y-81506582D01*
X85912640Y-73490582D02*
X85912640Y-73871582D01*
X73562640Y-67506582D02*
X72562640Y-67506582D01*
X72562640Y-68506582D02*
X72562640Y-67506582D01*
X74482640Y-67521582D02*
X74482640Y-67902582D01*
X82026802Y-73871582D02*
X83753640Y-73871582D01*
X86562640Y-67506582D02*
X86562640Y-68506582D01*
X85912640Y-70061582D02*
X85912640Y-70442582D01*
X85912640Y-70061582D02*
G75*
G03*
X83372640Y-67521582I-2540000J0D01*
G01*
X82026802Y-73890542D02*
G75*
G03*
X79562640Y-71966582I-2464162J-616040D01*
G01*
X91612641Y-62456582D02*
X92612641Y-62456582D01*
X104581641Y-54821583D02*
X104962641Y-54821583D01*
X105612641Y-61456582D02*
X105612641Y-62456582D01*
X104962641Y-51011583D02*
X104962641Y-51392583D01*
X105612641Y-48456582D02*
X105612641Y-49456582D01*
X93532641Y-48471583D02*
X93532641Y-48852583D01*
X92612641Y-48456582D02*
X91612641Y-48456582D01*
X93532641Y-52916583D02*
X98612641Y-52916583D01*
X104962641Y-54440583D02*
X104962641Y-54821583D01*
X91612641Y-62456582D02*
X91612641Y-61456582D01*
X91612641Y-49456582D02*
X91612641Y-48456582D01*
X102422641Y-48471583D02*
X93532641Y-48471583D01*
X101076803Y-54821583D02*
X102803641Y-54821583D01*
X93532641Y-51900583D02*
X93532641Y-52916583D01*
X105612641Y-48456582D02*
X104612641Y-48456582D01*
X104612641Y-62456582D02*
X105612641Y-62456582D01*
X104962640Y-51011583D02*
G75*
G03*
X102422641Y-48471583I-2539999J1D01*
G01*
X101076802Y-54840543D02*
G75*
G03*
X98612641Y-52916583I-2464161J-616039D01*
G01*
D14*
X227137140Y-37908581D02*
X227137140Y-88581581D01*
X231177140Y-87438581D02*
X231177140Y-37146581D01*
X243877140Y-87438581D02*
X243877140Y-37146581D01*
X246647140Y-89851581D02*
X247917140Y-88581581D01*
X247917140Y-37908581D02*
X247155140Y-37146581D01*
X246647140Y-89851581D02*
X228407140Y-89851581D01*
X247917140Y-37908581D02*
X247917140Y-88581581D01*
X227899140Y-37146581D02*
X227137140Y-37908581D01*
X247155140Y-37146581D02*
X227899140Y-37146581D01*
X227137140Y-88581581D02*
X228407140Y-89851581D01*
X249589141Y-53386581D02*
X249589141Y-51386581D01*
X252389141Y-53386581D02*
X249589141Y-53386581D01*
X249589141Y-51386581D02*
X252389141Y-51386581D01*
X252389141Y-51386581D02*
X252389141Y-53386581D01*
X53946000Y-101174000D02*
X53946000Y-102249000D01*
X59846000Y-101174000D02*
X53946000Y-101174000D01*
X59846000Y-105074000D02*
X53946000Y-105074000D01*
D12*
X53512641Y-81506581D02*
X54512641Y-81506581D01*
X66862641Y-73490582D02*
X66862641Y-73871582D01*
X67512641Y-67506581D02*
X66512641Y-67506581D01*
X67512641Y-80506581D02*
X67512641Y-81506581D01*
X66862641Y-70061582D02*
X66862641Y-70442582D01*
X55432641Y-71966582D02*
X60512641Y-71966582D01*
X66512641Y-81506581D02*
X67512641Y-81506581D01*
X55432641Y-70950582D02*
X55432641Y-71966582D01*
X64322641Y-67521582D02*
X55432641Y-67521582D01*
X53512641Y-81506581D02*
X53512641Y-80506581D01*
X62976803Y-73871582D02*
X64703641Y-73871582D01*
X53512641Y-68506581D02*
X53512641Y-67506581D01*
X55432641Y-67521582D02*
X55432641Y-67902582D01*
X66481641Y-73871582D02*
X66862641Y-73871582D01*
X67512641Y-67506581D02*
X67512641Y-68506581D01*
X54512641Y-67506581D02*
X53512641Y-67506581D01*
X62976802Y-73890542D02*
G75*
G03*
X60512641Y-71966582I-2464161J-616039D01*
G01*
X66862640Y-70061582D02*
G75*
G03*
X64322641Y-67521582I-2539999J1D01*
G01*
D14*
X139036000Y-100920000D02*
X139036000Y-101995000D01*
X144936000Y-100920000D02*
X139036000Y-100920000D01*
X144936000Y-104820000D02*
X139036000Y-104820000D01*
X87743420Y-106428000D02*
X88024580Y-106428000D01*
X87743420Y-105408000D02*
X88024580Y-105408000D01*
D12*
X91612641Y-68506581D02*
X91612641Y-67506581D01*
X102422641Y-67521581D02*
X93532641Y-67521581D01*
X93532641Y-71966581D02*
X98612641Y-71966581D01*
X105612641Y-80506581D02*
X105612641Y-81506581D01*
X91612641Y-81506581D02*
X92612641Y-81506581D01*
X101076803Y-73871581D02*
X102803641Y-73871581D01*
X104962641Y-70061581D02*
X104962641Y-70442581D01*
X104612641Y-81506581D02*
X105612641Y-81506581D01*
X104962641Y-73490581D02*
X104962641Y-73871581D01*
X105612641Y-67506581D02*
X105612641Y-68506581D01*
X92612641Y-67506581D02*
X91612641Y-67506581D01*
X91612641Y-81506581D02*
X91612641Y-80506581D01*
X104581641Y-73871581D02*
X104962641Y-73871581D01*
X105612641Y-67506581D02*
X104612641Y-67506581D01*
X93532641Y-70950581D02*
X93532641Y-71966581D01*
X93532641Y-67521581D02*
X93532641Y-67902581D01*
X101076803Y-73890541D02*
G75*
G03*
X98612641Y-71966581I-2464162J-616040D01*
G01*
X104962641Y-70061581D02*
G75*
G03*
X102422641Y-67521581I-2540000J0D01*
G01*
D14*
X175146580Y-110742000D02*
X174865420Y-110742000D01*
X175146580Y-111762000D02*
X174865420Y-111762000D01*
X182528000Y-108032000D02*
X176628000Y-108032000D01*
X182528000Y-111932000D02*
X176628000Y-111932000D01*
X176628000Y-108032000D02*
X176628000Y-109107000D01*
X241337140Y-39674800D02*
X241337140Y-59994800D01*
X237273140Y-59359800D02*
X237273140Y-40309800D01*
X243242140Y-39674800D02*
X237908140Y-39674800D01*
X243877140Y-59359800D02*
X243877140Y-40309800D01*
X243242140Y-59994800D02*
X237908140Y-59994800D01*
X243242140Y-59994800D02*
G75*
G03*
X243877140Y-59359800I0J635000D01*
G01*
X243877140Y-40309800D02*
G75*
G03*
X243242140Y-39674800I-635000J0D01*
G01*
X237273140Y-59359800D02*
G75*
G03*
X237908140Y-59994800I634999J-1D01*
G01*
X237908140Y-39674800D02*
G75*
G03*
X237273140Y-40309800I-1J-634999D01*
G01*
D12*
X104962641Y-111590582D02*
X104962641Y-111971582D01*
X105612641Y-105606581D02*
X104612641Y-105606581D01*
X104612641Y-119606581D02*
X105612641Y-119606581D01*
X104962641Y-108161582D02*
X104962641Y-108542582D01*
X93532641Y-110066582D02*
X98612641Y-110066582D01*
X93532641Y-105621582D02*
X93532641Y-106002582D01*
X101076803Y-111971582D02*
X102803641Y-111971582D01*
X91612641Y-119606581D02*
X91612641Y-118606581D01*
X104581641Y-111971582D02*
X104962641Y-111971582D01*
X105612641Y-118606581D02*
X105612641Y-119606581D01*
X93532641Y-109050582D02*
X93532641Y-110066582D01*
X91612641Y-119606581D02*
X92612641Y-119606581D01*
X102422641Y-105621582D02*
X93532641Y-105621582D01*
X91612641Y-106606581D02*
X91612641Y-105606581D01*
X92612641Y-105606581D02*
X91612641Y-105606581D01*
X105612641Y-105606581D02*
X105612641Y-106606581D01*
X104962640Y-108161582D02*
G75*
G03*
X102422641Y-105621582I-2539999J1D01*
G01*
X101076802Y-111990542D02*
G75*
G03*
X98612641Y-110066582I-2464161J-616039D01*
G01*
D14*
X91072580Y-59434000D02*
X90791420Y-59434000D01*
X91072580Y-60454000D02*
X90791420Y-60454000D01*
X257453290Y-69590000D02*
X257453290Y-78750000D01*
X257453290Y-78750000D02*
X255748290Y-78750000D01*
X255748290Y-69590000D02*
X257453290Y-69590000D01*
X251818290Y-78750000D02*
X253738290Y-78750000D01*
X253738290Y-69590000D02*
X251818290Y-69590000D01*
X213870000Y-113424580D02*
X213870000Y-113143420D01*
X212850000Y-113424580D02*
X212850000Y-113143420D01*
X143142580Y-62740000D02*
X142861420Y-62740000D01*
X143142580Y-61720000D02*
X142861420Y-61720000D01*
D12*
X86562641Y-48456580D02*
X86562641Y-49456580D01*
X72562641Y-49456580D02*
X72562641Y-48456580D01*
X85531641Y-54821581D02*
X85912641Y-54821581D01*
X82026803Y-54821581D02*
X83753641Y-54821581D01*
X85562641Y-62456580D02*
X86562641Y-62456580D01*
X72562641Y-62456580D02*
X72562641Y-61456580D01*
X85912641Y-54440581D02*
X85912641Y-54821581D01*
X74482641Y-48471581D02*
X74482641Y-48852581D01*
X85912641Y-51011581D02*
X85912641Y-51392581D01*
X74482641Y-51900581D02*
X74482641Y-52916581D01*
X73562641Y-48456580D02*
X72562641Y-48456580D01*
X83372641Y-48471581D02*
X74482641Y-48471581D01*
X86562641Y-61456580D02*
X86562641Y-62456580D01*
X86562641Y-48456580D02*
X85562641Y-48456580D01*
X72562641Y-62456580D02*
X73562641Y-62456580D01*
X74482641Y-52916581D02*
X79562641Y-52916581D01*
X82026802Y-54840541D02*
G75*
G03*
X79562641Y-52916581I-2464161J-616039D01*
G01*
X85912640Y-51011581D02*
G75*
G03*
X83372641Y-48471581I-2539999J1D01*
G01*
D14*
X180988580Y-50802000D02*
X180707420Y-50802000D01*
X180988580Y-49782000D02*
X180707420Y-49782000D01*
D12*
X55432641Y-109050582D02*
X55432641Y-110066582D01*
X66512641Y-119606581D02*
X67512641Y-119606581D01*
X66481641Y-111971582D02*
X66862641Y-111971582D01*
X67512641Y-118606581D02*
X67512641Y-119606581D01*
X53512641Y-119606581D02*
X53512641Y-118606581D01*
X62976803Y-111971582D02*
X64703641Y-111971582D01*
X53512641Y-119606581D02*
X54512641Y-119606581D01*
X64322641Y-105621582D02*
X55432641Y-105621582D01*
X67512641Y-105606581D02*
X66512641Y-105606581D01*
X67512641Y-105606581D02*
X67512641Y-106606581D01*
X53512641Y-106606581D02*
X53512641Y-105606581D01*
X55432641Y-105621582D02*
X55432641Y-106002582D01*
X54512641Y-105606581D02*
X53512641Y-105606581D01*
X66862641Y-108161582D02*
X66862641Y-108542582D01*
X66862641Y-111590582D02*
X66862641Y-111971582D01*
X55432641Y-110066582D02*
X60512641Y-110066582D01*
X62976802Y-111990542D02*
G75*
G03*
X60512641Y-110066582I-2464161J-616039D01*
G01*
X66862640Y-108161582D02*
G75*
G03*
X64322641Y-105621582I-2539999J1D01*
G01*
D14*
X53946000Y-65196000D02*
X59846000Y-65196000D01*
X59846000Y-65196000D02*
X59846000Y-64121000D01*
X53946000Y-61296000D02*
X59846000Y-61296000D01*
X86204000Y-64942000D02*
X92104000Y-64942000D01*
X92104000Y-64942000D02*
X92104000Y-63867000D01*
X86204000Y-61042000D02*
X92104000Y-61042000D01*
X257311141Y-84236580D02*
X256021141Y-84236580D01*
X254221141Y-87586580D02*
X255011141Y-87586580D01*
X257521141Y-85336580D02*
X257521141Y-84436580D01*
X257311141Y-85536580D02*
X257521141Y-85336580D01*
X256021141Y-85536580D02*
X257311141Y-85536580D01*
X253171141Y-85736580D02*
X253171141Y-84036580D01*
X255011141Y-80686580D02*
X254221141Y-80686580D01*
X256021141Y-86986580D02*
X256021141Y-81286580D01*
X257311141Y-84236580D02*
X257521141Y-84436580D01*
X253171141Y-82736580D02*
X253171141Y-82536580D01*
D12*
X55432641Y-48471583D02*
X55432641Y-48852583D01*
X66862641Y-54440583D02*
X66862641Y-54821583D01*
X54512641Y-48456582D02*
X53512641Y-48456582D01*
X66481641Y-54821583D02*
X66862641Y-54821583D01*
X66512641Y-62456582D02*
X67512641Y-62456582D01*
X53512641Y-62456582D02*
X53512641Y-61456582D01*
X53512641Y-49456582D02*
X53512641Y-48456582D01*
X64322641Y-48471583D02*
X55432641Y-48471583D01*
X67512641Y-48456582D02*
X67512641Y-49456582D01*
X66862641Y-51011583D02*
X66862641Y-51392583D01*
X53512641Y-62456582D02*
X54512641Y-62456582D01*
X67512641Y-48456582D02*
X66512641Y-48456582D01*
X62976803Y-54821583D02*
X64703641Y-54821583D01*
X55432641Y-51900583D02*
X55432641Y-52916583D01*
X67512641Y-61456582D02*
X67512641Y-62456582D01*
X55432641Y-52916583D02*
X60512641Y-52916583D01*
X66862640Y-51011583D02*
G75*
G03*
X64322641Y-48471583I-2539999J1D01*
G01*
X62976802Y-54840543D02*
G75*
G03*
X60512641Y-52916583I-2464161J-616039D01*
G01*
D14*
X214220000Y-113366000D02*
X214220000Y-114441000D01*
X220120000Y-113366000D02*
X214220000Y-113366000D01*
X220120000Y-117266000D02*
X214220000Y-117266000D01*
D12*
X55432641Y-86571583D02*
X55432641Y-86952583D01*
X55432641Y-90000583D02*
X55432641Y-91016583D01*
X67512641Y-86556582D02*
X67512641Y-87556582D01*
X53512641Y-100556582D02*
X54512641Y-100556582D01*
X66512641Y-100556582D02*
X67512641Y-100556582D01*
X53512641Y-100556582D02*
X53512641Y-99556582D01*
X67512641Y-99556582D02*
X67512641Y-100556582D01*
X67512641Y-86556582D02*
X66512641Y-86556582D01*
X54512641Y-86556582D02*
X53512641Y-86556582D01*
X64322641Y-86571583D02*
X55432641Y-86571583D01*
X66862641Y-92540583D02*
X66862641Y-92921583D01*
X55432641Y-91016583D02*
X60512641Y-91016583D01*
X53512641Y-87556582D02*
X53512641Y-86556582D01*
X66862641Y-89111583D02*
X66862641Y-89492583D01*
X62976803Y-92921583D02*
X64703641Y-92921583D01*
X66481641Y-92921583D02*
X66862641Y-92921583D01*
X62976802Y-92940543D02*
G75*
G03*
X60512641Y-91016583I-2464161J-616039D01*
G01*
X66862640Y-89111583D02*
G75*
G03*
X64322641Y-86571583I-2539999J1D01*
G01*
D14*
X137554580Y-104650000D02*
X137273420Y-104650000D01*
X137554580Y-103630000D02*
X137273420Y-103630000D01*
D12*
X85562640Y-119606582D02*
X86562640Y-119606582D01*
X72562640Y-119606582D02*
X73562640Y-119606582D01*
X74482640Y-105621583D02*
X74482640Y-106002583D01*
X72562640Y-106606582D02*
X72562640Y-105606582D01*
X85912640Y-108161583D02*
X85912640Y-108542583D01*
X74482640Y-110066583D02*
X79562640Y-110066583D01*
X86562640Y-105606582D02*
X85562640Y-105606582D01*
X83372640Y-105621583D02*
X74482640Y-105621583D01*
X72562640Y-119606582D02*
X72562640Y-118606582D01*
X74482640Y-109050583D02*
X74482640Y-110066583D01*
X86562640Y-118606582D02*
X86562640Y-119606582D01*
X82026802Y-111971583D02*
X83753640Y-111971583D01*
X85912640Y-111590583D02*
X85912640Y-111971583D01*
X85531640Y-111971583D02*
X85912640Y-111971583D01*
X86562640Y-105606582D02*
X86562640Y-106606582D01*
X73562640Y-105606582D02*
X72562640Y-105606582D01*
X85912639Y-108161583D02*
G75*
G03*
X83372640Y-105621583I-2539999J1D01*
G01*
X82026801Y-111990543D02*
G75*
G03*
X79562640Y-110066583I-2464161J-616039D01*
G01*
D14*
X58025420Y-59942000D02*
X58306580Y-59942000D01*
X58025420Y-60962000D02*
X58306580Y-60962000D01*
X116062000Y-76008000D02*
X116062000Y-77408000D01*
X114762000Y-75308000D02*
X115362000Y-75308000D01*
X115362000Y-78108000D02*
X114762000Y-78108000D01*
X114062000Y-77408000D02*
X114062000Y-76008000D01*
X115362000Y-78108000D02*
G75*
G03*
X116062000Y-77408000I0J700000D01*
G01*
X114062000Y-77408000D02*
G75*
G03*
X114762000Y-78108000I700000J0D01*
G01*
X116062000Y-76008000D02*
G75*
G03*
X115362000Y-75308000I-699999J1D01*
G01*
X114762000Y-75308000D02*
G75*
G03*
X114062000Y-76008000I-1J-699999D01*
G01*
X253619000Y-58101580D02*
X253619000Y-49211580D01*
X255524000Y-58736580D02*
X254254000Y-58736580D01*
X256159000Y-49211580D02*
X256159000Y-58101580D01*
X254254000Y-48576580D02*
X255524000Y-48576580D01*
X253619000Y-58101580D02*
G75*
G03*
X254254000Y-58736580I635000J0D01*
G01*
X256159000Y-49211580D02*
G75*
G03*
X255524000Y-48576580I-634999J1D01*
G01*
X255524000Y-58736580D02*
G75*
G03*
X256159000Y-58101580I0J635000D01*
G01*
X254254000Y-48576580D02*
G75*
G03*
X253619000Y-49211580I-1J-634999D01*
G01*
X218072580Y-53338000D02*
X217791420Y-53338000D01*
X218072580Y-54358000D02*
X217791420Y-54358000D01*
X144682000Y-66974000D02*
X144682000Y-65899000D01*
X138782000Y-66974000D02*
X144682000Y-66974000D01*
X138782000Y-63074000D02*
X144682000Y-63074000D01*
X214474000Y-54692000D02*
X220374000Y-54692000D01*
X214474000Y-58592000D02*
X220374000Y-58592000D01*
X220374000Y-58592000D02*
X220374000Y-57517000D01*
X52525200Y-103364420D02*
X52525200Y-103645580D01*
X53545200Y-103364420D02*
X53545200Y-103645580D01*
X92104000Y-105074000D02*
X86204000Y-105074000D01*
X92104000Y-101174000D02*
X86204000Y-101174000D01*
X86204000Y-101174000D02*
X86204000Y-102249000D01*
X252389140Y-55926582D02*
X249589140Y-55926582D01*
X252389140Y-53926582D02*
X252389140Y-55926582D01*
X249589140Y-55926582D02*
X249589140Y-53926582D01*
X249589140Y-53926582D02*
X252389140Y-53926582D01*
X176628000Y-55290000D02*
X182528000Y-55290000D01*
X176628000Y-51390000D02*
X182528000Y-51390000D01*
X182528000Y-55290000D02*
X182528000Y-54215000D01*
X249589141Y-58466582D02*
X249589141Y-56466582D01*
X252389141Y-58466582D02*
X249589141Y-58466582D01*
X252389141Y-56466582D02*
X252389141Y-58466582D01*
X249589141Y-56466582D02*
X252389141Y-56466582D01*
D12*
X101076803Y-92921583D02*
X102803641Y-92921583D01*
X105612641Y-99556582D02*
X105612641Y-100556582D01*
X104612641Y-100556582D02*
X105612641Y-100556582D01*
X104962641Y-89111583D02*
X104962641Y-89492583D01*
X105612641Y-86556582D02*
X105612641Y-87556582D01*
X93532641Y-90000583D02*
X93532641Y-91016583D01*
X104581641Y-92921583D02*
X104962641Y-92921583D01*
X104962641Y-92540583D02*
X104962641Y-92921583D01*
X91612641Y-100556582D02*
X91612641Y-99556582D01*
X93532641Y-91016583D02*
X98612641Y-91016583D01*
X91612641Y-87556582D02*
X91612641Y-86556582D01*
X91612641Y-100556582D02*
X92612641Y-100556582D01*
X105612641Y-86556582D02*
X104612641Y-86556582D01*
X102422641Y-86571583D02*
X93532641Y-86571583D01*
X93532641Y-86571583D02*
X93532641Y-86952583D01*
X92612641Y-86556582D02*
X91612641Y-86556582D01*
X101076802Y-92940543D02*
G75*
G03*
X98612641Y-91016583I-2464161J-616039D01*
G01*
X104962640Y-89111583D02*
G75*
G03*
X102422641Y-86571583I-2539999J1D01*
G01*
X72562641Y-100556582D02*
X73562641Y-100556582D01*
X74482641Y-86571583D02*
X74482641Y-86952583D01*
X74482641Y-90000583D02*
X74482641Y-91016583D01*
X82026803Y-92921583D02*
X83753641Y-92921583D01*
X86562641Y-86556582D02*
X86562641Y-87556582D01*
X85531641Y-92921583D02*
X85912641Y-92921583D01*
X85562641Y-100556582D02*
X86562641Y-100556582D01*
X86562641Y-86556582D02*
X85562641Y-86556582D01*
X72562641Y-100556582D02*
X72562641Y-99556582D01*
X83372641Y-86571583D02*
X74482641Y-86571583D01*
X85912641Y-92540583D02*
X85912641Y-92921583D01*
X86562641Y-99556582D02*
X86562641Y-100556582D01*
X73562641Y-86556582D02*
X72562641Y-86556582D01*
X74482641Y-91016583D02*
X79562641Y-91016583D01*
X72562641Y-87556582D02*
X72562641Y-86556582D01*
X85912641Y-89111583D02*
X85912641Y-89492583D01*
X85912640Y-89111583D02*
G75*
G03*
X83372641Y-86571583I-2539999J1D01*
G01*
X82026802Y-92940543D02*
G75*
G03*
X79562641Y-91016583I-2464161J-616039D01*
G01*
D14*
X250036064Y-62076000D02*
X249581936Y-62076000D01*
X250036064Y-60606000D02*
X249581936Y-60606000D01*
X252389140Y-48846582D02*
X252389140Y-50846582D01*
X252389140Y-50846582D02*
X249589140Y-50846582D01*
X249589140Y-50846582D02*
X249589140Y-48846582D01*
X249589140Y-48846582D02*
X252389140Y-48846582D01*
X250036064Y-62765000D02*
X249581936Y-62765000D01*
X250036064Y-64235000D02*
X249581936Y-64235000D01*
X242091140Y-104278582D02*
X241091140Y-104278582D01*
X249091140Y-108078582D02*
X249391140Y-108378582D01*
X248791140Y-108378582D02*
X249091140Y-108078582D01*
X243591140Y-98378582D02*
X247691140Y-98378582D01*
X235491140Y-98378582D02*
X239591140Y-98378582D01*
X247691140Y-110178582D02*
X247691140Y-98378582D01*
X239591140Y-110178582D02*
X235491140Y-110178582D01*
X241591140Y-104778582D02*
X241591140Y-103778582D01*
X235491140Y-110178582D02*
X235491140Y-107778582D01*
X243591140Y-110178582D02*
X247691140Y-110178582D01*
X235491140Y-105578582D02*
X235491140Y-102978582D01*
X249391140Y-108378582D02*
X248791140Y-108378582D01*
X235491140Y-100778582D02*
X235491140Y-98378582D01*
X244591140Y-104278582D02*
G75*
G03*
X244591140Y-104278582I-3000000J0D01*
G01*
D15*
X226743141Y-90718218D02*
X226743141Y-91612180D01*
X225443141Y-90218180D02*
X226243141Y-90218180D01*
X224943141Y-91612180D02*
X224943141Y-90718180D01*
X225443141Y-92112180D02*
X226243141Y-92112180D01*
X226743141Y-90718180D02*
G75*
G03*
X226243141Y-90218180I-500000J0D01*
G01*
X226243141Y-92112180D02*
G75*
G03*
X226743141Y-91612180I0J500000D01*
G01*
X225443141Y-90218180D02*
G75*
G03*
X224943141Y-90718180I0J-500000D01*
G01*
X224943141Y-91612180D02*
G75*
G03*
X225443141Y-92112180I500000J0D01*
G01*
G36*
X225843141Y-89762004D02*
G01*
X225243141Y-88962004D01*
X226443141Y-88962004D01*
X225843141Y-89762004D01*
G37*
D16*
X225843141Y-89762004D02*
X225243141Y-88962004D01*
X226443141Y-88962004D01*
X225843141Y-89762004D01*
D15*
X131747141Y-58968219D02*
X131747141Y-59862181D01*
X130447141Y-58468181D02*
X131247141Y-58468181D01*
X130447141Y-60362181D02*
X131247141Y-60362181D01*
X129947141Y-59862181D02*
X129947141Y-58968181D01*
X131747141Y-58968181D02*
G75*
G03*
X131247141Y-58468181I-500000J0D01*
G01*
X129947141Y-59862181D02*
G75*
G03*
X130447141Y-60362181I500000J0D01*
G01*
X131247141Y-60362181D02*
G75*
G03*
X131747141Y-59862181I0J500000D01*
G01*
X130447141Y-58468181D02*
G75*
G03*
X129947141Y-58968181I0J-500000D01*
G01*
G36*
X130847141Y-58012005D02*
G01*
X130247141Y-57212005D01*
X131447141Y-57212005D01*
X130847141Y-58012005D01*
G37*
D16*
X130847141Y-58012005D02*
X130247141Y-57212005D01*
X131447141Y-57212005D01*
X130847141Y-58012005D01*
D15*
X106571141Y-115618180D02*
X107371141Y-115618180D01*
X106071141Y-117012180D02*
X106071141Y-116118180D01*
X107871141Y-116118218D02*
X107871141Y-117012180D01*
X106571141Y-117512180D02*
X107371141Y-117512180D01*
X106071141Y-117012180D02*
G75*
G03*
X106571141Y-117512180I500000J0D01*
G01*
X106571141Y-115618180D02*
G75*
G03*
X106071141Y-116118180I0J-500000D01*
G01*
X107371141Y-117512180D02*
G75*
G03*
X107871141Y-117012180I0J500000D01*
G01*
X107871141Y-116118180D02*
G75*
G03*
X107371141Y-115618180I-500000J0D01*
G01*
G36*
X106971141Y-115162004D02*
G01*
X106371141Y-114362004D01*
X107571141Y-114362004D01*
X106971141Y-115162004D01*
G37*
D16*
X106971141Y-115162004D02*
X106371141Y-114362004D01*
X107571141Y-114362004D01*
X106971141Y-115162004D01*
D15*
X187343141Y-49186182D02*
X188143141Y-49186182D01*
X188643141Y-47792220D02*
X188643141Y-48686182D01*
X187343141Y-47292182D02*
X188143141Y-47292182D01*
X186843141Y-48686182D02*
X186843141Y-47792182D01*
X188143141Y-49186182D02*
G75*
G03*
X188643141Y-48686182I0J500000D01*
G01*
X188643141Y-47792182D02*
G75*
G03*
X188143141Y-47292182I-500000J0D01*
G01*
X187343141Y-47292182D02*
G75*
G03*
X186843141Y-47792182I0J-500000D01*
G01*
X186843141Y-48686182D02*
G75*
G03*
X187343141Y-49186182I500000J0D01*
G01*
G36*
X187743141Y-46836006D02*
G01*
X187143141Y-46036006D01*
X188343141Y-46036006D01*
X187743141Y-46836006D01*
G37*
D16*
X187743141Y-46836006D02*
X187143141Y-46036006D01*
X188343141Y-46036006D01*
X187743141Y-46836006D01*
D15*
X129947141Y-97962181D02*
X129947141Y-97068181D01*
X131747141Y-97068219D02*
X131747141Y-97962181D01*
X130447141Y-96568181D02*
X131247141Y-96568181D01*
X130447141Y-98462181D02*
X131247141Y-98462181D01*
X131247141Y-98462181D02*
G75*
G03*
X131747141Y-97962181I0J500000D01*
G01*
X129947141Y-97962181D02*
G75*
G03*
X130447141Y-98462181I500000J0D01*
G01*
X131747141Y-97068181D02*
G75*
G03*
X131247141Y-96568181I-500000J0D01*
G01*
X130447141Y-96568181D02*
G75*
G03*
X129947141Y-97068181I0J-500000D01*
G01*
G36*
X130847141Y-96112005D02*
G01*
X130247141Y-95312005D01*
X131447141Y-95312005D01*
X130847141Y-96112005D01*
G37*
D16*
X130847141Y-96112005D02*
X130247141Y-95312005D01*
X131447141Y-95312005D01*
X130847141Y-96112005D01*
D15*
X106071141Y-79687800D02*
X106071141Y-78793800D01*
X106571141Y-80187800D02*
X107371141Y-80187800D01*
X107871141Y-78793838D02*
X107871141Y-79687800D01*
X106571141Y-78293800D02*
X107371141Y-78293800D01*
X107871141Y-78793800D02*
G75*
G03*
X107371141Y-78293800I-500000J0D01*
G01*
X106571141Y-78293800D02*
G75*
G03*
X106071141Y-78793800I0J-500000D01*
G01*
X107371141Y-80187800D02*
G75*
G03*
X107871141Y-79687800I0J500000D01*
G01*
X106071141Y-79687800D02*
G75*
G03*
X106571141Y-80187800I500000J0D01*
G01*
G36*
X106971141Y-77837624D02*
G01*
X106371141Y-77037624D01*
X107571141Y-77037624D01*
X106971141Y-77837624D01*
G37*
D16*
X106971141Y-77837624D02*
X106371141Y-77037624D01*
X107571141Y-77037624D01*
X106971141Y-77837624D01*
D15*
X230333600Y-109291000D02*
X231133600Y-109291000D01*
X230333600Y-111185000D02*
X231133600Y-111185000D01*
X229833600Y-110685000D02*
X229833600Y-109791000D01*
X231633600Y-109791038D02*
X231633600Y-110685000D01*
X231633600Y-109791000D02*
G75*
G03*
X231133600Y-109291000I-500000J0D01*
G01*
X229833600Y-110685000D02*
G75*
G03*
X230333600Y-111185000I500000J0D01*
G01*
X231133600Y-111185000D02*
G75*
G03*
X231633600Y-110685000I0J500000D01*
G01*
X230333600Y-109291000D02*
G75*
G03*
X229833600Y-109791000I0J-500000D01*
G01*
G36*
X230733600Y-108834824D02*
G01*
X230133600Y-108034824D01*
X231333600Y-108034824D01*
X230733600Y-108834824D01*
G37*
D16*
X230733600Y-108834824D02*
X230133600Y-108034824D01*
X231333600Y-108034824D01*
X230733600Y-108834824D01*
D15*
X226994903Y-135050542D02*
X226645605Y-135873438D01*
X225993627Y-134082304D02*
X226730031Y-134394889D01*
X224988696Y-135170122D02*
X225338009Y-134347191D01*
X225253583Y-135825740D02*
X225989987Y-136138325D01*
X224988697Y-135170122D02*
G75*
G03*
X225253583Y-135825740I460251J-195366D01*
G01*
X225989987Y-136138326D02*
G75*
G03*
X226645605Y-135873438I195365J460253D01*
G01*
X226994917Y-135050507D02*
G75*
G03*
X226730031Y-134394889I-460251J195366D01*
G01*
X225993627Y-134082303D02*
G75*
G03*
X225338009Y-134347191I-195365J-460253D01*
G01*
G36*
X227404959Y-133316719D02*
G01*
X226540072Y-133818684D01*
X226300354Y-132847842D01*
X227404959Y-133316719D01*
G37*
D16*
X227404959Y-133316719D02*
X226540072Y-133818684D01*
X226300354Y-132847842D01*
X227404959Y-133316719D01*
D17*
X107696000Y-83396581D02*
X74676000Y-83396581D01*
X105156000Y-80856581D02*
X105156000Y-83396581D01*
X74676000Y-65616581D02*
X107696000Y-65616581D01*
X107696000Y-65616581D02*
X107696000Y-83396581D01*
X105156000Y-80856581D02*
X102616000Y-80856581D01*
X74676000Y-83396581D02*
X74676000Y-65616581D01*
X102616000Y-80856581D02*
X102616000Y-83396581D01*
D15*
X133458000Y-78293800D02*
X134258000Y-78293800D01*
X133458000Y-80187800D02*
X134258000Y-80187800D01*
X132958000Y-79687800D02*
X132958000Y-78793800D01*
X134758000Y-78793838D02*
X134758000Y-79687800D01*
X134758000Y-78793800D02*
G75*
G03*
X134258000Y-78293800I-500000J0D01*
G01*
X132958000Y-79687800D02*
G75*
G03*
X133458000Y-80187800I500000J0D01*
G01*
X133458000Y-78293800D02*
G75*
G03*
X132958000Y-78793800I0J-500000D01*
G01*
X134258000Y-80187800D02*
G75*
G03*
X134758000Y-79687800I0J500000D01*
G01*
G36*
X133858000Y-77837624D02*
G01*
X133258000Y-77037624D01*
X134458000Y-77037624D01*
X133858000Y-77837624D01*
G37*
D16*
X133858000Y-77837624D02*
X133258000Y-77037624D01*
X134458000Y-77037624D01*
X133858000Y-77837624D01*
D15*
X133458000Y-96568181D02*
X134258000Y-96568181D01*
X132958000Y-97962181D02*
X132958000Y-97068181D01*
X133458000Y-98462181D02*
X134258000Y-98462181D01*
X134758000Y-97068219D02*
X134758000Y-97962181D01*
X134758000Y-97068181D02*
G75*
G03*
X134258000Y-96568181I-500000J0D01*
G01*
X132958000Y-97962181D02*
G75*
G03*
X133458000Y-98462181I500000J0D01*
G01*
X134258000Y-98462181D02*
G75*
G03*
X134758000Y-97962181I0J500000D01*
G01*
X133458000Y-96568181D02*
G75*
G03*
X132958000Y-97068181I0J-500000D01*
G01*
G36*
X133858000Y-96112005D02*
G01*
X133258000Y-95312005D01*
X134458000Y-95312005D01*
X133858000Y-96112005D01*
G37*
D16*
X133858000Y-96112005D02*
X133258000Y-95312005D01*
X134458000Y-95312005D01*
X133858000Y-96112005D01*
D15*
X87521140Y-96568182D02*
X88321140Y-96568182D01*
X88821140Y-97068220D02*
X88821140Y-97962182D01*
X87021140Y-97962182D02*
X87021140Y-97068182D01*
X87521140Y-98462182D02*
X88321140Y-98462182D01*
X87021140Y-97962182D02*
G75*
G03*
X87521140Y-98462182I500000J0D01*
G01*
X87521140Y-96568182D02*
G75*
G03*
X87021140Y-97068182I0J-500000D01*
G01*
X88821140Y-97068182D02*
G75*
G03*
X88321140Y-96568182I-500000J0D01*
G01*
X88321140Y-98462182D02*
G75*
G03*
X88821140Y-97962182I0J500000D01*
G01*
G36*
X87921140Y-96112006D02*
G01*
X87321140Y-95312006D01*
X88521140Y-95312006D01*
X87921140Y-96112006D01*
G37*
D16*
X87921140Y-96112006D02*
X87321140Y-95312006D01*
X88521140Y-95312006D01*
X87921140Y-96112006D01*
D15*
X168047140Y-70022182D02*
X168047140Y-69128182D01*
X168547140Y-70522182D02*
X169347140Y-70522182D01*
X168547140Y-68628182D02*
X169347140Y-68628182D01*
X169847140Y-69128220D02*
X169847140Y-70022182D01*
X168047140Y-70022182D02*
G75*
G03*
X168547140Y-70522182I500000J0D01*
G01*
X168547140Y-68628182D02*
G75*
G03*
X168047140Y-69128182I0J-500000D01*
G01*
X169847140Y-69128182D02*
G75*
G03*
X169347140Y-68628182I-500000J0D01*
G01*
X169347140Y-70522182D02*
G75*
G03*
X169847140Y-70022182I0J500000D01*
G01*
G36*
X168947140Y-68172006D02*
G01*
X168347140Y-67372006D01*
X169547140Y-67372006D01*
X168947140Y-68172006D01*
G37*
D16*
X168947140Y-68172006D02*
X168347140Y-67372006D01*
X169547140Y-67372006D01*
X168947140Y-68172006D01*
D15*
X130447141Y-78293800D02*
X131247141Y-78293800D01*
X130447141Y-80187800D02*
X131247141Y-80187800D01*
X131747141Y-78793838D02*
X131747141Y-79687800D01*
X129947141Y-79687800D02*
X129947141Y-78793800D01*
X131747141Y-78793800D02*
G75*
G03*
X131247141Y-78293800I-500000J0D01*
G01*
X129947141Y-79687800D02*
G75*
G03*
X130447141Y-80187800I500000J0D01*
G01*
X131247141Y-80187800D02*
G75*
G03*
X131747141Y-79687800I0J500000D01*
G01*
X130447141Y-78293800D02*
G75*
G03*
X129947141Y-78793800I0J-500000D01*
G01*
G36*
X130847141Y-77837624D02*
G01*
X130247141Y-77037624D01*
X131447141Y-77037624D01*
X130847141Y-77837624D01*
G37*
D16*
X130847141Y-77837624D02*
X130247141Y-77037624D01*
X131447141Y-77037624D01*
X130847141Y-77837624D01*
D15*
X206393140Y-68882182D02*
X207193140Y-68882182D01*
X206393140Y-70776182D02*
X207193140Y-70776182D01*
X205893140Y-70276182D02*
X205893140Y-69382182D01*
X207693140Y-69382220D02*
X207693140Y-70276182D01*
X206393140Y-68882182D02*
G75*
G03*
X205893140Y-69382182I0J-500000D01*
G01*
X205893140Y-70276182D02*
G75*
G03*
X206393140Y-70776182I500000J0D01*
G01*
X207193140Y-70776182D02*
G75*
G03*
X207693140Y-70276182I0J500000D01*
G01*
X207693140Y-69382182D02*
G75*
G03*
X207193140Y-68882182I-500000J0D01*
G01*
G36*
X206793140Y-68426006D02*
G01*
X206193140Y-67626006D01*
X207393140Y-67626006D01*
X206793140Y-68426006D01*
G37*
D16*
X206793140Y-68426006D02*
X206193140Y-67626006D01*
X207393140Y-67626006D01*
X206793140Y-68426006D01*
D15*
X224644000Y-73062182D02*
X225444000Y-73062182D01*
X224644000Y-71168182D02*
X225444000Y-71168182D01*
X224144000Y-72562182D02*
X224144000Y-71668182D01*
X225944000Y-71668220D02*
X225944000Y-72562182D01*
X225444000Y-73062182D02*
G75*
G03*
X225944000Y-72562182I0J500000D01*
G01*
X224144000Y-72562182D02*
G75*
G03*
X224644000Y-73062182I500000J0D01*
G01*
X224644000Y-71168182D02*
G75*
G03*
X224144000Y-71668182I0J-500000D01*
G01*
X225944000Y-71668182D02*
G75*
G03*
X225444000Y-71168182I-500000J0D01*
G01*
G36*
X225044000Y-70712006D02*
G01*
X224444000Y-69912006D01*
X225644000Y-69912006D01*
X225044000Y-70712006D01*
G37*
D16*
X225044000Y-70712006D02*
X224444000Y-69912006D01*
X225644000Y-69912006D01*
X225044000Y-70712006D01*
D15*
X205893141Y-127426180D02*
X205893141Y-126532180D01*
X206393141Y-127926180D02*
X207193141Y-127926180D01*
X207693141Y-126532218D02*
X207693141Y-127426180D01*
X206393141Y-126032180D02*
X207193141Y-126032180D01*
X207693141Y-126532180D02*
G75*
G03*
X207193141Y-126032180I-500000J0D01*
G01*
X207193141Y-127926180D02*
G75*
G03*
X207693141Y-127426180I0J500000D01*
G01*
X206393141Y-126032180D02*
G75*
G03*
X205893141Y-126532180I0J-500000D01*
G01*
X205893141Y-127426180D02*
G75*
G03*
X206393141Y-127926180I500000J0D01*
G01*
G36*
X206793141Y-125576004D02*
G01*
X206193141Y-124776004D01*
X207393141Y-124776004D01*
X206793141Y-125576004D01*
G37*
D16*
X206793141Y-125576004D02*
X206193141Y-124776004D01*
X207393141Y-124776004D01*
X206793141Y-125576004D01*
D15*
X168047141Y-50972181D02*
X168047141Y-50078181D01*
X169847141Y-50078219D02*
X169847141Y-50972181D01*
X168547141Y-51472181D02*
X169347141Y-51472181D01*
X168547141Y-49578181D02*
X169347141Y-49578181D01*
X169847141Y-50078181D02*
G75*
G03*
X169347141Y-49578181I-500000J0D01*
G01*
X168047141Y-50972181D02*
G75*
G03*
X168547141Y-51472181I500000J0D01*
G01*
X169347141Y-51472181D02*
G75*
G03*
X169847141Y-50972181I0J500000D01*
G01*
X168547141Y-49578181D02*
G75*
G03*
X168047141Y-50078181I0J-500000D01*
G01*
G36*
X168947141Y-49122005D02*
G01*
X168347141Y-48322005D01*
X169547141Y-48322005D01*
X168947141Y-49122005D01*
G37*
D16*
X168947141Y-49122005D02*
X168347141Y-48322005D01*
X169547141Y-48322005D01*
X168947141Y-49122005D01*
D15*
X87521140Y-77518182D02*
X88321140Y-77518182D01*
X88821140Y-78018220D02*
X88821140Y-78912182D01*
X87521140Y-79412182D02*
X88321140Y-79412182D01*
X87021140Y-78912182D02*
X87021140Y-78018182D01*
X87521140Y-77518182D02*
G75*
G03*
X87021140Y-78018182I0J-500000D01*
G01*
X87021140Y-78912182D02*
G75*
G03*
X87521140Y-79412182I500000J0D01*
G01*
X88821140Y-78018182D02*
G75*
G03*
X88321140Y-77518182I-500000J0D01*
G01*
X88321140Y-79412182D02*
G75*
G03*
X88821140Y-78912182I0J500000D01*
G01*
G36*
X87921140Y-77062006D02*
G01*
X87321140Y-76262006D01*
X88521140Y-76262006D01*
X87921140Y-77062006D01*
G37*
D16*
X87921140Y-77062006D02*
X87321140Y-76262006D01*
X88521140Y-76262006D01*
X87921140Y-77062006D01*
D15*
X106071140Y-97962182D02*
X106071140Y-97068182D01*
X107871140Y-97068220D02*
X107871140Y-97962182D01*
X106571140Y-96568182D02*
X107371140Y-96568182D01*
X106571140Y-98462182D02*
X107371140Y-98462182D01*
X106071140Y-97962182D02*
G75*
G03*
X106571140Y-98462182I500000J0D01*
G01*
X106571140Y-96568182D02*
G75*
G03*
X106071140Y-97068182I0J-500000D01*
G01*
X107871140Y-97068182D02*
G75*
G03*
X107371140Y-96568182I-500000J0D01*
G01*
X107371140Y-98462182D02*
G75*
G03*
X107871140Y-97962182I0J500000D01*
G01*
G36*
X106971140Y-96112006D02*
G01*
X106371140Y-95312006D01*
X107571140Y-95312006D01*
X106971140Y-96112006D01*
G37*
D16*
X106971140Y-96112006D02*
X106371140Y-95312006D01*
X107571140Y-95312006D01*
X106971140Y-96112006D01*
D15*
X169847141Y-126278218D02*
X169847141Y-127172180D01*
X168547141Y-127672180D02*
X169347141Y-127672180D01*
X168047141Y-127172180D02*
X168047141Y-126278180D01*
X168547141Y-125778180D02*
X169347141Y-125778180D01*
X169347141Y-127672180D02*
G75*
G03*
X169847141Y-127172180I0J500000D01*
G01*
X168047141Y-127172180D02*
G75*
G03*
X168547141Y-127672180I500000J0D01*
G01*
X168547141Y-125778180D02*
G75*
G03*
X168047141Y-126278180I0J-500000D01*
G01*
X169847141Y-126278180D02*
G75*
G03*
X169347141Y-125778180I-500000J0D01*
G01*
G36*
X168947141Y-125322004D02*
G01*
X168347141Y-124522004D01*
X169547141Y-124522004D01*
X168947141Y-125322004D01*
G37*
D16*
X168947141Y-125322004D02*
X168347141Y-124522004D01*
X169547141Y-124522004D01*
X168947141Y-125322004D01*
D15*
X187343141Y-68311600D02*
X188143141Y-68311600D01*
X187343141Y-70205600D02*
X188143141Y-70205600D01*
X188643141Y-68811638D02*
X188643141Y-69705600D01*
X186843141Y-69705600D02*
X186843141Y-68811600D01*
X186843141Y-69705600D02*
G75*
G03*
X187343141Y-70205600I500000J0D01*
G01*
X188643141Y-68811600D02*
G75*
G03*
X188143141Y-68311600I-500000J0D01*
G01*
X187343141Y-68311600D02*
G75*
G03*
X186843141Y-68811600I0J-500000D01*
G01*
X188143141Y-70205600D02*
G75*
G03*
X188643141Y-69705600I0J500000D01*
G01*
G36*
X187743141Y-67855424D02*
G01*
X187143141Y-67055424D01*
X188343141Y-67055424D01*
X187743141Y-67855424D01*
G37*
D16*
X187743141Y-67855424D02*
X187143141Y-67055424D01*
X188343141Y-67055424D01*
X187743141Y-67855424D01*
D15*
X225443141Y-111162182D02*
X226243141Y-111162182D01*
X226743141Y-109768220D02*
X226743141Y-110662182D01*
X224943141Y-110662182D02*
X224943141Y-109768182D01*
X225443141Y-109268182D02*
X226243141Y-109268182D01*
X225443141Y-109268182D02*
G75*
G03*
X224943141Y-109768182I0J-500000D01*
G01*
X224943141Y-110662182D02*
G75*
G03*
X225443141Y-111162182I500000J0D01*
G01*
X226743141Y-109768182D02*
G75*
G03*
X226243141Y-109268182I-500000J0D01*
G01*
X226243141Y-111162182D02*
G75*
G03*
X226743141Y-110662182I0J500000D01*
G01*
G36*
X225843141Y-108812006D02*
G01*
X225243141Y-108012006D01*
X226443141Y-108012006D01*
X225843141Y-108812006D01*
G37*
D16*
X225843141Y-108812006D02*
X225243141Y-108012006D01*
X226443141Y-108012006D01*
X225843141Y-108812006D01*
D15*
X52813000Y-60362182D02*
X53613000Y-60362182D01*
X52313000Y-59862182D02*
X52313000Y-58968182D01*
X54113000Y-58968220D02*
X54113000Y-59862182D01*
X52813000Y-58468182D02*
X53613000Y-58468182D01*
X52313000Y-59862182D02*
G75*
G03*
X52813000Y-60362182I500000J0D01*
G01*
X54113000Y-58968182D02*
G75*
G03*
X53613000Y-58468182I-500000J0D01*
G01*
X53613000Y-60362182D02*
G75*
G03*
X54113000Y-59862182I0J500000D01*
G01*
X52813000Y-58468182D02*
G75*
G03*
X52313000Y-58968182I0J-500000D01*
G01*
G36*
X53213000Y-58012006D02*
G01*
X52613000Y-57212006D01*
X53813000Y-57212006D01*
X53213000Y-58012006D01*
G37*
D16*
X53213000Y-58012006D02*
X52613000Y-57212006D01*
X53813000Y-57212006D01*
X53213000Y-58012006D01*
D15*
X68471140Y-98462182D02*
X69271140Y-98462182D01*
X68471140Y-96568182D02*
X69271140Y-96568182D01*
X69771140Y-97068220D02*
X69771140Y-97962182D01*
X67971140Y-97962182D02*
X67971140Y-97068182D01*
X69771140Y-97068182D02*
G75*
G03*
X69271140Y-96568182I-500000J0D01*
G01*
X69271140Y-98462182D02*
G75*
G03*
X69771140Y-97962182I0J500000D01*
G01*
X67971140Y-97962182D02*
G75*
G03*
X68471140Y-98462182I500000J0D01*
G01*
X68471140Y-96568182D02*
G75*
G03*
X67971140Y-97068182I0J-500000D01*
G01*
G36*
X68871140Y-96112006D02*
G01*
X68271140Y-95312006D01*
X69471140Y-95312006D01*
X68871140Y-96112006D01*
G37*
D16*
X68871140Y-96112006D02*
X68271140Y-95312006D01*
X69471140Y-95312006D01*
X68871140Y-96112006D01*
D15*
X131747141Y-116118220D02*
X131747141Y-117012182D01*
X129947141Y-117012182D02*
X129947141Y-116118182D01*
X130447141Y-117512182D02*
X131247141Y-117512182D01*
X130447141Y-115618182D02*
X131247141Y-115618182D01*
X131247141Y-117512182D02*
G75*
G03*
X131747141Y-117012182I0J500000D01*
G01*
X130447141Y-115618182D02*
G75*
G03*
X129947141Y-116118182I0J-500000D01*
G01*
X129947141Y-117012182D02*
G75*
G03*
X130447141Y-117512182I500000J0D01*
G01*
X131747141Y-116118182D02*
G75*
G03*
X131247141Y-115618182I-500000J0D01*
G01*
G36*
X130847141Y-115162006D02*
G01*
X130247141Y-114362006D01*
X131447141Y-114362006D01*
X130847141Y-115162006D01*
G37*
D16*
X130847141Y-115162006D02*
X130247141Y-114362006D01*
X131447141Y-114362006D01*
X130847141Y-115162006D01*
D15*
X87521140Y-58468181D02*
X88321140Y-58468181D01*
X87021140Y-59862181D02*
X87021140Y-58968181D01*
X88821140Y-58968219D02*
X88821140Y-59862181D01*
X87521140Y-60362181D02*
X88321140Y-60362181D01*
X88821140Y-58968181D02*
G75*
G03*
X88321140Y-58468181I-500000J0D01*
G01*
X87521140Y-58468181D02*
G75*
G03*
X87021140Y-58968181I0J-500000D01*
G01*
X87021140Y-59862181D02*
G75*
G03*
X87521140Y-60362181I500000J0D01*
G01*
X88321140Y-60362181D02*
G75*
G03*
X88821140Y-59862181I0J500000D01*
G01*
G36*
X87921140Y-58012005D02*
G01*
X87321140Y-57212005D01*
X88521140Y-57212005D01*
X87921140Y-58012005D01*
G37*
D16*
X87921140Y-58012005D02*
X87321140Y-57212005D01*
X88521140Y-57212005D01*
X87921140Y-58012005D01*
D15*
X69771141Y-78018219D02*
X69771141Y-78912181D01*
X68471141Y-79412181D02*
X69271141Y-79412181D01*
X68471141Y-77518181D02*
X69271141Y-77518181D01*
X67971141Y-78912181D02*
X67971141Y-78018181D01*
X67971141Y-78912181D02*
G75*
G03*
X68471141Y-79412181I500000J0D01*
G01*
X69771141Y-78018181D02*
G75*
G03*
X69271141Y-77518181I-500000J0D01*
G01*
X68471141Y-77518181D02*
G75*
G03*
X67971141Y-78018181I0J-500000D01*
G01*
X69271141Y-79412181D02*
G75*
G03*
X69771141Y-78912181I0J500000D01*
G01*
G36*
X68871141Y-77062005D02*
G01*
X68271141Y-76262005D01*
X69471141Y-76262005D01*
X68871141Y-77062005D01*
G37*
D16*
X68871141Y-77062005D02*
X68271141Y-76262005D01*
X69471141Y-76262005D01*
X68871141Y-77062005D01*
D15*
X205893140Y-108376182D02*
X205893140Y-107482182D01*
X206393140Y-108876182D02*
X207193140Y-108876182D01*
X206393140Y-106982182D02*
X207193140Y-106982182D01*
X207693140Y-107482220D02*
X207693140Y-108376182D01*
X206393140Y-106982182D02*
G75*
G03*
X205893140Y-107482182I0J-500000D01*
G01*
X207693140Y-107482182D02*
G75*
G03*
X207193140Y-106982182I-500000J0D01*
G01*
X205893140Y-108376182D02*
G75*
G03*
X206393140Y-108876182I500000J0D01*
G01*
X207193140Y-108876182D02*
G75*
G03*
X207693140Y-108376182I0J500000D01*
G01*
G36*
X206793140Y-106526006D02*
G01*
X206193140Y-105726006D01*
X207393140Y-105726006D01*
X206793140Y-106526006D01*
G37*
D16*
X206793140Y-106526006D02*
X206193140Y-105726006D01*
X207393140Y-105726006D01*
X206793140Y-106526006D01*
D15*
X187343141Y-85392182D02*
X188143141Y-85392182D01*
X188643141Y-85892220D02*
X188643141Y-86786182D01*
X187343141Y-87286182D02*
X188143141Y-87286182D01*
X186843141Y-86786182D02*
X186843141Y-85892182D01*
X187343141Y-85392182D02*
G75*
G03*
X186843141Y-85892182I0J-500000D01*
G01*
X188143141Y-87286182D02*
G75*
G03*
X188643141Y-86786182I0J500000D01*
G01*
X188643141Y-85892182D02*
G75*
G03*
X188143141Y-85392182I-500000J0D01*
G01*
X186843141Y-86786182D02*
G75*
G03*
X187343141Y-87286182I500000J0D01*
G01*
G36*
X187743141Y-84936006D02*
G01*
X187143141Y-84136006D01*
X188343141Y-84136006D01*
X187743141Y-84936006D01*
G37*
D16*
X187743141Y-84936006D02*
X187143141Y-84136006D01*
X188343141Y-84136006D01*
X187743141Y-84936006D01*
D15*
X206393141Y-49832180D02*
X207193141Y-49832180D01*
X207693141Y-50332218D02*
X207693141Y-51226180D01*
X206393141Y-51726180D02*
X207193141Y-51726180D01*
X205893141Y-51226180D02*
X205893141Y-50332180D01*
X205893141Y-51226180D02*
G75*
G03*
X206393141Y-51726180I500000J0D01*
G01*
X206393141Y-49832180D02*
G75*
G03*
X205893141Y-50332180I0J-500000D01*
G01*
X207193141Y-51726180D02*
G75*
G03*
X207693141Y-51226180I0J500000D01*
G01*
X207693141Y-50332180D02*
G75*
G03*
X207193141Y-49832180I-500000J0D01*
G01*
G36*
X206793141Y-49376004D02*
G01*
X206193141Y-48576004D01*
X207393141Y-48576004D01*
X206793141Y-49376004D01*
G37*
D16*
X206793141Y-49376004D02*
X206193141Y-48576004D01*
X207393141Y-48576004D01*
X206793141Y-49376004D01*
D15*
X226743140Y-52618220D02*
X226743140Y-53512182D01*
X224943140Y-53512182D02*
X224943140Y-52618182D01*
X225443140Y-52118182D02*
X226243140Y-52118182D01*
X225443140Y-54012182D02*
X226243140Y-54012182D01*
X226243140Y-54012182D02*
G75*
G03*
X226743140Y-53512182I0J500000D01*
G01*
X224943140Y-53512182D02*
G75*
G03*
X225443140Y-54012182I500000J0D01*
G01*
X226743140Y-52618182D02*
G75*
G03*
X226243140Y-52118182I-500000J0D01*
G01*
X225443140Y-52118182D02*
G75*
G03*
X224943140Y-52618182I0J-500000D01*
G01*
G36*
X225843140Y-51662006D02*
G01*
X225243140Y-50862006D01*
X226443140Y-50862006D01*
X225843140Y-51662006D01*
G37*
D16*
X225843140Y-51662006D02*
X225243140Y-50862006D01*
X226443140Y-50862006D01*
X225843140Y-51662006D01*
D15*
X106571141Y-60362182D02*
X107371141Y-60362182D01*
X106571141Y-58468182D02*
X107371141Y-58468182D01*
X107871141Y-58968220D02*
X107871141Y-59862182D01*
X106071141Y-59862182D02*
X106071141Y-58968182D01*
X107871141Y-58968182D02*
G75*
G03*
X107371141Y-58468182I-500000J0D01*
G01*
X106071141Y-59862182D02*
G75*
G03*
X106571141Y-60362182I500000J0D01*
G01*
X107371141Y-60362182D02*
G75*
G03*
X107871141Y-59862182I0J500000D01*
G01*
X106571141Y-58468182D02*
G75*
G03*
X106071141Y-58968182I0J-500000D01*
G01*
G36*
X106971141Y-58012006D02*
G01*
X106371141Y-57212006D01*
X107571141Y-57212006D01*
X106971141Y-58012006D01*
G37*
D16*
X106971141Y-58012006D02*
X106371141Y-57212006D01*
X107571141Y-57212006D01*
X106971141Y-58012006D01*
D15*
X207693141Y-88432218D02*
X207693141Y-89326180D01*
X205893141Y-89326180D02*
X205893141Y-88432180D01*
X206393141Y-87932180D02*
X207193141Y-87932180D01*
X206393141Y-89826180D02*
X207193141Y-89826180D01*
X206393141Y-87932180D02*
G75*
G03*
X205893141Y-88432180I0J-500000D01*
G01*
X207693141Y-88432180D02*
G75*
G03*
X207193141Y-87932180I-500000J0D01*
G01*
X205893141Y-89326180D02*
G75*
G03*
X206393141Y-89826180I500000J0D01*
G01*
X207193141Y-89826180D02*
G75*
G03*
X207693141Y-89326180I0J500000D01*
G01*
G36*
X206793141Y-87476004D02*
G01*
X206193141Y-86676004D01*
X207393141Y-86676004D01*
X206793141Y-87476004D01*
G37*
D16*
X206793141Y-87476004D02*
X206193141Y-86676004D01*
X207393141Y-86676004D01*
X206793141Y-87476004D01*
D15*
X88821141Y-116118218D02*
X88821141Y-117012180D01*
X87021141Y-117012180D02*
X87021141Y-116118180D01*
X87521141Y-117512180D02*
X88321141Y-117512180D01*
X87521141Y-115618180D02*
X88321141Y-115618180D01*
X87521141Y-115618180D02*
G75*
G03*
X87021141Y-116118180I0J-500000D01*
G01*
X88321141Y-117512180D02*
G75*
G03*
X88821141Y-117012180I0J500000D01*
G01*
X88821141Y-116118180D02*
G75*
G03*
X88321141Y-115618180I-500000J0D01*
G01*
X87021141Y-117012180D02*
G75*
G03*
X87521141Y-117512180I500000J0D01*
G01*
G36*
X87921141Y-115162004D02*
G01*
X87321141Y-114362004D01*
X88521141Y-114362004D01*
X87921141Y-115162004D01*
G37*
D16*
X87921141Y-115162004D02*
X87321141Y-114362004D01*
X88521141Y-114362004D01*
X87921141Y-115162004D01*
D15*
X169847140Y-107228220D02*
X169847140Y-108122182D01*
X168547140Y-108622182D02*
X169347140Y-108622182D01*
X168047140Y-108122182D02*
X168047140Y-107228182D01*
X168547140Y-106728182D02*
X169347140Y-106728182D01*
X168547140Y-106728182D02*
G75*
G03*
X168047140Y-107228182I0J-500000D01*
G01*
X169847140Y-107228182D02*
G75*
G03*
X169347140Y-106728182I-500000J0D01*
G01*
X168047140Y-108122182D02*
G75*
G03*
X168547140Y-108622182I500000J0D01*
G01*
X169347140Y-108622182D02*
G75*
G03*
X169847140Y-108122182I0J500000D01*
G01*
G36*
X168947140Y-106272006D02*
G01*
X168347140Y-105472006D01*
X169547140Y-105472006D01*
X168947140Y-106272006D01*
G37*
D16*
X168947140Y-106272006D02*
X168347140Y-105472006D01*
X169547140Y-105472006D01*
X168947140Y-106272006D01*
D15*
X68471141Y-117512180D02*
X69271141Y-117512180D01*
X68471141Y-115618180D02*
X69271141Y-115618180D01*
X69771141Y-116118218D02*
X69771141Y-117012180D01*
X67971141Y-117012180D02*
X67971141Y-116118180D01*
X68471141Y-115618180D02*
G75*
G03*
X67971141Y-116118180I0J-500000D01*
G01*
X69271141Y-117512180D02*
G75*
G03*
X69771141Y-117012180I0J500000D01*
G01*
X67971141Y-117012180D02*
G75*
G03*
X68471141Y-117512180I500000J0D01*
G01*
X69771141Y-116118180D02*
G75*
G03*
X69271141Y-115618180I-500000J0D01*
G01*
G36*
X68871141Y-115162004D02*
G01*
X68271141Y-114362004D01*
X69471141Y-114362004D01*
X68871141Y-115162004D01*
G37*
D16*
X68871141Y-115162004D02*
X68271141Y-114362004D01*
X69471141Y-114362004D01*
X68871141Y-115162004D01*
D15*
X231726594Y-136981290D02*
X231326594Y-137674110D01*
X230643549Y-137857104D02*
X229869355Y-137410123D01*
X230769355Y-135851277D02*
X231543582Y-136298277D01*
X230086342Y-136034290D02*
X229686342Y-136727110D01*
X231726595Y-136981290D02*
G75*
G03*
X231543582Y-136298277I-433013J250000D01*
G01*
X230769355Y-135851277D02*
G75*
G03*
X230086342Y-136034290I-250000J-433013D01*
G01*
X229686342Y-136727110D02*
G75*
G03*
X229869355Y-137410123I433013J-250000D01*
G01*
X230643583Y-137857122D02*
G75*
G03*
X231326594Y-137674110I249999J433012D01*
G01*
G36*
X232314475Y-138475403D02*
G01*
X231921654Y-137555788D01*
X232914475Y-137436173D01*
X232314475Y-138475403D01*
G37*
D16*
X232314475Y-138475403D02*
X231921654Y-137555788D01*
X232914475Y-137436173D01*
X232314475Y-138475403D01*
D15*
X133458000Y-117512182D02*
X134258000Y-117512182D01*
X134758000Y-116118220D02*
X134758000Y-117012182D01*
X133458000Y-115618182D02*
X134258000Y-115618182D01*
X132958000Y-117012182D02*
X132958000Y-116118182D01*
X133458000Y-115618182D02*
G75*
G03*
X132958000Y-116118182I0J-500000D01*
G01*
X134758000Y-116118182D02*
G75*
G03*
X134258000Y-115618182I-500000J0D01*
G01*
X132958000Y-117012182D02*
G75*
G03*
X133458000Y-117512182I500000J0D01*
G01*
X134258000Y-117512182D02*
G75*
G03*
X134758000Y-117012182I0J500000D01*
G01*
G36*
X133858000Y-115162006D02*
G01*
X133258000Y-114362006D01*
X134458000Y-114362006D01*
X133858000Y-115162006D01*
G37*
D16*
X133858000Y-115162006D02*
X133258000Y-114362006D01*
X134458000Y-114362006D01*
X133858000Y-115162006D01*
D15*
X187343141Y-123492182D02*
X188143141Y-123492182D01*
X187343141Y-125386182D02*
X188143141Y-125386182D01*
X188643141Y-123992220D02*
X188643141Y-124886182D01*
X186843141Y-124886182D02*
X186843141Y-123992182D01*
X188643141Y-123992182D02*
G75*
G03*
X188143141Y-123492182I-500000J0D01*
G01*
X187343141Y-123492182D02*
G75*
G03*
X186843141Y-123992182I0J-500000D01*
G01*
X186843141Y-124886182D02*
G75*
G03*
X187343141Y-125386182I500000J0D01*
G01*
X188143141Y-125386182D02*
G75*
G03*
X188643141Y-124886182I0J500000D01*
G01*
G36*
X187743141Y-123036006D02*
G01*
X187143141Y-122236006D01*
X188343141Y-122236006D01*
X187743141Y-123036006D01*
G37*
D16*
X187743141Y-123036006D02*
X187143141Y-122236006D01*
X188343141Y-122236006D01*
X187743141Y-123036006D01*
D15*
X186843141Y-105836181D02*
X186843141Y-104942181D01*
X187343141Y-106336181D02*
X188143141Y-106336181D01*
X188643141Y-104942219D02*
X188643141Y-105836181D01*
X187343141Y-104442181D02*
X188143141Y-104442181D01*
X188643141Y-104942181D02*
G75*
G03*
X188143141Y-104442181I-500000J0D01*
G01*
X186843141Y-105836181D02*
G75*
G03*
X187343141Y-106336181I500000J0D01*
G01*
X187343141Y-104442181D02*
G75*
G03*
X186843141Y-104942181I0J-500000D01*
G01*
X188143141Y-106336181D02*
G75*
G03*
X188643141Y-105836181I0J500000D01*
G01*
G36*
X187743141Y-103986005D02*
G01*
X187143141Y-103186005D01*
X188343141Y-103186005D01*
X187743141Y-103986005D01*
G37*
D16*
X187743141Y-103986005D02*
X187143141Y-103186005D01*
X188343141Y-103186005D01*
X187743141Y-103986005D01*
D15*
X134758000Y-58968218D02*
X134758000Y-59862180D01*
X132958000Y-59862180D02*
X132958000Y-58968180D01*
X133458000Y-60362180D02*
X134258000Y-60362180D01*
X133458000Y-58468180D02*
X134258000Y-58468180D01*
X132958000Y-59862180D02*
G75*
G03*
X133458000Y-60362180I500000J0D01*
G01*
X133458000Y-58468180D02*
G75*
G03*
X132958000Y-58968180I0J-500000D01*
G01*
X134258000Y-60362180D02*
G75*
G03*
X134758000Y-59862180I0J500000D01*
G01*
X134758000Y-58968180D02*
G75*
G03*
X134258000Y-58468180I-500000J0D01*
G01*
G36*
X133858000Y-58012004D02*
G01*
X133258000Y-57212004D01*
X134458000Y-57212004D01*
X133858000Y-58012004D01*
G37*
D16*
X133858000Y-58012004D02*
X133258000Y-57212004D01*
X134458000Y-57212004D01*
X133858000Y-58012004D01*
D15*
X168547141Y-89572180D02*
X169347141Y-89572180D01*
X168047141Y-89072180D02*
X168047141Y-88178180D01*
X169847141Y-88178218D02*
X169847141Y-89072180D01*
X168547141Y-87678180D02*
X169347141Y-87678180D01*
X168047141Y-89072180D02*
G75*
G03*
X168547141Y-89572180I500000J0D01*
G01*
X169347141Y-89572180D02*
G75*
G03*
X169847141Y-89072180I0J500000D01*
G01*
X169847141Y-88178180D02*
G75*
G03*
X169347141Y-87678180I-500000J0D01*
G01*
X168547141Y-87678180D02*
G75*
G03*
X168047141Y-88178180I0J-500000D01*
G01*
G36*
X168947141Y-87222004D02*
G01*
X168347141Y-86422004D01*
X169547141Y-86422004D01*
X168947141Y-87222004D01*
G37*
D16*
X168947141Y-87222004D02*
X168347141Y-86422004D01*
X169547141Y-86422004D01*
X168947141Y-87222004D01*
%LPC*%
D18*
X208838800Y-58521600D03*
X132125141Y-65166580D03*
X208625140Y-96466581D03*
X132125141Y-103466580D03*
X234125140Y-119766581D03*
D19*
X212345141Y-48956580D03*
D20*
X217425141Y-48956580D03*
D21*
X222505141Y-48956580D03*
D22*
X211135141Y-43876581D03*
X224985141Y-46416581D03*
D21*
X203505140Y-46456582D03*
D19*
X193345140Y-46456582D03*
D20*
X198425140Y-46456582D03*
D22*
X192135140Y-41376583D03*
X205985140Y-43916583D03*
D21*
X184505140Y-43966580D03*
D19*
X174345140Y-43966580D03*
D20*
X179425140Y-43966580D03*
D22*
X173135140Y-38886581D03*
X186985140Y-41426581D03*
D21*
X165505141Y-46456581D03*
D20*
X160425141Y-46456581D03*
D19*
X155345141Y-46456581D03*
D22*
X154135141Y-41376582D03*
X167985141Y-43916582D03*
D20*
X141425140Y-55456582D03*
D19*
X136345140Y-55456582D03*
D21*
X146505140Y-55456582D03*
D22*
X135135140Y-50376583D03*
X148985140Y-52916583D03*
D19*
X117345140Y-55456581D03*
D21*
X127505140Y-55456581D03*
D20*
X122425140Y-55456581D03*
D22*
X116135140Y-50376582D03*
X129985140Y-52916582D03*
D20*
X217425141Y-68056582D03*
D19*
X212345141Y-68056582D03*
D21*
X222505141Y-68056582D03*
D22*
X211135141Y-62976583D03*
X224985141Y-65516583D03*
D19*
X193345141Y-65556580D03*
D21*
X203505141Y-65556580D03*
D20*
X198425141Y-65556580D03*
D22*
X192135141Y-60476581D03*
X205985141Y-63016581D03*
D20*
X179425140Y-63056582D03*
D21*
X184505140Y-63056582D03*
D19*
X174345140Y-63056582D03*
D22*
X173135140Y-57976583D03*
X186985140Y-60516583D03*
D20*
X160425140Y-65456582D03*
D19*
X155345140Y-65456582D03*
D21*
X165505140Y-65456582D03*
D22*
X154135140Y-60376583D03*
X167985140Y-62916583D03*
D21*
X146505140Y-74356582D03*
D20*
X141425140Y-74356582D03*
D19*
X136345140Y-74356582D03*
D22*
X135135140Y-69276583D03*
X148985140Y-71816583D03*
D21*
X127505140Y-74356582D03*
D20*
X122425140Y-74356582D03*
D19*
X117345140Y-74356582D03*
D22*
X116135140Y-69276583D03*
X129985140Y-71816583D03*
D20*
X217425141Y-87056580D03*
D21*
X222505141Y-87056580D03*
D19*
X212345141Y-87056580D03*
D22*
X211135141Y-81976581D03*
X224985141Y-84516581D03*
D19*
X193345140Y-84556582D03*
D20*
X198425140Y-84556582D03*
D21*
X203505140Y-84556582D03*
D22*
X192135140Y-79476583D03*
X205985140Y-82016583D03*
D19*
X174345140Y-82156582D03*
D20*
X179425140Y-82156582D03*
D21*
X184505140Y-82156582D03*
D22*
X173135140Y-77076583D03*
X186985140Y-79616583D03*
D21*
X165505141Y-84556581D03*
D19*
X155345141Y-84556581D03*
D20*
X160425141Y-84556581D03*
D22*
X154135141Y-79476582D03*
X167985141Y-82016582D03*
D20*
X141425140Y-93556582D03*
D19*
X136345140Y-93556582D03*
D21*
X146505140Y-93556582D03*
D22*
X135135140Y-88476583D03*
X148985140Y-91016583D03*
D19*
X117345140Y-93556580D03*
D20*
X122425140Y-93556580D03*
D21*
X127505140Y-93556580D03*
D22*
X116135140Y-88476581D03*
X129985140Y-91016581D03*
D19*
X212345141Y-106056581D03*
D20*
X217425141Y-106056581D03*
D21*
X222505141Y-106056581D03*
D22*
X211135141Y-100976582D03*
X224985141Y-103516582D03*
D19*
X193345141Y-103656580D03*
D20*
X198425141Y-103656580D03*
D21*
X203505141Y-103656580D03*
D22*
X192135141Y-98576581D03*
X205985141Y-101116581D03*
D19*
X174345140Y-101156582D03*
D20*
X179425140Y-101156582D03*
D21*
X184505140Y-101156582D03*
D22*
X173135140Y-96076583D03*
X186985140Y-98616583D03*
D21*
X165505140Y-103656581D03*
D20*
X160425140Y-103656581D03*
D19*
X155345140Y-103656581D03*
D22*
X154135140Y-98576582D03*
X167985140Y-101116582D03*
D20*
X141425140Y-112556582D03*
D21*
X146505140Y-112556582D03*
D19*
X136345140Y-112556582D03*
D22*
X135135140Y-107476583D03*
X148985140Y-110016583D03*
D20*
X122375141Y-112556582D03*
D19*
X117295141Y-112556582D03*
D21*
X127455141Y-112556582D03*
D22*
X116085141Y-107476583D03*
X129935141Y-110016583D03*
D20*
X241225141Y-132366580D03*
D21*
X238685141Y-136765989D03*
D19*
X243765141Y-127967171D03*
D23*
X248769549Y-129459280D03*
X239644845Y-140183732D03*
D20*
X220325140Y-127356582D03*
D19*
X215648975Y-125371668D03*
D21*
X225001305Y-129341496D03*
D24*
X216520078Y-120222719D03*
X228276613Y-127972428D03*
D20*
X198425140Y-122756581D03*
D19*
X193345140Y-122756581D03*
D21*
X203505140Y-122756581D03*
D22*
X192135140Y-117676582D03*
X205985140Y-120216582D03*
D21*
X184505140Y-120156582D03*
D19*
X174345140Y-120156582D03*
D20*
X179425140Y-120156582D03*
D22*
X173135140Y-115076583D03*
X186985140Y-117616583D03*
D25*
X232795140Y-92848580D03*
D20*
X160425141Y-122656581D03*
D21*
X165505141Y-122656581D03*
D19*
X155345141Y-122656581D03*
D22*
X154135141Y-117576582D03*
X167985141Y-120116582D03*
D25*
X251243141Y-92848582D03*
D26*
X82102640Y-69426582D03*
D19*
X74482640Y-74506582D03*
D26*
X77022640Y-69426582D03*
D19*
X84642640Y-74506582D03*
D20*
X79562640Y-74506582D03*
D26*
X75752640Y-71966582D03*
X83372640Y-71966582D03*
D22*
X73272640Y-69426582D03*
X87122640Y-71966582D03*
D21*
X103692641Y-55456582D03*
D19*
X93532641Y-55456582D03*
D20*
X98612641Y-55456582D03*
D22*
X92322641Y-50376583D03*
X106172641Y-52916583D03*
D27*
X108712000Y-62611000D03*
D28*
X109093000Y-71212500D03*
D29*
X229907140Y-38416581D03*
X229907140Y-40956581D03*
X229907140Y-43496581D03*
X229907140Y-46036581D03*
X229907140Y-48576581D03*
X229907140Y-51116581D03*
X229907140Y-53656581D03*
X229907140Y-56196581D03*
X229907140Y-58736581D03*
X229907140Y-61276581D03*
X229907140Y-63816581D03*
X229907140Y-66356581D03*
X229907140Y-68896581D03*
X229907140Y-71436581D03*
X229907140Y-73976581D03*
X229907140Y-76516581D03*
X229907140Y-79056581D03*
X229907140Y-81596581D03*
X229907140Y-84136581D03*
X229907140Y-86676581D03*
X245147140Y-38416581D03*
X245147140Y-40956581D03*
X245147140Y-43496581D03*
X245147140Y-46036581D03*
X245147140Y-48576581D03*
X245147140Y-51116581D03*
X245147140Y-53656581D03*
X245147140Y-56196581D03*
X245147140Y-58736581D03*
X245147140Y-61276581D03*
X245147140Y-63816581D03*
X245147140Y-66356581D03*
X245147140Y-68896581D03*
X245147140Y-71436581D03*
X245147140Y-73976581D03*
X245147140Y-76516581D03*
X245147140Y-79056581D03*
X245147140Y-81596581D03*
X245147140Y-84136581D03*
X245147140Y-86676581D03*
D27*
X108712000Y-79814000D03*
D30*
X250339141Y-52386581D03*
X251639141Y-52386581D03*
D31*
X55146000Y-103999000D03*
X58646000Y-102249000D03*
X55146000Y-102249000D03*
X58646000Y-103999000D03*
D19*
X55432641Y-74506581D03*
D20*
X60512641Y-74506581D03*
D21*
X65592641Y-74506581D03*
D22*
X54222641Y-69426582D03*
X68072641Y-71966582D03*
D27*
X112522000Y-99730480D03*
D31*
X140236000Y-103745000D03*
X143736000Y-101995000D03*
X140236000Y-101995000D03*
X143736000Y-103745000D03*
D27*
X112522000Y-97790000D03*
X108712000Y-99730480D03*
D28*
X112141000Y-71212500D03*
D32*
X87109000Y-105918000D03*
X88659000Y-105918000D03*
D27*
X108712000Y-84914000D03*
X112522000Y-79814000D03*
D33*
X109093000Y-92202000D03*
D26*
X101152641Y-69426581D03*
X96072641Y-69426581D03*
D19*
X93532641Y-74506581D03*
D26*
X94802641Y-71966581D03*
X102422641Y-71966581D03*
D20*
X98612641Y-74506581D03*
D19*
X103692641Y-74506581D03*
D22*
X92322641Y-69426581D03*
X106172641Y-71966581D03*
D34*
X175781000Y-111252000D03*
X174231000Y-111252000D03*
D25*
X253714000Y-66856580D03*
D31*
X177828000Y-110857000D03*
X181328000Y-109107000D03*
X177828000Y-109107000D03*
X181328000Y-110857000D03*
D27*
X108712000Y-86614000D03*
X108712000Y-103505000D03*
D21*
X242607140Y-58724800D03*
X242607140Y-56184800D03*
X242607140Y-53644800D03*
X242607140Y-51104800D03*
X242607140Y-48564800D03*
X242607140Y-46024800D03*
X242607140Y-43484800D03*
X242607140Y-40944800D03*
D19*
X93532641Y-112606581D03*
D20*
X98612641Y-112606581D03*
D21*
X103692641Y-112606581D03*
D22*
X92322641Y-107526582D03*
X106172641Y-110066582D03*
D34*
X91707000Y-59944000D03*
X90157000Y-59944000D03*
D27*
X108712000Y-81514000D03*
D35*
X251063290Y-71280000D03*
X251063290Y-77060000D03*
D36*
X249350290Y-77370000D03*
X249350290Y-76570000D03*
D37*
X249358690Y-75420000D03*
X249358690Y-74420000D03*
X249358690Y-73920000D03*
X249358690Y-72920000D03*
D36*
X249350290Y-71770000D03*
X249350290Y-70970000D03*
X249350290Y-70970000D03*
X249350290Y-71770000D03*
D37*
X249358690Y-72420000D03*
X249358690Y-73420000D03*
X249358690Y-74920000D03*
D38*
X249358690Y-75920000D03*
D36*
X249350290Y-76570000D03*
X249350290Y-77370000D03*
D39*
X250563290Y-69850000D03*
D40*
X254743290Y-78490000D03*
X254743290Y-69850000D03*
D39*
X250563290Y-78490000D03*
D27*
X108712000Y-59182000D03*
D41*
X213360000Y-114059000D03*
X213360000Y-112509000D03*
D34*
X143777000Y-62230000D03*
X142227000Y-62230000D03*
D20*
X79562641Y-55456580D03*
D21*
X84642641Y-55456580D03*
D19*
X74482641Y-55456580D03*
D22*
X73272641Y-50376581D03*
X87122641Y-52916581D03*
D27*
X108712000Y-83214000D03*
D34*
X181623000Y-50292000D03*
X180073000Y-50292000D03*
D42*
X109093000Y-54229000D03*
D27*
X112522000Y-60858293D03*
X112522000Y-116563182D03*
X108712000Y-60858293D03*
D21*
X65592641Y-112606581D03*
D20*
X60512641Y-112606581D03*
D19*
X55432641Y-112606581D03*
D22*
X54222641Y-107526582D03*
X68072641Y-110066582D03*
D18*
X69850000Y-103466580D03*
D31*
X58646000Y-62371000D03*
X55146000Y-64121000D03*
X58646000Y-64121000D03*
X55146000Y-62371000D03*
D27*
X112522000Y-62611000D03*
D31*
X90904000Y-62117000D03*
X87404000Y-63867000D03*
X90904000Y-63867000D03*
X87404000Y-62117000D03*
D43*
X253511141Y-80275580D03*
X255721141Y-87997580D03*
X253511141Y-87997580D03*
D44*
X254621141Y-85636580D03*
X254621141Y-82636580D03*
D43*
X255721141Y-80275580D03*
D45*
X252427141Y-86386580D03*
X252427141Y-83386580D03*
X252427141Y-81886580D03*
D27*
X108712000Y-97790000D03*
D21*
X65592641Y-55456582D03*
D19*
X55432641Y-55456582D03*
D20*
X60512641Y-55456582D03*
D22*
X54222641Y-50376583D03*
X68072641Y-52916583D03*
D27*
X108712000Y-101600000D03*
X112522000Y-83214000D03*
D31*
X215420000Y-116191000D03*
X218920000Y-114441000D03*
X215420000Y-114441000D03*
X218920000Y-116191000D03*
D21*
X65592641Y-93556582D03*
D19*
X55432641Y-93556582D03*
D20*
X60512641Y-93556582D03*
D22*
X54222641Y-88476583D03*
X68072641Y-91016583D03*
D34*
X138189000Y-104140000D03*
X136639000Y-104140000D03*
D27*
X112522000Y-103505000D03*
D19*
X74482640Y-112606582D03*
D20*
X79562640Y-112606582D03*
D21*
X84642640Y-112606582D03*
D22*
X73272640Y-107526583D03*
X87122640Y-110066583D03*
D32*
X57391000Y-60452000D03*
X58941000Y-60452000D03*
D46*
X115062000Y-76058000D03*
D47*
X115062000Y-77358000D03*
D27*
X112522000Y-81514000D03*
X112522000Y-101600000D03*
D42*
X112141000Y-54229000D03*
D18*
X69850000Y-63296800D03*
D48*
X254774000Y-49846580D03*
X254774000Y-52386580D03*
X254774000Y-54926580D03*
X254774000Y-57466580D03*
D34*
X218707000Y-53848000D03*
X217157000Y-53848000D03*
D27*
X112522000Y-86614000D03*
D31*
X143482000Y-64149000D03*
X139982000Y-65899000D03*
X143482000Y-65899000D03*
X139982000Y-64149000D03*
D27*
X112522000Y-59182000D03*
D31*
X219174000Y-55767000D03*
X215674000Y-57517000D03*
X219174000Y-57517000D03*
X215674000Y-55767000D03*
D27*
X112522000Y-84914000D03*
D49*
X53035200Y-102730000D03*
X53035200Y-104280000D03*
D31*
X87404000Y-103999000D03*
X90904000Y-102249000D03*
X87404000Y-102249000D03*
X90904000Y-103999000D03*
D30*
X250339140Y-54926582D03*
X251639140Y-54926582D03*
D31*
X181328000Y-52465000D03*
X177828000Y-54215000D03*
X181328000Y-54215000D03*
X177828000Y-52465000D03*
D33*
X112141000Y-92202000D03*
D30*
X250339141Y-57466582D03*
X251639141Y-57466582D03*
D21*
X103692641Y-93556582D03*
D20*
X98612641Y-93556582D03*
D19*
X93532641Y-93556582D03*
D22*
X92322641Y-88476583D03*
X106172641Y-91016583D03*
D19*
X74482641Y-93556582D03*
D20*
X79562641Y-93556582D03*
D21*
X84642641Y-93556582D03*
D22*
X73272641Y-88476583D03*
X87122641Y-91016583D03*
D27*
X108712000Y-116563182D03*
D50*
X249428000Y-83125582D03*
D51*
X249428000Y-80585582D03*
D52*
X250809000Y-61341000D03*
X248809000Y-61341000D03*
D53*
X112141000Y-110034091D03*
D30*
X250339140Y-49846582D03*
X251639140Y-49846582D03*
D25*
X253714000Y-40456580D03*
D52*
X250809000Y-63500000D03*
X248809000Y-63500000D03*
D53*
X109093000Y-110034091D03*
D54*
X249091140Y-106778582D03*
D55*
X249091140Y-101778582D03*
X249091140Y-104278582D03*
D56*
X241591140Y-98678582D03*
X241591140Y-109878582D03*
D55*
X234591140Y-101778582D03*
X234591140Y-106778582D03*
D57*
X225843141Y-91163180D03*
D58*
X225843141Y-87473180D03*
D57*
X130847141Y-59413181D03*
D58*
X130847141Y-55723181D03*
D57*
X106971141Y-116563180D03*
D58*
X106971141Y-112873180D03*
D57*
X187743141Y-48237182D03*
D58*
X187743141Y-44547182D03*
D57*
X130847141Y-97513181D03*
D58*
X130847141Y-93823181D03*
D57*
X106971141Y-79238800D03*
D58*
X106971141Y-75548800D03*
D57*
X230733600Y-110236000D03*
D58*
X230733600Y-106546000D03*
D59*
X225992588Y-135108474D03*
D60*
X227434386Y-131711811D03*
D29*
X83566000Y-66886581D03*
X78486000Y-66886581D03*
X81026000Y-66886581D03*
X78486000Y-82126581D03*
X75946000Y-82126581D03*
X75946000Y-66886581D03*
X86106000Y-82126581D03*
X91186000Y-82126581D03*
X93726000Y-82126581D03*
X101346000Y-82126581D03*
X103886000Y-82126581D03*
X88646000Y-82126581D03*
X83566000Y-82126581D03*
X81026000Y-82126581D03*
X93726000Y-66886581D03*
X91186000Y-66886581D03*
X88646000Y-66886581D03*
X86106000Y-66886581D03*
X101346000Y-66886581D03*
X98806000Y-82126581D03*
X96266000Y-82126581D03*
D61*
X103886000Y-66886581D03*
D29*
X98806000Y-66886581D03*
X96266000Y-66886581D03*
D57*
X133858000Y-79238800D03*
D58*
X133858000Y-75548800D03*
D57*
X133858000Y-97513181D03*
D58*
X133858000Y-93823181D03*
D57*
X87921140Y-97513182D03*
D58*
X87921140Y-93823182D03*
D57*
X168947140Y-69573182D03*
D58*
X168947140Y-65883182D03*
D57*
X130847141Y-79238800D03*
D58*
X130847141Y-75548800D03*
D57*
X206793140Y-69827182D03*
D58*
X206793140Y-66137182D03*
D57*
X225044000Y-72113182D03*
D58*
X225044000Y-68423182D03*
D57*
X206793141Y-126977180D03*
D58*
X206793141Y-123287180D03*
D57*
X168947141Y-50523181D03*
D58*
X168947141Y-46833181D03*
D57*
X87921140Y-78463182D03*
D58*
X87921140Y-74773182D03*
D57*
X106971140Y-97513182D03*
D58*
X106971140Y-93823182D03*
D57*
X168947141Y-126723180D03*
D58*
X168947141Y-123033180D03*
D57*
X187743141Y-69256600D03*
D58*
X187743141Y-65566600D03*
D57*
X225843141Y-110213182D03*
D58*
X225843141Y-106523182D03*
D57*
X53213000Y-59413182D03*
D58*
X53213000Y-55723182D03*
D57*
X68871140Y-97513182D03*
D58*
X68871140Y-93823182D03*
D57*
X130847141Y-116563182D03*
D58*
X130847141Y-112873182D03*
D57*
X87921140Y-59413181D03*
D58*
X87921140Y-55723181D03*
D44*
X254621141Y-85636580D03*
X254621141Y-82636580D03*
D57*
X68871141Y-78463181D03*
D58*
X68871141Y-74773181D03*
D57*
X206793140Y-107927182D03*
D58*
X206793140Y-104237182D03*
D57*
X187743141Y-86337182D03*
D58*
X187743141Y-82647182D03*
D57*
X206793141Y-50777180D03*
D58*
X206793141Y-47087180D03*
D57*
X225843140Y-53063182D03*
D58*
X225843140Y-49373182D03*
D57*
X106971141Y-59413182D03*
D58*
X106971141Y-55723182D03*
D57*
X206793141Y-88877180D03*
D58*
X206793141Y-85187180D03*
D57*
X87921141Y-116563180D03*
D58*
X87921141Y-112873180D03*
D57*
X168947140Y-107673182D03*
D58*
X168947140Y-103983182D03*
D57*
X68871141Y-116563180D03*
D58*
X68871141Y-112873180D03*
D35*
X251063290Y-71280000D03*
X251063290Y-77060000D03*
D39*
X250563290Y-69850000D03*
D40*
X254743290Y-69850000D03*
X254743290Y-78490000D03*
D39*
X250563290Y-78490000D03*
D62*
X230708200Y-136855200D03*
D63*
X233903834Y-138700200D03*
D57*
X133858000Y-116563182D03*
D58*
X133858000Y-112873182D03*
D57*
X187743141Y-124437182D03*
D58*
X187743141Y-120747182D03*
D57*
X187743141Y-105387181D03*
D58*
X187743141Y-101697181D03*
D57*
X133858000Y-59413180D03*
D58*
X133858000Y-55723180D03*
D57*
X168947141Y-88623180D03*
D58*
X168947141Y-84933180D03*
M02*
