G04 #@! TF.GenerationSoftware,KiCad,Pcbnew,(6.0.6)*
G04 #@! TF.CreationDate,2022-08-01T11:49:19+07:00*
G04 #@! TF.ProjectId,nRFpill,6e524670-696c-46c2-9e6b-696361645f70,rev?*
G04 #@! TF.SameCoordinates,Original*
G04 #@! TF.FileFunction,Profile,NP*
%FSLAX46Y46*%
G04 Gerber Fmt 4.6, Leading zero omitted, Abs format (unit mm)*
G04 Created by KiCad (PCBNEW (6.0.6)) date 2022-08-01 11:49:19*
%MOMM*%
%LPD*%
G01*
G04 APERTURE LIST*
G04 #@! TA.AperFunction,Profile*
%ADD10C,0.100000*%
G04 #@! TD*
G04 #@! TA.AperFunction,Profile*
%ADD11C,0.120000*%
G04 #@! TD*
G04 APERTURE END LIST*
D10*
X107830000Y-61595000D02*
X107830000Y-41275000D01*
X107830000Y-80010000D02*
X107830000Y-69215000D01*
X110370000Y-61595000D02*
X110370000Y-41275000D01*
X110370000Y-29337000D02*
X110370000Y-33655000D01*
X110370000Y-80010000D02*
X110370000Y-69215000D01*
X107830000Y-29337000D02*
X107830000Y-33655000D01*
X84510000Y-29337000D02*
X84510000Y-33655000D01*
X84510000Y-80010000D02*
X84510000Y-69215000D01*
X87050000Y-80010000D02*
X87050000Y-69215000D01*
X84510000Y-61595000D02*
X84510000Y-41275000D01*
X87050000Y-61595000D02*
X87050000Y-41275000D01*
X87050000Y-29337000D02*
X87050000Y-33655000D01*
X63730000Y-61595000D02*
X63730000Y-41275000D01*
X61190000Y-80010000D02*
X61190000Y-69215000D01*
X63730000Y-80010000D02*
X63730000Y-69215000D01*
X61190000Y-29337000D02*
X61190000Y-33655000D01*
X63730000Y-80010000D02*
G75*
G03*
X65000000Y-81280000I1270000J0D01*
G01*
X54610000Y-81280000D02*
X41680000Y-81280000D01*
X59920000Y-81280000D02*
X54610000Y-81280000D01*
X87050000Y-80010000D02*
G75*
G03*
X88320000Y-81280000I1270000J0D01*
G01*
X41172000Y-28575000D02*
G75*
G03*
X40410000Y-29337000I0J-762000D01*
G01*
X83240000Y-81280000D02*
X77930000Y-81280000D01*
X129880000Y-81280000D02*
G75*
G03*
X131150000Y-80010000I0J1270000D01*
G01*
X46990000Y-28575000D02*
X60428000Y-28575000D01*
X61190000Y-29337000D02*
G75*
G03*
X60428000Y-28575000I-762000J0D01*
G01*
X83240000Y-81280000D02*
G75*
G03*
X84510000Y-80010000I0J1270000D01*
G01*
X64492000Y-28575000D02*
G75*
G03*
X63730000Y-29337000I0J-762000D01*
G01*
X77930000Y-81280000D02*
X65000000Y-81280000D01*
X106560000Y-81280000D02*
X101250000Y-81280000D01*
X129880000Y-81280000D02*
X124570000Y-81280000D01*
X101250000Y-81280000D02*
X88320000Y-81280000D01*
X131150000Y-80010000D02*
X131150000Y-29337000D01*
X124570000Y-81280000D02*
X111640000Y-81280000D01*
X93630000Y-28575000D02*
X87812000Y-28575000D01*
X111132000Y-28575000D02*
G75*
G03*
X110370000Y-29337000I0J-762000D01*
G01*
X59920000Y-81280000D02*
G75*
G03*
X61190000Y-80010000I0J1270000D01*
G01*
X124570000Y-28575000D02*
X130388000Y-28575000D01*
X40410000Y-80010000D02*
G75*
G03*
X41680000Y-81280000I1270000J0D01*
G01*
X110370000Y-80010000D02*
G75*
G03*
X111640000Y-81280000I1270000J0D01*
G01*
X84510000Y-29337000D02*
G75*
G03*
X83748000Y-28575000I-762000J0D01*
G01*
X131150000Y-29337000D02*
G75*
G03*
X130388000Y-28575000I-762000J0D01*
G01*
X61190000Y-61595000D02*
X61190000Y-41275000D01*
X87812000Y-28575000D02*
G75*
G03*
X87050000Y-29337000I0J-762000D01*
G01*
X63730000Y-29337000D02*
X63730000Y-33655000D01*
X77930000Y-28575000D02*
X83748000Y-28575000D01*
X124570000Y-28575000D02*
X111132000Y-28575000D01*
X93630000Y-28575000D02*
X107068000Y-28575000D01*
X106560000Y-81280000D02*
G75*
G03*
X107830000Y-80010000I0J1270000D01*
G01*
X40410000Y-29337000D02*
X40410000Y-80010000D01*
X77930000Y-28575000D02*
X64492000Y-28575000D01*
X46990000Y-28575000D02*
X41172000Y-28575000D01*
X107830000Y-29337000D02*
G75*
G03*
X107068000Y-28575000I-762000J0D01*
G01*
D11*
X110370000Y-41275000D02*
G75*
G03*
X107830000Y-41275000I-1270000J0D01*
G01*
X107830000Y-33655000D02*
G75*
G03*
X110370000Y-33655000I1270000J0D01*
G01*
X110370000Y-69215000D02*
G75*
G03*
X107830000Y-69215000I-1270000J0D01*
G01*
X107830000Y-61595000D02*
G75*
G03*
X110370000Y-61595000I1270000J0D01*
G01*
X87050000Y-69215000D02*
G75*
G03*
X84510000Y-69215000I-1270000J0D01*
G01*
X84510000Y-61595000D02*
G75*
G03*
X87050000Y-61595000I1270000J0D01*
G01*
X87050000Y-41275000D02*
G75*
G03*
X84510000Y-41275000I-1270000J0D01*
G01*
X84510000Y-33655000D02*
G75*
G03*
X87050000Y-33655000I1270000J0D01*
G01*
X61190000Y-61595000D02*
G75*
G03*
X63730000Y-61595000I1270000J0D01*
G01*
X63730000Y-69215000D02*
G75*
G03*
X61190000Y-69215000I-1270000J0D01*
G01*
X61190000Y-33655000D02*
G75*
G03*
X63730000Y-33655000I1270000J0D01*
G01*
X63730000Y-41275000D02*
G75*
G03*
X61190000Y-41275000I-1270000J0D01*
G01*
M02*
