G04 #@! TF.GenerationSoftware,KiCad,Pcbnew,(6.0.7)*
G04 #@! TF.CreationDate,2022-08-27T01:23:02+07:00*
G04 #@! TF.ProjectId,nRFpill,6e524670-696c-46c2-9e6b-696361645f70,rev?*
G04 #@! TF.SameCoordinates,Original*
G04 #@! TF.FileFunction,Soldermask,Top*
G04 #@! TF.FilePolarity,Negative*
%FSLAX46Y46*%
G04 Gerber Fmt 4.6, Leading zero omitted, Abs format (unit mm)*
G04 Created by KiCad (PCBNEW (6.0.7)) date 2022-08-27 01:23:02*
%MOMM*%
%LPD*%
G01*
G04 APERTURE LIST*
G04 Aperture macros list*
%AMRoundRect*
0 Rectangle with rounded corners*
0 $1 Rounding radius*
0 $2 $3 $4 $5 $6 $7 $8 $9 X,Y pos of 4 corners*
0 Add a 4 corners polygon primitive as box body*
4,1,4,$2,$3,$4,$5,$6,$7,$8,$9,$2,$3,0*
0 Add four circle primitives for the rounded corners*
1,1,$1+$1,$2,$3*
1,1,$1+$1,$4,$5*
1,1,$1+$1,$6,$7*
1,1,$1+$1,$8,$9*
0 Add four rect primitives between the rounded corners*
20,1,$1+$1,$2,$3,$4,$5,0*
20,1,$1+$1,$4,$5,$6,$7,0*
20,1,$1+$1,$6,$7,$8,$9,0*
20,1,$1+$1,$8,$9,$2,$3,0*%
G04 Aperture macros list end*
%ADD10RoundRect,0.225000X-0.250000X0.225000X-0.250000X-0.225000X0.250000X-0.225000X0.250000X0.225000X0*%
%ADD11RoundRect,0.200000X0.200000X0.275000X-0.200000X0.275000X-0.200000X-0.275000X0.200000X-0.275000X0*%
%ADD12RoundRect,0.225000X0.250000X-0.225000X0.250000X0.225000X-0.250000X0.225000X-0.250000X-0.225000X0*%
%ADD13C,1.700000*%
%ADD14R,1.700000X1.671000*%
%ADD15RoundRect,0.200000X-0.275000X0.200000X-0.275000X-0.200000X0.275000X-0.200000X0.275000X0.200000X0*%
%ADD16RoundRect,0.250000X-0.425000X0.450000X-0.425000X-0.450000X0.425000X-0.450000X0.425000X0.450000X0*%
%ADD17R,1.000000X1.000000*%
%ADD18RoundRect,0.150000X0.150000X-0.512500X0.150000X0.512500X-0.150000X0.512500X-0.150000X-0.512500X0*%
%ADD19RoundRect,0.200000X-0.200000X-0.275000X0.200000X-0.275000X0.200000X0.275000X-0.200000X0.275000X0*%
%ADD20R,0.600000X0.800000*%
%ADD21R,0.300000X0.800000*%
%ADD22O,1.000000X1.800000*%
%ADD23O,1.000000X2.200000*%
%ADD24RoundRect,0.150000X-0.150000X0.512500X-0.150000X-0.512500X0.150000X-0.512500X0.150000X0.512500X0*%
%ADD25RoundRect,0.150000X0.587500X0.150000X-0.587500X0.150000X-0.587500X-0.150000X0.587500X-0.150000X0*%
%ADD26RoundRect,0.200000X0.275000X-0.200000X0.275000X0.200000X-0.275000X0.200000X-0.275000X-0.200000X0*%
%ADD27RoundRect,0.150000X-0.150000X0.587500X-0.150000X-0.587500X0.150000X-0.587500X0.150000X0.587500X0*%
%ADD28RoundRect,0.250000X0.450000X0.425000X-0.450000X0.425000X-0.450000X-0.425000X0.450000X-0.425000X0*%
%ADD29R,1.100000X0.350000*%
%ADD30R,0.350000X1.100000*%
%ADD31R,1.300000X1.800000*%
%ADD32RoundRect,0.218750X-0.256250X0.218750X-0.256250X-0.218750X0.256250X-0.218750X0.256250X0.218750X0*%
%ADD33RoundRect,0.150000X0.512500X0.150000X-0.512500X0.150000X-0.512500X-0.150000X0.512500X-0.150000X0*%
%ADD34RoundRect,0.218750X0.256250X-0.218750X0.256250X0.218750X-0.256250X0.218750X-0.256250X-0.218750X0*%
G04 APERTURE END LIST*
D10*
X77266800Y-52552800D03*
X77266800Y-54102800D03*
D11*
X73469000Y-53226200D03*
X71819000Y-53226200D03*
D12*
X71755000Y-56439600D03*
X71755000Y-54889600D03*
D13*
X83820000Y-25413200D03*
X83820000Y-27953200D03*
X83820000Y-30493200D03*
X83820000Y-33033200D03*
X83820000Y-35573200D03*
X83820000Y-38113200D03*
X83820000Y-40653200D03*
X83820000Y-43193200D03*
X83820000Y-45733200D03*
X83820000Y-48273200D03*
X83820000Y-50813200D03*
X83820000Y-53353200D03*
X83820000Y-55893200D03*
X83820000Y-58433200D03*
X83820000Y-60973200D03*
X83820000Y-63513200D03*
X83820000Y-66053200D03*
X83820000Y-68593200D03*
X83820000Y-71133200D03*
X83820000Y-73673200D03*
D14*
X78867000Y-36852200D03*
X78867000Y-41161200D03*
D11*
X80454000Y-50737000D03*
X78804000Y-50737000D03*
D15*
X76150000Y-47285000D03*
X76150000Y-48935000D03*
D12*
X73533000Y-56439600D03*
X73533000Y-54889600D03*
D16*
X71526400Y-42986200D03*
X71526400Y-45686200D03*
D17*
X76200000Y-41268200D03*
X76200000Y-38768200D03*
D18*
X75250000Y-36075700D03*
X76200000Y-36075700D03*
X77150000Y-36075700D03*
X77150000Y-33800700D03*
X76200000Y-33800700D03*
X75250000Y-33800700D03*
D13*
X68580000Y-25413200D03*
X68580000Y-27953200D03*
X68580000Y-30493200D03*
X68580000Y-33033200D03*
X68580000Y-35573200D03*
X68580000Y-38113200D03*
X68580000Y-40653200D03*
X68580000Y-43193200D03*
X68580000Y-45733200D03*
X68580000Y-48273200D03*
X68580000Y-50813200D03*
X68580000Y-53353200D03*
X68580000Y-55893200D03*
X68580000Y-58433200D03*
X68580000Y-60973200D03*
X68580000Y-63513200D03*
X68580000Y-66053200D03*
X68580000Y-68593200D03*
X68580000Y-71133200D03*
X68580000Y-73673200D03*
D14*
X73533000Y-36852200D03*
X73533000Y-41161200D03*
D19*
X78931000Y-33414200D03*
X80581000Y-33414200D03*
X71692000Y-33414200D03*
X73342000Y-33414200D03*
D20*
X79400000Y-30469200D03*
X78600000Y-30469200D03*
D21*
X77450000Y-30469200D03*
X76450000Y-30469200D03*
X75950000Y-30469200D03*
X74950000Y-30469200D03*
D20*
X73800000Y-30469200D03*
X73000000Y-30469200D03*
X73000000Y-30469200D03*
X73800000Y-30469200D03*
D21*
X74450000Y-30469200D03*
X75450000Y-30469200D03*
X76950000Y-30469200D03*
X77950000Y-30469200D03*
D20*
X78600000Y-30469200D03*
X79400000Y-30469200D03*
D22*
X70625000Y-29794200D03*
D23*
X70625000Y-25794200D03*
D22*
X81775000Y-29794200D03*
D23*
X81775000Y-25794200D03*
D24*
X75499000Y-43452700D03*
X74549000Y-43452700D03*
X73599000Y-43452700D03*
X73599000Y-45727700D03*
X75499000Y-45727700D03*
D25*
X73327500Y-51636200D03*
X73327500Y-49736200D03*
X71452500Y-50686200D03*
D26*
X80645000Y-44907200D03*
X80645000Y-43257200D03*
D27*
X79055000Y-43525700D03*
X77155000Y-43525700D03*
X78105000Y-45400700D03*
D11*
X77235000Y-50737000D03*
X75585000Y-50737000D03*
D28*
X74121000Y-47765200D03*
X71421000Y-47765200D03*
D11*
X80403200Y-54115200D03*
X78753200Y-54115200D03*
D29*
X81800000Y-70423200D03*
X81800000Y-69773200D03*
X81800000Y-69123200D03*
X81800000Y-68473200D03*
X81800000Y-67823200D03*
X81800000Y-67173200D03*
X81800000Y-66523200D03*
X81800000Y-65873200D03*
X81800000Y-65223200D03*
X81800000Y-64573200D03*
X81800000Y-63923200D03*
X81800000Y-63273200D03*
X81800000Y-62623200D03*
X81800000Y-61973200D03*
X81800000Y-61323200D03*
X81800000Y-60673200D03*
X81800000Y-60023200D03*
D30*
X81400000Y-58823200D03*
X80750000Y-58823200D03*
X80100000Y-58823200D03*
X79450000Y-58823200D03*
X78800000Y-58823200D03*
X78150000Y-58823200D03*
X77500000Y-58823200D03*
X76850000Y-58823200D03*
X76200000Y-58823200D03*
X75550000Y-58823200D03*
X74900000Y-58823200D03*
X74250000Y-58823200D03*
X73600000Y-58823200D03*
X72950000Y-58823200D03*
X72300000Y-58823200D03*
X71650000Y-58823200D03*
X71000000Y-58823200D03*
D29*
X70600000Y-60023200D03*
X70600000Y-60673200D03*
X70600000Y-61323200D03*
X70600000Y-61973200D03*
X70600000Y-62623200D03*
X70600000Y-63273200D03*
X70600000Y-63923200D03*
X70600000Y-64573200D03*
X70600000Y-65223200D03*
X70600000Y-65873200D03*
X70600000Y-66523200D03*
X70600000Y-67173200D03*
X70600000Y-67823200D03*
X70600000Y-68473200D03*
X70600000Y-69123200D03*
X70600000Y-69773200D03*
X70600000Y-70423200D03*
D30*
X71700000Y-70323200D03*
X72300000Y-70323200D03*
X72950000Y-70323200D03*
X73600000Y-70323200D03*
X74250000Y-70323200D03*
D29*
X72300000Y-69123200D03*
X72300000Y-68473200D03*
X72300000Y-67823200D03*
X72300000Y-67173200D03*
D31*
X74950000Y-66923200D03*
X74950000Y-64073200D03*
X77750000Y-64073200D03*
X77750000Y-66923200D03*
D32*
X71196200Y-37325700D03*
X71196200Y-38900700D03*
D33*
X80258500Y-49030200D03*
X80258500Y-48080200D03*
X80258500Y-47130200D03*
X77983500Y-47130200D03*
X77983500Y-49030200D03*
D26*
X81280000Y-41955000D03*
X81280000Y-40305000D03*
D34*
X81280000Y-38900700D03*
X81280000Y-37325700D03*
D11*
X80403200Y-52565800D03*
X78753200Y-52565800D03*
M02*
