M48
; DRILL file {KiCad (6.0.6)} date Mon Aug  1 11:49:19 2022
; FORMAT={-:-/ absolute / inch / decimal}
; #@! TF.CreationDate,2022-08-01T11:49:19+07:00
; #@! TF.GenerationSoftware,Kicad,Pcbnew,(6.0.6)
; #@! TF.FileFunction,Plated,1,2,PTH
FMAT,2
INCH
; #@! TA.AperFunction,Plated,PTH,ViaDrill
T1C0.0118
; #@! TA.AperFunction,Plated,PTH,ViaDrill
T2C0.0138
; #@! TA.AperFunction,Plated,PTH,ComponentDrill
T3C0.0236
; #@! TA.AperFunction,Plated,PTH,ComponentDrill
T4C0.0354
%
G90
G05
T1
X1.755Y-2.92
X1.7723Y-1.3183
X1.8Y-2.8194
X1.805Y-2.87
X1.8095Y-2.7933
X1.8104Y-2.897
X1.813Y-2.8437
X1.815Y-1.793
X1.818Y-2.7671
X1.8406Y-2.7424
X1.847Y-2.79
X1.8635Y-2.7195
X1.8725Y-2.8989
X1.879Y-2.768
X1.88Y-2.64
X1.88Y-2.669
X1.8811Y-2.6983
X1.8956Y-1.773
X1.8965Y-2.6161
X1.9016Y-2.79
X1.9036Y-2.445
X1.9257Y-2.4615
X1.939Y-2.4152
X1.9589Y-1.4349
X1.96Y-2.565
X1.96Y-2.5925
X1.9852Y-1.6453
X1.9916Y-1.3163
X2.0132Y-1.432
X2.0148Y-1.6453
X2.0511Y-2.409
X2.052Y-2.528
X2.072Y-1.7655
X2.076Y-2.549
X2.0866Y-1.828
X2.0964Y-2.401
X2.0964Y-2.448
X2.0995Y-2.6175
X2.1236Y-2.4529
X2.1508Y-2.4575
X2.161Y-2.646
X2.1775Y-2.4641
X2.187Y-2.59
X2.1902Y-2.5546
X2.196Y-2.336
X2.6731Y-2.92
X2.6904Y-1.3183
X2.7181Y-2.8194
X2.7231Y-2.87
X2.7276Y-2.7933
X2.7285Y-2.897
X2.7311Y-2.8437
X2.7331Y-1.793
X2.7361Y-2.7671
X2.7587Y-2.7424
X2.7651Y-2.79
X2.7816Y-2.7195
X2.7906Y-2.8989
X2.7971Y-2.768
X2.7981Y-2.64
X2.7981Y-2.669
X2.7992Y-2.6983
X2.8137Y-1.773
X2.8146Y-2.6161
X2.8197Y-2.79
X2.8218Y-2.445
X2.8438Y-2.4615
X2.8572Y-2.4152
X2.877Y-1.4349
X2.8781Y-2.565
X2.8781Y-2.5925
X2.9033Y-1.6453
X2.9097Y-1.3163
X2.9313Y-1.432
X2.9329Y-1.6453
X2.9692Y-2.409
X2.9701Y-2.528
X2.9901Y-1.7655
X2.9941Y-2.549
X3.0047Y-1.828
X3.0145Y-2.401
X3.0145Y-2.448
X3.0176Y-2.6175
X3.0417Y-2.4529
X3.0689Y-2.4575
X3.0791Y-2.646
X3.0956Y-2.4641
X3.1051Y-2.59
X3.1083Y-2.5546
X3.1141Y-2.336
X3.5912Y-2.92
X3.6085Y-1.3183
X3.6362Y-2.8194
X3.6412Y-2.87
X3.6457Y-2.7933
X3.6466Y-2.897
X3.6492Y-2.8437
X3.6512Y-1.793
X3.6542Y-2.7671
X3.6769Y-2.7424
X3.6832Y-2.79
X3.6997Y-2.7195
X3.7087Y-2.8989
X3.7152Y-2.768
X3.7162Y-2.64
X3.7162Y-2.669
X3.7173Y-2.6983
X3.7318Y-1.773
X3.7327Y-2.6161
X3.7378Y-2.79
X3.7399Y-2.445
X3.7619Y-2.4615
X3.7753Y-2.4152
X3.7951Y-1.4349
X3.7962Y-2.565
X3.7962Y-2.5925
X3.8215Y-1.6453
X3.8278Y-1.3163
X3.8494Y-1.432
X3.851Y-1.6453
X3.8874Y-2.409
X3.8882Y-2.528
X3.9082Y-1.7655
X3.9122Y-2.549
X3.9228Y-1.828
X3.9326Y-2.401
X3.9326Y-2.448
X3.9357Y-2.6175
X3.9598Y-2.4529
X3.987Y-2.4575
X3.9972Y-2.646
X4.0137Y-2.4641
X4.0232Y-2.59
X4.0264Y-2.5546
X4.0322Y-2.336
X4.5093Y-2.92
X4.5266Y-1.3183
X4.5543Y-2.8194
X4.5593Y-2.87
X4.5638Y-2.7933
X4.5647Y-2.897
X4.5673Y-2.8437
X4.5693Y-1.793
X4.5723Y-2.7671
X4.595Y-2.7424
X4.6013Y-2.79
X4.6178Y-2.7195
X4.6268Y-2.8989
X4.6333Y-2.768
X4.6343Y-2.64
X4.6343Y-2.669
X4.6354Y-2.6983
X4.6499Y-1.773
X4.6508Y-2.6161
X4.6559Y-2.79
X4.658Y-2.445
X4.68Y-2.4615
X4.6934Y-2.4152
X4.7132Y-1.4349
X4.7143Y-2.565
X4.7143Y-2.5925
X4.7396Y-1.6453
X4.7459Y-1.3163
X4.7675Y-1.432
X4.7691Y-1.6453
X4.8055Y-2.409
X4.8063Y-2.528
X4.8263Y-1.7655
X4.8303Y-2.549
X4.8409Y-1.828
X4.8507Y-2.401
X4.8507Y-2.448
X4.8538Y-2.6175
X4.8779Y-2.4529
X4.9051Y-2.4575
X4.9153Y-2.646
X4.9318Y-2.4641
X4.9414Y-2.59
X4.9446Y-2.5546
X4.9503Y-2.336
T2
X1.6441Y-2.025
X1.6441Y-2.225
X1.9016Y-1.627
X1.9025Y-1.4559
X2.0Y-1.4606
X2.03Y-2.031
X2.0374Y-1.833
X2.09Y-1.4523
X2.158Y-2.932
X2.5622Y-2.025
X2.5622Y-2.225
X2.8197Y-1.627
X2.8206Y-1.4559
X2.9181Y-1.4606
X2.9481Y-2.031
X2.9555Y-1.833
X3.0081Y-1.4523
X3.0761Y-2.932
X3.4803Y-2.025
X3.4803Y-2.225
X3.7378Y-1.627
X3.7387Y-1.4559
X3.8362Y-1.4606
X3.8662Y-2.031
X3.8736Y-1.833
X3.9262Y-1.4523
X3.9942Y-2.932
X4.3984Y-2.025
X4.3984Y-2.225
X4.6559Y-1.627
X4.6568Y-1.4559
X4.7543Y-1.4606
X4.7843Y-2.031
X4.7917Y-1.833
X4.8443Y-1.4523
X4.9123Y-2.932
T4
X1.7Y-1.175
X1.7Y-1.275
X1.7Y-1.375
X1.7Y-1.475
X1.7Y-1.575
X1.7Y-1.675
X1.7Y-1.775
X1.7Y-1.875
X1.7Y-1.975
X1.7Y-2.075
X1.7Y-2.175
X1.7Y-2.275
X1.7Y-2.375
X1.7Y-2.475
X1.7Y-2.575
X1.7Y-2.675
X1.7Y-2.775
X1.7Y-2.875
X1.7Y-2.975
X1.7Y-3.075
X2.3Y-1.175
X2.3Y-1.275
X2.3Y-1.375
X2.3Y-1.475
X2.3Y-1.575
X2.3Y-1.675
X2.3Y-1.775
X2.3Y-1.875
X2.3Y-1.975
X2.3Y-2.075
X2.3Y-2.175
X2.3Y-2.275
X2.3Y-2.375
X2.3Y-2.475
X2.3Y-2.575
X2.3Y-2.675
X2.3Y-2.775
X2.3Y-2.875
X2.3Y-2.975
X2.3Y-3.075
X2.6181Y-1.175
X2.6181Y-1.275
X2.6181Y-1.375
X2.6181Y-1.475
X2.6181Y-1.575
X2.6181Y-1.675
X2.6181Y-1.775
X2.6181Y-1.875
X2.6181Y-1.975
X2.6181Y-2.075
X2.6181Y-2.175
X2.6181Y-2.275
X2.6181Y-2.375
X2.6181Y-2.475
X2.6181Y-2.575
X2.6181Y-2.675
X2.6181Y-2.775
X2.6181Y-2.875
X2.6181Y-2.975
X2.6181Y-3.075
X3.2181Y-1.175
X3.2181Y-1.275
X3.2181Y-1.375
X3.2181Y-1.475
X3.2181Y-1.575
X3.2181Y-1.675
X3.2181Y-1.775
X3.2181Y-1.875
X3.2181Y-1.975
X3.2181Y-2.075
X3.2181Y-2.175
X3.2181Y-2.275
X3.2181Y-2.375
X3.2181Y-2.475
X3.2181Y-2.575
X3.2181Y-2.675
X3.2181Y-2.775
X3.2181Y-2.875
X3.2181Y-2.975
X3.2181Y-3.075
X3.5362Y-1.175
X3.5362Y-1.275
X3.5362Y-1.375
X3.5362Y-1.475
X3.5362Y-1.575
X3.5362Y-1.675
X3.5362Y-1.775
X3.5362Y-1.875
X3.5362Y-1.975
X3.5362Y-2.075
X3.5362Y-2.175
X3.5362Y-2.275
X3.5362Y-2.375
X3.5362Y-2.475
X3.5362Y-2.575
X3.5362Y-2.675
X3.5362Y-2.775
X3.5362Y-2.875
X3.5362Y-2.975
X3.5362Y-3.075
X4.1362Y-1.175
X4.1362Y-1.275
X4.1362Y-1.375
X4.1362Y-1.475
X4.1362Y-1.575
X4.1362Y-1.675
X4.1362Y-1.775
X4.1362Y-1.875
X4.1362Y-1.975
X4.1362Y-2.075
X4.1362Y-2.175
X4.1362Y-2.275
X4.1362Y-2.375
X4.1362Y-2.475
X4.1362Y-2.575
X4.1362Y-2.675
X4.1362Y-2.775
X4.1362Y-2.875
X4.1362Y-2.975
X4.1362Y-3.075
X4.4543Y-1.175
X4.4543Y-1.275
X4.4543Y-1.375
X4.4543Y-1.475
X4.4543Y-1.575
X4.4543Y-1.675
X4.4543Y-1.775
X4.4543Y-1.875
X4.4543Y-1.975
X4.4543Y-2.075
X4.4543Y-2.175
X4.4543Y-2.275
X4.4543Y-2.375
X4.4543Y-2.475
X4.4543Y-2.575
X4.4543Y-2.675
X4.4543Y-2.775
X4.4543Y-2.875
X4.4543Y-2.975
X4.4543Y-3.075
X5.0543Y-1.175
X5.0543Y-1.275
X5.0543Y-1.375
X5.0543Y-1.475
X5.0543Y-1.575
X5.0543Y-1.675
X5.0543Y-1.775
X5.0543Y-1.875
X5.0543Y-1.975
X5.0543Y-2.075
X5.0543Y-2.175
X5.0543Y-2.275
X5.0543Y-2.375
X5.0543Y-2.475
X5.0543Y-2.575
X5.0543Y-2.675
X5.0543Y-2.775
X5.0543Y-2.875
X5.0543Y-2.975
X5.0543Y-3.075
T3
G00X1.8299Y-1.2195
M15
G01X1.8299Y-1.1959
M16
G05
G00X1.8299Y-1.3939
M15
G01X1.8299Y-1.3506
M16
G05
G00X2.1701Y-1.2195
M15
G01X2.1701Y-1.1959
M16
G05
G00X2.1701Y-1.3939
M15
G01X2.1701Y-1.3506
M16
G05
G00X2.748Y-1.2195
M15
G01X2.748Y-1.1959
M16
G05
G00X2.748Y-1.3939
M15
G01X2.748Y-1.3506
M16
G05
G00X3.0882Y-1.2195
M15
G01X3.0882Y-1.1959
M16
G05
G00X3.0882Y-1.3939
M15
G01X3.0882Y-1.3506
M16
G05
G00X3.6661Y-1.2195
M15
G01X3.6661Y-1.1959
M16
G05
G00X3.6661Y-1.3939
M15
G01X3.6661Y-1.3506
M16
G05
G00X4.0063Y-1.2195
M15
G01X4.0063Y-1.1959
M16
G05
G00X4.0063Y-1.3939
M15
G01X4.0063Y-1.3506
M16
G05
G00X4.5843Y-1.2195
M15
G01X4.5843Y-1.1959
M16
G05
G00X4.5843Y-1.3939
M15
G01X4.5843Y-1.3506
M16
G05
G00X4.9244Y-1.2195
M15
G01X4.9244Y-1.1959
M16
G05
G00X4.9244Y-1.3939
M15
G01X4.9244Y-1.3506
M16
G05
T0
M30
