M48
; DRILL file {KiCad (6.0.6)} date Mon Aug  1 11:49:19 2022
; FORMAT={-:-/ absolute / inch / decimal}
; #@! TF.CreationDate,2022-08-01T11:49:19+07:00
; #@! TF.GenerationSoftware,Kicad,Pcbnew,(6.0.6)
; #@! TF.FileFunction,NonPlated,1,2,NPTH
FMAT,2
INCH
; #@! TA.AperFunction,NonPlated,NPTH,ComponentDrill
T1C0.0256
; #@! TA.AperFunction,NonPlated,NPTH,ComponentDrill
T2C0.0310
%
G90
G05
T1
X1.8862Y-1.3526
X2.1138Y-1.3526
X2.8043Y-1.3526
X3.0319Y-1.3526
X3.7224Y-1.3526
X3.95Y-1.3526
X4.6406Y-1.3526
X4.8681Y-1.3526
T2
X2.4191Y-1.375
X2.4191Y-1.425
X2.4191Y-1.475
X2.4191Y-1.525
X2.4191Y-1.575
X2.4191Y-2.475
X2.4191Y-2.525
X2.4191Y-2.575
X2.4191Y-2.625
X2.4191Y-2.675
X2.4991Y-1.375
X2.4991Y-1.425
X2.4991Y-1.475
X2.4991Y-1.525
X2.4991Y-1.575
X2.4991Y-2.475
X2.4991Y-2.525
X2.4991Y-2.575
X2.4991Y-2.625
X2.4991Y-2.675
X3.3372Y-1.375
X3.3372Y-1.425
X3.3372Y-1.475
X3.3372Y-1.525
X3.3372Y-1.575
X3.3372Y-2.475
X3.3372Y-2.525
X3.3372Y-2.575
X3.3372Y-2.625
X3.3372Y-2.675
X3.4172Y-1.375
X3.4172Y-1.425
X3.4172Y-1.475
X3.4172Y-1.525
X3.4172Y-1.575
X3.4172Y-2.475
X3.4172Y-2.525
X3.4172Y-2.575
X3.4172Y-2.625
X3.4172Y-2.675
X4.2553Y-1.375
X4.2553Y-1.425
X4.2553Y-1.475
X4.2553Y-1.525
X4.2553Y-1.575
X4.2553Y-2.475
X4.2553Y-2.525
X4.2553Y-2.575
X4.2553Y-2.625
X4.2553Y-2.675
X4.3353Y-1.375
X4.3353Y-1.425
X4.3353Y-1.475
X4.3353Y-1.525
X4.3353Y-1.575
X4.3353Y-2.475
X4.3353Y-2.525
X4.3353Y-2.575
X4.3353Y-2.625
X4.3353Y-2.675
T0
M30
