G04 #@! TF.GenerationSoftware,KiCad,Pcbnew,(6.0.6)*
G04 #@! TF.CreationDate,2022-08-01T11:49:19+07:00*
G04 #@! TF.ProjectId,nRFpill,6e524670-696c-46c2-9e6b-696361645f70,rev?*
G04 #@! TF.SameCoordinates,Original*
G04 #@! TF.FileFunction,Soldermask,Top*
G04 #@! TF.FilePolarity,Negative*
%FSLAX46Y46*%
G04 Gerber Fmt 4.6, Leading zero omitted, Abs format (unit mm)*
G04 Created by KiCad (PCBNEW (6.0.6)) date 2022-08-01 11:49:19*
%MOMM*%
%LPD*%
G01*
G04 APERTURE LIST*
G04 Aperture macros list*
%AMRoundRect*
0 Rectangle with rounded corners*
0 $1 Rounding radius*
0 $2 $3 $4 $5 $6 $7 $8 $9 X,Y pos of 4 corners*
0 Add a 4 corners polygon primitive as box body*
4,1,4,$2,$3,$4,$5,$6,$7,$8,$9,$2,$3,0*
0 Add four circle primitives for the rounded corners*
1,1,$1+$1,$2,$3*
1,1,$1+$1,$4,$5*
1,1,$1+$1,$6,$7*
1,1,$1+$1,$8,$9*
0 Add four rect primitives between the rounded corners*
20,1,$1+$1,$2,$3,$4,$5,0*
20,1,$1+$1,$4,$5,$6,$7,0*
20,1,$1+$1,$6,$7,$8,$9,0*
20,1,$1+$1,$8,$9,$2,$3,0*%
G04 Aperture macros list end*
%ADD10C,0.787400*%
%ADD11RoundRect,0.200000X-0.200000X-0.275000X0.200000X-0.275000X0.200000X0.275000X-0.200000X0.275000X0*%
%ADD12RoundRect,0.150000X0.150000X-0.512500X0.150000X0.512500X-0.150000X0.512500X-0.150000X-0.512500X0*%
%ADD13RoundRect,0.225000X-0.250000X0.225000X-0.250000X-0.225000X0.250000X-0.225000X0.250000X0.225000X0*%
%ADD14RoundRect,0.200000X0.200000X0.275000X-0.200000X0.275000X-0.200000X-0.275000X0.200000X-0.275000X0*%
%ADD15RoundRect,0.225000X0.250000X-0.225000X0.250000X0.225000X-0.250000X0.225000X-0.250000X-0.225000X0*%
%ADD16R,1.700000X0.900000*%
%ADD17RoundRect,0.150000X-0.150000X0.587500X-0.150000X-0.587500X0.150000X-0.587500X0.150000X0.587500X0*%
%ADD18R,0.800000X0.350000*%
%ADD19R,0.350000X0.800000*%
%ADD20R,1.000000X1.500000*%
%ADD21C,1.700000*%
%ADD22RoundRect,0.200000X-0.275000X0.200000X-0.275000X-0.200000X0.275000X-0.200000X0.275000X0.200000X0*%
%ADD23RoundRect,0.218750X-0.256250X0.218750X-0.256250X-0.218750X0.256250X-0.218750X0.256250X0.218750X0*%
%ADD24RoundRect,0.150000X0.587500X0.150000X-0.587500X0.150000X-0.587500X-0.150000X0.587500X-0.150000X0*%
%ADD25RoundRect,0.250000X0.450000X0.425000X-0.450000X0.425000X-0.450000X-0.425000X0.450000X-0.425000X0*%
%ADD26RoundRect,0.250000X-0.425000X0.450000X-0.425000X-0.450000X0.425000X-0.450000X0.425000X0.450000X0*%
%ADD27R,1.000000X1.000000*%
%ADD28RoundRect,0.150000X0.512500X0.150000X-0.512500X0.150000X-0.512500X-0.150000X0.512500X-0.150000X0*%
%ADD29C,0.650000*%
%ADD30R,0.600000X1.160000*%
%ADD31R,0.300000X1.150000*%
%ADD32O,1.000000X1.600000*%
%ADD33O,1.000000X2.100000*%
%ADD34RoundRect,0.218750X0.256250X-0.218750X0.256250X0.218750X-0.256250X0.218750X-0.256250X-0.218750X0*%
%ADD35RoundRect,0.200000X0.275000X-0.200000X0.275000X0.200000X-0.275000X0.200000X-0.275000X-0.200000X0*%
%ADD36RoundRect,0.150000X-0.150000X0.512500X-0.150000X-0.512500X0.150000X-0.512500X0.150000X0.512500X0*%
G04 APERTURE END LIST*
D10*
X108084000Y-40005000D03*
X110116000Y-37465000D03*
X108084000Y-38735000D03*
X108084000Y-34925000D03*
X108084000Y-37465000D03*
X110116000Y-38735000D03*
X110116000Y-34925000D03*
X110116000Y-36195000D03*
X108084000Y-36195000D03*
X110116000Y-40005000D03*
X108084000Y-67945000D03*
X110116000Y-64135000D03*
X110116000Y-67945000D03*
X108084000Y-65405000D03*
X110116000Y-62865000D03*
X110116000Y-65405000D03*
X108084000Y-62865000D03*
X110116000Y-66675000D03*
X108084000Y-66675000D03*
X108084000Y-64135000D03*
X84764000Y-67945000D03*
X86796000Y-64135000D03*
X86796000Y-67945000D03*
X84764000Y-65405000D03*
X86796000Y-62865000D03*
X86796000Y-65405000D03*
X84764000Y-62865000D03*
X86796000Y-66675000D03*
X84764000Y-66675000D03*
X84764000Y-64135000D03*
X84764000Y-40005000D03*
X86796000Y-37465000D03*
X84764000Y-38735000D03*
X84764000Y-34925000D03*
X84764000Y-37465000D03*
X86796000Y-38735000D03*
X86796000Y-34925000D03*
X86796000Y-36195000D03*
X84764000Y-36195000D03*
X86796000Y-40005000D03*
X61444000Y-64135000D03*
X61444000Y-67945000D03*
X63476000Y-64135000D03*
X61444000Y-65405000D03*
X63476000Y-62865000D03*
X61444000Y-62865000D03*
X63476000Y-67945000D03*
X63476000Y-66675000D03*
X61444000Y-66675000D03*
X63476000Y-65405000D03*
X61444000Y-36195000D03*
X61444000Y-40005000D03*
X63476000Y-36195000D03*
X61444000Y-37465000D03*
X63476000Y-34925000D03*
X61444000Y-34925000D03*
X63476000Y-40005000D03*
X63476000Y-38735000D03*
X61444000Y-38735000D03*
X63476000Y-37465000D03*
D11*
X69612000Y-38227000D03*
X71262000Y-38227000D03*
D12*
X119810000Y-40507500D03*
X120760000Y-40507500D03*
X121710000Y-40507500D03*
X121710000Y-38232500D03*
X120760000Y-38232500D03*
X119810000Y-38232500D03*
D13*
X51866800Y-56984600D03*
X51866800Y-58534600D03*
D14*
X48069000Y-57658000D03*
X46419000Y-57658000D03*
D15*
X46355000Y-60871400D03*
X46355000Y-59321400D03*
D16*
X123300000Y-42343600D03*
X123300000Y-45743600D03*
X99980000Y-42343600D03*
X99980000Y-45743600D03*
D17*
X76975000Y-47957500D03*
X75075000Y-47957500D03*
X76025000Y-49832500D03*
D18*
X103040000Y-74855000D03*
X103040000Y-74205000D03*
X103040000Y-73555000D03*
X103040000Y-72905000D03*
X103040000Y-72255000D03*
X103040000Y-71605000D03*
X103040000Y-70955000D03*
X103040000Y-70305000D03*
X103040000Y-69655000D03*
X103040000Y-69005000D03*
X103040000Y-68355000D03*
X103040000Y-67705000D03*
X103040000Y-67055000D03*
X103040000Y-66405000D03*
X103040000Y-65755000D03*
X103040000Y-65105000D03*
X103040000Y-64455000D03*
D19*
X102640000Y-63255000D03*
X101990000Y-63255000D03*
X101340000Y-63255000D03*
X100690000Y-63255000D03*
X100040000Y-63255000D03*
X99390000Y-63255000D03*
X98740000Y-63255000D03*
X98090000Y-63255000D03*
X97440000Y-63255000D03*
X96790000Y-63255000D03*
X96140000Y-63255000D03*
X95490000Y-63255000D03*
X94840000Y-63255000D03*
X94190000Y-63255000D03*
X93540000Y-63255000D03*
X92890000Y-63255000D03*
X92240000Y-63255000D03*
D18*
X91840000Y-64455000D03*
X91840000Y-65105000D03*
X91840000Y-65755000D03*
X91840000Y-66405000D03*
X91840000Y-67055000D03*
X91840000Y-67705000D03*
X91840000Y-68355000D03*
X91840000Y-69005000D03*
X91840000Y-69655000D03*
X91840000Y-70305000D03*
X91840000Y-70955000D03*
X91840000Y-71605000D03*
X91840000Y-72255000D03*
X91840000Y-72905000D03*
X91840000Y-73555000D03*
X91840000Y-74205000D03*
X91840000Y-74855000D03*
D19*
X92890000Y-74755000D03*
X93540000Y-74755000D03*
X94190000Y-74755000D03*
X94840000Y-74755000D03*
X95490000Y-74755000D03*
D18*
X93540000Y-73555000D03*
X93540000Y-72905000D03*
X93540000Y-72255000D03*
X93540000Y-71605000D03*
D20*
X96190000Y-71355000D03*
X98990000Y-71355000D03*
X98990000Y-68505000D03*
X96190000Y-68505000D03*
D21*
X58420000Y-29845000D03*
X58420000Y-32385000D03*
X58420000Y-34925000D03*
X58420000Y-37465000D03*
X58420000Y-40005000D03*
X58420000Y-42545000D03*
X58420000Y-45085000D03*
X58420000Y-47625000D03*
X58420000Y-50165000D03*
X58420000Y-52705000D03*
X58420000Y-55245000D03*
X58420000Y-57785000D03*
X58420000Y-60325000D03*
X58420000Y-62865000D03*
X58420000Y-65405000D03*
X58420000Y-67945000D03*
X58420000Y-70485000D03*
X58420000Y-73025000D03*
X58420000Y-75565000D03*
X58420000Y-78105000D03*
D16*
X53340000Y-42343600D03*
X53340000Y-45743600D03*
D22*
X73637400Y-56934600D03*
X73637400Y-58584600D03*
D23*
X69116200Y-43256100D03*
X69116200Y-44831100D03*
D11*
X92932000Y-38227000D03*
X94582000Y-38227000D03*
X53404000Y-55168800D03*
X55054000Y-55168800D03*
D24*
X94567500Y-56068000D03*
X94567500Y-54168000D03*
X92692500Y-55118000D03*
D11*
X50254400Y-55194200D03*
X51904400Y-55194200D03*
X100171000Y-39852600D03*
X101821000Y-39852600D03*
D14*
X94582000Y-39852600D03*
X92932000Y-39852600D03*
D15*
X69675000Y-60871400D03*
X69675000Y-59321400D03*
D25*
X95361000Y-52197000D03*
X92661000Y-52197000D03*
D15*
X48133000Y-60871400D03*
X48133000Y-59321400D03*
D24*
X117887500Y-56068000D03*
X117887500Y-54168000D03*
X116012500Y-55118000D03*
D23*
X79123800Y-43256100D03*
X79123800Y-44831100D03*
D15*
X71453000Y-60871400D03*
X71453000Y-59321400D03*
D26*
X46126400Y-47418000D03*
X46126400Y-50118000D03*
D27*
X50800000Y-45700000D03*
X50800000Y-43200000D03*
D16*
X76660000Y-42343600D03*
X76660000Y-45743600D03*
D11*
X123491000Y-39852600D03*
X125141000Y-39852600D03*
D12*
X73170000Y-40507500D03*
X74120000Y-40507500D03*
X75070000Y-40507500D03*
X75070000Y-38232500D03*
X74120000Y-38232500D03*
X73170000Y-38232500D03*
X49850000Y-40507500D03*
X50800000Y-40507500D03*
X51750000Y-40507500D03*
X51750000Y-38232500D03*
X50800000Y-38232500D03*
X49850000Y-38232500D03*
D21*
X43180000Y-29845000D03*
X43180000Y-32385000D03*
X43180000Y-34925000D03*
X43180000Y-37465000D03*
X43180000Y-40005000D03*
X43180000Y-42545000D03*
X43180000Y-45085000D03*
X43180000Y-47625000D03*
X43180000Y-50165000D03*
X43180000Y-52705000D03*
X43180000Y-55245000D03*
X43180000Y-57785000D03*
X43180000Y-60325000D03*
X43180000Y-62865000D03*
X43180000Y-65405000D03*
X43180000Y-67945000D03*
X43180000Y-70485000D03*
X43180000Y-73025000D03*
X43180000Y-75565000D03*
X43180000Y-78105000D03*
X89820000Y-29845000D03*
X89820000Y-32385000D03*
X89820000Y-34925000D03*
X89820000Y-37465000D03*
X89820000Y-40005000D03*
X89820000Y-42545000D03*
X89820000Y-45085000D03*
X89820000Y-47625000D03*
X89820000Y-50165000D03*
X89820000Y-52705000D03*
X89820000Y-55245000D03*
X89820000Y-57785000D03*
X89820000Y-60325000D03*
X89820000Y-62865000D03*
X89820000Y-65405000D03*
X89820000Y-67945000D03*
X89820000Y-70485000D03*
X89820000Y-73025000D03*
X89820000Y-75565000D03*
X89820000Y-78105000D03*
D22*
X96957400Y-56934600D03*
X96957400Y-58584600D03*
D21*
X105060000Y-29845000D03*
X105060000Y-32385000D03*
X105060000Y-34925000D03*
X105060000Y-37465000D03*
X105060000Y-40005000D03*
X105060000Y-42545000D03*
X105060000Y-45085000D03*
X105060000Y-47625000D03*
X105060000Y-50165000D03*
X105060000Y-52705000D03*
X105060000Y-55245000D03*
X105060000Y-57785000D03*
X105060000Y-60325000D03*
X105060000Y-62865000D03*
X105060000Y-65405000D03*
X105060000Y-67945000D03*
X105060000Y-70485000D03*
X105060000Y-73025000D03*
X105060000Y-75565000D03*
X105060000Y-78105000D03*
D15*
X116315000Y-60871400D03*
X116315000Y-59321400D03*
D14*
X71262000Y-39852600D03*
X69612000Y-39852600D03*
D15*
X94773000Y-60871400D03*
X94773000Y-59321400D03*
D23*
X102443800Y-43256100D03*
X102443800Y-44831100D03*
D25*
X118681000Y-52197000D03*
X115981000Y-52197000D03*
D16*
X71580000Y-42343600D03*
X71580000Y-45743600D03*
X48260000Y-42343600D03*
X48260000Y-45743600D03*
D27*
X120760000Y-45700000D03*
X120760000Y-43200000D03*
D24*
X71247500Y-56068000D03*
X71247500Y-54168000D03*
X69372500Y-55118000D03*
D11*
X73574400Y-55194200D03*
X75224400Y-55194200D03*
D14*
X118029000Y-57658000D03*
X116379000Y-57658000D03*
D11*
X53531000Y-38227000D03*
X55181000Y-38227000D03*
X96894400Y-55194200D03*
X98544400Y-55194200D03*
X76851000Y-38227000D03*
X78501000Y-38227000D03*
D16*
X118220000Y-42343600D03*
X118220000Y-45743600D03*
D21*
X113140000Y-29845000D03*
X113140000Y-32385000D03*
X113140000Y-34925000D03*
X113140000Y-37465000D03*
X113140000Y-40005000D03*
X113140000Y-42545000D03*
X113140000Y-45085000D03*
X113140000Y-47625000D03*
X113140000Y-50165000D03*
X113140000Y-52705000D03*
X113140000Y-55245000D03*
X113140000Y-57785000D03*
X113140000Y-60325000D03*
X113140000Y-62865000D03*
X113140000Y-65405000D03*
X113140000Y-67945000D03*
X113140000Y-70485000D03*
X113140000Y-73025000D03*
X113140000Y-75565000D03*
X113140000Y-78105000D03*
D14*
X78323200Y-58547000D03*
X76673200Y-58547000D03*
D28*
X78178500Y-53462000D03*
X78178500Y-52512000D03*
X78178500Y-51562000D03*
X75903500Y-51562000D03*
X75903500Y-53462000D03*
D29*
X123650000Y-34355000D03*
X117870000Y-34355000D03*
D30*
X123960000Y-35428400D03*
X123160000Y-35428400D03*
D31*
X122010000Y-35420000D03*
X121010000Y-35420000D03*
X120510000Y-35420000D03*
X119510000Y-35420000D03*
D30*
X118360000Y-35428400D03*
X117560000Y-35428400D03*
X117560000Y-35428400D03*
X118360000Y-35428400D03*
D31*
X119010000Y-35420000D03*
X120010000Y-35420000D03*
X121510000Y-35420000D03*
X122510000Y-35420000D03*
D30*
X123160000Y-35428400D03*
X123960000Y-35428400D03*
D32*
X116440000Y-30675000D03*
D33*
X125080000Y-34855000D03*
D32*
X125080000Y-30675000D03*
D33*
X116440000Y-34855000D03*
D34*
X120633000Y-53365500D03*
X120633000Y-51790500D03*
D14*
X94709000Y-57658000D03*
X93059000Y-57658000D03*
X101643200Y-56997600D03*
X99993200Y-56997600D03*
D11*
X46292000Y-38227000D03*
X47942000Y-38227000D03*
D23*
X45796200Y-43256100D03*
X45796200Y-44831100D03*
D22*
X120277400Y-56934600D03*
X120277400Y-58584600D03*
D14*
X78323200Y-56997600D03*
X76673200Y-56997600D03*
D23*
X115756200Y-43256100D03*
X115756200Y-44831100D03*
D11*
X116252000Y-38227000D03*
X117902000Y-38227000D03*
D35*
X101885000Y-49339000D03*
X101885000Y-47689000D03*
D21*
X128380000Y-29845000D03*
X128380000Y-32385000D03*
X128380000Y-34925000D03*
X128380000Y-37465000D03*
X128380000Y-40005000D03*
X128380000Y-42545000D03*
X128380000Y-45085000D03*
X128380000Y-47625000D03*
X128380000Y-50165000D03*
X128380000Y-52705000D03*
X128380000Y-55245000D03*
X128380000Y-57785000D03*
X128380000Y-60325000D03*
X128380000Y-62865000D03*
X128380000Y-65405000D03*
X128380000Y-67945000D03*
X128380000Y-70485000D03*
X128380000Y-73025000D03*
X128380000Y-75565000D03*
X128380000Y-78105000D03*
D15*
X92995000Y-60871400D03*
X92995000Y-59321400D03*
D29*
X53690000Y-34355000D03*
X47910000Y-34355000D03*
D30*
X54000000Y-35428400D03*
X53200000Y-35428400D03*
D31*
X52050000Y-35420000D03*
X51050000Y-35420000D03*
X50550000Y-35420000D03*
X49550000Y-35420000D03*
D30*
X48400000Y-35428400D03*
X47600000Y-35428400D03*
X47600000Y-35428400D03*
X48400000Y-35428400D03*
D31*
X49050000Y-35420000D03*
X50050000Y-35420000D03*
X51550000Y-35420000D03*
X52550000Y-35420000D03*
D30*
X53200000Y-35428400D03*
X54000000Y-35428400D03*
D32*
X55120000Y-30675000D03*
X46480000Y-30675000D03*
D33*
X46480000Y-34855000D03*
X55120000Y-34855000D03*
D35*
X125205000Y-49339000D03*
X125205000Y-47689000D03*
D12*
X96490000Y-40507500D03*
X97440000Y-40507500D03*
X98390000Y-40507500D03*
X98390000Y-38232500D03*
X97440000Y-38232500D03*
X96490000Y-38232500D03*
D11*
X76724000Y-55168800D03*
X78374000Y-55168800D03*
D26*
X92766400Y-47418000D03*
X92766400Y-50118000D03*
D11*
X76851000Y-39852600D03*
X78501000Y-39852600D03*
D23*
X92436200Y-43256100D03*
X92436200Y-44831100D03*
D34*
X73993000Y-53365500D03*
X73993000Y-51790500D03*
D28*
X124818500Y-53462000D03*
X124818500Y-52512000D03*
X124818500Y-51562000D03*
X122543500Y-51562000D03*
X122543500Y-53462000D03*
D36*
X120059000Y-47884500D03*
X119109000Y-47884500D03*
X118159000Y-47884500D03*
X118159000Y-50159500D03*
X120059000Y-50159500D03*
D27*
X74120000Y-45700000D03*
X74120000Y-43200000D03*
D14*
X124963200Y-56997600D03*
X123313200Y-56997600D03*
D36*
X50099000Y-47884500D03*
X49149000Y-47884500D03*
X48199000Y-47884500D03*
X48199000Y-50159500D03*
X50099000Y-50159500D03*
D24*
X47927500Y-56068000D03*
X47927500Y-54168000D03*
X46052500Y-55118000D03*
D35*
X78565000Y-49339000D03*
X78565000Y-47689000D03*
D16*
X94900000Y-42343600D03*
X94900000Y-45743600D03*
D28*
X101498500Y-53462000D03*
X101498500Y-52512000D03*
X101498500Y-51562000D03*
X99223500Y-51562000D03*
X99223500Y-53462000D03*
D35*
X55245000Y-49339000D03*
X55245000Y-47689000D03*
D17*
X53655000Y-47957500D03*
X51755000Y-47957500D03*
X52705000Y-49832500D03*
D11*
X123491000Y-38227000D03*
X125141000Y-38227000D03*
D14*
X124963200Y-58547000D03*
X123313200Y-58547000D03*
D13*
X98506800Y-56984600D03*
X98506800Y-58534600D03*
D22*
X50317400Y-56934600D03*
X50317400Y-58584600D03*
D17*
X123615000Y-47957500D03*
X121715000Y-47957500D03*
X122665000Y-49832500D03*
D11*
X120214400Y-55194200D03*
X121864400Y-55194200D03*
D27*
X97440000Y-45700000D03*
X97440000Y-43200000D03*
D29*
X77010000Y-34355000D03*
X71230000Y-34355000D03*
D30*
X77320000Y-35428400D03*
X76520000Y-35428400D03*
D31*
X75370000Y-35420000D03*
X74370000Y-35420000D03*
X73870000Y-35420000D03*
X72870000Y-35420000D03*
D30*
X71720000Y-35428400D03*
X70920000Y-35428400D03*
X70920000Y-35428400D03*
X71720000Y-35428400D03*
D31*
X72370000Y-35420000D03*
X73370000Y-35420000D03*
X74870000Y-35420000D03*
X75870000Y-35420000D03*
D30*
X76520000Y-35428400D03*
X77320000Y-35428400D03*
D32*
X69800000Y-30675000D03*
D33*
X78440000Y-34855000D03*
D32*
X78440000Y-30675000D03*
D33*
X69800000Y-34855000D03*
D18*
X126360000Y-74855000D03*
X126360000Y-74205000D03*
X126360000Y-73555000D03*
X126360000Y-72905000D03*
X126360000Y-72255000D03*
X126360000Y-71605000D03*
X126360000Y-70955000D03*
X126360000Y-70305000D03*
X126360000Y-69655000D03*
X126360000Y-69005000D03*
X126360000Y-68355000D03*
X126360000Y-67705000D03*
X126360000Y-67055000D03*
X126360000Y-66405000D03*
X126360000Y-65755000D03*
X126360000Y-65105000D03*
X126360000Y-64455000D03*
D19*
X125960000Y-63255000D03*
X125310000Y-63255000D03*
X124660000Y-63255000D03*
X124010000Y-63255000D03*
X123360000Y-63255000D03*
X122710000Y-63255000D03*
X122060000Y-63255000D03*
X121410000Y-63255000D03*
X120760000Y-63255000D03*
X120110000Y-63255000D03*
X119460000Y-63255000D03*
X118810000Y-63255000D03*
X118160000Y-63255000D03*
X117510000Y-63255000D03*
X116860000Y-63255000D03*
X116210000Y-63255000D03*
X115560000Y-63255000D03*
D18*
X115160000Y-64455000D03*
X115160000Y-65105000D03*
X115160000Y-65755000D03*
X115160000Y-66405000D03*
X115160000Y-67055000D03*
X115160000Y-67705000D03*
X115160000Y-68355000D03*
X115160000Y-69005000D03*
X115160000Y-69655000D03*
X115160000Y-70305000D03*
X115160000Y-70955000D03*
X115160000Y-71605000D03*
X115160000Y-72255000D03*
X115160000Y-72905000D03*
X115160000Y-73555000D03*
X115160000Y-74205000D03*
X115160000Y-74855000D03*
D19*
X116210000Y-74755000D03*
X116860000Y-74755000D03*
X117510000Y-74755000D03*
X118160000Y-74755000D03*
X118810000Y-74755000D03*
D18*
X116860000Y-73555000D03*
X116860000Y-72905000D03*
X116860000Y-72255000D03*
X116860000Y-71605000D03*
D20*
X119510000Y-71355000D03*
X122310000Y-71355000D03*
X122310000Y-68505000D03*
X119510000Y-68505000D03*
D25*
X48721000Y-52197000D03*
X46021000Y-52197000D03*
D21*
X66500000Y-29845000D03*
X66500000Y-32385000D03*
X66500000Y-34925000D03*
X66500000Y-37465000D03*
X66500000Y-40005000D03*
X66500000Y-42545000D03*
X66500000Y-45085000D03*
X66500000Y-47625000D03*
X66500000Y-50165000D03*
X66500000Y-52705000D03*
X66500000Y-55245000D03*
X66500000Y-57785000D03*
X66500000Y-60325000D03*
X66500000Y-62865000D03*
X66500000Y-65405000D03*
X66500000Y-67945000D03*
X66500000Y-70485000D03*
X66500000Y-73025000D03*
X66500000Y-75565000D03*
X66500000Y-78105000D03*
D18*
X79720000Y-74855000D03*
X79720000Y-74205000D03*
X79720000Y-73555000D03*
X79720000Y-72905000D03*
X79720000Y-72255000D03*
X79720000Y-71605000D03*
X79720000Y-70955000D03*
X79720000Y-70305000D03*
X79720000Y-69655000D03*
X79720000Y-69005000D03*
X79720000Y-68355000D03*
X79720000Y-67705000D03*
X79720000Y-67055000D03*
X79720000Y-66405000D03*
X79720000Y-65755000D03*
X79720000Y-65105000D03*
X79720000Y-64455000D03*
D19*
X79320000Y-63255000D03*
X78670000Y-63255000D03*
X78020000Y-63255000D03*
X77370000Y-63255000D03*
X76720000Y-63255000D03*
X76070000Y-63255000D03*
X75420000Y-63255000D03*
X74770000Y-63255000D03*
X74120000Y-63255000D03*
X73470000Y-63255000D03*
X72820000Y-63255000D03*
X72170000Y-63255000D03*
X71520000Y-63255000D03*
X70870000Y-63255000D03*
X70220000Y-63255000D03*
X69570000Y-63255000D03*
X68920000Y-63255000D03*
D18*
X68520000Y-64455000D03*
X68520000Y-65105000D03*
X68520000Y-65755000D03*
X68520000Y-66405000D03*
X68520000Y-67055000D03*
X68520000Y-67705000D03*
X68520000Y-68355000D03*
X68520000Y-69005000D03*
X68520000Y-69655000D03*
X68520000Y-70305000D03*
X68520000Y-70955000D03*
X68520000Y-71605000D03*
X68520000Y-72255000D03*
X68520000Y-72905000D03*
X68520000Y-73555000D03*
X68520000Y-74205000D03*
X68520000Y-74855000D03*
D19*
X69570000Y-74755000D03*
X70220000Y-74755000D03*
X70870000Y-74755000D03*
X71520000Y-74755000D03*
X72170000Y-74755000D03*
D18*
X70220000Y-73555000D03*
X70220000Y-72905000D03*
X70220000Y-72255000D03*
X70220000Y-71605000D03*
D20*
X72870000Y-71355000D03*
X75670000Y-71355000D03*
X75670000Y-68505000D03*
X72870000Y-68505000D03*
D14*
X71389000Y-57658000D03*
X69739000Y-57658000D03*
D23*
X125763800Y-43256100D03*
X125763800Y-44831100D03*
D14*
X55003200Y-58547000D03*
X53353200Y-58547000D03*
D34*
X97313000Y-53365500D03*
X97313000Y-51790500D03*
D18*
X56400000Y-74855000D03*
X56400000Y-74205000D03*
X56400000Y-73555000D03*
X56400000Y-72905000D03*
X56400000Y-72255000D03*
X56400000Y-71605000D03*
X56400000Y-70955000D03*
X56400000Y-70305000D03*
X56400000Y-69655000D03*
X56400000Y-69005000D03*
X56400000Y-68355000D03*
X56400000Y-67705000D03*
X56400000Y-67055000D03*
X56400000Y-66405000D03*
X56400000Y-65755000D03*
X56400000Y-65105000D03*
X56400000Y-64455000D03*
D19*
X56000000Y-63255000D03*
X55350000Y-63255000D03*
X54700000Y-63255000D03*
X54050000Y-63255000D03*
X53400000Y-63255000D03*
X52750000Y-63255000D03*
X52100000Y-63255000D03*
X51450000Y-63255000D03*
X50800000Y-63255000D03*
X50150000Y-63255000D03*
X49500000Y-63255000D03*
X48850000Y-63255000D03*
X48200000Y-63255000D03*
X47550000Y-63255000D03*
X46900000Y-63255000D03*
X46250000Y-63255000D03*
X45600000Y-63255000D03*
D18*
X45200000Y-64455000D03*
X45200000Y-65105000D03*
X45200000Y-65755000D03*
X45200000Y-66405000D03*
X45200000Y-67055000D03*
X45200000Y-67705000D03*
X45200000Y-68355000D03*
X45200000Y-69005000D03*
X45200000Y-69655000D03*
X45200000Y-70305000D03*
X45200000Y-70955000D03*
X45200000Y-71605000D03*
X45200000Y-72255000D03*
X45200000Y-72905000D03*
X45200000Y-73555000D03*
X45200000Y-74205000D03*
X45200000Y-74855000D03*
D19*
X46250000Y-74755000D03*
X46900000Y-74755000D03*
X47550000Y-74755000D03*
X48200000Y-74755000D03*
X48850000Y-74755000D03*
D18*
X46900000Y-73555000D03*
X46900000Y-72905000D03*
X46900000Y-72255000D03*
X46900000Y-71605000D03*
D20*
X49550000Y-71355000D03*
X52350000Y-71355000D03*
X52350000Y-68505000D03*
X49550000Y-68505000D03*
D14*
X47942000Y-39852600D03*
X46292000Y-39852600D03*
D11*
X123364000Y-55168800D03*
X125014000Y-55168800D03*
X100044000Y-55168800D03*
X101694000Y-55168800D03*
D13*
X121826800Y-56984600D03*
X121826800Y-58534600D03*
D26*
X116086400Y-47418000D03*
X116086400Y-50118000D03*
D34*
X50673000Y-53365500D03*
X50673000Y-51790500D03*
D28*
X54858500Y-53462000D03*
X54858500Y-52512000D03*
X54858500Y-51562000D03*
X52583500Y-51562000D03*
X52583500Y-53462000D03*
D29*
X94550000Y-34355000D03*
X100330000Y-34355000D03*
D30*
X100640000Y-35428400D03*
X99840000Y-35428400D03*
D31*
X98690000Y-35420000D03*
X97690000Y-35420000D03*
X97190000Y-35420000D03*
X96190000Y-35420000D03*
D30*
X95040000Y-35428400D03*
X94240000Y-35428400D03*
X94240000Y-35428400D03*
X95040000Y-35428400D03*
D31*
X95690000Y-35420000D03*
X96690000Y-35420000D03*
X98190000Y-35420000D03*
X99190000Y-35420000D03*
D30*
X99840000Y-35428400D03*
X100640000Y-35428400D03*
D33*
X93120000Y-34855000D03*
X101760000Y-34855000D03*
D32*
X101760000Y-30675000D03*
X93120000Y-30675000D03*
D36*
X96739000Y-47884500D03*
X95789000Y-47884500D03*
X94839000Y-47884500D03*
X94839000Y-50159500D03*
X96739000Y-50159500D03*
D11*
X53531000Y-39852600D03*
X55181000Y-39852600D03*
D36*
X73419000Y-47884500D03*
X72469000Y-47884500D03*
X71519000Y-47884500D03*
X71519000Y-50159500D03*
X73419000Y-50159500D03*
D17*
X100295000Y-47957500D03*
X98395000Y-47957500D03*
X99345000Y-49832500D03*
D23*
X55803800Y-43256100D03*
X55803800Y-44831100D03*
D25*
X72041000Y-52197000D03*
X69341000Y-52197000D03*
D14*
X101643200Y-58547000D03*
X99993200Y-58547000D03*
X55003200Y-56997600D03*
X53353200Y-56997600D03*
D11*
X100171000Y-38227000D03*
X101821000Y-38227000D03*
D21*
X81740000Y-29845000D03*
X81740000Y-32385000D03*
X81740000Y-34925000D03*
X81740000Y-37465000D03*
X81740000Y-40005000D03*
X81740000Y-42545000D03*
X81740000Y-45085000D03*
X81740000Y-47625000D03*
X81740000Y-50165000D03*
X81740000Y-52705000D03*
X81740000Y-55245000D03*
X81740000Y-57785000D03*
X81740000Y-60325000D03*
X81740000Y-62865000D03*
X81740000Y-65405000D03*
X81740000Y-67945000D03*
X81740000Y-70485000D03*
X81740000Y-73025000D03*
X81740000Y-75565000D03*
X81740000Y-78105000D03*
D15*
X118093000Y-60871400D03*
X118093000Y-59321400D03*
D14*
X117902000Y-39852600D03*
X116252000Y-39852600D03*
D26*
X69446400Y-47418000D03*
X69446400Y-50118000D03*
D13*
X75186800Y-56984600D03*
X75186800Y-58534600D03*
M02*
