G04 #@! TF.GenerationSoftware,KiCad,Pcbnew,(6.0.7)*
G04 #@! TF.CreationDate,2022-08-27T01:23:02+07:00*
G04 #@! TF.ProjectId,nRFpill,6e524670-696c-46c2-9e6b-696361645f70,rev?*
G04 #@! TF.SameCoordinates,Original*
G04 #@! TF.FileFunction,Legend,Top*
G04 #@! TF.FilePolarity,Positive*
%FSLAX46Y46*%
G04 Gerber Fmt 4.6, Leading zero omitted, Abs format (unit mm)*
G04 Created by KiCad (PCBNEW (6.0.7)) date 2022-08-27 01:23:02*
%MOMM*%
%LPD*%
G01*
G04 APERTURE LIST*
G04 Aperture macros list*
%AMRoundRect*
0 Rectangle with rounded corners*
0 $1 Rounding radius*
0 $2 $3 $4 $5 $6 $7 $8 $9 X,Y pos of 4 corners*
0 Add a 4 corners polygon primitive as box body*
4,1,4,$2,$3,$4,$5,$6,$7,$8,$9,$2,$3,0*
0 Add four circle primitives for the rounded corners*
1,1,$1+$1,$2,$3*
1,1,$1+$1,$4,$5*
1,1,$1+$1,$6,$7*
1,1,$1+$1,$8,$9*
0 Add four rect primitives between the rounded corners*
20,1,$1+$1,$2,$3,$4,$5,0*
20,1,$1+$1,$4,$5,$6,$7,0*
20,1,$1+$1,$6,$7,$8,$9,0*
20,1,$1+$1,$8,$9,$2,$3,0*%
G04 Aperture macros list end*
%ADD10C,0.187500*%
%ADD11C,0.200000*%
%ADD12C,0.150000*%
%ADD13C,0.120000*%
%ADD14C,0.250000*%
%ADD15C,0.300000*%
%ADD16C,0.127000*%
%ADD17RoundRect,0.225000X-0.250000X0.225000X-0.250000X-0.225000X0.250000X-0.225000X0.250000X0.225000X0*%
%ADD18RoundRect,0.200000X0.200000X0.275000X-0.200000X0.275000X-0.200000X-0.275000X0.200000X-0.275000X0*%
%ADD19RoundRect,0.225000X0.250000X-0.225000X0.250000X0.225000X-0.250000X0.225000X-0.250000X-0.225000X0*%
%ADD20C,1.700000*%
%ADD21R,1.700000X1.671000*%
%ADD22RoundRect,0.200000X-0.275000X0.200000X-0.275000X-0.200000X0.275000X-0.200000X0.275000X0.200000X0*%
%ADD23RoundRect,0.250000X-0.425000X0.450000X-0.425000X-0.450000X0.425000X-0.450000X0.425000X0.450000X0*%
%ADD24R,1.000000X1.000000*%
%ADD25RoundRect,0.150000X0.150000X-0.512500X0.150000X0.512500X-0.150000X0.512500X-0.150000X-0.512500X0*%
%ADD26RoundRect,0.200000X-0.200000X-0.275000X0.200000X-0.275000X0.200000X0.275000X-0.200000X0.275000X0*%
%ADD27R,0.600000X0.800000*%
%ADD28R,0.300000X0.800000*%
%ADD29O,1.000000X1.800000*%
%ADD30O,1.000000X2.200000*%
%ADD31RoundRect,0.150000X-0.150000X0.512500X-0.150000X-0.512500X0.150000X-0.512500X0.150000X0.512500X0*%
%ADD32RoundRect,0.150000X0.587500X0.150000X-0.587500X0.150000X-0.587500X-0.150000X0.587500X-0.150000X0*%
%ADD33RoundRect,0.200000X0.275000X-0.200000X0.275000X0.200000X-0.275000X0.200000X-0.275000X-0.200000X0*%
%ADD34RoundRect,0.150000X-0.150000X0.587500X-0.150000X-0.587500X0.150000X-0.587500X0.150000X0.587500X0*%
%ADD35RoundRect,0.250000X0.450000X0.425000X-0.450000X0.425000X-0.450000X-0.425000X0.450000X-0.425000X0*%
%ADD36R,1.100000X0.350000*%
%ADD37R,0.350000X1.100000*%
%ADD38R,1.300000X1.800000*%
%ADD39RoundRect,0.218750X-0.256250X0.218750X-0.256250X-0.218750X0.256250X-0.218750X0.256250X0.218750X0*%
%ADD40RoundRect,0.150000X0.512500X0.150000X-0.512500X0.150000X-0.512500X-0.150000X0.512500X-0.150000X0*%
%ADD41RoundRect,0.218750X0.256250X-0.218750X0.256250X0.218750X-0.256250X0.218750X-0.256250X-0.218750X0*%
G04 APERTURE END LIST*
D10*
X85314285Y-38863200D02*
X85314285Y-38791771D01*
X85350000Y-38720342D01*
X85385714Y-38684628D01*
X85457142Y-38648914D01*
X85600000Y-38613200D01*
X85778571Y-38613200D01*
X85921428Y-38648914D01*
X85992857Y-38684628D01*
X86028571Y-38720342D01*
X86064285Y-38791771D01*
X86064285Y-38863200D01*
X86028571Y-38934628D01*
X85992857Y-38970342D01*
X85921428Y-39006057D01*
X85778571Y-39041771D01*
X85600000Y-39041771D01*
X85457142Y-39006057D01*
X85385714Y-38970342D01*
X85350000Y-38934628D01*
X85314285Y-38863200D01*
X85314285Y-38148914D02*
X85314285Y-38077485D01*
X85350000Y-38006057D01*
X85385714Y-37970342D01*
X85457142Y-37934628D01*
X85600000Y-37898914D01*
X85778571Y-37898914D01*
X85921428Y-37934628D01*
X85992857Y-37970342D01*
X86028571Y-38006057D01*
X86064285Y-38077485D01*
X86064285Y-38148914D01*
X86028571Y-38220342D01*
X85992857Y-38256057D01*
X85921428Y-38291771D01*
X85778571Y-38327485D01*
X85600000Y-38327485D01*
X85457142Y-38291771D01*
X85385714Y-38256057D01*
X85350000Y-38220342D01*
X85314285Y-38148914D01*
X85635714Y-37470342D02*
X85600000Y-37541771D01*
X85564285Y-37577485D01*
X85492857Y-37613200D01*
X85457142Y-37613200D01*
X85385714Y-37577485D01*
X85350000Y-37541771D01*
X85314285Y-37470342D01*
X85314285Y-37327485D01*
X85350000Y-37256057D01*
X85385714Y-37220342D01*
X85457142Y-37184628D01*
X85492857Y-37184628D01*
X85564285Y-37220342D01*
X85600000Y-37256057D01*
X85635714Y-37327485D01*
X85635714Y-37470342D01*
X85671428Y-37541771D01*
X85707142Y-37577485D01*
X85778571Y-37613200D01*
X85921428Y-37613200D01*
X85992857Y-37577485D01*
X86028571Y-37541771D01*
X86064285Y-37470342D01*
X86064285Y-37327485D01*
X86028571Y-37256057D01*
X85992857Y-37220342D01*
X85921428Y-37184628D01*
X85778571Y-37184628D01*
X85707142Y-37220342D01*
X85671428Y-37256057D01*
X85635714Y-37327485D01*
X67014285Y-64013200D02*
X67014285Y-64441771D01*
X67014285Y-64227485D02*
X66264285Y-64227485D01*
X66371428Y-64298914D01*
X66442857Y-64370342D01*
X66478571Y-64441771D01*
X66264285Y-63548914D02*
X66264285Y-63477485D01*
X66300000Y-63406057D01*
X66335714Y-63370342D01*
X66407142Y-63334628D01*
X66550000Y-63298914D01*
X66728571Y-63298914D01*
X66871428Y-63334628D01*
X66942857Y-63370342D01*
X66978571Y-63406057D01*
X67014285Y-63477485D01*
X67014285Y-63548914D01*
X66978571Y-63620342D01*
X66942857Y-63656057D01*
X66871428Y-63691771D01*
X66728571Y-63727485D01*
X66550000Y-63727485D01*
X66407142Y-63691771D01*
X66335714Y-63656057D01*
X66300000Y-63620342D01*
X66264285Y-63548914D01*
X66264285Y-62834628D02*
X66264285Y-62763200D01*
X66300000Y-62691771D01*
X66335714Y-62656057D01*
X66407142Y-62620342D01*
X66550000Y-62584628D01*
X66728571Y-62584628D01*
X66871428Y-62620342D01*
X66942857Y-62656057D01*
X66978571Y-62691771D01*
X67014285Y-62763200D01*
X67014285Y-62834628D01*
X66978571Y-62906057D01*
X66942857Y-62941771D01*
X66871428Y-62977485D01*
X66728571Y-63013200D01*
X66550000Y-63013200D01*
X66407142Y-62977485D01*
X66335714Y-62941771D01*
X66300000Y-62906057D01*
X66264285Y-62834628D01*
X85314285Y-46483200D02*
X85314285Y-46411771D01*
X85350000Y-46340342D01*
X85385714Y-46304628D01*
X85457142Y-46268914D01*
X85600000Y-46233200D01*
X85778571Y-46233200D01*
X85921428Y-46268914D01*
X85992857Y-46304628D01*
X86028571Y-46340342D01*
X86064285Y-46411771D01*
X86064285Y-46483200D01*
X86028571Y-46554628D01*
X85992857Y-46590342D01*
X85921428Y-46626057D01*
X85778571Y-46661771D01*
X85600000Y-46661771D01*
X85457142Y-46626057D01*
X85385714Y-46590342D01*
X85350000Y-46554628D01*
X85314285Y-46483200D01*
X85314285Y-45768914D02*
X85314285Y-45697485D01*
X85350000Y-45626057D01*
X85385714Y-45590342D01*
X85457142Y-45554628D01*
X85600000Y-45518914D01*
X85778571Y-45518914D01*
X85921428Y-45554628D01*
X85992857Y-45590342D01*
X86028571Y-45626057D01*
X86064285Y-45697485D01*
X86064285Y-45768914D01*
X86028571Y-45840342D01*
X85992857Y-45876057D01*
X85921428Y-45911771D01*
X85778571Y-45947485D01*
X85600000Y-45947485D01*
X85457142Y-45911771D01*
X85385714Y-45876057D01*
X85350000Y-45840342D01*
X85314285Y-45768914D01*
X85314285Y-44876057D02*
X85314285Y-45018914D01*
X85350000Y-45090342D01*
X85385714Y-45126057D01*
X85492857Y-45197485D01*
X85635714Y-45233200D01*
X85921428Y-45233200D01*
X85992857Y-45197485D01*
X86028571Y-45161771D01*
X86064285Y-45090342D01*
X86064285Y-44947485D01*
X86028571Y-44876057D01*
X85992857Y-44840342D01*
X85921428Y-44804628D01*
X85742857Y-44804628D01*
X85671428Y-44840342D01*
X85635714Y-44876057D01*
X85600000Y-44947485D01*
X85600000Y-45090342D01*
X85635714Y-45161771D01*
X85671428Y-45197485D01*
X85742857Y-45233200D01*
X66264285Y-31243200D02*
X66264285Y-31171771D01*
X66300000Y-31100342D01*
X66335714Y-31064628D01*
X66407142Y-31028914D01*
X66550000Y-30993200D01*
X66728571Y-30993200D01*
X66871428Y-31028914D01*
X66942857Y-31064628D01*
X66978571Y-31100342D01*
X67014285Y-31171771D01*
X67014285Y-31243200D01*
X66978571Y-31314628D01*
X66942857Y-31350342D01*
X66871428Y-31386057D01*
X66728571Y-31421771D01*
X66550000Y-31421771D01*
X66407142Y-31386057D01*
X66335714Y-31350342D01*
X66300000Y-31314628D01*
X66264285Y-31243200D01*
X67014285Y-30278914D02*
X67014285Y-30707485D01*
X67014285Y-30493200D02*
X66264285Y-30493200D01*
X66371428Y-30564628D01*
X66442857Y-30636057D01*
X66478571Y-30707485D01*
X66264285Y-29636057D02*
X66264285Y-29778914D01*
X66300000Y-29850342D01*
X66335714Y-29886057D01*
X66442857Y-29957485D01*
X66585714Y-29993200D01*
X66871428Y-29993200D01*
X66942857Y-29957485D01*
X66978571Y-29921771D01*
X67014285Y-29850342D01*
X67014285Y-29707485D01*
X66978571Y-29636057D01*
X66942857Y-29600342D01*
X66871428Y-29564628D01*
X66692857Y-29564628D01*
X66621428Y-29600342D01*
X66585714Y-29636057D01*
X66550000Y-29707485D01*
X66550000Y-29850342D01*
X66585714Y-29921771D01*
X66621428Y-29957485D01*
X66692857Y-29993200D01*
X86064285Y-63923914D02*
X85707142Y-64173914D01*
X86064285Y-64352485D02*
X85314285Y-64352485D01*
X85314285Y-64066771D01*
X85350000Y-63995342D01*
X85385714Y-63959628D01*
X85457142Y-63923914D01*
X85564285Y-63923914D01*
X85635714Y-63959628D01*
X85671428Y-63995342D01*
X85707142Y-64066771D01*
X85707142Y-64352485D01*
X86028571Y-63638200D02*
X86064285Y-63531057D01*
X86064285Y-63352485D01*
X86028571Y-63281057D01*
X85992857Y-63245342D01*
X85921428Y-63209628D01*
X85850000Y-63209628D01*
X85778571Y-63245342D01*
X85742857Y-63281057D01*
X85707142Y-63352485D01*
X85671428Y-63495342D01*
X85635714Y-63566771D01*
X85600000Y-63602485D01*
X85528571Y-63638200D01*
X85457142Y-63638200D01*
X85385714Y-63602485D01*
X85350000Y-63566771D01*
X85314285Y-63495342D01*
X85314285Y-63316771D01*
X85350000Y-63209628D01*
X85314285Y-62995342D02*
X85314285Y-62566771D01*
X86064285Y-62781057D02*
X85314285Y-62781057D01*
D11*
X76151904Y-57235261D02*
X76151904Y-57159071D01*
X76190000Y-57087642D01*
X76228095Y-57054309D01*
X76304285Y-57025738D01*
X76456666Y-57006690D01*
X76647142Y-57030500D01*
X76799523Y-57087642D01*
X76875714Y-57135261D01*
X76913809Y-57178119D01*
X76951904Y-57259071D01*
X76951904Y-57335261D01*
X76913809Y-57406690D01*
X76875714Y-57440023D01*
X76799523Y-57468595D01*
X76647142Y-57487642D01*
X76456666Y-57463833D01*
X76304285Y-57406690D01*
X76228095Y-57359071D01*
X76190000Y-57316214D01*
X76151904Y-57235261D01*
X76875714Y-56716214D02*
X76913809Y-56682880D01*
X76951904Y-56725738D01*
X76913809Y-56759071D01*
X76875714Y-56716214D01*
X76951904Y-56725738D01*
X76228095Y-56292404D02*
X76190000Y-56249547D01*
X76151904Y-56168595D01*
X76151904Y-55978119D01*
X76190000Y-55906690D01*
X76228095Y-55873357D01*
X76304285Y-55844785D01*
X76380476Y-55854309D01*
X76494761Y-55906690D01*
X76951904Y-56420976D01*
X76951904Y-55925738D01*
D10*
X66256487Y-61724229D02*
X66256487Y-61652800D01*
X66292202Y-61581371D01*
X66327916Y-61545657D01*
X66399344Y-61509943D01*
X66542202Y-61474229D01*
X66720773Y-61474229D01*
X66863630Y-61509943D01*
X66935059Y-61545657D01*
X66970773Y-61581371D01*
X67006487Y-61652800D01*
X67006487Y-61724229D01*
X66970773Y-61795657D01*
X66935059Y-61831371D01*
X66863630Y-61867086D01*
X66720773Y-61902800D01*
X66542202Y-61902800D01*
X66399344Y-61867086D01*
X66327916Y-61831371D01*
X66292202Y-61795657D01*
X66256487Y-61724229D01*
X66327916Y-61188514D02*
X66292202Y-61152800D01*
X66256487Y-61081371D01*
X66256487Y-60902800D01*
X66292202Y-60831371D01*
X66327916Y-60795657D01*
X66399344Y-60759943D01*
X66470773Y-60759943D01*
X66577916Y-60795657D01*
X67006487Y-61224229D01*
X67006487Y-60759943D01*
X66506487Y-60117086D02*
X67006487Y-60117086D01*
X66220773Y-60295657D02*
X66756487Y-60474229D01*
X66756487Y-60009943D01*
X66252588Y-56651214D02*
X66252588Y-56579785D01*
X66288303Y-56508356D01*
X66324017Y-56472642D01*
X66395445Y-56436928D01*
X66538303Y-56401214D01*
X66716874Y-56401214D01*
X66859731Y-56436928D01*
X66931160Y-56472642D01*
X66966874Y-56508356D01*
X67002588Y-56579785D01*
X67002588Y-56651214D01*
X66966874Y-56722642D01*
X66931160Y-56758356D01*
X66859731Y-56794071D01*
X66716874Y-56829785D01*
X66538303Y-56829785D01*
X66395445Y-56794071D01*
X66324017Y-56758356D01*
X66288303Y-56722642D01*
X66252588Y-56651214D01*
X66324017Y-56115499D02*
X66288303Y-56079785D01*
X66252588Y-56008356D01*
X66252588Y-55829785D01*
X66288303Y-55758356D01*
X66324017Y-55722642D01*
X66395445Y-55686928D01*
X66466874Y-55686928D01*
X66574017Y-55722642D01*
X67002588Y-56151214D01*
X67002588Y-55686928D01*
X66252588Y-55222642D02*
X66252588Y-55151214D01*
X66288303Y-55079785D01*
X66324017Y-55044071D01*
X66395445Y-55008356D01*
X66538303Y-54972642D01*
X66716874Y-54972642D01*
X66859731Y-55008356D01*
X66931160Y-55044071D01*
X66966874Y-55079785D01*
X67002588Y-55151214D01*
X67002588Y-55222642D01*
X66966874Y-55294071D01*
X66931160Y-55329785D01*
X66859731Y-55365499D01*
X66716874Y-55401214D01*
X66538303Y-55401214D01*
X66395445Y-55365499D01*
X66324017Y-55329785D01*
X66288303Y-55294071D01*
X66252588Y-55222642D01*
X85314285Y-74905342D02*
X86064285Y-74655342D01*
X85314285Y-74405342D01*
X85671428Y-73905342D02*
X85707142Y-73798200D01*
X85742857Y-73762485D01*
X85814285Y-73726771D01*
X85921428Y-73726771D01*
X85992857Y-73762485D01*
X86028571Y-73798200D01*
X86064285Y-73869628D01*
X86064285Y-74155342D01*
X85314285Y-74155342D01*
X85314285Y-73905342D01*
X85350000Y-73833914D01*
X85385714Y-73798200D01*
X85457142Y-73762485D01*
X85528571Y-73762485D01*
X85600000Y-73798200D01*
X85635714Y-73833914D01*
X85671428Y-73905342D01*
X85671428Y-74155342D01*
X85850000Y-73441057D02*
X85850000Y-73083914D01*
X86064285Y-73512485D02*
X85314285Y-73262485D01*
X86064285Y-73012485D01*
X85314285Y-72869628D02*
X85314285Y-72441057D01*
X86064285Y-72655342D02*
X85314285Y-72655342D01*
X85306487Y-61724229D02*
X85306487Y-61652800D01*
X85342202Y-61581371D01*
X85377916Y-61545657D01*
X85449344Y-61509943D01*
X85592202Y-61474229D01*
X85770773Y-61474229D01*
X85913630Y-61509943D01*
X85985059Y-61545657D01*
X86020773Y-61581371D01*
X86056487Y-61652800D01*
X86056487Y-61724229D01*
X86020773Y-61795657D01*
X85985059Y-61831371D01*
X85913630Y-61867086D01*
X85770773Y-61902800D01*
X85592202Y-61902800D01*
X85449344Y-61867086D01*
X85377916Y-61831371D01*
X85342202Y-61795657D01*
X85306487Y-61724229D01*
X85306487Y-61009943D02*
X85306487Y-60938514D01*
X85342202Y-60867086D01*
X85377916Y-60831371D01*
X85449344Y-60795657D01*
X85592202Y-60759943D01*
X85770773Y-60759943D01*
X85913630Y-60795657D01*
X85985059Y-60831371D01*
X86020773Y-60867086D01*
X86056487Y-60938514D01*
X86056487Y-61009943D01*
X86020773Y-61081371D01*
X85985059Y-61117086D01*
X85913630Y-61152800D01*
X85770773Y-61188514D01*
X85592202Y-61188514D01*
X85449344Y-61152800D01*
X85377916Y-61117086D01*
X85342202Y-61081371D01*
X85306487Y-61009943D01*
X85306487Y-60081371D02*
X85306487Y-60438514D01*
X85663630Y-60474229D01*
X85627916Y-60438514D01*
X85592202Y-60367086D01*
X85592202Y-60188514D01*
X85627916Y-60117086D01*
X85663630Y-60081371D01*
X85735059Y-60045657D01*
X85913630Y-60045657D01*
X85985059Y-60081371D01*
X86020773Y-60117086D01*
X86056487Y-60188514D01*
X86056487Y-60367086D01*
X86020773Y-60438514D01*
X85985059Y-60474229D01*
X85778571Y-26377485D02*
X85778571Y-25806057D01*
X86064285Y-26091771D02*
X85492857Y-26091771D01*
X85314285Y-25091771D02*
X85314285Y-25448914D01*
X85671428Y-25484628D01*
X85635714Y-25448914D01*
X85600000Y-25377485D01*
X85600000Y-25198914D01*
X85635714Y-25127485D01*
X85671428Y-25091771D01*
X85742857Y-25056057D01*
X85921428Y-25056057D01*
X85992857Y-25091771D01*
X86028571Y-25127485D01*
X86064285Y-25198914D01*
X86064285Y-25377485D01*
X86028571Y-25448914D01*
X85992857Y-25484628D01*
X85314285Y-24841771D02*
X86064285Y-24591771D01*
X85314285Y-24341771D01*
X85302588Y-54113055D02*
X85302588Y-54041626D01*
X85338303Y-53970197D01*
X85374017Y-53934483D01*
X85445445Y-53898769D01*
X85588303Y-53863055D01*
X85766874Y-53863055D01*
X85909731Y-53898769D01*
X85981160Y-53934483D01*
X86016874Y-53970197D01*
X86052588Y-54041626D01*
X86052588Y-54113055D01*
X86016874Y-54184483D01*
X85981160Y-54220197D01*
X85909731Y-54255912D01*
X85766874Y-54291626D01*
X85588303Y-54291626D01*
X85445445Y-54255912D01*
X85374017Y-54220197D01*
X85338303Y-54184483D01*
X85302588Y-54113055D01*
X85302588Y-53613055D02*
X85302588Y-53148769D01*
X85588303Y-53398769D01*
X85588303Y-53291626D01*
X85624017Y-53220197D01*
X85659731Y-53184483D01*
X85731160Y-53148769D01*
X85909731Y-53148769D01*
X85981160Y-53184483D01*
X86016874Y-53220197D01*
X86052588Y-53291626D01*
X86052588Y-53505912D01*
X86016874Y-53577340D01*
X85981160Y-53613055D01*
X85302588Y-52684483D02*
X85302588Y-52613055D01*
X85338303Y-52541626D01*
X85374017Y-52505912D01*
X85445445Y-52470197D01*
X85588303Y-52434483D01*
X85766874Y-52434483D01*
X85909731Y-52470197D01*
X85981160Y-52505912D01*
X86016874Y-52541626D01*
X86052588Y-52613055D01*
X86052588Y-52684483D01*
X86016874Y-52755912D01*
X85981160Y-52791626D01*
X85909731Y-52827340D01*
X85766874Y-52863055D01*
X85588303Y-52863055D01*
X85445445Y-52827340D01*
X85374017Y-52791626D01*
X85338303Y-52755912D01*
X85302588Y-52684483D01*
X86064285Y-33533200D02*
X86064285Y-33961771D01*
X86064285Y-33747485D02*
X85314285Y-33747485D01*
X85421428Y-33818914D01*
X85492857Y-33890342D01*
X85528571Y-33961771D01*
X85314285Y-33068914D02*
X85314285Y-32997485D01*
X85350000Y-32926057D01*
X85385714Y-32890342D01*
X85457142Y-32854628D01*
X85600000Y-32818914D01*
X85778571Y-32818914D01*
X85921428Y-32854628D01*
X85992857Y-32890342D01*
X86028571Y-32926057D01*
X86064285Y-32997485D01*
X86064285Y-33068914D01*
X86028571Y-33140342D01*
X85992857Y-33176057D01*
X85921428Y-33211771D01*
X85778571Y-33247485D01*
X85600000Y-33247485D01*
X85457142Y-33211771D01*
X85385714Y-33176057D01*
X85350000Y-33140342D01*
X85314285Y-33068914D01*
X86064285Y-32461771D02*
X86064285Y-32318914D01*
X86028571Y-32247485D01*
X85992857Y-32211771D01*
X85885714Y-32140342D01*
X85742857Y-32104628D01*
X85457142Y-32104628D01*
X85385714Y-32140342D01*
X85350000Y-32176057D01*
X85314285Y-32247485D01*
X85314285Y-32390342D01*
X85350000Y-32461771D01*
X85385714Y-32497485D01*
X85457142Y-32533200D01*
X85635714Y-32533200D01*
X85707142Y-32497485D01*
X85742857Y-32461771D01*
X85778571Y-32390342D01*
X85778571Y-32247485D01*
X85742857Y-32176057D01*
X85707142Y-32140342D01*
X85635714Y-32104628D01*
X66264285Y-33783200D02*
X66264285Y-33711771D01*
X66300000Y-33640342D01*
X66335714Y-33604628D01*
X66407142Y-33568914D01*
X66550000Y-33533200D01*
X66728571Y-33533200D01*
X66871428Y-33568914D01*
X66942857Y-33604628D01*
X66978571Y-33640342D01*
X67014285Y-33711771D01*
X67014285Y-33783200D01*
X66978571Y-33854628D01*
X66942857Y-33890342D01*
X66871428Y-33926057D01*
X66728571Y-33961771D01*
X66550000Y-33961771D01*
X66407142Y-33926057D01*
X66335714Y-33890342D01*
X66300000Y-33854628D01*
X66264285Y-33783200D01*
X67014285Y-32818914D02*
X67014285Y-33247485D01*
X67014285Y-33033200D02*
X66264285Y-33033200D01*
X66371428Y-33104628D01*
X66442857Y-33176057D01*
X66478571Y-33247485D01*
X66514285Y-32176057D02*
X67014285Y-32176057D01*
X66228571Y-32354628D02*
X66764285Y-32533200D01*
X66764285Y-32068914D01*
X66264285Y-36323200D02*
X66264285Y-36251771D01*
X66300000Y-36180342D01*
X66335714Y-36144628D01*
X66407142Y-36108914D01*
X66550000Y-36073200D01*
X66728571Y-36073200D01*
X66871428Y-36108914D01*
X66942857Y-36144628D01*
X66978571Y-36180342D01*
X67014285Y-36251771D01*
X67014285Y-36323200D01*
X66978571Y-36394628D01*
X66942857Y-36430342D01*
X66871428Y-36466057D01*
X66728571Y-36501771D01*
X66550000Y-36501771D01*
X66407142Y-36466057D01*
X66335714Y-36430342D01*
X66300000Y-36394628D01*
X66264285Y-36323200D01*
X67014285Y-35358914D02*
X67014285Y-35787485D01*
X67014285Y-35573200D02*
X66264285Y-35573200D01*
X66371428Y-35644628D01*
X66442857Y-35716057D01*
X66478571Y-35787485D01*
X67014285Y-35001771D02*
X67014285Y-34858914D01*
X66978571Y-34787485D01*
X66942857Y-34751771D01*
X66835714Y-34680342D01*
X66692857Y-34644628D01*
X66407142Y-34644628D01*
X66335714Y-34680342D01*
X66300000Y-34716057D01*
X66264285Y-34787485D01*
X66264285Y-34930342D01*
X66300000Y-35001771D01*
X66335714Y-35037485D01*
X66407142Y-35073200D01*
X66585714Y-35073200D01*
X66657142Y-35037485D01*
X66692857Y-35001771D01*
X66728571Y-34930342D01*
X66728571Y-34787485D01*
X66692857Y-34716057D01*
X66657142Y-34680342D01*
X66585714Y-34644628D01*
X66264285Y-51563200D02*
X66264285Y-51491771D01*
X66300000Y-51420342D01*
X66335714Y-51384628D01*
X66407142Y-51348914D01*
X66550000Y-51313200D01*
X66728571Y-51313200D01*
X66871428Y-51348914D01*
X66942857Y-51384628D01*
X66978571Y-51420342D01*
X67014285Y-51491771D01*
X67014285Y-51563200D01*
X66978571Y-51634628D01*
X66942857Y-51670342D01*
X66871428Y-51706057D01*
X66728571Y-51741771D01*
X66550000Y-51741771D01*
X66407142Y-51706057D01*
X66335714Y-51670342D01*
X66300000Y-51634628D01*
X66264285Y-51563200D01*
X66335714Y-51027485D02*
X66300000Y-50991771D01*
X66264285Y-50920342D01*
X66264285Y-50741771D01*
X66300000Y-50670342D01*
X66335714Y-50634628D01*
X66407142Y-50598914D01*
X66478571Y-50598914D01*
X66585714Y-50634628D01*
X67014285Y-51063200D01*
X67014285Y-50598914D01*
X67014285Y-49884628D02*
X67014285Y-50313200D01*
X67014285Y-50098914D02*
X66264285Y-50098914D01*
X66371428Y-50170342D01*
X66442857Y-50241771D01*
X66478571Y-50313200D01*
X67014285Y-43853914D02*
X66264285Y-43853914D01*
X66264285Y-43675342D01*
X66300000Y-43568200D01*
X66371428Y-43496771D01*
X66442857Y-43461057D01*
X66585714Y-43425342D01*
X66692857Y-43425342D01*
X66835714Y-43461057D01*
X66907142Y-43496771D01*
X66978571Y-43568200D01*
X67014285Y-43675342D01*
X67014285Y-43853914D01*
X66728571Y-43103914D02*
X66728571Y-42532485D01*
X85314285Y-71883200D02*
X85314285Y-71811771D01*
X85350000Y-71740342D01*
X85385714Y-71704628D01*
X85457142Y-71668914D01*
X85600000Y-71633200D01*
X85778571Y-71633200D01*
X85921428Y-71668914D01*
X85992857Y-71704628D01*
X86028571Y-71740342D01*
X86064285Y-71811771D01*
X86064285Y-71883200D01*
X86028571Y-71954628D01*
X85992857Y-71990342D01*
X85921428Y-72026057D01*
X85778571Y-72061771D01*
X85600000Y-72061771D01*
X85457142Y-72026057D01*
X85385714Y-71990342D01*
X85350000Y-71954628D01*
X85314285Y-71883200D01*
X86064285Y-70918914D02*
X86064285Y-71347485D01*
X86064285Y-71133200D02*
X85314285Y-71133200D01*
X85421428Y-71204628D01*
X85492857Y-71276057D01*
X85528571Y-71347485D01*
X85314285Y-70454628D02*
X85314285Y-70383200D01*
X85350000Y-70311771D01*
X85385714Y-70276057D01*
X85457142Y-70240342D01*
X85600000Y-70204628D01*
X85778571Y-70204628D01*
X85921428Y-70240342D01*
X85992857Y-70276057D01*
X86028571Y-70311771D01*
X86064285Y-70383200D01*
X86064285Y-70454628D01*
X86028571Y-70526057D01*
X85992857Y-70561771D01*
X85921428Y-70597485D01*
X85778571Y-70633200D01*
X85600000Y-70633200D01*
X85457142Y-70597485D01*
X85385714Y-70561771D01*
X85350000Y-70526057D01*
X85314285Y-70454628D01*
X66300000Y-71704628D02*
X66264285Y-71776057D01*
X66264285Y-71883200D01*
X66300000Y-71990342D01*
X66371428Y-72061771D01*
X66442857Y-72097485D01*
X66585714Y-72133200D01*
X66692857Y-72133200D01*
X66835714Y-72097485D01*
X66907142Y-72061771D01*
X66978571Y-71990342D01*
X67014285Y-71883200D01*
X67014285Y-71811771D01*
X66978571Y-71704628D01*
X66942857Y-71668914D01*
X66692857Y-71668914D01*
X66692857Y-71811771D01*
X67014285Y-71347485D02*
X66264285Y-71347485D01*
X67014285Y-70918914D01*
X66264285Y-70918914D01*
X67014285Y-70561771D02*
X66264285Y-70561771D01*
X66264285Y-70383200D01*
X66300000Y-70276057D01*
X66371428Y-70204628D01*
X66442857Y-70168914D01*
X66585714Y-70133200D01*
X66692857Y-70133200D01*
X66835714Y-70168914D01*
X66907142Y-70204628D01*
X66978571Y-70276057D01*
X67014285Y-70383200D01*
X67014285Y-70561771D01*
X66264285Y-59183200D02*
X66264285Y-59111771D01*
X66300000Y-59040342D01*
X66335714Y-59004628D01*
X66407142Y-58968914D01*
X66550000Y-58933200D01*
X66728571Y-58933200D01*
X66871428Y-58968914D01*
X66942857Y-59004628D01*
X66978571Y-59040342D01*
X67014285Y-59111771D01*
X67014285Y-59183200D01*
X66978571Y-59254628D01*
X66942857Y-59290342D01*
X66871428Y-59326057D01*
X66728571Y-59361771D01*
X66550000Y-59361771D01*
X66407142Y-59326057D01*
X66335714Y-59290342D01*
X66300000Y-59254628D01*
X66264285Y-59183200D01*
X66335714Y-58647485D02*
X66300000Y-58611771D01*
X66264285Y-58540342D01*
X66264285Y-58361771D01*
X66300000Y-58290342D01*
X66335714Y-58254628D01*
X66407142Y-58218914D01*
X66478571Y-58218914D01*
X66585714Y-58254628D01*
X67014285Y-58683200D01*
X67014285Y-58218914D01*
X66335714Y-57933200D02*
X66300000Y-57897485D01*
X66264285Y-57826057D01*
X66264285Y-57647485D01*
X66300000Y-57576057D01*
X66335714Y-57540342D01*
X66407142Y-57504628D01*
X66478571Y-57504628D01*
X66585714Y-57540342D01*
X67014285Y-57968914D01*
X67014285Y-57504628D01*
X85314285Y-59183200D02*
X85314285Y-59111771D01*
X85350000Y-59040342D01*
X85385714Y-59004628D01*
X85457142Y-58968914D01*
X85600000Y-58933200D01*
X85778571Y-58933200D01*
X85921428Y-58968914D01*
X85992857Y-59004628D01*
X86028571Y-59040342D01*
X86064285Y-59111771D01*
X86064285Y-59183200D01*
X86028571Y-59254628D01*
X85992857Y-59290342D01*
X85921428Y-59326057D01*
X85778571Y-59361771D01*
X85600000Y-59361771D01*
X85457142Y-59326057D01*
X85385714Y-59290342D01*
X85350000Y-59254628D01*
X85314285Y-59183200D01*
X85385714Y-58647485D02*
X85350000Y-58611771D01*
X85314285Y-58540342D01*
X85314285Y-58361771D01*
X85350000Y-58290342D01*
X85385714Y-58254628D01*
X85457142Y-58218914D01*
X85528571Y-58218914D01*
X85635714Y-58254628D01*
X86064285Y-58683200D01*
X86064285Y-58218914D01*
X85314285Y-57968914D02*
X85314285Y-57468914D01*
X86064285Y-57790342D01*
X85314285Y-31493200D02*
X86064285Y-31243200D01*
X85314285Y-30993200D01*
X85992857Y-30314628D02*
X86028571Y-30350342D01*
X86064285Y-30457485D01*
X86064285Y-30528914D01*
X86028571Y-30636057D01*
X85957142Y-30707485D01*
X85885714Y-30743200D01*
X85742857Y-30778914D01*
X85635714Y-30778914D01*
X85492857Y-30743200D01*
X85421428Y-30707485D01*
X85350000Y-30636057D01*
X85314285Y-30528914D01*
X85314285Y-30457485D01*
X85350000Y-30350342D01*
X85385714Y-30314628D01*
X85992857Y-29564628D02*
X86028571Y-29600342D01*
X86064285Y-29707485D01*
X86064285Y-29778914D01*
X86028571Y-29886057D01*
X85957142Y-29957485D01*
X85885714Y-29993200D01*
X85742857Y-30028914D01*
X85635714Y-30028914D01*
X85492857Y-29993200D01*
X85421428Y-29957485D01*
X85350000Y-29886057D01*
X85314285Y-29778914D01*
X85314285Y-29707485D01*
X85350000Y-29600342D01*
X85385714Y-29564628D01*
X85314284Y-49033354D02*
X85314284Y-48961925D01*
X85349999Y-48890496D01*
X85385713Y-48854782D01*
X85457141Y-48819068D01*
X85599999Y-48783354D01*
X85778570Y-48783354D01*
X85921427Y-48819068D01*
X85992856Y-48854782D01*
X86028570Y-48890496D01*
X86064284Y-48961925D01*
X86064284Y-49033354D01*
X86028570Y-49104782D01*
X85992856Y-49140496D01*
X85921427Y-49176211D01*
X85778570Y-49211925D01*
X85599999Y-49211925D01*
X85457141Y-49176211D01*
X85385713Y-49140496D01*
X85349999Y-49104782D01*
X85314284Y-49033354D01*
X85314284Y-48319068D02*
X85314284Y-48247639D01*
X85349999Y-48176211D01*
X85385713Y-48140496D01*
X85457141Y-48104782D01*
X85599999Y-48069068D01*
X85778570Y-48069068D01*
X85921427Y-48104782D01*
X85992856Y-48140496D01*
X86028570Y-48176211D01*
X86064284Y-48247639D01*
X86064284Y-48319068D01*
X86028570Y-48390496D01*
X85992856Y-48426211D01*
X85921427Y-48461925D01*
X85778570Y-48497639D01*
X85599999Y-48497639D01*
X85457141Y-48461925D01*
X85385713Y-48426211D01*
X85349999Y-48390496D01*
X85314284Y-48319068D01*
X85314284Y-47819068D02*
X85314284Y-47319068D01*
X86064284Y-47640496D01*
X66256487Y-74675258D02*
X67006487Y-74425258D01*
X66256487Y-74175258D01*
X66935059Y-73496686D02*
X66970773Y-73532400D01*
X67006487Y-73639543D01*
X67006487Y-73710972D01*
X66970773Y-73818115D01*
X66899344Y-73889543D01*
X66827916Y-73925258D01*
X66685059Y-73960972D01*
X66577916Y-73960972D01*
X66435059Y-73925258D01*
X66363630Y-73889543D01*
X66292202Y-73818115D01*
X66256487Y-73710972D01*
X66256487Y-73639543D01*
X66292202Y-73532400D01*
X66327916Y-73496686D01*
X66935059Y-72746686D02*
X66970773Y-72782400D01*
X67006487Y-72889543D01*
X67006487Y-72960972D01*
X66970773Y-73068115D01*
X66899344Y-73139543D01*
X66827916Y-73175258D01*
X66685059Y-73210972D01*
X66577916Y-73210972D01*
X66435059Y-73175258D01*
X66363630Y-73139543D01*
X66292202Y-73068115D01*
X66256487Y-72960972D01*
X66256487Y-72889543D01*
X66292202Y-72782400D01*
X66327916Y-72746686D01*
X85314285Y-36323200D02*
X85314285Y-36251771D01*
X85350000Y-36180342D01*
X85385714Y-36144628D01*
X85457142Y-36108914D01*
X85600000Y-36073200D01*
X85778571Y-36073200D01*
X85921428Y-36108914D01*
X85992857Y-36144628D01*
X86028571Y-36180342D01*
X86064285Y-36251771D01*
X86064285Y-36323200D01*
X86028571Y-36394628D01*
X85992857Y-36430342D01*
X85921428Y-36466057D01*
X85778571Y-36501771D01*
X85600000Y-36501771D01*
X85457142Y-36466057D01*
X85385714Y-36430342D01*
X85350000Y-36394628D01*
X85314285Y-36323200D01*
X85385714Y-35787485D02*
X85350000Y-35751771D01*
X85314285Y-35680342D01*
X85314285Y-35501771D01*
X85350000Y-35430342D01*
X85385714Y-35394628D01*
X85457142Y-35358914D01*
X85528571Y-35358914D01*
X85635714Y-35394628D01*
X86064285Y-35823200D01*
X86064285Y-35358914D01*
X85635714Y-34930342D02*
X85600000Y-35001771D01*
X85564285Y-35037485D01*
X85492857Y-35073200D01*
X85457142Y-35073200D01*
X85385714Y-35037485D01*
X85350000Y-35001771D01*
X85314285Y-34930342D01*
X85314285Y-34787485D01*
X85350000Y-34716057D01*
X85385714Y-34680342D01*
X85457142Y-34644628D01*
X85492857Y-34644628D01*
X85564285Y-34680342D01*
X85600000Y-34716057D01*
X85635714Y-34787485D01*
X85635714Y-34930342D01*
X85671428Y-35001771D01*
X85707142Y-35037485D01*
X85778571Y-35073200D01*
X85921428Y-35073200D01*
X85992857Y-35037485D01*
X86028571Y-35001771D01*
X86064285Y-34930342D01*
X86064285Y-34787485D01*
X86028571Y-34716057D01*
X85992857Y-34680342D01*
X85921428Y-34644628D01*
X85778571Y-34644628D01*
X85707142Y-34680342D01*
X85671428Y-34716057D01*
X85635714Y-34787485D01*
X85314285Y-51563200D02*
X85314285Y-51491771D01*
X85350000Y-51420342D01*
X85385714Y-51384628D01*
X85457142Y-51348914D01*
X85600000Y-51313200D01*
X85778571Y-51313200D01*
X85921428Y-51348914D01*
X85992857Y-51384628D01*
X86028571Y-51420342D01*
X86064285Y-51491771D01*
X86064285Y-51563200D01*
X86028571Y-51634628D01*
X85992857Y-51670342D01*
X85921428Y-51706057D01*
X85778571Y-51741771D01*
X85600000Y-51741771D01*
X85457142Y-51706057D01*
X85385714Y-51670342D01*
X85350000Y-51634628D01*
X85314285Y-51563200D01*
X85314285Y-51063200D02*
X85314285Y-50598914D01*
X85600000Y-50848914D01*
X85600000Y-50741771D01*
X85635714Y-50670342D01*
X85671428Y-50634628D01*
X85742857Y-50598914D01*
X85921428Y-50598914D01*
X85992857Y-50634628D01*
X86028571Y-50670342D01*
X86064285Y-50741771D01*
X86064285Y-50956057D01*
X86028571Y-51027485D01*
X85992857Y-51063200D01*
X86064285Y-49884628D02*
X86064285Y-50313200D01*
X86064285Y-50098914D02*
X85314285Y-50098914D01*
X85421428Y-50170342D01*
X85492857Y-50241771D01*
X85528571Y-50313200D01*
X85306487Y-66805258D02*
X85306487Y-66733829D01*
X85342202Y-66662400D01*
X85377916Y-66626686D01*
X85449344Y-66590972D01*
X85592202Y-66555258D01*
X85770773Y-66555258D01*
X85913630Y-66590972D01*
X85985059Y-66626686D01*
X86020773Y-66662400D01*
X86056487Y-66733829D01*
X86056487Y-66805258D01*
X86020773Y-66876686D01*
X85985059Y-66912400D01*
X85913630Y-66948115D01*
X85770773Y-66983829D01*
X85592202Y-66983829D01*
X85449344Y-66948115D01*
X85377916Y-66912400D01*
X85342202Y-66876686D01*
X85306487Y-66805258D01*
X85306487Y-66090972D02*
X85306487Y-66019543D01*
X85342202Y-65948115D01*
X85377916Y-65912400D01*
X85449344Y-65876686D01*
X85592202Y-65840972D01*
X85770773Y-65840972D01*
X85913630Y-65876686D01*
X85985059Y-65912400D01*
X86020773Y-65948115D01*
X86056487Y-66019543D01*
X86056487Y-66090972D01*
X86020773Y-66162400D01*
X85985059Y-66198115D01*
X85913630Y-66233829D01*
X85770773Y-66269543D01*
X85592202Y-66269543D01*
X85449344Y-66233829D01*
X85377916Y-66198115D01*
X85342202Y-66162400D01*
X85306487Y-66090972D01*
X85306487Y-65376686D02*
X85306487Y-65305258D01*
X85342202Y-65233829D01*
X85377916Y-65198115D01*
X85449344Y-65162400D01*
X85592202Y-65126686D01*
X85770773Y-65126686D01*
X85913630Y-65162400D01*
X85985059Y-65198115D01*
X86020773Y-65233829D01*
X86056487Y-65305258D01*
X86056487Y-65376686D01*
X86020773Y-65448115D01*
X85985059Y-65483829D01*
X85913630Y-65519543D01*
X85770773Y-65555258D01*
X85592202Y-65555258D01*
X85449344Y-65519543D01*
X85377916Y-65483829D01*
X85342202Y-65448115D01*
X85306487Y-65376686D01*
X86064285Y-43693200D02*
X86064285Y-44121771D01*
X86064285Y-43907485D02*
X85314285Y-43907485D01*
X85421428Y-43978914D01*
X85492857Y-44050342D01*
X85528571Y-44121771D01*
X85314285Y-43228914D02*
X85314285Y-43157485D01*
X85350000Y-43086057D01*
X85385714Y-43050342D01*
X85457142Y-43014628D01*
X85600000Y-42978914D01*
X85778571Y-42978914D01*
X85921428Y-43014628D01*
X85992857Y-43050342D01*
X86028571Y-43086057D01*
X86064285Y-43157485D01*
X86064285Y-43228914D01*
X86028571Y-43300342D01*
X85992857Y-43336057D01*
X85921428Y-43371771D01*
X85778571Y-43407485D01*
X85600000Y-43407485D01*
X85457142Y-43371771D01*
X85385714Y-43336057D01*
X85350000Y-43300342D01*
X85314285Y-43228914D01*
X85635714Y-42550342D02*
X85600000Y-42621771D01*
X85564285Y-42657485D01*
X85492857Y-42693200D01*
X85457142Y-42693200D01*
X85385714Y-42657485D01*
X85350000Y-42621771D01*
X85314285Y-42550342D01*
X85314285Y-42407485D01*
X85350000Y-42336057D01*
X85385714Y-42300342D01*
X85457142Y-42264628D01*
X85492857Y-42264628D01*
X85564285Y-42300342D01*
X85600000Y-42336057D01*
X85635714Y-42407485D01*
X85635714Y-42550342D01*
X85671428Y-42621771D01*
X85707142Y-42657485D01*
X85778571Y-42693200D01*
X85921428Y-42693200D01*
X85992857Y-42657485D01*
X86028571Y-42621771D01*
X86064285Y-42550342D01*
X86064285Y-42407485D01*
X86028571Y-42336057D01*
X85992857Y-42300342D01*
X85921428Y-42264628D01*
X85778571Y-42264628D01*
X85707142Y-42300342D01*
X85671428Y-42336057D01*
X85635714Y-42407485D01*
X66264285Y-26163200D02*
X66264285Y-26091771D01*
X66300000Y-26020342D01*
X66335714Y-25984628D01*
X66407142Y-25948914D01*
X66550000Y-25913200D01*
X66728571Y-25913200D01*
X66871428Y-25948914D01*
X66942857Y-25984628D01*
X66978571Y-26020342D01*
X67014285Y-26091771D01*
X67014285Y-26163200D01*
X66978571Y-26234628D01*
X66942857Y-26270342D01*
X66871428Y-26306057D01*
X66728571Y-26341771D01*
X66550000Y-26341771D01*
X66407142Y-26306057D01*
X66335714Y-26270342D01*
X66300000Y-26234628D01*
X66264285Y-26163200D01*
X66264285Y-25448914D02*
X66264285Y-25377485D01*
X66300000Y-25306057D01*
X66335714Y-25270342D01*
X66407142Y-25234628D01*
X66550000Y-25198914D01*
X66728571Y-25198914D01*
X66871428Y-25234628D01*
X66942857Y-25270342D01*
X66978571Y-25306057D01*
X67014285Y-25377485D01*
X67014285Y-25448914D01*
X66978571Y-25520342D01*
X66942857Y-25556057D01*
X66871428Y-25591771D01*
X66728571Y-25627485D01*
X66550000Y-25627485D01*
X66407142Y-25591771D01*
X66335714Y-25556057D01*
X66300000Y-25520342D01*
X66264285Y-25448914D01*
X67014285Y-24841771D02*
X67014285Y-24698914D01*
X66978571Y-24627485D01*
X66942857Y-24591771D01*
X66835714Y-24520342D01*
X66692857Y-24484628D01*
X66407142Y-24484628D01*
X66335714Y-24520342D01*
X66300000Y-24556057D01*
X66264285Y-24627485D01*
X66264285Y-24770342D01*
X66300000Y-24841771D01*
X66335714Y-24877485D01*
X66407142Y-24913200D01*
X66585714Y-24913200D01*
X66657142Y-24877485D01*
X66692857Y-24841771D01*
X66728571Y-24770342D01*
X66728571Y-24627485D01*
X66692857Y-24556057D01*
X66657142Y-24520342D01*
X66585714Y-24484628D01*
X66264285Y-28703200D02*
X66264285Y-28631771D01*
X66300000Y-28560342D01*
X66335714Y-28524628D01*
X66407142Y-28488914D01*
X66550000Y-28453200D01*
X66728571Y-28453200D01*
X66871428Y-28488914D01*
X66942857Y-28524628D01*
X66978571Y-28560342D01*
X67014285Y-28631771D01*
X67014285Y-28703200D01*
X66978571Y-28774628D01*
X66942857Y-28810342D01*
X66871428Y-28846057D01*
X66728571Y-28881771D01*
X66550000Y-28881771D01*
X66407142Y-28846057D01*
X66335714Y-28810342D01*
X66300000Y-28774628D01*
X66264285Y-28703200D01*
X67014285Y-27738914D02*
X67014285Y-28167485D01*
X67014285Y-27953200D02*
X66264285Y-27953200D01*
X66371428Y-28024628D01*
X66442857Y-28096057D01*
X66478571Y-28167485D01*
X66335714Y-27453200D02*
X66300000Y-27417485D01*
X66264285Y-27346057D01*
X66264285Y-27167485D01*
X66300000Y-27096057D01*
X66335714Y-27060342D01*
X66407142Y-27024628D01*
X66478571Y-27024628D01*
X66585714Y-27060342D01*
X67014285Y-27488914D01*
X67014285Y-27024628D01*
X66256487Y-66805258D02*
X66256487Y-66733829D01*
X66292202Y-66662400D01*
X66327916Y-66626686D01*
X66399344Y-66590972D01*
X66542202Y-66555258D01*
X66720773Y-66555258D01*
X66863630Y-66590972D01*
X66935059Y-66626686D01*
X66970773Y-66662400D01*
X67006487Y-66733829D01*
X67006487Y-66805258D01*
X66970773Y-66876686D01*
X66935059Y-66912400D01*
X66863630Y-66948115D01*
X66720773Y-66983829D01*
X66542202Y-66983829D01*
X66399344Y-66948115D01*
X66327916Y-66912400D01*
X66292202Y-66876686D01*
X66256487Y-66805258D01*
X66327916Y-66269543D02*
X66292202Y-66233829D01*
X66256487Y-66162400D01*
X66256487Y-65983829D01*
X66292202Y-65912400D01*
X66327916Y-65876686D01*
X66399344Y-65840972D01*
X66470773Y-65840972D01*
X66577916Y-65876686D01*
X67006487Y-66305258D01*
X67006487Y-65840972D01*
X66256487Y-65162400D02*
X66256487Y-65519543D01*
X66613630Y-65555258D01*
X66577916Y-65519543D01*
X66542202Y-65448115D01*
X66542202Y-65269543D01*
X66577916Y-65198115D01*
X66613630Y-65162400D01*
X66685059Y-65126686D01*
X66863630Y-65126686D01*
X66935059Y-65162400D01*
X66970773Y-65198115D01*
X67006487Y-65269543D01*
X67006487Y-65448115D01*
X66970773Y-65519543D01*
X66935059Y-65555258D01*
X66252588Y-54113055D02*
X66252588Y-54041626D01*
X66288303Y-53970197D01*
X66324017Y-53934483D01*
X66395445Y-53898769D01*
X66538303Y-53863055D01*
X66716874Y-53863055D01*
X66859731Y-53898769D01*
X66931160Y-53934483D01*
X66966874Y-53970197D01*
X67002588Y-54041626D01*
X67002588Y-54113055D01*
X66966874Y-54184483D01*
X66931160Y-54220197D01*
X66859731Y-54255912D01*
X66716874Y-54291626D01*
X66538303Y-54291626D01*
X66395445Y-54255912D01*
X66324017Y-54220197D01*
X66288303Y-54184483D01*
X66252588Y-54113055D01*
X66324017Y-53577340D02*
X66288303Y-53541626D01*
X66252588Y-53470197D01*
X66252588Y-53291626D01*
X66288303Y-53220197D01*
X66324017Y-53184483D01*
X66395445Y-53148769D01*
X66466874Y-53148769D01*
X66574017Y-53184483D01*
X67002588Y-53613055D01*
X67002588Y-53148769D01*
X66252588Y-52898769D02*
X66252588Y-52434483D01*
X66538303Y-52684483D01*
X66538303Y-52577340D01*
X66574017Y-52505912D01*
X66609731Y-52470197D01*
X66681160Y-52434483D01*
X66859731Y-52434483D01*
X66931160Y-52470197D01*
X66966874Y-52505912D01*
X67002588Y-52577340D01*
X67002588Y-52791626D01*
X66966874Y-52863055D01*
X66931160Y-52898769D01*
X66264285Y-38863200D02*
X66264285Y-38791771D01*
X66300000Y-38720342D01*
X66335714Y-38684628D01*
X66407142Y-38648914D01*
X66550000Y-38613200D01*
X66728571Y-38613200D01*
X66871428Y-38648914D01*
X66942857Y-38684628D01*
X66978571Y-38720342D01*
X67014285Y-38791771D01*
X67014285Y-38863200D01*
X66978571Y-38934628D01*
X66942857Y-38970342D01*
X66871428Y-39006057D01*
X66728571Y-39041771D01*
X66550000Y-39041771D01*
X66407142Y-39006057D01*
X66335714Y-38970342D01*
X66300000Y-38934628D01*
X66264285Y-38863200D01*
X67014285Y-37898914D02*
X67014285Y-38327485D01*
X67014285Y-38113200D02*
X66264285Y-38113200D01*
X66371428Y-38184628D01*
X66442857Y-38256057D01*
X66478571Y-38327485D01*
X66264285Y-37648914D02*
X66264285Y-37184628D01*
X66550000Y-37434628D01*
X66550000Y-37327485D01*
X66585714Y-37256057D01*
X66621428Y-37220342D01*
X66692857Y-37184628D01*
X66871428Y-37184628D01*
X66942857Y-37220342D01*
X66978571Y-37256057D01*
X67014285Y-37327485D01*
X67014285Y-37541771D01*
X66978571Y-37613200D01*
X66942857Y-37648914D01*
X66264284Y-49033354D02*
X66264284Y-48961925D01*
X66299999Y-48890496D01*
X66335713Y-48854782D01*
X66407141Y-48819068D01*
X66549999Y-48783354D01*
X66728570Y-48783354D01*
X66871427Y-48819068D01*
X66942856Y-48854782D01*
X66978570Y-48890496D01*
X67014284Y-48961925D01*
X67014284Y-49033354D01*
X66978570Y-49104782D01*
X66942856Y-49140496D01*
X66871427Y-49176211D01*
X66728570Y-49211925D01*
X66549999Y-49211925D01*
X66407141Y-49176211D01*
X66335713Y-49140496D01*
X66299999Y-49104782D01*
X66264284Y-49033354D01*
X67014284Y-48069068D02*
X67014284Y-48497639D01*
X67014284Y-48283354D02*
X66264284Y-48283354D01*
X66371427Y-48354782D01*
X66442856Y-48426211D01*
X66478570Y-48497639D01*
X66264284Y-47819068D02*
X66264284Y-47319068D01*
X67014284Y-47640496D01*
X85314284Y-41406585D02*
X85314284Y-41335156D01*
X85349999Y-41263727D01*
X85385713Y-41228013D01*
X85457141Y-41192299D01*
X85599999Y-41156585D01*
X85778570Y-41156585D01*
X85921427Y-41192299D01*
X85992856Y-41228013D01*
X86028570Y-41263727D01*
X86064284Y-41335156D01*
X86064284Y-41406585D01*
X86028570Y-41478013D01*
X85992856Y-41513727D01*
X85921427Y-41549442D01*
X85778570Y-41585156D01*
X85599999Y-41585156D01*
X85457141Y-41549442D01*
X85385713Y-41513727D01*
X85349999Y-41478013D01*
X85314284Y-41406585D01*
X86064284Y-40442299D02*
X86064284Y-40870870D01*
X86064284Y-40656585D02*
X85314284Y-40656585D01*
X85421427Y-40728013D01*
X85492856Y-40799442D01*
X85528570Y-40870870D01*
X86064284Y-39728013D02*
X86064284Y-40156585D01*
X86064284Y-39942299D02*
X85314284Y-39942299D01*
X85421427Y-40013727D01*
X85492856Y-40085156D01*
X85528570Y-40156585D01*
X66264284Y-41406585D02*
X66264284Y-41335156D01*
X66299999Y-41263727D01*
X66335713Y-41228013D01*
X66407141Y-41192299D01*
X66549999Y-41156585D01*
X66728570Y-41156585D01*
X66871427Y-41192299D01*
X66942856Y-41228013D01*
X66978570Y-41263727D01*
X67014284Y-41335156D01*
X67014284Y-41406585D01*
X66978570Y-41478013D01*
X66942856Y-41513727D01*
X66871427Y-41549442D01*
X66728570Y-41585156D01*
X66549999Y-41585156D01*
X66407141Y-41549442D01*
X66335713Y-41513727D01*
X66299999Y-41478013D01*
X66264284Y-41406585D01*
X67014284Y-40442299D02*
X67014284Y-40870870D01*
X67014284Y-40656585D02*
X66264284Y-40656585D01*
X66371427Y-40728013D01*
X66442856Y-40799442D01*
X66478570Y-40870870D01*
X66264284Y-39763727D02*
X66264284Y-40120870D01*
X66621427Y-40156585D01*
X66585713Y-40120870D01*
X66549999Y-40049442D01*
X66549999Y-39870870D01*
X66585713Y-39799442D01*
X66621427Y-39763727D01*
X66692856Y-39728013D01*
X66871427Y-39728013D01*
X66942856Y-39763727D01*
X66978570Y-39799442D01*
X67014284Y-39870870D01*
X67014284Y-40049442D01*
X66978570Y-40120870D01*
X66942856Y-40156585D01*
X85302588Y-56651214D02*
X85302588Y-56579785D01*
X85338303Y-56508356D01*
X85374017Y-56472642D01*
X85445445Y-56436928D01*
X85588303Y-56401214D01*
X85766874Y-56401214D01*
X85909731Y-56436928D01*
X85981160Y-56472642D01*
X86016874Y-56508356D01*
X86052588Y-56579785D01*
X86052588Y-56651214D01*
X86016874Y-56722642D01*
X85981160Y-56758356D01*
X85909731Y-56794071D01*
X85766874Y-56829785D01*
X85588303Y-56829785D01*
X85445445Y-56794071D01*
X85374017Y-56758356D01*
X85338303Y-56722642D01*
X85302588Y-56651214D01*
X85374017Y-56115499D02*
X85338303Y-56079785D01*
X85302588Y-56008356D01*
X85302588Y-55829785D01*
X85338303Y-55758356D01*
X85374017Y-55722642D01*
X85445445Y-55686928D01*
X85516874Y-55686928D01*
X85624017Y-55722642D01*
X86052588Y-56151214D01*
X86052588Y-55686928D01*
X85302588Y-55044071D02*
X85302588Y-55186928D01*
X85338303Y-55258356D01*
X85374017Y-55294071D01*
X85481160Y-55365499D01*
X85624017Y-55401214D01*
X85909731Y-55401214D01*
X85981160Y-55365499D01*
X86016874Y-55329785D01*
X86052588Y-55258356D01*
X86052588Y-55115499D01*
X86016874Y-55044071D01*
X85981160Y-55008356D01*
X85909731Y-54972642D01*
X85731160Y-54972642D01*
X85659731Y-55008356D01*
X85624017Y-55044071D01*
X85588303Y-55115499D01*
X85588303Y-55258356D01*
X85624017Y-55329785D01*
X85659731Y-55365499D01*
X85731160Y-55401214D01*
X85314285Y-69343200D02*
X85314285Y-69271771D01*
X85350000Y-69200342D01*
X85385714Y-69164628D01*
X85457142Y-69128914D01*
X85600000Y-69093200D01*
X85778571Y-69093200D01*
X85921428Y-69128914D01*
X85992857Y-69164628D01*
X86028571Y-69200342D01*
X86064285Y-69271771D01*
X86064285Y-69343200D01*
X86028571Y-69414628D01*
X85992857Y-69450342D01*
X85921428Y-69486057D01*
X85778571Y-69521771D01*
X85600000Y-69521771D01*
X85457142Y-69486057D01*
X85385714Y-69450342D01*
X85350000Y-69414628D01*
X85314285Y-69343200D01*
X85314285Y-68628914D02*
X85314285Y-68557485D01*
X85350000Y-68486057D01*
X85385714Y-68450342D01*
X85457142Y-68414628D01*
X85600000Y-68378914D01*
X85778571Y-68378914D01*
X85921428Y-68414628D01*
X85992857Y-68450342D01*
X86028571Y-68486057D01*
X86064285Y-68557485D01*
X86064285Y-68628914D01*
X86028571Y-68700342D01*
X85992857Y-68736057D01*
X85921428Y-68771771D01*
X85778571Y-68807485D01*
X85600000Y-68807485D01*
X85457142Y-68771771D01*
X85385714Y-68736057D01*
X85350000Y-68700342D01*
X85314285Y-68628914D01*
X86064285Y-67664628D02*
X86064285Y-68093200D01*
X86064285Y-67878914D02*
X85314285Y-67878914D01*
X85421428Y-67950342D01*
X85492857Y-68021771D01*
X85528571Y-68093200D01*
X66720773Y-69558514D02*
X66720773Y-68987086D01*
X67006487Y-69272800D02*
X66435059Y-69272800D01*
X66256487Y-68272800D02*
X66256487Y-68629943D01*
X66613630Y-68665657D01*
X66577916Y-68629943D01*
X66542202Y-68558514D01*
X66542202Y-68379943D01*
X66577916Y-68308514D01*
X66613630Y-68272800D01*
X66685059Y-68237086D01*
X66863630Y-68237086D01*
X66935059Y-68272800D01*
X66970773Y-68308514D01*
X67006487Y-68379943D01*
X67006487Y-68558514D01*
X66970773Y-68629943D01*
X66935059Y-68665657D01*
X66256487Y-68022800D02*
X67006487Y-67772800D01*
X66256487Y-67522800D01*
X85350000Y-28524628D02*
X85314285Y-28596057D01*
X85314285Y-28703200D01*
X85350000Y-28810342D01*
X85421428Y-28881771D01*
X85492857Y-28917485D01*
X85635714Y-28953200D01*
X85742857Y-28953200D01*
X85885714Y-28917485D01*
X85957142Y-28881771D01*
X86028571Y-28810342D01*
X86064285Y-28703200D01*
X86064285Y-28631771D01*
X86028571Y-28524628D01*
X85992857Y-28488914D01*
X85742857Y-28488914D01*
X85742857Y-28631771D01*
X86064285Y-28167485D02*
X85314285Y-28167485D01*
X86064285Y-27738914D01*
X85314285Y-27738914D01*
X86064285Y-27381771D02*
X85314285Y-27381771D01*
X85314285Y-27203200D01*
X85350000Y-27096057D01*
X85421428Y-27024628D01*
X85492857Y-26988914D01*
X85635714Y-26953200D01*
X85742857Y-26953200D01*
X85885714Y-26988914D01*
X85957142Y-27024628D01*
X86028571Y-27096057D01*
X86064285Y-27203200D01*
X86064285Y-27381771D01*
X67014285Y-46393914D02*
X66264285Y-46393914D01*
X66264285Y-46215342D01*
X66300000Y-46108200D01*
X66371428Y-46036771D01*
X66442857Y-46001057D01*
X66585714Y-45965342D01*
X66692857Y-45965342D01*
X66835714Y-46001057D01*
X66907142Y-46036771D01*
X66978571Y-46108200D01*
X67014285Y-46215342D01*
X67014285Y-46393914D01*
X66728571Y-45643914D02*
X66728571Y-45072485D01*
X67014285Y-45358200D02*
X66442857Y-45358200D01*
D12*
X77623942Y-53494466D02*
X77671561Y-53542085D01*
X77719180Y-53684942D01*
X77719180Y-53780180D01*
X77671561Y-53923038D01*
X77576323Y-54018276D01*
X77481085Y-54065895D01*
X77290609Y-54113514D01*
X77147752Y-54113514D01*
X76957276Y-54065895D01*
X76862038Y-54018276D01*
X76766800Y-53923038D01*
X76719180Y-53780180D01*
X76719180Y-53684942D01*
X76766800Y-53542085D01*
X76814419Y-53494466D01*
X77719180Y-52542085D02*
X77719180Y-53113514D01*
X77719180Y-52827800D02*
X76719180Y-52827800D01*
X76862038Y-52923038D01*
X76957276Y-53018276D01*
X77004895Y-53113514D01*
X72477333Y-53678580D02*
X72144000Y-53202390D01*
X71905904Y-53678580D02*
X71905904Y-52678580D01*
X72286857Y-52678580D01*
X72382095Y-52726200D01*
X72429714Y-52773819D01*
X72477333Y-52869057D01*
X72477333Y-53011914D01*
X72429714Y-53107152D01*
X72382095Y-53154771D01*
X72286857Y-53202390D01*
X71905904Y-53202390D01*
X73334476Y-52678580D02*
X73144000Y-52678580D01*
X73048761Y-52726200D01*
X73001142Y-52773819D01*
X72905904Y-52916676D01*
X72858285Y-53107152D01*
X72858285Y-53488104D01*
X72905904Y-53583342D01*
X72953523Y-53630961D01*
X73048761Y-53678580D01*
X73239238Y-53678580D01*
X73334476Y-53630961D01*
X73382095Y-53583342D01*
X73429714Y-53488104D01*
X73429714Y-53250009D01*
X73382095Y-53154771D01*
X73334476Y-53107152D01*
X73239238Y-53059533D01*
X73048761Y-53059533D01*
X72953523Y-53107152D01*
X72905904Y-53154771D01*
X72858285Y-53250009D01*
X72162942Y-55831266D02*
X72210561Y-55878885D01*
X72258180Y-56021742D01*
X72258180Y-56116980D01*
X72210561Y-56259838D01*
X72115323Y-56355076D01*
X72020085Y-56402695D01*
X71829609Y-56450314D01*
X71686752Y-56450314D01*
X71496276Y-56402695D01*
X71401038Y-56355076D01*
X71305800Y-56259838D01*
X71258180Y-56116980D01*
X71258180Y-56021742D01*
X71305800Y-55878885D01*
X71353419Y-55831266D01*
X71258180Y-54926504D02*
X71258180Y-55402695D01*
X71734371Y-55450314D01*
X71686752Y-55402695D01*
X71639133Y-55307457D01*
X71639133Y-55069361D01*
X71686752Y-54974123D01*
X71734371Y-54926504D01*
X71829609Y-54878885D01*
X72067704Y-54878885D01*
X72162942Y-54926504D01*
X72210561Y-54974123D01*
X72258180Y-55069361D01*
X72258180Y-55307457D01*
X72210561Y-55402695D01*
X72162942Y-55450314D01*
X83486666Y-21055580D02*
X83486666Y-21769866D01*
X83439047Y-21912723D01*
X83343809Y-22007961D01*
X83200952Y-22055580D01*
X83105714Y-22055580D01*
X83867619Y-21055580D02*
X84486666Y-21055580D01*
X84153333Y-21436533D01*
X84296190Y-21436533D01*
X84391428Y-21484152D01*
X84439047Y-21531771D01*
X84486666Y-21627009D01*
X84486666Y-21865104D01*
X84439047Y-21960342D01*
X84391428Y-22007961D01*
X84296190Y-22055580D01*
X84010476Y-22055580D01*
X83915238Y-22007961D01*
X83867619Y-21960342D01*
X79144761Y-40335533D02*
X79192380Y-40192676D01*
X79192380Y-39954580D01*
X79144761Y-39859342D01*
X79097142Y-39811723D01*
X79001904Y-39764104D01*
X78906666Y-39764104D01*
X78811428Y-39811723D01*
X78763809Y-39859342D01*
X78716190Y-39954580D01*
X78668571Y-40145057D01*
X78620952Y-40240295D01*
X78573333Y-40287914D01*
X78478095Y-40335533D01*
X78382857Y-40335533D01*
X78287619Y-40287914D01*
X78240000Y-40240295D01*
X78192380Y-40145057D01*
X78192380Y-39906961D01*
X78240000Y-39764104D01*
X78192380Y-39430771D02*
X79192380Y-39192676D01*
X78478095Y-39002200D01*
X79192380Y-38811723D01*
X78192380Y-38573628D01*
X79192380Y-37668866D02*
X79192380Y-38240295D01*
X79192380Y-37954580D02*
X78192380Y-37954580D01*
X78335238Y-38049819D01*
X78430476Y-38145057D01*
X78478095Y-38240295D01*
X79462333Y-51189380D02*
X79129000Y-50713190D01*
X78890904Y-51189380D02*
X78890904Y-50189380D01*
X79271857Y-50189380D01*
X79367095Y-50237000D01*
X79414714Y-50284619D01*
X79462333Y-50379857D01*
X79462333Y-50522714D01*
X79414714Y-50617952D01*
X79367095Y-50665571D01*
X79271857Y-50713190D01*
X78890904Y-50713190D01*
X80414714Y-51189380D02*
X79843285Y-51189380D01*
X80129000Y-51189380D02*
X80129000Y-50189380D01*
X80033761Y-50332238D01*
X79938523Y-50427476D01*
X79843285Y-50475095D01*
X76602380Y-48276666D02*
X76126190Y-48610000D01*
X76602380Y-48848095D02*
X75602380Y-48848095D01*
X75602380Y-48467142D01*
X75650000Y-48371904D01*
X75697619Y-48324285D01*
X75792857Y-48276666D01*
X75935714Y-48276666D01*
X76030952Y-48324285D01*
X76078571Y-48371904D01*
X76126190Y-48467142D01*
X76126190Y-48848095D01*
X76602380Y-47800476D02*
X76602380Y-47610000D01*
X76554761Y-47514761D01*
X76507142Y-47467142D01*
X76364285Y-47371904D01*
X76173809Y-47324285D01*
X75792857Y-47324285D01*
X75697619Y-47371904D01*
X75650000Y-47419523D01*
X75602380Y-47514761D01*
X75602380Y-47705238D01*
X75650000Y-47800476D01*
X75697619Y-47848095D01*
X75792857Y-47895714D01*
X76030952Y-47895714D01*
X76126190Y-47848095D01*
X76173809Y-47800476D01*
X76221428Y-47705238D01*
X76221428Y-47514761D01*
X76173809Y-47419523D01*
X76126190Y-47371904D01*
X76030952Y-47324285D01*
X73839342Y-55831266D02*
X73886961Y-55878885D01*
X73934580Y-56021742D01*
X73934580Y-56116980D01*
X73886961Y-56259838D01*
X73791723Y-56355076D01*
X73696485Y-56402695D01*
X73506009Y-56450314D01*
X73363152Y-56450314D01*
X73172676Y-56402695D01*
X73077438Y-56355076D01*
X72982200Y-56259838D01*
X72934580Y-56116980D01*
X72934580Y-56021742D01*
X72982200Y-55878885D01*
X73029819Y-55831266D01*
X73267914Y-54974123D02*
X73934580Y-54974123D01*
X72886961Y-55212219D02*
X73601247Y-55450314D01*
X73601247Y-54831266D01*
X71883542Y-44502866D02*
X71931161Y-44550485D01*
X71978780Y-44693342D01*
X71978780Y-44788580D01*
X71931161Y-44931438D01*
X71835923Y-45026676D01*
X71740685Y-45074295D01*
X71550209Y-45121914D01*
X71407352Y-45121914D01*
X71216876Y-45074295D01*
X71121638Y-45026676D01*
X71026400Y-44931438D01*
X70978780Y-44788580D01*
X70978780Y-44693342D01*
X71026400Y-44550485D01*
X71074019Y-44502866D01*
X71074019Y-44121914D02*
X71026400Y-44074295D01*
X70978780Y-43979057D01*
X70978780Y-43740961D01*
X71026400Y-43645723D01*
X71074019Y-43598104D01*
X71169257Y-43550485D01*
X71264495Y-43550485D01*
X71407352Y-43598104D01*
X71978780Y-44169533D01*
X71978780Y-43550485D01*
X76652380Y-40756295D02*
X75652380Y-40756295D01*
X75652380Y-40518200D01*
X75700000Y-40375342D01*
X75795238Y-40280104D01*
X75890476Y-40232485D01*
X76080952Y-40184866D01*
X76223809Y-40184866D01*
X76414285Y-40232485D01*
X76509523Y-40280104D01*
X76604761Y-40375342D01*
X76652380Y-40518200D01*
X76652380Y-40756295D01*
X75747619Y-39803914D02*
X75700000Y-39756295D01*
X75652380Y-39661057D01*
X75652380Y-39422961D01*
X75700000Y-39327723D01*
X75747619Y-39280104D01*
X75842857Y-39232485D01*
X75938095Y-39232485D01*
X76080952Y-39280104D01*
X76652380Y-39851533D01*
X76652380Y-39232485D01*
X75438095Y-34390580D02*
X75438095Y-35200104D01*
X75485714Y-35295342D01*
X75533333Y-35342961D01*
X75628571Y-35390580D01*
X75819047Y-35390580D01*
X75914285Y-35342961D01*
X75961904Y-35295342D01*
X76009523Y-35200104D01*
X76009523Y-34390580D01*
X76438095Y-34485819D02*
X76485714Y-34438200D01*
X76580952Y-34390580D01*
X76819047Y-34390580D01*
X76914285Y-34438200D01*
X76961904Y-34485819D01*
X77009523Y-34581057D01*
X77009523Y-34676295D01*
X76961904Y-34819152D01*
X76390476Y-35390580D01*
X77009523Y-35390580D01*
X68246666Y-21055580D02*
X68246666Y-21769866D01*
X68199047Y-21912723D01*
X68103809Y-22007961D01*
X67960952Y-22055580D01*
X67865714Y-22055580D01*
X68675238Y-21150819D02*
X68722857Y-21103200D01*
X68818095Y-21055580D01*
X69056190Y-21055580D01*
X69151428Y-21103200D01*
X69199047Y-21150819D01*
X69246666Y-21246057D01*
X69246666Y-21341295D01*
X69199047Y-21484152D01*
X68627619Y-22055580D01*
X69246666Y-22055580D01*
X73937761Y-40335533D02*
X73985380Y-40192676D01*
X73985380Y-39954580D01*
X73937761Y-39859342D01*
X73890142Y-39811723D01*
X73794904Y-39764104D01*
X73699666Y-39764104D01*
X73604428Y-39811723D01*
X73556809Y-39859342D01*
X73509190Y-39954580D01*
X73461571Y-40145057D01*
X73413952Y-40240295D01*
X73366333Y-40287914D01*
X73271095Y-40335533D01*
X73175857Y-40335533D01*
X73080619Y-40287914D01*
X73033000Y-40240295D01*
X72985380Y-40145057D01*
X72985380Y-39906961D01*
X73033000Y-39764104D01*
X72985380Y-39430771D02*
X73985380Y-39192676D01*
X73271095Y-39002200D01*
X73985380Y-38811723D01*
X72985380Y-38573628D01*
X73080619Y-38240295D02*
X73033000Y-38192676D01*
X72985380Y-38097438D01*
X72985380Y-37859342D01*
X73033000Y-37764104D01*
X73080619Y-37716485D01*
X73175857Y-37668866D01*
X73271095Y-37668866D01*
X73413952Y-37716485D01*
X73985380Y-38287914D01*
X73985380Y-37668866D01*
X79589333Y-33866580D02*
X79256000Y-33390390D01*
X79017904Y-33866580D02*
X79017904Y-32866580D01*
X79398857Y-32866580D01*
X79494095Y-32914200D01*
X79541714Y-32961819D01*
X79589333Y-33057057D01*
X79589333Y-33199914D01*
X79541714Y-33295152D01*
X79494095Y-33342771D01*
X79398857Y-33390390D01*
X79017904Y-33390390D01*
X79970285Y-32961819D02*
X80017904Y-32914200D01*
X80113142Y-32866580D01*
X80351238Y-32866580D01*
X80446476Y-32914200D01*
X80494095Y-32961819D01*
X80541714Y-33057057D01*
X80541714Y-33152295D01*
X80494095Y-33295152D01*
X79922666Y-33866580D01*
X80541714Y-33866580D01*
X72350333Y-33866580D02*
X72017000Y-33390390D01*
X71778904Y-33866580D02*
X71778904Y-32866580D01*
X72159857Y-32866580D01*
X72255095Y-32914200D01*
X72302714Y-32961819D01*
X72350333Y-33057057D01*
X72350333Y-33199914D01*
X72302714Y-33295152D01*
X72255095Y-33342771D01*
X72159857Y-33390390D01*
X71778904Y-33390390D01*
X73207476Y-33199914D02*
X73207476Y-33866580D01*
X72969380Y-32818961D02*
X72731285Y-33533247D01*
X73350333Y-33533247D01*
X73787095Y-44042580D02*
X73787095Y-44852104D01*
X73834714Y-44947342D01*
X73882333Y-44994961D01*
X73977571Y-45042580D01*
X74168047Y-45042580D01*
X74263285Y-44994961D01*
X74310904Y-44947342D01*
X74358523Y-44852104D01*
X74358523Y-44042580D01*
X75358523Y-45042580D02*
X74787095Y-45042580D01*
X75072809Y-45042580D02*
X75072809Y-44042580D01*
X74977571Y-44185438D01*
X74882333Y-44280676D01*
X74787095Y-44328295D01*
X72294761Y-51233819D02*
X72199523Y-51186200D01*
X72104285Y-51090961D01*
X71961428Y-50948104D01*
X71866190Y-50900485D01*
X71770952Y-50900485D01*
X71818571Y-51138580D02*
X71723333Y-51090961D01*
X71628095Y-50995723D01*
X71580476Y-50805247D01*
X71580476Y-50471914D01*
X71628095Y-50281438D01*
X71723333Y-50186200D01*
X71818571Y-50138580D01*
X72009047Y-50138580D01*
X72104285Y-50186200D01*
X72199523Y-50281438D01*
X72247142Y-50471914D01*
X72247142Y-50805247D01*
X72199523Y-50995723D01*
X72104285Y-51090961D01*
X72009047Y-51138580D01*
X71818571Y-51138580D01*
X72628095Y-50233819D02*
X72675714Y-50186200D01*
X72770952Y-50138580D01*
X73009047Y-50138580D01*
X73104285Y-50186200D01*
X73151904Y-50233819D01*
X73199523Y-50329057D01*
X73199523Y-50424295D01*
X73151904Y-50567152D01*
X72580476Y-51138580D01*
X73199523Y-51138580D01*
X81097380Y-44248866D02*
X80621190Y-44582200D01*
X81097380Y-44820295D02*
X80097380Y-44820295D01*
X80097380Y-44439342D01*
X80145000Y-44344104D01*
X80192619Y-44296485D01*
X80287857Y-44248866D01*
X80430714Y-44248866D01*
X80525952Y-44296485D01*
X80573571Y-44344104D01*
X80621190Y-44439342D01*
X80621190Y-44820295D01*
X80525952Y-43677438D02*
X80478333Y-43772676D01*
X80430714Y-43820295D01*
X80335476Y-43867914D01*
X80287857Y-43867914D01*
X80192619Y-43820295D01*
X80145000Y-43772676D01*
X80097380Y-43677438D01*
X80097380Y-43486961D01*
X80145000Y-43391723D01*
X80192619Y-43344104D01*
X80287857Y-43296485D01*
X80335476Y-43296485D01*
X80430714Y-43344104D01*
X80478333Y-43391723D01*
X80525952Y-43486961D01*
X80525952Y-43677438D01*
X80573571Y-43772676D01*
X80621190Y-43820295D01*
X80716428Y-43867914D01*
X80906904Y-43867914D01*
X81002142Y-43820295D01*
X81049761Y-43772676D01*
X81097380Y-43677438D01*
X81097380Y-43486961D01*
X81049761Y-43391723D01*
X81002142Y-43344104D01*
X80906904Y-43296485D01*
X80716428Y-43296485D01*
X80621190Y-43344104D01*
X80573571Y-43391723D01*
X80525952Y-43486961D01*
X78009761Y-45010819D02*
X77914523Y-44963200D01*
X77819285Y-44867961D01*
X77676428Y-44725104D01*
X77581190Y-44677485D01*
X77485952Y-44677485D01*
X77533571Y-44915580D02*
X77438333Y-44867961D01*
X77343095Y-44772723D01*
X77295476Y-44582247D01*
X77295476Y-44248914D01*
X77343095Y-44058438D01*
X77438333Y-43963200D01*
X77533571Y-43915580D01*
X77724047Y-43915580D01*
X77819285Y-43963200D01*
X77914523Y-44058438D01*
X77962142Y-44248914D01*
X77962142Y-44582247D01*
X77914523Y-44772723D01*
X77819285Y-44867961D01*
X77724047Y-44915580D01*
X77533571Y-44915580D01*
X78914523Y-44915580D02*
X78343095Y-44915580D01*
X78628809Y-44915580D02*
X78628809Y-43915580D01*
X78533571Y-44058438D01*
X78438333Y-44153676D01*
X78343095Y-44201295D01*
X75767142Y-51189380D02*
X75433809Y-50713190D01*
X75195714Y-51189380D02*
X75195714Y-50189380D01*
X75576666Y-50189380D01*
X75671904Y-50237000D01*
X75719523Y-50284619D01*
X75767142Y-50379857D01*
X75767142Y-50522714D01*
X75719523Y-50617952D01*
X75671904Y-50665571D01*
X75576666Y-50713190D01*
X75195714Y-50713190D01*
X76719523Y-51189380D02*
X76148095Y-51189380D01*
X76433809Y-51189380D02*
X76433809Y-50189380D01*
X76338571Y-50332238D01*
X76243333Y-50427476D01*
X76148095Y-50475095D01*
X77338571Y-50189380D02*
X77433809Y-50189380D01*
X77529047Y-50237000D01*
X77576666Y-50284619D01*
X77624285Y-50379857D01*
X77671904Y-50570333D01*
X77671904Y-50808428D01*
X77624285Y-50998904D01*
X77576666Y-51094142D01*
X77529047Y-51141761D01*
X77433809Y-51189380D01*
X77338571Y-51189380D01*
X77243333Y-51141761D01*
X77195714Y-51094142D01*
X77148095Y-50998904D01*
X77100476Y-50808428D01*
X77100476Y-50570333D01*
X77148095Y-50379857D01*
X77195714Y-50284619D01*
X77243333Y-50237000D01*
X77338571Y-50189380D01*
X72604333Y-48122342D02*
X72556714Y-48169961D01*
X72413857Y-48217580D01*
X72318619Y-48217580D01*
X72175761Y-48169961D01*
X72080523Y-48074723D01*
X72032904Y-47979485D01*
X71985285Y-47789009D01*
X71985285Y-47646152D01*
X72032904Y-47455676D01*
X72080523Y-47360438D01*
X72175761Y-47265200D01*
X72318619Y-47217580D01*
X72413857Y-47217580D01*
X72556714Y-47265200D01*
X72604333Y-47312819D01*
X72937666Y-47217580D02*
X73556714Y-47217580D01*
X73223380Y-47598533D01*
X73366238Y-47598533D01*
X73461476Y-47646152D01*
X73509095Y-47693771D01*
X73556714Y-47789009D01*
X73556714Y-48027104D01*
X73509095Y-48122342D01*
X73461476Y-48169961D01*
X73366238Y-48217580D01*
X73080523Y-48217580D01*
X72985285Y-48169961D01*
X72937666Y-48122342D01*
X79411533Y-54567580D02*
X79078200Y-54091390D01*
X78840104Y-54567580D02*
X78840104Y-53567580D01*
X79221057Y-53567580D01*
X79316295Y-53615200D01*
X79363914Y-53662819D01*
X79411533Y-53758057D01*
X79411533Y-53900914D01*
X79363914Y-53996152D01*
X79316295Y-54043771D01*
X79221057Y-54091390D01*
X78840104Y-54091390D01*
X79744866Y-53567580D02*
X80411533Y-53567580D01*
X79982961Y-54567580D01*
X78486095Y-59409580D02*
X78486095Y-60219104D01*
X78533714Y-60314342D01*
X78581333Y-60361961D01*
X78676571Y-60409580D01*
X78867047Y-60409580D01*
X78962285Y-60361961D01*
X79009904Y-60314342D01*
X79057523Y-60219104D01*
X79057523Y-59409580D01*
X80009904Y-59409580D02*
X79533714Y-59409580D01*
X79486095Y-59885771D01*
X79533714Y-59838152D01*
X79628952Y-59790533D01*
X79867047Y-59790533D01*
X79962285Y-59838152D01*
X80009904Y-59885771D01*
X80057523Y-59981009D01*
X80057523Y-60219104D01*
X80009904Y-60314342D01*
X79962285Y-60361961D01*
X79867047Y-60409580D01*
X79628952Y-60409580D01*
X79533714Y-60361961D01*
X79486095Y-60314342D01*
X70933333Y-71639866D02*
X70933333Y-70939866D01*
X71166666Y-71439866D01*
X71400000Y-70939866D01*
X71400000Y-71639866D01*
X71700000Y-71606533D02*
X71800000Y-71639866D01*
X71966666Y-71639866D01*
X72033333Y-71606533D01*
X72066666Y-71573200D01*
X72100000Y-71506533D01*
X72100000Y-71439866D01*
X72066666Y-71373200D01*
X72033333Y-71339866D01*
X71966666Y-71306533D01*
X71833333Y-71273200D01*
X71766666Y-71239866D01*
X71733333Y-71206533D01*
X71700000Y-71139866D01*
X71700000Y-71073200D01*
X71733333Y-71006533D01*
X71766666Y-70973200D01*
X71833333Y-70939866D01*
X72000000Y-70939866D01*
X72100000Y-70973200D01*
X72500000Y-71239866D02*
X72433333Y-71206533D01*
X72400000Y-71173200D01*
X72366666Y-71106533D01*
X72366666Y-71073200D01*
X72400000Y-71006533D01*
X72433333Y-70973200D01*
X72500000Y-70939866D01*
X72633333Y-70939866D01*
X72700000Y-70973200D01*
X72733333Y-71006533D01*
X72766666Y-71073200D01*
X72766666Y-71106533D01*
X72733333Y-71173200D01*
X72700000Y-71206533D01*
X72633333Y-71239866D01*
X72500000Y-71239866D01*
X72433333Y-71273200D01*
X72400000Y-71306533D01*
X72366666Y-71373200D01*
X72366666Y-71506533D01*
X72400000Y-71573200D01*
X72433333Y-71606533D01*
X72500000Y-71639866D01*
X72633333Y-71639866D01*
X72700000Y-71606533D01*
X72733333Y-71573200D01*
X72766666Y-71506533D01*
X72766666Y-71373200D01*
X72733333Y-71306533D01*
X72700000Y-71273200D01*
X72633333Y-71239866D01*
X73166666Y-71239866D02*
X73100000Y-71206533D01*
X73066666Y-71173200D01*
X73033333Y-71106533D01*
X73033333Y-71073200D01*
X73066666Y-71006533D01*
X73100000Y-70973200D01*
X73166666Y-70939866D01*
X73300000Y-70939866D01*
X73366666Y-70973200D01*
X73400000Y-71006533D01*
X73433333Y-71073200D01*
X73433333Y-71106533D01*
X73400000Y-71173200D01*
X73366666Y-71206533D01*
X73300000Y-71239866D01*
X73166666Y-71239866D01*
X73100000Y-71273200D01*
X73066666Y-71306533D01*
X73033333Y-71373200D01*
X73033333Y-71506533D01*
X73066666Y-71573200D01*
X73100000Y-71606533D01*
X73166666Y-71639866D01*
X73300000Y-71639866D01*
X73366666Y-71606533D01*
X73400000Y-71573200D01*
X73433333Y-71506533D01*
X73433333Y-71373200D01*
X73400000Y-71306533D01*
X73366666Y-71273200D01*
X73300000Y-71239866D01*
X73700000Y-71606533D02*
X73800000Y-71639866D01*
X73966666Y-71639866D01*
X74033333Y-71606533D01*
X74066666Y-71573200D01*
X74100000Y-71506533D01*
X74100000Y-71439866D01*
X74066666Y-71373200D01*
X74033333Y-71339866D01*
X73966666Y-71306533D01*
X73833333Y-71273200D01*
X73766666Y-71239866D01*
X73733333Y-71206533D01*
X73700000Y-71139866D01*
X73700000Y-71073200D01*
X73733333Y-71006533D01*
X73766666Y-70973200D01*
X73833333Y-70939866D01*
X74000000Y-70939866D01*
X74100000Y-70973200D01*
X74633333Y-71273200D02*
X74400000Y-71273200D01*
X74400000Y-71639866D02*
X74400000Y-70939866D01*
X74733333Y-70939866D01*
X74933333Y-70939866D02*
X75366666Y-70939866D01*
X75133333Y-71206533D01*
X75233333Y-71206533D01*
X75300000Y-71239866D01*
X75333333Y-71273200D01*
X75366666Y-71339866D01*
X75366666Y-71506533D01*
X75333333Y-71573200D01*
X75300000Y-71606533D01*
X75233333Y-71639866D01*
X75033333Y-71639866D01*
X74966666Y-71606533D01*
X74933333Y-71573200D01*
X75666666Y-71373200D02*
X76200000Y-71373200D01*
X76533333Y-71173200D02*
X76533333Y-71639866D01*
X76533333Y-71239866D02*
X76566666Y-71206533D01*
X76633333Y-71173200D01*
X76733333Y-71173200D01*
X76800000Y-71206533D01*
X76833333Y-71273200D01*
X76833333Y-71639866D01*
X77566666Y-71639866D02*
X77333333Y-71306533D01*
X77166666Y-71639866D02*
X77166666Y-70939866D01*
X77433333Y-70939866D01*
X77500000Y-70973200D01*
X77533333Y-71006533D01*
X77566666Y-71073200D01*
X77566666Y-71173200D01*
X77533333Y-71239866D01*
X77500000Y-71273200D01*
X77433333Y-71306533D01*
X77166666Y-71306533D01*
X78100000Y-71273200D02*
X77866666Y-71273200D01*
X77866666Y-71639866D02*
X77866666Y-70939866D01*
X78200000Y-70939866D01*
X78800000Y-70939866D02*
X78466666Y-70939866D01*
X78433333Y-71273200D01*
X78466666Y-71239866D01*
X78533333Y-71206533D01*
X78700000Y-71206533D01*
X78766666Y-71239866D01*
X78800000Y-71273200D01*
X78833333Y-71339866D01*
X78833333Y-71506533D01*
X78800000Y-71573200D01*
X78766666Y-71606533D01*
X78700000Y-71639866D01*
X78533333Y-71639866D01*
X78466666Y-71606533D01*
X78433333Y-71573200D01*
X79100000Y-71006533D02*
X79133333Y-70973200D01*
X79200000Y-70939866D01*
X79366666Y-70939866D01*
X79433333Y-70973200D01*
X79466666Y-71006533D01*
X79500000Y-71073200D01*
X79500000Y-71139866D01*
X79466666Y-71239866D01*
X79066666Y-71639866D01*
X79500000Y-71639866D01*
X79900000Y-71239866D02*
X79833333Y-71206533D01*
X79800000Y-71173200D01*
X79766666Y-71106533D01*
X79766666Y-71073200D01*
X79800000Y-71006533D01*
X79833333Y-70973200D01*
X79900000Y-70939866D01*
X80033333Y-70939866D01*
X80100000Y-70973200D01*
X80133333Y-71006533D01*
X80166666Y-71073200D01*
X80166666Y-71106533D01*
X80133333Y-71173200D01*
X80100000Y-71206533D01*
X80033333Y-71239866D01*
X79900000Y-71239866D01*
X79833333Y-71273200D01*
X79800000Y-71306533D01*
X79766666Y-71373200D01*
X79766666Y-71506533D01*
X79800000Y-71573200D01*
X79833333Y-71606533D01*
X79900000Y-71639866D01*
X80033333Y-71639866D01*
X80100000Y-71606533D01*
X80133333Y-71573200D01*
X80166666Y-71506533D01*
X80166666Y-71373200D01*
X80133333Y-71306533D01*
X80100000Y-71273200D01*
X80033333Y-71239866D01*
X80766666Y-71173200D02*
X80766666Y-71639866D01*
X80600000Y-70906533D02*
X80433333Y-71406533D01*
X80866666Y-71406533D01*
X81266666Y-70939866D02*
X81333333Y-70939866D01*
X81400000Y-70973200D01*
X81433333Y-71006533D01*
X81466666Y-71073200D01*
X81500000Y-71206533D01*
X81500000Y-71373200D01*
X81466666Y-71506533D01*
X81433333Y-71573200D01*
X81400000Y-71606533D01*
X81333333Y-71639866D01*
X81266666Y-71639866D01*
X81200000Y-71606533D01*
X81166666Y-71573200D01*
X81133333Y-71506533D01*
X81100000Y-71373200D01*
X81100000Y-71206533D01*
X81133333Y-71073200D01*
X81166666Y-71006533D01*
X81200000Y-70973200D01*
X81266666Y-70939866D01*
X71076190Y-75101866D02*
X71038095Y-75063771D01*
X70961904Y-74949485D01*
X70923809Y-74873295D01*
X70885714Y-74759009D01*
X70847619Y-74568533D01*
X70847619Y-74416152D01*
X70885714Y-74225676D01*
X70923809Y-74111390D01*
X70961904Y-74035200D01*
X71038095Y-73920914D01*
X71076190Y-73882819D01*
X71380952Y-74263771D02*
X71380952Y-75063771D01*
X71380952Y-74301866D02*
X71457142Y-74263771D01*
X71609523Y-74263771D01*
X71685714Y-74301866D01*
X71723809Y-74339961D01*
X71761904Y-74416152D01*
X71761904Y-74644723D01*
X71723809Y-74720914D01*
X71685714Y-74759009D01*
X71609523Y-74797104D01*
X71457142Y-74797104D01*
X71380952Y-74759009D01*
X72219047Y-74797104D02*
X72142857Y-74759009D01*
X72104761Y-74720914D01*
X72066666Y-74644723D01*
X72066666Y-74416152D01*
X72104761Y-74339961D01*
X72142857Y-74301866D01*
X72219047Y-74263771D01*
X72333333Y-74263771D01*
X72409523Y-74301866D01*
X72447619Y-74339961D01*
X72485714Y-74416152D01*
X72485714Y-74644723D01*
X72447619Y-74720914D01*
X72409523Y-74759009D01*
X72333333Y-74797104D01*
X72219047Y-74797104D01*
X73171428Y-74263771D02*
X73171428Y-74797104D01*
X72828571Y-74263771D02*
X72828571Y-74682819D01*
X72866666Y-74759009D01*
X72942857Y-74797104D01*
X73057142Y-74797104D01*
X73133333Y-74759009D01*
X73171428Y-74720914D01*
X73552380Y-74797104D02*
X73552380Y-74263771D01*
X73552380Y-74416152D02*
X73590476Y-74339961D01*
X73628571Y-74301866D01*
X73704761Y-74263771D01*
X73780952Y-74263771D01*
X74085714Y-74759009D02*
X74085714Y-74797104D01*
X74047619Y-74873295D01*
X74009523Y-74911390D01*
X74961904Y-74263771D02*
X75152380Y-74797104D01*
X75342857Y-74263771D01*
X75647619Y-74797104D02*
X75647619Y-74263771D01*
X75647619Y-73997104D02*
X75609523Y-74035200D01*
X75647619Y-74073295D01*
X75685714Y-74035200D01*
X75647619Y-73997104D01*
X75647619Y-74073295D01*
X76371428Y-74797104D02*
X76371428Y-74378057D01*
X76333333Y-74301866D01*
X76257142Y-74263771D01*
X76104761Y-74263771D01*
X76028571Y-74301866D01*
X76371428Y-74759009D02*
X76295238Y-74797104D01*
X76104761Y-74797104D01*
X76028571Y-74759009D01*
X75990476Y-74682819D01*
X75990476Y-74606628D01*
X76028571Y-74530438D01*
X76104761Y-74492342D01*
X76295238Y-74492342D01*
X76371428Y-74454247D01*
X76790476Y-74759009D02*
X76790476Y-74797104D01*
X76752380Y-74873295D01*
X76714285Y-74911390D01*
X77628571Y-74263771D02*
X77933333Y-74263771D01*
X77742857Y-73997104D02*
X77742857Y-74682819D01*
X77780952Y-74759009D01*
X77857142Y-74797104D01*
X77933333Y-74797104D01*
X78200000Y-74797104D02*
X78200000Y-74263771D01*
X78200000Y-74416152D02*
X78238095Y-74339961D01*
X78276190Y-74301866D01*
X78352380Y-74263771D01*
X78428571Y-74263771D01*
X79038095Y-74797104D02*
X79038095Y-74378057D01*
X79000000Y-74301866D01*
X78923809Y-74263771D01*
X78771428Y-74263771D01*
X78695238Y-74301866D01*
X79038095Y-74759009D02*
X78961904Y-74797104D01*
X78771428Y-74797104D01*
X78695238Y-74759009D01*
X78657142Y-74682819D01*
X78657142Y-74606628D01*
X78695238Y-74530438D01*
X78771428Y-74492342D01*
X78961904Y-74492342D01*
X79038095Y-74454247D01*
X79761904Y-74759009D02*
X79685714Y-74797104D01*
X79533333Y-74797104D01*
X79457142Y-74759009D01*
X79419047Y-74720914D01*
X79380952Y-74644723D01*
X79380952Y-74416152D01*
X79419047Y-74339961D01*
X79457142Y-74301866D01*
X79533333Y-74263771D01*
X79685714Y-74263771D01*
X79761904Y-74301866D01*
X80104761Y-74797104D02*
X80104761Y-73997104D01*
X80180952Y-74492342D02*
X80409523Y-74797104D01*
X80409523Y-74263771D02*
X80104761Y-74568533D01*
X80714285Y-74759009D02*
X80790476Y-74797104D01*
X80942857Y-74797104D01*
X81019047Y-74759009D01*
X81057142Y-74682819D01*
X81057142Y-74644723D01*
X81019047Y-74568533D01*
X80942857Y-74530438D01*
X80828571Y-74530438D01*
X80752380Y-74492342D01*
X80714285Y-74416152D01*
X80714285Y-74378057D01*
X80752380Y-74301866D01*
X80828571Y-74263771D01*
X80942857Y-74263771D01*
X81019047Y-74301866D01*
X81323809Y-75101866D02*
X81361904Y-75063771D01*
X81438095Y-74949485D01*
X81476190Y-74873295D01*
X81514285Y-74759009D01*
X81552380Y-74568533D01*
X81552380Y-74416152D01*
X81514285Y-74225676D01*
X81476190Y-74111390D01*
X81438095Y-74035200D01*
X81361904Y-73920914D01*
X81323809Y-73882819D01*
X71000000Y-73273104D02*
X70923809Y-73235009D01*
X70885714Y-73196914D01*
X70847619Y-73120723D01*
X70847619Y-72892152D01*
X70885714Y-72815961D01*
X70923809Y-72777866D01*
X71000000Y-72739771D01*
X71114285Y-72739771D01*
X71190476Y-72777866D01*
X71228571Y-72815961D01*
X71266666Y-72892152D01*
X71266666Y-73120723D01*
X71228571Y-73196914D01*
X71190476Y-73235009D01*
X71114285Y-73273104D01*
X71000000Y-73273104D01*
X71609523Y-72739771D02*
X71609523Y-73273104D01*
X71609523Y-72815961D02*
X71647619Y-72777866D01*
X71723809Y-72739771D01*
X71838095Y-72739771D01*
X71914285Y-72777866D01*
X71952380Y-72854057D01*
X71952380Y-73273104D01*
X73285714Y-73273104D02*
X73285714Y-72854057D01*
X73247619Y-72777866D01*
X73171428Y-72739771D01*
X73019047Y-72739771D01*
X72942857Y-72777866D01*
X73285714Y-73235009D02*
X73209523Y-73273104D01*
X73019047Y-73273104D01*
X72942857Y-73235009D01*
X72904761Y-73158819D01*
X72904761Y-73082628D01*
X72942857Y-73006438D01*
X73019047Y-72968342D01*
X73209523Y-72968342D01*
X73285714Y-72930247D01*
X73780952Y-73273104D02*
X73704761Y-73235009D01*
X73666666Y-73158819D01*
X73666666Y-72473104D01*
X74200000Y-73273104D02*
X74123809Y-73235009D01*
X74085714Y-73158819D01*
X74085714Y-72473104D01*
X75228571Y-73273104D02*
X75152380Y-73235009D01*
X75114285Y-73158819D01*
X75114285Y-72473104D01*
X75876190Y-73273104D02*
X75876190Y-72854057D01*
X75838095Y-72777866D01*
X75761904Y-72739771D01*
X75609523Y-72739771D01*
X75533333Y-72777866D01*
X75876190Y-73235009D02*
X75800000Y-73273104D01*
X75609523Y-73273104D01*
X75533333Y-73235009D01*
X75495238Y-73158819D01*
X75495238Y-73082628D01*
X75533333Y-73006438D01*
X75609523Y-72968342D01*
X75800000Y-72968342D01*
X75876190Y-72930247D01*
X76180952Y-72739771D02*
X76371428Y-73273104D01*
X76561904Y-72739771D02*
X76371428Y-73273104D01*
X76295238Y-73463580D01*
X76257142Y-73501676D01*
X76180952Y-73539771D01*
X77171428Y-73235009D02*
X77095238Y-73273104D01*
X76942857Y-73273104D01*
X76866666Y-73235009D01*
X76828571Y-73158819D01*
X76828571Y-72854057D01*
X76866666Y-72777866D01*
X76942857Y-72739771D01*
X77095238Y-72739771D01*
X77171428Y-72777866D01*
X77209523Y-72854057D01*
X77209523Y-72930247D01*
X76828571Y-73006438D01*
X77552380Y-73273104D02*
X77552380Y-72739771D01*
X77552380Y-72892152D02*
X77590476Y-72815961D01*
X77628571Y-72777866D01*
X77704761Y-72739771D01*
X77780952Y-72739771D01*
X78009523Y-73235009D02*
X78085714Y-73273104D01*
X78238095Y-73273104D01*
X78314285Y-73235009D01*
X78352380Y-73158819D01*
X78352380Y-73120723D01*
X78314285Y-73044533D01*
X78238095Y-73006438D01*
X78123809Y-73006438D01*
X78047619Y-72968342D01*
X78009523Y-72892152D01*
X78009523Y-72854057D01*
X78047619Y-72777866D01*
X78123809Y-72739771D01*
X78238095Y-72739771D01*
X78314285Y-72777866D01*
X79304761Y-73273104D02*
X79304761Y-72473104D01*
X79647619Y-73273104D02*
X79647619Y-72854057D01*
X79609523Y-72777866D01*
X79533333Y-72739771D01*
X79419047Y-72739771D01*
X79342857Y-72777866D01*
X79304761Y-72815961D01*
X80333333Y-73235009D02*
X80257142Y-73273104D01*
X80104761Y-73273104D01*
X80028571Y-73235009D01*
X79990476Y-73158819D01*
X79990476Y-72854057D01*
X80028571Y-72777866D01*
X80104761Y-72739771D01*
X80257142Y-72739771D01*
X80333333Y-72777866D01*
X80371428Y-72854057D01*
X80371428Y-72930247D01*
X79990476Y-73006438D01*
X80714285Y-73273104D02*
X80714285Y-72739771D01*
X80714285Y-72892152D02*
X80752380Y-72815961D01*
X80790476Y-72777866D01*
X80866666Y-72739771D01*
X80942857Y-72739771D01*
X81514285Y-73235009D02*
X81438095Y-73273104D01*
X81285714Y-73273104D01*
X81209523Y-73235009D01*
X81171428Y-73158819D01*
X81171428Y-72854057D01*
X81209523Y-72777866D01*
X81285714Y-72739771D01*
X81438095Y-72739771D01*
X81514285Y-72777866D01*
X81552380Y-72854057D01*
X81552380Y-72930247D01*
X81171428Y-73006438D01*
X72657142Y-75838533D02*
X73038095Y-75838533D01*
X72580952Y-76067104D02*
X72847619Y-75267104D01*
X73114285Y-76067104D01*
X73723809Y-76067104D02*
X73723809Y-75267104D01*
X73723809Y-76029009D02*
X73647619Y-76067104D01*
X73495238Y-76067104D01*
X73419047Y-76029009D01*
X73380952Y-75990914D01*
X73342857Y-75914723D01*
X73342857Y-75686152D01*
X73380952Y-75609961D01*
X73419047Y-75571866D01*
X73495238Y-75533771D01*
X73647619Y-75533771D01*
X73723809Y-75571866D01*
X74447619Y-76067104D02*
X74447619Y-75267104D01*
X74447619Y-76029009D02*
X74371428Y-76067104D01*
X74219047Y-76067104D01*
X74142857Y-76029009D01*
X74104761Y-75990914D01*
X74066666Y-75914723D01*
X74066666Y-75686152D01*
X74104761Y-75609961D01*
X74142857Y-75571866D01*
X74219047Y-75533771D01*
X74371428Y-75533771D01*
X74447619Y-75571866D01*
X75438095Y-76067104D02*
X75438095Y-75267104D01*
X75514285Y-75762342D02*
X75742857Y-76067104D01*
X75742857Y-75533771D02*
X75438095Y-75838533D01*
X76390476Y-76029009D02*
X76314285Y-76067104D01*
X76161904Y-76067104D01*
X76085714Y-76029009D01*
X76047619Y-75952819D01*
X76047619Y-75648057D01*
X76085714Y-75571866D01*
X76161904Y-75533771D01*
X76314285Y-75533771D01*
X76390476Y-75571866D01*
X76428571Y-75648057D01*
X76428571Y-75724247D01*
X76047619Y-75800438D01*
X77076190Y-76029009D02*
X77000000Y-76067104D01*
X76847619Y-76067104D01*
X76771428Y-76029009D01*
X76733333Y-75952819D01*
X76733333Y-75648057D01*
X76771428Y-75571866D01*
X76847619Y-75533771D01*
X77000000Y-75533771D01*
X77076190Y-75571866D01*
X77114285Y-75648057D01*
X77114285Y-75724247D01*
X76733333Y-75800438D01*
X77457142Y-75533771D02*
X77457142Y-76333771D01*
X77457142Y-75571866D02*
X77533333Y-75533771D01*
X77685714Y-75533771D01*
X77761904Y-75571866D01*
X77800000Y-75609961D01*
X77838095Y-75686152D01*
X77838095Y-75914723D01*
X77800000Y-75990914D01*
X77761904Y-76029009D01*
X77685714Y-76067104D01*
X77533333Y-76067104D01*
X77457142Y-76029009D01*
X78295238Y-76067104D02*
X78219047Y-76029009D01*
X78180952Y-75990914D01*
X78142857Y-75914723D01*
X78142857Y-75686152D01*
X78180952Y-75609961D01*
X78219047Y-75571866D01*
X78295238Y-75533771D01*
X78409523Y-75533771D01*
X78485714Y-75571866D01*
X78523809Y-75609961D01*
X78561904Y-75686152D01*
X78561904Y-75914723D01*
X78523809Y-75990914D01*
X78485714Y-76029009D01*
X78409523Y-76067104D01*
X78295238Y-76067104D01*
X79247619Y-75533771D02*
X79247619Y-76067104D01*
X78904761Y-75533771D02*
X78904761Y-75952819D01*
X78942857Y-76029009D01*
X79019047Y-76067104D01*
X79133333Y-76067104D01*
X79209523Y-76029009D01*
X79247619Y-75990914D01*
X79514285Y-75533771D02*
X79819047Y-75533771D01*
X79628571Y-75267104D02*
X79628571Y-75952819D01*
X79666666Y-76029009D01*
X79742857Y-76067104D01*
X79819047Y-76067104D01*
X71648580Y-38851295D02*
X70648580Y-38851295D01*
X70648580Y-38613200D01*
X70696200Y-38470342D01*
X70791438Y-38375104D01*
X70886676Y-38327485D01*
X71077152Y-38279866D01*
X71220009Y-38279866D01*
X71410485Y-38327485D01*
X71505723Y-38375104D01*
X71600961Y-38470342D01*
X71648580Y-38613200D01*
X71648580Y-38851295D01*
X70648580Y-37946533D02*
X70648580Y-37327485D01*
X71029533Y-37660819D01*
X71029533Y-37517961D01*
X71077152Y-37422723D01*
X71124771Y-37375104D01*
X71220009Y-37327485D01*
X71458104Y-37327485D01*
X71553342Y-37375104D01*
X71600961Y-37422723D01*
X71648580Y-37517961D01*
X71648580Y-37803676D01*
X71600961Y-37898914D01*
X71553342Y-37946533D01*
X78573380Y-48842104D02*
X79382904Y-48842104D01*
X79478142Y-48794485D01*
X79525761Y-48746866D01*
X79573380Y-48651628D01*
X79573380Y-48461152D01*
X79525761Y-48365914D01*
X79478142Y-48318295D01*
X79382904Y-48270676D01*
X78573380Y-48270676D01*
X78573380Y-47889723D02*
X78573380Y-47270676D01*
X78954333Y-47604009D01*
X78954333Y-47461152D01*
X79001952Y-47365914D01*
X79049571Y-47318295D01*
X79144809Y-47270676D01*
X79382904Y-47270676D01*
X79478142Y-47318295D01*
X79525761Y-47365914D01*
X79573380Y-47461152D01*
X79573380Y-47746866D01*
X79525761Y-47842104D01*
X79478142Y-47889723D01*
X81732380Y-41296666D02*
X81256190Y-41630000D01*
X81732380Y-41868095D02*
X80732380Y-41868095D01*
X80732380Y-41487142D01*
X80780000Y-41391904D01*
X80827619Y-41344285D01*
X80922857Y-41296666D01*
X81065714Y-41296666D01*
X81160952Y-41344285D01*
X81208571Y-41391904D01*
X81256190Y-41487142D01*
X81256190Y-41868095D01*
X80732380Y-40391904D02*
X80732380Y-40868095D01*
X81208571Y-40915714D01*
X81160952Y-40868095D01*
X81113333Y-40772857D01*
X81113333Y-40534761D01*
X81160952Y-40439523D01*
X81208571Y-40391904D01*
X81303809Y-40344285D01*
X81541904Y-40344285D01*
X81637142Y-40391904D01*
X81684761Y-40439523D01*
X81732380Y-40534761D01*
X81732380Y-40772857D01*
X81684761Y-40868095D01*
X81637142Y-40915714D01*
X81783180Y-38851295D02*
X80783180Y-38851295D01*
X80783180Y-38613200D01*
X80830800Y-38470342D01*
X80926038Y-38375104D01*
X81021276Y-38327485D01*
X81211752Y-38279866D01*
X81354609Y-38279866D01*
X81545085Y-38327485D01*
X81640323Y-38375104D01*
X81735561Y-38470342D01*
X81783180Y-38613200D01*
X81783180Y-38851295D01*
X81783180Y-37327485D02*
X81783180Y-37898914D01*
X81783180Y-37613200D02*
X80783180Y-37613200D01*
X80926038Y-37708438D01*
X81021276Y-37803676D01*
X81068895Y-37898914D01*
X79411533Y-53018180D02*
X79078200Y-52541990D01*
X78840104Y-53018180D02*
X78840104Y-52018180D01*
X79221057Y-52018180D01*
X79316295Y-52065800D01*
X79363914Y-52113419D01*
X79411533Y-52208657D01*
X79411533Y-52351514D01*
X79363914Y-52446752D01*
X79316295Y-52494371D01*
X79221057Y-52541990D01*
X78840104Y-52541990D01*
X79744866Y-52018180D02*
X80363914Y-52018180D01*
X80030580Y-52399133D01*
X80173438Y-52399133D01*
X80268676Y-52446752D01*
X80316295Y-52494371D01*
X80363914Y-52589609D01*
X80363914Y-52827704D01*
X80316295Y-52922942D01*
X80268676Y-52970561D01*
X80173438Y-53018180D01*
X79887723Y-53018180D01*
X79792485Y-52970561D01*
X79744866Y-52922942D01*
D13*
X77776800Y-53187220D02*
X77776800Y-53468380D01*
X76756800Y-53187220D02*
X76756800Y-53468380D01*
X72881258Y-52703700D02*
X72406742Y-52703700D01*
X72881258Y-53748700D02*
X72406742Y-53748700D01*
X72265000Y-55805180D02*
X72265000Y-55524020D01*
X71245000Y-55805180D02*
X71245000Y-55524020D01*
X77767000Y-37352200D02*
X77467000Y-37352200D01*
X80267000Y-40652200D02*
X79967000Y-40652200D01*
X79967000Y-37352200D02*
X80267000Y-37352200D01*
X77467000Y-37352200D02*
X77467000Y-40652200D01*
X80267000Y-37352200D02*
X80267000Y-40652200D01*
X77467000Y-40652200D02*
X77767000Y-40652200D01*
X79866258Y-50214500D02*
X79391742Y-50214500D01*
X79866258Y-51259500D02*
X79391742Y-51259500D01*
X76672500Y-47872742D02*
X76672500Y-48347258D01*
X75627500Y-47872742D02*
X75627500Y-48347258D01*
X74043000Y-55805180D02*
X74043000Y-55524020D01*
X73023000Y-55805180D02*
X73023000Y-55524020D01*
G36*
X70515529Y-35930612D02*
G01*
X70560534Y-35971728D01*
X70575536Y-36008399D01*
X70551089Y-36065073D01*
X70522752Y-36119524D01*
X70513306Y-36189533D01*
X70525808Y-36261209D01*
X70563312Y-36331773D01*
X70632210Y-36387336D01*
X70679577Y-36404004D01*
X70732778Y-36409561D01*
X70785979Y-36404004D01*
X70833346Y-36387336D01*
X70903355Y-36330662D01*
X70940026Y-36261487D01*
X70952250Y-36189533D01*
X70943360Y-36124525D01*
X70925580Y-36080631D01*
X70911134Y-36060628D01*
X70888909Y-36007288D01*
X70904466Y-35971450D01*
X70951139Y-35932834D01*
X71013369Y-35908387D01*
X71052263Y-35923389D01*
X71080044Y-35958393D01*
X71103380Y-35996731D01*
X71132273Y-36071741D01*
X71145607Y-36127442D01*
X71150053Y-36181199D01*
X71146580Y-36234261D01*
X71136162Y-36287879D01*
X71117548Y-36342608D01*
X71089489Y-36399004D01*
X71053096Y-36453316D01*
X71009479Y-36501794D01*
X70955584Y-36543327D01*
X70888353Y-36576804D01*
X70811260Y-36598890D01*
X70727777Y-36606252D01*
X70645128Y-36599029D01*
X70570536Y-36577359D01*
X70506083Y-36544439D01*
X70453854Y-36503461D01*
X70411488Y-36455261D01*
X70376623Y-36400671D01*
X70343285Y-36327945D01*
X70323282Y-36254973D01*
X70316615Y-36181754D01*
X70320643Y-36129109D01*
X70332728Y-36075630D01*
X70365510Y-35993953D01*
X70381067Y-35967283D01*
X70401070Y-35936168D01*
X70453854Y-35907276D01*
X70515529Y-35930612D01*
G37*
G36*
X71078377Y-35148848D02*
G01*
X71107825Y-35159404D01*
X71130328Y-35188853D01*
X71137829Y-35246082D01*
X71127550Y-35307756D01*
X71096713Y-35337204D01*
X71038928Y-35343872D01*
X70813344Y-35343872D01*
X70813344Y-35638353D01*
X71040039Y-35638353D01*
X71078377Y-35640020D01*
X71107825Y-35650577D01*
X71130328Y-35680025D01*
X71137829Y-35737254D01*
X71127550Y-35798929D01*
X71096713Y-35828377D01*
X71038928Y-35835044D01*
X70422184Y-35835044D01*
X70383846Y-35833378D01*
X70354398Y-35822821D01*
X70331895Y-35793373D01*
X70324394Y-35736143D01*
X70334673Y-35674191D01*
X70365510Y-35643909D01*
X70423295Y-35638353D01*
X70649990Y-35638353D01*
X70649990Y-35343872D01*
X70422184Y-35343872D01*
X70383846Y-35342205D01*
X70354398Y-35331648D01*
X70331061Y-35301644D01*
X70324394Y-35248304D01*
X70329950Y-35197187D01*
X70343285Y-35168294D01*
X70365510Y-35152737D01*
X70423295Y-35147181D01*
X71040039Y-35147181D01*
X71078377Y-35148848D01*
G37*
G36*
X71053374Y-34384863D02*
G01*
X71095671Y-34437370D01*
X71125883Y-34501544D01*
X71144010Y-34577387D01*
X71150053Y-34664898D01*
X71142239Y-34744978D01*
X71118799Y-34819640D01*
X71079731Y-34888884D01*
X71025037Y-34952712D01*
X70959299Y-35006191D01*
X70887103Y-35044390D01*
X70808447Y-35067310D01*
X70723332Y-35074949D01*
X70638634Y-35067171D01*
X70561229Y-35043834D01*
X70491116Y-35004941D01*
X70428296Y-34950489D01*
X70376518Y-34885481D01*
X70339535Y-34814917D01*
X70317344Y-34738796D01*
X70309947Y-34657119D01*
X70319578Y-34571306D01*
X70348471Y-34488703D01*
X70396625Y-34409311D01*
X70446076Y-34379307D01*
X70508861Y-34404866D01*
X70553033Y-34446260D01*
X70567758Y-34483764D01*
X70537198Y-34551551D01*
X70514279Y-34602668D01*
X70506639Y-34662676D01*
X70521502Y-34742408D01*
X70566091Y-34812694D01*
X70634710Y-34861867D01*
X70721666Y-34878258D01*
X70782537Y-34870850D01*
X70836989Y-34848625D01*
X70885019Y-34811583D01*
X70935442Y-34740463D01*
X70952250Y-34660453D01*
X70947249Y-34602390D01*
X70932248Y-34550439D01*
X70811121Y-34550439D01*
X70811121Y-34638228D01*
X70802231Y-34687123D01*
X70776117Y-34706014D01*
X70729444Y-34710459D01*
X70682216Y-34705459D01*
X70657769Y-34687123D01*
X70647768Y-34633783D01*
X70647768Y-34438203D01*
X70678883Y-34364861D01*
X70741113Y-34353748D01*
X70985587Y-34353748D01*
X71053374Y-34384863D01*
G37*
X70591400Y-42026200D02*
X70591400Y-45936200D01*
X72461400Y-42026200D02*
X70591400Y-42026200D01*
X72461400Y-45936200D02*
X72461400Y-42026200D01*
X77050000Y-41918200D02*
X77050000Y-38768200D01*
X75350000Y-41918200D02*
X75350000Y-38768200D01*
X75350000Y-41918200D02*
X77050000Y-41918200D01*
X77760000Y-34938200D02*
X77760000Y-34138200D01*
X74640000Y-34938200D02*
X74640000Y-34138200D01*
X77760000Y-34938200D02*
X77760000Y-35738200D01*
X74640000Y-34938200D02*
X74640000Y-35738200D01*
D14*
X75387200Y-37224200D02*
G75*
G03*
X75387200Y-37224200I-203200J0D01*
G01*
D13*
X72433000Y-37352200D02*
X72133000Y-37352200D01*
X72133000Y-40652200D02*
X72433000Y-40652200D01*
X74633000Y-37352200D02*
X74933000Y-37352200D01*
X74933000Y-37352200D02*
X74933000Y-40652200D01*
X72133000Y-37352200D02*
X72133000Y-40652200D01*
X74933000Y-40652200D02*
X74633000Y-40652200D01*
X79518742Y-32891700D02*
X79993258Y-32891700D01*
X79518742Y-33936700D02*
X79993258Y-33936700D01*
G36*
X75994486Y-56835130D02*
G01*
X75982267Y-56917504D01*
X75962032Y-56998283D01*
X75933978Y-57076690D01*
X75898373Y-57151970D01*
X75855562Y-57223397D01*
X75805955Y-57290284D01*
X75750031Y-57351987D01*
X75688328Y-57407911D01*
X75621441Y-57457517D01*
X75550014Y-57500329D01*
X75474734Y-57535934D01*
X75396327Y-57563988D01*
X75315548Y-57584222D01*
X75233175Y-57596441D01*
X75150000Y-57600528D01*
X75066825Y-57596441D01*
X74984452Y-57584222D01*
X74903673Y-57563988D01*
X74825266Y-57535934D01*
X74749986Y-57500329D01*
X74678559Y-57457517D01*
X74611672Y-57407911D01*
X74549969Y-57351987D01*
X74494045Y-57290284D01*
X74444438Y-57223397D01*
X74401627Y-57151970D01*
X74366022Y-57076690D01*
X74337968Y-56998283D01*
X74317733Y-56917504D01*
X74305514Y-56835130D01*
X74301428Y-56751956D01*
X74301428Y-56640090D01*
X74828055Y-56640090D01*
X74835993Y-56704543D01*
X74859805Y-56737880D01*
X74892190Y-56749945D01*
X74934735Y-56751850D01*
X75384315Y-56751850D01*
X75428130Y-56749945D01*
X75461785Y-56739150D01*
X75487503Y-56705813D01*
X75496075Y-56641360D01*
X75487503Y-56576273D01*
X75461785Y-56543570D01*
X75429400Y-56531505D01*
X75385585Y-56529600D01*
X75160795Y-56529600D01*
X75080785Y-56498485D01*
X75050305Y-56417205D01*
X75079515Y-56337195D01*
X75160795Y-56307350D01*
X75384315Y-56307350D01*
X75449085Y-56299730D01*
X75484327Y-56266710D01*
X75496075Y-56195590D01*
X75487503Y-56130185D01*
X75461785Y-56096530D01*
X75429400Y-56085735D01*
X75385585Y-56083830D01*
X75162065Y-56083830D01*
X75073659Y-56093214D01*
X74994707Y-56121366D01*
X74925210Y-56168285D01*
X74871235Y-56229316D01*
X74838850Y-56299801D01*
X74828055Y-56379740D01*
X74857265Y-56474990D01*
X74883935Y-56509280D01*
X74909335Y-56532140D01*
X74857265Y-56544840D01*
X74835357Y-56577543D01*
X74828055Y-56640090D01*
X74301428Y-56640090D01*
X74301428Y-55869200D01*
X74566435Y-55869200D01*
X74575007Y-55934605D01*
X74600725Y-55968260D01*
X74634380Y-55980325D01*
X74678195Y-55982230D01*
X75383045Y-55982230D01*
X75449085Y-55974610D01*
X75484327Y-55940955D01*
X75496075Y-55870470D01*
X75487503Y-55805065D01*
X75461785Y-55771410D01*
X75428130Y-55759345D01*
X75384315Y-55757440D01*
X75240805Y-55757440D01*
X75240805Y-55597420D01*
X75238265Y-55558050D01*
X75355246Y-55508661D01*
X75431869Y-55475641D01*
X75468135Y-55458990D01*
X75492900Y-55435495D01*
X75504965Y-55394855D01*
X75487185Y-55329450D01*
X75450355Y-55270395D01*
X75405905Y-55250710D01*
X75339865Y-55269760D01*
X75259008Y-55305320D01*
X75192545Y-55334107D01*
X75140475Y-55356120D01*
X75073024Y-55303203D01*
X74994284Y-55271453D01*
X74904255Y-55260870D01*
X74825515Y-55269125D01*
X74754395Y-55293890D01*
X74694070Y-55331355D01*
X74647715Y-55377710D01*
X74602559Y-55448689D01*
X74575466Y-55521079D01*
X74566435Y-55594880D01*
X74566435Y-55869200D01*
X74301428Y-55869200D01*
X74301428Y-55065290D01*
X74566435Y-55065290D01*
X74589930Y-55156730D01*
X74678195Y-55180860D01*
X75384315Y-55180860D01*
X75449085Y-55173240D01*
X75485280Y-55139585D01*
X75497345Y-55069100D01*
X75488773Y-55003695D01*
X75463055Y-54970040D01*
X75430035Y-54957975D01*
X75385585Y-54956070D01*
X75145555Y-54956070D01*
X75145555Y-54707150D01*
X75139205Y-54642380D01*
X75104598Y-54606185D01*
X75033795Y-54594120D01*
X74968073Y-54602375D01*
X74933465Y-54627140D01*
X74921400Y-54660795D01*
X74919495Y-54705880D01*
X74919495Y-54956070D01*
X74791225Y-54956070D01*
X74791225Y-54567450D01*
X74789320Y-54522365D01*
X74777890Y-54488710D01*
X74744235Y-54462040D01*
X74679465Y-54454420D01*
X74614695Y-54462040D01*
X74580405Y-54488075D01*
X74568340Y-54521095D01*
X74566435Y-54564910D01*
X74566435Y-55065290D01*
X74301428Y-55065290D01*
X74301428Y-54274080D01*
X74828055Y-54274080D01*
X74836627Y-54329008D01*
X74862345Y-54359170D01*
X74894095Y-54369965D01*
X74937275Y-54371870D01*
X75678955Y-54371870D01*
X75722135Y-54369965D01*
X75753885Y-54358535D01*
X75779285Y-54325515D01*
X75786905Y-54262650D01*
X75779285Y-54200420D01*
X75753250Y-54168035D01*
X75720865Y-54156605D01*
X75677685Y-54154700D01*
X75421145Y-54154700D01*
X75464960Y-54093423D01*
X75479565Y-54003570D01*
X75468699Y-53935484D01*
X75436103Y-53870079D01*
X75381775Y-53807355D01*
X75313054Y-53756202D01*
X75237277Y-53725511D01*
X75154445Y-53715280D01*
X75071613Y-53725581D01*
X74995836Y-53756484D01*
X74927115Y-53807990D01*
X74872787Y-53870996D01*
X74840191Y-53936401D01*
X74829325Y-54004205D01*
X74845835Y-54093899D01*
X74895365Y-54155970D01*
X74845200Y-54183275D01*
X74828055Y-54274080D01*
X74301428Y-54274080D01*
X74301428Y-53520970D01*
X74515635Y-53520970D01*
X74524207Y-53586375D01*
X74549925Y-53620030D01*
X74582310Y-53630825D01*
X74626125Y-53632730D01*
X74669940Y-53630825D01*
X74703595Y-53619395D01*
X74730265Y-53585740D01*
X74737885Y-53521605D01*
X74737810Y-53520970D01*
X74829325Y-53520970D01*
X74829405Y-53521605D01*
X74837580Y-53586375D01*
X74862345Y-53620030D01*
X74896000Y-53630825D01*
X74939815Y-53632730D01*
X75385585Y-53632730D01*
X75430035Y-53630825D01*
X75463055Y-53620030D01*
X75488773Y-53586692D01*
X75497345Y-53522240D01*
X75489090Y-53457152D01*
X75464325Y-53424450D01*
X75430670Y-53412385D01*
X75386855Y-53410480D01*
X74942355Y-53410480D01*
X74905525Y-53411750D01*
X74850915Y-53434610D01*
X74829325Y-53520970D01*
X74737810Y-53520970D01*
X74730265Y-53457470D01*
X74704230Y-53423815D01*
X74671210Y-53412385D01*
X74627395Y-53410480D01*
X74583580Y-53412385D01*
X74549925Y-53424450D01*
X74524207Y-53456835D01*
X74515635Y-53520970D01*
X74301428Y-53520970D01*
X74301428Y-53197120D01*
X74513095Y-53197120D01*
X74521667Y-53262525D01*
X74547385Y-53296180D01*
X74581040Y-53306975D01*
X74624855Y-53308880D01*
X75229375Y-53308880D01*
X75346850Y-53299990D01*
X75427495Y-53273320D01*
X75469723Y-53226965D01*
X75492265Y-53146320D01*
X75497980Y-53044720D01*
X75484645Y-52988840D01*
X75451307Y-52969790D01*
X75386855Y-52963440D01*
X75296685Y-52988840D01*
X75285890Y-53010430D01*
X75283985Y-53045355D01*
X75271920Y-53079010D01*
X75214135Y-53086630D01*
X74626125Y-53086630D01*
X74581675Y-53088535D01*
X74547385Y-53100600D01*
X74521667Y-53134255D01*
X74513095Y-53197120D01*
X74301428Y-53197120D01*
X74301428Y-52781830D01*
X74513095Y-52781830D01*
X74521667Y-52847235D01*
X74547385Y-52880890D01*
X74581040Y-52891685D01*
X74624855Y-52893590D01*
X75229375Y-52893590D01*
X75346850Y-52884700D01*
X75427495Y-52858030D01*
X75469723Y-52811675D01*
X75492265Y-52731030D01*
X75497980Y-52629430D01*
X75484645Y-52573550D01*
X75451307Y-52554500D01*
X75386855Y-52548150D01*
X75296685Y-52573550D01*
X75285890Y-52595140D01*
X75283985Y-52630065D01*
X75271920Y-52663720D01*
X75214135Y-52671340D01*
X74626125Y-52671340D01*
X74581675Y-52673245D01*
X74547385Y-52685310D01*
X74521667Y-52718965D01*
X74513095Y-52781830D01*
X74301428Y-52781830D01*
X74301428Y-52548044D01*
X74305514Y-52464870D01*
X74317733Y-52382496D01*
X74337968Y-52301717D01*
X74366022Y-52223310D01*
X74401627Y-52148030D01*
X74444438Y-52076603D01*
X74494045Y-52009716D01*
X74549969Y-51948013D01*
X74611672Y-51892089D01*
X74678559Y-51842483D01*
X74749986Y-51799671D01*
X74825266Y-51764066D01*
X74903673Y-51736012D01*
X74984452Y-51715778D01*
X75066825Y-51703559D01*
X75150000Y-51699472D01*
X75233175Y-51703559D01*
X75315548Y-51715778D01*
X75396327Y-51736012D01*
X75474734Y-51764066D01*
X75550014Y-51799671D01*
X75621441Y-51842483D01*
X75688328Y-51892089D01*
X75750031Y-51948013D01*
X75805955Y-52009716D01*
X75855562Y-52076603D01*
X75898373Y-52148030D01*
X75933978Y-52223310D01*
X75962032Y-52301717D01*
X75982267Y-52382496D01*
X75994486Y-52464870D01*
X75998572Y-52548044D01*
X75998572Y-56751956D01*
X75994486Y-56835130D01*
G37*
G36*
X75230645Y-53964835D02*
G01*
X75263665Y-54043575D01*
X75230010Y-54119775D01*
X75155715Y-54149620D01*
X75080785Y-54120410D01*
X75046495Y-54042305D01*
X75080150Y-53962930D01*
X75155715Y-53932450D01*
X75230645Y-53964835D01*
G37*
G36*
X74988075Y-55521220D02*
G01*
X75016015Y-55594880D01*
X75016015Y-55757440D01*
X74791225Y-55757440D01*
X74791225Y-55597420D01*
X74819800Y-55521220D01*
X74904255Y-55484390D01*
X74988075Y-55521220D01*
G37*
G36*
X82628618Y-55945274D02*
G01*
X82618365Y-56014394D01*
X82601386Y-56082177D01*
X82577845Y-56147969D01*
X82547969Y-56211137D01*
X82512045Y-56271073D01*
X82470420Y-56327198D01*
X82423493Y-56378974D01*
X82371718Y-56425900D01*
X82315592Y-56467526D01*
X82255656Y-56503450D01*
X82192488Y-56533326D01*
X82126696Y-56556867D01*
X82058913Y-56573846D01*
X81989793Y-56584099D01*
X81920000Y-56587527D01*
X81850207Y-56584099D01*
X81781087Y-56573846D01*
X81713304Y-56556867D01*
X81647512Y-56533326D01*
X81584344Y-56503450D01*
X81524408Y-56467526D01*
X81468282Y-56425900D01*
X81416507Y-56378974D01*
X81369580Y-56327198D01*
X81327955Y-56271073D01*
X81292031Y-56211137D01*
X81262155Y-56147969D01*
X81238614Y-56082177D01*
X81221635Y-56014394D01*
X81211382Y-55945274D01*
X81207953Y-55875481D01*
X81207953Y-55763615D01*
X81419620Y-55763615D01*
X81428192Y-55829020D01*
X81453910Y-55862675D01*
X81487565Y-55873470D01*
X81531380Y-55875375D01*
X82292110Y-55875375D01*
X82335925Y-55873470D01*
X82369580Y-55862675D01*
X82395298Y-55829337D01*
X82403870Y-55764885D01*
X82395615Y-55699797D01*
X82370850Y-55667095D01*
X82337195Y-55655030D01*
X82293380Y-55653125D01*
X82195590Y-55653125D01*
X82229721Y-55614072D01*
X82281315Y-55560415D01*
X82332591Y-55507392D01*
X82365770Y-55470245D01*
X82374660Y-55457545D01*
X82411490Y-55380075D01*
X82358150Y-55303875D01*
X82275600Y-55264505D01*
X82248930Y-55272760D01*
X82208290Y-55312765D01*
X82068590Y-55481675D01*
X81961910Y-55355945D01*
X81893330Y-55308955D01*
X81812685Y-55350230D01*
X81761250Y-55423255D01*
X81795540Y-55499455D01*
X81805700Y-55514695D01*
X81935240Y-55653125D01*
X81532650Y-55653125D01*
X81497090Y-55654395D01*
X81441210Y-55677255D01*
X81419620Y-55763615D01*
X81207953Y-55763615D01*
X81207953Y-55082895D01*
X81422160Y-55082895D01*
X81430733Y-55148300D01*
X81456450Y-55181955D01*
X81488835Y-55192750D01*
X81532650Y-55194655D01*
X81576465Y-55192750D01*
X81610120Y-55181320D01*
X81636790Y-55147665D01*
X81644410Y-55083530D01*
X81644335Y-55082895D01*
X81735850Y-55082895D01*
X81735930Y-55083530D01*
X81744105Y-55148300D01*
X81768870Y-55181955D01*
X81802525Y-55192750D01*
X81846340Y-55194655D01*
X82292110Y-55194655D01*
X82336560Y-55192750D01*
X82369580Y-55181955D01*
X82395298Y-55148617D01*
X82403870Y-55084165D01*
X82395615Y-55019077D01*
X82370850Y-54986375D01*
X82337195Y-54974310D01*
X82293380Y-54972405D01*
X81848880Y-54972405D01*
X81812050Y-54973675D01*
X81757440Y-54996535D01*
X81735850Y-55082895D01*
X81644335Y-55082895D01*
X81636790Y-55019395D01*
X81610755Y-54985740D01*
X81577735Y-54974310D01*
X81533920Y-54972405D01*
X81490105Y-54974310D01*
X81456450Y-54986375D01*
X81430733Y-55018760D01*
X81422160Y-55082895D01*
X81207953Y-55082895D01*
X81207953Y-54527905D01*
X81720610Y-54527905D01*
X81731264Y-54625483D01*
X81763226Y-54711632D01*
X81816495Y-54786350D01*
X81887544Y-54843853D01*
X81972846Y-54878354D01*
X82072400Y-54889855D01*
X82154386Y-54880965D01*
X82231009Y-54854295D01*
X82302270Y-54809845D01*
X82350371Y-54761109D01*
X82387995Y-54696180D01*
X82412284Y-54617916D01*
X82420380Y-54529175D01*
X82413316Y-54410827D01*
X82392122Y-54326292D01*
X82356801Y-54275572D01*
X82307350Y-54258665D01*
X82248930Y-54275175D01*
X82191780Y-54345025D01*
X82205750Y-54395825D01*
X82210830Y-54409795D01*
X82222260Y-54459642D01*
X82226070Y-54525365D01*
X82201940Y-54609185D01*
X82142250Y-54651095D01*
X82142250Y-54350105D01*
X82104785Y-54264380D01*
X82057160Y-54235329D01*
X81989215Y-54225645D01*
X81914126Y-54236440D01*
X81845070Y-54268825D01*
X81790619Y-54315974D01*
X81751725Y-54374870D01*
X81728389Y-54445514D01*
X81720610Y-54527905D01*
X81207953Y-54527905D01*
X81207953Y-54031335D01*
X81734580Y-54031335D01*
X81742518Y-54095787D01*
X81766330Y-54129125D01*
X81798715Y-54141190D01*
X81841260Y-54143095D01*
X82290840Y-54143095D01*
X82334655Y-54141190D01*
X82368310Y-54130395D01*
X82394028Y-54097057D01*
X82402600Y-54032605D01*
X82394028Y-53967517D01*
X82368310Y-53934815D01*
X82335925Y-53922750D01*
X82292110Y-53920845D01*
X82067320Y-53920845D01*
X81987310Y-53889730D01*
X81956830Y-53808450D01*
X81986040Y-53728440D01*
X82067320Y-53698595D01*
X82290840Y-53698595D01*
X82355610Y-53690975D01*
X82390852Y-53657955D01*
X82402600Y-53586835D01*
X82394028Y-53521430D01*
X82368310Y-53487775D01*
X82335925Y-53476980D01*
X82292110Y-53475075D01*
X82068590Y-53475075D01*
X81980184Y-53484459D01*
X81901232Y-53512611D01*
X81831735Y-53559530D01*
X81777760Y-53620561D01*
X81745375Y-53691046D01*
X81734580Y-53770985D01*
X81763790Y-53866235D01*
X81790460Y-53900525D01*
X81815860Y-53923385D01*
X81763790Y-53936085D01*
X81741883Y-53968787D01*
X81734580Y-54031335D01*
X81207953Y-54031335D01*
X81207953Y-53050260D01*
X81458990Y-53050260D01*
X81470632Y-53145792D01*
X81505557Y-53228342D01*
X81563765Y-53297910D01*
X81636649Y-53350474D01*
X81715601Y-53382012D01*
X81800620Y-53392525D01*
X81865390Y-53386175D01*
X81901585Y-53351567D01*
X81913650Y-53280765D01*
X81906030Y-53215995D01*
X81883170Y-53181705D01*
X81851420Y-53169640D01*
X81809510Y-53167735D01*
X81801890Y-53167735D01*
X81772680Y-53162655D01*
X81713625Y-53129000D01*
X81683780Y-53058515D01*
X81695210Y-52995015D01*
X81719975Y-52961360D01*
X81754265Y-52941675D01*
X81786650Y-52932785D01*
X81842213Y-52944691D01*
X81894600Y-52980410D01*
X81942701Y-53032956D01*
X81985405Y-53095345D01*
X82025727Y-53162655D01*
X82066685Y-53229965D01*
X82112088Y-53292354D01*
X82165745Y-53344900D01*
X82226229Y-53380619D01*
X82292110Y-53392525D01*
X82372120Y-53359505D01*
X82406410Y-53280765D01*
X82406410Y-52784195D01*
X82391170Y-52705455D01*
X82358150Y-52678150D01*
X82294015Y-52669895D01*
X82229245Y-52677515D01*
X82192415Y-52707360D01*
X82180350Y-52781655D01*
X82180350Y-53014065D01*
X82174000Y-53014065D01*
X82161300Y-52982315D01*
X82118438Y-52903575D01*
X82048270Y-52814675D01*
X82002550Y-52773400D01*
X81944130Y-52738475D01*
X81877455Y-52714662D01*
X81806970Y-52706725D01*
X81719693Y-52717308D01*
X81639048Y-52749058D01*
X81565035Y-52801975D01*
X81506121Y-52871896D01*
X81470773Y-52954657D01*
X81458990Y-53050260D01*
X81207953Y-53050260D01*
X81207953Y-52442565D01*
X81467880Y-52442565D01*
X81481850Y-52486380D01*
X81511060Y-52509240D01*
X81555510Y-52522575D01*
X81980960Y-52627985D01*
X82031760Y-52631795D01*
X82086370Y-52625445D01*
X82122565Y-52590837D01*
X82134630Y-52520035D01*
X82134630Y-52175865D01*
X82289570Y-52175865D01*
X82355610Y-52168245D01*
X82381010Y-52151735D01*
X82396250Y-52118715D01*
X82402600Y-52060295D01*
X82394980Y-51998700D01*
X82363865Y-51961870D01*
X82290840Y-51949805D01*
X81584720Y-51949805D01*
X81540270Y-51951710D01*
X81506615Y-51963775D01*
X81479945Y-51998065D01*
X81471690Y-52062200D01*
X81478675Y-52126970D01*
X81503440Y-52161895D01*
X81535190Y-52173960D01*
X81578370Y-52175865D01*
X81925080Y-52175865D01*
X81925080Y-52382875D01*
X81615200Y-52305405D01*
X81611390Y-52304135D01*
X81558050Y-52295245D01*
X81509155Y-52317470D01*
X81476770Y-52384145D01*
X81467880Y-52442565D01*
X81207953Y-52442565D01*
X81207953Y-51524990D01*
X81458990Y-51524990D01*
X81470632Y-51620522D01*
X81505557Y-51703072D01*
X81563765Y-51772640D01*
X81636649Y-51825204D01*
X81715601Y-51856742D01*
X81800620Y-51867255D01*
X81865390Y-51860905D01*
X81901585Y-51826297D01*
X81913650Y-51755495D01*
X81906030Y-51690725D01*
X81883170Y-51656435D01*
X81851420Y-51644370D01*
X81809510Y-51642465D01*
X81801890Y-51642465D01*
X81772680Y-51637385D01*
X81713625Y-51603730D01*
X81683780Y-51533245D01*
X81695210Y-51469745D01*
X81719975Y-51436090D01*
X81754265Y-51416405D01*
X81786650Y-51407515D01*
X81842213Y-51419421D01*
X81894600Y-51455140D01*
X81942701Y-51507686D01*
X81985405Y-51570075D01*
X82025727Y-51637385D01*
X82066685Y-51704695D01*
X82112088Y-51767084D01*
X82165745Y-51819630D01*
X82226229Y-51855349D01*
X82292110Y-51867255D01*
X82372120Y-51834235D01*
X82406410Y-51755495D01*
X82406410Y-51258925D01*
X82391170Y-51180185D01*
X82358150Y-51152880D01*
X82294015Y-51144625D01*
X82229245Y-51152245D01*
X82192415Y-51182090D01*
X82180350Y-51256385D01*
X82180350Y-51488795D01*
X82174000Y-51488795D01*
X82161300Y-51457045D01*
X82118438Y-51378305D01*
X82048270Y-51289405D01*
X82002550Y-51248130D01*
X81944130Y-51213205D01*
X81877455Y-51189392D01*
X81806970Y-51181455D01*
X81719693Y-51192038D01*
X81639048Y-51223788D01*
X81565035Y-51276705D01*
X81506121Y-51346626D01*
X81470773Y-51429387D01*
X81458990Y-51524990D01*
X81207953Y-51524990D01*
X81207953Y-51144519D01*
X81211382Y-51074726D01*
X81221635Y-51005606D01*
X81238614Y-50937823D01*
X81262155Y-50872031D01*
X81292031Y-50808863D01*
X81327955Y-50748927D01*
X81369581Y-50692802D01*
X81416507Y-50641026D01*
X81468282Y-50594100D01*
X81524408Y-50552474D01*
X81584344Y-50516550D01*
X81647512Y-50486674D01*
X81713304Y-50463133D01*
X81781087Y-50446154D01*
X81850207Y-50435901D01*
X81920000Y-50432473D01*
X81989793Y-50435901D01*
X82058913Y-50446154D01*
X82126696Y-50463133D01*
X82192488Y-50486674D01*
X82255656Y-50516550D01*
X82315592Y-50552474D01*
X82371718Y-50594100D01*
X82423493Y-50641026D01*
X82470419Y-50692802D01*
X82512045Y-50748927D01*
X82547969Y-50808863D01*
X82577845Y-50872031D01*
X82601386Y-50937823D01*
X82618365Y-51005606D01*
X82628618Y-51074726D01*
X82632047Y-51144519D01*
X82632047Y-55875481D01*
X82628618Y-55945274D01*
G37*
G36*
X82026680Y-54493615D02*
G01*
X82026680Y-54653635D01*
X81954925Y-54612995D01*
X81921270Y-54531080D01*
X81939050Y-54467580D01*
X81986040Y-54445355D01*
X82026680Y-54493615D01*
G37*
X72279742Y-32891700D02*
X72754258Y-32891700D01*
X72279742Y-33936700D02*
X72754258Y-33936700D01*
G36*
X72198382Y-34738447D02*
G01*
X72266585Y-34783869D01*
X72313674Y-34851795D01*
X72329371Y-34934444D01*
X72313257Y-35016815D01*
X72264918Y-35083907D01*
X72196576Y-35128496D01*
X72120456Y-35143359D01*
X72012664Y-35143359D01*
X72012664Y-34723306D01*
X72119344Y-34723306D01*
X72198382Y-34738447D01*
G37*
G36*
X71757099Y-35536817D02*
G01*
X71698884Y-35528181D01*
X71641795Y-35513882D01*
X71586384Y-35494055D01*
X71533182Y-35468892D01*
X71482703Y-35438636D01*
X71435432Y-35403578D01*
X71391825Y-35364055D01*
X71352303Y-35320449D01*
X71317244Y-35273178D01*
X71298047Y-35241149D01*
X71815973Y-35241149D01*
X71829308Y-35312269D01*
X71858756Y-35333105D01*
X71913763Y-35340050D01*
X72117122Y-35340050D01*
X72198972Y-35332480D01*
X72274503Y-35309768D01*
X72343713Y-35271916D01*
X72378908Y-35242260D01*
X72598293Y-35242260D01*
X72604961Y-35298934D01*
X72634409Y-35330604D01*
X72696083Y-35341161D01*
X72753312Y-35333660D01*
X72782761Y-35311158D01*
X72793317Y-35282265D01*
X72794984Y-35243371D01*
X72794984Y-35033345D01*
X73012789Y-35033345D01*
X73069463Y-35027789D01*
X73101134Y-34997507D01*
X73107714Y-34958891D01*
X73306159Y-34958891D01*
X73311785Y-35031400D01*
X73328662Y-35100020D01*
X73356791Y-35164750D01*
X73396171Y-35225591D01*
X73446038Y-35277820D01*
X73508962Y-35318936D01*
X73582305Y-35345606D01*
X73663426Y-35354496D01*
X73744686Y-35345745D01*
X73818446Y-35319492D01*
X73882065Y-35279070D01*
X73932904Y-35227814D01*
X73972770Y-35166139D01*
X74001246Y-35101131D01*
X74018332Y-35032789D01*
X74024027Y-34961114D01*
X74024027Y-34625516D01*
X74017359Y-34567731D01*
X74002913Y-34544395D01*
X73974021Y-34531060D01*
X73923459Y-34525504D01*
X73870674Y-34532171D01*
X73838448Y-34556619D01*
X73827336Y-34617737D01*
X73827336Y-34957780D01*
X73817334Y-35031956D01*
X73787331Y-35096686D01*
X73737047Y-35141692D01*
X73666204Y-35156694D01*
X73587306Y-35137803D01*
X73537299Y-35087796D01*
X73512296Y-35025011D01*
X73503962Y-34958891D01*
X73503962Y-34625516D01*
X73490627Y-34555507D01*
X73461734Y-34532171D01*
X73405061Y-34525504D01*
X73348387Y-34532171D01*
X73318383Y-34555507D01*
X73307826Y-34584956D01*
X73306159Y-34624405D01*
X73306159Y-34958891D01*
X73107714Y-34958891D01*
X73111691Y-34935555D01*
X73104467Y-34878048D01*
X73082798Y-34847766D01*
X73053350Y-34837209D01*
X73013901Y-34835542D01*
X72794984Y-34835542D01*
X72794984Y-34723306D01*
X73135027Y-34723306D01*
X73174476Y-34721639D01*
X73203924Y-34711638D01*
X73227261Y-34682190D01*
X73233928Y-34625516D01*
X73227261Y-34568842D01*
X73204480Y-34538839D01*
X73175587Y-34528282D01*
X73137249Y-34526615D01*
X72699417Y-34526615D01*
X72619407Y-34547173D01*
X72598293Y-34624405D01*
X72598293Y-35242260D01*
X72378908Y-35242260D01*
X72406602Y-35218924D01*
X72458866Y-35155339D01*
X72496197Y-35085713D01*
X72518596Y-35010043D01*
X72526062Y-34928332D01*
X72518422Y-34846933D01*
X72495502Y-34772201D01*
X72457303Y-34704137D01*
X72403824Y-34642741D01*
X72340275Y-34591936D01*
X72271863Y-34555646D01*
X72198590Y-34533873D01*
X72120456Y-34526615D01*
X71914874Y-34525504D01*
X71857645Y-34533005D01*
X71828197Y-34555507D01*
X71817640Y-34584400D01*
X71815973Y-34623294D01*
X71815973Y-35241149D01*
X71298047Y-35241149D01*
X71286988Y-35222699D01*
X71261826Y-35169497D01*
X71241999Y-35114085D01*
X71227699Y-35056997D01*
X71219064Y-34998781D01*
X71216176Y-34940000D01*
X71219064Y-34881219D01*
X71227699Y-34823003D01*
X71241999Y-34765915D01*
X71261826Y-34710503D01*
X71286988Y-34657301D01*
X71317244Y-34606822D01*
X71352303Y-34559551D01*
X71391825Y-34515945D01*
X71435432Y-34476422D01*
X71482703Y-34441364D01*
X71533182Y-34411108D01*
X71586384Y-34385945D01*
X71641795Y-34366118D01*
X71698884Y-34351819D01*
X71757099Y-34343183D01*
X71815881Y-34340295D01*
X74024119Y-34340295D01*
X74082901Y-34343183D01*
X74141116Y-34351819D01*
X74198205Y-34366118D01*
X74253616Y-34385945D01*
X74306818Y-34411108D01*
X74357297Y-34441364D01*
X74404568Y-34476422D01*
X74448175Y-34515945D01*
X74487697Y-34559551D01*
X74522756Y-34606822D01*
X74553012Y-34657301D01*
X74578174Y-34710503D01*
X74598001Y-34765915D01*
X74612301Y-34823003D01*
X74620936Y-34881219D01*
X74623824Y-34940000D01*
X74620936Y-34998781D01*
X74612301Y-35056997D01*
X74598001Y-35114085D01*
X74578174Y-35169497D01*
X74553012Y-35222699D01*
X74522756Y-35273178D01*
X74487697Y-35320449D01*
X74448175Y-35364055D01*
X74404568Y-35403578D01*
X74357297Y-35438636D01*
X74306818Y-35468892D01*
X74253616Y-35494055D01*
X74198205Y-35513882D01*
X74141116Y-35528181D01*
X74082901Y-35536817D01*
X74024119Y-35539705D01*
X71815881Y-35539705D01*
X71757099Y-35536817D01*
G37*
X72989000Y-44590200D02*
X72989000Y-43790200D01*
X72989000Y-44590200D02*
X72989000Y-45390200D01*
X76109000Y-44590200D02*
X76109000Y-45390200D01*
X76109000Y-44590200D02*
X76109000Y-43790200D01*
D15*
X75717400Y-42355000D02*
G75*
G03*
X75717400Y-42355000I-203200J0D01*
G01*
D13*
X72390000Y-52246200D02*
X71740000Y-52246200D01*
X72390000Y-49126200D02*
X71740000Y-49126200D01*
X72390000Y-49126200D02*
X73040000Y-49126200D01*
X72390000Y-52246200D02*
X74065000Y-52246200D01*
G36*
X78320505Y-35541793D02*
G01*
X78261804Y-35533086D01*
X78204239Y-35518667D01*
X78148365Y-35498675D01*
X78094720Y-35473302D01*
X78043820Y-35442794D01*
X77996155Y-35407443D01*
X77952185Y-35367591D01*
X77912333Y-35323621D01*
X77876982Y-35275956D01*
X77860449Y-35248372D01*
X78379869Y-35248372D01*
X78386536Y-35306157D01*
X78415984Y-35336994D01*
X78477659Y-35347273D01*
X78534888Y-35339772D01*
X78564336Y-35317269D01*
X78574893Y-35287821D01*
X78576560Y-35249483D01*
X78576560Y-35123912D01*
X78716577Y-35123912D01*
X78751026Y-35121689D01*
X78794242Y-35224048D01*
X78823134Y-35291093D01*
X78837704Y-35322826D01*
X78858262Y-35344495D01*
X78893822Y-35355052D01*
X78951051Y-35339494D01*
X79002724Y-35307268D01*
X79019949Y-35268374D01*
X79003280Y-35210589D01*
X78985442Y-35170029D01*
X79064399Y-35170029D01*
X79093291Y-35233926D01*
X79103292Y-35246149D01*
X79135519Y-35280043D01*
X79185525Y-35315047D01*
X79261090Y-35346717D01*
X79309152Y-35356302D01*
X79359991Y-35359497D01*
X79426790Y-35352953D01*
X79490872Y-35333321D01*
X79552237Y-35300601D01*
X79594465Y-35264346D01*
X79627802Y-35215590D01*
X79649472Y-35156277D01*
X79656695Y-35088352D01*
X79649611Y-35021816D01*
X79628358Y-34966670D01*
X79596549Y-34924581D01*
X79557794Y-34897217D01*
X79513622Y-34878742D01*
X79465560Y-34863324D01*
X79417498Y-34851239D01*
X79373326Y-34842766D01*
X79302762Y-34817207D01*
X79274425Y-34767756D01*
X79298317Y-34719972D01*
X79358324Y-34702748D01*
X79417776Y-34717194D01*
X79435001Y-34731641D01*
X79447780Y-34742753D01*
X79505565Y-34764978D01*
X79545014Y-34751088D01*
X79583352Y-34709416D01*
X79610022Y-34648297D01*
X79587525Y-34612737D01*
X79701145Y-34612737D01*
X79706701Y-34659409D01*
X79728926Y-34685524D01*
X79781155Y-34693858D01*
X79994515Y-34693858D01*
X79994515Y-35251706D01*
X79996182Y-35290044D01*
X80006183Y-35318936D01*
X80035076Y-35341717D01*
X80090082Y-35348384D01*
X80145645Y-35341717D01*
X80175093Y-35318936D01*
X80185094Y-35290599D01*
X80186761Y-35252817D01*
X80186761Y-34693858D01*
X80399010Y-34693858D01*
X80455684Y-34683857D01*
X80474575Y-34659965D01*
X80480131Y-34613848D01*
X80474575Y-34567176D01*
X80452350Y-34541061D01*
X80400121Y-34532727D01*
X79782266Y-34532727D01*
X79725592Y-34542728D01*
X79706701Y-34566620D01*
X79701145Y-34612737D01*
X79587525Y-34612737D01*
X79575574Y-34593846D01*
X79547792Y-34572732D01*
X79471672Y-34537727D01*
X79413748Y-34524809D01*
X79349990Y-34520503D01*
X79272141Y-34528591D01*
X79206021Y-34552853D01*
X79151632Y-34593290D01*
X79111195Y-34644593D01*
X79086932Y-34701452D01*
X79078845Y-34763867D01*
X79085929Y-34829847D01*
X79107182Y-34885549D01*
X79138991Y-34929304D01*
X79177746Y-34959447D01*
X79221641Y-34981255D01*
X79268869Y-35000007D01*
X79316097Y-35014870D01*
X79359991Y-35025011D01*
X79430556Y-35050014D01*
X79458892Y-35092797D01*
X79447410Y-35139716D01*
X79412961Y-35167868D01*
X79355546Y-35177252D01*
X79302206Y-35160027D01*
X79257756Y-35123912D01*
X79208306Y-35082240D01*
X79171079Y-35068349D01*
X79112182Y-35095019D01*
X79076345Y-35137108D01*
X79064399Y-35170029D01*
X78985442Y-35170029D01*
X78972165Y-35139840D01*
X78946977Y-35081684D01*
X78927715Y-35036123D01*
X78974017Y-34977103D01*
X79001798Y-34908206D01*
X79011059Y-34829431D01*
X79003836Y-34760533D01*
X78982166Y-34698303D01*
X78949384Y-34645519D01*
X78908824Y-34604958D01*
X78846717Y-34565447D01*
X78783376Y-34541740D01*
X78718800Y-34533838D01*
X78478770Y-34533838D01*
X78421541Y-34541339D01*
X78392092Y-34563842D01*
X78381536Y-34593290D01*
X78379869Y-34631628D01*
X78379869Y-35248372D01*
X77860449Y-35248372D01*
X77846474Y-35225056D01*
X77821101Y-35171411D01*
X77801109Y-35115537D01*
X77786690Y-35057972D01*
X77777983Y-34999271D01*
X77775071Y-34940000D01*
X77777983Y-34880729D01*
X77786690Y-34822028D01*
X77801109Y-34764463D01*
X77821101Y-34708589D01*
X77846474Y-34654944D01*
X77876982Y-34604044D01*
X77912333Y-34556379D01*
X77952185Y-34512409D01*
X77996155Y-34472557D01*
X78043820Y-34437206D01*
X78094720Y-34406698D01*
X78148365Y-34381325D01*
X78204239Y-34361333D01*
X78261804Y-34346914D01*
X78320505Y-34338207D01*
X78379776Y-34335295D01*
X80480224Y-34335295D01*
X80539495Y-34338207D01*
X80598196Y-34346914D01*
X80655761Y-34361333D01*
X80711635Y-34381325D01*
X80765280Y-34406698D01*
X80816180Y-34437206D01*
X80863845Y-34472557D01*
X80907815Y-34512409D01*
X80947667Y-34556379D01*
X80983018Y-34604044D01*
X81013526Y-34654944D01*
X81038899Y-34708589D01*
X81058891Y-34764463D01*
X81073310Y-34822028D01*
X81082017Y-34880729D01*
X81084929Y-34940000D01*
X81082017Y-34999271D01*
X81073310Y-35057972D01*
X81058891Y-35115537D01*
X81038899Y-35171411D01*
X81013526Y-35225056D01*
X80983018Y-35275956D01*
X80947667Y-35323621D01*
X80907815Y-35367591D01*
X80863845Y-35407443D01*
X80816180Y-35442794D01*
X80765280Y-35473302D01*
X80711635Y-35498675D01*
X80655761Y-35518667D01*
X80598196Y-35533086D01*
X80539495Y-35541793D01*
X80480224Y-35544705D01*
X78379776Y-35544705D01*
X78320505Y-35541793D01*
G37*
G36*
X78783252Y-34755532D02*
G01*
X78815479Y-34829431D01*
X78783252Y-34902773D01*
X78718800Y-34927221D01*
X78576560Y-34927221D01*
X78576560Y-34730529D01*
X78716577Y-34730529D01*
X78783252Y-34755532D01*
G37*
X81167500Y-44319458D02*
X81167500Y-43844942D01*
X80122500Y-44319458D02*
X80122500Y-43844942D01*
X76545000Y-44463200D02*
X76545000Y-43813200D01*
X79665000Y-44463200D02*
X79665000Y-45113200D01*
X76545000Y-44463200D02*
X76545000Y-45113200D01*
X79665000Y-44463200D02*
X79665000Y-42788200D01*
X76647258Y-51259500D02*
X76172742Y-51259500D01*
X76647258Y-50214500D02*
X76172742Y-50214500D01*
X71171000Y-48700200D02*
X75081000Y-48700200D01*
X75081000Y-48700200D02*
X75081000Y-46830200D01*
X75081000Y-46830200D02*
X71171000Y-46830200D01*
X79815458Y-54637700D02*
X79340942Y-54637700D01*
X79815458Y-53592700D02*
X79340942Y-53592700D01*
G36*
X82045044Y-35739482D02*
G01*
X82077271Y-35756706D01*
X82097829Y-35776709D01*
X82108386Y-35812269D01*
X82089494Y-35871721D01*
X82056157Y-35920060D01*
X82018374Y-35936173D01*
X81961701Y-35917282D01*
X81340512Y-35617244D01*
X81299396Y-35580018D01*
X81284165Y-35528344D01*
X81608323Y-35528344D01*
X81760564Y-35601687D01*
X81760564Y-35453891D01*
X81608323Y-35528344D01*
X81284165Y-35528344D01*
X81283838Y-35527233D01*
X81298284Y-35475004D01*
X81341623Y-35438333D01*
X81961701Y-35138296D01*
X82018374Y-35119404D01*
X82056435Y-35135518D01*
X82090606Y-35183857D01*
X82109497Y-35243309D01*
X82099496Y-35278869D01*
X82078382Y-35298871D01*
X82045044Y-35316096D01*
X81925029Y-35373881D01*
X81925029Y-35681697D01*
X82045044Y-35739482D01*
G37*
G36*
X81906277Y-35987846D02*
G01*
X81965590Y-36009516D01*
X82014346Y-36042853D01*
X82050601Y-36085081D01*
X82083321Y-36146446D01*
X82102953Y-36210528D01*
X82109497Y-36277327D01*
X82106302Y-36328167D01*
X82096717Y-36376228D01*
X82065047Y-36451793D01*
X82030043Y-36501799D01*
X81996149Y-36534026D01*
X81983926Y-36544027D01*
X81920029Y-36572919D01*
X81887108Y-36560973D01*
X81845019Y-36525136D01*
X81818349Y-36466239D01*
X81832240Y-36429013D01*
X81873912Y-36379562D01*
X81910027Y-36335112D01*
X81927252Y-36281772D01*
X81917868Y-36224357D01*
X81889716Y-36189909D01*
X81842797Y-36178426D01*
X81800014Y-36206763D01*
X81775011Y-36277327D01*
X81764870Y-36321221D01*
X81750007Y-36368449D01*
X81731255Y-36415678D01*
X81709447Y-36459572D01*
X81679304Y-36498327D01*
X81635549Y-36530136D01*
X81579847Y-36551389D01*
X81513867Y-36558473D01*
X81451452Y-36550386D01*
X81394593Y-36526123D01*
X81343290Y-36485686D01*
X81302853Y-36431297D01*
X81278591Y-36365177D01*
X81270503Y-36287328D01*
X81274809Y-36223570D01*
X81287727Y-36165646D01*
X81322732Y-36089526D01*
X81343846Y-36061744D01*
X81398297Y-36027296D01*
X81459416Y-36053966D01*
X81501088Y-36092304D01*
X81514978Y-36131753D01*
X81492753Y-36189538D01*
X81481641Y-36202318D01*
X81467194Y-36219542D01*
X81452748Y-36278994D01*
X81469972Y-36339001D01*
X81517756Y-36362893D01*
X81567207Y-36334556D01*
X81592766Y-36263992D01*
X81601239Y-36219820D01*
X81613324Y-36171758D01*
X81628742Y-36123697D01*
X81647217Y-36079524D01*
X81674581Y-36040770D01*
X81716670Y-36008960D01*
X81771816Y-35987707D01*
X81838352Y-35980623D01*
X81906277Y-35987846D01*
G37*
G36*
X81409965Y-34312637D02*
G01*
X81433857Y-34331528D01*
X81443858Y-34388202D01*
X81443858Y-34600451D01*
X82002817Y-34600451D01*
X82040599Y-34602117D01*
X82068936Y-34612119D01*
X82091717Y-34641567D01*
X82098384Y-34697129D01*
X82091717Y-34752136D01*
X82068936Y-34781029D01*
X82040044Y-34791030D01*
X82001706Y-34792697D01*
X81443858Y-34792697D01*
X81443858Y-35006057D01*
X81435524Y-35058286D01*
X81409409Y-35080511D01*
X81362737Y-35086067D01*
X81316620Y-35080511D01*
X81292728Y-35061619D01*
X81282727Y-35004946D01*
X81282727Y-34387091D01*
X81291061Y-34334862D01*
X81317176Y-34312637D01*
X81363848Y-34307081D01*
X81409965Y-34312637D01*
G37*
D16*
X82450000Y-70973200D02*
X82450000Y-76573200D01*
X69950000Y-58073200D02*
X70505000Y-58073200D01*
X69950000Y-70973200D02*
X69950000Y-76573200D01*
X82450000Y-58073200D02*
X82450000Y-59523200D01*
D13*
X69950000Y-72023200D02*
X82450000Y-72023200D01*
D16*
X69950000Y-58073200D02*
X69950000Y-59523200D01*
X81895000Y-58073200D02*
X82450000Y-58073200D01*
D13*
X69950000Y-76573200D02*
X82450000Y-76573200D01*
D11*
X83150000Y-70423200D02*
G75*
G03*
X83150000Y-70423200I-100000J0D01*
G01*
D13*
X70461200Y-36628200D02*
X70461200Y-38913200D01*
X71931200Y-38913200D02*
X71931200Y-36628200D01*
X71931200Y-36628200D02*
X70461200Y-36628200D01*
X79121000Y-49640200D02*
X79921000Y-49640200D01*
X79121000Y-46520200D02*
X79921000Y-46520200D01*
X79121000Y-49640200D02*
X78321000Y-49640200D01*
X79121000Y-46520200D02*
X78321000Y-46520200D01*
D15*
X81559400Y-49045400D02*
G75*
G03*
X81559400Y-49045400I-203200J0D01*
G01*
D13*
X80757500Y-41367258D02*
X80757500Y-40892742D01*
X81802500Y-41367258D02*
X81802500Y-40892742D01*
X80545000Y-39598200D02*
X82015000Y-39598200D01*
X80545000Y-37313200D02*
X80545000Y-39598200D01*
X82015000Y-39598200D02*
X82015000Y-37313200D01*
X79815458Y-52043300D02*
X79340942Y-52043300D01*
X79815458Y-53088300D02*
X79340942Y-53088300D01*
%LPC*%
D17*
X77266800Y-52552800D03*
X77266800Y-54102800D03*
D18*
X73469000Y-53226200D03*
X71819000Y-53226200D03*
D19*
X71755000Y-56439600D03*
X71755000Y-54889600D03*
D20*
X83820000Y-25413200D03*
X83820000Y-27953200D03*
X83820000Y-30493200D03*
X83820000Y-33033200D03*
X83820000Y-35573200D03*
X83820000Y-38113200D03*
X83820000Y-40653200D03*
X83820000Y-43193200D03*
X83820000Y-45733200D03*
X83820000Y-48273200D03*
X83820000Y-50813200D03*
X83820000Y-53353200D03*
X83820000Y-55893200D03*
X83820000Y-58433200D03*
X83820000Y-60973200D03*
X83820000Y-63513200D03*
X83820000Y-66053200D03*
X83820000Y-68593200D03*
X83820000Y-71133200D03*
X83820000Y-73673200D03*
D21*
X78867000Y-36852200D03*
X78867000Y-41161200D03*
D18*
X80454000Y-50737000D03*
X78804000Y-50737000D03*
D22*
X76150000Y-47285000D03*
X76150000Y-48935000D03*
D19*
X73533000Y-56439600D03*
X73533000Y-54889600D03*
D23*
X71526400Y-42986200D03*
X71526400Y-45686200D03*
D24*
X76200000Y-41268200D03*
X76200000Y-38768200D03*
D25*
X75250000Y-36075700D03*
X76200000Y-36075700D03*
X77150000Y-36075700D03*
X77150000Y-33800700D03*
X76200000Y-33800700D03*
X75250000Y-33800700D03*
D20*
X68580000Y-25413200D03*
X68580000Y-27953200D03*
X68580000Y-30493200D03*
X68580000Y-33033200D03*
X68580000Y-35573200D03*
X68580000Y-38113200D03*
X68580000Y-40653200D03*
X68580000Y-43193200D03*
X68580000Y-45733200D03*
X68580000Y-48273200D03*
X68580000Y-50813200D03*
X68580000Y-53353200D03*
X68580000Y-55893200D03*
X68580000Y-58433200D03*
X68580000Y-60973200D03*
X68580000Y-63513200D03*
X68580000Y-66053200D03*
X68580000Y-68593200D03*
X68580000Y-71133200D03*
X68580000Y-73673200D03*
D21*
X73533000Y-36852200D03*
X73533000Y-41161200D03*
D26*
X78931000Y-33414200D03*
X80581000Y-33414200D03*
X71692000Y-33414200D03*
X73342000Y-33414200D03*
D27*
X79400000Y-30469200D03*
X78600000Y-30469200D03*
D28*
X77450000Y-30469200D03*
X76450000Y-30469200D03*
X75950000Y-30469200D03*
X74950000Y-30469200D03*
D27*
X73800000Y-30469200D03*
X73000000Y-30469200D03*
X73000000Y-30469200D03*
X73800000Y-30469200D03*
D28*
X74450000Y-30469200D03*
X75450000Y-30469200D03*
X76950000Y-30469200D03*
X77950000Y-30469200D03*
D27*
X78600000Y-30469200D03*
X79400000Y-30469200D03*
D29*
X70625000Y-29794200D03*
D30*
X70625000Y-25794200D03*
D29*
X81775000Y-29794200D03*
D30*
X81775000Y-25794200D03*
D31*
X75499000Y-43452700D03*
X74549000Y-43452700D03*
X73599000Y-43452700D03*
X73599000Y-45727700D03*
X75499000Y-45727700D03*
D32*
X73327500Y-51636200D03*
X73327500Y-49736200D03*
X71452500Y-50686200D03*
D33*
X80645000Y-44907200D03*
X80645000Y-43257200D03*
D34*
X79055000Y-43525700D03*
X77155000Y-43525700D03*
X78105000Y-45400700D03*
D18*
X77235000Y-50737000D03*
X75585000Y-50737000D03*
D35*
X74121000Y-47765200D03*
X71421000Y-47765200D03*
D18*
X80403200Y-54115200D03*
X78753200Y-54115200D03*
D36*
X81800000Y-70423200D03*
X81800000Y-69773200D03*
X81800000Y-69123200D03*
X81800000Y-68473200D03*
X81800000Y-67823200D03*
X81800000Y-67173200D03*
X81800000Y-66523200D03*
X81800000Y-65873200D03*
X81800000Y-65223200D03*
X81800000Y-64573200D03*
X81800000Y-63923200D03*
X81800000Y-63273200D03*
X81800000Y-62623200D03*
X81800000Y-61973200D03*
X81800000Y-61323200D03*
X81800000Y-60673200D03*
X81800000Y-60023200D03*
D37*
X81400000Y-58823200D03*
X80750000Y-58823200D03*
X80100000Y-58823200D03*
X79450000Y-58823200D03*
X78800000Y-58823200D03*
X78150000Y-58823200D03*
X77500000Y-58823200D03*
X76850000Y-58823200D03*
X76200000Y-58823200D03*
X75550000Y-58823200D03*
X74900000Y-58823200D03*
X74250000Y-58823200D03*
X73600000Y-58823200D03*
X72950000Y-58823200D03*
X72300000Y-58823200D03*
X71650000Y-58823200D03*
X71000000Y-58823200D03*
D36*
X70600000Y-60023200D03*
X70600000Y-60673200D03*
X70600000Y-61323200D03*
X70600000Y-61973200D03*
X70600000Y-62623200D03*
X70600000Y-63273200D03*
X70600000Y-63923200D03*
X70600000Y-64573200D03*
X70600000Y-65223200D03*
X70600000Y-65873200D03*
X70600000Y-66523200D03*
X70600000Y-67173200D03*
X70600000Y-67823200D03*
X70600000Y-68473200D03*
X70600000Y-69123200D03*
X70600000Y-69773200D03*
X70600000Y-70423200D03*
D37*
X71700000Y-70323200D03*
X72300000Y-70323200D03*
X72950000Y-70323200D03*
X73600000Y-70323200D03*
X74250000Y-70323200D03*
D36*
X72300000Y-69123200D03*
X72300000Y-68473200D03*
X72300000Y-67823200D03*
X72300000Y-67173200D03*
D38*
X74950000Y-66923200D03*
X74950000Y-64073200D03*
X77750000Y-64073200D03*
X77750000Y-66923200D03*
D39*
X71196200Y-37325700D03*
X71196200Y-38900700D03*
D40*
X80258500Y-49030200D03*
X80258500Y-48080200D03*
X80258500Y-47130200D03*
X77983500Y-47130200D03*
X77983500Y-49030200D03*
D33*
X81280000Y-41955000D03*
X81280000Y-40305000D03*
D41*
X81280000Y-38900700D03*
X81280000Y-37325700D03*
D18*
X80403200Y-52565800D03*
X78753200Y-52565800D03*
M02*
