M48
; DRILL file {KiCad (6.0.7)} date Sat Aug 27 01:23:02 2022
; FORMAT={-:-/ absolute / inch / decimal}
; #@! TF.CreationDate,2022-08-27T01:23:02+07:00
; #@! TF.GenerationSoftware,Kicad,Pcbnew,(6.0.7)
; #@! TF.FileFunction,Plated,1,2,PTH
FMAT,2
INCH
; #@! TA.AperFunction,Plated,PTH,ViaDrill
T1C0.0118
; #@! TA.AperFunction,Plated,PTH,ViaDrill
T2C0.0138
; #@! TA.AperFunction,Plated,PTH,ComponentDrill
T3C0.0236
; #@! TA.AperFunction,Plated,PTH,ComponentDrill
T4C0.0354
%
G90
G05
T1
X2.7485Y-2.7455
X2.8043Y-1.2245
X2.8104Y-2.6196
X2.8108Y-2.6713
X2.811Y-2.721
X2.818Y-2.5926
X2.8201Y-2.6454
X2.8406Y-2.5679
X2.8635Y-2.545
X2.878Y-1.2459
X2.8793Y-2.06
X2.88Y-2.4655
X2.88Y-2.4945
X2.8811Y-2.5238
X2.8874Y-2.602
X2.894Y-2.736
X2.8956Y-1.6508
X2.8965Y-2.4416
X2.8987Y-2.272
X2.91Y-2.585
X2.92Y-1.5254
X2.9235Y-2.284
X2.939Y-2.2469
X2.9566Y-1.7524
X2.96Y-2.385
X2.96Y-2.415
X2.967Y-1.2448
X2.9752Y-1.2711
X2.9852Y-1.4708
X3.0103Y-1.2483
X3.0148Y-1.4708
X3.0334Y-2.3552
X3.0404Y-1.2653
X3.0511Y-2.2345
X3.0605Y-2.3604
X3.0831Y-2.395
X3.0866Y-1.56
X3.0866Y-1.6535
X3.0964Y-2.2265
X3.0964Y-2.265
X3.1239Y-2.2823
X3.1342Y-2.4458
X3.1475Y-2.2659
X3.1611Y-2.4539
X3.1656Y-2.376
X3.175Y-2.73
X3.1762Y-2.2831
X3.1909Y-2.4426
X3.196Y-2.1615
T2
X2.6441Y-2.1505
X2.663Y-1.8525
X2.757Y-1.9815
X2.777Y-2.0575
X2.9016Y-1.41
X2.9045Y-1.2705
X2.935Y-1.78
X2.9993Y-1.2958
X3.0374Y-1.658
X3.0374Y-1.8302
X3.1Y-1.2655
X3.148Y-2.4089
X3.158Y-2.768
X3.2122Y-1.3154
X3.22Y-2.12
T4
X2.7Y-1.0005
X2.7Y-1.1005
X2.7Y-1.2005
X2.7Y-1.3005
X2.7Y-1.4005
X2.7Y-1.5005
X2.7Y-1.6005
X2.7Y-1.7005
X2.7Y-1.8005
X2.7Y-1.9005
X2.7Y-2.0005
X2.7Y-2.1005
X2.7Y-2.2005
X2.7Y-2.3005
X2.7Y-2.4005
X2.7Y-2.5005
X2.7Y-2.6005
X2.7Y-2.7005
X2.7Y-2.8005
X2.7Y-2.9005
X3.3Y-1.0005
X3.3Y-1.1005
X3.3Y-1.2005
X3.3Y-1.3005
X3.3Y-1.4005
X3.3Y-1.5005
X3.3Y-1.6005
X3.3Y-1.7005
X3.3Y-1.8005
X3.3Y-1.9005
X3.3Y-2.0005
X3.3Y-2.1005
X3.3Y-2.2005
X3.3Y-2.3005
X3.3Y-2.4005
X3.3Y-2.5005
X3.3Y-2.6005
X3.3Y-2.7005
X3.3Y-2.8005
X3.3Y-2.9005
T3
G00X2.7805Y-0.9919
M15
G01X2.7805Y-1.0391
M16
G05
G00X2.7805Y-1.1573
M15
G01X2.7805Y-1.1887
M16
G05
G00X3.2195Y-0.9919
M15
G01X3.2195Y-1.0391
M16
G05
G00X3.2195Y-1.1573
M15
G01X3.2195Y-1.1887
M16
G05
T0
M30
