G04 #@! TF.GenerationSoftware,KiCad,Pcbnew,(6.0.7)*
G04 #@! TF.CreationDate,2022-08-27T01:23:02+07:00*
G04 #@! TF.ProjectId,nRFpill,6e524670-696c-46c2-9e6b-696361645f70,rev?*
G04 #@! TF.SameCoordinates,Original*
G04 #@! TF.FileFunction,Legend,Bot*
G04 #@! TF.FilePolarity,Positive*
%FSLAX46Y46*%
G04 Gerber Fmt 4.6, Leading zero omitted, Abs format (unit mm)*
G04 Created by KiCad (PCBNEW (6.0.7)) date 2022-08-27 01:23:02*
%MOMM*%
%LPD*%
G01*
G04 APERTURE LIST*
G04 Aperture macros list*
%AMRoundRect*
0 Rectangle with rounded corners*
0 $1 Rounding radius*
0 $2 $3 $4 $5 $6 $7 $8 $9 X,Y pos of 4 corners*
0 Add a 4 corners polygon primitive as box body*
4,1,4,$2,$3,$4,$5,$6,$7,$8,$9,$2,$3,0*
0 Add four circle primitives for the rounded corners*
1,1,$1+$1,$2,$3*
1,1,$1+$1,$4,$5*
1,1,$1+$1,$6,$7*
1,1,$1+$1,$8,$9*
0 Add four rect primitives between the rounded corners*
20,1,$1+$1,$2,$3,$4,$5,0*
20,1,$1+$1,$4,$5,$6,$7,0*
20,1,$1+$1,$6,$7,$8,$9,0*
20,1,$1+$1,$8,$9,$2,$3,0*%
G04 Aperture macros list end*
%ADD10C,0.187500*%
%ADD11C,0.200000*%
%ADD12C,0.250000*%
%ADD13C,0.225000*%
%ADD14C,0.120000*%
%ADD15C,1.700000*%
%ADD16O,1.000000X1.800000*%
%ADD17O,1.000000X2.200000*%
%ADD18C,1.500000*%
%ADD19RoundRect,0.375000X0.375000X-0.375000X0.375000X0.375000X-0.375000X0.375000X-0.375000X-0.375000X0*%
G04 APERTURE END LIST*
D10*
X66264285Y-32283200D02*
X66264285Y-32354628D01*
X66300000Y-32426057D01*
X66335714Y-32461771D01*
X66407142Y-32497485D01*
X66550000Y-32533200D01*
X66728571Y-32533200D01*
X66871428Y-32497485D01*
X66942857Y-32461771D01*
X66978571Y-32426057D01*
X67014285Y-32354628D01*
X67014285Y-32283200D01*
X66978571Y-32211771D01*
X66942857Y-32176057D01*
X66871428Y-32140342D01*
X66728571Y-32104628D01*
X66550000Y-32104628D01*
X66407142Y-32140342D01*
X66335714Y-32176057D01*
X66300000Y-32211771D01*
X66264285Y-32283200D01*
X67014285Y-33247485D02*
X67014285Y-32818914D01*
X67014285Y-33033200D02*
X66264285Y-33033200D01*
X66371428Y-32961771D01*
X66442857Y-32890342D01*
X66478571Y-32818914D01*
X66514285Y-33890342D02*
X67014285Y-33890342D01*
X66228571Y-33711771D02*
X66764285Y-33533200D01*
X66764285Y-33997485D01*
X85314285Y-67843200D02*
X85314285Y-67914628D01*
X85350000Y-67986057D01*
X85385714Y-68021771D01*
X85457142Y-68057485D01*
X85600000Y-68093200D01*
X85778571Y-68093200D01*
X85921428Y-68057485D01*
X85992857Y-68021771D01*
X86028571Y-67986057D01*
X86064285Y-67914628D01*
X86064285Y-67843200D01*
X86028571Y-67771771D01*
X85992857Y-67736057D01*
X85921428Y-67700342D01*
X85778571Y-67664628D01*
X85600000Y-67664628D01*
X85457142Y-67700342D01*
X85385714Y-67736057D01*
X85350000Y-67771771D01*
X85314285Y-67843200D01*
X85314285Y-68557485D02*
X85314285Y-68628914D01*
X85350000Y-68700342D01*
X85385714Y-68736057D01*
X85457142Y-68771771D01*
X85600000Y-68807485D01*
X85778571Y-68807485D01*
X85921428Y-68771771D01*
X85992857Y-68736057D01*
X86028571Y-68700342D01*
X86064285Y-68628914D01*
X86064285Y-68557485D01*
X86028571Y-68486057D01*
X85992857Y-68450342D01*
X85921428Y-68414628D01*
X85778571Y-68378914D01*
X85600000Y-68378914D01*
X85457142Y-68414628D01*
X85385714Y-68450342D01*
X85350000Y-68486057D01*
X85314285Y-68557485D01*
X86064285Y-69521771D02*
X86064285Y-69093200D01*
X86064285Y-69307485D02*
X85314285Y-69307485D01*
X85421428Y-69236057D01*
X85492857Y-69164628D01*
X85528571Y-69093200D01*
X85350000Y-27381771D02*
X85314285Y-27310342D01*
X85314285Y-27203200D01*
X85350000Y-27096057D01*
X85421428Y-27024628D01*
X85492857Y-26988914D01*
X85635714Y-26953200D01*
X85742857Y-26953200D01*
X85885714Y-26988914D01*
X85957142Y-27024628D01*
X86028571Y-27096057D01*
X86064285Y-27203200D01*
X86064285Y-27274628D01*
X86028571Y-27381771D01*
X85992857Y-27417485D01*
X85742857Y-27417485D01*
X85742857Y-27274628D01*
X86064285Y-27738914D02*
X85314285Y-27738914D01*
X86064285Y-28167485D01*
X85314285Y-28167485D01*
X86064285Y-28524628D02*
X85314285Y-28524628D01*
X85314285Y-28703200D01*
X85350000Y-28810342D01*
X85421428Y-28881771D01*
X85492857Y-28917485D01*
X85635714Y-28953200D01*
X85742857Y-28953200D01*
X85885714Y-28917485D01*
X85957142Y-28881771D01*
X86028571Y-28810342D01*
X86064285Y-28703200D01*
X86064285Y-28524628D01*
X66264285Y-65303200D02*
X66264285Y-65374628D01*
X66300000Y-65446057D01*
X66335714Y-65481771D01*
X66407142Y-65517485D01*
X66550000Y-65553200D01*
X66728571Y-65553200D01*
X66871428Y-65517485D01*
X66942857Y-65481771D01*
X66978571Y-65446057D01*
X67014285Y-65374628D01*
X67014285Y-65303200D01*
X66978571Y-65231771D01*
X66942857Y-65196057D01*
X66871428Y-65160342D01*
X66728571Y-65124628D01*
X66550000Y-65124628D01*
X66407142Y-65160342D01*
X66335714Y-65196057D01*
X66300000Y-65231771D01*
X66264285Y-65303200D01*
X66335714Y-65838914D02*
X66300000Y-65874628D01*
X66264285Y-65946057D01*
X66264285Y-66124628D01*
X66300000Y-66196057D01*
X66335714Y-66231771D01*
X66407142Y-66267485D01*
X66478571Y-66267485D01*
X66585714Y-66231771D01*
X67014285Y-65803200D01*
X67014285Y-66267485D01*
X66264285Y-66946057D02*
X66264285Y-66588914D01*
X66621428Y-66553200D01*
X66585714Y-66588914D01*
X66550000Y-66660342D01*
X66550000Y-66838914D01*
X66585714Y-66910342D01*
X66621428Y-66946057D01*
X66692857Y-66981771D01*
X66871428Y-66981771D01*
X66942857Y-66946057D01*
X66978571Y-66910342D01*
X67014285Y-66838914D01*
X67014285Y-66660342D01*
X66978571Y-66588914D01*
X66942857Y-66553200D01*
X85314285Y-50063200D02*
X85314285Y-50134628D01*
X85350000Y-50206057D01*
X85385714Y-50241771D01*
X85457142Y-50277485D01*
X85600000Y-50313200D01*
X85778571Y-50313200D01*
X85921428Y-50277485D01*
X85992857Y-50241771D01*
X86028571Y-50206057D01*
X86064285Y-50134628D01*
X86064285Y-50063200D01*
X86028571Y-49991771D01*
X85992857Y-49956057D01*
X85921428Y-49920342D01*
X85778571Y-49884628D01*
X85600000Y-49884628D01*
X85457142Y-49920342D01*
X85385714Y-49956057D01*
X85350000Y-49991771D01*
X85314285Y-50063200D01*
X85314285Y-50563200D02*
X85314285Y-51027485D01*
X85600000Y-50777485D01*
X85600000Y-50884628D01*
X85635714Y-50956057D01*
X85671428Y-50991771D01*
X85742857Y-51027485D01*
X85921428Y-51027485D01*
X85992857Y-50991771D01*
X86028571Y-50956057D01*
X86064285Y-50884628D01*
X86064285Y-50670342D01*
X86028571Y-50598914D01*
X85992857Y-50563200D01*
X86064285Y-51741771D02*
X86064285Y-51313200D01*
X86064285Y-51527485D02*
X85314285Y-51527485D01*
X85421428Y-51456057D01*
X85492857Y-51384628D01*
X85528571Y-51313200D01*
X85314285Y-34823200D02*
X85314285Y-34894628D01*
X85350000Y-34966057D01*
X85385714Y-35001771D01*
X85457142Y-35037485D01*
X85600000Y-35073200D01*
X85778571Y-35073200D01*
X85921428Y-35037485D01*
X85992857Y-35001771D01*
X86028571Y-34966057D01*
X86064285Y-34894628D01*
X86064285Y-34823200D01*
X86028571Y-34751771D01*
X85992857Y-34716057D01*
X85921428Y-34680342D01*
X85778571Y-34644628D01*
X85600000Y-34644628D01*
X85457142Y-34680342D01*
X85385714Y-34716057D01*
X85350000Y-34751771D01*
X85314285Y-34823200D01*
X85385714Y-35358914D02*
X85350000Y-35394628D01*
X85314285Y-35466057D01*
X85314285Y-35644628D01*
X85350000Y-35716057D01*
X85385714Y-35751771D01*
X85457142Y-35787485D01*
X85528571Y-35787485D01*
X85635714Y-35751771D01*
X86064285Y-35323200D01*
X86064285Y-35787485D01*
X85635714Y-36216057D02*
X85600000Y-36144628D01*
X85564285Y-36108914D01*
X85492857Y-36073200D01*
X85457142Y-36073200D01*
X85385714Y-36108914D01*
X85350000Y-36144628D01*
X85314285Y-36216057D01*
X85314285Y-36358914D01*
X85350000Y-36430342D01*
X85385714Y-36466057D01*
X85457142Y-36501771D01*
X85492857Y-36501771D01*
X85564285Y-36466057D01*
X85600000Y-36430342D01*
X85635714Y-36358914D01*
X85635714Y-36216057D01*
X85671428Y-36144628D01*
X85707142Y-36108914D01*
X85778571Y-36073200D01*
X85921428Y-36073200D01*
X85992857Y-36108914D01*
X86028571Y-36144628D01*
X86064285Y-36216057D01*
X86064285Y-36358914D01*
X86028571Y-36430342D01*
X85992857Y-36466057D01*
X85921428Y-36501771D01*
X85778571Y-36501771D01*
X85707142Y-36466057D01*
X85671428Y-36430342D01*
X85635714Y-36358914D01*
X66264285Y-29743200D02*
X66264285Y-29814628D01*
X66300000Y-29886057D01*
X66335714Y-29921771D01*
X66407142Y-29957485D01*
X66550000Y-29993200D01*
X66728571Y-29993200D01*
X66871428Y-29957485D01*
X66942857Y-29921771D01*
X66978571Y-29886057D01*
X67014285Y-29814628D01*
X67014285Y-29743200D01*
X66978571Y-29671771D01*
X66942857Y-29636057D01*
X66871428Y-29600342D01*
X66728571Y-29564628D01*
X66550000Y-29564628D01*
X66407142Y-29600342D01*
X66335714Y-29636057D01*
X66300000Y-29671771D01*
X66264285Y-29743200D01*
X67014285Y-30707485D02*
X67014285Y-30278914D01*
X67014285Y-30493200D02*
X66264285Y-30493200D01*
X66371428Y-30421771D01*
X66442857Y-30350342D01*
X66478571Y-30278914D01*
X66264285Y-31350342D02*
X66264285Y-31207485D01*
X66300000Y-31136057D01*
X66335714Y-31100342D01*
X66442857Y-31028914D01*
X66585714Y-30993200D01*
X66871428Y-30993200D01*
X66942857Y-31028914D01*
X66978571Y-31064628D01*
X67014285Y-31136057D01*
X67014285Y-31278914D01*
X66978571Y-31350342D01*
X66942857Y-31386057D01*
X66871428Y-31421771D01*
X66692857Y-31421771D01*
X66621428Y-31386057D01*
X66585714Y-31350342D01*
X66550000Y-31278914D01*
X66550000Y-31136057D01*
X66585714Y-31064628D01*
X66621428Y-31028914D01*
X66692857Y-30993200D01*
D11*
X77818571Y-65646057D02*
X77818571Y-66546057D01*
X78032857Y-66546057D01*
X78161428Y-66503200D01*
X78247142Y-66417485D01*
X78290000Y-66331771D01*
X78332857Y-66160342D01*
X78332857Y-66031771D01*
X78290000Y-65860342D01*
X78247142Y-65774628D01*
X78161428Y-65688914D01*
X78032857Y-65646057D01*
X77818571Y-65646057D01*
X78718571Y-65646057D02*
X78718571Y-66546057D01*
X79318571Y-66546057D02*
X79490000Y-66546057D01*
X79575714Y-66503200D01*
X79661428Y-66417485D01*
X79704285Y-66246057D01*
X79704285Y-65946057D01*
X79661428Y-65774628D01*
X79575714Y-65688914D01*
X79490000Y-65646057D01*
X79318571Y-65646057D01*
X79232857Y-65688914D01*
X79147142Y-65774628D01*
X79104285Y-65946057D01*
X79104285Y-66246057D01*
X79147142Y-66417485D01*
X79232857Y-66503200D01*
X79318571Y-66546057D01*
D12*
X71961180Y-36507195D02*
X70961180Y-36507195D01*
X70961180Y-36745290D01*
X71008800Y-36888147D01*
X71104038Y-36983385D01*
X71199276Y-37031004D01*
X71389752Y-37078623D01*
X71532609Y-37078623D01*
X71723085Y-37031004D01*
X71818323Y-36983385D01*
X71913561Y-36888147D01*
X71961180Y-36745290D01*
X71961180Y-36507195D01*
X71437371Y-36364338D02*
X71437371Y-36745290D01*
X71913561Y-37888147D02*
X71961180Y-37792909D01*
X71961180Y-37602433D01*
X71913561Y-37507195D01*
X71818323Y-37459576D01*
X71437371Y-37459576D01*
X71342133Y-37507195D01*
X71294514Y-37602433D01*
X71294514Y-37792909D01*
X71342133Y-37888147D01*
X71437371Y-37935766D01*
X71532609Y-37935766D01*
X71627847Y-37459576D01*
X71961180Y-38364338D02*
X71294514Y-38364338D01*
X71389752Y-38364338D02*
X71342133Y-38411957D01*
X71294514Y-38507195D01*
X71294514Y-38650052D01*
X71342133Y-38745290D01*
X71437371Y-38792909D01*
X71961180Y-38792909D01*
X71437371Y-38792909D02*
X71342133Y-38840528D01*
X71294514Y-38935766D01*
X71294514Y-39078623D01*
X71342133Y-39173861D01*
X71437371Y-39221480D01*
X71961180Y-39221480D01*
X71961180Y-40888147D02*
X70961180Y-40888147D01*
X71913561Y-40888147D02*
X71961180Y-40792909D01*
X71961180Y-40602433D01*
X71913561Y-40507195D01*
X71865942Y-40459576D01*
X71770704Y-40411957D01*
X71484990Y-40411957D01*
X71389752Y-40459576D01*
X71342133Y-40507195D01*
X71294514Y-40602433D01*
X71294514Y-40792909D01*
X71342133Y-40888147D01*
X71056419Y-40650052D02*
X71056419Y-41031004D01*
X71961180Y-41792909D02*
X71437371Y-41792909D01*
X71342133Y-41745290D01*
X71294514Y-41650052D01*
X71294514Y-41459576D01*
X71342133Y-41364338D01*
X71913561Y-41792909D02*
X71961180Y-41697671D01*
X71961180Y-41459576D01*
X71913561Y-41364338D01*
X71818323Y-41316719D01*
X71723085Y-41316719D01*
X71627847Y-41364338D01*
X71580228Y-41459576D01*
X71580228Y-41697671D01*
X71532609Y-41792909D01*
X72294514Y-41554814D02*
X72246895Y-41602433D01*
X72199276Y-41554814D01*
X72246895Y-41507195D01*
X72294514Y-41554814D01*
X72199276Y-41554814D01*
X71961180Y-42269100D02*
X71294514Y-42269100D01*
X70961180Y-42269100D02*
X71008800Y-42221480D01*
X71056419Y-42269100D01*
X71008800Y-42316719D01*
X70961180Y-42269100D01*
X71056419Y-42269100D01*
X71294514Y-43507195D02*
X71961180Y-43507195D01*
X71389752Y-43507195D02*
X71342133Y-43554814D01*
X71294514Y-43650052D01*
X71294514Y-43792909D01*
X71342133Y-43888147D01*
X71437371Y-43935766D01*
X71961180Y-43935766D01*
X71294514Y-44840528D02*
X72104038Y-44840528D01*
X72199276Y-44792909D01*
X72246895Y-44745290D01*
X72294514Y-44650052D01*
X72294514Y-44507195D01*
X72246895Y-44411957D01*
X71913561Y-44840528D02*
X71961180Y-44745290D01*
X71961180Y-44554814D01*
X71913561Y-44459576D01*
X71865942Y-44411957D01*
X71770704Y-44364338D01*
X71484990Y-44364338D01*
X71389752Y-44411957D01*
X71342133Y-44459576D01*
X71294514Y-44554814D01*
X71294514Y-44745290D01*
X71342133Y-44840528D01*
X71961180Y-45316719D02*
X70961180Y-45316719D01*
X71961180Y-45745290D02*
X71437371Y-45745290D01*
X71342133Y-45697671D01*
X71294514Y-45602433D01*
X71294514Y-45459576D01*
X71342133Y-45364338D01*
X71389752Y-45316719D01*
X71961180Y-46221480D02*
X71294514Y-46221480D01*
X71056419Y-45983385D02*
X71008800Y-46031004D01*
X70961180Y-46126242D01*
X71056419Y-46316719D01*
X71008800Y-46411957D01*
X70961180Y-46459576D01*
X71961180Y-47126242D02*
X71437371Y-47126242D01*
X71342133Y-47078623D01*
X71294514Y-46983385D01*
X71294514Y-46792909D01*
X71342133Y-46697671D01*
X71913561Y-47126242D02*
X71961180Y-47031004D01*
X71961180Y-46792909D01*
X71913561Y-46697671D01*
X71818323Y-46650052D01*
X71723085Y-46650052D01*
X71627847Y-46697671D01*
X71580228Y-46792909D01*
X71580228Y-47031004D01*
X71532609Y-47126242D01*
X71961180Y-48792909D02*
X70961180Y-48792909D01*
X71913561Y-48792909D02*
X71961180Y-48697671D01*
X71961180Y-48507195D01*
X71913561Y-48411957D01*
X71865942Y-48364338D01*
X71770704Y-48316719D01*
X71484990Y-48316719D01*
X71389752Y-48364338D01*
X71342133Y-48411957D01*
X71294514Y-48507195D01*
X71294514Y-48697671D01*
X71342133Y-48792909D01*
X71056419Y-48554814D02*
X71056419Y-48935766D01*
X71913561Y-49650052D02*
X71961180Y-49554814D01*
X71961180Y-49364338D01*
X71913561Y-49269099D01*
X71818323Y-49221480D01*
X71437371Y-49221480D01*
X71342133Y-49269099D01*
X71294514Y-49364338D01*
X71294514Y-49554814D01*
X71342133Y-49650052D01*
X71437371Y-49697671D01*
X71532609Y-49697671D01*
X71627847Y-49221480D01*
X71056419Y-49269099D02*
X70913561Y-49459576D01*
X71056419Y-49650052D01*
X71056419Y-49745290D02*
X70961180Y-49840528D01*
X70865942Y-49888147D01*
X70770704Y-49840528D01*
X70723085Y-49745290D01*
X70723085Y-49650052D01*
X71294514Y-50745290D02*
X71294514Y-51126242D01*
X70961180Y-50888147D02*
X71818323Y-50888147D01*
X71913561Y-50935766D01*
X71961180Y-51031004D01*
X71961180Y-51126242D01*
X71961180Y-51459576D02*
X70961180Y-51459576D01*
X71961180Y-51888147D02*
X71437371Y-51888147D01*
X71342133Y-51840528D01*
X71294514Y-51745290D01*
X71294514Y-51602433D01*
X71342133Y-51507195D01*
X71389752Y-51459576D01*
X71961180Y-52792909D02*
X71437371Y-52792909D01*
X71342133Y-52745290D01*
X71294514Y-52650052D01*
X71294514Y-52459576D01*
X71342133Y-52364338D01*
X71913561Y-52792909D02*
X71961180Y-52697671D01*
X71961180Y-52459576D01*
X71913561Y-52364338D01*
X71818323Y-52316719D01*
X71723085Y-52316719D01*
X71627847Y-52364338D01*
X71580228Y-52459576D01*
X71580228Y-52697671D01*
X71532609Y-52792909D01*
X70913561Y-52364338D02*
X71008800Y-52411957D01*
X71056419Y-52507195D01*
X71056419Y-52602433D01*
X71008800Y-52697671D01*
X70913561Y-52745290D01*
X70580228Y-52650052D02*
X70723085Y-52507195D01*
X71294514Y-53269099D02*
X71961180Y-53269099D01*
X71389752Y-53269099D02*
X71342133Y-53316719D01*
X71294514Y-53411957D01*
X71294514Y-53554814D01*
X71342133Y-53650052D01*
X71437371Y-53697671D01*
X71961180Y-53697671D01*
X71294514Y-54602433D02*
X72104038Y-54602433D01*
X72199276Y-54554814D01*
X72246895Y-54507195D01*
X72294514Y-54411957D01*
X72294514Y-54269099D01*
X72246895Y-54173861D01*
X71913561Y-54602433D02*
X71961180Y-54507195D01*
X71961180Y-54316719D01*
X71913561Y-54221480D01*
X71865942Y-54173861D01*
X71770704Y-54126242D01*
X71484990Y-54126242D01*
X71389752Y-54173861D01*
X71342133Y-54221480D01*
X71294514Y-54316719D01*
X71294514Y-54507195D01*
X71342133Y-54602433D01*
X71961180Y-55840528D02*
X70961180Y-55840528D01*
X71961180Y-56269099D02*
X71437371Y-56269099D01*
X71342133Y-56221480D01*
X71294514Y-56126242D01*
X71294514Y-55983385D01*
X71342133Y-55888147D01*
X71389752Y-55840528D01*
X71294514Y-57173861D02*
X71961180Y-57173861D01*
X71294514Y-56745290D02*
X71818323Y-56745290D01*
X71913561Y-56792909D01*
X71961180Y-56888147D01*
X71961180Y-57031004D01*
X71913561Y-57126242D01*
X71865942Y-57173861D01*
X71294514Y-57650052D02*
X71961180Y-57650052D01*
X71389752Y-57650052D02*
X71342133Y-57697671D01*
X71294514Y-57792909D01*
X71294514Y-57935766D01*
X71342133Y-58031004D01*
X71437371Y-58078623D01*
X71961180Y-58078623D01*
X71294514Y-58983385D02*
X72104038Y-58983385D01*
X72199276Y-58935766D01*
X72246895Y-58888147D01*
X72294514Y-58792909D01*
X72294514Y-58650052D01*
X72246895Y-58554814D01*
X71913561Y-58983385D02*
X71961180Y-58888147D01*
X71961180Y-58697671D01*
X71913561Y-58602433D01*
X71865942Y-58554814D01*
X71770704Y-58507195D01*
X71484990Y-58507195D01*
X71389752Y-58554814D01*
X71342133Y-58602433D01*
X71294514Y-58697671D01*
X71294514Y-58888147D01*
X71342133Y-58983385D01*
X71294514Y-60078623D02*
X71294514Y-60459576D01*
X70961180Y-60221480D02*
X71818323Y-60221480D01*
X71913561Y-60269099D01*
X71961180Y-60364338D01*
X71961180Y-60459576D01*
X71961180Y-61221480D02*
X71437371Y-61221480D01*
X71342133Y-61173861D01*
X71294514Y-61078623D01*
X71294514Y-60888147D01*
X71342133Y-60792909D01*
X71913561Y-61221480D02*
X71961180Y-61126242D01*
X71961180Y-60888147D01*
X71913561Y-60792909D01*
X71818323Y-60745290D01*
X71723085Y-60745290D01*
X71627847Y-60792909D01*
X71580228Y-60888147D01*
X71580228Y-61126242D01*
X71532609Y-61221480D01*
X70913561Y-60888147D02*
X71056419Y-61031004D01*
X71294514Y-61697671D02*
X71961180Y-61697671D01*
X71389752Y-61697671D02*
X71342133Y-61745290D01*
X71294514Y-61840528D01*
X71294514Y-61983385D01*
X71342133Y-62078623D01*
X71437371Y-62126242D01*
X71961180Y-62126242D01*
X71913561Y-62650052D02*
X71961180Y-62650052D01*
X72056419Y-62602433D01*
X72104038Y-62554814D01*
X73571180Y-36983385D02*
X73571180Y-36507195D01*
X72571180Y-36507195D01*
X73571180Y-37745290D02*
X73047371Y-37745290D01*
X72952133Y-37697671D01*
X72904514Y-37602433D01*
X72904514Y-37411957D01*
X72952133Y-37316719D01*
X73523561Y-37745290D02*
X73571180Y-37650052D01*
X73571180Y-37411957D01*
X73523561Y-37316719D01*
X73428323Y-37269100D01*
X73333085Y-37269100D01*
X73237847Y-37316719D01*
X73190228Y-37411957D01*
X73190228Y-37650052D01*
X73142609Y-37745290D01*
X72523561Y-37650052D02*
X72380704Y-37792909D01*
X72666419Y-37316719D02*
X72523561Y-37507195D01*
X72666419Y-37697671D01*
X72904514Y-38126242D02*
X73571180Y-38364338D01*
X72904514Y-38602433D02*
X73571180Y-38364338D01*
X73809276Y-38269100D01*
X73856895Y-38221480D01*
X73904514Y-38126242D01*
X73523561Y-40173861D02*
X73571180Y-40078623D01*
X73571180Y-39888147D01*
X73523561Y-39792909D01*
X73475942Y-39745290D01*
X73380704Y-39697671D01*
X73094990Y-39697671D01*
X72999752Y-39745290D01*
X72952133Y-39792909D01*
X72904514Y-39888147D01*
X72904514Y-40078623D01*
X72952133Y-40173861D01*
X73571180Y-40602433D02*
X72571180Y-40602433D01*
X73571180Y-41031004D02*
X73047371Y-41031004D01*
X72952133Y-40983385D01*
X72904514Y-40888147D01*
X72904514Y-40745290D01*
X72952133Y-40650052D01*
X72999752Y-40602433D01*
X73571180Y-41507195D02*
X72904514Y-41507195D01*
X72523561Y-41602433D02*
X72666419Y-41459576D01*
X72904514Y-42745290D02*
X73571180Y-42745290D01*
X72999752Y-42745290D02*
X72952133Y-42792909D01*
X72904514Y-42888147D01*
X72904514Y-43031004D01*
X72952133Y-43126242D01*
X73047371Y-43173861D01*
X73571180Y-43173861D01*
X73571180Y-43650052D02*
X72571180Y-43650052D01*
X73571180Y-44078623D02*
X73047371Y-44078623D01*
X72952133Y-44031004D01*
X72904514Y-43935766D01*
X72904514Y-43792909D01*
X72952133Y-43697671D01*
X72999752Y-43650052D01*
X73571180Y-44983385D02*
X73047371Y-44983385D01*
X72952133Y-44935766D01*
X72904514Y-44840528D01*
X72904514Y-44650052D01*
X72952133Y-44554814D01*
X73523561Y-44983385D02*
X73571180Y-44888147D01*
X73571180Y-44650052D01*
X73523561Y-44554814D01*
X73428323Y-44507195D01*
X73333085Y-44507195D01*
X73237847Y-44554814D01*
X73190228Y-44650052D01*
X73190228Y-44888147D01*
X73142609Y-44983385D01*
X72666419Y-44554814D02*
X72523561Y-44745290D01*
X72666419Y-44935766D01*
X72904514Y-45459576D02*
X73571180Y-45459576D01*
X72999752Y-45459576D02*
X72952133Y-45507195D01*
X72904514Y-45602433D01*
X72904514Y-45745290D01*
X72952133Y-45840528D01*
X73047371Y-45888147D01*
X73571180Y-45888147D01*
X73571180Y-47554814D02*
X72571180Y-47554814D01*
X73523561Y-47554814D02*
X73571180Y-47459576D01*
X73571180Y-47269099D01*
X73523561Y-47173861D01*
X73475942Y-47126242D01*
X73380704Y-47078623D01*
X73094990Y-47078623D01*
X72999752Y-47126242D01*
X72952133Y-47173861D01*
X72904514Y-47269099D01*
X72904514Y-47459576D01*
X72952133Y-47554814D01*
X72666419Y-47316719D02*
X72666419Y-47697671D01*
X73523561Y-48411957D02*
X73571180Y-48316719D01*
X73571180Y-48126242D01*
X73523561Y-48031004D01*
X73428323Y-47983385D01*
X73047371Y-47983385D01*
X72952133Y-48031004D01*
X72904514Y-48126242D01*
X72904514Y-48316719D01*
X72952133Y-48411957D01*
X73047371Y-48459576D01*
X73142609Y-48459576D01*
X73237847Y-47983385D01*
X72666419Y-48031004D02*
X72523561Y-48221480D01*
X72666419Y-48411957D01*
X72666419Y-48507195D02*
X72571180Y-48602433D01*
X72475942Y-48650052D01*
X72380704Y-48602433D01*
X72333085Y-48507195D01*
X72333085Y-48411957D01*
X72904514Y-49507195D02*
X72904514Y-49888147D01*
X72571180Y-49650052D02*
X73428323Y-49650052D01*
X73523561Y-49697671D01*
X73571180Y-49792909D01*
X73571180Y-49888147D01*
X73571180Y-50221480D02*
X72571180Y-50221480D01*
X73571180Y-50650052D02*
X73047371Y-50650052D01*
X72952133Y-50602433D01*
X72904514Y-50507195D01*
X72904514Y-50364338D01*
X72952133Y-50269099D01*
X72999752Y-50221480D01*
X73571180Y-51554814D02*
X73047371Y-51554814D01*
X72952133Y-51507195D01*
X72904514Y-51411957D01*
X72904514Y-51221480D01*
X72952133Y-51126242D01*
X73523561Y-51554814D02*
X73571180Y-51459576D01*
X73571180Y-51221480D01*
X73523561Y-51126242D01*
X73428323Y-51078623D01*
X73333085Y-51078623D01*
X73237847Y-51126242D01*
X73190228Y-51221480D01*
X73190228Y-51459576D01*
X73142609Y-51554814D01*
X72904514Y-51935766D02*
X73571180Y-52173861D01*
X72904514Y-52411957D02*
X73571180Y-52173861D01*
X73809276Y-52078623D01*
X73856895Y-52031004D01*
X73904514Y-51935766D01*
X73523561Y-53983385D02*
X73571180Y-53888147D01*
X73571180Y-53697671D01*
X73523561Y-53602433D01*
X73475942Y-53554814D01*
X73380704Y-53507195D01*
X73094990Y-53507195D01*
X72999752Y-53554814D01*
X72952133Y-53602433D01*
X72904514Y-53697671D01*
X72904514Y-53888147D01*
X72952133Y-53983385D01*
X72904514Y-54840528D02*
X73571180Y-54840528D01*
X72904514Y-54411957D02*
X73428323Y-54411957D01*
X73523561Y-54459576D01*
X73571180Y-54554814D01*
X73571180Y-54697671D01*
X73523561Y-54792909D01*
X73475942Y-54840528D01*
X72904514Y-54840528D02*
X72856895Y-54935766D01*
X72761657Y-54983385D01*
X72666419Y-54935766D01*
X72618800Y-54888147D01*
X73571180Y-55459576D02*
X73523561Y-55364338D01*
X73475942Y-55316719D01*
X73380704Y-55269099D01*
X73094990Y-55269099D01*
X72999752Y-55316719D01*
X72952133Y-55364338D01*
X72904514Y-55459576D01*
X72904514Y-55602433D01*
X72952133Y-55697671D01*
X72999752Y-55745290D01*
X73094990Y-55792909D01*
X73380704Y-55792909D01*
X73475942Y-55745290D01*
X73523561Y-55697671D01*
X73571180Y-55602433D01*
X73571180Y-55459576D01*
X72952133Y-55697671D02*
X72904514Y-55792909D01*
X72809276Y-55840528D01*
X72714038Y-55792909D01*
X72666419Y-55745290D01*
X72523561Y-55459576D02*
X72666419Y-55602433D01*
X72904514Y-56221480D02*
X73571180Y-56221480D01*
X72999752Y-56221480D02*
X72952133Y-56269099D01*
X72904514Y-56364338D01*
X72904514Y-56507195D01*
X72952133Y-56602433D01*
X73047371Y-56650052D01*
X73571180Y-56650052D01*
X72904514Y-57554814D02*
X73714038Y-57554814D01*
X73809276Y-57507195D01*
X73856895Y-57459576D01*
X73904514Y-57364338D01*
X73904514Y-57221480D01*
X73856895Y-57126242D01*
X73523561Y-57554814D02*
X73571180Y-57459576D01*
X73571180Y-57269099D01*
X73523561Y-57173861D01*
X73475942Y-57126242D01*
X73380704Y-57078623D01*
X73094990Y-57078623D01*
X72999752Y-57126242D01*
X72952133Y-57173861D01*
X72904514Y-57269099D01*
X72904514Y-57459576D01*
X72952133Y-57554814D01*
X73571180Y-58792909D02*
X72571180Y-58792909D01*
X72952133Y-58792909D02*
X72904514Y-58888147D01*
X72904514Y-59078623D01*
X72952133Y-59173861D01*
X72999752Y-59221480D01*
X73094990Y-59269099D01*
X73380704Y-59269099D01*
X73475942Y-59221480D01*
X73523561Y-59173861D01*
X73571180Y-59078623D01*
X73571180Y-58888147D01*
X73523561Y-58792909D01*
X73571180Y-60126242D02*
X73047371Y-60126242D01*
X72952133Y-60078623D01*
X72904514Y-59983385D01*
X72904514Y-59792909D01*
X72952133Y-59697671D01*
X73523561Y-60126242D02*
X73571180Y-60031004D01*
X73571180Y-59792909D01*
X73523561Y-59697671D01*
X73428323Y-59650052D01*
X73333085Y-59650052D01*
X73237847Y-59697671D01*
X73190228Y-59792909D01*
X73190228Y-60031004D01*
X73142609Y-60126242D01*
X73904514Y-59888147D02*
X73856895Y-59935766D01*
X73809276Y-59888147D01*
X73856895Y-59840528D01*
X73904514Y-59888147D01*
X73809276Y-59888147D01*
X73571180Y-60745290D02*
X73523561Y-60650052D01*
X73475942Y-60602433D01*
X73380704Y-60554814D01*
X73094990Y-60554814D01*
X72999752Y-60602433D01*
X72952133Y-60650052D01*
X72904514Y-60745290D01*
X72904514Y-60888147D01*
X72952133Y-60983385D01*
X72999752Y-61031004D01*
X73094990Y-61078623D01*
X73380704Y-61078623D01*
X73475942Y-61031004D01*
X73523561Y-60983385D01*
X73571180Y-60888147D01*
X73571180Y-60745290D01*
X73475942Y-61507195D02*
X73523561Y-61554814D01*
X73571180Y-61507195D01*
X73523561Y-61459576D01*
X73475942Y-61507195D01*
X73571180Y-61507195D01*
D10*
X66264285Y-50063200D02*
X66264285Y-50134628D01*
X66300000Y-50206057D01*
X66335714Y-50241771D01*
X66407142Y-50277485D01*
X66550000Y-50313200D01*
X66728571Y-50313200D01*
X66871428Y-50277485D01*
X66942857Y-50241771D01*
X66978571Y-50206057D01*
X67014285Y-50134628D01*
X67014285Y-50063200D01*
X66978571Y-49991771D01*
X66942857Y-49956057D01*
X66871428Y-49920342D01*
X66728571Y-49884628D01*
X66550000Y-49884628D01*
X66407142Y-49920342D01*
X66335714Y-49956057D01*
X66300000Y-49991771D01*
X66264285Y-50063200D01*
X66335714Y-50598914D02*
X66300000Y-50634628D01*
X66264285Y-50706057D01*
X66264285Y-50884628D01*
X66300000Y-50956057D01*
X66335714Y-50991771D01*
X66407142Y-51027485D01*
X66478571Y-51027485D01*
X66585714Y-50991771D01*
X67014285Y-50563200D01*
X67014285Y-51027485D01*
X67014285Y-51741771D02*
X67014285Y-51313200D01*
X67014285Y-51527485D02*
X66264285Y-51527485D01*
X66371428Y-51456057D01*
X66442857Y-51384628D01*
X66478571Y-51313200D01*
X86064285Y-42693200D02*
X86064285Y-42264628D01*
X86064285Y-42478914D02*
X85314285Y-42478914D01*
X85421428Y-42407485D01*
X85492857Y-42336057D01*
X85528571Y-42264628D01*
X85314285Y-43157485D02*
X85314285Y-43228914D01*
X85350000Y-43300342D01*
X85385714Y-43336057D01*
X85457142Y-43371771D01*
X85600000Y-43407485D01*
X85778571Y-43407485D01*
X85921428Y-43371771D01*
X85992857Y-43336057D01*
X86028571Y-43300342D01*
X86064285Y-43228914D01*
X86064285Y-43157485D01*
X86028571Y-43086057D01*
X85992857Y-43050342D01*
X85921428Y-43014628D01*
X85778571Y-42978914D01*
X85600000Y-42978914D01*
X85457142Y-43014628D01*
X85385714Y-43050342D01*
X85350000Y-43086057D01*
X85314285Y-43157485D01*
X85635714Y-43836057D02*
X85600000Y-43764628D01*
X85564285Y-43728914D01*
X85492857Y-43693200D01*
X85457142Y-43693200D01*
X85385714Y-43728914D01*
X85350000Y-43764628D01*
X85314285Y-43836057D01*
X85314285Y-43978914D01*
X85350000Y-44050342D01*
X85385714Y-44086057D01*
X85457142Y-44121771D01*
X85492857Y-44121771D01*
X85564285Y-44086057D01*
X85600000Y-44050342D01*
X85635714Y-43978914D01*
X85635714Y-43836057D01*
X85671428Y-43764628D01*
X85707142Y-43728914D01*
X85778571Y-43693200D01*
X85921428Y-43693200D01*
X85992857Y-43728914D01*
X86028571Y-43764628D01*
X86064285Y-43836057D01*
X86064285Y-43978914D01*
X86028571Y-44050342D01*
X85992857Y-44086057D01*
X85921428Y-44121771D01*
X85778571Y-44121771D01*
X85707142Y-44086057D01*
X85671428Y-44050342D01*
X85635714Y-43978914D01*
X66264285Y-34823200D02*
X66264285Y-34894628D01*
X66300000Y-34966057D01*
X66335714Y-35001771D01*
X66407142Y-35037485D01*
X66550000Y-35073200D01*
X66728571Y-35073200D01*
X66871428Y-35037485D01*
X66942857Y-35001771D01*
X66978571Y-34966057D01*
X67014285Y-34894628D01*
X67014285Y-34823200D01*
X66978571Y-34751771D01*
X66942857Y-34716057D01*
X66871428Y-34680342D01*
X66728571Y-34644628D01*
X66550000Y-34644628D01*
X66407142Y-34680342D01*
X66335714Y-34716057D01*
X66300000Y-34751771D01*
X66264285Y-34823200D01*
X67014285Y-35787485D02*
X67014285Y-35358914D01*
X67014285Y-35573200D02*
X66264285Y-35573200D01*
X66371428Y-35501771D01*
X66442857Y-35430342D01*
X66478571Y-35358914D01*
X67014285Y-36144628D02*
X67014285Y-36287485D01*
X66978571Y-36358914D01*
X66942857Y-36394628D01*
X66835714Y-36466057D01*
X66692857Y-36501771D01*
X66407142Y-36501771D01*
X66335714Y-36466057D01*
X66300000Y-36430342D01*
X66264285Y-36358914D01*
X66264285Y-36216057D01*
X66300000Y-36144628D01*
X66335714Y-36108914D01*
X66407142Y-36073200D01*
X66585714Y-36073200D01*
X66657142Y-36108914D01*
X66692857Y-36144628D01*
X66728571Y-36216057D01*
X66728571Y-36358914D01*
X66692857Y-36430342D01*
X66657142Y-36466057D01*
X66585714Y-36501771D01*
X66264285Y-57683200D02*
X66264285Y-57754628D01*
X66300000Y-57826057D01*
X66335714Y-57861771D01*
X66407142Y-57897485D01*
X66550000Y-57933200D01*
X66728571Y-57933200D01*
X66871428Y-57897485D01*
X66942857Y-57861771D01*
X66978571Y-57826057D01*
X67014285Y-57754628D01*
X67014285Y-57683200D01*
X66978571Y-57611771D01*
X66942857Y-57576057D01*
X66871428Y-57540342D01*
X66728571Y-57504628D01*
X66550000Y-57504628D01*
X66407142Y-57540342D01*
X66335714Y-57576057D01*
X66300000Y-57611771D01*
X66264285Y-57683200D01*
X66335714Y-58218914D02*
X66300000Y-58254628D01*
X66264285Y-58326057D01*
X66264285Y-58504628D01*
X66300000Y-58576057D01*
X66335714Y-58611771D01*
X66407142Y-58647485D01*
X66478571Y-58647485D01*
X66585714Y-58611771D01*
X67014285Y-58183200D01*
X67014285Y-58647485D01*
X66335714Y-58933200D02*
X66300000Y-58968914D01*
X66264285Y-59040342D01*
X66264285Y-59218914D01*
X66300000Y-59290342D01*
X66335714Y-59326057D01*
X66407142Y-59361771D01*
X66478571Y-59361771D01*
X66585714Y-59326057D01*
X67014285Y-58897485D01*
X67014285Y-59361771D01*
X85314285Y-70383200D02*
X85314285Y-70454628D01*
X85350000Y-70526057D01*
X85385714Y-70561771D01*
X85457142Y-70597485D01*
X85600000Y-70633200D01*
X85778571Y-70633200D01*
X85921428Y-70597485D01*
X85992857Y-70561771D01*
X86028571Y-70526057D01*
X86064285Y-70454628D01*
X86064285Y-70383200D01*
X86028571Y-70311771D01*
X85992857Y-70276057D01*
X85921428Y-70240342D01*
X85778571Y-70204628D01*
X85600000Y-70204628D01*
X85457142Y-70240342D01*
X85385714Y-70276057D01*
X85350000Y-70311771D01*
X85314285Y-70383200D01*
X86064285Y-71347485D02*
X86064285Y-70918914D01*
X86064285Y-71133200D02*
X85314285Y-71133200D01*
X85421428Y-71061771D01*
X85492857Y-70990342D01*
X85528571Y-70918914D01*
X85314285Y-71811771D02*
X85314285Y-71883200D01*
X85350000Y-71954628D01*
X85385714Y-71990342D01*
X85457142Y-72026057D01*
X85600000Y-72061771D01*
X85778571Y-72061771D01*
X85921428Y-72026057D01*
X85992857Y-71990342D01*
X86028571Y-71954628D01*
X86064285Y-71883200D01*
X86064285Y-71811771D01*
X86028571Y-71740342D01*
X85992857Y-71704628D01*
X85921428Y-71668914D01*
X85778571Y-71633200D01*
X85600000Y-71633200D01*
X85457142Y-71668914D01*
X85385714Y-71704628D01*
X85350000Y-71740342D01*
X85314285Y-71811771D01*
X66264285Y-24663200D02*
X66264285Y-24734628D01*
X66300000Y-24806057D01*
X66335714Y-24841771D01*
X66407142Y-24877485D01*
X66550000Y-24913200D01*
X66728571Y-24913200D01*
X66871428Y-24877485D01*
X66942857Y-24841771D01*
X66978571Y-24806057D01*
X67014285Y-24734628D01*
X67014285Y-24663200D01*
X66978571Y-24591771D01*
X66942857Y-24556057D01*
X66871428Y-24520342D01*
X66728571Y-24484628D01*
X66550000Y-24484628D01*
X66407142Y-24520342D01*
X66335714Y-24556057D01*
X66300000Y-24591771D01*
X66264285Y-24663200D01*
X66264285Y-25377485D02*
X66264285Y-25448914D01*
X66300000Y-25520342D01*
X66335714Y-25556057D01*
X66407142Y-25591771D01*
X66550000Y-25627485D01*
X66728571Y-25627485D01*
X66871428Y-25591771D01*
X66942857Y-25556057D01*
X66978571Y-25520342D01*
X67014285Y-25448914D01*
X67014285Y-25377485D01*
X66978571Y-25306057D01*
X66942857Y-25270342D01*
X66871428Y-25234628D01*
X66728571Y-25198914D01*
X66550000Y-25198914D01*
X66407142Y-25234628D01*
X66335714Y-25270342D01*
X66300000Y-25306057D01*
X66264285Y-25377485D01*
X67014285Y-25984628D02*
X67014285Y-26127485D01*
X66978571Y-26198914D01*
X66942857Y-26234628D01*
X66835714Y-26306057D01*
X66692857Y-26341771D01*
X66407142Y-26341771D01*
X66335714Y-26306057D01*
X66300000Y-26270342D01*
X66264285Y-26198914D01*
X66264285Y-26056057D01*
X66300000Y-25984628D01*
X66335714Y-25948914D01*
X66407142Y-25913200D01*
X66585714Y-25913200D01*
X66657142Y-25948914D01*
X66692857Y-25984628D01*
X66728571Y-26056057D01*
X66728571Y-26198914D01*
X66692857Y-26270342D01*
X66657142Y-26306057D01*
X66585714Y-26341771D01*
X85314285Y-57683200D02*
X85314285Y-57754628D01*
X85350000Y-57826057D01*
X85385714Y-57861771D01*
X85457142Y-57897485D01*
X85600000Y-57933200D01*
X85778571Y-57933200D01*
X85921428Y-57897485D01*
X85992857Y-57861771D01*
X86028571Y-57826057D01*
X86064285Y-57754628D01*
X86064285Y-57683200D01*
X86028571Y-57611771D01*
X85992857Y-57576057D01*
X85921428Y-57540342D01*
X85778571Y-57504628D01*
X85600000Y-57504628D01*
X85457142Y-57540342D01*
X85385714Y-57576057D01*
X85350000Y-57611771D01*
X85314285Y-57683200D01*
X85385714Y-58218914D02*
X85350000Y-58254628D01*
X85314285Y-58326057D01*
X85314285Y-58504628D01*
X85350000Y-58576057D01*
X85385714Y-58611771D01*
X85457142Y-58647485D01*
X85528571Y-58647485D01*
X85635714Y-58611771D01*
X86064285Y-58183200D01*
X86064285Y-58647485D01*
X85314285Y-58897485D02*
X85314285Y-59397485D01*
X86064285Y-59076057D01*
X66720773Y-67628914D02*
X66720773Y-68200342D01*
X67006487Y-67914628D02*
X66435059Y-67914628D01*
X66256487Y-68914628D02*
X66256487Y-68557485D01*
X66613630Y-68521771D01*
X66577916Y-68557485D01*
X66542202Y-68628914D01*
X66542202Y-68807485D01*
X66577916Y-68878914D01*
X66613630Y-68914628D01*
X66685059Y-68950342D01*
X66863630Y-68950342D01*
X66935059Y-68914628D01*
X66970773Y-68878914D01*
X67006487Y-68807485D01*
X67006487Y-68628914D01*
X66970773Y-68557485D01*
X66935059Y-68521771D01*
X66256487Y-69164628D02*
X67006487Y-69414628D01*
X66256487Y-69664628D01*
X85314285Y-60223200D02*
X85314285Y-60294628D01*
X85350000Y-60366057D01*
X85385714Y-60401771D01*
X85457142Y-60437485D01*
X85600000Y-60473200D01*
X85778571Y-60473200D01*
X85921428Y-60437485D01*
X85992857Y-60401771D01*
X86028571Y-60366057D01*
X86064285Y-60294628D01*
X86064285Y-60223200D01*
X86028571Y-60151771D01*
X85992857Y-60116057D01*
X85921428Y-60080342D01*
X85778571Y-60044628D01*
X85600000Y-60044628D01*
X85457142Y-60080342D01*
X85385714Y-60116057D01*
X85350000Y-60151771D01*
X85314285Y-60223200D01*
X85314285Y-60937485D02*
X85314285Y-61008914D01*
X85350000Y-61080342D01*
X85385714Y-61116057D01*
X85457142Y-61151771D01*
X85600000Y-61187485D01*
X85778571Y-61187485D01*
X85921428Y-61151771D01*
X85992857Y-61116057D01*
X86028571Y-61080342D01*
X86064285Y-61008914D01*
X86064285Y-60937485D01*
X86028571Y-60866057D01*
X85992857Y-60830342D01*
X85921428Y-60794628D01*
X85778571Y-60758914D01*
X85600000Y-60758914D01*
X85457142Y-60794628D01*
X85385714Y-60830342D01*
X85350000Y-60866057D01*
X85314285Y-60937485D01*
X85314285Y-61866057D02*
X85314285Y-61508914D01*
X85671428Y-61473200D01*
X85635714Y-61508914D01*
X85600000Y-61580342D01*
X85600000Y-61758914D01*
X85635714Y-61830342D01*
X85671428Y-61866057D01*
X85742857Y-61901771D01*
X85921428Y-61901771D01*
X85992857Y-61866057D01*
X86028571Y-61830342D01*
X86064285Y-61758914D01*
X86064285Y-61580342D01*
X86028571Y-61508914D01*
X85992857Y-61473200D01*
X85778571Y-24448914D02*
X85778571Y-25020342D01*
X86064285Y-24734628D02*
X85492857Y-24734628D01*
X85314285Y-25734628D02*
X85314285Y-25377485D01*
X85671428Y-25341771D01*
X85635714Y-25377485D01*
X85600000Y-25448914D01*
X85600000Y-25627485D01*
X85635714Y-25698914D01*
X85671428Y-25734628D01*
X85742857Y-25770342D01*
X85921428Y-25770342D01*
X85992857Y-25734628D01*
X86028571Y-25698914D01*
X86064285Y-25627485D01*
X86064285Y-25448914D01*
X86028571Y-25377485D01*
X85992857Y-25341771D01*
X85314285Y-25984628D02*
X86064285Y-26234628D01*
X85314285Y-26484628D01*
X85302588Y-55151214D02*
X85302588Y-55222642D01*
X85338303Y-55294071D01*
X85374017Y-55329785D01*
X85445445Y-55365499D01*
X85588303Y-55401214D01*
X85766874Y-55401214D01*
X85909731Y-55365499D01*
X85981160Y-55329785D01*
X86016874Y-55294071D01*
X86052588Y-55222642D01*
X86052588Y-55151214D01*
X86016874Y-55079785D01*
X85981160Y-55044071D01*
X85909731Y-55008356D01*
X85766874Y-54972642D01*
X85588303Y-54972642D01*
X85445445Y-55008356D01*
X85374017Y-55044071D01*
X85338303Y-55079785D01*
X85302588Y-55151214D01*
X85374017Y-55686928D02*
X85338303Y-55722642D01*
X85302588Y-55794071D01*
X85302588Y-55972642D01*
X85338303Y-56044071D01*
X85374017Y-56079785D01*
X85445445Y-56115499D01*
X85516874Y-56115499D01*
X85624017Y-56079785D01*
X86052588Y-55651214D01*
X86052588Y-56115499D01*
X85302588Y-56758356D02*
X85302588Y-56615499D01*
X85338303Y-56544071D01*
X85374017Y-56508356D01*
X85481160Y-56436928D01*
X85624017Y-56401214D01*
X85909731Y-56401214D01*
X85981160Y-56436928D01*
X86016874Y-56472642D01*
X86052588Y-56544071D01*
X86052588Y-56686928D01*
X86016874Y-56758356D01*
X85981160Y-56794071D01*
X85909731Y-56829785D01*
X85731160Y-56829785D01*
X85659731Y-56794071D01*
X85624017Y-56758356D01*
X85588303Y-56686928D01*
X85588303Y-56544071D01*
X85624017Y-56472642D01*
X85659731Y-56436928D01*
X85731160Y-56401214D01*
X85314285Y-29493200D02*
X86064285Y-29743200D01*
X85314285Y-29993200D01*
X85992857Y-30671771D02*
X86028571Y-30636057D01*
X86064285Y-30528914D01*
X86064285Y-30457485D01*
X86028571Y-30350342D01*
X85957142Y-30278914D01*
X85885714Y-30243200D01*
X85742857Y-30207485D01*
X85635714Y-30207485D01*
X85492857Y-30243200D01*
X85421428Y-30278914D01*
X85350000Y-30350342D01*
X85314285Y-30457485D01*
X85314285Y-30528914D01*
X85350000Y-30636057D01*
X85385714Y-30671771D01*
X85992857Y-31421771D02*
X86028571Y-31386057D01*
X86064285Y-31278914D01*
X86064285Y-31207485D01*
X86028571Y-31100342D01*
X85957142Y-31028914D01*
X85885714Y-30993200D01*
X85742857Y-30957485D01*
X85635714Y-30957485D01*
X85492857Y-30993200D01*
X85421428Y-31028914D01*
X85350000Y-31100342D01*
X85314285Y-31207485D01*
X85314285Y-31278914D01*
X85350000Y-31386057D01*
X85385714Y-31421771D01*
X66300000Y-70561771D02*
X66264285Y-70490342D01*
X66264285Y-70383200D01*
X66300000Y-70276057D01*
X66371428Y-70204628D01*
X66442857Y-70168914D01*
X66585714Y-70133200D01*
X66692857Y-70133200D01*
X66835714Y-70168914D01*
X66907142Y-70204628D01*
X66978571Y-70276057D01*
X67014285Y-70383200D01*
X67014285Y-70454628D01*
X66978571Y-70561771D01*
X66942857Y-70597485D01*
X66692857Y-70597485D01*
X66692857Y-70454628D01*
X67014285Y-70918914D02*
X66264285Y-70918914D01*
X67014285Y-71347485D01*
X66264285Y-71347485D01*
X67014285Y-71704628D02*
X66264285Y-71704628D01*
X66264285Y-71883200D01*
X66300000Y-71990342D01*
X66371428Y-72061771D01*
X66442857Y-72097485D01*
X66585714Y-72133200D01*
X66692857Y-72133200D01*
X66835714Y-72097485D01*
X66907142Y-72061771D01*
X66978571Y-71990342D01*
X67014285Y-71883200D01*
X67014285Y-71704628D01*
X86064285Y-63102485D02*
X85707142Y-62852485D01*
X86064285Y-62673914D02*
X85314285Y-62673914D01*
X85314285Y-62959628D01*
X85350000Y-63031057D01*
X85385714Y-63066771D01*
X85457142Y-63102485D01*
X85564285Y-63102485D01*
X85635714Y-63066771D01*
X85671428Y-63031057D01*
X85707142Y-62959628D01*
X85707142Y-62673914D01*
X86028571Y-63388200D02*
X86064285Y-63495342D01*
X86064285Y-63673914D01*
X86028571Y-63745342D01*
X85992857Y-63781057D01*
X85921428Y-63816771D01*
X85850000Y-63816771D01*
X85778571Y-63781057D01*
X85742857Y-63745342D01*
X85707142Y-63673914D01*
X85671428Y-63531057D01*
X85635714Y-63459628D01*
X85600000Y-63423914D01*
X85528571Y-63388200D01*
X85457142Y-63388200D01*
X85385714Y-63423914D01*
X85350000Y-63459628D01*
X85314285Y-63531057D01*
X85314285Y-63709628D01*
X85350000Y-63816771D01*
X85314285Y-64031057D02*
X85314285Y-64459628D01*
X86064285Y-64245342D02*
X85314285Y-64245342D01*
X67014285Y-42532485D02*
X66264285Y-42532485D01*
X66264285Y-42711057D01*
X66300000Y-42818200D01*
X66371428Y-42889628D01*
X66442857Y-42925342D01*
X66585714Y-42961057D01*
X66692857Y-42961057D01*
X66835714Y-42925342D01*
X66907142Y-42889628D01*
X66978571Y-42818200D01*
X67014285Y-42711057D01*
X67014285Y-42532485D01*
X66728571Y-43282485D02*
X66728571Y-43853914D01*
X85314285Y-47533354D02*
X85314285Y-47604782D01*
X85350000Y-47676211D01*
X85385714Y-47711925D01*
X85457142Y-47747639D01*
X85600000Y-47783354D01*
X85778571Y-47783354D01*
X85921428Y-47747639D01*
X85992857Y-47711925D01*
X86028571Y-47676211D01*
X86064285Y-47604782D01*
X86064285Y-47533354D01*
X86028571Y-47461925D01*
X85992857Y-47426211D01*
X85921428Y-47390496D01*
X85778571Y-47354782D01*
X85600000Y-47354782D01*
X85457142Y-47390496D01*
X85385714Y-47426211D01*
X85350000Y-47461925D01*
X85314285Y-47533354D01*
X85314285Y-48247639D02*
X85314285Y-48319068D01*
X85350000Y-48390496D01*
X85385714Y-48426211D01*
X85457142Y-48461925D01*
X85600000Y-48497639D01*
X85778571Y-48497639D01*
X85921428Y-48461925D01*
X85992857Y-48426211D01*
X86028571Y-48390496D01*
X86064285Y-48319068D01*
X86064285Y-48247639D01*
X86028571Y-48176211D01*
X85992857Y-48140496D01*
X85921428Y-48104782D01*
X85778571Y-48069068D01*
X85600000Y-48069068D01*
X85457142Y-48104782D01*
X85385714Y-48140496D01*
X85350000Y-48176211D01*
X85314285Y-48247639D01*
X85314285Y-48747639D02*
X85314285Y-49247639D01*
X86064285Y-48926211D01*
X85314285Y-65303200D02*
X85314285Y-65374628D01*
X85350000Y-65446057D01*
X85385714Y-65481771D01*
X85457142Y-65517485D01*
X85600000Y-65553200D01*
X85778571Y-65553200D01*
X85921428Y-65517485D01*
X85992857Y-65481771D01*
X86028571Y-65446057D01*
X86064285Y-65374628D01*
X86064285Y-65303200D01*
X86028571Y-65231771D01*
X85992857Y-65196057D01*
X85921428Y-65160342D01*
X85778571Y-65124628D01*
X85600000Y-65124628D01*
X85457142Y-65160342D01*
X85385714Y-65196057D01*
X85350000Y-65231771D01*
X85314285Y-65303200D01*
X85314285Y-66017485D02*
X85314285Y-66088914D01*
X85350000Y-66160342D01*
X85385714Y-66196057D01*
X85457142Y-66231771D01*
X85600000Y-66267485D01*
X85778571Y-66267485D01*
X85921428Y-66231771D01*
X85992857Y-66196057D01*
X86028571Y-66160342D01*
X86064285Y-66088914D01*
X86064285Y-66017485D01*
X86028571Y-65946057D01*
X85992857Y-65910342D01*
X85921428Y-65874628D01*
X85778571Y-65838914D01*
X85600000Y-65838914D01*
X85457142Y-65874628D01*
X85385714Y-65910342D01*
X85350000Y-65946057D01*
X85314285Y-66017485D01*
X85314285Y-66731771D02*
X85314285Y-66803200D01*
X85350000Y-66874628D01*
X85385714Y-66910342D01*
X85457142Y-66946057D01*
X85600000Y-66981771D01*
X85778571Y-66981771D01*
X85921428Y-66946057D01*
X85992857Y-66910342D01*
X86028571Y-66874628D01*
X86064285Y-66803200D01*
X86064285Y-66731771D01*
X86028571Y-66660342D01*
X85992857Y-66624628D01*
X85921428Y-66588914D01*
X85778571Y-66553200D01*
X85600000Y-66553200D01*
X85457142Y-66588914D01*
X85385714Y-66624628D01*
X85350000Y-66660342D01*
X85314285Y-66731771D01*
X85302588Y-52613055D02*
X85302588Y-52684483D01*
X85338303Y-52755912D01*
X85374017Y-52791626D01*
X85445445Y-52827340D01*
X85588303Y-52863055D01*
X85766874Y-52863055D01*
X85909731Y-52827340D01*
X85981160Y-52791626D01*
X86016874Y-52755912D01*
X86052588Y-52684483D01*
X86052588Y-52613055D01*
X86016874Y-52541626D01*
X85981160Y-52505912D01*
X85909731Y-52470197D01*
X85766874Y-52434483D01*
X85588303Y-52434483D01*
X85445445Y-52470197D01*
X85374017Y-52505912D01*
X85338303Y-52541626D01*
X85302588Y-52613055D01*
X85302588Y-53113055D02*
X85302588Y-53577340D01*
X85588303Y-53327340D01*
X85588303Y-53434483D01*
X85624017Y-53505912D01*
X85659731Y-53541626D01*
X85731160Y-53577340D01*
X85909731Y-53577340D01*
X85981160Y-53541626D01*
X86016874Y-53505912D01*
X86052588Y-53434483D01*
X86052588Y-53220197D01*
X86016874Y-53148769D01*
X85981160Y-53113055D01*
X85302588Y-54041626D02*
X85302588Y-54113055D01*
X85338303Y-54184483D01*
X85374017Y-54220197D01*
X85445445Y-54255912D01*
X85588303Y-54291626D01*
X85766874Y-54291626D01*
X85909731Y-54255912D01*
X85981160Y-54220197D01*
X86016874Y-54184483D01*
X86052588Y-54113055D01*
X86052588Y-54041626D01*
X86016874Y-53970197D01*
X85981160Y-53934483D01*
X85909731Y-53898769D01*
X85766874Y-53863055D01*
X85588303Y-53863055D01*
X85445445Y-53898769D01*
X85374017Y-53934483D01*
X85338303Y-53970197D01*
X85302588Y-54041626D01*
X66256487Y-72675258D02*
X67006487Y-72925258D01*
X66256487Y-73175258D01*
X66935059Y-73853829D02*
X66970773Y-73818115D01*
X67006487Y-73710972D01*
X67006487Y-73639543D01*
X66970773Y-73532400D01*
X66899344Y-73460972D01*
X66827916Y-73425258D01*
X66685059Y-73389543D01*
X66577916Y-73389543D01*
X66435059Y-73425258D01*
X66363630Y-73460972D01*
X66292202Y-73532400D01*
X66256487Y-73639543D01*
X66256487Y-73710972D01*
X66292202Y-73818115D01*
X66327916Y-73853829D01*
X66935059Y-74603829D02*
X66970773Y-74568115D01*
X67006487Y-74460972D01*
X67006487Y-74389543D01*
X66970773Y-74282400D01*
X66899344Y-74210972D01*
X66827916Y-74175258D01*
X66685059Y-74139543D01*
X66577916Y-74139543D01*
X66435059Y-74175258D01*
X66363630Y-74210972D01*
X66292202Y-74282400D01*
X66256487Y-74389543D01*
X66256487Y-74460972D01*
X66292202Y-74568115D01*
X66327916Y-74603829D01*
X66264285Y-37363200D02*
X66264285Y-37434628D01*
X66300000Y-37506057D01*
X66335714Y-37541771D01*
X66407142Y-37577485D01*
X66550000Y-37613200D01*
X66728571Y-37613200D01*
X66871428Y-37577485D01*
X66942857Y-37541771D01*
X66978571Y-37506057D01*
X67014285Y-37434628D01*
X67014285Y-37363200D01*
X66978571Y-37291771D01*
X66942857Y-37256057D01*
X66871428Y-37220342D01*
X66728571Y-37184628D01*
X66550000Y-37184628D01*
X66407142Y-37220342D01*
X66335714Y-37256057D01*
X66300000Y-37291771D01*
X66264285Y-37363200D01*
X67014285Y-38327485D02*
X67014285Y-37898914D01*
X67014285Y-38113200D02*
X66264285Y-38113200D01*
X66371428Y-38041771D01*
X66442857Y-37970342D01*
X66478571Y-37898914D01*
X66264285Y-38577485D02*
X66264285Y-39041771D01*
X66550000Y-38791771D01*
X66550000Y-38898914D01*
X66585714Y-38970342D01*
X66621428Y-39006057D01*
X66692857Y-39041771D01*
X66871428Y-39041771D01*
X66942857Y-39006057D01*
X66978571Y-38970342D01*
X67014285Y-38898914D01*
X67014285Y-38684628D01*
X66978571Y-38613200D01*
X66942857Y-38577485D01*
X85314285Y-72441057D02*
X86064285Y-72691057D01*
X85314285Y-72941057D01*
X85671428Y-73441057D02*
X85707142Y-73548200D01*
X85742857Y-73583914D01*
X85814285Y-73619628D01*
X85921428Y-73619628D01*
X85992857Y-73583914D01*
X86028571Y-73548200D01*
X86064285Y-73476771D01*
X86064285Y-73191057D01*
X85314285Y-73191057D01*
X85314285Y-73441057D01*
X85350000Y-73512485D01*
X85385714Y-73548200D01*
X85457142Y-73583914D01*
X85528571Y-73583914D01*
X85600000Y-73548200D01*
X85635714Y-73512485D01*
X85671428Y-73441057D01*
X85671428Y-73191057D01*
X85850000Y-73905342D02*
X85850000Y-74262485D01*
X86064285Y-73833914D02*
X85314285Y-74083914D01*
X86064285Y-74333914D01*
X85314285Y-74476771D02*
X85314285Y-74905342D01*
X86064285Y-74691057D02*
X85314285Y-74691057D01*
X66264285Y-60223200D02*
X66264285Y-60294628D01*
X66300000Y-60366057D01*
X66335714Y-60401771D01*
X66407142Y-60437485D01*
X66550000Y-60473200D01*
X66728571Y-60473200D01*
X66871428Y-60437485D01*
X66942857Y-60401771D01*
X66978571Y-60366057D01*
X67014285Y-60294628D01*
X67014285Y-60223200D01*
X66978571Y-60151771D01*
X66942857Y-60116057D01*
X66871428Y-60080342D01*
X66728571Y-60044628D01*
X66550000Y-60044628D01*
X66407142Y-60080342D01*
X66335714Y-60116057D01*
X66300000Y-60151771D01*
X66264285Y-60223200D01*
X66335714Y-60758914D02*
X66300000Y-60794628D01*
X66264285Y-60866057D01*
X66264285Y-61044628D01*
X66300000Y-61116057D01*
X66335714Y-61151771D01*
X66407142Y-61187485D01*
X66478571Y-61187485D01*
X66585714Y-61151771D01*
X67014285Y-60723200D01*
X67014285Y-61187485D01*
X66514285Y-61830342D02*
X67014285Y-61830342D01*
X66228571Y-61651771D02*
X66764285Y-61473200D01*
X66764285Y-61937485D01*
X85314285Y-39906585D02*
X85314285Y-39978013D01*
X85350000Y-40049442D01*
X85385714Y-40085156D01*
X85457142Y-40120870D01*
X85600000Y-40156585D01*
X85778571Y-40156585D01*
X85921428Y-40120870D01*
X85992857Y-40085156D01*
X86028571Y-40049442D01*
X86064285Y-39978013D01*
X86064285Y-39906585D01*
X86028571Y-39835156D01*
X85992857Y-39799442D01*
X85921428Y-39763727D01*
X85778571Y-39728013D01*
X85600000Y-39728013D01*
X85457142Y-39763727D01*
X85385714Y-39799442D01*
X85350000Y-39835156D01*
X85314285Y-39906585D01*
X86064285Y-40870870D02*
X86064285Y-40442299D01*
X86064285Y-40656585D02*
X85314285Y-40656585D01*
X85421428Y-40585156D01*
X85492857Y-40513727D01*
X85528571Y-40442299D01*
X86064285Y-41585156D02*
X86064285Y-41156585D01*
X86064285Y-41370870D02*
X85314285Y-41370870D01*
X85421428Y-41299442D01*
X85492857Y-41228013D01*
X85528571Y-41156585D01*
X67014285Y-63013200D02*
X67014285Y-62584628D01*
X67014285Y-62798914D02*
X66264285Y-62798914D01*
X66371428Y-62727485D01*
X66442857Y-62656057D01*
X66478571Y-62584628D01*
X66264285Y-63477485D02*
X66264285Y-63548914D01*
X66300000Y-63620342D01*
X66335714Y-63656057D01*
X66407142Y-63691771D01*
X66550000Y-63727485D01*
X66728571Y-63727485D01*
X66871428Y-63691771D01*
X66942857Y-63656057D01*
X66978571Y-63620342D01*
X67014285Y-63548914D01*
X67014285Y-63477485D01*
X66978571Y-63406057D01*
X66942857Y-63370342D01*
X66871428Y-63334628D01*
X66728571Y-63298914D01*
X66550000Y-63298914D01*
X66407142Y-63334628D01*
X66335714Y-63370342D01*
X66300000Y-63406057D01*
X66264285Y-63477485D01*
X66264285Y-64191771D02*
X66264285Y-64263200D01*
X66300000Y-64334628D01*
X66335714Y-64370342D01*
X66407142Y-64406057D01*
X66550000Y-64441771D01*
X66728571Y-64441771D01*
X66871428Y-64406057D01*
X66942857Y-64370342D01*
X66978571Y-64334628D01*
X67014285Y-64263200D01*
X67014285Y-64191771D01*
X66978571Y-64120342D01*
X66942857Y-64084628D01*
X66871428Y-64048914D01*
X66728571Y-64013200D01*
X66550000Y-64013200D01*
X66407142Y-64048914D01*
X66335714Y-64084628D01*
X66300000Y-64120342D01*
X66264285Y-64191771D01*
D11*
X78204285Y-68271771D02*
X78161428Y-68228914D01*
X78032857Y-68186057D01*
X77947142Y-68186057D01*
X77818571Y-68228914D01*
X77732857Y-68314628D01*
X77690000Y-68400342D01*
X77647142Y-68571771D01*
X77647142Y-68700342D01*
X77690000Y-68871771D01*
X77732857Y-68957485D01*
X77818571Y-69043200D01*
X77947142Y-69086057D01*
X78032857Y-69086057D01*
X78161428Y-69043200D01*
X78204285Y-69000342D01*
X79018571Y-68186057D02*
X78590000Y-68186057D01*
X78590000Y-69086057D01*
X79318571Y-68186057D02*
X79318571Y-69086057D01*
X79832857Y-68186057D02*
X79447142Y-68700342D01*
X79832857Y-69086057D02*
X79318571Y-68571771D01*
D10*
X85314285Y-44983200D02*
X85314285Y-45054628D01*
X85350000Y-45126057D01*
X85385714Y-45161771D01*
X85457142Y-45197485D01*
X85600000Y-45233200D01*
X85778571Y-45233200D01*
X85921428Y-45197485D01*
X85992857Y-45161771D01*
X86028571Y-45126057D01*
X86064285Y-45054628D01*
X86064285Y-44983200D01*
X86028571Y-44911771D01*
X85992857Y-44876057D01*
X85921428Y-44840342D01*
X85778571Y-44804628D01*
X85600000Y-44804628D01*
X85457142Y-44840342D01*
X85385714Y-44876057D01*
X85350000Y-44911771D01*
X85314285Y-44983200D01*
X85314285Y-45697485D02*
X85314285Y-45768914D01*
X85350000Y-45840342D01*
X85385714Y-45876057D01*
X85457142Y-45911771D01*
X85600000Y-45947485D01*
X85778571Y-45947485D01*
X85921428Y-45911771D01*
X85992857Y-45876057D01*
X86028571Y-45840342D01*
X86064285Y-45768914D01*
X86064285Y-45697485D01*
X86028571Y-45626057D01*
X85992857Y-45590342D01*
X85921428Y-45554628D01*
X85778571Y-45518914D01*
X85600000Y-45518914D01*
X85457142Y-45554628D01*
X85385714Y-45590342D01*
X85350000Y-45626057D01*
X85314285Y-45697485D01*
X85314285Y-46590342D02*
X85314285Y-46447485D01*
X85350000Y-46376057D01*
X85385714Y-46340342D01*
X85492857Y-46268914D01*
X85635714Y-46233200D01*
X85921428Y-46233200D01*
X85992857Y-46268914D01*
X86028571Y-46304628D01*
X86064285Y-46376057D01*
X86064285Y-46518914D01*
X86028571Y-46590342D01*
X85992857Y-46626057D01*
X85921428Y-46661771D01*
X85742857Y-46661771D01*
X85671428Y-46626057D01*
X85635714Y-46590342D01*
X85600000Y-46518914D01*
X85600000Y-46376057D01*
X85635714Y-46304628D01*
X85671428Y-46268914D01*
X85742857Y-46233200D01*
X85314285Y-37363200D02*
X85314285Y-37434628D01*
X85350000Y-37506057D01*
X85385714Y-37541771D01*
X85457142Y-37577485D01*
X85600000Y-37613200D01*
X85778571Y-37613200D01*
X85921428Y-37577485D01*
X85992857Y-37541771D01*
X86028571Y-37506057D01*
X86064285Y-37434628D01*
X86064285Y-37363200D01*
X86028571Y-37291771D01*
X85992857Y-37256057D01*
X85921428Y-37220342D01*
X85778571Y-37184628D01*
X85600000Y-37184628D01*
X85457142Y-37220342D01*
X85385714Y-37256057D01*
X85350000Y-37291771D01*
X85314285Y-37363200D01*
X85314285Y-38077485D02*
X85314285Y-38148914D01*
X85350000Y-38220342D01*
X85385714Y-38256057D01*
X85457142Y-38291771D01*
X85600000Y-38327485D01*
X85778571Y-38327485D01*
X85921428Y-38291771D01*
X85992857Y-38256057D01*
X86028571Y-38220342D01*
X86064285Y-38148914D01*
X86064285Y-38077485D01*
X86028571Y-38006057D01*
X85992857Y-37970342D01*
X85921428Y-37934628D01*
X85778571Y-37898914D01*
X85600000Y-37898914D01*
X85457142Y-37934628D01*
X85385714Y-37970342D01*
X85350000Y-38006057D01*
X85314285Y-38077485D01*
X85635714Y-38756057D02*
X85600000Y-38684628D01*
X85564285Y-38648914D01*
X85492857Y-38613200D01*
X85457142Y-38613200D01*
X85385714Y-38648914D01*
X85350000Y-38684628D01*
X85314285Y-38756057D01*
X85314285Y-38898914D01*
X85350000Y-38970342D01*
X85385714Y-39006057D01*
X85457142Y-39041771D01*
X85492857Y-39041771D01*
X85564285Y-39006057D01*
X85600000Y-38970342D01*
X85635714Y-38898914D01*
X85635714Y-38756057D01*
X85671428Y-38684628D01*
X85707142Y-38648914D01*
X85778571Y-38613200D01*
X85921428Y-38613200D01*
X85992857Y-38648914D01*
X86028571Y-38684628D01*
X86064285Y-38756057D01*
X86064285Y-38898914D01*
X86028571Y-38970342D01*
X85992857Y-39006057D01*
X85921428Y-39041771D01*
X85778571Y-39041771D01*
X85707142Y-39006057D01*
X85671428Y-38970342D01*
X85635714Y-38898914D01*
X66264285Y-47523200D02*
X66264285Y-47594628D01*
X66300000Y-47666057D01*
X66335714Y-47701771D01*
X66407142Y-47737485D01*
X66550000Y-47773200D01*
X66728571Y-47773200D01*
X66871428Y-47737485D01*
X66942857Y-47701771D01*
X66978571Y-47666057D01*
X67014285Y-47594628D01*
X67014285Y-47523200D01*
X66978571Y-47451771D01*
X66942857Y-47416057D01*
X66871428Y-47380342D01*
X66728571Y-47344628D01*
X66550000Y-47344628D01*
X66407142Y-47380342D01*
X66335714Y-47416057D01*
X66300000Y-47451771D01*
X66264285Y-47523200D01*
X67014285Y-48487485D02*
X67014285Y-48058914D01*
X67014285Y-48273200D02*
X66264285Y-48273200D01*
X66371428Y-48201771D01*
X66442857Y-48130342D01*
X66478571Y-48058914D01*
X66264285Y-48737485D02*
X66264285Y-49237485D01*
X67014285Y-48916057D01*
X86064285Y-32533200D02*
X86064285Y-32104628D01*
X86064285Y-32318914D02*
X85314285Y-32318914D01*
X85421428Y-32247485D01*
X85492857Y-32176057D01*
X85528571Y-32104628D01*
X85314285Y-32997485D02*
X85314285Y-33068914D01*
X85350000Y-33140342D01*
X85385714Y-33176057D01*
X85457142Y-33211771D01*
X85600000Y-33247485D01*
X85778571Y-33247485D01*
X85921428Y-33211771D01*
X85992857Y-33176057D01*
X86028571Y-33140342D01*
X86064285Y-33068914D01*
X86064285Y-32997485D01*
X86028571Y-32926057D01*
X85992857Y-32890342D01*
X85921428Y-32854628D01*
X85778571Y-32818914D01*
X85600000Y-32818914D01*
X85457142Y-32854628D01*
X85385714Y-32890342D01*
X85350000Y-32926057D01*
X85314285Y-32997485D01*
X86064285Y-33604628D02*
X86064285Y-33747485D01*
X86028571Y-33818914D01*
X85992857Y-33854628D01*
X85885714Y-33926057D01*
X85742857Y-33961771D01*
X85457142Y-33961771D01*
X85385714Y-33926057D01*
X85350000Y-33890342D01*
X85314285Y-33818914D01*
X85314285Y-33676057D01*
X85350000Y-33604628D01*
X85385714Y-33568914D01*
X85457142Y-33533200D01*
X85635714Y-33533200D01*
X85707142Y-33568914D01*
X85742857Y-33604628D01*
X85778571Y-33676057D01*
X85778571Y-33818914D01*
X85742857Y-33890342D01*
X85707142Y-33926057D01*
X85635714Y-33961771D01*
D11*
X79772471Y-75775028D02*
X79896280Y-75241695D01*
X80153423Y-75775028D01*
X80643900Y-76041695D02*
X80720090Y-76041695D01*
X80791519Y-76003600D01*
X80824852Y-75965504D01*
X80853423Y-75889314D01*
X80872471Y-75736933D01*
X80848661Y-75546457D01*
X80791519Y-75394076D01*
X80743900Y-75317885D01*
X80701042Y-75279790D01*
X80620090Y-75241695D01*
X80543900Y-75241695D01*
X80472471Y-75279790D01*
X80439138Y-75317885D01*
X80410566Y-75394076D01*
X80391519Y-75546457D01*
X80415328Y-75736933D01*
X80472471Y-75889314D01*
X80520090Y-75965504D01*
X80562947Y-76003600D01*
X80643900Y-76041695D01*
X81162947Y-75317885D02*
X81196280Y-75279790D01*
X81153423Y-75241695D01*
X81120090Y-75279790D01*
X81162947Y-75317885D01*
X81153423Y-75241695D01*
X81586757Y-75965504D02*
X81629614Y-76003600D01*
X81710566Y-76041695D01*
X81901042Y-76041695D01*
X81972471Y-76003600D01*
X82005804Y-75965504D01*
X82034376Y-75889314D01*
X82024852Y-75813123D01*
X81972471Y-75698838D01*
X81458185Y-75241695D01*
X81953423Y-75241695D01*
D10*
X66264285Y-27203200D02*
X66264285Y-27274628D01*
X66300000Y-27346057D01*
X66335714Y-27381771D01*
X66407142Y-27417485D01*
X66550000Y-27453200D01*
X66728571Y-27453200D01*
X66871428Y-27417485D01*
X66942857Y-27381771D01*
X66978571Y-27346057D01*
X67014285Y-27274628D01*
X67014285Y-27203200D01*
X66978571Y-27131771D01*
X66942857Y-27096057D01*
X66871428Y-27060342D01*
X66728571Y-27024628D01*
X66550000Y-27024628D01*
X66407142Y-27060342D01*
X66335714Y-27096057D01*
X66300000Y-27131771D01*
X66264285Y-27203200D01*
X67014285Y-28167485D02*
X67014285Y-27738914D01*
X67014285Y-27953200D02*
X66264285Y-27953200D01*
X66371428Y-27881771D01*
X66442857Y-27810342D01*
X66478571Y-27738914D01*
X66335714Y-28453200D02*
X66300000Y-28488914D01*
X66264285Y-28560342D01*
X66264285Y-28738914D01*
X66300000Y-28810342D01*
X66335714Y-28846057D01*
X66407142Y-28881771D01*
X66478571Y-28881771D01*
X66585714Y-28846057D01*
X67014285Y-28417485D01*
X67014285Y-28881771D01*
X66264285Y-39903200D02*
X66264285Y-39974628D01*
X66300000Y-40046057D01*
X66335714Y-40081771D01*
X66407142Y-40117485D01*
X66550000Y-40153200D01*
X66728571Y-40153200D01*
X66871428Y-40117485D01*
X66942857Y-40081771D01*
X66978571Y-40046057D01*
X67014285Y-39974628D01*
X67014285Y-39903200D01*
X66978571Y-39831771D01*
X66942857Y-39796057D01*
X66871428Y-39760342D01*
X66728571Y-39724628D01*
X66550000Y-39724628D01*
X66407142Y-39760342D01*
X66335714Y-39796057D01*
X66300000Y-39831771D01*
X66264285Y-39903200D01*
X67014285Y-40867485D02*
X67014285Y-40438914D01*
X67014285Y-40653200D02*
X66264285Y-40653200D01*
X66371428Y-40581771D01*
X66442857Y-40510342D01*
X66478571Y-40438914D01*
X66264285Y-41546057D02*
X66264285Y-41188914D01*
X66621428Y-41153200D01*
X66585714Y-41188914D01*
X66550000Y-41260342D01*
X66550000Y-41438914D01*
X66585714Y-41510342D01*
X66621428Y-41546057D01*
X66692857Y-41581771D01*
X66871428Y-41581771D01*
X66942857Y-41546057D01*
X66978571Y-41510342D01*
X67014285Y-41438914D01*
X67014285Y-41260342D01*
X66978571Y-41188914D01*
X66942857Y-41153200D01*
X67014285Y-45072485D02*
X66264285Y-45072485D01*
X66264285Y-45251057D01*
X66300000Y-45358200D01*
X66371428Y-45429628D01*
X66442857Y-45465342D01*
X66585714Y-45501057D01*
X66692857Y-45501057D01*
X66835714Y-45465342D01*
X66907142Y-45429628D01*
X66978571Y-45358200D01*
X67014285Y-45251057D01*
X67014285Y-45072485D01*
X66728571Y-45822485D02*
X66728571Y-46393914D01*
X67014285Y-46108200D02*
X66442857Y-46108200D01*
X66264285Y-55143200D02*
X66264285Y-55214628D01*
X66300000Y-55286057D01*
X66335714Y-55321771D01*
X66407142Y-55357485D01*
X66550000Y-55393200D01*
X66728571Y-55393200D01*
X66871428Y-55357485D01*
X66942857Y-55321771D01*
X66978571Y-55286057D01*
X67014285Y-55214628D01*
X67014285Y-55143200D01*
X66978571Y-55071771D01*
X66942857Y-55036057D01*
X66871428Y-55000342D01*
X66728571Y-54964628D01*
X66550000Y-54964628D01*
X66407142Y-55000342D01*
X66335714Y-55036057D01*
X66300000Y-55071771D01*
X66264285Y-55143200D01*
X66335714Y-55678914D02*
X66300000Y-55714628D01*
X66264285Y-55786057D01*
X66264285Y-55964628D01*
X66300000Y-56036057D01*
X66335714Y-56071771D01*
X66407142Y-56107485D01*
X66478571Y-56107485D01*
X66585714Y-56071771D01*
X67014285Y-55643200D01*
X67014285Y-56107485D01*
X66264285Y-56571771D02*
X66264285Y-56643200D01*
X66300000Y-56714628D01*
X66335714Y-56750342D01*
X66407142Y-56786057D01*
X66550000Y-56821771D01*
X66728571Y-56821771D01*
X66871428Y-56786057D01*
X66942857Y-56750342D01*
X66978571Y-56714628D01*
X67014285Y-56643200D01*
X67014285Y-56571771D01*
X66978571Y-56500342D01*
X66942857Y-56464628D01*
X66871428Y-56428914D01*
X66728571Y-56393200D01*
X66550000Y-56393200D01*
X66407142Y-56428914D01*
X66335714Y-56464628D01*
X66300000Y-56500342D01*
X66264285Y-56571771D01*
X66264285Y-52603200D02*
X66264285Y-52674628D01*
X66300000Y-52746057D01*
X66335714Y-52781771D01*
X66407142Y-52817485D01*
X66550000Y-52853200D01*
X66728571Y-52853200D01*
X66871428Y-52817485D01*
X66942857Y-52781771D01*
X66978571Y-52746057D01*
X67014285Y-52674628D01*
X67014285Y-52603200D01*
X66978571Y-52531771D01*
X66942857Y-52496057D01*
X66871428Y-52460342D01*
X66728571Y-52424628D01*
X66550000Y-52424628D01*
X66407142Y-52460342D01*
X66335714Y-52496057D01*
X66300000Y-52531771D01*
X66264285Y-52603200D01*
X66335714Y-53138914D02*
X66300000Y-53174628D01*
X66264285Y-53246057D01*
X66264285Y-53424628D01*
X66300000Y-53496057D01*
X66335714Y-53531771D01*
X66407142Y-53567485D01*
X66478571Y-53567485D01*
X66585714Y-53531771D01*
X67014285Y-53103200D01*
X67014285Y-53567485D01*
X66264285Y-53817485D02*
X66264285Y-54281771D01*
X66550000Y-54031771D01*
X66550000Y-54138914D01*
X66585714Y-54210342D01*
X66621428Y-54246057D01*
X66692857Y-54281771D01*
X66871428Y-54281771D01*
X66942857Y-54246057D01*
X66978571Y-54210342D01*
X67014285Y-54138914D01*
X67014285Y-53924628D01*
X66978571Y-53853200D01*
X66942857Y-53817485D01*
D13*
X74725414Y-48388421D02*
X74768271Y-48511635D01*
X74811128Y-48549135D01*
X74896842Y-48581278D01*
X75025414Y-48565207D01*
X75111128Y-48511635D01*
X75153985Y-48463421D01*
X75196842Y-48372350D01*
X75196842Y-48029492D01*
X74296842Y-48141992D01*
X74296842Y-48441992D01*
X74339700Y-48522350D01*
X74382557Y-48559850D01*
X74468271Y-48591992D01*
X74553985Y-48581278D01*
X74639700Y-48527707D01*
X74682557Y-48479492D01*
X74725414Y-48388421D01*
X74725414Y-48088421D01*
X75196842Y-48929492D02*
X74596842Y-49004492D01*
X74253985Y-48961635D02*
X74382557Y-49074135D01*
X74596842Y-49433064D02*
X75196842Y-49358064D01*
X74682557Y-49422350D02*
X74639700Y-49470564D01*
X74596842Y-49561635D01*
X74596842Y-49690207D01*
X74639700Y-49770564D01*
X74725414Y-49802707D01*
X75196842Y-49743778D01*
X75196842Y-50172350D02*
X74296842Y-50284850D01*
X75196842Y-50558064D02*
X74725414Y-50616992D01*
X74639700Y-50584850D01*
X74596842Y-50504492D01*
X74596842Y-50375921D01*
X74639700Y-50284850D01*
X74682557Y-50236635D01*
X75196842Y-51672350D02*
X74296842Y-51784850D01*
X75196842Y-52186635D01*
X74296842Y-52299135D01*
X74596842Y-53075921D02*
X75325414Y-52984850D01*
X75411128Y-52931278D01*
X75453985Y-52883064D01*
X75496842Y-52791992D01*
X75496842Y-52663421D01*
X75453985Y-52583064D01*
X75153985Y-53006278D02*
X75196842Y-52915207D01*
X75196842Y-52743778D01*
X75153985Y-52663421D01*
X75111128Y-52625921D01*
X75025414Y-52593778D01*
X74768271Y-52625921D01*
X74682557Y-52679492D01*
X74639700Y-52727707D01*
X74596842Y-52818778D01*
X74596842Y-52990207D01*
X74639700Y-53070564D01*
X75196842Y-53558064D02*
X75153985Y-53477707D01*
X75111128Y-53440207D01*
X75025414Y-53408064D01*
X74768271Y-53440207D01*
X74682557Y-53493778D01*
X74639700Y-53541992D01*
X74596842Y-53633064D01*
X74596842Y-53761635D01*
X74639700Y-53841992D01*
X74682557Y-53879492D01*
X74768271Y-53911635D01*
X75025414Y-53879492D01*
X75111128Y-53825921D01*
X75153985Y-53777707D01*
X75196842Y-53686635D01*
X75196842Y-53558064D01*
X74382557Y-53574135D02*
X74253985Y-53761635D01*
X74382557Y-53916992D01*
X75196842Y-55315207D02*
X74296842Y-55427707D01*
X75153985Y-55320564D02*
X75196842Y-55229492D01*
X75196842Y-55058064D01*
X75153985Y-54977707D01*
X75111128Y-54940207D01*
X75025414Y-54908064D01*
X74768271Y-54940207D01*
X74682557Y-54993778D01*
X74639700Y-55041992D01*
X74596842Y-55133064D01*
X74596842Y-55304492D01*
X74639700Y-55384850D01*
X74382557Y-55202707D02*
X74382557Y-55545564D01*
X75196842Y-56129492D02*
X74725414Y-56188421D01*
X74639700Y-56156278D01*
X74596842Y-56075921D01*
X74596842Y-55904492D01*
X74639700Y-55813421D01*
X75153985Y-56134850D02*
X75196842Y-56043778D01*
X75196842Y-55829492D01*
X75153985Y-55749135D01*
X75068271Y-55716992D01*
X74982557Y-55727707D01*
X74896842Y-55781278D01*
X74853985Y-55872350D01*
X74853985Y-56086635D01*
X74811128Y-56177707D01*
X75496842Y-55877707D02*
X75453985Y-55925921D01*
X75411128Y-55888421D01*
X75453985Y-55840207D01*
X75496842Y-55877707D01*
X75411128Y-55888421D01*
X75196842Y-56558064D02*
X74596842Y-56633064D01*
X74296842Y-56670564D02*
X74339700Y-56622350D01*
X74382557Y-56659850D01*
X74339700Y-56708064D01*
X74296842Y-56670564D01*
X74382557Y-56659850D01*
X75153985Y-58063421D02*
X75196842Y-57972350D01*
X75196842Y-57800921D01*
X75153985Y-57720564D01*
X75111128Y-57683064D01*
X75025414Y-57650921D01*
X74768271Y-57683064D01*
X74682557Y-57736635D01*
X74639700Y-57784850D01*
X74596842Y-57875921D01*
X74596842Y-58047350D01*
X74639700Y-58127707D01*
X75196842Y-58829492D02*
X74725414Y-58888421D01*
X74639700Y-58856278D01*
X74596842Y-58775921D01*
X74596842Y-58604492D01*
X74639700Y-58513421D01*
X75153985Y-58834850D02*
X75196842Y-58743778D01*
X75196842Y-58529492D01*
X75153985Y-58449135D01*
X75068271Y-58416992D01*
X74982557Y-58427707D01*
X74896842Y-58481278D01*
X74853985Y-58572350D01*
X74853985Y-58786635D01*
X74811128Y-58877707D01*
X74253985Y-58818778D02*
X74382557Y-58674135D01*
X75196842Y-59386635D02*
X75153985Y-59306278D01*
X75111128Y-59268778D01*
X75025414Y-59236635D01*
X74768271Y-59268778D01*
X74682557Y-59322350D01*
X74639700Y-59370564D01*
X74596842Y-59461635D01*
X74596842Y-59590207D01*
X74639700Y-59670564D01*
X74682557Y-59708064D01*
X74768271Y-59740207D01*
X75025414Y-59708064D01*
X75111128Y-59654492D01*
X75153985Y-59606278D01*
X75196842Y-59515207D01*
X75196842Y-59386635D01*
X74853985Y-60800921D02*
X74853985Y-61486635D01*
X75196842Y-63029492D02*
X75196842Y-62515207D01*
X75196842Y-62772350D02*
X74296842Y-62884850D01*
X74425414Y-62783064D01*
X74511128Y-62686635D01*
X74553985Y-62595564D01*
X74596842Y-63875921D02*
X75196842Y-63800921D01*
X74253985Y-63704492D02*
X74896842Y-63409850D01*
X74896842Y-63966992D01*
X74382557Y-64331278D02*
X74339700Y-64379492D01*
X74296842Y-64470564D01*
X74296842Y-64684850D01*
X74339700Y-64765207D01*
X74382557Y-64802707D01*
X74468271Y-64834850D01*
X74553985Y-64824135D01*
X74682557Y-64765207D01*
X75196842Y-64186635D01*
X75196842Y-64743778D01*
X74682557Y-65322350D02*
X74639700Y-65241992D01*
X74596842Y-65204492D01*
X74511128Y-65172350D01*
X74468271Y-65177707D01*
X74382557Y-65231278D01*
X74339700Y-65279492D01*
X74296842Y-65370564D01*
X74296842Y-65541992D01*
X74339700Y-65622350D01*
X74382557Y-65659850D01*
X74468271Y-65691992D01*
X74511128Y-65686635D01*
X74596842Y-65633064D01*
X74639700Y-65584850D01*
X74682557Y-65493778D01*
X74682557Y-65322350D01*
X74725414Y-65231278D01*
X74768271Y-65183064D01*
X74853985Y-65129492D01*
X75025414Y-65108064D01*
X75111128Y-65140207D01*
X75153985Y-65177707D01*
X75196842Y-65258064D01*
X75196842Y-65429492D01*
X75153985Y-65520564D01*
X75111128Y-65568778D01*
X75025414Y-65622350D01*
X74853985Y-65643778D01*
X74768271Y-65611635D01*
X74725414Y-65574135D01*
X74682557Y-65493778D01*
X76645842Y-48029492D02*
X75745842Y-48141992D01*
X76645842Y-48543778D01*
X75745842Y-48656278D01*
X76045842Y-49433064D02*
X76774414Y-49341992D01*
X76860128Y-49288421D01*
X76902985Y-49240207D01*
X76945842Y-49149135D01*
X76945842Y-49020564D01*
X76902985Y-48940207D01*
X76602985Y-49363421D02*
X76645842Y-49272350D01*
X76645842Y-49100921D01*
X76602985Y-49020564D01*
X76560128Y-48983064D01*
X76474414Y-48950921D01*
X76217271Y-48983064D01*
X76131557Y-49036635D01*
X76088700Y-49084850D01*
X76045842Y-49175921D01*
X76045842Y-49347350D01*
X76088700Y-49427707D01*
X76045842Y-50247350D02*
X76645842Y-50172350D01*
X76045842Y-49861635D02*
X76517271Y-49802707D01*
X76602985Y-49834850D01*
X76645842Y-49915207D01*
X76645842Y-50043778D01*
X76602985Y-50134850D01*
X76560128Y-50183064D01*
X76045842Y-50590207D02*
X76645842Y-50729492D01*
X76045842Y-51018778D02*
X76645842Y-50729492D01*
X76860128Y-50616992D01*
X76902985Y-50568778D01*
X76945842Y-50477707D01*
X76602985Y-51634850D02*
X76645842Y-51543778D01*
X76645842Y-51372350D01*
X76602985Y-51291992D01*
X76517271Y-51259850D01*
X76174414Y-51302707D01*
X76088700Y-51356278D01*
X76045842Y-51447350D01*
X76045842Y-51618778D01*
X76088700Y-51699135D01*
X76174414Y-51731278D01*
X76260128Y-51720564D01*
X76345842Y-51281278D01*
X75831557Y-51388421D02*
X75702985Y-51575921D01*
X75831557Y-51731278D01*
X75531557Y-51383064D02*
X75488700Y-51431278D01*
X75445842Y-51522350D01*
X75531557Y-51683064D01*
X75488700Y-51774135D01*
X75445842Y-51822350D01*
X76045842Y-52133064D02*
X76645842Y-52058064D01*
X76131557Y-52122350D02*
X76088700Y-52170564D01*
X76045842Y-52261635D01*
X76045842Y-52390207D01*
X76088700Y-52470564D01*
X76174414Y-52502707D01*
X76645842Y-52443778D01*
X75745842Y-53541992D02*
X75745842Y-54056278D01*
X76645842Y-53686635D02*
X75745842Y-53799135D01*
X76645842Y-54243778D02*
X76045842Y-54318778D01*
X76217271Y-54297350D02*
X76131557Y-54350921D01*
X76088700Y-54399135D01*
X76045842Y-54490207D01*
X76045842Y-54575921D01*
X76645842Y-55186635D02*
X76174414Y-55245564D01*
X76088700Y-55213421D01*
X76045842Y-55133064D01*
X76045842Y-54961635D01*
X76088700Y-54870564D01*
X76602985Y-55191992D02*
X76645842Y-55100921D01*
X76645842Y-54886635D01*
X76602985Y-54806278D01*
X76517271Y-54774135D01*
X76431557Y-54784850D01*
X76345842Y-54838421D01*
X76302985Y-54929492D01*
X76302985Y-55143778D01*
X76260128Y-55234850D01*
X75831557Y-54859850D02*
X75788700Y-54908064D01*
X75745842Y-54999135D01*
X75831557Y-55159850D01*
X75788700Y-55250921D01*
X75745842Y-55299135D01*
X76645842Y-55615207D02*
X76045842Y-55690207D01*
X75745842Y-55727707D02*
X75788700Y-55679492D01*
X75831557Y-55716992D01*
X75788700Y-55765207D01*
X75745842Y-55727707D01*
X75831557Y-55716992D01*
D14*
X77150000Y-66053200D02*
G75*
G03*
X77150000Y-66053200I-950000J0D01*
G01*
X75250000Y-69543200D02*
X77150000Y-69543200D01*
X75250000Y-67643200D02*
X75250000Y-69543200D01*
X77150000Y-67643200D02*
X75250000Y-67643200D01*
X77150000Y-69543200D02*
X77150000Y-67643200D01*
G36*
X77539718Y-73177239D02*
G01*
X77662352Y-73238357D01*
X77779959Y-73340222D01*
X77875871Y-73469074D01*
X77933418Y-73611155D01*
X77952600Y-73766466D01*
X77933285Y-73921776D01*
X77875342Y-74063857D01*
X77778769Y-74192709D01*
X77660632Y-74294574D01*
X77537998Y-74355693D01*
X77410866Y-74376066D01*
X77242690Y-74345109D01*
X77126306Y-74252241D01*
X77075109Y-74346300D01*
X76904850Y-74378447D01*
X76801861Y-74362373D01*
X76745306Y-74314153D01*
X76725066Y-74254622D01*
X76721494Y-74173659D01*
X76721494Y-73764084D01*
X77138212Y-73764084D01*
X77192981Y-73904578D01*
X77339428Y-73968872D01*
X77488256Y-73905769D01*
X77545406Y-73764084D01*
X77484684Y-73623591D01*
X77337047Y-73561678D01*
X77194172Y-73624781D01*
X77138212Y-73764084D01*
X76721494Y-73764084D01*
X76721494Y-72783009D01*
X76725066Y-72702047D01*
X76746497Y-72642516D01*
X76808409Y-72594891D01*
X76926281Y-72580603D01*
X77042962Y-72594891D01*
X77103684Y-72643706D01*
X77125116Y-72704428D01*
X77128687Y-72785391D01*
X77128687Y-73266403D01*
X77243583Y-73184250D01*
X77337047Y-73169058D01*
X77412056Y-73156866D01*
X77539718Y-73177239D01*
G37*
G36*
X80093344Y-73147341D02*
G01*
X80129062Y-73209848D01*
X80140969Y-73330697D01*
X80093344Y-73499766D01*
X80052862Y-73520006D01*
X79987378Y-73523578D01*
X79924275Y-73546200D01*
X79909987Y-73654547D01*
X79909987Y-74757066D01*
X79906416Y-74840409D01*
X79883794Y-74904703D01*
X79820691Y-74952923D01*
X79702819Y-74968997D01*
X79580184Y-74952923D01*
X79517081Y-74904703D01*
X79496841Y-74841600D01*
X79493269Y-74759447D01*
X79493269Y-73625972D01*
X79509937Y-73405706D01*
X79559944Y-73254497D01*
X79646859Y-73175320D01*
X79798069Y-73133053D01*
X79988569Y-73122337D01*
X80093344Y-73147341D01*
G37*
G36*
X73424653Y-73141983D02*
G01*
X73487756Y-73190203D01*
X73507997Y-73250925D01*
X73511569Y-73333078D01*
X73511569Y-73752178D01*
X73493974Y-73917940D01*
X73441190Y-74065974D01*
X73353216Y-74196281D01*
X73238783Y-74297484D01*
X73106624Y-74358206D01*
X72956737Y-74378447D01*
X72778144Y-74323678D01*
X72713850Y-74273672D01*
X72670987Y-74226047D01*
X72647175Y-74323678D01*
X72585858Y-74364755D01*
X72468581Y-74378447D01*
X72347733Y-74363564D01*
X72285225Y-74318916D01*
X72262603Y-74258194D01*
X72259031Y-74178422D01*
X72259031Y-73335459D01*
X72262603Y-73253306D01*
X72282844Y-73190203D01*
X72345352Y-73141983D01*
X72466200Y-73125909D01*
X72588239Y-73141983D01*
X72649556Y-73190203D01*
X72672178Y-73250925D01*
X72675750Y-73333078D01*
X72675750Y-73754559D01*
X72734091Y-73904578D01*
X72886491Y-73961728D01*
X73036509Y-73906959D01*
X73092469Y-73754559D01*
X73092469Y-73335459D01*
X73106756Y-73214016D01*
X73168669Y-73147936D01*
X73302019Y-73125909D01*
X73424653Y-73141983D01*
G37*
G36*
X74926031Y-73142578D02*
G01*
X75036759Y-73211634D01*
X75073669Y-73294978D01*
X75037950Y-73418803D01*
X74971275Y-73570409D01*
X74917300Y-73695028D01*
X74876025Y-73792659D01*
X74975244Y-73919130D01*
X75034775Y-74066768D01*
X75054619Y-74235572D01*
X75039141Y-74383209D01*
X74992706Y-74516559D01*
X74922459Y-74629669D01*
X74835544Y-74716584D01*
X74702458Y-74801251D01*
X74566727Y-74852051D01*
X74428350Y-74868984D01*
X73914000Y-74868984D01*
X73791366Y-74852911D01*
X73728262Y-74804691D01*
X73705641Y-74741587D01*
X73702069Y-74659434D01*
X73702069Y-74447503D01*
X74123550Y-74447503D01*
X74423587Y-74447503D01*
X74566462Y-74393925D01*
X74635519Y-74235572D01*
X74566462Y-74078409D01*
X74428350Y-74026022D01*
X74123550Y-74026022D01*
X74123550Y-74447503D01*
X73702069Y-74447503D01*
X73702069Y-73337841D01*
X73716356Y-73214016D01*
X73779459Y-73147936D01*
X73911619Y-73125909D01*
X74034253Y-73141983D01*
X74097356Y-73190203D01*
X74119978Y-73253306D01*
X74123550Y-73335459D01*
X74123550Y-73604541D01*
X74423587Y-73604541D01*
X74497406Y-73609303D01*
X74590010Y-73389964D01*
X74651923Y-73246295D01*
X74683144Y-73178297D01*
X74727197Y-73131862D01*
X74803397Y-73109241D01*
X74926031Y-73142578D01*
G37*
G36*
X79314675Y-73147341D02*
G01*
X79350394Y-73209848D01*
X79362300Y-73330697D01*
X79314675Y-73499766D01*
X79274194Y-73520006D01*
X79208709Y-73523578D01*
X79145606Y-73546200D01*
X79131319Y-73654547D01*
X79131319Y-74757066D01*
X79127747Y-74840409D01*
X79105125Y-74904703D01*
X79042022Y-74952923D01*
X78924150Y-74968997D01*
X78801516Y-74952923D01*
X78738413Y-74904703D01*
X78718172Y-74841600D01*
X78714600Y-74759447D01*
X78714600Y-73625972D01*
X78731269Y-73405706D01*
X78781275Y-73254497D01*
X78868191Y-73175320D01*
X79019400Y-73133053D01*
X79209900Y-73122337D01*
X79314675Y-73147341D01*
G37*
G36*
X78435994Y-74561803D02*
G01*
X78499097Y-74610619D01*
X78520528Y-74672531D01*
X78524100Y-74754684D01*
X78520528Y-74836838D01*
X78497906Y-74899941D01*
X78437184Y-74948161D01*
X78316931Y-74964234D01*
X78194297Y-74948161D01*
X78131194Y-74899941D01*
X78110953Y-74839219D01*
X78107381Y-74757066D01*
X78110953Y-74674913D01*
X78132384Y-74611809D01*
X78195487Y-74561803D01*
X78315741Y-74547516D01*
X78435994Y-74561803D01*
G37*
G36*
X78436589Y-73139006D02*
G01*
X78497906Y-73185441D01*
X78520528Y-73248544D01*
X78524100Y-73330697D01*
X78524100Y-74164134D01*
X78521719Y-74233191D01*
X78478856Y-74335584D01*
X78316931Y-74376066D01*
X78194297Y-74360587D01*
X78131194Y-74314153D01*
X78110953Y-74251050D01*
X78107381Y-74168897D01*
X78107381Y-73333078D01*
X78110953Y-73249734D01*
X78131194Y-73187822D01*
X78193702Y-73139602D01*
X78314550Y-73123528D01*
X78436589Y-73139006D01*
G37*
G36*
X75536822Y-73139602D02*
G01*
X75599925Y-73187822D01*
X75622547Y-73249734D01*
X75626119Y-73333078D01*
X75626119Y-73783134D01*
X76092844Y-73783134D01*
X76214287Y-73795041D01*
X76282153Y-73859930D01*
X76304775Y-73992684D01*
X76289297Y-74115914D01*
X76242862Y-74180803D01*
X76179759Y-74203425D01*
X76095225Y-74206997D01*
X75626119Y-74206997D01*
X75626119Y-74447503D01*
X76354781Y-74447503D01*
X76439316Y-74451075D01*
X76502419Y-74472506D01*
X76552425Y-74535609D01*
X76566712Y-74657053D01*
X76552425Y-74778497D01*
X76503609Y-74842791D01*
X76441697Y-74865413D01*
X76359544Y-74868984D01*
X75421331Y-74868984D01*
X75249881Y-74824931D01*
X75204637Y-74659434D01*
X75204637Y-73335459D01*
X75218925Y-73214016D01*
X75282028Y-73146150D01*
X75414187Y-73123528D01*
X75536822Y-73139602D01*
G37*
G36*
X78235969Y-71409425D02*
G01*
X78272283Y-71468956D01*
X78284388Y-71553887D01*
X78270894Y-71647748D01*
X78230413Y-71734069D01*
X78171477Y-71802133D01*
X78097856Y-71850750D01*
X78009552Y-71879920D01*
X77906562Y-71889644D01*
X77784590Y-71876326D01*
X77676904Y-71836374D01*
X77583506Y-71769788D01*
X77511628Y-71680976D01*
X77468501Y-71574349D01*
X77460727Y-71507056D01*
X77749400Y-71507056D01*
X77800200Y-71596750D01*
X77902594Y-71638819D01*
X77981969Y-71616594D01*
X78009750Y-71557856D01*
X77949425Y-71507056D01*
X77749400Y-71507056D01*
X77460727Y-71507056D01*
X77454125Y-71449906D01*
X77465237Y-71347424D01*
X77498575Y-71251645D01*
X77554137Y-71162569D01*
X77615058Y-71102442D01*
X77696219Y-71055413D01*
X77794048Y-71025052D01*
X77904975Y-71014931D01*
X78052910Y-71023762D01*
X78158578Y-71050253D01*
X78221979Y-71094405D01*
X78243112Y-71156219D01*
X78222475Y-71229244D01*
X78135163Y-71300681D01*
X78071662Y-71283219D01*
X78054200Y-71276869D01*
X77991891Y-71262581D01*
X77909737Y-71257819D01*
X77804962Y-71287981D01*
X77752575Y-71362594D01*
X78128813Y-71362594D01*
X78235969Y-71409425D01*
G37*
G36*
X75242737Y-70675206D02*
G01*
X75270519Y-70705369D01*
X75291950Y-70751406D01*
X75707875Y-71681681D01*
X75720575Y-71708669D01*
X75733275Y-71762644D01*
X75709859Y-71817016D01*
X75639612Y-71862656D01*
X75551506Y-71884881D01*
X75493562Y-71857894D01*
X75475306Y-71830906D01*
X75451692Y-71779908D01*
X75391962Y-71649138D01*
X75331637Y-71514795D01*
X75306237Y-71453081D01*
X75257819Y-71532368D01*
X75207813Y-71615712D01*
X75156219Y-71703113D01*
X75095100Y-71807094D01*
X75068906Y-71850750D01*
X75041125Y-71876944D01*
X74991912Y-71889644D01*
X74907775Y-71857894D01*
X74843481Y-71807094D01*
X74822050Y-71756294D01*
X74853800Y-71678506D01*
X75169712Y-71146694D01*
X75103037Y-71001934D01*
X75055412Y-70893091D01*
X75026837Y-70820165D01*
X75017312Y-70783156D01*
X75040728Y-70729975D01*
X75110975Y-70684731D01*
X75195112Y-70660919D01*
X75242737Y-70675206D01*
G37*
G36*
X81068069Y-71046681D02*
G01*
X81114106Y-71085575D01*
X81129188Y-71176856D01*
X81129188Y-72059506D01*
X81126806Y-72115069D01*
X81111725Y-72157138D01*
X81068862Y-72190475D01*
X80988694Y-72200794D01*
X80907731Y-72192063D01*
X80864075Y-72161106D01*
X80848994Y-72121419D01*
X80846612Y-72067444D01*
X80846612Y-71634056D01*
X80587850Y-71634056D01*
X80684688Y-72021406D01*
X80686275Y-72026169D01*
X80697387Y-72092844D01*
X80669606Y-72153963D01*
X80586263Y-72194444D01*
X80513238Y-72205556D01*
X80458469Y-72188094D01*
X80429894Y-72151581D01*
X80413225Y-72096019D01*
X80281463Y-71564206D01*
X80276700Y-71500706D01*
X80284638Y-71432444D01*
X80327897Y-71387200D01*
X80416400Y-71372119D01*
X80846612Y-71372119D01*
X80846612Y-71178444D01*
X80856138Y-71095894D01*
X80876775Y-71064144D01*
X80918050Y-71045094D01*
X80991075Y-71037156D01*
X81068069Y-71046681D01*
G37*
G36*
X77292200Y-71994419D02*
G01*
X77334269Y-72026963D01*
X77348556Y-72068238D01*
X77350937Y-72123006D01*
X77348556Y-72177775D01*
X77333475Y-72219844D01*
X77292994Y-72251991D01*
X77212825Y-72262706D01*
X77131069Y-72251991D01*
X77089000Y-72219844D01*
X77075506Y-72179363D01*
X77073125Y-72124594D01*
X77075506Y-72069825D01*
X77089794Y-72027756D01*
X77131862Y-71994419D01*
X77212031Y-71984894D01*
X77292200Y-71994419D01*
G37*
G36*
X74476681Y-71052590D02*
G01*
X74560818Y-71094130D01*
X74641075Y-71163362D01*
X74706339Y-71251028D01*
X74745497Y-71347865D01*
X74758550Y-71453875D01*
X74745409Y-71559973D01*
X74705986Y-71657075D01*
X74640281Y-71745181D01*
X74558878Y-71814855D01*
X74472359Y-71856659D01*
X74380725Y-71870594D01*
X74276744Y-71851147D01*
X74199750Y-71792806D01*
X74199750Y-72123006D01*
X74197369Y-72177775D01*
X74182287Y-72219844D01*
X74141806Y-72251991D01*
X74061637Y-72262706D01*
X73979881Y-72251991D01*
X73937812Y-72219844D01*
X73924319Y-72179363D01*
X73921937Y-72124594D01*
X73921937Y-71452288D01*
X74202925Y-71452288D01*
X74240231Y-71548331D01*
X74341037Y-71592781D01*
X74442637Y-71549125D01*
X74480737Y-71453081D01*
X74439462Y-71357831D01*
X74339450Y-71314969D01*
X74241819Y-71357831D01*
X74202925Y-71452288D01*
X73921937Y-71452288D01*
X73921937Y-71176856D01*
X73924319Y-71122087D01*
X73937812Y-71080019D01*
X73979484Y-71047872D01*
X74060050Y-71037156D01*
X74156094Y-71056603D01*
X74196575Y-71114944D01*
X74273172Y-71057794D01*
X74339450Y-71046861D01*
X74388662Y-71038744D01*
X74476681Y-71052590D01*
G37*
G36*
X82091212Y-71051444D02*
G01*
X82125344Y-71092719D01*
X82135663Y-71172888D01*
X82126137Y-71253850D01*
X82088831Y-71299887D01*
X81995963Y-71314969D01*
X81705450Y-71314969D01*
X81705450Y-71322906D01*
X81745138Y-71338781D01*
X81843563Y-71392359D01*
X81954687Y-71480069D01*
X82006281Y-71537219D01*
X82049938Y-71610244D01*
X82079703Y-71693588D01*
X82089625Y-71781694D01*
X82076396Y-71890790D01*
X82036708Y-71991597D01*
X81970563Y-72084113D01*
X81883162Y-72157755D01*
X81779710Y-72201940D01*
X81660206Y-72216669D01*
X81540791Y-72202117D01*
X81437603Y-72158460D01*
X81350644Y-72085700D01*
X81284939Y-71994595D01*
X81245516Y-71895906D01*
X81232375Y-71789631D01*
X81240312Y-71708669D01*
X81283572Y-71663425D01*
X81372075Y-71648344D01*
X81453038Y-71657869D01*
X81495900Y-71686444D01*
X81510981Y-71726131D01*
X81513362Y-71778519D01*
X81513362Y-71788044D01*
X81519713Y-71824556D01*
X81561781Y-71898375D01*
X81649888Y-71935681D01*
X81729262Y-71921394D01*
X81771331Y-71890437D01*
X81795938Y-71847575D01*
X81807050Y-71807094D01*
X81792167Y-71737641D01*
X81747519Y-71672156D01*
X81681836Y-71612030D01*
X81603850Y-71558650D01*
X81519712Y-71508247D01*
X81435575Y-71457050D01*
X81357589Y-71400297D01*
X81291906Y-71333225D01*
X81247258Y-71257620D01*
X81232375Y-71175269D01*
X81273650Y-71075256D01*
X81372075Y-71032394D01*
X81992788Y-71032394D01*
X82091212Y-71051444D01*
G37*
G36*
X77292597Y-71045887D02*
G01*
X77333475Y-71076844D01*
X77348556Y-71118913D01*
X77350937Y-71173681D01*
X77350937Y-71729306D01*
X77349350Y-71775344D01*
X77320775Y-71843606D01*
X77212825Y-71870594D01*
X77131069Y-71860275D01*
X77089000Y-71829319D01*
X77075506Y-71787250D01*
X77073125Y-71732481D01*
X77073125Y-71175269D01*
X77075506Y-71119706D01*
X77089000Y-71078431D01*
X77130672Y-71046284D01*
X77211237Y-71035569D01*
X77292597Y-71045887D01*
G37*
G36*
X76936600Y-71092719D02*
G01*
X76985812Y-71195906D01*
X76975494Y-71229244D01*
X76925487Y-71280044D01*
X76714350Y-71454669D01*
X76871513Y-71588019D01*
X76930250Y-71673744D01*
X76878656Y-71774550D01*
X76787375Y-71838844D01*
X76692125Y-71795981D01*
X76673075Y-71783281D01*
X76586556Y-71702319D01*
X76500038Y-71621356D01*
X76500038Y-72124594D01*
X76498450Y-72169044D01*
X76469875Y-72238894D01*
X76361925Y-72265881D01*
X76280169Y-72255166D01*
X76238100Y-72223019D01*
X76224606Y-72180950D01*
X76222225Y-72126181D01*
X76222225Y-71175269D01*
X76224606Y-71120500D01*
X76238100Y-71078431D01*
X76279772Y-71046284D01*
X76360338Y-71035569D01*
X76441697Y-71045887D01*
X76482575Y-71076844D01*
X76497656Y-71118913D01*
X76500038Y-71173681D01*
X76500038Y-71295919D01*
X76548853Y-71253255D01*
X76615925Y-71188762D01*
X76682203Y-71124667D01*
X76728637Y-71083194D01*
X76744513Y-71072081D01*
X76841350Y-71026044D01*
X76936600Y-71092719D01*
G37*
G36*
X79164656Y-71047872D02*
G01*
X79206725Y-71080019D01*
X79220219Y-71120500D01*
X79222600Y-71175269D01*
X79222600Y-71454669D01*
X79210870Y-71565176D01*
X79175681Y-71663866D01*
X79117031Y-71750737D01*
X79040743Y-71818206D01*
X78952637Y-71858687D01*
X78852713Y-71872181D01*
X78733650Y-71835669D01*
X78690787Y-71802331D01*
X78662212Y-71770581D01*
X78646338Y-71835669D01*
X78605459Y-71863053D01*
X78527275Y-71872181D01*
X78446709Y-71862259D01*
X78405038Y-71832494D01*
X78389956Y-71792013D01*
X78387575Y-71738831D01*
X78387575Y-71176856D01*
X78389956Y-71122087D01*
X78403450Y-71080019D01*
X78445122Y-71047872D01*
X78525688Y-71037156D01*
X78607047Y-71047872D01*
X78647925Y-71080019D01*
X78663006Y-71120500D01*
X78665387Y-71175269D01*
X78665387Y-71456256D01*
X78704281Y-71556269D01*
X78805881Y-71594369D01*
X78905894Y-71557856D01*
X78943200Y-71456256D01*
X78943200Y-71176856D01*
X78952725Y-71095894D01*
X78994000Y-71051841D01*
X79082900Y-71037156D01*
X79164656Y-71047872D01*
G37*
G36*
X80184625Y-71051444D02*
G01*
X80218756Y-71092719D01*
X80229075Y-71172888D01*
X80219550Y-71253850D01*
X80182244Y-71299887D01*
X80089375Y-71314969D01*
X79798862Y-71314969D01*
X79798862Y-71322906D01*
X79838550Y-71338781D01*
X79936975Y-71392359D01*
X80048100Y-71480069D01*
X80099694Y-71537219D01*
X80143350Y-71610244D01*
X80173116Y-71693588D01*
X80183038Y-71781694D01*
X80169808Y-71890790D01*
X80130121Y-71991597D01*
X80063975Y-72084113D01*
X79976574Y-72157755D01*
X79873122Y-72201940D01*
X79753619Y-72216669D01*
X79634203Y-72202117D01*
X79531016Y-72158460D01*
X79444056Y-72085700D01*
X79378351Y-71994595D01*
X79338928Y-71895906D01*
X79325787Y-71789631D01*
X79333725Y-71708669D01*
X79376984Y-71663425D01*
X79465488Y-71648344D01*
X79546450Y-71657869D01*
X79589313Y-71686444D01*
X79604394Y-71726131D01*
X79606775Y-71778519D01*
X79606775Y-71788044D01*
X79613125Y-71824556D01*
X79655194Y-71898375D01*
X79743300Y-71935681D01*
X79822675Y-71921394D01*
X79864744Y-71890437D01*
X79889350Y-71847575D01*
X79900462Y-71807094D01*
X79885580Y-71737641D01*
X79840931Y-71672156D01*
X79775248Y-71612030D01*
X79697262Y-71558650D01*
X79613125Y-71508247D01*
X79528987Y-71457050D01*
X79451002Y-71400297D01*
X79385319Y-71333225D01*
X79340670Y-71257620D01*
X79325787Y-71175269D01*
X79367063Y-71075256D01*
X79465488Y-71032394D01*
X80086200Y-71032394D01*
X80184625Y-71051444D01*
G37*
%LPC*%
D15*
X83820000Y-25413200D03*
X83820000Y-27953200D03*
X83820000Y-30493200D03*
X83820000Y-33033200D03*
X83820000Y-35573200D03*
X83820000Y-38113200D03*
X83820000Y-40653200D03*
X83820000Y-43193200D03*
X83820000Y-45733200D03*
X83820000Y-48273200D03*
X83820000Y-50813200D03*
X83820000Y-53353200D03*
X83820000Y-55893200D03*
X83820000Y-58433200D03*
X83820000Y-60973200D03*
X83820000Y-63513200D03*
X83820000Y-66053200D03*
X83820000Y-68593200D03*
X83820000Y-71133200D03*
X83820000Y-73673200D03*
X68580000Y-25413200D03*
X68580000Y-27953200D03*
X68580000Y-30493200D03*
X68580000Y-33033200D03*
X68580000Y-35573200D03*
X68580000Y-38113200D03*
X68580000Y-40653200D03*
X68580000Y-43193200D03*
X68580000Y-45733200D03*
X68580000Y-48273200D03*
X68580000Y-50813200D03*
X68580000Y-53353200D03*
X68580000Y-55893200D03*
X68580000Y-58433200D03*
X68580000Y-60973200D03*
X68580000Y-63513200D03*
X68580000Y-66053200D03*
X68580000Y-68593200D03*
X68580000Y-71133200D03*
X68580000Y-73673200D03*
D16*
X70625000Y-29794200D03*
D17*
X70625000Y-25794200D03*
D16*
X81775000Y-29794200D03*
D17*
X81775000Y-25794200D03*
D18*
X76200000Y-66053200D03*
D19*
X76200000Y-68593200D03*
M02*
