G04 #@! TF.GenerationSoftware,KiCad,Pcbnew,(6.0.6)*
G04 #@! TF.CreationDate,2022-08-01T11:49:19+07:00*
G04 #@! TF.ProjectId,nRFpill,6e524670-696c-46c2-9e6b-696361645f70,rev?*
G04 #@! TF.SameCoordinates,Original*
G04 #@! TF.FileFunction,Legend,Bot*
G04 #@! TF.FilePolarity,Positive*
%FSLAX46Y46*%
G04 Gerber Fmt 4.6, Leading zero omitted, Abs format (unit mm)*
G04 Created by KiCad (PCBNEW (6.0.6)) date 2022-08-01 11:49:19*
%MOMM*%
%LPD*%
G01*
G04 APERTURE LIST*
G04 Aperture macros list*
%AMRoundRect*
0 Rectangle with rounded corners*
0 $1 Rounding radius*
0 $2 $3 $4 $5 $6 $7 $8 $9 X,Y pos of 4 corners*
0 Add a 4 corners polygon primitive as box body*
4,1,4,$2,$3,$4,$5,$6,$7,$8,$9,$2,$3,0*
0 Add four circle primitives for the rounded corners*
1,1,$1+$1,$2,$3*
1,1,$1+$1,$4,$5*
1,1,$1+$1,$6,$7*
1,1,$1+$1,$8,$9*
0 Add four rect primitives between the rounded corners*
20,1,$1+$1,$2,$3,$4,$5,0*
20,1,$1+$1,$4,$5,$6,$7,0*
20,1,$1+$1,$6,$7,$8,$9,0*
20,1,$1+$1,$8,$9,$2,$3,0*%
G04 Aperture macros list end*
%ADD10C,0.187500*%
%ADD11C,0.200000*%
%ADD12C,0.375000*%
%ADD13C,0.120000*%
%ADD14C,0.787400*%
%ADD15C,1.700000*%
%ADD16C,0.650000*%
%ADD17O,1.000000X1.600000*%
%ADD18O,1.000000X2.100000*%
%ADD19C,1.500000*%
%ADD20RoundRect,0.375000X0.375000X-0.375000X0.375000X0.375000X-0.375000X0.375000X-0.375000X-0.375000X0*%
G04 APERTURE END LIST*
D10*
X40864285Y-36715000D02*
X40864285Y-36786428D01*
X40900000Y-36857857D01*
X40935714Y-36893571D01*
X41007142Y-36929285D01*
X41150000Y-36965000D01*
X41328571Y-36965000D01*
X41471428Y-36929285D01*
X41542857Y-36893571D01*
X41578571Y-36857857D01*
X41614285Y-36786428D01*
X41614285Y-36715000D01*
X41578571Y-36643571D01*
X41542857Y-36607857D01*
X41471428Y-36572142D01*
X41328571Y-36536428D01*
X41150000Y-36536428D01*
X41007142Y-36572142D01*
X40935714Y-36607857D01*
X40900000Y-36643571D01*
X40864285Y-36715000D01*
X41614285Y-37679285D02*
X41614285Y-37250714D01*
X41614285Y-37465000D02*
X40864285Y-37465000D01*
X40971428Y-37393571D01*
X41042857Y-37322142D01*
X41078571Y-37250714D01*
X41114285Y-38322142D02*
X41614285Y-38322142D01*
X40828571Y-38143571D02*
X41364285Y-37965000D01*
X41364285Y-38429285D01*
X106554285Y-41795000D02*
X106554285Y-41866428D01*
X106590000Y-41937857D01*
X106625714Y-41973571D01*
X106697142Y-42009285D01*
X106840000Y-42045000D01*
X107018571Y-42045000D01*
X107161428Y-42009285D01*
X107232857Y-41973571D01*
X107268571Y-41937857D01*
X107304285Y-41866428D01*
X107304285Y-41795000D01*
X107268571Y-41723571D01*
X107232857Y-41687857D01*
X107161428Y-41652142D01*
X107018571Y-41616428D01*
X106840000Y-41616428D01*
X106697142Y-41652142D01*
X106625714Y-41687857D01*
X106590000Y-41723571D01*
X106554285Y-41795000D01*
X106554285Y-42509285D02*
X106554285Y-42580714D01*
X106590000Y-42652142D01*
X106625714Y-42687857D01*
X106697142Y-42723571D01*
X106840000Y-42759285D01*
X107018571Y-42759285D01*
X107161428Y-42723571D01*
X107232857Y-42687857D01*
X107268571Y-42652142D01*
X107304285Y-42580714D01*
X107304285Y-42509285D01*
X107268571Y-42437857D01*
X107232857Y-42402142D01*
X107161428Y-42366428D01*
X107018571Y-42330714D01*
X106840000Y-42330714D01*
X106697142Y-42366428D01*
X106625714Y-42402142D01*
X106590000Y-42437857D01*
X106554285Y-42509285D01*
X106875714Y-43187857D02*
X106840000Y-43116428D01*
X106804285Y-43080714D01*
X106732857Y-43045000D01*
X106697142Y-43045000D01*
X106625714Y-43080714D01*
X106590000Y-43116428D01*
X106554285Y-43187857D01*
X106554285Y-43330714D01*
X106590000Y-43402142D01*
X106625714Y-43437857D01*
X106697142Y-43473571D01*
X106732857Y-43473571D01*
X106804285Y-43437857D01*
X106840000Y-43402142D01*
X106875714Y-43330714D01*
X106875714Y-43187857D01*
X106911428Y-43116428D01*
X106947142Y-43080714D01*
X107018571Y-43045000D01*
X107161428Y-43045000D01*
X107232857Y-43080714D01*
X107268571Y-43116428D01*
X107304285Y-43187857D01*
X107304285Y-43330714D01*
X107268571Y-43402142D01*
X107232857Y-43437857D01*
X107161428Y-43473571D01*
X107018571Y-43473571D01*
X106947142Y-43437857D01*
X106911428Y-43402142D01*
X106875714Y-43330714D01*
X110824285Y-59575000D02*
X110824285Y-59646428D01*
X110860000Y-59717857D01*
X110895714Y-59753571D01*
X110967142Y-59789285D01*
X111110000Y-59825000D01*
X111288571Y-59825000D01*
X111431428Y-59789285D01*
X111502857Y-59753571D01*
X111538571Y-59717857D01*
X111574285Y-59646428D01*
X111574285Y-59575000D01*
X111538571Y-59503571D01*
X111502857Y-59467857D01*
X111431428Y-59432142D01*
X111288571Y-59396428D01*
X111110000Y-59396428D01*
X110967142Y-59432142D01*
X110895714Y-59467857D01*
X110860000Y-59503571D01*
X110824285Y-59575000D01*
X110895714Y-60110714D02*
X110860000Y-60146428D01*
X110824285Y-60217857D01*
X110824285Y-60396428D01*
X110860000Y-60467857D01*
X110895714Y-60503571D01*
X110967142Y-60539285D01*
X111038571Y-60539285D01*
X111145714Y-60503571D01*
X111574285Y-60075000D01*
X111574285Y-60539285D01*
X110824285Y-61003571D02*
X110824285Y-61075000D01*
X110860000Y-61146428D01*
X110895714Y-61182142D01*
X110967142Y-61217857D01*
X111110000Y-61253571D01*
X111288571Y-61253571D01*
X111431428Y-61217857D01*
X111502857Y-61182142D01*
X111538571Y-61146428D01*
X111574285Y-61075000D01*
X111574285Y-61003571D01*
X111538571Y-60932142D01*
X111502857Y-60896428D01*
X111431428Y-60860714D01*
X111288571Y-60825000D01*
X111110000Y-60825000D01*
X110967142Y-60860714D01*
X110895714Y-60896428D01*
X110860000Y-60932142D01*
X110824285Y-61003571D01*
X106590000Y-31813571D02*
X106554285Y-31742142D01*
X106554285Y-31635000D01*
X106590000Y-31527857D01*
X106661428Y-31456428D01*
X106732857Y-31420714D01*
X106875714Y-31385000D01*
X106982857Y-31385000D01*
X107125714Y-31420714D01*
X107197142Y-31456428D01*
X107268571Y-31527857D01*
X107304285Y-31635000D01*
X107304285Y-31706428D01*
X107268571Y-31813571D01*
X107232857Y-31849285D01*
X106982857Y-31849285D01*
X106982857Y-31706428D01*
X107304285Y-32170714D02*
X106554285Y-32170714D01*
X107304285Y-32599285D01*
X106554285Y-32599285D01*
X107304285Y-32956428D02*
X106554285Y-32956428D01*
X106554285Y-33135000D01*
X106590000Y-33242142D01*
X106661428Y-33313571D01*
X106732857Y-33349285D01*
X106875714Y-33385000D01*
X106982857Y-33385000D01*
X107125714Y-33349285D01*
X107197142Y-33313571D01*
X107268571Y-33242142D01*
X107304285Y-33135000D01*
X107304285Y-32956428D01*
X129874285Y-39255000D02*
X129874285Y-39326428D01*
X129910000Y-39397857D01*
X129945714Y-39433571D01*
X130017142Y-39469285D01*
X130160000Y-39505000D01*
X130338571Y-39505000D01*
X130481428Y-39469285D01*
X130552857Y-39433571D01*
X130588571Y-39397857D01*
X130624285Y-39326428D01*
X130624285Y-39255000D01*
X130588571Y-39183571D01*
X130552857Y-39147857D01*
X130481428Y-39112142D01*
X130338571Y-39076428D01*
X130160000Y-39076428D01*
X130017142Y-39112142D01*
X129945714Y-39147857D01*
X129910000Y-39183571D01*
X129874285Y-39255000D01*
X129945714Y-39790714D02*
X129910000Y-39826428D01*
X129874285Y-39897857D01*
X129874285Y-40076428D01*
X129910000Y-40147857D01*
X129945714Y-40183571D01*
X130017142Y-40219285D01*
X130088571Y-40219285D01*
X130195714Y-40183571D01*
X130624285Y-39755000D01*
X130624285Y-40219285D01*
X130195714Y-40647857D02*
X130160000Y-40576428D01*
X130124285Y-40540714D01*
X130052857Y-40505000D01*
X130017142Y-40505000D01*
X129945714Y-40540714D01*
X129910000Y-40576428D01*
X129874285Y-40647857D01*
X129874285Y-40790714D01*
X129910000Y-40862142D01*
X129945714Y-40897857D01*
X130017142Y-40933571D01*
X130052857Y-40933571D01*
X130124285Y-40897857D01*
X130160000Y-40862142D01*
X130195714Y-40790714D01*
X130195714Y-40647857D01*
X130231428Y-40576428D01*
X130267142Y-40540714D01*
X130338571Y-40505000D01*
X130481428Y-40505000D01*
X130552857Y-40540714D01*
X130588571Y-40576428D01*
X130624285Y-40647857D01*
X130624285Y-40790714D01*
X130588571Y-40862142D01*
X130552857Y-40897857D01*
X130481428Y-40933571D01*
X130338571Y-40933571D01*
X130267142Y-40897857D01*
X130231428Y-40862142D01*
X130195714Y-40790714D01*
X59914285Y-72275000D02*
X59914285Y-72346428D01*
X59950000Y-72417857D01*
X59985714Y-72453571D01*
X60057142Y-72489285D01*
X60200000Y-72525000D01*
X60378571Y-72525000D01*
X60521428Y-72489285D01*
X60592857Y-72453571D01*
X60628571Y-72417857D01*
X60664285Y-72346428D01*
X60664285Y-72275000D01*
X60628571Y-72203571D01*
X60592857Y-72167857D01*
X60521428Y-72132142D01*
X60378571Y-72096428D01*
X60200000Y-72096428D01*
X60057142Y-72132142D01*
X59985714Y-72167857D01*
X59950000Y-72203571D01*
X59914285Y-72275000D01*
X59914285Y-72989285D02*
X59914285Y-73060714D01*
X59950000Y-73132142D01*
X59985714Y-73167857D01*
X60057142Y-73203571D01*
X60200000Y-73239285D01*
X60378571Y-73239285D01*
X60521428Y-73203571D01*
X60592857Y-73167857D01*
X60628571Y-73132142D01*
X60664285Y-73060714D01*
X60664285Y-72989285D01*
X60628571Y-72917857D01*
X60592857Y-72882142D01*
X60521428Y-72846428D01*
X60378571Y-72810714D01*
X60200000Y-72810714D01*
X60057142Y-72846428D01*
X59985714Y-72882142D01*
X59950000Y-72917857D01*
X59914285Y-72989285D01*
X60664285Y-73953571D02*
X60664285Y-73525000D01*
X60664285Y-73739285D02*
X59914285Y-73739285D01*
X60021428Y-73667857D01*
X60092857Y-73596428D01*
X60128571Y-73525000D01*
X64934285Y-67445000D02*
X64934285Y-67016428D01*
X64934285Y-67230714D02*
X64184285Y-67230714D01*
X64291428Y-67159285D01*
X64362857Y-67087857D01*
X64398571Y-67016428D01*
X64184285Y-67909285D02*
X64184285Y-67980714D01*
X64220000Y-68052142D01*
X64255714Y-68087857D01*
X64327142Y-68123571D01*
X64470000Y-68159285D01*
X64648571Y-68159285D01*
X64791428Y-68123571D01*
X64862857Y-68087857D01*
X64898571Y-68052142D01*
X64934285Y-67980714D01*
X64934285Y-67909285D01*
X64898571Y-67837857D01*
X64862857Y-67802142D01*
X64791428Y-67766428D01*
X64648571Y-67730714D01*
X64470000Y-67730714D01*
X64327142Y-67766428D01*
X64255714Y-67802142D01*
X64220000Y-67837857D01*
X64184285Y-67909285D01*
X64184285Y-68623571D02*
X64184285Y-68695000D01*
X64220000Y-68766428D01*
X64255714Y-68802142D01*
X64327142Y-68837857D01*
X64470000Y-68873571D01*
X64648571Y-68873571D01*
X64791428Y-68837857D01*
X64862857Y-68802142D01*
X64898571Y-68766428D01*
X64934285Y-68695000D01*
X64934285Y-68623571D01*
X64898571Y-68552142D01*
X64862857Y-68516428D01*
X64791428Y-68480714D01*
X64648571Y-68445000D01*
X64470000Y-68445000D01*
X64327142Y-68480714D01*
X64255714Y-68516428D01*
X64220000Y-68552142D01*
X64184285Y-68623571D01*
X83234285Y-72275000D02*
X83234285Y-72346428D01*
X83270000Y-72417857D01*
X83305714Y-72453571D01*
X83377142Y-72489285D01*
X83520000Y-72525000D01*
X83698571Y-72525000D01*
X83841428Y-72489285D01*
X83912857Y-72453571D01*
X83948571Y-72417857D01*
X83984285Y-72346428D01*
X83984285Y-72275000D01*
X83948571Y-72203571D01*
X83912857Y-72167857D01*
X83841428Y-72132142D01*
X83698571Y-72096428D01*
X83520000Y-72096428D01*
X83377142Y-72132142D01*
X83305714Y-72167857D01*
X83270000Y-72203571D01*
X83234285Y-72275000D01*
X83234285Y-72989285D02*
X83234285Y-73060714D01*
X83270000Y-73132142D01*
X83305714Y-73167857D01*
X83377142Y-73203571D01*
X83520000Y-73239285D01*
X83698571Y-73239285D01*
X83841428Y-73203571D01*
X83912857Y-73167857D01*
X83948571Y-73132142D01*
X83984285Y-73060714D01*
X83984285Y-72989285D01*
X83948571Y-72917857D01*
X83912857Y-72882142D01*
X83841428Y-72846428D01*
X83698571Y-72810714D01*
X83520000Y-72810714D01*
X83377142Y-72846428D01*
X83305714Y-72882142D01*
X83270000Y-72917857D01*
X83234285Y-72989285D01*
X83984285Y-73953571D02*
X83984285Y-73525000D01*
X83984285Y-73739285D02*
X83234285Y-73739285D01*
X83341428Y-73667857D01*
X83412857Y-73596428D01*
X83448571Y-73525000D01*
X59950000Y-31813571D02*
X59914285Y-31742142D01*
X59914285Y-31635000D01*
X59950000Y-31527857D01*
X60021428Y-31456428D01*
X60092857Y-31420714D01*
X60235714Y-31385000D01*
X60342857Y-31385000D01*
X60485714Y-31420714D01*
X60557142Y-31456428D01*
X60628571Y-31527857D01*
X60664285Y-31635000D01*
X60664285Y-31706428D01*
X60628571Y-31813571D01*
X60592857Y-31849285D01*
X60342857Y-31849285D01*
X60342857Y-31706428D01*
X60664285Y-32170714D02*
X59914285Y-32170714D01*
X60664285Y-32599285D01*
X59914285Y-32599285D01*
X60664285Y-32956428D02*
X59914285Y-32956428D01*
X59914285Y-33135000D01*
X59950000Y-33242142D01*
X60021428Y-33313571D01*
X60092857Y-33349285D01*
X60235714Y-33385000D01*
X60342857Y-33385000D01*
X60485714Y-33349285D01*
X60557142Y-33313571D01*
X60628571Y-33242142D01*
X60664285Y-33135000D01*
X60664285Y-32956428D01*
X110824285Y-34175000D02*
X110824285Y-34246428D01*
X110860000Y-34317857D01*
X110895714Y-34353571D01*
X110967142Y-34389285D01*
X111110000Y-34425000D01*
X111288571Y-34425000D01*
X111431428Y-34389285D01*
X111502857Y-34353571D01*
X111538571Y-34317857D01*
X111574285Y-34246428D01*
X111574285Y-34175000D01*
X111538571Y-34103571D01*
X111502857Y-34067857D01*
X111431428Y-34032142D01*
X111288571Y-33996428D01*
X111110000Y-33996428D01*
X110967142Y-34032142D01*
X110895714Y-34067857D01*
X110860000Y-34103571D01*
X110824285Y-34175000D01*
X111574285Y-35139285D02*
X111574285Y-34710714D01*
X111574285Y-34925000D02*
X110824285Y-34925000D01*
X110931428Y-34853571D01*
X111002857Y-34782142D01*
X111038571Y-34710714D01*
X110824285Y-35782142D02*
X110824285Y-35639285D01*
X110860000Y-35567857D01*
X110895714Y-35532142D01*
X111002857Y-35460714D01*
X111145714Y-35425000D01*
X111431428Y-35425000D01*
X111502857Y-35460714D01*
X111538571Y-35496428D01*
X111574285Y-35567857D01*
X111574285Y-35710714D01*
X111538571Y-35782142D01*
X111502857Y-35817857D01*
X111431428Y-35853571D01*
X111252857Y-35853571D01*
X111181428Y-35817857D01*
X111145714Y-35782142D01*
X111110000Y-35710714D01*
X111110000Y-35567857D01*
X111145714Y-35496428D01*
X111181428Y-35460714D01*
X111252857Y-35425000D01*
X83234285Y-41795000D02*
X83234285Y-41866428D01*
X83270000Y-41937857D01*
X83305714Y-41973571D01*
X83377142Y-42009285D01*
X83520000Y-42045000D01*
X83698571Y-42045000D01*
X83841428Y-42009285D01*
X83912857Y-41973571D01*
X83948571Y-41937857D01*
X83984285Y-41866428D01*
X83984285Y-41795000D01*
X83948571Y-41723571D01*
X83912857Y-41687857D01*
X83841428Y-41652142D01*
X83698571Y-41616428D01*
X83520000Y-41616428D01*
X83377142Y-41652142D01*
X83305714Y-41687857D01*
X83270000Y-41723571D01*
X83234285Y-41795000D01*
X83234285Y-42509285D02*
X83234285Y-42580714D01*
X83270000Y-42652142D01*
X83305714Y-42687857D01*
X83377142Y-42723571D01*
X83520000Y-42759285D01*
X83698571Y-42759285D01*
X83841428Y-42723571D01*
X83912857Y-42687857D01*
X83948571Y-42652142D01*
X83984285Y-42580714D01*
X83984285Y-42509285D01*
X83948571Y-42437857D01*
X83912857Y-42402142D01*
X83841428Y-42366428D01*
X83698571Y-42330714D01*
X83520000Y-42330714D01*
X83377142Y-42366428D01*
X83305714Y-42402142D01*
X83270000Y-42437857D01*
X83234285Y-42509285D01*
X83555714Y-43187857D02*
X83520000Y-43116428D01*
X83484285Y-43080714D01*
X83412857Y-43045000D01*
X83377142Y-43045000D01*
X83305714Y-43080714D01*
X83270000Y-43116428D01*
X83234285Y-43187857D01*
X83234285Y-43330714D01*
X83270000Y-43402142D01*
X83305714Y-43437857D01*
X83377142Y-43473571D01*
X83412857Y-43473571D01*
X83484285Y-43437857D01*
X83520000Y-43402142D01*
X83555714Y-43330714D01*
X83555714Y-43187857D01*
X83591428Y-43116428D01*
X83627142Y-43080714D01*
X83698571Y-43045000D01*
X83841428Y-43045000D01*
X83912857Y-43080714D01*
X83948571Y-43116428D01*
X83984285Y-43187857D01*
X83984285Y-43330714D01*
X83948571Y-43402142D01*
X83912857Y-43437857D01*
X83841428Y-43473571D01*
X83698571Y-43473571D01*
X83627142Y-43437857D01*
X83591428Y-43402142D01*
X83555714Y-43330714D01*
X83234285Y-51965154D02*
X83234285Y-52036582D01*
X83270000Y-52108011D01*
X83305714Y-52143725D01*
X83377142Y-52179439D01*
X83520000Y-52215154D01*
X83698571Y-52215154D01*
X83841428Y-52179439D01*
X83912857Y-52143725D01*
X83948571Y-52108011D01*
X83984285Y-52036582D01*
X83984285Y-51965154D01*
X83948571Y-51893725D01*
X83912857Y-51858011D01*
X83841428Y-51822296D01*
X83698571Y-51786582D01*
X83520000Y-51786582D01*
X83377142Y-51822296D01*
X83305714Y-51858011D01*
X83270000Y-51893725D01*
X83234285Y-51965154D01*
X83234285Y-52679439D02*
X83234285Y-52750868D01*
X83270000Y-52822296D01*
X83305714Y-52858011D01*
X83377142Y-52893725D01*
X83520000Y-52929439D01*
X83698571Y-52929439D01*
X83841428Y-52893725D01*
X83912857Y-52858011D01*
X83948571Y-52822296D01*
X83984285Y-52750868D01*
X83984285Y-52679439D01*
X83948571Y-52608011D01*
X83912857Y-52572296D01*
X83841428Y-52536582D01*
X83698571Y-52500868D01*
X83520000Y-52500868D01*
X83377142Y-52536582D01*
X83305714Y-52572296D01*
X83270000Y-52608011D01*
X83234285Y-52679439D01*
X83234285Y-53179439D02*
X83234285Y-53679439D01*
X83984285Y-53358011D01*
X129862588Y-59583014D02*
X129862588Y-59654442D01*
X129898303Y-59725871D01*
X129934017Y-59761585D01*
X130005445Y-59797299D01*
X130148303Y-59833014D01*
X130326874Y-59833014D01*
X130469731Y-59797299D01*
X130541160Y-59761585D01*
X130576874Y-59725871D01*
X130612588Y-59654442D01*
X130612588Y-59583014D01*
X130576874Y-59511585D01*
X130541160Y-59475871D01*
X130469731Y-59440156D01*
X130326874Y-59404442D01*
X130148303Y-59404442D01*
X130005445Y-59440156D01*
X129934017Y-59475871D01*
X129898303Y-59511585D01*
X129862588Y-59583014D01*
X129934017Y-60118728D02*
X129898303Y-60154442D01*
X129862588Y-60225871D01*
X129862588Y-60404442D01*
X129898303Y-60475871D01*
X129934017Y-60511585D01*
X130005445Y-60547299D01*
X130076874Y-60547299D01*
X130184017Y-60511585D01*
X130612588Y-60083014D01*
X130612588Y-60547299D01*
X129862588Y-61190156D02*
X129862588Y-61047299D01*
X129898303Y-60975871D01*
X129934017Y-60940156D01*
X130041160Y-60868728D01*
X130184017Y-60833014D01*
X130469731Y-60833014D01*
X130541160Y-60868728D01*
X130576874Y-60904442D01*
X130612588Y-60975871D01*
X130612588Y-61118728D01*
X130576874Y-61190156D01*
X130541160Y-61225871D01*
X130469731Y-61261585D01*
X130291160Y-61261585D01*
X130219731Y-61225871D01*
X130184017Y-61190156D01*
X130148303Y-61118728D01*
X130148303Y-60975871D01*
X130184017Y-60904442D01*
X130219731Y-60868728D01*
X130291160Y-60833014D01*
X40864285Y-69735000D02*
X40864285Y-69806428D01*
X40900000Y-69877857D01*
X40935714Y-69913571D01*
X41007142Y-69949285D01*
X41150000Y-69985000D01*
X41328571Y-69985000D01*
X41471428Y-69949285D01*
X41542857Y-69913571D01*
X41578571Y-69877857D01*
X41614285Y-69806428D01*
X41614285Y-69735000D01*
X41578571Y-69663571D01*
X41542857Y-69627857D01*
X41471428Y-69592142D01*
X41328571Y-69556428D01*
X41150000Y-69556428D01*
X41007142Y-69592142D01*
X40935714Y-69627857D01*
X40900000Y-69663571D01*
X40864285Y-69735000D01*
X40935714Y-70270714D02*
X40900000Y-70306428D01*
X40864285Y-70377857D01*
X40864285Y-70556428D01*
X40900000Y-70627857D01*
X40935714Y-70663571D01*
X41007142Y-70699285D01*
X41078571Y-70699285D01*
X41185714Y-70663571D01*
X41614285Y-70235000D01*
X41614285Y-70699285D01*
X40864285Y-71377857D02*
X40864285Y-71020714D01*
X41221428Y-70985000D01*
X41185714Y-71020714D01*
X41150000Y-71092142D01*
X41150000Y-71270714D01*
X41185714Y-71342142D01*
X41221428Y-71377857D01*
X41292857Y-71413571D01*
X41471428Y-71413571D01*
X41542857Y-71377857D01*
X41578571Y-71342142D01*
X41614285Y-71270714D01*
X41614285Y-71092142D01*
X41578571Y-71020714D01*
X41542857Y-70985000D01*
X130624285Y-36965000D02*
X130624285Y-36536428D01*
X130624285Y-36750714D02*
X129874285Y-36750714D01*
X129981428Y-36679285D01*
X130052857Y-36607857D01*
X130088571Y-36536428D01*
X129874285Y-37429285D02*
X129874285Y-37500714D01*
X129910000Y-37572142D01*
X129945714Y-37607857D01*
X130017142Y-37643571D01*
X130160000Y-37679285D01*
X130338571Y-37679285D01*
X130481428Y-37643571D01*
X130552857Y-37607857D01*
X130588571Y-37572142D01*
X130624285Y-37500714D01*
X130624285Y-37429285D01*
X130588571Y-37357857D01*
X130552857Y-37322142D01*
X130481428Y-37286428D01*
X130338571Y-37250714D01*
X130160000Y-37250714D01*
X130017142Y-37286428D01*
X129945714Y-37322142D01*
X129910000Y-37357857D01*
X129874285Y-37429285D01*
X130624285Y-38036428D02*
X130624285Y-38179285D01*
X130588571Y-38250714D01*
X130552857Y-38286428D01*
X130445714Y-38357857D01*
X130302857Y-38393571D01*
X130017142Y-38393571D01*
X129945714Y-38357857D01*
X129910000Y-38322142D01*
X129874285Y-38250714D01*
X129874285Y-38107857D01*
X129910000Y-38036428D01*
X129945714Y-38000714D01*
X130017142Y-37965000D01*
X130195714Y-37965000D01*
X130267142Y-38000714D01*
X130302857Y-38036428D01*
X130338571Y-38107857D01*
X130338571Y-38250714D01*
X130302857Y-38322142D01*
X130267142Y-38357857D01*
X130195714Y-38393571D01*
X59914285Y-54495000D02*
X59914285Y-54566428D01*
X59950000Y-54637857D01*
X59985714Y-54673571D01*
X60057142Y-54709285D01*
X60200000Y-54745000D01*
X60378571Y-54745000D01*
X60521428Y-54709285D01*
X60592857Y-54673571D01*
X60628571Y-54637857D01*
X60664285Y-54566428D01*
X60664285Y-54495000D01*
X60628571Y-54423571D01*
X60592857Y-54387857D01*
X60521428Y-54352142D01*
X60378571Y-54316428D01*
X60200000Y-54316428D01*
X60057142Y-54352142D01*
X59985714Y-54387857D01*
X59950000Y-54423571D01*
X59914285Y-54495000D01*
X59914285Y-54995000D02*
X59914285Y-55459285D01*
X60200000Y-55209285D01*
X60200000Y-55316428D01*
X60235714Y-55387857D01*
X60271428Y-55423571D01*
X60342857Y-55459285D01*
X60521428Y-55459285D01*
X60592857Y-55423571D01*
X60628571Y-55387857D01*
X60664285Y-55316428D01*
X60664285Y-55102142D01*
X60628571Y-55030714D01*
X60592857Y-54995000D01*
X60664285Y-56173571D02*
X60664285Y-55745000D01*
X60664285Y-55959285D02*
X59914285Y-55959285D01*
X60021428Y-55887857D01*
X60092857Y-55816428D01*
X60128571Y-55745000D01*
X129862588Y-57044855D02*
X129862588Y-57116283D01*
X129898303Y-57187712D01*
X129934017Y-57223426D01*
X130005445Y-57259140D01*
X130148303Y-57294855D01*
X130326874Y-57294855D01*
X130469731Y-57259140D01*
X130541160Y-57223426D01*
X130576874Y-57187712D01*
X130612588Y-57116283D01*
X130612588Y-57044855D01*
X130576874Y-56973426D01*
X130541160Y-56937712D01*
X130469731Y-56901997D01*
X130326874Y-56866283D01*
X130148303Y-56866283D01*
X130005445Y-56901997D01*
X129934017Y-56937712D01*
X129898303Y-56973426D01*
X129862588Y-57044855D01*
X129862588Y-57544855D02*
X129862588Y-58009140D01*
X130148303Y-57759140D01*
X130148303Y-57866283D01*
X130184017Y-57937712D01*
X130219731Y-57973426D01*
X130291160Y-58009140D01*
X130469731Y-58009140D01*
X130541160Y-57973426D01*
X130576874Y-57937712D01*
X130612588Y-57866283D01*
X130612588Y-57651997D01*
X130576874Y-57580569D01*
X130541160Y-57544855D01*
X129862588Y-58473426D02*
X129862588Y-58544855D01*
X129898303Y-58616283D01*
X129934017Y-58651997D01*
X130005445Y-58687712D01*
X130148303Y-58723426D01*
X130326874Y-58723426D01*
X130469731Y-58687712D01*
X130541160Y-58651997D01*
X130576874Y-58616283D01*
X130612588Y-58544855D01*
X130612588Y-58473426D01*
X130576874Y-58401997D01*
X130541160Y-58366283D01*
X130469731Y-58330569D01*
X130326874Y-58294855D01*
X130148303Y-58294855D01*
X130005445Y-58330569D01*
X129934017Y-58366283D01*
X129898303Y-58401997D01*
X129862588Y-58473426D01*
X64934285Y-29345000D02*
X64934285Y-28916428D01*
X64934285Y-29130714D02*
X64184285Y-29130714D01*
X64291428Y-29059285D01*
X64362857Y-28987857D01*
X64398571Y-28916428D01*
X64184285Y-29809285D02*
X64184285Y-29880714D01*
X64220000Y-29952142D01*
X64255714Y-29987857D01*
X64327142Y-30023571D01*
X64470000Y-30059285D01*
X64648571Y-30059285D01*
X64791428Y-30023571D01*
X64862857Y-29987857D01*
X64898571Y-29952142D01*
X64934285Y-29880714D01*
X64934285Y-29809285D01*
X64898571Y-29737857D01*
X64862857Y-29702142D01*
X64791428Y-29666428D01*
X64648571Y-29630714D01*
X64470000Y-29630714D01*
X64327142Y-29666428D01*
X64255714Y-29702142D01*
X64220000Y-29737857D01*
X64184285Y-29809285D01*
X64184285Y-30309285D02*
X64184285Y-30809285D01*
X64934285Y-30487857D01*
X130338571Y-28880714D02*
X130338571Y-29452142D01*
X130624285Y-29166428D02*
X130052857Y-29166428D01*
X129874285Y-30166428D02*
X129874285Y-29809285D01*
X130231428Y-29773571D01*
X130195714Y-29809285D01*
X130160000Y-29880714D01*
X130160000Y-30059285D01*
X130195714Y-30130714D01*
X130231428Y-30166428D01*
X130302857Y-30202142D01*
X130481428Y-30202142D01*
X130552857Y-30166428D01*
X130588571Y-30130714D01*
X130624285Y-30059285D01*
X130624285Y-29880714D01*
X130588571Y-29809285D01*
X130552857Y-29773571D01*
X129874285Y-30416428D02*
X130624285Y-30666428D01*
X129874285Y-30916428D01*
D11*
X76124285Y-72703571D02*
X76081428Y-72660714D01*
X75952857Y-72617857D01*
X75867142Y-72617857D01*
X75738571Y-72660714D01*
X75652857Y-72746428D01*
X75610000Y-72832142D01*
X75567142Y-73003571D01*
X75567142Y-73132142D01*
X75610000Y-73303571D01*
X75652857Y-73389285D01*
X75738571Y-73475000D01*
X75867142Y-73517857D01*
X75952857Y-73517857D01*
X76081428Y-73475000D01*
X76124285Y-73432142D01*
X76938571Y-72617857D02*
X76510000Y-72617857D01*
X76510000Y-73517857D01*
X77238571Y-72617857D02*
X77238571Y-73517857D01*
X77752857Y-72617857D02*
X77367142Y-73132142D01*
X77752857Y-73517857D02*
X77238571Y-73003571D01*
D10*
X83234285Y-69735000D02*
X83234285Y-69806428D01*
X83270000Y-69877857D01*
X83305714Y-69913571D01*
X83377142Y-69949285D01*
X83520000Y-69985000D01*
X83698571Y-69985000D01*
X83841428Y-69949285D01*
X83912857Y-69913571D01*
X83948571Y-69877857D01*
X83984285Y-69806428D01*
X83984285Y-69735000D01*
X83948571Y-69663571D01*
X83912857Y-69627857D01*
X83841428Y-69592142D01*
X83698571Y-69556428D01*
X83520000Y-69556428D01*
X83377142Y-69592142D01*
X83305714Y-69627857D01*
X83270000Y-69663571D01*
X83234285Y-69735000D01*
X83234285Y-70449285D02*
X83234285Y-70520714D01*
X83270000Y-70592142D01*
X83305714Y-70627857D01*
X83377142Y-70663571D01*
X83520000Y-70699285D01*
X83698571Y-70699285D01*
X83841428Y-70663571D01*
X83912857Y-70627857D01*
X83948571Y-70592142D01*
X83984285Y-70520714D01*
X83984285Y-70449285D01*
X83948571Y-70377857D01*
X83912857Y-70342142D01*
X83841428Y-70306428D01*
X83698571Y-70270714D01*
X83520000Y-70270714D01*
X83377142Y-70306428D01*
X83305714Y-70342142D01*
X83270000Y-70377857D01*
X83234285Y-70449285D01*
X83234285Y-71163571D02*
X83234285Y-71235000D01*
X83270000Y-71306428D01*
X83305714Y-71342142D01*
X83377142Y-71377857D01*
X83520000Y-71413571D01*
X83698571Y-71413571D01*
X83841428Y-71377857D01*
X83912857Y-71342142D01*
X83948571Y-71306428D01*
X83984285Y-71235000D01*
X83984285Y-71163571D01*
X83948571Y-71092142D01*
X83912857Y-71056428D01*
X83841428Y-71020714D01*
X83698571Y-70985000D01*
X83520000Y-70985000D01*
X83377142Y-71020714D01*
X83305714Y-71056428D01*
X83270000Y-71092142D01*
X83234285Y-71163571D01*
X129874285Y-41795000D02*
X129874285Y-41866428D01*
X129910000Y-41937857D01*
X129945714Y-41973571D01*
X130017142Y-42009285D01*
X130160000Y-42045000D01*
X130338571Y-42045000D01*
X130481428Y-42009285D01*
X130552857Y-41973571D01*
X130588571Y-41937857D01*
X130624285Y-41866428D01*
X130624285Y-41795000D01*
X130588571Y-41723571D01*
X130552857Y-41687857D01*
X130481428Y-41652142D01*
X130338571Y-41616428D01*
X130160000Y-41616428D01*
X130017142Y-41652142D01*
X129945714Y-41687857D01*
X129910000Y-41723571D01*
X129874285Y-41795000D01*
X129874285Y-42509285D02*
X129874285Y-42580714D01*
X129910000Y-42652142D01*
X129945714Y-42687857D01*
X130017142Y-42723571D01*
X130160000Y-42759285D01*
X130338571Y-42759285D01*
X130481428Y-42723571D01*
X130552857Y-42687857D01*
X130588571Y-42652142D01*
X130624285Y-42580714D01*
X130624285Y-42509285D01*
X130588571Y-42437857D01*
X130552857Y-42402142D01*
X130481428Y-42366428D01*
X130338571Y-42330714D01*
X130160000Y-42330714D01*
X130017142Y-42366428D01*
X129945714Y-42402142D01*
X129910000Y-42437857D01*
X129874285Y-42509285D01*
X130195714Y-43187857D02*
X130160000Y-43116428D01*
X130124285Y-43080714D01*
X130052857Y-43045000D01*
X130017142Y-43045000D01*
X129945714Y-43080714D01*
X129910000Y-43116428D01*
X129874285Y-43187857D01*
X129874285Y-43330714D01*
X129910000Y-43402142D01*
X129945714Y-43437857D01*
X130017142Y-43473571D01*
X130052857Y-43473571D01*
X130124285Y-43437857D01*
X130160000Y-43402142D01*
X130195714Y-43330714D01*
X130195714Y-43187857D01*
X130231428Y-43116428D01*
X130267142Y-43080714D01*
X130338571Y-43045000D01*
X130481428Y-43045000D01*
X130552857Y-43080714D01*
X130588571Y-43116428D01*
X130624285Y-43187857D01*
X130624285Y-43330714D01*
X130588571Y-43402142D01*
X130552857Y-43437857D01*
X130481428Y-43473571D01*
X130338571Y-43473571D01*
X130267142Y-43437857D01*
X130231428Y-43402142D01*
X130195714Y-43330714D01*
X64176487Y-77107058D02*
X64926487Y-77357058D01*
X64176487Y-77607058D01*
X64855059Y-78285629D02*
X64890773Y-78249915D01*
X64926487Y-78142772D01*
X64926487Y-78071343D01*
X64890773Y-77964200D01*
X64819344Y-77892772D01*
X64747916Y-77857058D01*
X64605059Y-77821343D01*
X64497916Y-77821343D01*
X64355059Y-77857058D01*
X64283630Y-77892772D01*
X64212202Y-77964200D01*
X64176487Y-78071343D01*
X64176487Y-78142772D01*
X64212202Y-78249915D01*
X64247916Y-78285629D01*
X64855059Y-79035629D02*
X64890773Y-78999915D01*
X64926487Y-78892772D01*
X64926487Y-78821343D01*
X64890773Y-78714200D01*
X64819344Y-78642772D01*
X64747916Y-78607058D01*
X64605059Y-78571343D01*
X64497916Y-78571343D01*
X64355059Y-78607058D01*
X64283630Y-78642772D01*
X64212202Y-78714200D01*
X64176487Y-78821343D01*
X64176487Y-78892772D01*
X64212202Y-78999915D01*
X64247916Y-79035629D01*
X64184285Y-36715000D02*
X64184285Y-36786428D01*
X64220000Y-36857857D01*
X64255714Y-36893571D01*
X64327142Y-36929285D01*
X64470000Y-36965000D01*
X64648571Y-36965000D01*
X64791428Y-36929285D01*
X64862857Y-36893571D01*
X64898571Y-36857857D01*
X64934285Y-36786428D01*
X64934285Y-36715000D01*
X64898571Y-36643571D01*
X64862857Y-36607857D01*
X64791428Y-36572142D01*
X64648571Y-36536428D01*
X64470000Y-36536428D01*
X64327142Y-36572142D01*
X64255714Y-36607857D01*
X64220000Y-36643571D01*
X64184285Y-36715000D01*
X64934285Y-37679285D02*
X64934285Y-37250714D01*
X64934285Y-37465000D02*
X64184285Y-37465000D01*
X64291428Y-37393571D01*
X64362857Y-37322142D01*
X64398571Y-37250714D01*
X64434285Y-38322142D02*
X64934285Y-38322142D01*
X64148571Y-38143571D02*
X64684285Y-37965000D01*
X64684285Y-38429285D01*
X107304285Y-67534285D02*
X106947142Y-67284285D01*
X107304285Y-67105714D02*
X106554285Y-67105714D01*
X106554285Y-67391428D01*
X106590000Y-67462857D01*
X106625714Y-67498571D01*
X106697142Y-67534285D01*
X106804285Y-67534285D01*
X106875714Y-67498571D01*
X106911428Y-67462857D01*
X106947142Y-67391428D01*
X106947142Y-67105714D01*
X107268571Y-67820000D02*
X107304285Y-67927142D01*
X107304285Y-68105714D01*
X107268571Y-68177142D01*
X107232857Y-68212857D01*
X107161428Y-68248571D01*
X107090000Y-68248571D01*
X107018571Y-68212857D01*
X106982857Y-68177142D01*
X106947142Y-68105714D01*
X106911428Y-67962857D01*
X106875714Y-67891428D01*
X106840000Y-67855714D01*
X106768571Y-67820000D01*
X106697142Y-67820000D01*
X106625714Y-67855714D01*
X106590000Y-67891428D01*
X106554285Y-67962857D01*
X106554285Y-68141428D01*
X106590000Y-68248571D01*
X106554285Y-68462857D02*
X106554285Y-68891428D01*
X107304285Y-68677142D02*
X106554285Y-68677142D01*
X106554285Y-62115000D02*
X106554285Y-62186428D01*
X106590000Y-62257857D01*
X106625714Y-62293571D01*
X106697142Y-62329285D01*
X106840000Y-62365000D01*
X107018571Y-62365000D01*
X107161428Y-62329285D01*
X107232857Y-62293571D01*
X107268571Y-62257857D01*
X107304285Y-62186428D01*
X107304285Y-62115000D01*
X107268571Y-62043571D01*
X107232857Y-62007857D01*
X107161428Y-61972142D01*
X107018571Y-61936428D01*
X106840000Y-61936428D01*
X106697142Y-61972142D01*
X106625714Y-62007857D01*
X106590000Y-62043571D01*
X106554285Y-62115000D01*
X106554285Y-62829285D02*
X106554285Y-62900714D01*
X106590000Y-62972142D01*
X106625714Y-63007857D01*
X106697142Y-63043571D01*
X106840000Y-63079285D01*
X107018571Y-63079285D01*
X107161428Y-63043571D01*
X107232857Y-63007857D01*
X107268571Y-62972142D01*
X107304285Y-62900714D01*
X107304285Y-62829285D01*
X107268571Y-62757857D01*
X107232857Y-62722142D01*
X107161428Y-62686428D01*
X107018571Y-62650714D01*
X106840000Y-62650714D01*
X106697142Y-62686428D01*
X106625714Y-62722142D01*
X106590000Y-62757857D01*
X106554285Y-62829285D01*
X106554285Y-63757857D02*
X106554285Y-63400714D01*
X106911428Y-63365000D01*
X106875714Y-63400714D01*
X106840000Y-63472142D01*
X106840000Y-63650714D01*
X106875714Y-63722142D01*
X106911428Y-63757857D01*
X106982857Y-63793571D01*
X107161428Y-63793571D01*
X107232857Y-63757857D01*
X107268571Y-63722142D01*
X107304285Y-63650714D01*
X107304285Y-63472142D01*
X107268571Y-63400714D01*
X107232857Y-63365000D01*
X64184285Y-57035000D02*
X64184285Y-57106428D01*
X64220000Y-57177857D01*
X64255714Y-57213571D01*
X64327142Y-57249285D01*
X64470000Y-57285000D01*
X64648571Y-57285000D01*
X64791428Y-57249285D01*
X64862857Y-57213571D01*
X64898571Y-57177857D01*
X64934285Y-57106428D01*
X64934285Y-57035000D01*
X64898571Y-56963571D01*
X64862857Y-56927857D01*
X64791428Y-56892142D01*
X64648571Y-56856428D01*
X64470000Y-56856428D01*
X64327142Y-56892142D01*
X64255714Y-56927857D01*
X64220000Y-56963571D01*
X64184285Y-57035000D01*
X64255714Y-57570714D02*
X64220000Y-57606428D01*
X64184285Y-57677857D01*
X64184285Y-57856428D01*
X64220000Y-57927857D01*
X64255714Y-57963571D01*
X64327142Y-57999285D01*
X64398571Y-57999285D01*
X64505714Y-57963571D01*
X64934285Y-57535000D01*
X64934285Y-57999285D01*
X64184285Y-58249285D02*
X64184285Y-58713571D01*
X64470000Y-58463571D01*
X64470000Y-58570714D01*
X64505714Y-58642142D01*
X64541428Y-58677857D01*
X64612857Y-58713571D01*
X64791428Y-58713571D01*
X64862857Y-58677857D01*
X64898571Y-58642142D01*
X64934285Y-58570714D01*
X64934285Y-58356428D01*
X64898571Y-58285000D01*
X64862857Y-58249285D01*
X83984285Y-47125000D02*
X83984285Y-46696428D01*
X83984285Y-46910714D02*
X83234285Y-46910714D01*
X83341428Y-46839285D01*
X83412857Y-46767857D01*
X83448571Y-46696428D01*
X83234285Y-47589285D02*
X83234285Y-47660714D01*
X83270000Y-47732142D01*
X83305714Y-47767857D01*
X83377142Y-47803571D01*
X83520000Y-47839285D01*
X83698571Y-47839285D01*
X83841428Y-47803571D01*
X83912857Y-47767857D01*
X83948571Y-47732142D01*
X83984285Y-47660714D01*
X83984285Y-47589285D01*
X83948571Y-47517857D01*
X83912857Y-47482142D01*
X83841428Y-47446428D01*
X83698571Y-47410714D01*
X83520000Y-47410714D01*
X83377142Y-47446428D01*
X83305714Y-47482142D01*
X83270000Y-47517857D01*
X83234285Y-47589285D01*
X83555714Y-48267857D02*
X83520000Y-48196428D01*
X83484285Y-48160714D01*
X83412857Y-48125000D01*
X83377142Y-48125000D01*
X83305714Y-48160714D01*
X83270000Y-48196428D01*
X83234285Y-48267857D01*
X83234285Y-48410714D01*
X83270000Y-48482142D01*
X83305714Y-48517857D01*
X83377142Y-48553571D01*
X83412857Y-48553571D01*
X83484285Y-48517857D01*
X83520000Y-48482142D01*
X83555714Y-48410714D01*
X83555714Y-48267857D01*
X83591428Y-48196428D01*
X83627142Y-48160714D01*
X83698571Y-48125000D01*
X83841428Y-48125000D01*
X83912857Y-48160714D01*
X83948571Y-48196428D01*
X83984285Y-48267857D01*
X83984285Y-48410714D01*
X83948571Y-48482142D01*
X83912857Y-48517857D01*
X83841428Y-48553571D01*
X83698571Y-48553571D01*
X83627142Y-48517857D01*
X83591428Y-48482142D01*
X83555714Y-48410714D01*
X64184285Y-41795000D02*
X64184285Y-41866428D01*
X64220000Y-41937857D01*
X64255714Y-41973571D01*
X64327142Y-42009285D01*
X64470000Y-42045000D01*
X64648571Y-42045000D01*
X64791428Y-42009285D01*
X64862857Y-41973571D01*
X64898571Y-41937857D01*
X64934285Y-41866428D01*
X64934285Y-41795000D01*
X64898571Y-41723571D01*
X64862857Y-41687857D01*
X64791428Y-41652142D01*
X64648571Y-41616428D01*
X64470000Y-41616428D01*
X64327142Y-41652142D01*
X64255714Y-41687857D01*
X64220000Y-41723571D01*
X64184285Y-41795000D01*
X64934285Y-42759285D02*
X64934285Y-42330714D01*
X64934285Y-42545000D02*
X64184285Y-42545000D01*
X64291428Y-42473571D01*
X64362857Y-42402142D01*
X64398571Y-42330714D01*
X64184285Y-43009285D02*
X64184285Y-43473571D01*
X64470000Y-43223571D01*
X64470000Y-43330714D01*
X64505714Y-43402142D01*
X64541428Y-43437857D01*
X64612857Y-43473571D01*
X64791428Y-43473571D01*
X64862857Y-43437857D01*
X64898571Y-43402142D01*
X64934285Y-43330714D01*
X64934285Y-43116428D01*
X64898571Y-43045000D01*
X64862857Y-43009285D01*
X83234285Y-64655000D02*
X83234285Y-64726428D01*
X83270000Y-64797857D01*
X83305714Y-64833571D01*
X83377142Y-64869285D01*
X83520000Y-64905000D01*
X83698571Y-64905000D01*
X83841428Y-64869285D01*
X83912857Y-64833571D01*
X83948571Y-64797857D01*
X83984285Y-64726428D01*
X83984285Y-64655000D01*
X83948571Y-64583571D01*
X83912857Y-64547857D01*
X83841428Y-64512142D01*
X83698571Y-64476428D01*
X83520000Y-64476428D01*
X83377142Y-64512142D01*
X83305714Y-64547857D01*
X83270000Y-64583571D01*
X83234285Y-64655000D01*
X83305714Y-65190714D02*
X83270000Y-65226428D01*
X83234285Y-65297857D01*
X83234285Y-65476428D01*
X83270000Y-65547857D01*
X83305714Y-65583571D01*
X83377142Y-65619285D01*
X83448571Y-65619285D01*
X83555714Y-65583571D01*
X83984285Y-65155000D01*
X83984285Y-65619285D01*
X83234285Y-65869285D02*
X83234285Y-66369285D01*
X83984285Y-66047857D01*
X64934285Y-49504285D02*
X64184285Y-49504285D01*
X64184285Y-49682857D01*
X64220000Y-49790000D01*
X64291428Y-49861428D01*
X64362857Y-49897142D01*
X64505714Y-49932857D01*
X64612857Y-49932857D01*
X64755714Y-49897142D01*
X64827142Y-49861428D01*
X64898571Y-49790000D01*
X64934285Y-49682857D01*
X64934285Y-49504285D01*
X64648571Y-50254285D02*
X64648571Y-50825714D01*
X64934285Y-50540000D02*
X64362857Y-50540000D01*
D12*
X117279857Y-79061428D02*
X117279857Y-78061428D01*
X117279857Y-78918571D02*
X117351285Y-78990000D01*
X117494142Y-79061428D01*
X117708428Y-79061428D01*
X117851285Y-78990000D01*
X117922714Y-78847142D01*
X117922714Y-78061428D01*
X119494142Y-78061428D02*
X118994142Y-78775714D01*
X118637000Y-78061428D02*
X118637000Y-79561428D01*
X119208428Y-79561428D01*
X119351285Y-79490000D01*
X119422714Y-79418571D01*
X119494142Y-79275714D01*
X119494142Y-79061428D01*
X119422714Y-78918571D01*
X119351285Y-78847142D01*
X119208428Y-78775714D01*
X118637000Y-78775714D01*
X120637000Y-78847142D02*
X120137000Y-78847142D01*
X120137000Y-78061428D02*
X120137000Y-79561428D01*
X120851285Y-79561428D01*
X121422714Y-78061428D02*
X121422714Y-79561428D01*
X121994142Y-79561428D01*
X122137000Y-79490000D01*
X122208428Y-79418571D01*
X122279857Y-79275714D01*
X122279857Y-79061428D01*
X122208428Y-78918571D01*
X122137000Y-78847142D01*
X121994142Y-78775714D01*
X121422714Y-78775714D01*
X122922714Y-78061428D02*
X122922714Y-79061428D01*
X122922714Y-79561428D02*
X122851285Y-79490000D01*
X122922714Y-79418571D01*
X122994142Y-79490000D01*
X122922714Y-79561428D01*
X122922714Y-79418571D01*
X123851285Y-78061428D02*
X123708428Y-78132857D01*
X123637000Y-78275714D01*
X123637000Y-79561428D01*
X124637000Y-78061428D02*
X124494142Y-78132857D01*
X124422714Y-78275714D01*
X124422714Y-79561428D01*
D10*
X59914285Y-39255000D02*
X59914285Y-39326428D01*
X59950000Y-39397857D01*
X59985714Y-39433571D01*
X60057142Y-39469285D01*
X60200000Y-39505000D01*
X60378571Y-39505000D01*
X60521428Y-39469285D01*
X60592857Y-39433571D01*
X60628571Y-39397857D01*
X60664285Y-39326428D01*
X60664285Y-39255000D01*
X60628571Y-39183571D01*
X60592857Y-39147857D01*
X60521428Y-39112142D01*
X60378571Y-39076428D01*
X60200000Y-39076428D01*
X60057142Y-39112142D01*
X59985714Y-39147857D01*
X59950000Y-39183571D01*
X59914285Y-39255000D01*
X59985714Y-39790714D02*
X59950000Y-39826428D01*
X59914285Y-39897857D01*
X59914285Y-40076428D01*
X59950000Y-40147857D01*
X59985714Y-40183571D01*
X60057142Y-40219285D01*
X60128571Y-40219285D01*
X60235714Y-40183571D01*
X60664285Y-39755000D01*
X60664285Y-40219285D01*
X60235714Y-40647857D02*
X60200000Y-40576428D01*
X60164285Y-40540714D01*
X60092857Y-40505000D01*
X60057142Y-40505000D01*
X59985714Y-40540714D01*
X59950000Y-40576428D01*
X59914285Y-40647857D01*
X59914285Y-40790714D01*
X59950000Y-40862142D01*
X59985714Y-40897857D01*
X60057142Y-40933571D01*
X60092857Y-40933571D01*
X60164285Y-40897857D01*
X60200000Y-40862142D01*
X60235714Y-40790714D01*
X60235714Y-40647857D01*
X60271428Y-40576428D01*
X60307142Y-40540714D01*
X60378571Y-40505000D01*
X60521428Y-40505000D01*
X60592857Y-40540714D01*
X60628571Y-40576428D01*
X60664285Y-40647857D01*
X60664285Y-40790714D01*
X60628571Y-40862142D01*
X60592857Y-40897857D01*
X60521428Y-40933571D01*
X60378571Y-40933571D01*
X60307142Y-40897857D01*
X60271428Y-40862142D01*
X60235714Y-40790714D01*
X83234285Y-54495000D02*
X83234285Y-54566428D01*
X83270000Y-54637857D01*
X83305714Y-54673571D01*
X83377142Y-54709285D01*
X83520000Y-54745000D01*
X83698571Y-54745000D01*
X83841428Y-54709285D01*
X83912857Y-54673571D01*
X83948571Y-54637857D01*
X83984285Y-54566428D01*
X83984285Y-54495000D01*
X83948571Y-54423571D01*
X83912857Y-54387857D01*
X83841428Y-54352142D01*
X83698571Y-54316428D01*
X83520000Y-54316428D01*
X83377142Y-54352142D01*
X83305714Y-54387857D01*
X83270000Y-54423571D01*
X83234285Y-54495000D01*
X83234285Y-54995000D02*
X83234285Y-55459285D01*
X83520000Y-55209285D01*
X83520000Y-55316428D01*
X83555714Y-55387857D01*
X83591428Y-55423571D01*
X83662857Y-55459285D01*
X83841428Y-55459285D01*
X83912857Y-55423571D01*
X83948571Y-55387857D01*
X83984285Y-55316428D01*
X83984285Y-55102142D01*
X83948571Y-55030714D01*
X83912857Y-54995000D01*
X83984285Y-56173571D02*
X83984285Y-55745000D01*
X83984285Y-55959285D02*
X83234285Y-55959285D01*
X83341428Y-55887857D01*
X83412857Y-55816428D01*
X83448571Y-55745000D01*
X40864285Y-34175000D02*
X40864285Y-34246428D01*
X40900000Y-34317857D01*
X40935714Y-34353571D01*
X41007142Y-34389285D01*
X41150000Y-34425000D01*
X41328571Y-34425000D01*
X41471428Y-34389285D01*
X41542857Y-34353571D01*
X41578571Y-34317857D01*
X41614285Y-34246428D01*
X41614285Y-34175000D01*
X41578571Y-34103571D01*
X41542857Y-34067857D01*
X41471428Y-34032142D01*
X41328571Y-33996428D01*
X41150000Y-33996428D01*
X41007142Y-34032142D01*
X40935714Y-34067857D01*
X40900000Y-34103571D01*
X40864285Y-34175000D01*
X41614285Y-35139285D02*
X41614285Y-34710714D01*
X41614285Y-34925000D02*
X40864285Y-34925000D01*
X40971428Y-34853571D01*
X41042857Y-34782142D01*
X41078571Y-34710714D01*
X40864285Y-35782142D02*
X40864285Y-35639285D01*
X40900000Y-35567857D01*
X40935714Y-35532142D01*
X41042857Y-35460714D01*
X41185714Y-35425000D01*
X41471428Y-35425000D01*
X41542857Y-35460714D01*
X41578571Y-35496428D01*
X41614285Y-35567857D01*
X41614285Y-35710714D01*
X41578571Y-35782142D01*
X41542857Y-35817857D01*
X41471428Y-35853571D01*
X41292857Y-35853571D01*
X41221428Y-35817857D01*
X41185714Y-35782142D01*
X41150000Y-35710714D01*
X41150000Y-35567857D01*
X41185714Y-35496428D01*
X41221428Y-35460714D01*
X41292857Y-35425000D01*
X106554285Y-69735000D02*
X106554285Y-69806428D01*
X106590000Y-69877857D01*
X106625714Y-69913571D01*
X106697142Y-69949285D01*
X106840000Y-69985000D01*
X107018571Y-69985000D01*
X107161428Y-69949285D01*
X107232857Y-69913571D01*
X107268571Y-69877857D01*
X107304285Y-69806428D01*
X107304285Y-69735000D01*
X107268571Y-69663571D01*
X107232857Y-69627857D01*
X107161428Y-69592142D01*
X107018571Y-69556428D01*
X106840000Y-69556428D01*
X106697142Y-69592142D01*
X106625714Y-69627857D01*
X106590000Y-69663571D01*
X106554285Y-69735000D01*
X106554285Y-70449285D02*
X106554285Y-70520714D01*
X106590000Y-70592142D01*
X106625714Y-70627857D01*
X106697142Y-70663571D01*
X106840000Y-70699285D01*
X107018571Y-70699285D01*
X107161428Y-70663571D01*
X107232857Y-70627857D01*
X107268571Y-70592142D01*
X107304285Y-70520714D01*
X107304285Y-70449285D01*
X107268571Y-70377857D01*
X107232857Y-70342142D01*
X107161428Y-70306428D01*
X107018571Y-70270714D01*
X106840000Y-70270714D01*
X106697142Y-70306428D01*
X106625714Y-70342142D01*
X106590000Y-70377857D01*
X106554285Y-70449285D01*
X106554285Y-71163571D02*
X106554285Y-71235000D01*
X106590000Y-71306428D01*
X106625714Y-71342142D01*
X106697142Y-71377857D01*
X106840000Y-71413571D01*
X107018571Y-71413571D01*
X107161428Y-71377857D01*
X107232857Y-71342142D01*
X107268571Y-71306428D01*
X107304285Y-71235000D01*
X107304285Y-71163571D01*
X107268571Y-71092142D01*
X107232857Y-71056428D01*
X107161428Y-71020714D01*
X107018571Y-70985000D01*
X106840000Y-70985000D01*
X106697142Y-71020714D01*
X106625714Y-71056428D01*
X106590000Y-71092142D01*
X106554285Y-71163571D01*
X64184285Y-39255000D02*
X64184285Y-39326428D01*
X64220000Y-39397857D01*
X64255714Y-39433571D01*
X64327142Y-39469285D01*
X64470000Y-39505000D01*
X64648571Y-39505000D01*
X64791428Y-39469285D01*
X64862857Y-39433571D01*
X64898571Y-39397857D01*
X64934285Y-39326428D01*
X64934285Y-39255000D01*
X64898571Y-39183571D01*
X64862857Y-39147857D01*
X64791428Y-39112142D01*
X64648571Y-39076428D01*
X64470000Y-39076428D01*
X64327142Y-39112142D01*
X64255714Y-39147857D01*
X64220000Y-39183571D01*
X64184285Y-39255000D01*
X64934285Y-40219285D02*
X64934285Y-39790714D01*
X64934285Y-40005000D02*
X64184285Y-40005000D01*
X64291428Y-39933571D01*
X64362857Y-39862142D01*
X64398571Y-39790714D01*
X64934285Y-40576428D02*
X64934285Y-40719285D01*
X64898571Y-40790714D01*
X64862857Y-40826428D01*
X64755714Y-40897857D01*
X64612857Y-40933571D01*
X64327142Y-40933571D01*
X64255714Y-40897857D01*
X64220000Y-40862142D01*
X64184285Y-40790714D01*
X64184285Y-40647857D01*
X64220000Y-40576428D01*
X64255714Y-40540714D01*
X64327142Y-40505000D01*
X64505714Y-40505000D01*
X64577142Y-40540714D01*
X64612857Y-40576428D01*
X64648571Y-40647857D01*
X64648571Y-40790714D01*
X64612857Y-40862142D01*
X64577142Y-40897857D01*
X64505714Y-40933571D01*
D11*
X52418571Y-70077857D02*
X52418571Y-70977857D01*
X52632857Y-70977857D01*
X52761428Y-70935000D01*
X52847142Y-70849285D01*
X52890000Y-70763571D01*
X52932857Y-70592142D01*
X52932857Y-70463571D01*
X52890000Y-70292142D01*
X52847142Y-70206428D01*
X52761428Y-70120714D01*
X52632857Y-70077857D01*
X52418571Y-70077857D01*
X53318571Y-70077857D02*
X53318571Y-70977857D01*
X53918571Y-70977857D02*
X54090000Y-70977857D01*
X54175714Y-70935000D01*
X54261428Y-70849285D01*
X54304285Y-70677857D01*
X54304285Y-70377857D01*
X54261428Y-70206428D01*
X54175714Y-70120714D01*
X54090000Y-70077857D01*
X53918571Y-70077857D01*
X53832857Y-70120714D01*
X53747142Y-70206428D01*
X53704285Y-70377857D01*
X53704285Y-70677857D01*
X53747142Y-70849285D01*
X53832857Y-70935000D01*
X53918571Y-70977857D01*
D10*
X130624285Y-67534285D02*
X130267142Y-67284285D01*
X130624285Y-67105714D02*
X129874285Y-67105714D01*
X129874285Y-67391428D01*
X129910000Y-67462857D01*
X129945714Y-67498571D01*
X130017142Y-67534285D01*
X130124285Y-67534285D01*
X130195714Y-67498571D01*
X130231428Y-67462857D01*
X130267142Y-67391428D01*
X130267142Y-67105714D01*
X130588571Y-67820000D02*
X130624285Y-67927142D01*
X130624285Y-68105714D01*
X130588571Y-68177142D01*
X130552857Y-68212857D01*
X130481428Y-68248571D01*
X130410000Y-68248571D01*
X130338571Y-68212857D01*
X130302857Y-68177142D01*
X130267142Y-68105714D01*
X130231428Y-67962857D01*
X130195714Y-67891428D01*
X130160000Y-67855714D01*
X130088571Y-67820000D01*
X130017142Y-67820000D01*
X129945714Y-67855714D01*
X129910000Y-67891428D01*
X129874285Y-67962857D01*
X129874285Y-68141428D01*
X129910000Y-68248571D01*
X129874285Y-68462857D02*
X129874285Y-68891428D01*
X130624285Y-68677142D02*
X129874285Y-68677142D01*
X40864285Y-54495000D02*
X40864285Y-54566428D01*
X40900000Y-54637857D01*
X40935714Y-54673571D01*
X41007142Y-54709285D01*
X41150000Y-54745000D01*
X41328571Y-54745000D01*
X41471428Y-54709285D01*
X41542857Y-54673571D01*
X41578571Y-54637857D01*
X41614285Y-54566428D01*
X41614285Y-54495000D01*
X41578571Y-54423571D01*
X41542857Y-54387857D01*
X41471428Y-54352142D01*
X41328571Y-54316428D01*
X41150000Y-54316428D01*
X41007142Y-54352142D01*
X40935714Y-54387857D01*
X40900000Y-54423571D01*
X40864285Y-54495000D01*
X40935714Y-55030714D02*
X40900000Y-55066428D01*
X40864285Y-55137857D01*
X40864285Y-55316428D01*
X40900000Y-55387857D01*
X40935714Y-55423571D01*
X41007142Y-55459285D01*
X41078571Y-55459285D01*
X41185714Y-55423571D01*
X41614285Y-54995000D01*
X41614285Y-55459285D01*
X41614285Y-56173571D02*
X41614285Y-55745000D01*
X41614285Y-55959285D02*
X40864285Y-55959285D01*
X40971428Y-55887857D01*
X41042857Y-55816428D01*
X41078571Y-55745000D01*
X60664285Y-47125000D02*
X60664285Y-46696428D01*
X60664285Y-46910714D02*
X59914285Y-46910714D01*
X60021428Y-46839285D01*
X60092857Y-46767857D01*
X60128571Y-46696428D01*
X59914285Y-47589285D02*
X59914285Y-47660714D01*
X59950000Y-47732142D01*
X59985714Y-47767857D01*
X60057142Y-47803571D01*
X60200000Y-47839285D01*
X60378571Y-47839285D01*
X60521428Y-47803571D01*
X60592857Y-47767857D01*
X60628571Y-47732142D01*
X60664285Y-47660714D01*
X60664285Y-47589285D01*
X60628571Y-47517857D01*
X60592857Y-47482142D01*
X60521428Y-47446428D01*
X60378571Y-47410714D01*
X60200000Y-47410714D01*
X60057142Y-47446428D01*
X59985714Y-47482142D01*
X59950000Y-47517857D01*
X59914285Y-47589285D01*
X60235714Y-48267857D02*
X60200000Y-48196428D01*
X60164285Y-48160714D01*
X60092857Y-48125000D01*
X60057142Y-48125000D01*
X59985714Y-48160714D01*
X59950000Y-48196428D01*
X59914285Y-48267857D01*
X59914285Y-48410714D01*
X59950000Y-48482142D01*
X59985714Y-48517857D01*
X60057142Y-48553571D01*
X60092857Y-48553571D01*
X60164285Y-48517857D01*
X60200000Y-48482142D01*
X60235714Y-48410714D01*
X60235714Y-48267857D01*
X60271428Y-48196428D01*
X60307142Y-48160714D01*
X60378571Y-48125000D01*
X60521428Y-48125000D01*
X60592857Y-48160714D01*
X60628571Y-48196428D01*
X60664285Y-48267857D01*
X60664285Y-48410714D01*
X60628571Y-48482142D01*
X60592857Y-48517857D01*
X60521428Y-48553571D01*
X60378571Y-48553571D01*
X60307142Y-48517857D01*
X60271428Y-48482142D01*
X60235714Y-48410714D01*
X64184285Y-69735000D02*
X64184285Y-69806428D01*
X64220000Y-69877857D01*
X64255714Y-69913571D01*
X64327142Y-69949285D01*
X64470000Y-69985000D01*
X64648571Y-69985000D01*
X64791428Y-69949285D01*
X64862857Y-69913571D01*
X64898571Y-69877857D01*
X64934285Y-69806428D01*
X64934285Y-69735000D01*
X64898571Y-69663571D01*
X64862857Y-69627857D01*
X64791428Y-69592142D01*
X64648571Y-69556428D01*
X64470000Y-69556428D01*
X64327142Y-69592142D01*
X64255714Y-69627857D01*
X64220000Y-69663571D01*
X64184285Y-69735000D01*
X64255714Y-70270714D02*
X64220000Y-70306428D01*
X64184285Y-70377857D01*
X64184285Y-70556428D01*
X64220000Y-70627857D01*
X64255714Y-70663571D01*
X64327142Y-70699285D01*
X64398571Y-70699285D01*
X64505714Y-70663571D01*
X64934285Y-70235000D01*
X64934285Y-70699285D01*
X64184285Y-71377857D02*
X64184285Y-71020714D01*
X64541428Y-70985000D01*
X64505714Y-71020714D01*
X64470000Y-71092142D01*
X64470000Y-71270714D01*
X64505714Y-71342142D01*
X64541428Y-71377857D01*
X64612857Y-71413571D01*
X64791428Y-71413571D01*
X64862857Y-71377857D01*
X64898571Y-71342142D01*
X64934285Y-71270714D01*
X64934285Y-71092142D01*
X64898571Y-71020714D01*
X64862857Y-70985000D01*
X83234285Y-44338385D02*
X83234285Y-44409813D01*
X83270000Y-44481242D01*
X83305714Y-44516956D01*
X83377142Y-44552670D01*
X83520000Y-44588385D01*
X83698571Y-44588385D01*
X83841428Y-44552670D01*
X83912857Y-44516956D01*
X83948571Y-44481242D01*
X83984285Y-44409813D01*
X83984285Y-44338385D01*
X83948571Y-44266956D01*
X83912857Y-44231242D01*
X83841428Y-44195527D01*
X83698571Y-44159813D01*
X83520000Y-44159813D01*
X83377142Y-44195527D01*
X83305714Y-44231242D01*
X83270000Y-44266956D01*
X83234285Y-44338385D01*
X83984285Y-45302670D02*
X83984285Y-44874099D01*
X83984285Y-45088385D02*
X83234285Y-45088385D01*
X83341428Y-45016956D01*
X83412857Y-44945527D01*
X83448571Y-44874099D01*
X83984285Y-46016956D02*
X83984285Y-45588385D01*
X83984285Y-45802670D02*
X83234285Y-45802670D01*
X83341428Y-45731242D01*
X83412857Y-45659813D01*
X83448571Y-45588385D01*
X111574285Y-67445000D02*
X111574285Y-67016428D01*
X111574285Y-67230714D02*
X110824285Y-67230714D01*
X110931428Y-67159285D01*
X111002857Y-67087857D01*
X111038571Y-67016428D01*
X110824285Y-67909285D02*
X110824285Y-67980714D01*
X110860000Y-68052142D01*
X110895714Y-68087857D01*
X110967142Y-68123571D01*
X111110000Y-68159285D01*
X111288571Y-68159285D01*
X111431428Y-68123571D01*
X111502857Y-68087857D01*
X111538571Y-68052142D01*
X111574285Y-67980714D01*
X111574285Y-67909285D01*
X111538571Y-67837857D01*
X111502857Y-67802142D01*
X111431428Y-67766428D01*
X111288571Y-67730714D01*
X111110000Y-67730714D01*
X110967142Y-67766428D01*
X110895714Y-67802142D01*
X110860000Y-67837857D01*
X110824285Y-67909285D01*
X110824285Y-68623571D02*
X110824285Y-68695000D01*
X110860000Y-68766428D01*
X110895714Y-68802142D01*
X110967142Y-68837857D01*
X111110000Y-68873571D01*
X111288571Y-68873571D01*
X111431428Y-68837857D01*
X111502857Y-68802142D01*
X111538571Y-68766428D01*
X111574285Y-68695000D01*
X111574285Y-68623571D01*
X111538571Y-68552142D01*
X111502857Y-68516428D01*
X111431428Y-68480714D01*
X111288571Y-68445000D01*
X111110000Y-68445000D01*
X110967142Y-68480714D01*
X110895714Y-68516428D01*
X110860000Y-68552142D01*
X110824285Y-68623571D01*
X106554285Y-49415000D02*
X106554285Y-49486428D01*
X106590000Y-49557857D01*
X106625714Y-49593571D01*
X106697142Y-49629285D01*
X106840000Y-49665000D01*
X107018571Y-49665000D01*
X107161428Y-49629285D01*
X107232857Y-49593571D01*
X107268571Y-49557857D01*
X107304285Y-49486428D01*
X107304285Y-49415000D01*
X107268571Y-49343571D01*
X107232857Y-49307857D01*
X107161428Y-49272142D01*
X107018571Y-49236428D01*
X106840000Y-49236428D01*
X106697142Y-49272142D01*
X106625714Y-49307857D01*
X106590000Y-49343571D01*
X106554285Y-49415000D01*
X106554285Y-50129285D02*
X106554285Y-50200714D01*
X106590000Y-50272142D01*
X106625714Y-50307857D01*
X106697142Y-50343571D01*
X106840000Y-50379285D01*
X107018571Y-50379285D01*
X107161428Y-50343571D01*
X107232857Y-50307857D01*
X107268571Y-50272142D01*
X107304285Y-50200714D01*
X107304285Y-50129285D01*
X107268571Y-50057857D01*
X107232857Y-50022142D01*
X107161428Y-49986428D01*
X107018571Y-49950714D01*
X106840000Y-49950714D01*
X106697142Y-49986428D01*
X106625714Y-50022142D01*
X106590000Y-50057857D01*
X106554285Y-50129285D01*
X106554285Y-51022142D02*
X106554285Y-50879285D01*
X106590000Y-50807857D01*
X106625714Y-50772142D01*
X106732857Y-50700714D01*
X106875714Y-50665000D01*
X107161428Y-50665000D01*
X107232857Y-50700714D01*
X107268571Y-50736428D01*
X107304285Y-50807857D01*
X107304285Y-50950714D01*
X107268571Y-51022142D01*
X107232857Y-51057857D01*
X107161428Y-51093571D01*
X106982857Y-51093571D01*
X106911428Y-51057857D01*
X106875714Y-51022142D01*
X106840000Y-50950714D01*
X106840000Y-50807857D01*
X106875714Y-50736428D01*
X106911428Y-50700714D01*
X106982857Y-50665000D01*
X87504285Y-62115000D02*
X87504285Y-62186428D01*
X87540000Y-62257857D01*
X87575714Y-62293571D01*
X87647142Y-62329285D01*
X87790000Y-62365000D01*
X87968571Y-62365000D01*
X88111428Y-62329285D01*
X88182857Y-62293571D01*
X88218571Y-62257857D01*
X88254285Y-62186428D01*
X88254285Y-62115000D01*
X88218571Y-62043571D01*
X88182857Y-62007857D01*
X88111428Y-61972142D01*
X87968571Y-61936428D01*
X87790000Y-61936428D01*
X87647142Y-61972142D01*
X87575714Y-62007857D01*
X87540000Y-62043571D01*
X87504285Y-62115000D01*
X87575714Y-62650714D02*
X87540000Y-62686428D01*
X87504285Y-62757857D01*
X87504285Y-62936428D01*
X87540000Y-63007857D01*
X87575714Y-63043571D01*
X87647142Y-63079285D01*
X87718571Y-63079285D01*
X87825714Y-63043571D01*
X88254285Y-62615000D01*
X88254285Y-63079285D01*
X87575714Y-63365000D02*
X87540000Y-63400714D01*
X87504285Y-63472142D01*
X87504285Y-63650714D01*
X87540000Y-63722142D01*
X87575714Y-63757857D01*
X87647142Y-63793571D01*
X87718571Y-63793571D01*
X87825714Y-63757857D01*
X88254285Y-63329285D01*
X88254285Y-63793571D01*
X106554285Y-44338385D02*
X106554285Y-44409813D01*
X106590000Y-44481242D01*
X106625714Y-44516956D01*
X106697142Y-44552670D01*
X106840000Y-44588385D01*
X107018571Y-44588385D01*
X107161428Y-44552670D01*
X107232857Y-44516956D01*
X107268571Y-44481242D01*
X107304285Y-44409813D01*
X107304285Y-44338385D01*
X107268571Y-44266956D01*
X107232857Y-44231242D01*
X107161428Y-44195527D01*
X107018571Y-44159813D01*
X106840000Y-44159813D01*
X106697142Y-44195527D01*
X106625714Y-44231242D01*
X106590000Y-44266956D01*
X106554285Y-44338385D01*
X107304285Y-45302670D02*
X107304285Y-44874099D01*
X107304285Y-45088385D02*
X106554285Y-45088385D01*
X106661428Y-45016956D01*
X106732857Y-44945527D01*
X106768571Y-44874099D01*
X107304285Y-46016956D02*
X107304285Y-45588385D01*
X107304285Y-45802670D02*
X106554285Y-45802670D01*
X106661428Y-45731242D01*
X106732857Y-45659813D01*
X106768571Y-45588385D01*
X88254285Y-49504285D02*
X87504285Y-49504285D01*
X87504285Y-49682857D01*
X87540000Y-49790000D01*
X87611428Y-49861428D01*
X87682857Y-49897142D01*
X87825714Y-49932857D01*
X87932857Y-49932857D01*
X88075714Y-49897142D01*
X88147142Y-49861428D01*
X88218571Y-49790000D01*
X88254285Y-49682857D01*
X88254285Y-49504285D01*
X87968571Y-50254285D02*
X87968571Y-50825714D01*
X88254285Y-50540000D02*
X87682857Y-50540000D01*
X87504285Y-69735000D02*
X87504285Y-69806428D01*
X87540000Y-69877857D01*
X87575714Y-69913571D01*
X87647142Y-69949285D01*
X87790000Y-69985000D01*
X87968571Y-69985000D01*
X88111428Y-69949285D01*
X88182857Y-69913571D01*
X88218571Y-69877857D01*
X88254285Y-69806428D01*
X88254285Y-69735000D01*
X88218571Y-69663571D01*
X88182857Y-69627857D01*
X88111428Y-69592142D01*
X87968571Y-69556428D01*
X87790000Y-69556428D01*
X87647142Y-69592142D01*
X87575714Y-69627857D01*
X87540000Y-69663571D01*
X87504285Y-69735000D01*
X87575714Y-70270714D02*
X87540000Y-70306428D01*
X87504285Y-70377857D01*
X87504285Y-70556428D01*
X87540000Y-70627857D01*
X87575714Y-70663571D01*
X87647142Y-70699285D01*
X87718571Y-70699285D01*
X87825714Y-70663571D01*
X88254285Y-70235000D01*
X88254285Y-70699285D01*
X87504285Y-71377857D02*
X87504285Y-71020714D01*
X87861428Y-70985000D01*
X87825714Y-71020714D01*
X87790000Y-71092142D01*
X87790000Y-71270714D01*
X87825714Y-71342142D01*
X87861428Y-71377857D01*
X87932857Y-71413571D01*
X88111428Y-71413571D01*
X88182857Y-71377857D01*
X88218571Y-71342142D01*
X88254285Y-71270714D01*
X88254285Y-71092142D01*
X88218571Y-71020714D01*
X88182857Y-70985000D01*
X83984285Y-67534285D02*
X83627142Y-67284285D01*
X83984285Y-67105714D02*
X83234285Y-67105714D01*
X83234285Y-67391428D01*
X83270000Y-67462857D01*
X83305714Y-67498571D01*
X83377142Y-67534285D01*
X83484285Y-67534285D01*
X83555714Y-67498571D01*
X83591428Y-67462857D01*
X83627142Y-67391428D01*
X83627142Y-67105714D01*
X83948571Y-67820000D02*
X83984285Y-67927142D01*
X83984285Y-68105714D01*
X83948571Y-68177142D01*
X83912857Y-68212857D01*
X83841428Y-68248571D01*
X83770000Y-68248571D01*
X83698571Y-68212857D01*
X83662857Y-68177142D01*
X83627142Y-68105714D01*
X83591428Y-67962857D01*
X83555714Y-67891428D01*
X83520000Y-67855714D01*
X83448571Y-67820000D01*
X83377142Y-67820000D01*
X83305714Y-67855714D01*
X83270000Y-67891428D01*
X83234285Y-67962857D01*
X83234285Y-68141428D01*
X83270000Y-68248571D01*
X83234285Y-68462857D02*
X83234285Y-68891428D01*
X83984285Y-68677142D02*
X83234285Y-68677142D01*
X107304285Y-36965000D02*
X107304285Y-36536428D01*
X107304285Y-36750714D02*
X106554285Y-36750714D01*
X106661428Y-36679285D01*
X106732857Y-36607857D01*
X106768571Y-36536428D01*
X106554285Y-37429285D02*
X106554285Y-37500714D01*
X106590000Y-37572142D01*
X106625714Y-37607857D01*
X106697142Y-37643571D01*
X106840000Y-37679285D01*
X107018571Y-37679285D01*
X107161428Y-37643571D01*
X107232857Y-37607857D01*
X107268571Y-37572142D01*
X107304285Y-37500714D01*
X107304285Y-37429285D01*
X107268571Y-37357857D01*
X107232857Y-37322142D01*
X107161428Y-37286428D01*
X107018571Y-37250714D01*
X106840000Y-37250714D01*
X106697142Y-37286428D01*
X106625714Y-37322142D01*
X106590000Y-37357857D01*
X106554285Y-37429285D01*
X107304285Y-38036428D02*
X107304285Y-38179285D01*
X107268571Y-38250714D01*
X107232857Y-38286428D01*
X107125714Y-38357857D01*
X106982857Y-38393571D01*
X106697142Y-38393571D01*
X106625714Y-38357857D01*
X106590000Y-38322142D01*
X106554285Y-38250714D01*
X106554285Y-38107857D01*
X106590000Y-38036428D01*
X106625714Y-38000714D01*
X106697142Y-37965000D01*
X106875714Y-37965000D01*
X106947142Y-38000714D01*
X106982857Y-38036428D01*
X107018571Y-38107857D01*
X107018571Y-38250714D01*
X106982857Y-38322142D01*
X106947142Y-38357857D01*
X106875714Y-38393571D01*
X40864285Y-39255000D02*
X40864285Y-39326428D01*
X40900000Y-39397857D01*
X40935714Y-39433571D01*
X41007142Y-39469285D01*
X41150000Y-39505000D01*
X41328571Y-39505000D01*
X41471428Y-39469285D01*
X41542857Y-39433571D01*
X41578571Y-39397857D01*
X41614285Y-39326428D01*
X41614285Y-39255000D01*
X41578571Y-39183571D01*
X41542857Y-39147857D01*
X41471428Y-39112142D01*
X41328571Y-39076428D01*
X41150000Y-39076428D01*
X41007142Y-39112142D01*
X40935714Y-39147857D01*
X40900000Y-39183571D01*
X40864285Y-39255000D01*
X41614285Y-40219285D02*
X41614285Y-39790714D01*
X41614285Y-40005000D02*
X40864285Y-40005000D01*
X40971428Y-39933571D01*
X41042857Y-39862142D01*
X41078571Y-39790714D01*
X41614285Y-40576428D02*
X41614285Y-40719285D01*
X41578571Y-40790714D01*
X41542857Y-40826428D01*
X41435714Y-40897857D01*
X41292857Y-40933571D01*
X41007142Y-40933571D01*
X40935714Y-40897857D01*
X40900000Y-40862142D01*
X40864285Y-40790714D01*
X40864285Y-40647857D01*
X40900000Y-40576428D01*
X40935714Y-40540714D01*
X41007142Y-40505000D01*
X41185714Y-40505000D01*
X41257142Y-40540714D01*
X41292857Y-40576428D01*
X41328571Y-40647857D01*
X41328571Y-40790714D01*
X41292857Y-40862142D01*
X41257142Y-40897857D01*
X41185714Y-40933571D01*
X87504285Y-57035000D02*
X87504285Y-57106428D01*
X87540000Y-57177857D01*
X87575714Y-57213571D01*
X87647142Y-57249285D01*
X87790000Y-57285000D01*
X87968571Y-57285000D01*
X88111428Y-57249285D01*
X88182857Y-57213571D01*
X88218571Y-57177857D01*
X88254285Y-57106428D01*
X88254285Y-57035000D01*
X88218571Y-56963571D01*
X88182857Y-56927857D01*
X88111428Y-56892142D01*
X87968571Y-56856428D01*
X87790000Y-56856428D01*
X87647142Y-56892142D01*
X87575714Y-56927857D01*
X87540000Y-56963571D01*
X87504285Y-57035000D01*
X87575714Y-57570714D02*
X87540000Y-57606428D01*
X87504285Y-57677857D01*
X87504285Y-57856428D01*
X87540000Y-57927857D01*
X87575714Y-57963571D01*
X87647142Y-57999285D01*
X87718571Y-57999285D01*
X87825714Y-57963571D01*
X88254285Y-57535000D01*
X88254285Y-57999285D01*
X87504285Y-58249285D02*
X87504285Y-58713571D01*
X87790000Y-58463571D01*
X87790000Y-58570714D01*
X87825714Y-58642142D01*
X87861428Y-58677857D01*
X87932857Y-58713571D01*
X88111428Y-58713571D01*
X88182857Y-58677857D01*
X88218571Y-58642142D01*
X88254285Y-58570714D01*
X88254285Y-58356428D01*
X88218571Y-58285000D01*
X88182857Y-58249285D01*
X87504285Y-51955000D02*
X87504285Y-52026428D01*
X87540000Y-52097857D01*
X87575714Y-52133571D01*
X87647142Y-52169285D01*
X87790000Y-52205000D01*
X87968571Y-52205000D01*
X88111428Y-52169285D01*
X88182857Y-52133571D01*
X88218571Y-52097857D01*
X88254285Y-52026428D01*
X88254285Y-51955000D01*
X88218571Y-51883571D01*
X88182857Y-51847857D01*
X88111428Y-51812142D01*
X87968571Y-51776428D01*
X87790000Y-51776428D01*
X87647142Y-51812142D01*
X87575714Y-51847857D01*
X87540000Y-51883571D01*
X87504285Y-51955000D01*
X88254285Y-52919285D02*
X88254285Y-52490714D01*
X88254285Y-52705000D02*
X87504285Y-52705000D01*
X87611428Y-52633571D01*
X87682857Y-52562142D01*
X87718571Y-52490714D01*
X87504285Y-53169285D02*
X87504285Y-53669285D01*
X88254285Y-53347857D01*
X110824285Y-44335000D02*
X110824285Y-44406428D01*
X110860000Y-44477857D01*
X110895714Y-44513571D01*
X110967142Y-44549285D01*
X111110000Y-44585000D01*
X111288571Y-44585000D01*
X111431428Y-44549285D01*
X111502857Y-44513571D01*
X111538571Y-44477857D01*
X111574285Y-44406428D01*
X111574285Y-44335000D01*
X111538571Y-44263571D01*
X111502857Y-44227857D01*
X111431428Y-44192142D01*
X111288571Y-44156428D01*
X111110000Y-44156428D01*
X110967142Y-44192142D01*
X110895714Y-44227857D01*
X110860000Y-44263571D01*
X110824285Y-44335000D01*
X111574285Y-45299285D02*
X111574285Y-44870714D01*
X111574285Y-45085000D02*
X110824285Y-45085000D01*
X110931428Y-45013571D01*
X111002857Y-44942142D01*
X111038571Y-44870714D01*
X110824285Y-45977857D02*
X110824285Y-45620714D01*
X111181428Y-45585000D01*
X111145714Y-45620714D01*
X111110000Y-45692142D01*
X111110000Y-45870714D01*
X111145714Y-45942142D01*
X111181428Y-45977857D01*
X111252857Y-46013571D01*
X111431428Y-46013571D01*
X111502857Y-45977857D01*
X111538571Y-45942142D01*
X111574285Y-45870714D01*
X111574285Y-45692142D01*
X111538571Y-45620714D01*
X111502857Y-45585000D01*
X64220000Y-74993571D02*
X64184285Y-74922142D01*
X64184285Y-74815000D01*
X64220000Y-74707857D01*
X64291428Y-74636428D01*
X64362857Y-74600714D01*
X64505714Y-74565000D01*
X64612857Y-74565000D01*
X64755714Y-74600714D01*
X64827142Y-74636428D01*
X64898571Y-74707857D01*
X64934285Y-74815000D01*
X64934285Y-74886428D01*
X64898571Y-74993571D01*
X64862857Y-75029285D01*
X64612857Y-75029285D01*
X64612857Y-74886428D01*
X64934285Y-75350714D02*
X64184285Y-75350714D01*
X64934285Y-75779285D01*
X64184285Y-75779285D01*
X64934285Y-76136428D02*
X64184285Y-76136428D01*
X64184285Y-76315000D01*
X64220000Y-76422142D01*
X64291428Y-76493571D01*
X64362857Y-76529285D01*
X64505714Y-76565000D01*
X64612857Y-76565000D01*
X64755714Y-76529285D01*
X64827142Y-76493571D01*
X64898571Y-76422142D01*
X64934285Y-76315000D01*
X64934285Y-76136428D01*
X83222588Y-59583014D02*
X83222588Y-59654442D01*
X83258303Y-59725871D01*
X83294017Y-59761585D01*
X83365445Y-59797299D01*
X83508303Y-59833014D01*
X83686874Y-59833014D01*
X83829731Y-59797299D01*
X83901160Y-59761585D01*
X83936874Y-59725871D01*
X83972588Y-59654442D01*
X83972588Y-59583014D01*
X83936874Y-59511585D01*
X83901160Y-59475871D01*
X83829731Y-59440156D01*
X83686874Y-59404442D01*
X83508303Y-59404442D01*
X83365445Y-59440156D01*
X83294017Y-59475871D01*
X83258303Y-59511585D01*
X83222588Y-59583014D01*
X83294017Y-60118728D02*
X83258303Y-60154442D01*
X83222588Y-60225871D01*
X83222588Y-60404442D01*
X83258303Y-60475871D01*
X83294017Y-60511585D01*
X83365445Y-60547299D01*
X83436874Y-60547299D01*
X83544017Y-60511585D01*
X83972588Y-60083014D01*
X83972588Y-60547299D01*
X83222588Y-61190156D02*
X83222588Y-61047299D01*
X83258303Y-60975871D01*
X83294017Y-60940156D01*
X83401160Y-60868728D01*
X83544017Y-60833014D01*
X83829731Y-60833014D01*
X83901160Y-60868728D01*
X83936874Y-60904442D01*
X83972588Y-60975871D01*
X83972588Y-61118728D01*
X83936874Y-61190156D01*
X83901160Y-61225871D01*
X83829731Y-61261585D01*
X83651160Y-61261585D01*
X83579731Y-61225871D01*
X83544017Y-61190156D01*
X83508303Y-61118728D01*
X83508303Y-60975871D01*
X83544017Y-60904442D01*
X83579731Y-60868728D01*
X83651160Y-60833014D01*
X40864285Y-62115000D02*
X40864285Y-62186428D01*
X40900000Y-62257857D01*
X40935714Y-62293571D01*
X41007142Y-62329285D01*
X41150000Y-62365000D01*
X41328571Y-62365000D01*
X41471428Y-62329285D01*
X41542857Y-62293571D01*
X41578571Y-62257857D01*
X41614285Y-62186428D01*
X41614285Y-62115000D01*
X41578571Y-62043571D01*
X41542857Y-62007857D01*
X41471428Y-61972142D01*
X41328571Y-61936428D01*
X41150000Y-61936428D01*
X41007142Y-61972142D01*
X40935714Y-62007857D01*
X40900000Y-62043571D01*
X40864285Y-62115000D01*
X40935714Y-62650714D02*
X40900000Y-62686428D01*
X40864285Y-62757857D01*
X40864285Y-62936428D01*
X40900000Y-63007857D01*
X40935714Y-63043571D01*
X41007142Y-63079285D01*
X41078571Y-63079285D01*
X41185714Y-63043571D01*
X41614285Y-62615000D01*
X41614285Y-63079285D01*
X40935714Y-63365000D02*
X40900000Y-63400714D01*
X40864285Y-63472142D01*
X40864285Y-63650714D01*
X40900000Y-63722142D01*
X40935714Y-63757857D01*
X41007142Y-63793571D01*
X41078571Y-63793571D01*
X41185714Y-63757857D01*
X41614285Y-63329285D01*
X41614285Y-63793571D01*
X60664285Y-75065000D02*
X60664285Y-74636428D01*
X60664285Y-74850714D02*
X59914285Y-74850714D01*
X60021428Y-74779285D01*
X60092857Y-74707857D01*
X60128571Y-74636428D01*
X59914285Y-75529285D02*
X59914285Y-75600714D01*
X59950000Y-75672142D01*
X59985714Y-75707857D01*
X60057142Y-75743571D01*
X60200000Y-75779285D01*
X60378571Y-75779285D01*
X60521428Y-75743571D01*
X60592857Y-75707857D01*
X60628571Y-75672142D01*
X60664285Y-75600714D01*
X60664285Y-75529285D01*
X60628571Y-75457857D01*
X60592857Y-75422142D01*
X60521428Y-75386428D01*
X60378571Y-75350714D01*
X60200000Y-75350714D01*
X60057142Y-75386428D01*
X59985714Y-75422142D01*
X59950000Y-75457857D01*
X59914285Y-75529285D01*
X59914285Y-76457857D02*
X59914285Y-76100714D01*
X60271428Y-76065000D01*
X60235714Y-76100714D01*
X60200000Y-76172142D01*
X60200000Y-76350714D01*
X60235714Y-76422142D01*
X60271428Y-76457857D01*
X60342857Y-76493571D01*
X60521428Y-76493571D01*
X60592857Y-76457857D01*
X60628571Y-76422142D01*
X60664285Y-76350714D01*
X60664285Y-76172142D01*
X60628571Y-76100714D01*
X60592857Y-76065000D01*
X107304285Y-75065000D02*
X107304285Y-74636428D01*
X107304285Y-74850714D02*
X106554285Y-74850714D01*
X106661428Y-74779285D01*
X106732857Y-74707857D01*
X106768571Y-74636428D01*
X106554285Y-75529285D02*
X106554285Y-75600714D01*
X106590000Y-75672142D01*
X106625714Y-75707857D01*
X106697142Y-75743571D01*
X106840000Y-75779285D01*
X107018571Y-75779285D01*
X107161428Y-75743571D01*
X107232857Y-75707857D01*
X107268571Y-75672142D01*
X107304285Y-75600714D01*
X107304285Y-75529285D01*
X107268571Y-75457857D01*
X107232857Y-75422142D01*
X107161428Y-75386428D01*
X107018571Y-75350714D01*
X106840000Y-75350714D01*
X106697142Y-75386428D01*
X106625714Y-75422142D01*
X106590000Y-75457857D01*
X106554285Y-75529285D01*
X106554285Y-76457857D02*
X106554285Y-76100714D01*
X106911428Y-76065000D01*
X106875714Y-76100714D01*
X106840000Y-76172142D01*
X106840000Y-76350714D01*
X106875714Y-76422142D01*
X106911428Y-76457857D01*
X106982857Y-76493571D01*
X107161428Y-76493571D01*
X107232857Y-76457857D01*
X107268571Y-76422142D01*
X107304285Y-76350714D01*
X107304285Y-76172142D01*
X107268571Y-76100714D01*
X107232857Y-76065000D01*
X129874285Y-51965154D02*
X129874285Y-52036582D01*
X129910000Y-52108011D01*
X129945714Y-52143725D01*
X130017142Y-52179439D01*
X130160000Y-52215154D01*
X130338571Y-52215154D01*
X130481428Y-52179439D01*
X130552857Y-52143725D01*
X130588571Y-52108011D01*
X130624285Y-52036582D01*
X130624285Y-51965154D01*
X130588571Y-51893725D01*
X130552857Y-51858011D01*
X130481428Y-51822296D01*
X130338571Y-51786582D01*
X130160000Y-51786582D01*
X130017142Y-51822296D01*
X129945714Y-51858011D01*
X129910000Y-51893725D01*
X129874285Y-51965154D01*
X129874285Y-52679439D02*
X129874285Y-52750868D01*
X129910000Y-52822296D01*
X129945714Y-52858011D01*
X130017142Y-52893725D01*
X130160000Y-52929439D01*
X130338571Y-52929439D01*
X130481428Y-52893725D01*
X130552857Y-52858011D01*
X130588571Y-52822296D01*
X130624285Y-52750868D01*
X130624285Y-52679439D01*
X130588571Y-52608011D01*
X130552857Y-52572296D01*
X130481428Y-52536582D01*
X130338571Y-52500868D01*
X130160000Y-52500868D01*
X130017142Y-52536582D01*
X129945714Y-52572296D01*
X129910000Y-52608011D01*
X129874285Y-52679439D01*
X129874285Y-53179439D02*
X129874285Y-53679439D01*
X130624285Y-53358011D01*
X64184285Y-62115000D02*
X64184285Y-62186428D01*
X64220000Y-62257857D01*
X64255714Y-62293571D01*
X64327142Y-62329285D01*
X64470000Y-62365000D01*
X64648571Y-62365000D01*
X64791428Y-62329285D01*
X64862857Y-62293571D01*
X64898571Y-62257857D01*
X64934285Y-62186428D01*
X64934285Y-62115000D01*
X64898571Y-62043571D01*
X64862857Y-62007857D01*
X64791428Y-61972142D01*
X64648571Y-61936428D01*
X64470000Y-61936428D01*
X64327142Y-61972142D01*
X64255714Y-62007857D01*
X64220000Y-62043571D01*
X64184285Y-62115000D01*
X64255714Y-62650714D02*
X64220000Y-62686428D01*
X64184285Y-62757857D01*
X64184285Y-62936428D01*
X64220000Y-63007857D01*
X64255714Y-63043571D01*
X64327142Y-63079285D01*
X64398571Y-63079285D01*
X64505714Y-63043571D01*
X64934285Y-62615000D01*
X64934285Y-63079285D01*
X64255714Y-63365000D02*
X64220000Y-63400714D01*
X64184285Y-63472142D01*
X64184285Y-63650714D01*
X64220000Y-63722142D01*
X64255714Y-63757857D01*
X64327142Y-63793571D01*
X64398571Y-63793571D01*
X64505714Y-63757857D01*
X64934285Y-63329285D01*
X64934285Y-63793571D01*
X41614285Y-29345000D02*
X41614285Y-28916428D01*
X41614285Y-29130714D02*
X40864285Y-29130714D01*
X40971428Y-29059285D01*
X41042857Y-28987857D01*
X41078571Y-28916428D01*
X40864285Y-29809285D02*
X40864285Y-29880714D01*
X40900000Y-29952142D01*
X40935714Y-29987857D01*
X41007142Y-30023571D01*
X41150000Y-30059285D01*
X41328571Y-30059285D01*
X41471428Y-30023571D01*
X41542857Y-29987857D01*
X41578571Y-29952142D01*
X41614285Y-29880714D01*
X41614285Y-29809285D01*
X41578571Y-29737857D01*
X41542857Y-29702142D01*
X41471428Y-29666428D01*
X41328571Y-29630714D01*
X41150000Y-29630714D01*
X41007142Y-29666428D01*
X40935714Y-29702142D01*
X40900000Y-29737857D01*
X40864285Y-29809285D01*
X40864285Y-30309285D02*
X40864285Y-30809285D01*
X41614285Y-30487857D01*
D12*
X47319857Y-79061428D02*
X47319857Y-78061428D01*
X47319857Y-78918571D02*
X47391285Y-78990000D01*
X47534142Y-79061428D01*
X47748428Y-79061428D01*
X47891285Y-78990000D01*
X47962714Y-78847142D01*
X47962714Y-78061428D01*
X49534142Y-78061428D02*
X49034142Y-78775714D01*
X48677000Y-78061428D02*
X48677000Y-79561428D01*
X49248428Y-79561428D01*
X49391285Y-79490000D01*
X49462714Y-79418571D01*
X49534142Y-79275714D01*
X49534142Y-79061428D01*
X49462714Y-78918571D01*
X49391285Y-78847142D01*
X49248428Y-78775714D01*
X48677000Y-78775714D01*
X50677000Y-78847142D02*
X50177000Y-78847142D01*
X50177000Y-78061428D02*
X50177000Y-79561428D01*
X50891285Y-79561428D01*
X51462714Y-78061428D02*
X51462714Y-79561428D01*
X52034142Y-79561428D01*
X52177000Y-79490000D01*
X52248428Y-79418571D01*
X52319857Y-79275714D01*
X52319857Y-79061428D01*
X52248428Y-78918571D01*
X52177000Y-78847142D01*
X52034142Y-78775714D01*
X51462714Y-78775714D01*
X52962714Y-78061428D02*
X52962714Y-79061428D01*
X52962714Y-79561428D02*
X52891285Y-79490000D01*
X52962714Y-79418571D01*
X53034142Y-79490000D01*
X52962714Y-79561428D01*
X52962714Y-79418571D01*
X53891285Y-78061428D02*
X53748428Y-78132857D01*
X53677000Y-78275714D01*
X53677000Y-79561428D01*
X54677000Y-78061428D02*
X54534142Y-78132857D01*
X54462714Y-78275714D01*
X54462714Y-79561428D01*
D10*
X59914285Y-62115000D02*
X59914285Y-62186428D01*
X59950000Y-62257857D01*
X59985714Y-62293571D01*
X60057142Y-62329285D01*
X60200000Y-62365000D01*
X60378571Y-62365000D01*
X60521428Y-62329285D01*
X60592857Y-62293571D01*
X60628571Y-62257857D01*
X60664285Y-62186428D01*
X60664285Y-62115000D01*
X60628571Y-62043571D01*
X60592857Y-62007857D01*
X60521428Y-61972142D01*
X60378571Y-61936428D01*
X60200000Y-61936428D01*
X60057142Y-61972142D01*
X59985714Y-62007857D01*
X59950000Y-62043571D01*
X59914285Y-62115000D01*
X59914285Y-62829285D02*
X59914285Y-62900714D01*
X59950000Y-62972142D01*
X59985714Y-63007857D01*
X60057142Y-63043571D01*
X60200000Y-63079285D01*
X60378571Y-63079285D01*
X60521428Y-63043571D01*
X60592857Y-63007857D01*
X60628571Y-62972142D01*
X60664285Y-62900714D01*
X60664285Y-62829285D01*
X60628571Y-62757857D01*
X60592857Y-62722142D01*
X60521428Y-62686428D01*
X60378571Y-62650714D01*
X60200000Y-62650714D01*
X60057142Y-62686428D01*
X59985714Y-62722142D01*
X59950000Y-62757857D01*
X59914285Y-62829285D01*
X59914285Y-63757857D02*
X59914285Y-63400714D01*
X60271428Y-63365000D01*
X60235714Y-63400714D01*
X60200000Y-63472142D01*
X60200000Y-63650714D01*
X60235714Y-63722142D01*
X60271428Y-63757857D01*
X60342857Y-63793571D01*
X60521428Y-63793571D01*
X60592857Y-63757857D01*
X60628571Y-63722142D01*
X60664285Y-63650714D01*
X60664285Y-63472142D01*
X60628571Y-63400714D01*
X60592857Y-63365000D01*
X129874285Y-64655000D02*
X129874285Y-64726428D01*
X129910000Y-64797857D01*
X129945714Y-64833571D01*
X130017142Y-64869285D01*
X130160000Y-64905000D01*
X130338571Y-64905000D01*
X130481428Y-64869285D01*
X130552857Y-64833571D01*
X130588571Y-64797857D01*
X130624285Y-64726428D01*
X130624285Y-64655000D01*
X130588571Y-64583571D01*
X130552857Y-64547857D01*
X130481428Y-64512142D01*
X130338571Y-64476428D01*
X130160000Y-64476428D01*
X130017142Y-64512142D01*
X129945714Y-64547857D01*
X129910000Y-64583571D01*
X129874285Y-64655000D01*
X129945714Y-65190714D02*
X129910000Y-65226428D01*
X129874285Y-65297857D01*
X129874285Y-65476428D01*
X129910000Y-65547857D01*
X129945714Y-65583571D01*
X130017142Y-65619285D01*
X130088571Y-65619285D01*
X130195714Y-65583571D01*
X130624285Y-65155000D01*
X130624285Y-65619285D01*
X129874285Y-65869285D02*
X129874285Y-66369285D01*
X130624285Y-66047857D01*
X41320773Y-72060714D02*
X41320773Y-72632142D01*
X41606487Y-72346428D02*
X41035059Y-72346428D01*
X40856487Y-73346428D02*
X40856487Y-72989285D01*
X41213630Y-72953571D01*
X41177916Y-72989285D01*
X41142202Y-73060714D01*
X41142202Y-73239285D01*
X41177916Y-73310714D01*
X41213630Y-73346428D01*
X41285059Y-73382142D01*
X41463630Y-73382142D01*
X41535059Y-73346428D01*
X41570773Y-73310714D01*
X41606487Y-73239285D01*
X41606487Y-73060714D01*
X41570773Y-72989285D01*
X41535059Y-72953571D01*
X40856487Y-73596428D02*
X41606487Y-73846428D01*
X40856487Y-74096428D01*
X64184285Y-54495000D02*
X64184285Y-54566428D01*
X64220000Y-54637857D01*
X64255714Y-54673571D01*
X64327142Y-54709285D01*
X64470000Y-54745000D01*
X64648571Y-54745000D01*
X64791428Y-54709285D01*
X64862857Y-54673571D01*
X64898571Y-54637857D01*
X64934285Y-54566428D01*
X64934285Y-54495000D01*
X64898571Y-54423571D01*
X64862857Y-54387857D01*
X64791428Y-54352142D01*
X64648571Y-54316428D01*
X64470000Y-54316428D01*
X64327142Y-54352142D01*
X64255714Y-54387857D01*
X64220000Y-54423571D01*
X64184285Y-54495000D01*
X64255714Y-55030714D02*
X64220000Y-55066428D01*
X64184285Y-55137857D01*
X64184285Y-55316428D01*
X64220000Y-55387857D01*
X64255714Y-55423571D01*
X64327142Y-55459285D01*
X64398571Y-55459285D01*
X64505714Y-55423571D01*
X64934285Y-54995000D01*
X64934285Y-55459285D01*
X64934285Y-56173571D02*
X64934285Y-55745000D01*
X64934285Y-55959285D02*
X64184285Y-55959285D01*
X64291428Y-55887857D01*
X64362857Y-55816428D01*
X64398571Y-55745000D01*
X59914285Y-64655000D02*
X59914285Y-64726428D01*
X59950000Y-64797857D01*
X59985714Y-64833571D01*
X60057142Y-64869285D01*
X60200000Y-64905000D01*
X60378571Y-64905000D01*
X60521428Y-64869285D01*
X60592857Y-64833571D01*
X60628571Y-64797857D01*
X60664285Y-64726428D01*
X60664285Y-64655000D01*
X60628571Y-64583571D01*
X60592857Y-64547857D01*
X60521428Y-64512142D01*
X60378571Y-64476428D01*
X60200000Y-64476428D01*
X60057142Y-64512142D01*
X59985714Y-64547857D01*
X59950000Y-64583571D01*
X59914285Y-64655000D01*
X59985714Y-65190714D02*
X59950000Y-65226428D01*
X59914285Y-65297857D01*
X59914285Y-65476428D01*
X59950000Y-65547857D01*
X59985714Y-65583571D01*
X60057142Y-65619285D01*
X60128571Y-65619285D01*
X60235714Y-65583571D01*
X60664285Y-65155000D01*
X60664285Y-65619285D01*
X59914285Y-65869285D02*
X59914285Y-66369285D01*
X60664285Y-66047857D01*
X64184285Y-59575000D02*
X64184285Y-59646428D01*
X64220000Y-59717857D01*
X64255714Y-59753571D01*
X64327142Y-59789285D01*
X64470000Y-59825000D01*
X64648571Y-59825000D01*
X64791428Y-59789285D01*
X64862857Y-59753571D01*
X64898571Y-59717857D01*
X64934285Y-59646428D01*
X64934285Y-59575000D01*
X64898571Y-59503571D01*
X64862857Y-59467857D01*
X64791428Y-59432142D01*
X64648571Y-59396428D01*
X64470000Y-59396428D01*
X64327142Y-59432142D01*
X64255714Y-59467857D01*
X64220000Y-59503571D01*
X64184285Y-59575000D01*
X64255714Y-60110714D02*
X64220000Y-60146428D01*
X64184285Y-60217857D01*
X64184285Y-60396428D01*
X64220000Y-60467857D01*
X64255714Y-60503571D01*
X64327142Y-60539285D01*
X64398571Y-60539285D01*
X64505714Y-60503571D01*
X64934285Y-60075000D01*
X64934285Y-60539285D01*
X64184285Y-61003571D02*
X64184285Y-61075000D01*
X64220000Y-61146428D01*
X64255714Y-61182142D01*
X64327142Y-61217857D01*
X64470000Y-61253571D01*
X64648571Y-61253571D01*
X64791428Y-61217857D01*
X64862857Y-61182142D01*
X64898571Y-61146428D01*
X64934285Y-61075000D01*
X64934285Y-61003571D01*
X64898571Y-60932142D01*
X64862857Y-60896428D01*
X64791428Y-60860714D01*
X64648571Y-60825000D01*
X64470000Y-60825000D01*
X64327142Y-60860714D01*
X64255714Y-60896428D01*
X64220000Y-60932142D01*
X64184285Y-61003571D01*
X111574285Y-49504285D02*
X110824285Y-49504285D01*
X110824285Y-49682857D01*
X110860000Y-49790000D01*
X110931428Y-49861428D01*
X111002857Y-49897142D01*
X111145714Y-49932857D01*
X111252857Y-49932857D01*
X111395714Y-49897142D01*
X111467142Y-49861428D01*
X111538571Y-49790000D01*
X111574285Y-49682857D01*
X111574285Y-49504285D01*
X111288571Y-50254285D02*
X111288571Y-50825714D01*
X111574285Y-50540000D02*
X111002857Y-50540000D01*
D11*
X99058571Y-70077857D02*
X99058571Y-70977857D01*
X99272857Y-70977857D01*
X99401428Y-70935000D01*
X99487142Y-70849285D01*
X99530000Y-70763571D01*
X99572857Y-70592142D01*
X99572857Y-70463571D01*
X99530000Y-70292142D01*
X99487142Y-70206428D01*
X99401428Y-70120714D01*
X99272857Y-70077857D01*
X99058571Y-70077857D01*
X99958571Y-70077857D02*
X99958571Y-70977857D01*
X100558571Y-70977857D02*
X100730000Y-70977857D01*
X100815714Y-70935000D01*
X100901428Y-70849285D01*
X100944285Y-70677857D01*
X100944285Y-70377857D01*
X100901428Y-70206428D01*
X100815714Y-70120714D01*
X100730000Y-70077857D01*
X100558571Y-70077857D01*
X100472857Y-70120714D01*
X100387142Y-70206428D01*
X100344285Y-70377857D01*
X100344285Y-70677857D01*
X100387142Y-70849285D01*
X100472857Y-70935000D01*
X100558571Y-70977857D01*
D10*
X60378571Y-28880714D02*
X60378571Y-29452142D01*
X60664285Y-29166428D02*
X60092857Y-29166428D01*
X59914285Y-30166428D02*
X59914285Y-29809285D01*
X60271428Y-29773571D01*
X60235714Y-29809285D01*
X60200000Y-29880714D01*
X60200000Y-30059285D01*
X60235714Y-30130714D01*
X60271428Y-30166428D01*
X60342857Y-30202142D01*
X60521428Y-30202142D01*
X60592857Y-30166428D01*
X60628571Y-30130714D01*
X60664285Y-30059285D01*
X60664285Y-29880714D01*
X60628571Y-29809285D01*
X60592857Y-29773571D01*
X59914285Y-30416428D02*
X60664285Y-30666428D01*
X59914285Y-30916428D01*
X129874285Y-54495000D02*
X129874285Y-54566428D01*
X129910000Y-54637857D01*
X129945714Y-54673571D01*
X130017142Y-54709285D01*
X130160000Y-54745000D01*
X130338571Y-54745000D01*
X130481428Y-54709285D01*
X130552857Y-54673571D01*
X130588571Y-54637857D01*
X130624285Y-54566428D01*
X130624285Y-54495000D01*
X130588571Y-54423571D01*
X130552857Y-54387857D01*
X130481428Y-54352142D01*
X130338571Y-54316428D01*
X130160000Y-54316428D01*
X130017142Y-54352142D01*
X129945714Y-54387857D01*
X129910000Y-54423571D01*
X129874285Y-54495000D01*
X129874285Y-54995000D02*
X129874285Y-55459285D01*
X130160000Y-55209285D01*
X130160000Y-55316428D01*
X130195714Y-55387857D01*
X130231428Y-55423571D01*
X130302857Y-55459285D01*
X130481428Y-55459285D01*
X130552857Y-55423571D01*
X130588571Y-55387857D01*
X130624285Y-55316428D01*
X130624285Y-55102142D01*
X130588571Y-55030714D01*
X130552857Y-54995000D01*
X130624285Y-56173571D02*
X130624285Y-55745000D01*
X130624285Y-55959285D02*
X129874285Y-55959285D01*
X129981428Y-55887857D01*
X130052857Y-55816428D01*
X130088571Y-55745000D01*
X106554285Y-33925000D02*
X107304285Y-34175000D01*
X106554285Y-34425000D01*
X107232857Y-35103571D02*
X107268571Y-35067857D01*
X107304285Y-34960714D01*
X107304285Y-34889285D01*
X107268571Y-34782142D01*
X107197142Y-34710714D01*
X107125714Y-34675000D01*
X106982857Y-34639285D01*
X106875714Y-34639285D01*
X106732857Y-34675000D01*
X106661428Y-34710714D01*
X106590000Y-34782142D01*
X106554285Y-34889285D01*
X106554285Y-34960714D01*
X106590000Y-35067857D01*
X106625714Y-35103571D01*
X107232857Y-35853571D02*
X107268571Y-35817857D01*
X107304285Y-35710714D01*
X107304285Y-35639285D01*
X107268571Y-35532142D01*
X107197142Y-35460714D01*
X107125714Y-35425000D01*
X106982857Y-35389285D01*
X106875714Y-35389285D01*
X106732857Y-35425000D01*
X106661428Y-35460714D01*
X106590000Y-35532142D01*
X106554285Y-35639285D01*
X106554285Y-35710714D01*
X106590000Y-35817857D01*
X106625714Y-35853571D01*
X129874285Y-62115000D02*
X129874285Y-62186428D01*
X129910000Y-62257857D01*
X129945714Y-62293571D01*
X130017142Y-62329285D01*
X130160000Y-62365000D01*
X130338571Y-62365000D01*
X130481428Y-62329285D01*
X130552857Y-62293571D01*
X130588571Y-62257857D01*
X130624285Y-62186428D01*
X130624285Y-62115000D01*
X130588571Y-62043571D01*
X130552857Y-62007857D01*
X130481428Y-61972142D01*
X130338571Y-61936428D01*
X130160000Y-61936428D01*
X130017142Y-61972142D01*
X129945714Y-62007857D01*
X129910000Y-62043571D01*
X129874285Y-62115000D01*
X129874285Y-62829285D02*
X129874285Y-62900714D01*
X129910000Y-62972142D01*
X129945714Y-63007857D01*
X130017142Y-63043571D01*
X130160000Y-63079285D01*
X130338571Y-63079285D01*
X130481428Y-63043571D01*
X130552857Y-63007857D01*
X130588571Y-62972142D01*
X130624285Y-62900714D01*
X130624285Y-62829285D01*
X130588571Y-62757857D01*
X130552857Y-62722142D01*
X130481428Y-62686428D01*
X130338571Y-62650714D01*
X130160000Y-62650714D01*
X130017142Y-62686428D01*
X129945714Y-62722142D01*
X129910000Y-62757857D01*
X129874285Y-62829285D01*
X129874285Y-63757857D02*
X129874285Y-63400714D01*
X130231428Y-63365000D01*
X130195714Y-63400714D01*
X130160000Y-63472142D01*
X130160000Y-63650714D01*
X130195714Y-63722142D01*
X130231428Y-63757857D01*
X130302857Y-63793571D01*
X130481428Y-63793571D01*
X130552857Y-63757857D01*
X130588571Y-63722142D01*
X130624285Y-63650714D01*
X130624285Y-63472142D01*
X130588571Y-63400714D01*
X130552857Y-63365000D01*
X64184285Y-44335000D02*
X64184285Y-44406428D01*
X64220000Y-44477857D01*
X64255714Y-44513571D01*
X64327142Y-44549285D01*
X64470000Y-44585000D01*
X64648571Y-44585000D01*
X64791428Y-44549285D01*
X64862857Y-44513571D01*
X64898571Y-44477857D01*
X64934285Y-44406428D01*
X64934285Y-44335000D01*
X64898571Y-44263571D01*
X64862857Y-44227857D01*
X64791428Y-44192142D01*
X64648571Y-44156428D01*
X64470000Y-44156428D01*
X64327142Y-44192142D01*
X64255714Y-44227857D01*
X64220000Y-44263571D01*
X64184285Y-44335000D01*
X64934285Y-45299285D02*
X64934285Y-44870714D01*
X64934285Y-45085000D02*
X64184285Y-45085000D01*
X64291428Y-45013571D01*
X64362857Y-44942142D01*
X64398571Y-44870714D01*
X64184285Y-45977857D02*
X64184285Y-45620714D01*
X64541428Y-45585000D01*
X64505714Y-45620714D01*
X64470000Y-45692142D01*
X64470000Y-45870714D01*
X64505714Y-45942142D01*
X64541428Y-45977857D01*
X64612857Y-46013571D01*
X64791428Y-46013571D01*
X64862857Y-45977857D01*
X64898571Y-45942142D01*
X64934285Y-45870714D01*
X64934285Y-45692142D01*
X64898571Y-45620714D01*
X64862857Y-45585000D01*
X64184285Y-51955000D02*
X64184285Y-52026428D01*
X64220000Y-52097857D01*
X64255714Y-52133571D01*
X64327142Y-52169285D01*
X64470000Y-52205000D01*
X64648571Y-52205000D01*
X64791428Y-52169285D01*
X64862857Y-52133571D01*
X64898571Y-52097857D01*
X64934285Y-52026428D01*
X64934285Y-51955000D01*
X64898571Y-51883571D01*
X64862857Y-51847857D01*
X64791428Y-51812142D01*
X64648571Y-51776428D01*
X64470000Y-51776428D01*
X64327142Y-51812142D01*
X64255714Y-51847857D01*
X64220000Y-51883571D01*
X64184285Y-51955000D01*
X64934285Y-52919285D02*
X64934285Y-52490714D01*
X64934285Y-52705000D02*
X64184285Y-52705000D01*
X64291428Y-52633571D01*
X64362857Y-52562142D01*
X64398571Y-52490714D01*
X64184285Y-53169285D02*
X64184285Y-53669285D01*
X64934285Y-53347857D01*
X87496487Y-77107058D02*
X88246487Y-77357058D01*
X87496487Y-77607058D01*
X88175059Y-78285629D02*
X88210773Y-78249915D01*
X88246487Y-78142772D01*
X88246487Y-78071343D01*
X88210773Y-77964200D01*
X88139344Y-77892772D01*
X88067916Y-77857058D01*
X87925059Y-77821343D01*
X87817916Y-77821343D01*
X87675059Y-77857058D01*
X87603630Y-77892772D01*
X87532202Y-77964200D01*
X87496487Y-78071343D01*
X87496487Y-78142772D01*
X87532202Y-78249915D01*
X87567916Y-78285629D01*
X88175059Y-79035629D02*
X88210773Y-78999915D01*
X88246487Y-78892772D01*
X88246487Y-78821343D01*
X88210773Y-78714200D01*
X88139344Y-78642772D01*
X88067916Y-78607058D01*
X87925059Y-78571343D01*
X87817916Y-78571343D01*
X87675059Y-78607058D01*
X87603630Y-78642772D01*
X87532202Y-78714200D01*
X87496487Y-78821343D01*
X87496487Y-78892772D01*
X87532202Y-78999915D01*
X87567916Y-79035629D01*
X83234285Y-39255000D02*
X83234285Y-39326428D01*
X83270000Y-39397857D01*
X83305714Y-39433571D01*
X83377142Y-39469285D01*
X83520000Y-39505000D01*
X83698571Y-39505000D01*
X83841428Y-39469285D01*
X83912857Y-39433571D01*
X83948571Y-39397857D01*
X83984285Y-39326428D01*
X83984285Y-39255000D01*
X83948571Y-39183571D01*
X83912857Y-39147857D01*
X83841428Y-39112142D01*
X83698571Y-39076428D01*
X83520000Y-39076428D01*
X83377142Y-39112142D01*
X83305714Y-39147857D01*
X83270000Y-39183571D01*
X83234285Y-39255000D01*
X83305714Y-39790714D02*
X83270000Y-39826428D01*
X83234285Y-39897857D01*
X83234285Y-40076428D01*
X83270000Y-40147857D01*
X83305714Y-40183571D01*
X83377142Y-40219285D01*
X83448571Y-40219285D01*
X83555714Y-40183571D01*
X83984285Y-39755000D01*
X83984285Y-40219285D01*
X83555714Y-40647857D02*
X83520000Y-40576428D01*
X83484285Y-40540714D01*
X83412857Y-40505000D01*
X83377142Y-40505000D01*
X83305714Y-40540714D01*
X83270000Y-40576428D01*
X83234285Y-40647857D01*
X83234285Y-40790714D01*
X83270000Y-40862142D01*
X83305714Y-40897857D01*
X83377142Y-40933571D01*
X83412857Y-40933571D01*
X83484285Y-40897857D01*
X83520000Y-40862142D01*
X83555714Y-40790714D01*
X83555714Y-40647857D01*
X83591428Y-40576428D01*
X83627142Y-40540714D01*
X83698571Y-40505000D01*
X83841428Y-40505000D01*
X83912857Y-40540714D01*
X83948571Y-40576428D01*
X83984285Y-40647857D01*
X83984285Y-40790714D01*
X83948571Y-40862142D01*
X83912857Y-40897857D01*
X83841428Y-40933571D01*
X83698571Y-40933571D01*
X83627142Y-40897857D01*
X83591428Y-40862142D01*
X83555714Y-40790714D01*
X106554285Y-72275000D02*
X106554285Y-72346428D01*
X106590000Y-72417857D01*
X106625714Y-72453571D01*
X106697142Y-72489285D01*
X106840000Y-72525000D01*
X107018571Y-72525000D01*
X107161428Y-72489285D01*
X107232857Y-72453571D01*
X107268571Y-72417857D01*
X107304285Y-72346428D01*
X107304285Y-72275000D01*
X107268571Y-72203571D01*
X107232857Y-72167857D01*
X107161428Y-72132142D01*
X107018571Y-72096428D01*
X106840000Y-72096428D01*
X106697142Y-72132142D01*
X106625714Y-72167857D01*
X106590000Y-72203571D01*
X106554285Y-72275000D01*
X106554285Y-72989285D02*
X106554285Y-73060714D01*
X106590000Y-73132142D01*
X106625714Y-73167857D01*
X106697142Y-73203571D01*
X106840000Y-73239285D01*
X107018571Y-73239285D01*
X107161428Y-73203571D01*
X107232857Y-73167857D01*
X107268571Y-73132142D01*
X107304285Y-73060714D01*
X107304285Y-72989285D01*
X107268571Y-72917857D01*
X107232857Y-72882142D01*
X107161428Y-72846428D01*
X107018571Y-72810714D01*
X106840000Y-72810714D01*
X106697142Y-72846428D01*
X106625714Y-72882142D01*
X106590000Y-72917857D01*
X106554285Y-72989285D01*
X107304285Y-73953571D02*
X107304285Y-73525000D01*
X107304285Y-73739285D02*
X106554285Y-73739285D01*
X106661428Y-73667857D01*
X106732857Y-73596428D01*
X106768571Y-73525000D01*
X59902588Y-59583014D02*
X59902588Y-59654442D01*
X59938303Y-59725871D01*
X59974017Y-59761585D01*
X60045445Y-59797299D01*
X60188303Y-59833014D01*
X60366874Y-59833014D01*
X60509731Y-59797299D01*
X60581160Y-59761585D01*
X60616874Y-59725871D01*
X60652588Y-59654442D01*
X60652588Y-59583014D01*
X60616874Y-59511585D01*
X60581160Y-59475871D01*
X60509731Y-59440156D01*
X60366874Y-59404442D01*
X60188303Y-59404442D01*
X60045445Y-59440156D01*
X59974017Y-59475871D01*
X59938303Y-59511585D01*
X59902588Y-59583014D01*
X59974017Y-60118728D02*
X59938303Y-60154442D01*
X59902588Y-60225871D01*
X59902588Y-60404442D01*
X59938303Y-60475871D01*
X59974017Y-60511585D01*
X60045445Y-60547299D01*
X60116874Y-60547299D01*
X60224017Y-60511585D01*
X60652588Y-60083014D01*
X60652588Y-60547299D01*
X59902588Y-61190156D02*
X59902588Y-61047299D01*
X59938303Y-60975871D01*
X59974017Y-60940156D01*
X60081160Y-60868728D01*
X60224017Y-60833014D01*
X60509731Y-60833014D01*
X60581160Y-60868728D01*
X60616874Y-60904442D01*
X60652588Y-60975871D01*
X60652588Y-61118728D01*
X60616874Y-61190156D01*
X60581160Y-61225871D01*
X60509731Y-61261585D01*
X60331160Y-61261585D01*
X60259731Y-61225871D01*
X60224017Y-61190156D01*
X60188303Y-61118728D01*
X60188303Y-60975871D01*
X60224017Y-60904442D01*
X60259731Y-60868728D01*
X60331160Y-60833014D01*
X110824285Y-62115000D02*
X110824285Y-62186428D01*
X110860000Y-62257857D01*
X110895714Y-62293571D01*
X110967142Y-62329285D01*
X111110000Y-62365000D01*
X111288571Y-62365000D01*
X111431428Y-62329285D01*
X111502857Y-62293571D01*
X111538571Y-62257857D01*
X111574285Y-62186428D01*
X111574285Y-62115000D01*
X111538571Y-62043571D01*
X111502857Y-62007857D01*
X111431428Y-61972142D01*
X111288571Y-61936428D01*
X111110000Y-61936428D01*
X110967142Y-61972142D01*
X110895714Y-62007857D01*
X110860000Y-62043571D01*
X110824285Y-62115000D01*
X110895714Y-62650714D02*
X110860000Y-62686428D01*
X110824285Y-62757857D01*
X110824285Y-62936428D01*
X110860000Y-63007857D01*
X110895714Y-63043571D01*
X110967142Y-63079285D01*
X111038571Y-63079285D01*
X111145714Y-63043571D01*
X111574285Y-62615000D01*
X111574285Y-63079285D01*
X110895714Y-63365000D02*
X110860000Y-63400714D01*
X110824285Y-63472142D01*
X110824285Y-63650714D01*
X110860000Y-63722142D01*
X110895714Y-63757857D01*
X110967142Y-63793571D01*
X111038571Y-63793571D01*
X111145714Y-63757857D01*
X111574285Y-63329285D01*
X111574285Y-63793571D01*
X59914285Y-33925000D02*
X60664285Y-34175000D01*
X59914285Y-34425000D01*
X60592857Y-35103571D02*
X60628571Y-35067857D01*
X60664285Y-34960714D01*
X60664285Y-34889285D01*
X60628571Y-34782142D01*
X60557142Y-34710714D01*
X60485714Y-34675000D01*
X60342857Y-34639285D01*
X60235714Y-34639285D01*
X60092857Y-34675000D01*
X60021428Y-34710714D01*
X59950000Y-34782142D01*
X59914285Y-34889285D01*
X59914285Y-34960714D01*
X59950000Y-35067857D01*
X59985714Y-35103571D01*
X60592857Y-35853571D02*
X60628571Y-35817857D01*
X60664285Y-35710714D01*
X60664285Y-35639285D01*
X60628571Y-35532142D01*
X60557142Y-35460714D01*
X60485714Y-35425000D01*
X60342857Y-35389285D01*
X60235714Y-35389285D01*
X60092857Y-35425000D01*
X60021428Y-35460714D01*
X59950000Y-35532142D01*
X59914285Y-35639285D01*
X59914285Y-35710714D01*
X59950000Y-35817857D01*
X59985714Y-35853571D01*
X64184285Y-34175000D02*
X64184285Y-34246428D01*
X64220000Y-34317857D01*
X64255714Y-34353571D01*
X64327142Y-34389285D01*
X64470000Y-34425000D01*
X64648571Y-34425000D01*
X64791428Y-34389285D01*
X64862857Y-34353571D01*
X64898571Y-34317857D01*
X64934285Y-34246428D01*
X64934285Y-34175000D01*
X64898571Y-34103571D01*
X64862857Y-34067857D01*
X64791428Y-34032142D01*
X64648571Y-33996428D01*
X64470000Y-33996428D01*
X64327142Y-34032142D01*
X64255714Y-34067857D01*
X64220000Y-34103571D01*
X64184285Y-34175000D01*
X64934285Y-35139285D02*
X64934285Y-34710714D01*
X64934285Y-34925000D02*
X64184285Y-34925000D01*
X64291428Y-34853571D01*
X64362857Y-34782142D01*
X64398571Y-34710714D01*
X64184285Y-35782142D02*
X64184285Y-35639285D01*
X64220000Y-35567857D01*
X64255714Y-35532142D01*
X64362857Y-35460714D01*
X64505714Y-35425000D01*
X64791428Y-35425000D01*
X64862857Y-35460714D01*
X64898571Y-35496428D01*
X64934285Y-35567857D01*
X64934285Y-35710714D01*
X64898571Y-35782142D01*
X64862857Y-35817857D01*
X64791428Y-35853571D01*
X64612857Y-35853571D01*
X64541428Y-35817857D01*
X64505714Y-35782142D01*
X64470000Y-35710714D01*
X64470000Y-35567857D01*
X64505714Y-35496428D01*
X64541428Y-35460714D01*
X64612857Y-35425000D01*
X106554285Y-51965154D02*
X106554285Y-52036582D01*
X106590000Y-52108011D01*
X106625714Y-52143725D01*
X106697142Y-52179439D01*
X106840000Y-52215154D01*
X107018571Y-52215154D01*
X107161428Y-52179439D01*
X107232857Y-52143725D01*
X107268571Y-52108011D01*
X107304285Y-52036582D01*
X107304285Y-51965154D01*
X107268571Y-51893725D01*
X107232857Y-51858011D01*
X107161428Y-51822296D01*
X107018571Y-51786582D01*
X106840000Y-51786582D01*
X106697142Y-51822296D01*
X106625714Y-51858011D01*
X106590000Y-51893725D01*
X106554285Y-51965154D01*
X106554285Y-52679439D02*
X106554285Y-52750868D01*
X106590000Y-52822296D01*
X106625714Y-52858011D01*
X106697142Y-52893725D01*
X106840000Y-52929439D01*
X107018571Y-52929439D01*
X107161428Y-52893725D01*
X107232857Y-52858011D01*
X107268571Y-52822296D01*
X107304285Y-52750868D01*
X107304285Y-52679439D01*
X107268571Y-52608011D01*
X107232857Y-52572296D01*
X107161428Y-52536582D01*
X107018571Y-52500868D01*
X106840000Y-52500868D01*
X106697142Y-52536582D01*
X106625714Y-52572296D01*
X106590000Y-52608011D01*
X106554285Y-52679439D01*
X106554285Y-53179439D02*
X106554285Y-53679439D01*
X107304285Y-53358011D01*
X130624285Y-47125000D02*
X130624285Y-46696428D01*
X130624285Y-46910714D02*
X129874285Y-46910714D01*
X129981428Y-46839285D01*
X130052857Y-46767857D01*
X130088571Y-46696428D01*
X129874285Y-47589285D02*
X129874285Y-47660714D01*
X129910000Y-47732142D01*
X129945714Y-47767857D01*
X130017142Y-47803571D01*
X130160000Y-47839285D01*
X130338571Y-47839285D01*
X130481428Y-47803571D01*
X130552857Y-47767857D01*
X130588571Y-47732142D01*
X130624285Y-47660714D01*
X130624285Y-47589285D01*
X130588571Y-47517857D01*
X130552857Y-47482142D01*
X130481428Y-47446428D01*
X130338571Y-47410714D01*
X130160000Y-47410714D01*
X130017142Y-47446428D01*
X129945714Y-47482142D01*
X129910000Y-47517857D01*
X129874285Y-47589285D01*
X130195714Y-48267857D02*
X130160000Y-48196428D01*
X130124285Y-48160714D01*
X130052857Y-48125000D01*
X130017142Y-48125000D01*
X129945714Y-48160714D01*
X129910000Y-48196428D01*
X129874285Y-48267857D01*
X129874285Y-48410714D01*
X129910000Y-48482142D01*
X129945714Y-48517857D01*
X130017142Y-48553571D01*
X130052857Y-48553571D01*
X130124285Y-48517857D01*
X130160000Y-48482142D01*
X130195714Y-48410714D01*
X130195714Y-48267857D01*
X130231428Y-48196428D01*
X130267142Y-48160714D01*
X130338571Y-48125000D01*
X130481428Y-48125000D01*
X130552857Y-48160714D01*
X130588571Y-48196428D01*
X130624285Y-48267857D01*
X130624285Y-48410714D01*
X130588571Y-48482142D01*
X130552857Y-48517857D01*
X130481428Y-48553571D01*
X130338571Y-48553571D01*
X130267142Y-48517857D01*
X130231428Y-48482142D01*
X130195714Y-48410714D01*
X40900000Y-74993571D02*
X40864285Y-74922142D01*
X40864285Y-74815000D01*
X40900000Y-74707857D01*
X40971428Y-74636428D01*
X41042857Y-74600714D01*
X41185714Y-74565000D01*
X41292857Y-74565000D01*
X41435714Y-74600714D01*
X41507142Y-74636428D01*
X41578571Y-74707857D01*
X41614285Y-74815000D01*
X41614285Y-74886428D01*
X41578571Y-74993571D01*
X41542857Y-75029285D01*
X41292857Y-75029285D01*
X41292857Y-74886428D01*
X41614285Y-75350714D02*
X40864285Y-75350714D01*
X41614285Y-75779285D01*
X40864285Y-75779285D01*
X41614285Y-76136428D02*
X40864285Y-76136428D01*
X40864285Y-76315000D01*
X40900000Y-76422142D01*
X40971428Y-76493571D01*
X41042857Y-76529285D01*
X41185714Y-76565000D01*
X41292857Y-76565000D01*
X41435714Y-76529285D01*
X41507142Y-76493571D01*
X41578571Y-76422142D01*
X41614285Y-76315000D01*
X41614285Y-76136428D01*
X60664285Y-67534285D02*
X60307142Y-67284285D01*
X60664285Y-67105714D02*
X59914285Y-67105714D01*
X59914285Y-67391428D01*
X59950000Y-67462857D01*
X59985714Y-67498571D01*
X60057142Y-67534285D01*
X60164285Y-67534285D01*
X60235714Y-67498571D01*
X60271428Y-67462857D01*
X60307142Y-67391428D01*
X60307142Y-67105714D01*
X60628571Y-67820000D02*
X60664285Y-67927142D01*
X60664285Y-68105714D01*
X60628571Y-68177142D01*
X60592857Y-68212857D01*
X60521428Y-68248571D01*
X60450000Y-68248571D01*
X60378571Y-68212857D01*
X60342857Y-68177142D01*
X60307142Y-68105714D01*
X60271428Y-67962857D01*
X60235714Y-67891428D01*
X60200000Y-67855714D01*
X60128571Y-67820000D01*
X60057142Y-67820000D01*
X59985714Y-67855714D01*
X59950000Y-67891428D01*
X59914285Y-67962857D01*
X59914285Y-68141428D01*
X59950000Y-68248571D01*
X59914285Y-68462857D02*
X59914285Y-68891428D01*
X60664285Y-68677142D02*
X59914285Y-68677142D01*
X41614285Y-46964285D02*
X40864285Y-46964285D01*
X40864285Y-47142857D01*
X40900000Y-47250000D01*
X40971428Y-47321428D01*
X41042857Y-47357142D01*
X41185714Y-47392857D01*
X41292857Y-47392857D01*
X41435714Y-47357142D01*
X41507142Y-47321428D01*
X41578571Y-47250000D01*
X41614285Y-47142857D01*
X41614285Y-46964285D01*
X41328571Y-47714285D02*
X41328571Y-48285714D01*
X59914285Y-51965154D02*
X59914285Y-52036582D01*
X59950000Y-52108011D01*
X59985714Y-52143725D01*
X60057142Y-52179439D01*
X60200000Y-52215154D01*
X60378571Y-52215154D01*
X60521428Y-52179439D01*
X60592857Y-52143725D01*
X60628571Y-52108011D01*
X60664285Y-52036582D01*
X60664285Y-51965154D01*
X60628571Y-51893725D01*
X60592857Y-51858011D01*
X60521428Y-51822296D01*
X60378571Y-51786582D01*
X60200000Y-51786582D01*
X60057142Y-51822296D01*
X59985714Y-51858011D01*
X59950000Y-51893725D01*
X59914285Y-51965154D01*
X59914285Y-52679439D02*
X59914285Y-52750868D01*
X59950000Y-52822296D01*
X59985714Y-52858011D01*
X60057142Y-52893725D01*
X60200000Y-52929439D01*
X60378571Y-52929439D01*
X60521428Y-52893725D01*
X60592857Y-52858011D01*
X60628571Y-52822296D01*
X60664285Y-52750868D01*
X60664285Y-52679439D01*
X60628571Y-52608011D01*
X60592857Y-52572296D01*
X60521428Y-52536582D01*
X60378571Y-52500868D01*
X60200000Y-52500868D01*
X60057142Y-52536582D01*
X59985714Y-52572296D01*
X59950000Y-52608011D01*
X59914285Y-52679439D01*
X59914285Y-53179439D02*
X59914285Y-53679439D01*
X60664285Y-53358011D01*
D11*
X122378571Y-70077857D02*
X122378571Y-70977857D01*
X122592857Y-70977857D01*
X122721428Y-70935000D01*
X122807142Y-70849285D01*
X122850000Y-70763571D01*
X122892857Y-70592142D01*
X122892857Y-70463571D01*
X122850000Y-70292142D01*
X122807142Y-70206428D01*
X122721428Y-70120714D01*
X122592857Y-70077857D01*
X122378571Y-70077857D01*
X123278571Y-70077857D02*
X123278571Y-70977857D01*
X123878571Y-70977857D02*
X124050000Y-70977857D01*
X124135714Y-70935000D01*
X124221428Y-70849285D01*
X124264285Y-70677857D01*
X124264285Y-70377857D01*
X124221428Y-70206428D01*
X124135714Y-70120714D01*
X124050000Y-70077857D01*
X123878571Y-70077857D01*
X123792857Y-70120714D01*
X123707142Y-70206428D01*
X123664285Y-70377857D01*
X123664285Y-70677857D01*
X123707142Y-70849285D01*
X123792857Y-70935000D01*
X123878571Y-70977857D01*
D10*
X106542588Y-59583014D02*
X106542588Y-59654442D01*
X106578303Y-59725871D01*
X106614017Y-59761585D01*
X106685445Y-59797299D01*
X106828303Y-59833014D01*
X107006874Y-59833014D01*
X107149731Y-59797299D01*
X107221160Y-59761585D01*
X107256874Y-59725871D01*
X107292588Y-59654442D01*
X107292588Y-59583014D01*
X107256874Y-59511585D01*
X107221160Y-59475871D01*
X107149731Y-59440156D01*
X107006874Y-59404442D01*
X106828303Y-59404442D01*
X106685445Y-59440156D01*
X106614017Y-59475871D01*
X106578303Y-59511585D01*
X106542588Y-59583014D01*
X106614017Y-60118728D02*
X106578303Y-60154442D01*
X106542588Y-60225871D01*
X106542588Y-60404442D01*
X106578303Y-60475871D01*
X106614017Y-60511585D01*
X106685445Y-60547299D01*
X106756874Y-60547299D01*
X106864017Y-60511585D01*
X107292588Y-60083014D01*
X107292588Y-60547299D01*
X106542588Y-61190156D02*
X106542588Y-61047299D01*
X106578303Y-60975871D01*
X106614017Y-60940156D01*
X106721160Y-60868728D01*
X106864017Y-60833014D01*
X107149731Y-60833014D01*
X107221160Y-60868728D01*
X107256874Y-60904442D01*
X107292588Y-60975871D01*
X107292588Y-61118728D01*
X107256874Y-61190156D01*
X107221160Y-61225871D01*
X107149731Y-61261585D01*
X106971160Y-61261585D01*
X106899731Y-61225871D01*
X106864017Y-61190156D01*
X106828303Y-61118728D01*
X106828303Y-60975871D01*
X106864017Y-60904442D01*
X106899731Y-60868728D01*
X106971160Y-60833014D01*
X59914285Y-69735000D02*
X59914285Y-69806428D01*
X59950000Y-69877857D01*
X59985714Y-69913571D01*
X60057142Y-69949285D01*
X60200000Y-69985000D01*
X60378571Y-69985000D01*
X60521428Y-69949285D01*
X60592857Y-69913571D01*
X60628571Y-69877857D01*
X60664285Y-69806428D01*
X60664285Y-69735000D01*
X60628571Y-69663571D01*
X60592857Y-69627857D01*
X60521428Y-69592142D01*
X60378571Y-69556428D01*
X60200000Y-69556428D01*
X60057142Y-69592142D01*
X59985714Y-69627857D01*
X59950000Y-69663571D01*
X59914285Y-69735000D01*
X59914285Y-70449285D02*
X59914285Y-70520714D01*
X59950000Y-70592142D01*
X59985714Y-70627857D01*
X60057142Y-70663571D01*
X60200000Y-70699285D01*
X60378571Y-70699285D01*
X60521428Y-70663571D01*
X60592857Y-70627857D01*
X60628571Y-70592142D01*
X60664285Y-70520714D01*
X60664285Y-70449285D01*
X60628571Y-70377857D01*
X60592857Y-70342142D01*
X60521428Y-70306428D01*
X60378571Y-70270714D01*
X60200000Y-70270714D01*
X60057142Y-70306428D01*
X59985714Y-70342142D01*
X59950000Y-70377857D01*
X59914285Y-70449285D01*
X59914285Y-71163571D02*
X59914285Y-71235000D01*
X59950000Y-71306428D01*
X59985714Y-71342142D01*
X60057142Y-71377857D01*
X60200000Y-71413571D01*
X60378571Y-71413571D01*
X60521428Y-71377857D01*
X60592857Y-71342142D01*
X60628571Y-71306428D01*
X60664285Y-71235000D01*
X60664285Y-71163571D01*
X60628571Y-71092142D01*
X60592857Y-71056428D01*
X60521428Y-71020714D01*
X60378571Y-70985000D01*
X60200000Y-70985000D01*
X60057142Y-71020714D01*
X59985714Y-71056428D01*
X59950000Y-71092142D01*
X59914285Y-71163571D01*
X87504285Y-36715000D02*
X87504285Y-36786428D01*
X87540000Y-36857857D01*
X87575714Y-36893571D01*
X87647142Y-36929285D01*
X87790000Y-36965000D01*
X87968571Y-36965000D01*
X88111428Y-36929285D01*
X88182857Y-36893571D01*
X88218571Y-36857857D01*
X88254285Y-36786428D01*
X88254285Y-36715000D01*
X88218571Y-36643571D01*
X88182857Y-36607857D01*
X88111428Y-36572142D01*
X87968571Y-36536428D01*
X87790000Y-36536428D01*
X87647142Y-36572142D01*
X87575714Y-36607857D01*
X87540000Y-36643571D01*
X87504285Y-36715000D01*
X88254285Y-37679285D02*
X88254285Y-37250714D01*
X88254285Y-37465000D02*
X87504285Y-37465000D01*
X87611428Y-37393571D01*
X87682857Y-37322142D01*
X87718571Y-37250714D01*
X87754285Y-38322142D02*
X88254285Y-38322142D01*
X87468571Y-38143571D02*
X88004285Y-37965000D01*
X88004285Y-38429285D01*
X110816487Y-77107058D02*
X111566487Y-77357058D01*
X110816487Y-77607058D01*
X111495059Y-78285629D02*
X111530773Y-78249915D01*
X111566487Y-78142772D01*
X111566487Y-78071343D01*
X111530773Y-77964200D01*
X111459344Y-77892772D01*
X111387916Y-77857058D01*
X111245059Y-77821343D01*
X111137916Y-77821343D01*
X110995059Y-77857058D01*
X110923630Y-77892772D01*
X110852202Y-77964200D01*
X110816487Y-78071343D01*
X110816487Y-78142772D01*
X110852202Y-78249915D01*
X110887916Y-78285629D01*
X111495059Y-79035629D02*
X111530773Y-78999915D01*
X111566487Y-78892772D01*
X111566487Y-78821343D01*
X111530773Y-78714200D01*
X111459344Y-78642772D01*
X111387916Y-78607058D01*
X111245059Y-78571343D01*
X111137916Y-78571343D01*
X110995059Y-78607058D01*
X110923630Y-78642772D01*
X110852202Y-78714200D01*
X110816487Y-78821343D01*
X110816487Y-78892772D01*
X110852202Y-78999915D01*
X110887916Y-79035629D01*
X106554285Y-39255000D02*
X106554285Y-39326428D01*
X106590000Y-39397857D01*
X106625714Y-39433571D01*
X106697142Y-39469285D01*
X106840000Y-39505000D01*
X107018571Y-39505000D01*
X107161428Y-39469285D01*
X107232857Y-39433571D01*
X107268571Y-39397857D01*
X107304285Y-39326428D01*
X107304285Y-39255000D01*
X107268571Y-39183571D01*
X107232857Y-39147857D01*
X107161428Y-39112142D01*
X107018571Y-39076428D01*
X106840000Y-39076428D01*
X106697142Y-39112142D01*
X106625714Y-39147857D01*
X106590000Y-39183571D01*
X106554285Y-39255000D01*
X106625714Y-39790714D02*
X106590000Y-39826428D01*
X106554285Y-39897857D01*
X106554285Y-40076428D01*
X106590000Y-40147857D01*
X106625714Y-40183571D01*
X106697142Y-40219285D01*
X106768571Y-40219285D01*
X106875714Y-40183571D01*
X107304285Y-39755000D01*
X107304285Y-40219285D01*
X106875714Y-40647857D02*
X106840000Y-40576428D01*
X106804285Y-40540714D01*
X106732857Y-40505000D01*
X106697142Y-40505000D01*
X106625714Y-40540714D01*
X106590000Y-40576428D01*
X106554285Y-40647857D01*
X106554285Y-40790714D01*
X106590000Y-40862142D01*
X106625714Y-40897857D01*
X106697142Y-40933571D01*
X106732857Y-40933571D01*
X106804285Y-40897857D01*
X106840000Y-40862142D01*
X106875714Y-40790714D01*
X106875714Y-40647857D01*
X106911428Y-40576428D01*
X106947142Y-40540714D01*
X107018571Y-40505000D01*
X107161428Y-40505000D01*
X107232857Y-40540714D01*
X107268571Y-40576428D01*
X107304285Y-40647857D01*
X107304285Y-40790714D01*
X107268571Y-40862142D01*
X107232857Y-40897857D01*
X107161428Y-40933571D01*
X107018571Y-40933571D01*
X106947142Y-40897857D01*
X106911428Y-40862142D01*
X106875714Y-40790714D01*
X129874285Y-49415000D02*
X129874285Y-49486428D01*
X129910000Y-49557857D01*
X129945714Y-49593571D01*
X130017142Y-49629285D01*
X130160000Y-49665000D01*
X130338571Y-49665000D01*
X130481428Y-49629285D01*
X130552857Y-49593571D01*
X130588571Y-49557857D01*
X130624285Y-49486428D01*
X130624285Y-49415000D01*
X130588571Y-49343571D01*
X130552857Y-49307857D01*
X130481428Y-49272142D01*
X130338571Y-49236428D01*
X130160000Y-49236428D01*
X130017142Y-49272142D01*
X129945714Y-49307857D01*
X129910000Y-49343571D01*
X129874285Y-49415000D01*
X129874285Y-50129285D02*
X129874285Y-50200714D01*
X129910000Y-50272142D01*
X129945714Y-50307857D01*
X130017142Y-50343571D01*
X130160000Y-50379285D01*
X130338571Y-50379285D01*
X130481428Y-50343571D01*
X130552857Y-50307857D01*
X130588571Y-50272142D01*
X130624285Y-50200714D01*
X130624285Y-50129285D01*
X130588571Y-50057857D01*
X130552857Y-50022142D01*
X130481428Y-49986428D01*
X130338571Y-49950714D01*
X130160000Y-49950714D01*
X130017142Y-49986428D01*
X129945714Y-50022142D01*
X129910000Y-50057857D01*
X129874285Y-50129285D01*
X129874285Y-51022142D02*
X129874285Y-50879285D01*
X129910000Y-50807857D01*
X129945714Y-50772142D01*
X130052857Y-50700714D01*
X130195714Y-50665000D01*
X130481428Y-50665000D01*
X130552857Y-50700714D01*
X130588571Y-50736428D01*
X130624285Y-50807857D01*
X130624285Y-50950714D01*
X130588571Y-51022142D01*
X130552857Y-51057857D01*
X130481428Y-51093571D01*
X130302857Y-51093571D01*
X130231428Y-51057857D01*
X130195714Y-51022142D01*
X130160000Y-50950714D01*
X130160000Y-50807857D01*
X130195714Y-50736428D01*
X130231428Y-50700714D01*
X130302857Y-50665000D01*
X59902588Y-57044855D02*
X59902588Y-57116283D01*
X59938303Y-57187712D01*
X59974017Y-57223426D01*
X60045445Y-57259140D01*
X60188303Y-57294855D01*
X60366874Y-57294855D01*
X60509731Y-57259140D01*
X60581160Y-57223426D01*
X60616874Y-57187712D01*
X60652588Y-57116283D01*
X60652588Y-57044855D01*
X60616874Y-56973426D01*
X60581160Y-56937712D01*
X60509731Y-56901997D01*
X60366874Y-56866283D01*
X60188303Y-56866283D01*
X60045445Y-56901997D01*
X59974017Y-56937712D01*
X59938303Y-56973426D01*
X59902588Y-57044855D01*
X59902588Y-57544855D02*
X59902588Y-58009140D01*
X60188303Y-57759140D01*
X60188303Y-57866283D01*
X60224017Y-57937712D01*
X60259731Y-57973426D01*
X60331160Y-58009140D01*
X60509731Y-58009140D01*
X60581160Y-57973426D01*
X60616874Y-57937712D01*
X60652588Y-57866283D01*
X60652588Y-57651997D01*
X60616874Y-57580569D01*
X60581160Y-57544855D01*
X59902588Y-58473426D02*
X59902588Y-58544855D01*
X59938303Y-58616283D01*
X59974017Y-58651997D01*
X60045445Y-58687712D01*
X60188303Y-58723426D01*
X60366874Y-58723426D01*
X60509731Y-58687712D01*
X60581160Y-58651997D01*
X60616874Y-58616283D01*
X60652588Y-58544855D01*
X60652588Y-58473426D01*
X60616874Y-58401997D01*
X60581160Y-58366283D01*
X60509731Y-58330569D01*
X60366874Y-58294855D01*
X60188303Y-58294855D01*
X60045445Y-58330569D01*
X59974017Y-58366283D01*
X59938303Y-58401997D01*
X59902588Y-58473426D01*
D12*
X93959857Y-79061428D02*
X93959857Y-78061428D01*
X93959857Y-78918571D02*
X94031285Y-78990000D01*
X94174142Y-79061428D01*
X94388428Y-79061428D01*
X94531285Y-78990000D01*
X94602714Y-78847142D01*
X94602714Y-78061428D01*
X96174142Y-78061428D02*
X95674142Y-78775714D01*
X95317000Y-78061428D02*
X95317000Y-79561428D01*
X95888428Y-79561428D01*
X96031285Y-79490000D01*
X96102714Y-79418571D01*
X96174142Y-79275714D01*
X96174142Y-79061428D01*
X96102714Y-78918571D01*
X96031285Y-78847142D01*
X95888428Y-78775714D01*
X95317000Y-78775714D01*
X97317000Y-78847142D02*
X96817000Y-78847142D01*
X96817000Y-78061428D02*
X96817000Y-79561428D01*
X97531285Y-79561428D01*
X98102714Y-78061428D02*
X98102714Y-79561428D01*
X98674142Y-79561428D01*
X98817000Y-79490000D01*
X98888428Y-79418571D01*
X98959857Y-79275714D01*
X98959857Y-79061428D01*
X98888428Y-78918571D01*
X98817000Y-78847142D01*
X98674142Y-78775714D01*
X98102714Y-78775714D01*
X99602714Y-78061428D02*
X99602714Y-79061428D01*
X99602714Y-79561428D02*
X99531285Y-79490000D01*
X99602714Y-79418571D01*
X99674142Y-79490000D01*
X99602714Y-79561428D01*
X99602714Y-79418571D01*
X100531285Y-78061428D02*
X100388428Y-78132857D01*
X100317000Y-78275714D01*
X100317000Y-79561428D01*
X101317000Y-78061428D02*
X101174142Y-78132857D01*
X101102714Y-78275714D01*
X101102714Y-79561428D01*
D10*
X111574285Y-46964285D02*
X110824285Y-46964285D01*
X110824285Y-47142857D01*
X110860000Y-47250000D01*
X110931428Y-47321428D01*
X111002857Y-47357142D01*
X111145714Y-47392857D01*
X111252857Y-47392857D01*
X111395714Y-47357142D01*
X111467142Y-47321428D01*
X111538571Y-47250000D01*
X111574285Y-47142857D01*
X111574285Y-46964285D01*
X111288571Y-47714285D02*
X111288571Y-48285714D01*
X83270000Y-31813571D02*
X83234285Y-31742142D01*
X83234285Y-31635000D01*
X83270000Y-31527857D01*
X83341428Y-31456428D01*
X83412857Y-31420714D01*
X83555714Y-31385000D01*
X83662857Y-31385000D01*
X83805714Y-31420714D01*
X83877142Y-31456428D01*
X83948571Y-31527857D01*
X83984285Y-31635000D01*
X83984285Y-31706428D01*
X83948571Y-31813571D01*
X83912857Y-31849285D01*
X83662857Y-31849285D01*
X83662857Y-31706428D01*
X83984285Y-32170714D02*
X83234285Y-32170714D01*
X83984285Y-32599285D01*
X83234285Y-32599285D01*
X83984285Y-32956428D02*
X83234285Y-32956428D01*
X83234285Y-33135000D01*
X83270000Y-33242142D01*
X83341428Y-33313571D01*
X83412857Y-33349285D01*
X83555714Y-33385000D01*
X83662857Y-33385000D01*
X83805714Y-33349285D01*
X83877142Y-33313571D01*
X83948571Y-33242142D01*
X83984285Y-33135000D01*
X83984285Y-32956428D01*
X87504285Y-59575000D02*
X87504285Y-59646428D01*
X87540000Y-59717857D01*
X87575714Y-59753571D01*
X87647142Y-59789285D01*
X87790000Y-59825000D01*
X87968571Y-59825000D01*
X88111428Y-59789285D01*
X88182857Y-59753571D01*
X88218571Y-59717857D01*
X88254285Y-59646428D01*
X88254285Y-59575000D01*
X88218571Y-59503571D01*
X88182857Y-59467857D01*
X88111428Y-59432142D01*
X87968571Y-59396428D01*
X87790000Y-59396428D01*
X87647142Y-59432142D01*
X87575714Y-59467857D01*
X87540000Y-59503571D01*
X87504285Y-59575000D01*
X87575714Y-60110714D02*
X87540000Y-60146428D01*
X87504285Y-60217857D01*
X87504285Y-60396428D01*
X87540000Y-60467857D01*
X87575714Y-60503571D01*
X87647142Y-60539285D01*
X87718571Y-60539285D01*
X87825714Y-60503571D01*
X88254285Y-60075000D01*
X88254285Y-60539285D01*
X87504285Y-61003571D02*
X87504285Y-61075000D01*
X87540000Y-61146428D01*
X87575714Y-61182142D01*
X87647142Y-61217857D01*
X87790000Y-61253571D01*
X87968571Y-61253571D01*
X88111428Y-61217857D01*
X88182857Y-61182142D01*
X88218571Y-61146428D01*
X88254285Y-61075000D01*
X88254285Y-61003571D01*
X88218571Y-60932142D01*
X88182857Y-60896428D01*
X88111428Y-60860714D01*
X87968571Y-60825000D01*
X87790000Y-60825000D01*
X87647142Y-60860714D01*
X87575714Y-60896428D01*
X87540000Y-60932142D01*
X87504285Y-61003571D01*
X88254285Y-29345000D02*
X88254285Y-28916428D01*
X88254285Y-29130714D02*
X87504285Y-29130714D01*
X87611428Y-29059285D01*
X87682857Y-28987857D01*
X87718571Y-28916428D01*
X87504285Y-29809285D02*
X87504285Y-29880714D01*
X87540000Y-29952142D01*
X87575714Y-29987857D01*
X87647142Y-30023571D01*
X87790000Y-30059285D01*
X87968571Y-30059285D01*
X88111428Y-30023571D01*
X88182857Y-29987857D01*
X88218571Y-29952142D01*
X88254285Y-29880714D01*
X88254285Y-29809285D01*
X88218571Y-29737857D01*
X88182857Y-29702142D01*
X88111428Y-29666428D01*
X87968571Y-29630714D01*
X87790000Y-29630714D01*
X87647142Y-29666428D01*
X87575714Y-29702142D01*
X87540000Y-29737857D01*
X87504285Y-29809285D01*
X87504285Y-30309285D02*
X87504285Y-30809285D01*
X88254285Y-30487857D01*
X87504285Y-44335000D02*
X87504285Y-44406428D01*
X87540000Y-44477857D01*
X87575714Y-44513571D01*
X87647142Y-44549285D01*
X87790000Y-44585000D01*
X87968571Y-44585000D01*
X88111428Y-44549285D01*
X88182857Y-44513571D01*
X88218571Y-44477857D01*
X88254285Y-44406428D01*
X88254285Y-44335000D01*
X88218571Y-44263571D01*
X88182857Y-44227857D01*
X88111428Y-44192142D01*
X87968571Y-44156428D01*
X87790000Y-44156428D01*
X87647142Y-44192142D01*
X87575714Y-44227857D01*
X87540000Y-44263571D01*
X87504285Y-44335000D01*
X88254285Y-45299285D02*
X88254285Y-44870714D01*
X88254285Y-45085000D02*
X87504285Y-45085000D01*
X87611428Y-45013571D01*
X87682857Y-44942142D01*
X87718571Y-44870714D01*
X87504285Y-45977857D02*
X87504285Y-45620714D01*
X87861428Y-45585000D01*
X87825714Y-45620714D01*
X87790000Y-45692142D01*
X87790000Y-45870714D01*
X87825714Y-45942142D01*
X87861428Y-45977857D01*
X87932857Y-46013571D01*
X88111428Y-46013571D01*
X88182857Y-45977857D01*
X88218571Y-45942142D01*
X88254285Y-45870714D01*
X88254285Y-45692142D01*
X88218571Y-45620714D01*
X88182857Y-45585000D01*
X106542588Y-57044855D02*
X106542588Y-57116283D01*
X106578303Y-57187712D01*
X106614017Y-57223426D01*
X106685445Y-57259140D01*
X106828303Y-57294855D01*
X107006874Y-57294855D01*
X107149731Y-57259140D01*
X107221160Y-57223426D01*
X107256874Y-57187712D01*
X107292588Y-57116283D01*
X107292588Y-57044855D01*
X107256874Y-56973426D01*
X107221160Y-56937712D01*
X107149731Y-56901997D01*
X107006874Y-56866283D01*
X106828303Y-56866283D01*
X106685445Y-56901997D01*
X106614017Y-56937712D01*
X106578303Y-56973426D01*
X106542588Y-57044855D01*
X106542588Y-57544855D02*
X106542588Y-58009140D01*
X106828303Y-57759140D01*
X106828303Y-57866283D01*
X106864017Y-57937712D01*
X106899731Y-57973426D01*
X106971160Y-58009140D01*
X107149731Y-58009140D01*
X107221160Y-57973426D01*
X107256874Y-57937712D01*
X107292588Y-57866283D01*
X107292588Y-57651997D01*
X107256874Y-57580569D01*
X107221160Y-57544855D01*
X106542588Y-58473426D02*
X106542588Y-58544855D01*
X106578303Y-58616283D01*
X106614017Y-58651997D01*
X106685445Y-58687712D01*
X106828303Y-58723426D01*
X107006874Y-58723426D01*
X107149731Y-58687712D01*
X107221160Y-58651997D01*
X107256874Y-58616283D01*
X107292588Y-58544855D01*
X107292588Y-58473426D01*
X107256874Y-58401997D01*
X107221160Y-58366283D01*
X107149731Y-58330569D01*
X107006874Y-58294855D01*
X106828303Y-58294855D01*
X106685445Y-58330569D01*
X106614017Y-58366283D01*
X106578303Y-58401997D01*
X106542588Y-58473426D01*
X40856487Y-77107058D02*
X41606487Y-77357058D01*
X40856487Y-77607058D01*
X41535059Y-78285629D02*
X41570773Y-78249915D01*
X41606487Y-78142772D01*
X41606487Y-78071343D01*
X41570773Y-77964200D01*
X41499344Y-77892772D01*
X41427916Y-77857058D01*
X41285059Y-77821343D01*
X41177916Y-77821343D01*
X41035059Y-77857058D01*
X40963630Y-77892772D01*
X40892202Y-77964200D01*
X40856487Y-78071343D01*
X40856487Y-78142772D01*
X40892202Y-78249915D01*
X40927916Y-78285629D01*
X41535059Y-79035629D02*
X41570773Y-78999915D01*
X41606487Y-78892772D01*
X41606487Y-78821343D01*
X41570773Y-78714200D01*
X41499344Y-78642772D01*
X41427916Y-78607058D01*
X41285059Y-78571343D01*
X41177916Y-78571343D01*
X41035059Y-78607058D01*
X40963630Y-78642772D01*
X40892202Y-78714200D01*
X40856487Y-78821343D01*
X40856487Y-78892772D01*
X40892202Y-78999915D01*
X40927916Y-79035629D01*
X83234285Y-76872857D02*
X83984285Y-77122857D01*
X83234285Y-77372857D01*
X83591428Y-77872857D02*
X83627142Y-77980000D01*
X83662857Y-78015714D01*
X83734285Y-78051428D01*
X83841428Y-78051428D01*
X83912857Y-78015714D01*
X83948571Y-77980000D01*
X83984285Y-77908571D01*
X83984285Y-77622857D01*
X83234285Y-77622857D01*
X83234285Y-77872857D01*
X83270000Y-77944285D01*
X83305714Y-77980000D01*
X83377142Y-78015714D01*
X83448571Y-78015714D01*
X83520000Y-77980000D01*
X83555714Y-77944285D01*
X83591428Y-77872857D01*
X83591428Y-77622857D01*
X83770000Y-78337142D02*
X83770000Y-78694285D01*
X83984285Y-78265714D02*
X83234285Y-78515714D01*
X83984285Y-78765714D01*
X83234285Y-78908571D02*
X83234285Y-79337142D01*
X83984285Y-79122857D02*
X83234285Y-79122857D01*
X129874285Y-76872857D02*
X130624285Y-77122857D01*
X129874285Y-77372857D01*
X130231428Y-77872857D02*
X130267142Y-77980000D01*
X130302857Y-78015714D01*
X130374285Y-78051428D01*
X130481428Y-78051428D01*
X130552857Y-78015714D01*
X130588571Y-77980000D01*
X130624285Y-77908571D01*
X130624285Y-77622857D01*
X129874285Y-77622857D01*
X129874285Y-77872857D01*
X129910000Y-77944285D01*
X129945714Y-77980000D01*
X130017142Y-78015714D01*
X130088571Y-78015714D01*
X130160000Y-77980000D01*
X130195714Y-77944285D01*
X130231428Y-77872857D01*
X130231428Y-77622857D01*
X130410000Y-78337142D02*
X130410000Y-78694285D01*
X130624285Y-78265714D02*
X129874285Y-78515714D01*
X130624285Y-78765714D01*
X129874285Y-78908571D02*
X129874285Y-79337142D01*
X130624285Y-79122857D02*
X129874285Y-79122857D01*
X83222588Y-57044855D02*
X83222588Y-57116283D01*
X83258303Y-57187712D01*
X83294017Y-57223426D01*
X83365445Y-57259140D01*
X83508303Y-57294855D01*
X83686874Y-57294855D01*
X83829731Y-57259140D01*
X83901160Y-57223426D01*
X83936874Y-57187712D01*
X83972588Y-57116283D01*
X83972588Y-57044855D01*
X83936874Y-56973426D01*
X83901160Y-56937712D01*
X83829731Y-56901997D01*
X83686874Y-56866283D01*
X83508303Y-56866283D01*
X83365445Y-56901997D01*
X83294017Y-56937712D01*
X83258303Y-56973426D01*
X83222588Y-57044855D01*
X83222588Y-57544855D02*
X83222588Y-58009140D01*
X83508303Y-57759140D01*
X83508303Y-57866283D01*
X83544017Y-57937712D01*
X83579731Y-57973426D01*
X83651160Y-58009140D01*
X83829731Y-58009140D01*
X83901160Y-57973426D01*
X83936874Y-57937712D01*
X83972588Y-57866283D01*
X83972588Y-57651997D01*
X83936874Y-57580569D01*
X83901160Y-57544855D01*
X83222588Y-58473426D02*
X83222588Y-58544855D01*
X83258303Y-58616283D01*
X83294017Y-58651997D01*
X83365445Y-58687712D01*
X83508303Y-58723426D01*
X83686874Y-58723426D01*
X83829731Y-58687712D01*
X83901160Y-58651997D01*
X83936874Y-58616283D01*
X83972588Y-58544855D01*
X83972588Y-58473426D01*
X83936874Y-58401997D01*
X83901160Y-58366283D01*
X83829731Y-58330569D01*
X83686874Y-58294855D01*
X83508303Y-58294855D01*
X83365445Y-58330569D01*
X83294017Y-58366283D01*
X83258303Y-58401997D01*
X83222588Y-58473426D01*
X110824285Y-51955000D02*
X110824285Y-52026428D01*
X110860000Y-52097857D01*
X110895714Y-52133571D01*
X110967142Y-52169285D01*
X111110000Y-52205000D01*
X111288571Y-52205000D01*
X111431428Y-52169285D01*
X111502857Y-52133571D01*
X111538571Y-52097857D01*
X111574285Y-52026428D01*
X111574285Y-51955000D01*
X111538571Y-51883571D01*
X111502857Y-51847857D01*
X111431428Y-51812142D01*
X111288571Y-51776428D01*
X111110000Y-51776428D01*
X110967142Y-51812142D01*
X110895714Y-51847857D01*
X110860000Y-51883571D01*
X110824285Y-51955000D01*
X111574285Y-52919285D02*
X111574285Y-52490714D01*
X111574285Y-52705000D02*
X110824285Y-52705000D01*
X110931428Y-52633571D01*
X111002857Y-52562142D01*
X111038571Y-52490714D01*
X110824285Y-53169285D02*
X110824285Y-53669285D01*
X111574285Y-53347857D01*
X40864285Y-41795000D02*
X40864285Y-41866428D01*
X40900000Y-41937857D01*
X40935714Y-41973571D01*
X41007142Y-42009285D01*
X41150000Y-42045000D01*
X41328571Y-42045000D01*
X41471428Y-42009285D01*
X41542857Y-41973571D01*
X41578571Y-41937857D01*
X41614285Y-41866428D01*
X41614285Y-41795000D01*
X41578571Y-41723571D01*
X41542857Y-41687857D01*
X41471428Y-41652142D01*
X41328571Y-41616428D01*
X41150000Y-41616428D01*
X41007142Y-41652142D01*
X40935714Y-41687857D01*
X40900000Y-41723571D01*
X40864285Y-41795000D01*
X41614285Y-42759285D02*
X41614285Y-42330714D01*
X41614285Y-42545000D02*
X40864285Y-42545000D01*
X40971428Y-42473571D01*
X41042857Y-42402142D01*
X41078571Y-42330714D01*
X40864285Y-43009285D02*
X40864285Y-43473571D01*
X41150000Y-43223571D01*
X41150000Y-43330714D01*
X41185714Y-43402142D01*
X41221428Y-43437857D01*
X41292857Y-43473571D01*
X41471428Y-43473571D01*
X41542857Y-43437857D01*
X41578571Y-43402142D01*
X41614285Y-43330714D01*
X41614285Y-43116428D01*
X41578571Y-43045000D01*
X41542857Y-43009285D01*
X106554285Y-76872857D02*
X107304285Y-77122857D01*
X106554285Y-77372857D01*
X106911428Y-77872857D02*
X106947142Y-77980000D01*
X106982857Y-78015714D01*
X107054285Y-78051428D01*
X107161428Y-78051428D01*
X107232857Y-78015714D01*
X107268571Y-77980000D01*
X107304285Y-77908571D01*
X107304285Y-77622857D01*
X106554285Y-77622857D01*
X106554285Y-77872857D01*
X106590000Y-77944285D01*
X106625714Y-77980000D01*
X106697142Y-78015714D01*
X106768571Y-78015714D01*
X106840000Y-77980000D01*
X106875714Y-77944285D01*
X106911428Y-77872857D01*
X106911428Y-77622857D01*
X107090000Y-78337142D02*
X107090000Y-78694285D01*
X107304285Y-78265714D02*
X106554285Y-78515714D01*
X107304285Y-78765714D01*
X106554285Y-78908571D02*
X106554285Y-79337142D01*
X107304285Y-79122857D02*
X106554285Y-79122857D01*
X83698571Y-28880714D02*
X83698571Y-29452142D01*
X83984285Y-29166428D02*
X83412857Y-29166428D01*
X83234285Y-30166428D02*
X83234285Y-29809285D01*
X83591428Y-29773571D01*
X83555714Y-29809285D01*
X83520000Y-29880714D01*
X83520000Y-30059285D01*
X83555714Y-30130714D01*
X83591428Y-30166428D01*
X83662857Y-30202142D01*
X83841428Y-30202142D01*
X83912857Y-30166428D01*
X83948571Y-30130714D01*
X83984285Y-30059285D01*
X83984285Y-29880714D01*
X83948571Y-29809285D01*
X83912857Y-29773571D01*
X83234285Y-30416428D02*
X83984285Y-30666428D01*
X83234285Y-30916428D01*
X111280773Y-72060714D02*
X111280773Y-72632142D01*
X111566487Y-72346428D02*
X110995059Y-72346428D01*
X110816487Y-73346428D02*
X110816487Y-72989285D01*
X111173630Y-72953571D01*
X111137916Y-72989285D01*
X111102202Y-73060714D01*
X111102202Y-73239285D01*
X111137916Y-73310714D01*
X111173630Y-73346428D01*
X111245059Y-73382142D01*
X111423630Y-73382142D01*
X111495059Y-73346428D01*
X111530773Y-73310714D01*
X111566487Y-73239285D01*
X111566487Y-73060714D01*
X111530773Y-72989285D01*
X111495059Y-72953571D01*
X110816487Y-73596428D02*
X111566487Y-73846428D01*
X110816487Y-74096428D01*
D11*
X75738571Y-70077857D02*
X75738571Y-70977857D01*
X75952857Y-70977857D01*
X76081428Y-70935000D01*
X76167142Y-70849285D01*
X76210000Y-70763571D01*
X76252857Y-70592142D01*
X76252857Y-70463571D01*
X76210000Y-70292142D01*
X76167142Y-70206428D01*
X76081428Y-70120714D01*
X75952857Y-70077857D01*
X75738571Y-70077857D01*
X76638571Y-70077857D02*
X76638571Y-70977857D01*
X77238571Y-70977857D02*
X77410000Y-70977857D01*
X77495714Y-70935000D01*
X77581428Y-70849285D01*
X77624285Y-70677857D01*
X77624285Y-70377857D01*
X77581428Y-70206428D01*
X77495714Y-70120714D01*
X77410000Y-70077857D01*
X77238571Y-70077857D01*
X77152857Y-70120714D01*
X77067142Y-70206428D01*
X77024285Y-70377857D01*
X77024285Y-70677857D01*
X77067142Y-70849285D01*
X77152857Y-70935000D01*
X77238571Y-70977857D01*
D10*
X64184285Y-31635000D02*
X64184285Y-31706428D01*
X64220000Y-31777857D01*
X64255714Y-31813571D01*
X64327142Y-31849285D01*
X64470000Y-31885000D01*
X64648571Y-31885000D01*
X64791428Y-31849285D01*
X64862857Y-31813571D01*
X64898571Y-31777857D01*
X64934285Y-31706428D01*
X64934285Y-31635000D01*
X64898571Y-31563571D01*
X64862857Y-31527857D01*
X64791428Y-31492142D01*
X64648571Y-31456428D01*
X64470000Y-31456428D01*
X64327142Y-31492142D01*
X64255714Y-31527857D01*
X64220000Y-31563571D01*
X64184285Y-31635000D01*
X64934285Y-32599285D02*
X64934285Y-32170714D01*
X64934285Y-32385000D02*
X64184285Y-32385000D01*
X64291428Y-32313571D01*
X64362857Y-32242142D01*
X64398571Y-32170714D01*
X64255714Y-32885000D02*
X64220000Y-32920714D01*
X64184285Y-32992142D01*
X64184285Y-33170714D01*
X64220000Y-33242142D01*
X64255714Y-33277857D01*
X64327142Y-33313571D01*
X64398571Y-33313571D01*
X64505714Y-33277857D01*
X64934285Y-32849285D01*
X64934285Y-33313571D01*
X59914285Y-76872857D02*
X60664285Y-77122857D01*
X59914285Y-77372857D01*
X60271428Y-77872857D02*
X60307142Y-77980000D01*
X60342857Y-78015714D01*
X60414285Y-78051428D01*
X60521428Y-78051428D01*
X60592857Y-78015714D01*
X60628571Y-77980000D01*
X60664285Y-77908571D01*
X60664285Y-77622857D01*
X59914285Y-77622857D01*
X59914285Y-77872857D01*
X59950000Y-77944285D01*
X59985714Y-77980000D01*
X60057142Y-78015714D01*
X60128571Y-78015714D01*
X60200000Y-77980000D01*
X60235714Y-77944285D01*
X60271428Y-77872857D01*
X60271428Y-77622857D01*
X60450000Y-78337142D02*
X60450000Y-78694285D01*
X60664285Y-78265714D02*
X59914285Y-78515714D01*
X60664285Y-78765714D01*
X59914285Y-78908571D02*
X59914285Y-79337142D01*
X60664285Y-79122857D02*
X59914285Y-79122857D01*
X129874285Y-33925000D02*
X130624285Y-34175000D01*
X129874285Y-34425000D01*
X130552857Y-35103571D02*
X130588571Y-35067857D01*
X130624285Y-34960714D01*
X130624285Y-34889285D01*
X130588571Y-34782142D01*
X130517142Y-34710714D01*
X130445714Y-34675000D01*
X130302857Y-34639285D01*
X130195714Y-34639285D01*
X130052857Y-34675000D01*
X129981428Y-34710714D01*
X129910000Y-34782142D01*
X129874285Y-34889285D01*
X129874285Y-34960714D01*
X129910000Y-35067857D01*
X129945714Y-35103571D01*
X130552857Y-35853571D02*
X130588571Y-35817857D01*
X130624285Y-35710714D01*
X130624285Y-35639285D01*
X130588571Y-35532142D01*
X130517142Y-35460714D01*
X130445714Y-35425000D01*
X130302857Y-35389285D01*
X130195714Y-35389285D01*
X130052857Y-35425000D01*
X129981428Y-35460714D01*
X129910000Y-35532142D01*
X129874285Y-35639285D01*
X129874285Y-35710714D01*
X129910000Y-35817857D01*
X129945714Y-35853571D01*
X110824285Y-54495000D02*
X110824285Y-54566428D01*
X110860000Y-54637857D01*
X110895714Y-54673571D01*
X110967142Y-54709285D01*
X111110000Y-54745000D01*
X111288571Y-54745000D01*
X111431428Y-54709285D01*
X111502857Y-54673571D01*
X111538571Y-54637857D01*
X111574285Y-54566428D01*
X111574285Y-54495000D01*
X111538571Y-54423571D01*
X111502857Y-54387857D01*
X111431428Y-54352142D01*
X111288571Y-54316428D01*
X111110000Y-54316428D01*
X110967142Y-54352142D01*
X110895714Y-54387857D01*
X110860000Y-54423571D01*
X110824285Y-54495000D01*
X110895714Y-55030714D02*
X110860000Y-55066428D01*
X110824285Y-55137857D01*
X110824285Y-55316428D01*
X110860000Y-55387857D01*
X110895714Y-55423571D01*
X110967142Y-55459285D01*
X111038571Y-55459285D01*
X111145714Y-55423571D01*
X111574285Y-54995000D01*
X111574285Y-55459285D01*
X111574285Y-56173571D02*
X111574285Y-55745000D01*
X111574285Y-55959285D02*
X110824285Y-55959285D01*
X110931428Y-55887857D01*
X111002857Y-55816428D01*
X111038571Y-55745000D01*
X64640773Y-72060714D02*
X64640773Y-72632142D01*
X64926487Y-72346428D02*
X64355059Y-72346428D01*
X64176487Y-73346428D02*
X64176487Y-72989285D01*
X64533630Y-72953571D01*
X64497916Y-72989285D01*
X64462202Y-73060714D01*
X64462202Y-73239285D01*
X64497916Y-73310714D01*
X64533630Y-73346428D01*
X64605059Y-73382142D01*
X64783630Y-73382142D01*
X64855059Y-73346428D01*
X64890773Y-73310714D01*
X64926487Y-73239285D01*
X64926487Y-73060714D01*
X64890773Y-72989285D01*
X64855059Y-72953571D01*
X64176487Y-73596428D02*
X64926487Y-73846428D01*
X64176487Y-74096428D01*
D11*
X99444285Y-72703571D02*
X99401428Y-72660714D01*
X99272857Y-72617857D01*
X99187142Y-72617857D01*
X99058571Y-72660714D01*
X98972857Y-72746428D01*
X98930000Y-72832142D01*
X98887142Y-73003571D01*
X98887142Y-73132142D01*
X98930000Y-73303571D01*
X98972857Y-73389285D01*
X99058571Y-73475000D01*
X99187142Y-73517857D01*
X99272857Y-73517857D01*
X99401428Y-73475000D01*
X99444285Y-73432142D01*
X100258571Y-72617857D02*
X99830000Y-72617857D01*
X99830000Y-73517857D01*
X100558571Y-72617857D02*
X100558571Y-73517857D01*
X101072857Y-72617857D02*
X100687142Y-73132142D01*
X101072857Y-73517857D02*
X100558571Y-73003571D01*
D10*
X110824285Y-39255000D02*
X110824285Y-39326428D01*
X110860000Y-39397857D01*
X110895714Y-39433571D01*
X110967142Y-39469285D01*
X111110000Y-39505000D01*
X111288571Y-39505000D01*
X111431428Y-39469285D01*
X111502857Y-39433571D01*
X111538571Y-39397857D01*
X111574285Y-39326428D01*
X111574285Y-39255000D01*
X111538571Y-39183571D01*
X111502857Y-39147857D01*
X111431428Y-39112142D01*
X111288571Y-39076428D01*
X111110000Y-39076428D01*
X110967142Y-39112142D01*
X110895714Y-39147857D01*
X110860000Y-39183571D01*
X110824285Y-39255000D01*
X111574285Y-40219285D02*
X111574285Y-39790714D01*
X111574285Y-40005000D02*
X110824285Y-40005000D01*
X110931428Y-39933571D01*
X111002857Y-39862142D01*
X111038571Y-39790714D01*
X111574285Y-40576428D02*
X111574285Y-40719285D01*
X111538571Y-40790714D01*
X111502857Y-40826428D01*
X111395714Y-40897857D01*
X111252857Y-40933571D01*
X110967142Y-40933571D01*
X110895714Y-40897857D01*
X110860000Y-40862142D01*
X110824285Y-40790714D01*
X110824285Y-40647857D01*
X110860000Y-40576428D01*
X110895714Y-40540714D01*
X110967142Y-40505000D01*
X111145714Y-40505000D01*
X111217142Y-40540714D01*
X111252857Y-40576428D01*
X111288571Y-40647857D01*
X111288571Y-40790714D01*
X111252857Y-40862142D01*
X111217142Y-40897857D01*
X111145714Y-40933571D01*
X129874285Y-72275000D02*
X129874285Y-72346428D01*
X129910000Y-72417857D01*
X129945714Y-72453571D01*
X130017142Y-72489285D01*
X130160000Y-72525000D01*
X130338571Y-72525000D01*
X130481428Y-72489285D01*
X130552857Y-72453571D01*
X130588571Y-72417857D01*
X130624285Y-72346428D01*
X130624285Y-72275000D01*
X130588571Y-72203571D01*
X130552857Y-72167857D01*
X130481428Y-72132142D01*
X130338571Y-72096428D01*
X130160000Y-72096428D01*
X130017142Y-72132142D01*
X129945714Y-72167857D01*
X129910000Y-72203571D01*
X129874285Y-72275000D01*
X129874285Y-72989285D02*
X129874285Y-73060714D01*
X129910000Y-73132142D01*
X129945714Y-73167857D01*
X130017142Y-73203571D01*
X130160000Y-73239285D01*
X130338571Y-73239285D01*
X130481428Y-73203571D01*
X130552857Y-73167857D01*
X130588571Y-73132142D01*
X130624285Y-73060714D01*
X130624285Y-72989285D01*
X130588571Y-72917857D01*
X130552857Y-72882142D01*
X130481428Y-72846428D01*
X130338571Y-72810714D01*
X130160000Y-72810714D01*
X130017142Y-72846428D01*
X129945714Y-72882142D01*
X129910000Y-72917857D01*
X129874285Y-72989285D01*
X130624285Y-73953571D02*
X130624285Y-73525000D01*
X130624285Y-73739285D02*
X129874285Y-73739285D01*
X129981428Y-73667857D01*
X130052857Y-73596428D01*
X130088571Y-73525000D01*
X40864285Y-64655000D02*
X40864285Y-64726428D01*
X40900000Y-64797857D01*
X40935714Y-64833571D01*
X41007142Y-64869285D01*
X41150000Y-64905000D01*
X41328571Y-64905000D01*
X41471428Y-64869285D01*
X41542857Y-64833571D01*
X41578571Y-64797857D01*
X41614285Y-64726428D01*
X41614285Y-64655000D01*
X41578571Y-64583571D01*
X41542857Y-64547857D01*
X41471428Y-64512142D01*
X41328571Y-64476428D01*
X41150000Y-64476428D01*
X41007142Y-64512142D01*
X40935714Y-64547857D01*
X40900000Y-64583571D01*
X40864285Y-64655000D01*
X40935714Y-65190714D02*
X40900000Y-65226428D01*
X40864285Y-65297857D01*
X40864285Y-65476428D01*
X40900000Y-65547857D01*
X40935714Y-65583571D01*
X41007142Y-65619285D01*
X41078571Y-65619285D01*
X41185714Y-65583571D01*
X41614285Y-65155000D01*
X41614285Y-65619285D01*
X41114285Y-66262142D02*
X41614285Y-66262142D01*
X40828571Y-66083571D02*
X41364285Y-65905000D01*
X41364285Y-66369285D01*
X88254285Y-67445000D02*
X88254285Y-67016428D01*
X88254285Y-67230714D02*
X87504285Y-67230714D01*
X87611428Y-67159285D01*
X87682857Y-67087857D01*
X87718571Y-67016428D01*
X87504285Y-67909285D02*
X87504285Y-67980714D01*
X87540000Y-68052142D01*
X87575714Y-68087857D01*
X87647142Y-68123571D01*
X87790000Y-68159285D01*
X87968571Y-68159285D01*
X88111428Y-68123571D01*
X88182857Y-68087857D01*
X88218571Y-68052142D01*
X88254285Y-67980714D01*
X88254285Y-67909285D01*
X88218571Y-67837857D01*
X88182857Y-67802142D01*
X88111428Y-67766428D01*
X87968571Y-67730714D01*
X87790000Y-67730714D01*
X87647142Y-67766428D01*
X87575714Y-67802142D01*
X87540000Y-67837857D01*
X87504285Y-67909285D01*
X87504285Y-68623571D02*
X87504285Y-68695000D01*
X87540000Y-68766428D01*
X87575714Y-68802142D01*
X87647142Y-68837857D01*
X87790000Y-68873571D01*
X87968571Y-68873571D01*
X88111428Y-68837857D01*
X88182857Y-68802142D01*
X88218571Y-68766428D01*
X88254285Y-68695000D01*
X88254285Y-68623571D01*
X88218571Y-68552142D01*
X88182857Y-68516428D01*
X88111428Y-68480714D01*
X87968571Y-68445000D01*
X87790000Y-68445000D01*
X87647142Y-68480714D01*
X87575714Y-68516428D01*
X87540000Y-68552142D01*
X87504285Y-68623571D01*
X110860000Y-74993571D02*
X110824285Y-74922142D01*
X110824285Y-74815000D01*
X110860000Y-74707857D01*
X110931428Y-74636428D01*
X111002857Y-74600714D01*
X111145714Y-74565000D01*
X111252857Y-74565000D01*
X111395714Y-74600714D01*
X111467142Y-74636428D01*
X111538571Y-74707857D01*
X111574285Y-74815000D01*
X111574285Y-74886428D01*
X111538571Y-74993571D01*
X111502857Y-75029285D01*
X111252857Y-75029285D01*
X111252857Y-74886428D01*
X111574285Y-75350714D02*
X110824285Y-75350714D01*
X111574285Y-75779285D01*
X110824285Y-75779285D01*
X111574285Y-76136428D02*
X110824285Y-76136428D01*
X110824285Y-76315000D01*
X110860000Y-76422142D01*
X110931428Y-76493571D01*
X111002857Y-76529285D01*
X111145714Y-76565000D01*
X111252857Y-76565000D01*
X111395714Y-76529285D01*
X111467142Y-76493571D01*
X111538571Y-76422142D01*
X111574285Y-76315000D01*
X111574285Y-76136428D01*
X59914285Y-44338385D02*
X59914285Y-44409813D01*
X59950000Y-44481242D01*
X59985714Y-44516956D01*
X60057142Y-44552670D01*
X60200000Y-44588385D01*
X60378571Y-44588385D01*
X60521428Y-44552670D01*
X60592857Y-44516956D01*
X60628571Y-44481242D01*
X60664285Y-44409813D01*
X60664285Y-44338385D01*
X60628571Y-44266956D01*
X60592857Y-44231242D01*
X60521428Y-44195527D01*
X60378571Y-44159813D01*
X60200000Y-44159813D01*
X60057142Y-44195527D01*
X59985714Y-44231242D01*
X59950000Y-44266956D01*
X59914285Y-44338385D01*
X60664285Y-45302670D02*
X60664285Y-44874099D01*
X60664285Y-45088385D02*
X59914285Y-45088385D01*
X60021428Y-45016956D01*
X60092857Y-44945527D01*
X60128571Y-44874099D01*
X60664285Y-46016956D02*
X60664285Y-45588385D01*
X60664285Y-45802670D02*
X59914285Y-45802670D01*
X60021428Y-45731242D01*
X60092857Y-45659813D01*
X60128571Y-45588385D01*
X41614285Y-67445000D02*
X41614285Y-67016428D01*
X41614285Y-67230714D02*
X40864285Y-67230714D01*
X40971428Y-67159285D01*
X41042857Y-67087857D01*
X41078571Y-67016428D01*
X40864285Y-67909285D02*
X40864285Y-67980714D01*
X40900000Y-68052142D01*
X40935714Y-68087857D01*
X41007142Y-68123571D01*
X41150000Y-68159285D01*
X41328571Y-68159285D01*
X41471428Y-68123571D01*
X41542857Y-68087857D01*
X41578571Y-68052142D01*
X41614285Y-67980714D01*
X41614285Y-67909285D01*
X41578571Y-67837857D01*
X41542857Y-67802142D01*
X41471428Y-67766428D01*
X41328571Y-67730714D01*
X41150000Y-67730714D01*
X41007142Y-67766428D01*
X40935714Y-67802142D01*
X40900000Y-67837857D01*
X40864285Y-67909285D01*
X40864285Y-68623571D02*
X40864285Y-68695000D01*
X40900000Y-68766428D01*
X40935714Y-68802142D01*
X41007142Y-68837857D01*
X41150000Y-68873571D01*
X41328571Y-68873571D01*
X41471428Y-68837857D01*
X41542857Y-68802142D01*
X41578571Y-68766428D01*
X41614285Y-68695000D01*
X41614285Y-68623571D01*
X41578571Y-68552142D01*
X41542857Y-68516428D01*
X41471428Y-68480714D01*
X41328571Y-68445000D01*
X41150000Y-68445000D01*
X41007142Y-68480714D01*
X40935714Y-68516428D01*
X40900000Y-68552142D01*
X40864285Y-68623571D01*
D11*
X122764285Y-72703571D02*
X122721428Y-72660714D01*
X122592857Y-72617857D01*
X122507142Y-72617857D01*
X122378571Y-72660714D01*
X122292857Y-72746428D01*
X122250000Y-72832142D01*
X122207142Y-73003571D01*
X122207142Y-73132142D01*
X122250000Y-73303571D01*
X122292857Y-73389285D01*
X122378571Y-73475000D01*
X122507142Y-73517857D01*
X122592857Y-73517857D01*
X122721428Y-73475000D01*
X122764285Y-73432142D01*
X123578571Y-72617857D02*
X123150000Y-72617857D01*
X123150000Y-73517857D01*
X123878571Y-72617857D02*
X123878571Y-73517857D01*
X124392857Y-72617857D02*
X124007142Y-73132142D01*
X124392857Y-73517857D02*
X123878571Y-73003571D01*
X52804285Y-72703571D02*
X52761428Y-72660714D01*
X52632857Y-72617857D01*
X52547142Y-72617857D01*
X52418571Y-72660714D01*
X52332857Y-72746428D01*
X52290000Y-72832142D01*
X52247142Y-73003571D01*
X52247142Y-73132142D01*
X52290000Y-73303571D01*
X52332857Y-73389285D01*
X52418571Y-73475000D01*
X52547142Y-73517857D01*
X52632857Y-73517857D01*
X52761428Y-73475000D01*
X52804285Y-73432142D01*
X53618571Y-72617857D02*
X53190000Y-72617857D01*
X53190000Y-73517857D01*
X53918571Y-72617857D02*
X53918571Y-73517857D01*
X54432857Y-72617857D02*
X54047142Y-73132142D01*
X54432857Y-73517857D02*
X53918571Y-73003571D01*
D10*
X87504285Y-41795000D02*
X87504285Y-41866428D01*
X87540000Y-41937857D01*
X87575714Y-41973571D01*
X87647142Y-42009285D01*
X87790000Y-42045000D01*
X87968571Y-42045000D01*
X88111428Y-42009285D01*
X88182857Y-41973571D01*
X88218571Y-41937857D01*
X88254285Y-41866428D01*
X88254285Y-41795000D01*
X88218571Y-41723571D01*
X88182857Y-41687857D01*
X88111428Y-41652142D01*
X87968571Y-41616428D01*
X87790000Y-41616428D01*
X87647142Y-41652142D01*
X87575714Y-41687857D01*
X87540000Y-41723571D01*
X87504285Y-41795000D01*
X88254285Y-42759285D02*
X88254285Y-42330714D01*
X88254285Y-42545000D02*
X87504285Y-42545000D01*
X87611428Y-42473571D01*
X87682857Y-42402142D01*
X87718571Y-42330714D01*
X87504285Y-43009285D02*
X87504285Y-43473571D01*
X87790000Y-43223571D01*
X87790000Y-43330714D01*
X87825714Y-43402142D01*
X87861428Y-43437857D01*
X87932857Y-43473571D01*
X88111428Y-43473571D01*
X88182857Y-43437857D01*
X88218571Y-43402142D01*
X88254285Y-43330714D01*
X88254285Y-43116428D01*
X88218571Y-43045000D01*
X88182857Y-43009285D01*
X59914285Y-49415000D02*
X59914285Y-49486428D01*
X59950000Y-49557857D01*
X59985714Y-49593571D01*
X60057142Y-49629285D01*
X60200000Y-49665000D01*
X60378571Y-49665000D01*
X60521428Y-49629285D01*
X60592857Y-49593571D01*
X60628571Y-49557857D01*
X60664285Y-49486428D01*
X60664285Y-49415000D01*
X60628571Y-49343571D01*
X60592857Y-49307857D01*
X60521428Y-49272142D01*
X60378571Y-49236428D01*
X60200000Y-49236428D01*
X60057142Y-49272142D01*
X59985714Y-49307857D01*
X59950000Y-49343571D01*
X59914285Y-49415000D01*
X59914285Y-50129285D02*
X59914285Y-50200714D01*
X59950000Y-50272142D01*
X59985714Y-50307857D01*
X60057142Y-50343571D01*
X60200000Y-50379285D01*
X60378571Y-50379285D01*
X60521428Y-50343571D01*
X60592857Y-50307857D01*
X60628571Y-50272142D01*
X60664285Y-50200714D01*
X60664285Y-50129285D01*
X60628571Y-50057857D01*
X60592857Y-50022142D01*
X60521428Y-49986428D01*
X60378571Y-49950714D01*
X60200000Y-49950714D01*
X60057142Y-49986428D01*
X59985714Y-50022142D01*
X59950000Y-50057857D01*
X59914285Y-50129285D01*
X59914285Y-51022142D02*
X59914285Y-50879285D01*
X59950000Y-50807857D01*
X59985714Y-50772142D01*
X60092857Y-50700714D01*
X60235714Y-50665000D01*
X60521428Y-50665000D01*
X60592857Y-50700714D01*
X60628571Y-50736428D01*
X60664285Y-50807857D01*
X60664285Y-50950714D01*
X60628571Y-51022142D01*
X60592857Y-51057857D01*
X60521428Y-51093571D01*
X60342857Y-51093571D01*
X60271428Y-51057857D01*
X60235714Y-51022142D01*
X60200000Y-50950714D01*
X60200000Y-50807857D01*
X60235714Y-50736428D01*
X60271428Y-50700714D01*
X60342857Y-50665000D01*
X87960773Y-72060714D02*
X87960773Y-72632142D01*
X88246487Y-72346428D02*
X87675059Y-72346428D01*
X87496487Y-73346428D02*
X87496487Y-72989285D01*
X87853630Y-72953571D01*
X87817916Y-72989285D01*
X87782202Y-73060714D01*
X87782202Y-73239285D01*
X87817916Y-73310714D01*
X87853630Y-73346428D01*
X87925059Y-73382142D01*
X88103630Y-73382142D01*
X88175059Y-73346428D01*
X88210773Y-73310714D01*
X88246487Y-73239285D01*
X88246487Y-73060714D01*
X88210773Y-72989285D01*
X88175059Y-72953571D01*
X87496487Y-73596428D02*
X88246487Y-73846428D01*
X87496487Y-74096428D01*
X87540000Y-74993571D02*
X87504285Y-74922142D01*
X87504285Y-74815000D01*
X87540000Y-74707857D01*
X87611428Y-74636428D01*
X87682857Y-74600714D01*
X87825714Y-74565000D01*
X87932857Y-74565000D01*
X88075714Y-74600714D01*
X88147142Y-74636428D01*
X88218571Y-74707857D01*
X88254285Y-74815000D01*
X88254285Y-74886428D01*
X88218571Y-74993571D01*
X88182857Y-75029285D01*
X87932857Y-75029285D01*
X87932857Y-74886428D01*
X88254285Y-75350714D02*
X87504285Y-75350714D01*
X88254285Y-75779285D01*
X87504285Y-75779285D01*
X88254285Y-76136428D02*
X87504285Y-76136428D01*
X87504285Y-76315000D01*
X87540000Y-76422142D01*
X87611428Y-76493571D01*
X87682857Y-76529285D01*
X87825714Y-76565000D01*
X87932857Y-76565000D01*
X88075714Y-76529285D01*
X88147142Y-76493571D01*
X88218571Y-76422142D01*
X88254285Y-76315000D01*
X88254285Y-76136428D01*
X110824285Y-69735000D02*
X110824285Y-69806428D01*
X110860000Y-69877857D01*
X110895714Y-69913571D01*
X110967142Y-69949285D01*
X111110000Y-69985000D01*
X111288571Y-69985000D01*
X111431428Y-69949285D01*
X111502857Y-69913571D01*
X111538571Y-69877857D01*
X111574285Y-69806428D01*
X111574285Y-69735000D01*
X111538571Y-69663571D01*
X111502857Y-69627857D01*
X111431428Y-69592142D01*
X111288571Y-69556428D01*
X111110000Y-69556428D01*
X110967142Y-69592142D01*
X110895714Y-69627857D01*
X110860000Y-69663571D01*
X110824285Y-69735000D01*
X110895714Y-70270714D02*
X110860000Y-70306428D01*
X110824285Y-70377857D01*
X110824285Y-70556428D01*
X110860000Y-70627857D01*
X110895714Y-70663571D01*
X110967142Y-70699285D01*
X111038571Y-70699285D01*
X111145714Y-70663571D01*
X111574285Y-70235000D01*
X111574285Y-70699285D01*
X110824285Y-71377857D02*
X110824285Y-71020714D01*
X111181428Y-70985000D01*
X111145714Y-71020714D01*
X111110000Y-71092142D01*
X111110000Y-71270714D01*
X111145714Y-71342142D01*
X111181428Y-71377857D01*
X111252857Y-71413571D01*
X111431428Y-71413571D01*
X111502857Y-71377857D01*
X111538571Y-71342142D01*
X111574285Y-71270714D01*
X111574285Y-71092142D01*
X111538571Y-71020714D01*
X111502857Y-70985000D01*
X88254285Y-46964285D02*
X87504285Y-46964285D01*
X87504285Y-47142857D01*
X87540000Y-47250000D01*
X87611428Y-47321428D01*
X87682857Y-47357142D01*
X87825714Y-47392857D01*
X87932857Y-47392857D01*
X88075714Y-47357142D01*
X88147142Y-47321428D01*
X88218571Y-47250000D01*
X88254285Y-47142857D01*
X88254285Y-46964285D01*
X87968571Y-47714285D02*
X87968571Y-48285714D01*
X110824285Y-57035000D02*
X110824285Y-57106428D01*
X110860000Y-57177857D01*
X110895714Y-57213571D01*
X110967142Y-57249285D01*
X111110000Y-57285000D01*
X111288571Y-57285000D01*
X111431428Y-57249285D01*
X111502857Y-57213571D01*
X111538571Y-57177857D01*
X111574285Y-57106428D01*
X111574285Y-57035000D01*
X111538571Y-56963571D01*
X111502857Y-56927857D01*
X111431428Y-56892142D01*
X111288571Y-56856428D01*
X111110000Y-56856428D01*
X110967142Y-56892142D01*
X110895714Y-56927857D01*
X110860000Y-56963571D01*
X110824285Y-57035000D01*
X110895714Y-57570714D02*
X110860000Y-57606428D01*
X110824285Y-57677857D01*
X110824285Y-57856428D01*
X110860000Y-57927857D01*
X110895714Y-57963571D01*
X110967142Y-57999285D01*
X111038571Y-57999285D01*
X111145714Y-57963571D01*
X111574285Y-57535000D01*
X111574285Y-57999285D01*
X110824285Y-58249285D02*
X110824285Y-58713571D01*
X111110000Y-58463571D01*
X111110000Y-58570714D01*
X111145714Y-58642142D01*
X111181428Y-58677857D01*
X111252857Y-58713571D01*
X111431428Y-58713571D01*
X111502857Y-58677857D01*
X111538571Y-58642142D01*
X111574285Y-58570714D01*
X111574285Y-58356428D01*
X111538571Y-58285000D01*
X111502857Y-58249285D01*
X107304285Y-47125000D02*
X107304285Y-46696428D01*
X107304285Y-46910714D02*
X106554285Y-46910714D01*
X106661428Y-46839285D01*
X106732857Y-46767857D01*
X106768571Y-46696428D01*
X106554285Y-47589285D02*
X106554285Y-47660714D01*
X106590000Y-47732142D01*
X106625714Y-47767857D01*
X106697142Y-47803571D01*
X106840000Y-47839285D01*
X107018571Y-47839285D01*
X107161428Y-47803571D01*
X107232857Y-47767857D01*
X107268571Y-47732142D01*
X107304285Y-47660714D01*
X107304285Y-47589285D01*
X107268571Y-47517857D01*
X107232857Y-47482142D01*
X107161428Y-47446428D01*
X107018571Y-47410714D01*
X106840000Y-47410714D01*
X106697142Y-47446428D01*
X106625714Y-47482142D01*
X106590000Y-47517857D01*
X106554285Y-47589285D01*
X106875714Y-48267857D02*
X106840000Y-48196428D01*
X106804285Y-48160714D01*
X106732857Y-48125000D01*
X106697142Y-48125000D01*
X106625714Y-48160714D01*
X106590000Y-48196428D01*
X106554285Y-48267857D01*
X106554285Y-48410714D01*
X106590000Y-48482142D01*
X106625714Y-48517857D01*
X106697142Y-48553571D01*
X106732857Y-48553571D01*
X106804285Y-48517857D01*
X106840000Y-48482142D01*
X106875714Y-48410714D01*
X106875714Y-48267857D01*
X106911428Y-48196428D01*
X106947142Y-48160714D01*
X107018571Y-48125000D01*
X107161428Y-48125000D01*
X107232857Y-48160714D01*
X107268571Y-48196428D01*
X107304285Y-48267857D01*
X107304285Y-48410714D01*
X107268571Y-48482142D01*
X107232857Y-48517857D01*
X107161428Y-48553571D01*
X107018571Y-48553571D01*
X106947142Y-48517857D01*
X106911428Y-48482142D01*
X106875714Y-48410714D01*
X83234285Y-62115000D02*
X83234285Y-62186428D01*
X83270000Y-62257857D01*
X83305714Y-62293571D01*
X83377142Y-62329285D01*
X83520000Y-62365000D01*
X83698571Y-62365000D01*
X83841428Y-62329285D01*
X83912857Y-62293571D01*
X83948571Y-62257857D01*
X83984285Y-62186428D01*
X83984285Y-62115000D01*
X83948571Y-62043571D01*
X83912857Y-62007857D01*
X83841428Y-61972142D01*
X83698571Y-61936428D01*
X83520000Y-61936428D01*
X83377142Y-61972142D01*
X83305714Y-62007857D01*
X83270000Y-62043571D01*
X83234285Y-62115000D01*
X83234285Y-62829285D02*
X83234285Y-62900714D01*
X83270000Y-62972142D01*
X83305714Y-63007857D01*
X83377142Y-63043571D01*
X83520000Y-63079285D01*
X83698571Y-63079285D01*
X83841428Y-63043571D01*
X83912857Y-63007857D01*
X83948571Y-62972142D01*
X83984285Y-62900714D01*
X83984285Y-62829285D01*
X83948571Y-62757857D01*
X83912857Y-62722142D01*
X83841428Y-62686428D01*
X83698571Y-62650714D01*
X83520000Y-62650714D01*
X83377142Y-62686428D01*
X83305714Y-62722142D01*
X83270000Y-62757857D01*
X83234285Y-62829285D01*
X83234285Y-63757857D02*
X83234285Y-63400714D01*
X83591428Y-63365000D01*
X83555714Y-63400714D01*
X83520000Y-63472142D01*
X83520000Y-63650714D01*
X83555714Y-63722142D01*
X83591428Y-63757857D01*
X83662857Y-63793571D01*
X83841428Y-63793571D01*
X83912857Y-63757857D01*
X83948571Y-63722142D01*
X83984285Y-63650714D01*
X83984285Y-63472142D01*
X83948571Y-63400714D01*
X83912857Y-63365000D01*
X87504285Y-31635000D02*
X87504285Y-31706428D01*
X87540000Y-31777857D01*
X87575714Y-31813571D01*
X87647142Y-31849285D01*
X87790000Y-31885000D01*
X87968571Y-31885000D01*
X88111428Y-31849285D01*
X88182857Y-31813571D01*
X88218571Y-31777857D01*
X88254285Y-31706428D01*
X88254285Y-31635000D01*
X88218571Y-31563571D01*
X88182857Y-31527857D01*
X88111428Y-31492142D01*
X87968571Y-31456428D01*
X87790000Y-31456428D01*
X87647142Y-31492142D01*
X87575714Y-31527857D01*
X87540000Y-31563571D01*
X87504285Y-31635000D01*
X88254285Y-32599285D02*
X88254285Y-32170714D01*
X88254285Y-32385000D02*
X87504285Y-32385000D01*
X87611428Y-32313571D01*
X87682857Y-32242142D01*
X87718571Y-32170714D01*
X87575714Y-32885000D02*
X87540000Y-32920714D01*
X87504285Y-32992142D01*
X87504285Y-33170714D01*
X87540000Y-33242142D01*
X87575714Y-33277857D01*
X87647142Y-33313571D01*
X87718571Y-33313571D01*
X87825714Y-33277857D01*
X88254285Y-32849285D01*
X88254285Y-33313571D01*
X110824285Y-41795000D02*
X110824285Y-41866428D01*
X110860000Y-41937857D01*
X110895714Y-41973571D01*
X110967142Y-42009285D01*
X111110000Y-42045000D01*
X111288571Y-42045000D01*
X111431428Y-42009285D01*
X111502857Y-41973571D01*
X111538571Y-41937857D01*
X111574285Y-41866428D01*
X111574285Y-41795000D01*
X111538571Y-41723571D01*
X111502857Y-41687857D01*
X111431428Y-41652142D01*
X111288571Y-41616428D01*
X111110000Y-41616428D01*
X110967142Y-41652142D01*
X110895714Y-41687857D01*
X110860000Y-41723571D01*
X110824285Y-41795000D01*
X111574285Y-42759285D02*
X111574285Y-42330714D01*
X111574285Y-42545000D02*
X110824285Y-42545000D01*
X110931428Y-42473571D01*
X111002857Y-42402142D01*
X111038571Y-42330714D01*
X110824285Y-43009285D02*
X110824285Y-43473571D01*
X111110000Y-43223571D01*
X111110000Y-43330714D01*
X111145714Y-43402142D01*
X111181428Y-43437857D01*
X111252857Y-43473571D01*
X111431428Y-43473571D01*
X111502857Y-43437857D01*
X111538571Y-43402142D01*
X111574285Y-43330714D01*
X111574285Y-43116428D01*
X111538571Y-43045000D01*
X111502857Y-43009285D01*
X64184285Y-64655000D02*
X64184285Y-64726428D01*
X64220000Y-64797857D01*
X64255714Y-64833571D01*
X64327142Y-64869285D01*
X64470000Y-64905000D01*
X64648571Y-64905000D01*
X64791428Y-64869285D01*
X64862857Y-64833571D01*
X64898571Y-64797857D01*
X64934285Y-64726428D01*
X64934285Y-64655000D01*
X64898571Y-64583571D01*
X64862857Y-64547857D01*
X64791428Y-64512142D01*
X64648571Y-64476428D01*
X64470000Y-64476428D01*
X64327142Y-64512142D01*
X64255714Y-64547857D01*
X64220000Y-64583571D01*
X64184285Y-64655000D01*
X64255714Y-65190714D02*
X64220000Y-65226428D01*
X64184285Y-65297857D01*
X64184285Y-65476428D01*
X64220000Y-65547857D01*
X64255714Y-65583571D01*
X64327142Y-65619285D01*
X64398571Y-65619285D01*
X64505714Y-65583571D01*
X64934285Y-65155000D01*
X64934285Y-65619285D01*
X64434285Y-66262142D02*
X64934285Y-66262142D01*
X64148571Y-66083571D02*
X64684285Y-65905000D01*
X64684285Y-66369285D01*
X59914285Y-41795000D02*
X59914285Y-41866428D01*
X59950000Y-41937857D01*
X59985714Y-41973571D01*
X60057142Y-42009285D01*
X60200000Y-42045000D01*
X60378571Y-42045000D01*
X60521428Y-42009285D01*
X60592857Y-41973571D01*
X60628571Y-41937857D01*
X60664285Y-41866428D01*
X60664285Y-41795000D01*
X60628571Y-41723571D01*
X60592857Y-41687857D01*
X60521428Y-41652142D01*
X60378571Y-41616428D01*
X60200000Y-41616428D01*
X60057142Y-41652142D01*
X59985714Y-41687857D01*
X59950000Y-41723571D01*
X59914285Y-41795000D01*
X59914285Y-42509285D02*
X59914285Y-42580714D01*
X59950000Y-42652142D01*
X59985714Y-42687857D01*
X60057142Y-42723571D01*
X60200000Y-42759285D01*
X60378571Y-42759285D01*
X60521428Y-42723571D01*
X60592857Y-42687857D01*
X60628571Y-42652142D01*
X60664285Y-42580714D01*
X60664285Y-42509285D01*
X60628571Y-42437857D01*
X60592857Y-42402142D01*
X60521428Y-42366428D01*
X60378571Y-42330714D01*
X60200000Y-42330714D01*
X60057142Y-42366428D01*
X59985714Y-42402142D01*
X59950000Y-42437857D01*
X59914285Y-42509285D01*
X60235714Y-43187857D02*
X60200000Y-43116428D01*
X60164285Y-43080714D01*
X60092857Y-43045000D01*
X60057142Y-43045000D01*
X59985714Y-43080714D01*
X59950000Y-43116428D01*
X59914285Y-43187857D01*
X59914285Y-43330714D01*
X59950000Y-43402142D01*
X59985714Y-43437857D01*
X60057142Y-43473571D01*
X60092857Y-43473571D01*
X60164285Y-43437857D01*
X60200000Y-43402142D01*
X60235714Y-43330714D01*
X60235714Y-43187857D01*
X60271428Y-43116428D01*
X60307142Y-43080714D01*
X60378571Y-43045000D01*
X60521428Y-43045000D01*
X60592857Y-43080714D01*
X60628571Y-43116428D01*
X60664285Y-43187857D01*
X60664285Y-43330714D01*
X60628571Y-43402142D01*
X60592857Y-43437857D01*
X60521428Y-43473571D01*
X60378571Y-43473571D01*
X60307142Y-43437857D01*
X60271428Y-43402142D01*
X60235714Y-43330714D01*
X83234285Y-49415000D02*
X83234285Y-49486428D01*
X83270000Y-49557857D01*
X83305714Y-49593571D01*
X83377142Y-49629285D01*
X83520000Y-49665000D01*
X83698571Y-49665000D01*
X83841428Y-49629285D01*
X83912857Y-49593571D01*
X83948571Y-49557857D01*
X83984285Y-49486428D01*
X83984285Y-49415000D01*
X83948571Y-49343571D01*
X83912857Y-49307857D01*
X83841428Y-49272142D01*
X83698571Y-49236428D01*
X83520000Y-49236428D01*
X83377142Y-49272142D01*
X83305714Y-49307857D01*
X83270000Y-49343571D01*
X83234285Y-49415000D01*
X83234285Y-50129285D02*
X83234285Y-50200714D01*
X83270000Y-50272142D01*
X83305714Y-50307857D01*
X83377142Y-50343571D01*
X83520000Y-50379285D01*
X83698571Y-50379285D01*
X83841428Y-50343571D01*
X83912857Y-50307857D01*
X83948571Y-50272142D01*
X83984285Y-50200714D01*
X83984285Y-50129285D01*
X83948571Y-50057857D01*
X83912857Y-50022142D01*
X83841428Y-49986428D01*
X83698571Y-49950714D01*
X83520000Y-49950714D01*
X83377142Y-49986428D01*
X83305714Y-50022142D01*
X83270000Y-50057857D01*
X83234285Y-50129285D01*
X83234285Y-51022142D02*
X83234285Y-50879285D01*
X83270000Y-50807857D01*
X83305714Y-50772142D01*
X83412857Y-50700714D01*
X83555714Y-50665000D01*
X83841428Y-50665000D01*
X83912857Y-50700714D01*
X83948571Y-50736428D01*
X83984285Y-50807857D01*
X83984285Y-50950714D01*
X83948571Y-51022142D01*
X83912857Y-51057857D01*
X83841428Y-51093571D01*
X83662857Y-51093571D01*
X83591428Y-51057857D01*
X83555714Y-51022142D01*
X83520000Y-50950714D01*
X83520000Y-50807857D01*
X83555714Y-50736428D01*
X83591428Y-50700714D01*
X83662857Y-50665000D01*
X110824285Y-36715000D02*
X110824285Y-36786428D01*
X110860000Y-36857857D01*
X110895714Y-36893571D01*
X110967142Y-36929285D01*
X111110000Y-36965000D01*
X111288571Y-36965000D01*
X111431428Y-36929285D01*
X111502857Y-36893571D01*
X111538571Y-36857857D01*
X111574285Y-36786428D01*
X111574285Y-36715000D01*
X111538571Y-36643571D01*
X111502857Y-36607857D01*
X111431428Y-36572142D01*
X111288571Y-36536428D01*
X111110000Y-36536428D01*
X110967142Y-36572142D01*
X110895714Y-36607857D01*
X110860000Y-36643571D01*
X110824285Y-36715000D01*
X111574285Y-37679285D02*
X111574285Y-37250714D01*
X111574285Y-37465000D02*
X110824285Y-37465000D01*
X110931428Y-37393571D01*
X111002857Y-37322142D01*
X111038571Y-37250714D01*
X111074285Y-38322142D02*
X111574285Y-38322142D01*
X110788571Y-38143571D02*
X111324285Y-37965000D01*
X111324285Y-38429285D01*
X106554285Y-54495000D02*
X106554285Y-54566428D01*
X106590000Y-54637857D01*
X106625714Y-54673571D01*
X106697142Y-54709285D01*
X106840000Y-54745000D01*
X107018571Y-54745000D01*
X107161428Y-54709285D01*
X107232857Y-54673571D01*
X107268571Y-54637857D01*
X107304285Y-54566428D01*
X107304285Y-54495000D01*
X107268571Y-54423571D01*
X107232857Y-54387857D01*
X107161428Y-54352142D01*
X107018571Y-54316428D01*
X106840000Y-54316428D01*
X106697142Y-54352142D01*
X106625714Y-54387857D01*
X106590000Y-54423571D01*
X106554285Y-54495000D01*
X106554285Y-54995000D02*
X106554285Y-55459285D01*
X106840000Y-55209285D01*
X106840000Y-55316428D01*
X106875714Y-55387857D01*
X106911428Y-55423571D01*
X106982857Y-55459285D01*
X107161428Y-55459285D01*
X107232857Y-55423571D01*
X107268571Y-55387857D01*
X107304285Y-55316428D01*
X107304285Y-55102142D01*
X107268571Y-55030714D01*
X107232857Y-54995000D01*
X107304285Y-56173571D02*
X107304285Y-55745000D01*
X107304285Y-55959285D02*
X106554285Y-55959285D01*
X106661428Y-55887857D01*
X106732857Y-55816428D01*
X106768571Y-55745000D01*
X83984285Y-36965000D02*
X83984285Y-36536428D01*
X83984285Y-36750714D02*
X83234285Y-36750714D01*
X83341428Y-36679285D01*
X83412857Y-36607857D01*
X83448571Y-36536428D01*
X83234285Y-37429285D02*
X83234285Y-37500714D01*
X83270000Y-37572142D01*
X83305714Y-37607857D01*
X83377142Y-37643571D01*
X83520000Y-37679285D01*
X83698571Y-37679285D01*
X83841428Y-37643571D01*
X83912857Y-37607857D01*
X83948571Y-37572142D01*
X83984285Y-37500714D01*
X83984285Y-37429285D01*
X83948571Y-37357857D01*
X83912857Y-37322142D01*
X83841428Y-37286428D01*
X83698571Y-37250714D01*
X83520000Y-37250714D01*
X83377142Y-37286428D01*
X83305714Y-37322142D01*
X83270000Y-37357857D01*
X83234285Y-37429285D01*
X83984285Y-38036428D02*
X83984285Y-38179285D01*
X83948571Y-38250714D01*
X83912857Y-38286428D01*
X83805714Y-38357857D01*
X83662857Y-38393571D01*
X83377142Y-38393571D01*
X83305714Y-38357857D01*
X83270000Y-38322142D01*
X83234285Y-38250714D01*
X83234285Y-38107857D01*
X83270000Y-38036428D01*
X83305714Y-38000714D01*
X83377142Y-37965000D01*
X83555714Y-37965000D01*
X83627142Y-38000714D01*
X83662857Y-38036428D01*
X83698571Y-38107857D01*
X83698571Y-38250714D01*
X83662857Y-38322142D01*
X83627142Y-38357857D01*
X83555714Y-38393571D01*
X64934285Y-46964285D02*
X64184285Y-46964285D01*
X64184285Y-47142857D01*
X64220000Y-47250000D01*
X64291428Y-47321428D01*
X64362857Y-47357142D01*
X64505714Y-47392857D01*
X64612857Y-47392857D01*
X64755714Y-47357142D01*
X64827142Y-47321428D01*
X64898571Y-47250000D01*
X64934285Y-47142857D01*
X64934285Y-46964285D01*
X64648571Y-47714285D02*
X64648571Y-48285714D01*
X106554285Y-64655000D02*
X106554285Y-64726428D01*
X106590000Y-64797857D01*
X106625714Y-64833571D01*
X106697142Y-64869285D01*
X106840000Y-64905000D01*
X107018571Y-64905000D01*
X107161428Y-64869285D01*
X107232857Y-64833571D01*
X107268571Y-64797857D01*
X107304285Y-64726428D01*
X107304285Y-64655000D01*
X107268571Y-64583571D01*
X107232857Y-64547857D01*
X107161428Y-64512142D01*
X107018571Y-64476428D01*
X106840000Y-64476428D01*
X106697142Y-64512142D01*
X106625714Y-64547857D01*
X106590000Y-64583571D01*
X106554285Y-64655000D01*
X106625714Y-65190714D02*
X106590000Y-65226428D01*
X106554285Y-65297857D01*
X106554285Y-65476428D01*
X106590000Y-65547857D01*
X106625714Y-65583571D01*
X106697142Y-65619285D01*
X106768571Y-65619285D01*
X106875714Y-65583571D01*
X107304285Y-65155000D01*
X107304285Y-65619285D01*
X106554285Y-65869285D02*
X106554285Y-66369285D01*
X107304285Y-66047857D01*
X107018571Y-28880714D02*
X107018571Y-29452142D01*
X107304285Y-29166428D02*
X106732857Y-29166428D01*
X106554285Y-30166428D02*
X106554285Y-29809285D01*
X106911428Y-29773571D01*
X106875714Y-29809285D01*
X106840000Y-29880714D01*
X106840000Y-30059285D01*
X106875714Y-30130714D01*
X106911428Y-30166428D01*
X106982857Y-30202142D01*
X107161428Y-30202142D01*
X107232857Y-30166428D01*
X107268571Y-30130714D01*
X107304285Y-30059285D01*
X107304285Y-29880714D01*
X107268571Y-29809285D01*
X107232857Y-29773571D01*
X106554285Y-30416428D02*
X107304285Y-30666428D01*
X106554285Y-30916428D01*
X40864285Y-51955000D02*
X40864285Y-52026428D01*
X40900000Y-52097857D01*
X40935714Y-52133571D01*
X41007142Y-52169285D01*
X41150000Y-52205000D01*
X41328571Y-52205000D01*
X41471428Y-52169285D01*
X41542857Y-52133571D01*
X41578571Y-52097857D01*
X41614285Y-52026428D01*
X41614285Y-51955000D01*
X41578571Y-51883571D01*
X41542857Y-51847857D01*
X41471428Y-51812142D01*
X41328571Y-51776428D01*
X41150000Y-51776428D01*
X41007142Y-51812142D01*
X40935714Y-51847857D01*
X40900000Y-51883571D01*
X40864285Y-51955000D01*
X41614285Y-52919285D02*
X41614285Y-52490714D01*
X41614285Y-52705000D02*
X40864285Y-52705000D01*
X40971428Y-52633571D01*
X41042857Y-52562142D01*
X41078571Y-52490714D01*
X40864285Y-53169285D02*
X40864285Y-53669285D01*
X41614285Y-53347857D01*
X60664285Y-36965000D02*
X60664285Y-36536428D01*
X60664285Y-36750714D02*
X59914285Y-36750714D01*
X60021428Y-36679285D01*
X60092857Y-36607857D01*
X60128571Y-36536428D01*
X59914285Y-37429285D02*
X59914285Y-37500714D01*
X59950000Y-37572142D01*
X59985714Y-37607857D01*
X60057142Y-37643571D01*
X60200000Y-37679285D01*
X60378571Y-37679285D01*
X60521428Y-37643571D01*
X60592857Y-37607857D01*
X60628571Y-37572142D01*
X60664285Y-37500714D01*
X60664285Y-37429285D01*
X60628571Y-37357857D01*
X60592857Y-37322142D01*
X60521428Y-37286428D01*
X60378571Y-37250714D01*
X60200000Y-37250714D01*
X60057142Y-37286428D01*
X59985714Y-37322142D01*
X59950000Y-37357857D01*
X59914285Y-37429285D01*
X60664285Y-38036428D02*
X60664285Y-38179285D01*
X60628571Y-38250714D01*
X60592857Y-38286428D01*
X60485714Y-38357857D01*
X60342857Y-38393571D01*
X60057142Y-38393571D01*
X59985714Y-38357857D01*
X59950000Y-38322142D01*
X59914285Y-38250714D01*
X59914285Y-38107857D01*
X59950000Y-38036428D01*
X59985714Y-38000714D01*
X60057142Y-37965000D01*
X60235714Y-37965000D01*
X60307142Y-38000714D01*
X60342857Y-38036428D01*
X60378571Y-38107857D01*
X60378571Y-38250714D01*
X60342857Y-38322142D01*
X60307142Y-38357857D01*
X60235714Y-38393571D01*
X110824285Y-31635000D02*
X110824285Y-31706428D01*
X110860000Y-31777857D01*
X110895714Y-31813571D01*
X110967142Y-31849285D01*
X111110000Y-31885000D01*
X111288571Y-31885000D01*
X111431428Y-31849285D01*
X111502857Y-31813571D01*
X111538571Y-31777857D01*
X111574285Y-31706428D01*
X111574285Y-31635000D01*
X111538571Y-31563571D01*
X111502857Y-31527857D01*
X111431428Y-31492142D01*
X111288571Y-31456428D01*
X111110000Y-31456428D01*
X110967142Y-31492142D01*
X110895714Y-31527857D01*
X110860000Y-31563571D01*
X110824285Y-31635000D01*
X111574285Y-32599285D02*
X111574285Y-32170714D01*
X111574285Y-32385000D02*
X110824285Y-32385000D01*
X110931428Y-32313571D01*
X111002857Y-32242142D01*
X111038571Y-32170714D01*
X110895714Y-32885000D02*
X110860000Y-32920714D01*
X110824285Y-32992142D01*
X110824285Y-33170714D01*
X110860000Y-33242142D01*
X110895714Y-33277857D01*
X110967142Y-33313571D01*
X111038571Y-33313571D01*
X111145714Y-33277857D01*
X111574285Y-32849285D01*
X111574285Y-33313571D01*
X87504285Y-54495000D02*
X87504285Y-54566428D01*
X87540000Y-54637857D01*
X87575714Y-54673571D01*
X87647142Y-54709285D01*
X87790000Y-54745000D01*
X87968571Y-54745000D01*
X88111428Y-54709285D01*
X88182857Y-54673571D01*
X88218571Y-54637857D01*
X88254285Y-54566428D01*
X88254285Y-54495000D01*
X88218571Y-54423571D01*
X88182857Y-54387857D01*
X88111428Y-54352142D01*
X87968571Y-54316428D01*
X87790000Y-54316428D01*
X87647142Y-54352142D01*
X87575714Y-54387857D01*
X87540000Y-54423571D01*
X87504285Y-54495000D01*
X87575714Y-55030714D02*
X87540000Y-55066428D01*
X87504285Y-55137857D01*
X87504285Y-55316428D01*
X87540000Y-55387857D01*
X87575714Y-55423571D01*
X87647142Y-55459285D01*
X87718571Y-55459285D01*
X87825714Y-55423571D01*
X88254285Y-54995000D01*
X88254285Y-55459285D01*
X88254285Y-56173571D02*
X88254285Y-55745000D01*
X88254285Y-55959285D02*
X87504285Y-55959285D01*
X87611428Y-55887857D01*
X87682857Y-55816428D01*
X87718571Y-55745000D01*
X129874285Y-44338385D02*
X129874285Y-44409813D01*
X129910000Y-44481242D01*
X129945714Y-44516956D01*
X130017142Y-44552670D01*
X130160000Y-44588385D01*
X130338571Y-44588385D01*
X130481428Y-44552670D01*
X130552857Y-44516956D01*
X130588571Y-44481242D01*
X130624285Y-44409813D01*
X130624285Y-44338385D01*
X130588571Y-44266956D01*
X130552857Y-44231242D01*
X130481428Y-44195527D01*
X130338571Y-44159813D01*
X130160000Y-44159813D01*
X130017142Y-44195527D01*
X129945714Y-44231242D01*
X129910000Y-44266956D01*
X129874285Y-44338385D01*
X130624285Y-45302670D02*
X130624285Y-44874099D01*
X130624285Y-45088385D02*
X129874285Y-45088385D01*
X129981428Y-45016956D01*
X130052857Y-44945527D01*
X130088571Y-44874099D01*
X130624285Y-46016956D02*
X130624285Y-45588385D01*
X130624285Y-45802670D02*
X129874285Y-45802670D01*
X129981428Y-45731242D01*
X130052857Y-45659813D01*
X130088571Y-45588385D01*
X83234285Y-33925000D02*
X83984285Y-34175000D01*
X83234285Y-34425000D01*
X83912857Y-35103571D02*
X83948571Y-35067857D01*
X83984285Y-34960714D01*
X83984285Y-34889285D01*
X83948571Y-34782142D01*
X83877142Y-34710714D01*
X83805714Y-34675000D01*
X83662857Y-34639285D01*
X83555714Y-34639285D01*
X83412857Y-34675000D01*
X83341428Y-34710714D01*
X83270000Y-34782142D01*
X83234285Y-34889285D01*
X83234285Y-34960714D01*
X83270000Y-35067857D01*
X83305714Y-35103571D01*
X83912857Y-35853571D02*
X83948571Y-35817857D01*
X83984285Y-35710714D01*
X83984285Y-35639285D01*
X83948571Y-35532142D01*
X83877142Y-35460714D01*
X83805714Y-35425000D01*
X83662857Y-35389285D01*
X83555714Y-35389285D01*
X83412857Y-35425000D01*
X83341428Y-35460714D01*
X83270000Y-35532142D01*
X83234285Y-35639285D01*
X83234285Y-35710714D01*
X83270000Y-35817857D01*
X83305714Y-35853571D01*
X130624285Y-75065000D02*
X130624285Y-74636428D01*
X130624285Y-74850714D02*
X129874285Y-74850714D01*
X129981428Y-74779285D01*
X130052857Y-74707857D01*
X130088571Y-74636428D01*
X129874285Y-75529285D02*
X129874285Y-75600714D01*
X129910000Y-75672142D01*
X129945714Y-75707857D01*
X130017142Y-75743571D01*
X130160000Y-75779285D01*
X130338571Y-75779285D01*
X130481428Y-75743571D01*
X130552857Y-75707857D01*
X130588571Y-75672142D01*
X130624285Y-75600714D01*
X130624285Y-75529285D01*
X130588571Y-75457857D01*
X130552857Y-75422142D01*
X130481428Y-75386428D01*
X130338571Y-75350714D01*
X130160000Y-75350714D01*
X130017142Y-75386428D01*
X129945714Y-75422142D01*
X129910000Y-75457857D01*
X129874285Y-75529285D01*
X129874285Y-76457857D02*
X129874285Y-76100714D01*
X130231428Y-76065000D01*
X130195714Y-76100714D01*
X130160000Y-76172142D01*
X130160000Y-76350714D01*
X130195714Y-76422142D01*
X130231428Y-76457857D01*
X130302857Y-76493571D01*
X130481428Y-76493571D01*
X130552857Y-76457857D01*
X130588571Y-76422142D01*
X130624285Y-76350714D01*
X130624285Y-76172142D01*
X130588571Y-76100714D01*
X130552857Y-76065000D01*
D12*
X70639857Y-79061428D02*
X70639857Y-78061428D01*
X70639857Y-78918571D02*
X70711285Y-78990000D01*
X70854142Y-79061428D01*
X71068428Y-79061428D01*
X71211285Y-78990000D01*
X71282714Y-78847142D01*
X71282714Y-78061428D01*
X72854142Y-78061428D02*
X72354142Y-78775714D01*
X71997000Y-78061428D02*
X71997000Y-79561428D01*
X72568428Y-79561428D01*
X72711285Y-79490000D01*
X72782714Y-79418571D01*
X72854142Y-79275714D01*
X72854142Y-79061428D01*
X72782714Y-78918571D01*
X72711285Y-78847142D01*
X72568428Y-78775714D01*
X71997000Y-78775714D01*
X73997000Y-78847142D02*
X73497000Y-78847142D01*
X73497000Y-78061428D02*
X73497000Y-79561428D01*
X74211285Y-79561428D01*
X74782714Y-78061428D02*
X74782714Y-79561428D01*
X75354142Y-79561428D01*
X75497000Y-79490000D01*
X75568428Y-79418571D01*
X75639857Y-79275714D01*
X75639857Y-79061428D01*
X75568428Y-78918571D01*
X75497000Y-78847142D01*
X75354142Y-78775714D01*
X74782714Y-78775714D01*
X76282714Y-78061428D02*
X76282714Y-79061428D01*
X76282714Y-79561428D02*
X76211285Y-79490000D01*
X76282714Y-79418571D01*
X76354142Y-79490000D01*
X76282714Y-79561428D01*
X76282714Y-79418571D01*
X77211285Y-78061428D02*
X77068428Y-78132857D01*
X76997000Y-78275714D01*
X76997000Y-79561428D01*
X77997000Y-78061428D02*
X77854142Y-78132857D01*
X77782714Y-78275714D01*
X77782714Y-79561428D01*
D10*
X87504285Y-34175000D02*
X87504285Y-34246428D01*
X87540000Y-34317857D01*
X87575714Y-34353571D01*
X87647142Y-34389285D01*
X87790000Y-34425000D01*
X87968571Y-34425000D01*
X88111428Y-34389285D01*
X88182857Y-34353571D01*
X88218571Y-34317857D01*
X88254285Y-34246428D01*
X88254285Y-34175000D01*
X88218571Y-34103571D01*
X88182857Y-34067857D01*
X88111428Y-34032142D01*
X87968571Y-33996428D01*
X87790000Y-33996428D01*
X87647142Y-34032142D01*
X87575714Y-34067857D01*
X87540000Y-34103571D01*
X87504285Y-34175000D01*
X88254285Y-35139285D02*
X88254285Y-34710714D01*
X88254285Y-34925000D02*
X87504285Y-34925000D01*
X87611428Y-34853571D01*
X87682857Y-34782142D01*
X87718571Y-34710714D01*
X87504285Y-35782142D02*
X87504285Y-35639285D01*
X87540000Y-35567857D01*
X87575714Y-35532142D01*
X87682857Y-35460714D01*
X87825714Y-35425000D01*
X88111428Y-35425000D01*
X88182857Y-35460714D01*
X88218571Y-35496428D01*
X88254285Y-35567857D01*
X88254285Y-35710714D01*
X88218571Y-35782142D01*
X88182857Y-35817857D01*
X88111428Y-35853571D01*
X87932857Y-35853571D01*
X87861428Y-35817857D01*
X87825714Y-35782142D01*
X87790000Y-35710714D01*
X87790000Y-35567857D01*
X87825714Y-35496428D01*
X87861428Y-35460714D01*
X87932857Y-35425000D01*
X40864285Y-31635000D02*
X40864285Y-31706428D01*
X40900000Y-31777857D01*
X40935714Y-31813571D01*
X41007142Y-31849285D01*
X41150000Y-31885000D01*
X41328571Y-31885000D01*
X41471428Y-31849285D01*
X41542857Y-31813571D01*
X41578571Y-31777857D01*
X41614285Y-31706428D01*
X41614285Y-31635000D01*
X41578571Y-31563571D01*
X41542857Y-31527857D01*
X41471428Y-31492142D01*
X41328571Y-31456428D01*
X41150000Y-31456428D01*
X41007142Y-31492142D01*
X40935714Y-31527857D01*
X40900000Y-31563571D01*
X40864285Y-31635000D01*
X41614285Y-32599285D02*
X41614285Y-32170714D01*
X41614285Y-32385000D02*
X40864285Y-32385000D01*
X40971428Y-32313571D01*
X41042857Y-32242142D01*
X41078571Y-32170714D01*
X40935714Y-32885000D02*
X40900000Y-32920714D01*
X40864285Y-32992142D01*
X40864285Y-33170714D01*
X40900000Y-33242142D01*
X40935714Y-33277857D01*
X41007142Y-33313571D01*
X41078571Y-33313571D01*
X41185714Y-33277857D01*
X41614285Y-32849285D01*
X41614285Y-33313571D01*
X83984285Y-75065000D02*
X83984285Y-74636428D01*
X83984285Y-74850714D02*
X83234285Y-74850714D01*
X83341428Y-74779285D01*
X83412857Y-74707857D01*
X83448571Y-74636428D01*
X83234285Y-75529285D02*
X83234285Y-75600714D01*
X83270000Y-75672142D01*
X83305714Y-75707857D01*
X83377142Y-75743571D01*
X83520000Y-75779285D01*
X83698571Y-75779285D01*
X83841428Y-75743571D01*
X83912857Y-75707857D01*
X83948571Y-75672142D01*
X83984285Y-75600714D01*
X83984285Y-75529285D01*
X83948571Y-75457857D01*
X83912857Y-75422142D01*
X83841428Y-75386428D01*
X83698571Y-75350714D01*
X83520000Y-75350714D01*
X83377142Y-75386428D01*
X83305714Y-75422142D01*
X83270000Y-75457857D01*
X83234285Y-75529285D01*
X83234285Y-76457857D02*
X83234285Y-76100714D01*
X83591428Y-76065000D01*
X83555714Y-76100714D01*
X83520000Y-76172142D01*
X83520000Y-76350714D01*
X83555714Y-76422142D01*
X83591428Y-76457857D01*
X83662857Y-76493571D01*
X83841428Y-76493571D01*
X83912857Y-76457857D01*
X83948571Y-76422142D01*
X83984285Y-76350714D01*
X83984285Y-76172142D01*
X83948571Y-76100714D01*
X83912857Y-76065000D01*
X129874285Y-69735000D02*
X129874285Y-69806428D01*
X129910000Y-69877857D01*
X129945714Y-69913571D01*
X130017142Y-69949285D01*
X130160000Y-69985000D01*
X130338571Y-69985000D01*
X130481428Y-69949285D01*
X130552857Y-69913571D01*
X130588571Y-69877857D01*
X130624285Y-69806428D01*
X130624285Y-69735000D01*
X130588571Y-69663571D01*
X130552857Y-69627857D01*
X130481428Y-69592142D01*
X130338571Y-69556428D01*
X130160000Y-69556428D01*
X130017142Y-69592142D01*
X129945714Y-69627857D01*
X129910000Y-69663571D01*
X129874285Y-69735000D01*
X129874285Y-70449285D02*
X129874285Y-70520714D01*
X129910000Y-70592142D01*
X129945714Y-70627857D01*
X130017142Y-70663571D01*
X130160000Y-70699285D01*
X130338571Y-70699285D01*
X130481428Y-70663571D01*
X130552857Y-70627857D01*
X130588571Y-70592142D01*
X130624285Y-70520714D01*
X130624285Y-70449285D01*
X130588571Y-70377857D01*
X130552857Y-70342142D01*
X130481428Y-70306428D01*
X130338571Y-70270714D01*
X130160000Y-70270714D01*
X130017142Y-70306428D01*
X129945714Y-70342142D01*
X129910000Y-70377857D01*
X129874285Y-70449285D01*
X129874285Y-71163571D02*
X129874285Y-71235000D01*
X129910000Y-71306428D01*
X129945714Y-71342142D01*
X130017142Y-71377857D01*
X130160000Y-71413571D01*
X130338571Y-71413571D01*
X130481428Y-71377857D01*
X130552857Y-71342142D01*
X130588571Y-71306428D01*
X130624285Y-71235000D01*
X130624285Y-71163571D01*
X130588571Y-71092142D01*
X130552857Y-71056428D01*
X130481428Y-71020714D01*
X130338571Y-70985000D01*
X130160000Y-70985000D01*
X130017142Y-71020714D01*
X129945714Y-71056428D01*
X129910000Y-71092142D01*
X129874285Y-71163571D01*
X87504285Y-39255000D02*
X87504285Y-39326428D01*
X87540000Y-39397857D01*
X87575714Y-39433571D01*
X87647142Y-39469285D01*
X87790000Y-39505000D01*
X87968571Y-39505000D01*
X88111428Y-39469285D01*
X88182857Y-39433571D01*
X88218571Y-39397857D01*
X88254285Y-39326428D01*
X88254285Y-39255000D01*
X88218571Y-39183571D01*
X88182857Y-39147857D01*
X88111428Y-39112142D01*
X87968571Y-39076428D01*
X87790000Y-39076428D01*
X87647142Y-39112142D01*
X87575714Y-39147857D01*
X87540000Y-39183571D01*
X87504285Y-39255000D01*
X88254285Y-40219285D02*
X88254285Y-39790714D01*
X88254285Y-40005000D02*
X87504285Y-40005000D01*
X87611428Y-39933571D01*
X87682857Y-39862142D01*
X87718571Y-39790714D01*
X88254285Y-40576428D02*
X88254285Y-40719285D01*
X88218571Y-40790714D01*
X88182857Y-40826428D01*
X88075714Y-40897857D01*
X87932857Y-40933571D01*
X87647142Y-40933571D01*
X87575714Y-40897857D01*
X87540000Y-40862142D01*
X87504285Y-40790714D01*
X87504285Y-40647857D01*
X87540000Y-40576428D01*
X87575714Y-40540714D01*
X87647142Y-40505000D01*
X87825714Y-40505000D01*
X87897142Y-40540714D01*
X87932857Y-40576428D01*
X87968571Y-40647857D01*
X87968571Y-40790714D01*
X87932857Y-40862142D01*
X87897142Y-40897857D01*
X87825714Y-40933571D01*
X110824285Y-64655000D02*
X110824285Y-64726428D01*
X110860000Y-64797857D01*
X110895714Y-64833571D01*
X110967142Y-64869285D01*
X111110000Y-64905000D01*
X111288571Y-64905000D01*
X111431428Y-64869285D01*
X111502857Y-64833571D01*
X111538571Y-64797857D01*
X111574285Y-64726428D01*
X111574285Y-64655000D01*
X111538571Y-64583571D01*
X111502857Y-64547857D01*
X111431428Y-64512142D01*
X111288571Y-64476428D01*
X111110000Y-64476428D01*
X110967142Y-64512142D01*
X110895714Y-64547857D01*
X110860000Y-64583571D01*
X110824285Y-64655000D01*
X110895714Y-65190714D02*
X110860000Y-65226428D01*
X110824285Y-65297857D01*
X110824285Y-65476428D01*
X110860000Y-65547857D01*
X110895714Y-65583571D01*
X110967142Y-65619285D01*
X111038571Y-65619285D01*
X111145714Y-65583571D01*
X111574285Y-65155000D01*
X111574285Y-65619285D01*
X111074285Y-66262142D02*
X111574285Y-66262142D01*
X110788571Y-66083571D02*
X111324285Y-65905000D01*
X111324285Y-66369285D01*
X40864285Y-44335000D02*
X40864285Y-44406428D01*
X40900000Y-44477857D01*
X40935714Y-44513571D01*
X41007142Y-44549285D01*
X41150000Y-44585000D01*
X41328571Y-44585000D01*
X41471428Y-44549285D01*
X41542857Y-44513571D01*
X41578571Y-44477857D01*
X41614285Y-44406428D01*
X41614285Y-44335000D01*
X41578571Y-44263571D01*
X41542857Y-44227857D01*
X41471428Y-44192142D01*
X41328571Y-44156428D01*
X41150000Y-44156428D01*
X41007142Y-44192142D01*
X40935714Y-44227857D01*
X40900000Y-44263571D01*
X40864285Y-44335000D01*
X41614285Y-45299285D02*
X41614285Y-44870714D01*
X41614285Y-45085000D02*
X40864285Y-45085000D01*
X40971428Y-45013571D01*
X41042857Y-44942142D01*
X41078571Y-44870714D01*
X40864285Y-45977857D02*
X40864285Y-45620714D01*
X41221428Y-45585000D01*
X41185714Y-45620714D01*
X41150000Y-45692142D01*
X41150000Y-45870714D01*
X41185714Y-45942142D01*
X41221428Y-45977857D01*
X41292857Y-46013571D01*
X41471428Y-46013571D01*
X41542857Y-45977857D01*
X41578571Y-45942142D01*
X41614285Y-45870714D01*
X41614285Y-45692142D01*
X41578571Y-45620714D01*
X41542857Y-45585000D01*
X111574285Y-29345000D02*
X111574285Y-28916428D01*
X111574285Y-29130714D02*
X110824285Y-29130714D01*
X110931428Y-29059285D01*
X111002857Y-28987857D01*
X111038571Y-28916428D01*
X110824285Y-29809285D02*
X110824285Y-29880714D01*
X110860000Y-29952142D01*
X110895714Y-29987857D01*
X110967142Y-30023571D01*
X111110000Y-30059285D01*
X111288571Y-30059285D01*
X111431428Y-30023571D01*
X111502857Y-29987857D01*
X111538571Y-29952142D01*
X111574285Y-29880714D01*
X111574285Y-29809285D01*
X111538571Y-29737857D01*
X111502857Y-29702142D01*
X111431428Y-29666428D01*
X111288571Y-29630714D01*
X111110000Y-29630714D01*
X110967142Y-29666428D01*
X110895714Y-29702142D01*
X110860000Y-29737857D01*
X110824285Y-29809285D01*
X110824285Y-30309285D02*
X110824285Y-30809285D01*
X111574285Y-30487857D01*
X41614285Y-49504285D02*
X40864285Y-49504285D01*
X40864285Y-49682857D01*
X40900000Y-49790000D01*
X40971428Y-49861428D01*
X41042857Y-49897142D01*
X41185714Y-49932857D01*
X41292857Y-49932857D01*
X41435714Y-49897142D01*
X41507142Y-49861428D01*
X41578571Y-49790000D01*
X41614285Y-49682857D01*
X41614285Y-49504285D01*
X41328571Y-50254285D02*
X41328571Y-50825714D01*
X41614285Y-50540000D02*
X41042857Y-50540000D01*
X87504285Y-64655000D02*
X87504285Y-64726428D01*
X87540000Y-64797857D01*
X87575714Y-64833571D01*
X87647142Y-64869285D01*
X87790000Y-64905000D01*
X87968571Y-64905000D01*
X88111428Y-64869285D01*
X88182857Y-64833571D01*
X88218571Y-64797857D01*
X88254285Y-64726428D01*
X88254285Y-64655000D01*
X88218571Y-64583571D01*
X88182857Y-64547857D01*
X88111428Y-64512142D01*
X87968571Y-64476428D01*
X87790000Y-64476428D01*
X87647142Y-64512142D01*
X87575714Y-64547857D01*
X87540000Y-64583571D01*
X87504285Y-64655000D01*
X87575714Y-65190714D02*
X87540000Y-65226428D01*
X87504285Y-65297857D01*
X87504285Y-65476428D01*
X87540000Y-65547857D01*
X87575714Y-65583571D01*
X87647142Y-65619285D01*
X87718571Y-65619285D01*
X87825714Y-65583571D01*
X88254285Y-65155000D01*
X88254285Y-65619285D01*
X87754285Y-66262142D02*
X88254285Y-66262142D01*
X87468571Y-66083571D02*
X88004285Y-65905000D01*
X88004285Y-66369285D01*
X129910000Y-31813571D02*
X129874285Y-31742142D01*
X129874285Y-31635000D01*
X129910000Y-31527857D01*
X129981428Y-31456428D01*
X130052857Y-31420714D01*
X130195714Y-31385000D01*
X130302857Y-31385000D01*
X130445714Y-31420714D01*
X130517142Y-31456428D01*
X130588571Y-31527857D01*
X130624285Y-31635000D01*
X130624285Y-31706428D01*
X130588571Y-31813571D01*
X130552857Y-31849285D01*
X130302857Y-31849285D01*
X130302857Y-31706428D01*
X130624285Y-32170714D02*
X129874285Y-32170714D01*
X130624285Y-32599285D01*
X129874285Y-32599285D01*
X130624285Y-32956428D02*
X129874285Y-32956428D01*
X129874285Y-33135000D01*
X129910000Y-33242142D01*
X129981428Y-33313571D01*
X130052857Y-33349285D01*
X130195714Y-33385000D01*
X130302857Y-33385000D01*
X130445714Y-33349285D01*
X130517142Y-33313571D01*
X130588571Y-33242142D01*
X130624285Y-33135000D01*
X130624285Y-32956428D01*
X40864285Y-59575000D02*
X40864285Y-59646428D01*
X40900000Y-59717857D01*
X40935714Y-59753571D01*
X41007142Y-59789285D01*
X41150000Y-59825000D01*
X41328571Y-59825000D01*
X41471428Y-59789285D01*
X41542857Y-59753571D01*
X41578571Y-59717857D01*
X41614285Y-59646428D01*
X41614285Y-59575000D01*
X41578571Y-59503571D01*
X41542857Y-59467857D01*
X41471428Y-59432142D01*
X41328571Y-59396428D01*
X41150000Y-59396428D01*
X41007142Y-59432142D01*
X40935714Y-59467857D01*
X40900000Y-59503571D01*
X40864285Y-59575000D01*
X40935714Y-60110714D02*
X40900000Y-60146428D01*
X40864285Y-60217857D01*
X40864285Y-60396428D01*
X40900000Y-60467857D01*
X40935714Y-60503571D01*
X41007142Y-60539285D01*
X41078571Y-60539285D01*
X41185714Y-60503571D01*
X41614285Y-60075000D01*
X41614285Y-60539285D01*
X40864285Y-61003571D02*
X40864285Y-61075000D01*
X40900000Y-61146428D01*
X40935714Y-61182142D01*
X41007142Y-61217857D01*
X41150000Y-61253571D01*
X41328571Y-61253571D01*
X41471428Y-61217857D01*
X41542857Y-61182142D01*
X41578571Y-61146428D01*
X41614285Y-61075000D01*
X41614285Y-61003571D01*
X41578571Y-60932142D01*
X41542857Y-60896428D01*
X41471428Y-60860714D01*
X41328571Y-60825000D01*
X41150000Y-60825000D01*
X41007142Y-60860714D01*
X40935714Y-60896428D01*
X40900000Y-60932142D01*
X40864285Y-61003571D01*
X40864285Y-57035000D02*
X40864285Y-57106428D01*
X40900000Y-57177857D01*
X40935714Y-57213571D01*
X41007142Y-57249285D01*
X41150000Y-57285000D01*
X41328571Y-57285000D01*
X41471428Y-57249285D01*
X41542857Y-57213571D01*
X41578571Y-57177857D01*
X41614285Y-57106428D01*
X41614285Y-57035000D01*
X41578571Y-56963571D01*
X41542857Y-56927857D01*
X41471428Y-56892142D01*
X41328571Y-56856428D01*
X41150000Y-56856428D01*
X41007142Y-56892142D01*
X40935714Y-56927857D01*
X40900000Y-56963571D01*
X40864285Y-57035000D01*
X40935714Y-57570714D02*
X40900000Y-57606428D01*
X40864285Y-57677857D01*
X40864285Y-57856428D01*
X40900000Y-57927857D01*
X40935714Y-57963571D01*
X41007142Y-57999285D01*
X41078571Y-57999285D01*
X41185714Y-57963571D01*
X41614285Y-57535000D01*
X41614285Y-57999285D01*
X40864285Y-58249285D02*
X40864285Y-58713571D01*
X41150000Y-58463571D01*
X41150000Y-58570714D01*
X41185714Y-58642142D01*
X41221428Y-58677857D01*
X41292857Y-58713571D01*
X41471428Y-58713571D01*
X41542857Y-58677857D01*
X41578571Y-58642142D01*
X41614285Y-58570714D01*
X41614285Y-58356428D01*
X41578571Y-58285000D01*
X41542857Y-58249285D01*
D13*
X121710000Y-70485000D02*
G75*
G03*
X121710000Y-70485000I-950000J0D01*
G01*
X51750000Y-70485000D02*
G75*
G03*
X51750000Y-70485000I-950000J0D01*
G01*
X49850000Y-73528100D02*
X49850000Y-72521900D01*
X50296900Y-73975000D02*
X51303100Y-73975000D01*
X50296900Y-72075000D02*
X51303100Y-72075000D01*
X51750000Y-73528100D02*
X51750000Y-72521900D01*
X50296900Y-72075000D02*
G75*
G03*
X49850000Y-72521900I0J-446900D01*
G01*
X49850000Y-73528100D02*
G75*
G03*
X50296900Y-73975000I446900J0D01*
G01*
X51750000Y-72521900D02*
G75*
G03*
X51303100Y-72075000I-446900J0D01*
G01*
X51303100Y-73975000D02*
G75*
G03*
X51750000Y-73528100I0J446900D01*
G01*
X96936900Y-73975000D02*
X97943100Y-73975000D01*
X96936900Y-72075000D02*
X97943100Y-72075000D01*
X96490000Y-73528100D02*
X96490000Y-72521900D01*
X98390000Y-73528100D02*
X98390000Y-72521900D01*
X97943100Y-73975000D02*
G75*
G03*
X98390000Y-73528100I0J446900D01*
G01*
X96490000Y-73528100D02*
G75*
G03*
X96936900Y-73975000I446900J0D01*
G01*
X96936900Y-72075000D02*
G75*
G03*
X96490000Y-72521900I0J-446900D01*
G01*
X98390000Y-72521900D02*
G75*
G03*
X97943100Y-72075000I-446900J0D01*
G01*
X73616900Y-73975000D02*
X74623100Y-73975000D01*
X73616900Y-72075000D02*
X74623100Y-72075000D01*
X75070000Y-73528100D02*
X75070000Y-72521900D01*
X73170000Y-73528100D02*
X73170000Y-72521900D01*
X73616900Y-72075000D02*
G75*
G03*
X73170000Y-72521900I0J-446900D01*
G01*
X75070000Y-72521900D02*
G75*
G03*
X74623100Y-72075000I-446900J0D01*
G01*
X73170000Y-73528100D02*
G75*
G03*
X73616900Y-73975000I446900J0D01*
G01*
X74623100Y-73975000D02*
G75*
G03*
X75070000Y-73528100I0J446900D01*
G01*
X121710000Y-73528100D02*
X121710000Y-72521900D01*
X120256900Y-72075000D02*
X121263100Y-72075000D01*
X119810000Y-73528100D02*
X119810000Y-72521900D01*
X120256900Y-73975000D02*
X121263100Y-73975000D01*
X119810000Y-73528100D02*
G75*
G03*
X120256900Y-73975000I446900J0D01*
G01*
X121710000Y-72521900D02*
G75*
G03*
X121263100Y-72075000I-446900J0D01*
G01*
X121263100Y-73975000D02*
G75*
G03*
X121710000Y-73528100I0J446900D01*
G01*
X120256900Y-72075000D02*
G75*
G03*
X119810000Y-72521900I0J-446900D01*
G01*
X75070000Y-70485000D02*
G75*
G03*
X75070000Y-70485000I-950000J0D01*
G01*
X98390000Y-70485000D02*
G75*
G03*
X98390000Y-70485000I-950000J0D01*
G01*
%LPC*%
D14*
X108084000Y-40005000D03*
X110116000Y-37465000D03*
X108084000Y-38735000D03*
X108084000Y-34925000D03*
X108084000Y-37465000D03*
X110116000Y-38735000D03*
X110116000Y-34925000D03*
X110116000Y-36195000D03*
X108084000Y-36195000D03*
X110116000Y-40005000D03*
X108084000Y-67945000D03*
X110116000Y-64135000D03*
X110116000Y-67945000D03*
X108084000Y-65405000D03*
X110116000Y-62865000D03*
X110116000Y-65405000D03*
X108084000Y-62865000D03*
X110116000Y-66675000D03*
X108084000Y-66675000D03*
X108084000Y-64135000D03*
X84764000Y-67945000D03*
X86796000Y-64135000D03*
X86796000Y-67945000D03*
X84764000Y-65405000D03*
X86796000Y-62865000D03*
X86796000Y-65405000D03*
X84764000Y-62865000D03*
X86796000Y-66675000D03*
X84764000Y-66675000D03*
X84764000Y-64135000D03*
X84764000Y-40005000D03*
X86796000Y-37465000D03*
X84764000Y-38735000D03*
X84764000Y-34925000D03*
X84764000Y-37465000D03*
X86796000Y-38735000D03*
X86796000Y-34925000D03*
X86796000Y-36195000D03*
X84764000Y-36195000D03*
X86796000Y-40005000D03*
X61444000Y-64135000D03*
X61444000Y-67945000D03*
X63476000Y-64135000D03*
X61444000Y-65405000D03*
X63476000Y-62865000D03*
X61444000Y-62865000D03*
X63476000Y-67945000D03*
X63476000Y-66675000D03*
X61444000Y-66675000D03*
X63476000Y-65405000D03*
X61444000Y-36195000D03*
X61444000Y-40005000D03*
X63476000Y-36195000D03*
X61444000Y-37465000D03*
X63476000Y-34925000D03*
X61444000Y-34925000D03*
X63476000Y-40005000D03*
X63476000Y-38735000D03*
X61444000Y-38735000D03*
X63476000Y-37465000D03*
D15*
X58420000Y-29845000D03*
X58420000Y-32385000D03*
X58420000Y-34925000D03*
X58420000Y-37465000D03*
X58420000Y-40005000D03*
X58420000Y-42545000D03*
X58420000Y-45085000D03*
X58420000Y-47625000D03*
X58420000Y-50165000D03*
X58420000Y-52705000D03*
X58420000Y-55245000D03*
X58420000Y-57785000D03*
X58420000Y-60325000D03*
X58420000Y-62865000D03*
X58420000Y-65405000D03*
X58420000Y-67945000D03*
X58420000Y-70485000D03*
X58420000Y-73025000D03*
X58420000Y-75565000D03*
X58420000Y-78105000D03*
X43180000Y-29845000D03*
X43180000Y-32385000D03*
X43180000Y-34925000D03*
X43180000Y-37465000D03*
X43180000Y-40005000D03*
X43180000Y-42545000D03*
X43180000Y-45085000D03*
X43180000Y-47625000D03*
X43180000Y-50165000D03*
X43180000Y-52705000D03*
X43180000Y-55245000D03*
X43180000Y-57785000D03*
X43180000Y-60325000D03*
X43180000Y-62865000D03*
X43180000Y-65405000D03*
X43180000Y-67945000D03*
X43180000Y-70485000D03*
X43180000Y-73025000D03*
X43180000Y-75565000D03*
X43180000Y-78105000D03*
X89820000Y-29845000D03*
X89820000Y-32385000D03*
X89820000Y-34925000D03*
X89820000Y-37465000D03*
X89820000Y-40005000D03*
X89820000Y-42545000D03*
X89820000Y-45085000D03*
X89820000Y-47625000D03*
X89820000Y-50165000D03*
X89820000Y-52705000D03*
X89820000Y-55245000D03*
X89820000Y-57785000D03*
X89820000Y-60325000D03*
X89820000Y-62865000D03*
X89820000Y-65405000D03*
X89820000Y-67945000D03*
X89820000Y-70485000D03*
X89820000Y-73025000D03*
X89820000Y-75565000D03*
X89820000Y-78105000D03*
X105060000Y-29845000D03*
X105060000Y-32385000D03*
X105060000Y-34925000D03*
X105060000Y-37465000D03*
X105060000Y-40005000D03*
X105060000Y-42545000D03*
X105060000Y-45085000D03*
X105060000Y-47625000D03*
X105060000Y-50165000D03*
X105060000Y-52705000D03*
X105060000Y-55245000D03*
X105060000Y-57785000D03*
X105060000Y-60325000D03*
X105060000Y-62865000D03*
X105060000Y-65405000D03*
X105060000Y-67945000D03*
X105060000Y-70485000D03*
X105060000Y-73025000D03*
X105060000Y-75565000D03*
X105060000Y-78105000D03*
X113140000Y-29845000D03*
X113140000Y-32385000D03*
X113140000Y-34925000D03*
X113140000Y-37465000D03*
X113140000Y-40005000D03*
X113140000Y-42545000D03*
X113140000Y-45085000D03*
X113140000Y-47625000D03*
X113140000Y-50165000D03*
X113140000Y-52705000D03*
X113140000Y-55245000D03*
X113140000Y-57785000D03*
X113140000Y-60325000D03*
X113140000Y-62865000D03*
X113140000Y-65405000D03*
X113140000Y-67945000D03*
X113140000Y-70485000D03*
X113140000Y-73025000D03*
X113140000Y-75565000D03*
X113140000Y-78105000D03*
D16*
X123650000Y-34355000D03*
X117870000Y-34355000D03*
D17*
X116440000Y-30675000D03*
D18*
X125080000Y-34855000D03*
D17*
X125080000Y-30675000D03*
D18*
X116440000Y-34855000D03*
D15*
X128380000Y-29845000D03*
X128380000Y-32385000D03*
X128380000Y-34925000D03*
X128380000Y-37465000D03*
X128380000Y-40005000D03*
X128380000Y-42545000D03*
X128380000Y-45085000D03*
X128380000Y-47625000D03*
X128380000Y-50165000D03*
X128380000Y-52705000D03*
X128380000Y-55245000D03*
X128380000Y-57785000D03*
X128380000Y-60325000D03*
X128380000Y-62865000D03*
X128380000Y-65405000D03*
X128380000Y-67945000D03*
X128380000Y-70485000D03*
X128380000Y-73025000D03*
X128380000Y-75565000D03*
X128380000Y-78105000D03*
D16*
X53690000Y-34355000D03*
X47910000Y-34355000D03*
D17*
X55120000Y-30675000D03*
X46480000Y-30675000D03*
D18*
X46480000Y-34855000D03*
X55120000Y-34855000D03*
D16*
X77010000Y-34355000D03*
X71230000Y-34355000D03*
D17*
X69800000Y-30675000D03*
D18*
X78440000Y-34855000D03*
D17*
X78440000Y-30675000D03*
D18*
X69800000Y-34855000D03*
D15*
X66500000Y-29845000D03*
X66500000Y-32385000D03*
X66500000Y-34925000D03*
X66500000Y-37465000D03*
X66500000Y-40005000D03*
X66500000Y-42545000D03*
X66500000Y-45085000D03*
X66500000Y-47625000D03*
X66500000Y-50165000D03*
X66500000Y-52705000D03*
X66500000Y-55245000D03*
X66500000Y-57785000D03*
X66500000Y-60325000D03*
X66500000Y-62865000D03*
X66500000Y-65405000D03*
X66500000Y-67945000D03*
X66500000Y-70485000D03*
X66500000Y-73025000D03*
X66500000Y-75565000D03*
X66500000Y-78105000D03*
D16*
X94550000Y-34355000D03*
X100330000Y-34355000D03*
D18*
X93120000Y-34855000D03*
X101760000Y-34855000D03*
D17*
X101760000Y-30675000D03*
X93120000Y-30675000D03*
D15*
X81740000Y-29845000D03*
X81740000Y-32385000D03*
X81740000Y-34925000D03*
X81740000Y-37465000D03*
X81740000Y-40005000D03*
X81740000Y-42545000D03*
X81740000Y-45085000D03*
X81740000Y-47625000D03*
X81740000Y-50165000D03*
X81740000Y-52705000D03*
X81740000Y-55245000D03*
X81740000Y-57785000D03*
X81740000Y-60325000D03*
X81740000Y-62865000D03*
X81740000Y-65405000D03*
X81740000Y-67945000D03*
X81740000Y-70485000D03*
X81740000Y-73025000D03*
X81740000Y-75565000D03*
X81740000Y-78105000D03*
D19*
X120760000Y-70485000D03*
X50800000Y-70485000D03*
D20*
X50800000Y-73025000D03*
X97440000Y-73025000D03*
X74120000Y-73025000D03*
X120760000Y-73025000D03*
D19*
X74120000Y-70485000D03*
X97440000Y-70485000D03*
M02*
